<?xml version="1.0" encoding="utf-8" standalone="no"?>
<!DOCTYPE svg PUBLIC "-//W3C//DTD SVG 1.1//EN"
  "http://www.w3.org/Graphics/SVG/1.1/DTD/svg11.dtd">
<svg xmlns:xlink="http://www.w3.org/1999/xlink" width="460.8pt" height="345.6pt" viewBox="0 0 460.8 345.6" xmlns="http://www.w3.org/2000/svg" version="1.1">
 <metadata>
  <rdf:RDF xmlns:dc="http://purl.org/dc/elements/1.1/" xmlns:cc="http://creativecommons.org/ns#" xmlns:rdf="http://www.w3.org/1999/02/22-rdf-syntax-ns#">
   <cc:Work>
    <dc:type rdf:resource="http://purl.org/dc/dcmitype/StillImage"/>
    <dc:date>2022-11-19T22:40:35.511930</dc:date>
    <dc:format>image/svg+xml</dc:format>
    <dc:creator>
     <cc:Agent>
      <dc:title>Matplotlib v3.6.2, https://matplotlib.org/</dc:title>
     </cc:Agent>
    </dc:creator>
   </cc:Work>
  </rdf:RDF>
 </metadata>
 <defs>
  <style type="text/css">*{stroke-linejoin: round; stroke-linecap: butt}</style>
 </defs>
 <g id="figure_1">
  <g id="patch_1">
   <path d="M 0 345.6 
L 460.8 345.6 
L 460.8 0 
L 0 0 
z
" style="fill: #ffffff"/>
  </g>
  <g id="axes_1">
   <g id="patch_2">
    <path d="M 57.6 307.584 
L 414.72 307.584 
L 414.72 41.472 
L 57.6 41.472 
z
" style="fill: #ffffff"/>
   </g>
   <g id="matplotlib.axis_1">
    <g id="xtick_1">
     <g id="line2d_1">
      <defs>
       <path id="m12f63a5f24" d="M 0 0 
L 0 3.5 
" style="stroke: #000000; stroke-width: 0.8"/>
      </defs>
      <g>
       <use xlink:href="#m12f63a5f24" x="73.832727" y="307.584" style="stroke: #000000; stroke-width: 0.8"/>
      </g>
     </g>
     <g id="text_1">
      <!-- 0.0 -->
      <g transform="translate(65.881165 322.182437) scale(0.1 -0.1)">
       <defs>
        <path id="DejaVuSans-30" d="M 2034 4250 
Q 1547 4250 1301 3770 
Q 1056 3291 1056 2328 
Q 1056 1369 1301 889 
Q 1547 409 2034 409 
Q 2525 409 2770 889 
Q 3016 1369 3016 2328 
Q 3016 3291 2770 3770 
Q 2525 4250 2034 4250 
z
M 2034 4750 
Q 2819 4750 3233 4129 
Q 3647 3509 3647 2328 
Q 3647 1150 3233 529 
Q 2819 -91 2034 -91 
Q 1250 -91 836 529 
Q 422 1150 422 2328 
Q 422 3509 836 4129 
Q 1250 4750 2034 4750 
z
" transform="scale(0.015625)"/>
        <path id="DejaVuSans-2e" d="M 684 794 
L 1344 794 
L 1344 0 
L 684 0 
L 684 794 
z
" transform="scale(0.015625)"/>
       </defs>
       <use xlink:href="#DejaVuSans-30"/>
       <use xlink:href="#DejaVuSans-2e" x="63.623047"/>
       <use xlink:href="#DejaVuSans-30" x="95.410156"/>
      </g>
     </g>
    </g>
    <g id="xtick_2">
     <g id="line2d_2">
      <g>
       <use xlink:href="#m12f63a5f24" x="138.763636" y="307.584" style="stroke: #000000; stroke-width: 0.8"/>
      </g>
     </g>
     <g id="text_2">
      <!-- 0.2 -->
      <g transform="translate(130.812074 322.182437) scale(0.1 -0.1)">
       <defs>
        <path id="DejaVuSans-32" d="M 1228 531 
L 3431 531 
L 3431 0 
L 469 0 
L 469 531 
Q 828 903 1448 1529 
Q 2069 2156 2228 2338 
Q 2531 2678 2651 2914 
Q 2772 3150 2772 3378 
Q 2772 3750 2511 3984 
Q 2250 4219 1831 4219 
Q 1534 4219 1204 4116 
Q 875 4013 500 3803 
L 500 4441 
Q 881 4594 1212 4672 
Q 1544 4750 1819 4750 
Q 2544 4750 2975 4387 
Q 3406 4025 3406 3419 
Q 3406 3131 3298 2873 
Q 3191 2616 2906 2266 
Q 2828 2175 2409 1742 
Q 1991 1309 1228 531 
z
" transform="scale(0.015625)"/>
       </defs>
       <use xlink:href="#DejaVuSans-30"/>
       <use xlink:href="#DejaVuSans-2e" x="63.623047"/>
       <use xlink:href="#DejaVuSans-32" x="95.410156"/>
      </g>
     </g>
    </g>
    <g id="xtick_3">
     <g id="line2d_3">
      <g>
       <use xlink:href="#m12f63a5f24" x="203.694545" y="307.584" style="stroke: #000000; stroke-width: 0.8"/>
      </g>
     </g>
     <g id="text_3">
      <!-- 0.4 -->
      <g transform="translate(195.742983 322.182437) scale(0.1 -0.1)">
       <defs>
        <path id="DejaVuSans-34" d="M 2419 4116 
L 825 1625 
L 2419 1625 
L 2419 4116 
z
M 2253 4666 
L 3047 4666 
L 3047 1625 
L 3713 1625 
L 3713 1100 
L 3047 1100 
L 3047 0 
L 2419 0 
L 2419 1100 
L 313 1100 
L 313 1709 
L 2253 4666 
z
" transform="scale(0.015625)"/>
       </defs>
       <use xlink:href="#DejaVuSans-30"/>
       <use xlink:href="#DejaVuSans-2e" x="63.623047"/>
       <use xlink:href="#DejaVuSans-34" x="95.410156"/>
      </g>
     </g>
    </g>
    <g id="xtick_4">
     <g id="line2d_4">
      <g>
       <use xlink:href="#m12f63a5f24" x="268.625455" y="307.584" style="stroke: #000000; stroke-width: 0.8"/>
      </g>
     </g>
     <g id="text_4">
      <!-- 0.6 -->
      <g transform="translate(260.673892 322.182437) scale(0.1 -0.1)">
       <defs>
        <path id="DejaVuSans-36" d="M 2113 2584 
Q 1688 2584 1439 2293 
Q 1191 2003 1191 1497 
Q 1191 994 1439 701 
Q 1688 409 2113 409 
Q 2538 409 2786 701 
Q 3034 994 3034 1497 
Q 3034 2003 2786 2293 
Q 2538 2584 2113 2584 
z
M 3366 4563 
L 3366 3988 
Q 3128 4100 2886 4159 
Q 2644 4219 2406 4219 
Q 1781 4219 1451 3797 
Q 1122 3375 1075 2522 
Q 1259 2794 1537 2939 
Q 1816 3084 2150 3084 
Q 2853 3084 3261 2657 
Q 3669 2231 3669 1497 
Q 3669 778 3244 343 
Q 2819 -91 2113 -91 
Q 1303 -91 875 529 
Q 447 1150 447 2328 
Q 447 3434 972 4092 
Q 1497 4750 2381 4750 
Q 2619 4750 2861 4703 
Q 3103 4656 3366 4563 
z
" transform="scale(0.015625)"/>
       </defs>
       <use xlink:href="#DejaVuSans-30"/>
       <use xlink:href="#DejaVuSans-2e" x="63.623047"/>
       <use xlink:href="#DejaVuSans-36" x="95.410156"/>
      </g>
     </g>
    </g>
    <g id="xtick_5">
     <g id="line2d_5">
      <g>
       <use xlink:href="#m12f63a5f24" x="333.556364" y="307.584" style="stroke: #000000; stroke-width: 0.8"/>
      </g>
     </g>
     <g id="text_5">
      <!-- 0.8 -->
      <g transform="translate(325.604801 322.182437) scale(0.1 -0.1)">
       <defs>
        <path id="DejaVuSans-38" d="M 2034 2216 
Q 1584 2216 1326 1975 
Q 1069 1734 1069 1313 
Q 1069 891 1326 650 
Q 1584 409 2034 409 
Q 2484 409 2743 651 
Q 3003 894 3003 1313 
Q 3003 1734 2745 1975 
Q 2488 2216 2034 2216 
z
M 1403 2484 
Q 997 2584 770 2862 
Q 544 3141 544 3541 
Q 544 4100 942 4425 
Q 1341 4750 2034 4750 
Q 2731 4750 3128 4425 
Q 3525 4100 3525 3541 
Q 3525 3141 3298 2862 
Q 3072 2584 2669 2484 
Q 3125 2378 3379 2068 
Q 3634 1759 3634 1313 
Q 3634 634 3220 271 
Q 2806 -91 2034 -91 
Q 1263 -91 848 271 
Q 434 634 434 1313 
Q 434 1759 690 2068 
Q 947 2378 1403 2484 
z
M 1172 3481 
Q 1172 3119 1398 2916 
Q 1625 2713 2034 2713 
Q 2441 2713 2670 2916 
Q 2900 3119 2900 3481 
Q 2900 3844 2670 4047 
Q 2441 4250 2034 4250 
Q 1625 4250 1398 4047 
Q 1172 3844 1172 3481 
z
" transform="scale(0.015625)"/>
       </defs>
       <use xlink:href="#DejaVuSans-30"/>
       <use xlink:href="#DejaVuSans-2e" x="63.623047"/>
       <use xlink:href="#DejaVuSans-38" x="95.410156"/>
      </g>
     </g>
    </g>
    <g id="xtick_6">
     <g id="line2d_6">
      <g>
       <use xlink:href="#m12f63a5f24" x="398.487273" y="307.584" style="stroke: #000000; stroke-width: 0.8"/>
      </g>
     </g>
     <g id="text_6">
      <!-- 1.0 -->
      <g transform="translate(390.53571 322.182437) scale(0.1 -0.1)">
       <defs>
        <path id="DejaVuSans-31" d="M 794 531 
L 1825 531 
L 1825 4091 
L 703 3866 
L 703 4441 
L 1819 4666 
L 2450 4666 
L 2450 531 
L 3481 531 
L 3481 0 
L 794 0 
L 794 531 
z
" transform="scale(0.015625)"/>
       </defs>
       <use xlink:href="#DejaVuSans-31"/>
       <use xlink:href="#DejaVuSans-2e" x="63.623047"/>
       <use xlink:href="#DejaVuSans-30" x="95.410156"/>
      </g>
     </g>
    </g>
    <g id="text_7">
     <!-- Recall (Positive label: 1) -->
     <g transform="translate(176.343594 335.860562) scale(0.1 -0.1)">
      <defs>
       <path id="DejaVuSans-52" d="M 2841 2188 
Q 3044 2119 3236 1894 
Q 3428 1669 3622 1275 
L 4263 0 
L 3584 0 
L 2988 1197 
Q 2756 1666 2539 1819 
Q 2322 1972 1947 1972 
L 1259 1972 
L 1259 0 
L 628 0 
L 628 4666 
L 2053 4666 
Q 2853 4666 3247 4331 
Q 3641 3997 3641 3322 
Q 3641 2881 3436 2590 
Q 3231 2300 2841 2188 
z
M 1259 4147 
L 1259 2491 
L 2053 2491 
Q 2509 2491 2742 2702 
Q 2975 2913 2975 3322 
Q 2975 3731 2742 3939 
Q 2509 4147 2053 4147 
L 1259 4147 
z
" transform="scale(0.015625)"/>
       <path id="DejaVuSans-65" d="M 3597 1894 
L 3597 1613 
L 953 1613 
Q 991 1019 1311 708 
Q 1631 397 2203 397 
Q 2534 397 2845 478 
Q 3156 559 3463 722 
L 3463 178 
Q 3153 47 2828 -22 
Q 2503 -91 2169 -91 
Q 1331 -91 842 396 
Q 353 884 353 1716 
Q 353 2575 817 3079 
Q 1281 3584 2069 3584 
Q 2775 3584 3186 3129 
Q 3597 2675 3597 1894 
z
M 3022 2063 
Q 3016 2534 2758 2815 
Q 2500 3097 2075 3097 
Q 1594 3097 1305 2825 
Q 1016 2553 972 2059 
L 3022 2063 
z
" transform="scale(0.015625)"/>
       <path id="DejaVuSans-63" d="M 3122 3366 
L 3122 2828 
Q 2878 2963 2633 3030 
Q 2388 3097 2138 3097 
Q 1578 3097 1268 2742 
Q 959 2388 959 1747 
Q 959 1106 1268 751 
Q 1578 397 2138 397 
Q 2388 397 2633 464 
Q 2878 531 3122 666 
L 3122 134 
Q 2881 22 2623 -34 
Q 2366 -91 2075 -91 
Q 1284 -91 818 406 
Q 353 903 353 1747 
Q 353 2603 823 3093 
Q 1294 3584 2113 3584 
Q 2378 3584 2631 3529 
Q 2884 3475 3122 3366 
z
" transform="scale(0.015625)"/>
       <path id="DejaVuSans-61" d="M 2194 1759 
Q 1497 1759 1228 1600 
Q 959 1441 959 1056 
Q 959 750 1161 570 
Q 1363 391 1709 391 
Q 2188 391 2477 730 
Q 2766 1069 2766 1631 
L 2766 1759 
L 2194 1759 
z
M 3341 1997 
L 3341 0 
L 2766 0 
L 2766 531 
Q 2569 213 2275 61 
Q 1981 -91 1556 -91 
Q 1019 -91 701 211 
Q 384 513 384 1019 
Q 384 1609 779 1909 
Q 1175 2209 1959 2209 
L 2766 2209 
L 2766 2266 
Q 2766 2663 2505 2880 
Q 2244 3097 1772 3097 
Q 1472 3097 1187 3025 
Q 903 2953 641 2809 
L 641 3341 
Q 956 3463 1253 3523 
Q 1550 3584 1831 3584 
Q 2591 3584 2966 3190 
Q 3341 2797 3341 1997 
z
" transform="scale(0.015625)"/>
       <path id="DejaVuSans-6c" d="M 603 4863 
L 1178 4863 
L 1178 0 
L 603 0 
L 603 4863 
z
" transform="scale(0.015625)"/>
       <path id="DejaVuSans-20" transform="scale(0.015625)"/>
       <path id="DejaVuSans-28" d="M 1984 4856 
Q 1566 4138 1362 3434 
Q 1159 2731 1159 2009 
Q 1159 1288 1364 580 
Q 1569 -128 1984 -844 
L 1484 -844 
Q 1016 -109 783 600 
Q 550 1309 550 2009 
Q 550 2706 781 3412 
Q 1013 4119 1484 4856 
L 1984 4856 
z
" transform="scale(0.015625)"/>
       <path id="DejaVuSans-50" d="M 1259 4147 
L 1259 2394 
L 2053 2394 
Q 2494 2394 2734 2622 
Q 2975 2850 2975 3272 
Q 2975 3691 2734 3919 
Q 2494 4147 2053 4147 
L 1259 4147 
z
M 628 4666 
L 2053 4666 
Q 2838 4666 3239 4311 
Q 3641 3956 3641 3272 
Q 3641 2581 3239 2228 
Q 2838 1875 2053 1875 
L 1259 1875 
L 1259 0 
L 628 0 
L 628 4666 
z
" transform="scale(0.015625)"/>
       <path id="DejaVuSans-6f" d="M 1959 3097 
Q 1497 3097 1228 2736 
Q 959 2375 959 1747 
Q 959 1119 1226 758 
Q 1494 397 1959 397 
Q 2419 397 2687 759 
Q 2956 1122 2956 1747 
Q 2956 2369 2687 2733 
Q 2419 3097 1959 3097 
z
M 1959 3584 
Q 2709 3584 3137 3096 
Q 3566 2609 3566 1747 
Q 3566 888 3137 398 
Q 2709 -91 1959 -91 
Q 1206 -91 779 398 
Q 353 888 353 1747 
Q 353 2609 779 3096 
Q 1206 3584 1959 3584 
z
" transform="scale(0.015625)"/>
       <path id="DejaVuSans-73" d="M 2834 3397 
L 2834 2853 
Q 2591 2978 2328 3040 
Q 2066 3103 1784 3103 
Q 1356 3103 1142 2972 
Q 928 2841 928 2578 
Q 928 2378 1081 2264 
Q 1234 2150 1697 2047 
L 1894 2003 
Q 2506 1872 2764 1633 
Q 3022 1394 3022 966 
Q 3022 478 2636 193 
Q 2250 -91 1575 -91 
Q 1294 -91 989 -36 
Q 684 19 347 128 
L 347 722 
Q 666 556 975 473 
Q 1284 391 1588 391 
Q 1994 391 2212 530 
Q 2431 669 2431 922 
Q 2431 1156 2273 1281 
Q 2116 1406 1581 1522 
L 1381 1569 
Q 847 1681 609 1914 
Q 372 2147 372 2553 
Q 372 3047 722 3315 
Q 1072 3584 1716 3584 
Q 2034 3584 2315 3537 
Q 2597 3491 2834 3397 
z
" transform="scale(0.015625)"/>
       <path id="DejaVuSans-69" d="M 603 3500 
L 1178 3500 
L 1178 0 
L 603 0 
L 603 3500 
z
M 603 4863 
L 1178 4863 
L 1178 4134 
L 603 4134 
L 603 4863 
z
" transform="scale(0.015625)"/>
       <path id="DejaVuSans-74" d="M 1172 4494 
L 1172 3500 
L 2356 3500 
L 2356 3053 
L 1172 3053 
L 1172 1153 
Q 1172 725 1289 603 
Q 1406 481 1766 481 
L 2356 481 
L 2356 0 
L 1766 0 
Q 1100 0 847 248 
Q 594 497 594 1153 
L 594 3053 
L 172 3053 
L 172 3500 
L 594 3500 
L 594 4494 
L 1172 4494 
z
" transform="scale(0.015625)"/>
       <path id="DejaVuSans-76" d="M 191 3500 
L 800 3500 
L 1894 563 
L 2988 3500 
L 3597 3500 
L 2284 0 
L 1503 0 
L 191 3500 
z
" transform="scale(0.015625)"/>
       <path id="DejaVuSans-62" d="M 3116 1747 
Q 3116 2381 2855 2742 
Q 2594 3103 2138 3103 
Q 1681 3103 1420 2742 
Q 1159 2381 1159 1747 
Q 1159 1113 1420 752 
Q 1681 391 2138 391 
Q 2594 391 2855 752 
Q 3116 1113 3116 1747 
z
M 1159 2969 
Q 1341 3281 1617 3432 
Q 1894 3584 2278 3584 
Q 2916 3584 3314 3078 
Q 3713 2572 3713 1747 
Q 3713 922 3314 415 
Q 2916 -91 2278 -91 
Q 1894 -91 1617 61 
Q 1341 213 1159 525 
L 1159 0 
L 581 0 
L 581 4863 
L 1159 4863 
L 1159 2969 
z
" transform="scale(0.015625)"/>
       <path id="DejaVuSans-3a" d="M 750 794 
L 1409 794 
L 1409 0 
L 750 0 
L 750 794 
z
M 750 3309 
L 1409 3309 
L 1409 2516 
L 750 2516 
L 750 3309 
z
" transform="scale(0.015625)"/>
       <path id="DejaVuSans-29" d="M 513 4856 
L 1013 4856 
Q 1481 4119 1714 3412 
Q 1947 2706 1947 2009 
Q 1947 1309 1714 600 
Q 1481 -109 1013 -844 
L 513 -844 
Q 928 -128 1133 580 
Q 1338 1288 1338 2009 
Q 1338 2731 1133 3434 
Q 928 4138 513 4856 
z
" transform="scale(0.015625)"/>
      </defs>
      <use xlink:href="#DejaVuSans-52"/>
      <use xlink:href="#DejaVuSans-65" x="64.982422"/>
      <use xlink:href="#DejaVuSans-63" x="126.505859"/>
      <use xlink:href="#DejaVuSans-61" x="181.486328"/>
      <use xlink:href="#DejaVuSans-6c" x="242.765625"/>
      <use xlink:href="#DejaVuSans-6c" x="270.548828"/>
      <use xlink:href="#DejaVuSans-20" x="298.332031"/>
      <use xlink:href="#DejaVuSans-28" x="330.119141"/>
      <use xlink:href="#DejaVuSans-50" x="369.132812"/>
      <use xlink:href="#DejaVuSans-6f" x="425.810547"/>
      <use xlink:href="#DejaVuSans-73" x="486.992188"/>
      <use xlink:href="#DejaVuSans-69" x="539.091797"/>
      <use xlink:href="#DejaVuSans-74" x="566.875"/>
      <use xlink:href="#DejaVuSans-69" x="606.083984"/>
      <use xlink:href="#DejaVuSans-76" x="633.867188"/>
      <use xlink:href="#DejaVuSans-65" x="693.046875"/>
      <use xlink:href="#DejaVuSans-20" x="754.570312"/>
      <use xlink:href="#DejaVuSans-6c" x="786.357422"/>
      <use xlink:href="#DejaVuSans-61" x="814.140625"/>
      <use xlink:href="#DejaVuSans-62" x="875.419922"/>
      <use xlink:href="#DejaVuSans-65" x="938.896484"/>
      <use xlink:href="#DejaVuSans-6c" x="1000.419922"/>
      <use xlink:href="#DejaVuSans-3a" x="1028.203125"/>
      <use xlink:href="#DejaVuSans-20" x="1061.894531"/>
      <use xlink:href="#DejaVuSans-31" x="1093.681641"/>
      <use xlink:href="#DejaVuSans-29" x="1157.304688"/>
     </g>
    </g>
   </g>
   <g id="matplotlib.axis_2">
    <g id="ytick_1">
     <g id="line2d_7">
      <defs>
       <path id="mfe874faa56" d="M 0 0 
L -3.5 0 
" style="stroke: #000000; stroke-width: 0.8"/>
      </defs>
      <g>
       <use xlink:href="#mfe874faa56" x="57.6" y="295.488" style="stroke: #000000; stroke-width: 0.8"/>
      </g>
     </g>
     <g id="text_8">
      <!-- 0.0 -->
      <g transform="translate(34.696875 299.287219) scale(0.1 -0.1)">
       <use xlink:href="#DejaVuSans-30"/>
       <use xlink:href="#DejaVuSans-2e" x="63.623047"/>
       <use xlink:href="#DejaVuSans-30" x="95.410156"/>
      </g>
     </g>
    </g>
    <g id="ytick_2">
     <g id="line2d_8">
      <g>
       <use xlink:href="#mfe874faa56" x="57.6" y="247.104" style="stroke: #000000; stroke-width: 0.8"/>
      </g>
     </g>
     <g id="text_9">
      <!-- 0.2 -->
      <g transform="translate(34.696875 250.903219) scale(0.1 -0.1)">
       <use xlink:href="#DejaVuSans-30"/>
       <use xlink:href="#DejaVuSans-2e" x="63.623047"/>
       <use xlink:href="#DejaVuSans-32" x="95.410156"/>
      </g>
     </g>
    </g>
    <g id="ytick_3">
     <g id="line2d_9">
      <g>
       <use xlink:href="#mfe874faa56" x="57.6" y="198.72" style="stroke: #000000; stroke-width: 0.8"/>
      </g>
     </g>
     <g id="text_10">
      <!-- 0.4 -->
      <g transform="translate(34.696875 202.519219) scale(0.1 -0.1)">
       <use xlink:href="#DejaVuSans-30"/>
       <use xlink:href="#DejaVuSans-2e" x="63.623047"/>
       <use xlink:href="#DejaVuSans-34" x="95.410156"/>
      </g>
     </g>
    </g>
    <g id="ytick_4">
     <g id="line2d_10">
      <g>
       <use xlink:href="#mfe874faa56" x="57.6" y="150.336" style="stroke: #000000; stroke-width: 0.8"/>
      </g>
     </g>
     <g id="text_11">
      <!-- 0.6 -->
      <g transform="translate(34.696875 154.135219) scale(0.1 -0.1)">
       <use xlink:href="#DejaVuSans-30"/>
       <use xlink:href="#DejaVuSans-2e" x="63.623047"/>
       <use xlink:href="#DejaVuSans-36" x="95.410156"/>
      </g>
     </g>
    </g>
    <g id="ytick_5">
     <g id="line2d_11">
      <g>
       <use xlink:href="#mfe874faa56" x="57.6" y="101.952" style="stroke: #000000; stroke-width: 0.8"/>
      </g>
     </g>
     <g id="text_12">
      <!-- 0.8 -->
      <g transform="translate(34.696875 105.751219) scale(0.1 -0.1)">
       <use xlink:href="#DejaVuSans-30"/>
       <use xlink:href="#DejaVuSans-2e" x="63.623047"/>
       <use xlink:href="#DejaVuSans-38" x="95.410156"/>
      </g>
     </g>
    </g>
    <g id="ytick_6">
     <g id="line2d_12">
      <g>
       <use xlink:href="#mfe874faa56" x="57.6" y="53.568" style="stroke: #000000; stroke-width: 0.8"/>
      </g>
     </g>
     <g id="text_13">
      <!-- 1.0 -->
      <g transform="translate(34.696875 57.367219) scale(0.1 -0.1)">
       <use xlink:href="#DejaVuSans-31"/>
       <use xlink:href="#DejaVuSans-2e" x="63.623047"/>
       <use xlink:href="#DejaVuSans-30" x="95.410156"/>
      </g>
     </g>
    </g>
    <g id="text_14">
     <!-- Precision (Positive label: 1) -->
     <g transform="translate(28.617187 241.73425) rotate(-90) scale(0.1 -0.1)">
      <defs>
       <path id="DejaVuSans-72" d="M 2631 2963 
Q 2534 3019 2420 3045 
Q 2306 3072 2169 3072 
Q 1681 3072 1420 2755 
Q 1159 2438 1159 1844 
L 1159 0 
L 581 0 
L 581 3500 
L 1159 3500 
L 1159 2956 
Q 1341 3275 1631 3429 
Q 1922 3584 2338 3584 
Q 2397 3584 2469 3576 
Q 2541 3569 2628 3553 
L 2631 2963 
z
" transform="scale(0.015625)"/>
       <path id="DejaVuSans-6e" d="M 3513 2113 
L 3513 0 
L 2938 0 
L 2938 2094 
Q 2938 2591 2744 2837 
Q 2550 3084 2163 3084 
Q 1697 3084 1428 2787 
Q 1159 2491 1159 1978 
L 1159 0 
L 581 0 
L 581 3500 
L 1159 3500 
L 1159 2956 
Q 1366 3272 1645 3428 
Q 1925 3584 2291 3584 
Q 2894 3584 3203 3211 
Q 3513 2838 3513 2113 
z
" transform="scale(0.015625)"/>
      </defs>
      <use xlink:href="#DejaVuSans-50"/>
      <use xlink:href="#DejaVuSans-72" x="58.552734"/>
      <use xlink:href="#DejaVuSans-65" x="97.416016"/>
      <use xlink:href="#DejaVuSans-63" x="158.939453"/>
      <use xlink:href="#DejaVuSans-69" x="213.919922"/>
      <use xlink:href="#DejaVuSans-73" x="241.703125"/>
      <use xlink:href="#DejaVuSans-69" x="293.802734"/>
      <use xlink:href="#DejaVuSans-6f" x="321.585938"/>
      <use xlink:href="#DejaVuSans-6e" x="382.767578"/>
      <use xlink:href="#DejaVuSans-20" x="446.146484"/>
      <use xlink:href="#DejaVuSans-28" x="477.933594"/>
      <use xlink:href="#DejaVuSans-50" x="516.947266"/>
      <use xlink:href="#DejaVuSans-6f" x="573.625"/>
      <use xlink:href="#DejaVuSans-73" x="634.806641"/>
      <use xlink:href="#DejaVuSans-69" x="686.90625"/>
      <use xlink:href="#DejaVuSans-74" x="714.689453"/>
      <use xlink:href="#DejaVuSans-69" x="753.898438"/>
      <use xlink:href="#DejaVuSans-76" x="781.681641"/>
      <use xlink:href="#DejaVuSans-65" x="840.861328"/>
      <use xlink:href="#DejaVuSans-20" x="902.384766"/>
      <use xlink:href="#DejaVuSans-6c" x="934.171875"/>
      <use xlink:href="#DejaVuSans-61" x="961.955078"/>
      <use xlink:href="#DejaVuSans-62" x="1023.234375"/>
      <use xlink:href="#DejaVuSans-65" x="1086.710938"/>
      <use xlink:href="#DejaVuSans-6c" x="1148.234375"/>
      <use xlink:href="#DejaVuSans-3a" x="1176.017578"/>
      <use xlink:href="#DejaVuSans-20" x="1209.708984"/>
      <use xlink:href="#DejaVuSans-31" x="1241.496094"/>
      <use xlink:href="#DejaVuSans-29" x="1305.119141"/>
     </g>
    </g>
   </g>
   <g id="line2d_13">
    <path d="M 398.487273 174.568641 
L 398.414529 167.818332 
L 398.341786 167.818332 
L 398.341786 167.710932 
L 398.269042 163.682087 
L 398.123555 163.647218 
L 398.123555 163.580055 
L 398.050811 160.488947 
L 397.978068 160.488947 
L 397.978068 160.383912 
L 397.905324 159.733673 
L 397.832581 159.733673 
L 397.832581 159.627241 
L 397.759837 157.975904 
L 397.687093 157.975904 
L 397.687093 157.866247 
L 397.61435 156.404311 
L 397.541606 156.404311 
L 397.541606 156.309719 
L 397.468863 155.617684 
L 397.396119 155.617684 
L 397.396119 155.521798 
L 397.323376 154.544958 
L 397.177888 154.50277 
L 397.177888 154.44204 
L 397.105145 153.730025 
L 397.032401 153.730025 
L 397.032401 153.630991 
L 397.032401 153.574802 
L 396.959658 153.588008 
L 396.886914 153.588008 
L 396.886914 153.488698 
L 396.814171 152.614257 
L 396.741427 152.614257 
L 396.741427 152.513312 
L 396.668684 151.895522 
L 396.59594 151.895522 
L 396.59594 151.793349 
L 396.523196 150.955055 
L 396.450453 150.955055 
L 396.450453 150.851279 
L 396.377709 149.783941 
L 396.304966 149.783941 
L 396.304966 149.678162 
L 396.232222 149.014033 
L 396.086735 149.00706 
L 396.086735 148.919947 
L 396.086735 148.275692 
L 396.013991 148.288703 
L 395.795761 148.274276 
L 395.795761 148.287296 
L 395.795761 147.922135 
L 395.723017 147.93514 
L 395.650274 147.93514 
L 395.650274 147.826013 
L 395.57753 147.655427 
L 395.504786 147.655427 
L 395.504786 147.545773 
L 395.432043 146.88048 
L 395.286556 146.790128 
L 395.286556 146.782411 
L 395.213812 146.213899 
L 395.141069 146.213899 
L 395.141069 146.143396 
L 395.068325 144.57421 
L 394.995581 144.57421 
L 394.995581 144.480394 
L 394.922838 143.849988 
L 394.850094 143.849988 
L 394.850094 143.776623 
L 394.777351 143.335321 
L 394.631864 143.239588 
L 394.631864 143.252384 
L 394.55912 143.091189 
L 394.268146 143.064216 
L 394.268146 142.989774 
L 394.195402 141.96989 
L 394.049915 141.916235 
L 394.049915 141.862518 
L 393.977171 141.519826 
L 393.904428 141.519826 
L 393.904428 141.421131 
L 393.831684 140.649344 
L 393.686197 140.649344 
L 393.686197 140.539385 
L 393.613454 139.962946 
L 393.54071 139.962946 
L 393.54071 139.86177 
L 393.467967 139.554821 
L 393.322479 139.498779 
L 393.322479 139.465586 
L 393.249736 139.156768 
L 393.176992 139.156768 
L 393.176992 139.05424 
L 393.104249 138.604596 
L 392.813274 138.503073 
L 392.813274 138.515641 
L 392.740531 138.248967 
L 392.5223 138.227439 
L 392.5223 138.146622 
L 392.449557 138.018896 
L 392.231326 138.044004 
L 392.231326 137.916 
L 392.158582 137.36374 
L 391.867608 137.283101 
L 391.867608 137.271958 
L 391.794864 137.189749 
L 391.722121 137.189749 
L 391.722121 137.083685 
L 391.649377 136.834671 
L 391.50389 136.847171 
L 391.50389 136.740496 
L 391.431147 136.010011 
L 391.358403 136.010011 
L 391.358403 135.901964 
L 391.285659 135.697039 
L 391.140172 135.685281 
L 391.140172 135.600873 
L 391.067429 135.200379 
L 390.994685 135.200379 
L 390.994685 135.09092 
L 390.994685 134.405043 
L 390.849198 134.405043 
L 390.849198 134.306627 
L 390.776454 133.725348 
L 390.703711 133.725348 
L 390.703711 133.638281 
L 390.630967 133.201863 
L 390.48548 133.114071 
L 390.48548 133.101298 
L 390.412737 132.131004 
L 390.339993 132.131004 
L 390.339993 132.041739 
L 390.26725 131.544707 
L 390.194506 131.544707 
L 390.194506 131.505756 
L 390.121762 130.902151 
L 389.976275 130.914254 
L 389.976275 130.823267 
L 389.903532 130.395743 
L 389.830788 130.395743 
L 389.830788 130.30402 
L 389.758045 129.899574 
L 389.321583 129.802973 
L 389.321583 129.788846 
L 389.24884 129.538764 
L 389.103352 129.445695 
L 389.103352 129.431415 
L 389.030609 129.206376 
L 388.957865 129.206376 
L 388.957865 129.191992 
L 388.885122 128.966144 
L 388.812378 128.966144 
L 388.812378 128.87219 
L 388.739635 128.831144 
L 388.521404 128.802038 
L 388.521404 128.734348 
L 388.44866 128.639969 
L 388.375917 128.639969 
L 388.375917 128.598708 
L 388.303173 128.237055 
L 388.012199 128.16581 
L 388.012199 128.15096 
L 387.939455 127.490161 
L 387.793968 127.447994 
L 387.793968 127.405785 
L 387.793968 127.270388 
L 387.721225 127.282264 
L 387.502994 127.306027 
L 387.502994 127.18225 
L 387.43025 126.840342 
L 387.284763 126.824914 
L 387.284763 126.75487 
L 387.21202 126.163652 
L 386.993789 126.132201 
L 386.993789 126.061353 
L 386.921045 126.018 
L 386.848302 126.018 
L 386.848302 125.91938 
L 386.848302 125.365143 
L 386.775558 125.376879 
L 386.702815 125.376879 
L 386.702815 125.277315 
L 386.630071 125.065982 
L 386.339097 124.989355 
L 386.339097 124.973099 
L 386.266353 124.900839 
L 386.120866 124.800442 
L 386.120866 124.812148 
L 386.048123 123.92147 
L 385.975379 123.92147 
L 385.975379 123.819616 
L 385.902635 123.375761 
L 385.829892 123.375761 
L 385.829892 123.273082 
L 385.829892 123.187289 
L 385.757148 123.198852 
L 385.684405 123.198852 
L 385.611661 122.992721 
L 385.39343 122.946855 
L 385.39343 122.883742 
L 385.320687 122.722583 
L 385.1752 122.734118 
L 385.1752 122.630304 
L 385.102456 122.207839 
L 384.956969 122.161294 
L 384.956969 122.114702 
L 384.884225 121.776846 
L 384.738738 121.788302 
L 384.738738 121.682977 
L 384.665995 121.255039 
L 384.447764 121.219098 
L 384.447764 121.171699 
L 384.37502 120.681555 
L 384.229533 120.66332 
L 384.229533 120.585824 
L 384.229533 120.437527 
L 384.15679 120.448868 
L 384.011303 120.448868 
L 383.938559 120.155637 
L 383.720328 120.058946 
L 383.720328 120.070264 
L 383.647585 119.991955 
L 383.502098 119.973371 
L 383.502098 119.984687 
L 383.429354 119.666361 
L 382.847406 119.595105 
L 382.847406 119.576299 
L 382.774662 119.134715 
L 382.629175 119.024794 
L 382.629175 119.036041 
L 382.556431 118.986628 
L 382.483688 118.986628 
L 382.483688 118.997876 
L 382.410944 118.705116 
L 381.974483 118.639304 
L 381.974483 118.620012 
L 381.901739 118.417278 
L 381.610765 118.359031 
L 381.610765 118.308924 
L 381.610765 118.278249 
L 381.538021 118.289455 
L 381.392534 118.208554 
L 381.392534 118.127542 
L 381.319791 118.138739 
L 381.10156 118.099593 
L 381.028816 117.535002 
L 380.665098 117.455473 
L 380.592355 116.979402 
L 380.301381 116.91892 
L 380.301381 116.898731 
L 380.301381 116.836123 
L 380.228637 116.847215 
L 380.010406 116.74402 
L 380.010406 116.598105 
L 379.937663 116.609181 
L 379.792176 116.557367 
L 379.792176 116.505499 
L 379.792176 116.379477 
L 379.719432 116.390535 
L 379.428458 116.329057 
L 379.428458 116.213715 
L 379.355714 116.224768 
L 379.282971 116.224768 
L 379.282971 116.140881 
L 379.282971 115.760102 
L 379.210227 115.771107 
L 379.06474 115.686647 
L 378.991996 115.03736 
L 378.773766 114.995018 
L 378.773766 115.00595 
L 378.701022 114.501438 
L 378.191817 114.426473 
L 378.191817 114.221295 
L 378.119074 114.232159 
L 377.828099 114.232291 
L 377.828099 114.210668 
L 377.828099 114.080557 
L 377.755356 114.091417 
L 377.02792 113.993582 
L 377.02792 114.004458 
L 377.02792 113.939106 
L 376.955177 113.949977 
L 376.809689 113.949977 
L 376.809689 113.840839 
L 376.809689 113.644145 
L 376.736946 113.654989 
L 376.518715 113.643853 
L 376.518715 113.556115 
L 376.445972 113.402384 
L 376.300484 113.413212 
L 376.300484 112.994647 
L 376.227741 113.005431 
L 376.082254 113.016218 
L 376.082254 112.894431 
L 376.00951 112.739195 
L 375.936767 112.739195 
L 375.936767 112.749957 
L 375.864023 112.427705 
L 375.645792 112.349 
L 375.645792 112.326307 
L 375.573049 112.236692 
L 375.427562 112.247408 
L 375.354818 111.866246 
L 375.063844 111.830991 
L 375.063844 111.774316 
L 375.063844 111.740619 
L 374.918357 111.740619 
L 374.918357 111.322674 
L 374.845613 111.333298 
L 374.481895 111.240159 
L 374.481895 111.250786 
L 374.481895 111.216832 
L 374.409152 111.227458 
L 374.263664 111.238088 
L 374.190921 110.918953 
L 373.608972 110.8224 
L 373.608972 110.833005 
L 373.536229 110.535244 
L 373.027024 110.485064 
L 373.027024 110.299658 
L 372.95428 110.310219 
L 372.808793 110.286302 
L 372.808793 110.227855 
L 372.73605 110.134787 
L 372.590562 110.110764 
L 372.590562 110.052121 
L 372.590562 109.982877 
L 372.445075 109.982877 
L 372.372332 109.702132 
L 372.299588 109.702132 
L 372.299588 109.60827 
L 372.226845 109.514267 
L 371.71764 109.437621 
L 371.71764 109.413169 
L 371.644896 109.283736 
L 371.135691 109.185458 
L 371.062947 108.865305 
L 371.062947 108.875744 
L 370.408255 108.818225 
L 370.408255 108.793349 
L 370.408255 108.616488 
L 370.262768 108.616488 
L 370.262768 108.211404 
L 370.190025 108.221787 
L 369.753563 108.202521 
L 369.753563 108.141615 
L 369.753563 108.105944 
L 369.68082 108.11633 
L 369.244358 108.137114 
L 369.171615 107.831294 
L 368.88064 107.790651 
L 368.88064 107.729194 
L 368.807897 107.667667 
L 368.589666 107.616423 
L 368.589666 107.590772 
L 368.589666 107.410517 
L 368.371435 107.410517 
L 368.298692 107.198794 
L 367.716743 107.089711 
L 367.716743 107.100028 
L 367.644 106.928587 
L 367.353025 106.886663 
L 367.353025 106.824065 
L 367.280282 106.688371 
L 366.989308 106.688371 
L 366.989308 106.65639 
L 366.989308 106.473343 
L 366.916564 106.483602 
L 366.698333 106.394087 
L 366.698333 106.404342 
L 366.698333 106.220623 
L 366.62559 106.230857 
L 366.334616 106.230857 
L 366.261872 105.876302 
L 365.970898 105.795898 
L 365.970898 105.769054 
L 365.898154 105.630924 
L 365.752667 105.60398 
L 365.752667 105.242074 
L 365.679923 105.252202 
L 365.534436 105.187722 
L 365.534436 105.197847 
L 365.534436 105.123165 
L 365.461693 105.133284 
L 365.243462 105.041352 
L 365.243462 105.051466 
L 365.243462 104.901664 
L 365.170718 104.911761 
L 365.025231 104.846851 
L 365.025231 104.669131 
L 364.952488 104.679202 
L 364.807001 104.614026 
L 364.807001 104.586442 
L 364.734257 104.256911 
L 364.079565 104.241403 
L 364.006821 103.901961 
L 363.715847 103.807746 
L 363.715847 103.560626 
L 363.643103 103.570581 
L 363.133899 103.553864 
L 363.133899 103.487234 
L 363.061155 103.382164 
L 362.479206 103.363683 
L 362.479206 103.231128 
L 362.406463 103.241077 
L 362.188232 103.18391 
L 362.188232 103.155292 
L 362.188232 103.11671 
L 362.042745 103.11671 
L 361.970001 102.798452 
L 361.751771 102.701913 
L 361.751771 102.634151 
L 361.679027 102.644035 
L 361.097079 102.61573 
L 361.097079 102.294455 
L 361.024335 102.304311 
L 360.51513 102.206962 
L 360.51513 102.216822 
L 360.51513 102.177635 
L 360.442386 102.187493 
L 360.296899 102.197355 
L 360.296899 102.168 
L 360.296899 101.893007 
L 360.224156 101.902829 
L 358.551054 101.902578 
L 358.551054 101.615174 
L 358.47831 101.625014 
L 357.896362 101.545162 
L 357.896362 101.425223 
L 357.823618 101.435056 
L 357.168926 101.354051 
L 357.096182 100.932758 
L 356.805208 100.912129 
L 356.805208 100.609392 
L 356.732465 100.619135 
L 356.368747 100.536911 
L 356.368747 100.546656 
L 356.368747 100.465733 
L 356.296003 100.475469 
L 356.077772 100.373387 
L 356.077772 100.383115 
L 356.077772 100.342553 
L 356.005029 100.352279 
L 355.641311 100.269341 
L 355.641311 100.279069 
L 355.568567 100.166724 
L 354.986619 100.133812 
L 354.913875 99.927565 
L 354.768388 99.937266 
L 354.768388 99.824117 
L 354.695645 99.751806 
L 354.40467 99.77117 
L 354.331927 99.594779 
L 353.749978 99.570457 
L 353.749978 99.424782 
L 353.677235 99.434442 
L 353.240773 99.400101 
L 353.240773 99.326987 
L 353.16803 99.129344 
L 352.949799 99.129344 
L 352.949799 98.908788 
L 352.877055 98.918392 
L 352.513338 98.831776 
L 352.513338 98.84138 
L 352.440594 98.725715 
L 352.14962 98.670857 
L 352.14962 98.638591 
L 352.14962 98.512916 
L 351.858645 98.512916 
L 351.858645 98.215066 
L 351.785902 98.224594 
L 351.203953 98.155351 
L 351.203953 97.87854 
L 351.13121 97.888034 
L 350.403774 97.803909 
L 350.403774 97.813416 
L 350.403774 97.770923 
L 350.33103 97.780427 
L 349.894569 97.704867 
L 349.821826 97.335047 
L 349.167133 97.239273 
L 349.167133 97.248727 
L 349.167133 97.2058 
L 348.730672 97.2058 
L 348.730672 96.961251 
L 348.657928 96.970676 
L 347.348544 96.92057 
L 347.275801 96.71701 
L 346.693852 96.696095 
L 346.693852 96.618414 
L 346.621109 96.453336 
L 346.475621 96.419062 
L 346.402878 96.262892 
L 346.330134 96.262892 
L 346.330134 96.184653 
L 346.257391 96.10631 
L 345.966416 96.090502 
L 345.966416 95.924004 
L 345.893673 95.933346 
L 345.093494 95.910683 
L 345.093494 95.771445 
L 345.02075 95.78079 
L 344.220571 95.818213 
L 344.147827 95.538107 
L 343.711366 95.458443 
L 343.711366 95.282066 
L 343.638622 95.291373 
L 343.347648 95.229899 
L 343.347648 95.194458 
L 343.274904 95.11419 
L 342.547469 95.063247 
L 342.547469 95.027596 
L 342.547469 94.937623 
L 342.474725 94.946909 
L 341.456315 94.868757 
L 341.456315 94.57972 
L 341.383572 94.58898 
L 341.165341 94.607512 
L 341.165341 94.480539 
L 341.165341 94.344109 
L 341.092597 94.353336 
L 340.656136 94.262772 
L 340.656136 94.272 
L 340.656136 94.180704 
L 340.583392 94.18992 
L 339.637726 94.108027 
L 339.637726 93.989099 
L 339.564982 93.998315 
L 339.419495 93.961577 
L 339.419495 93.878797 
L 339.346752 93.888 
L 338.328342 93.823311 
L 338.328342 93.786299 
L 338.255598 93.656648 
L 337.964624 93.619509 
L 337.964624 93.414957 
L 337.89188 93.424125 
L 336.291522 93.337206 
L 336.291522 93.346416 
L 336.291522 93.299591 
L 335.200368 93.193798 
L 335.200368 93.20302 
L 335.127625 93.118033 
L 334.400189 93.060537 
L 334.400189 92.973992 
L 334.327445 92.983203 
L 333.60001 92.896292 
L 333.60001 92.7906 
L 333.527266 92.799805 
L 333.018061 92.79827 
L 332.945318 92.539569 
L 332.436113 92.471428 
L 332.436113 92.364334 
L 332.363369 92.3735 
L 331.417703 92.284364 
L 331.344959 91.97165 
L 330.908498 91.920468 
L 330.908498 91.881122 
L 330.908498 91.784097 
L 330.835754 91.793205 
L 330.472036 91.705162 
L 330.472036 91.546839 
L 330.399293 91.555916 
L 330.326549 91.555916 
L 330.326549 91.46745 
L 330.326549 91.272075 
L 329.52637 91.170341 
L 329.52637 90.978909 
L 329.453626 90.987909 
L 328.871678 90.916439 
L 328.871678 90.813405 
L 328.798934 90.822395 
L 327.780524 90.736933 
L 327.780524 90.651056 
L 327.707781 90.660052 
L 327.053089 90.632591 
L 327.053089 90.591766 
L 327.053089 90.541901 
L 326.980345 90.550902 
L 326.398397 90.559907 
L 326.398397 90.172371 
L 326.325653 90.18132 
L 325.743704 90.093176 
L 325.743704 90.102131 
L 325.743704 90.001377 
L 325.670961 90.010316 
L 325.161756 89.963044 
L 325.161756 89.921448 
L 325.089012 89.778576 
L 324.798038 89.703943 
L 324.798038 89.712852 
L 324.725294 89.569422 
L 323.634141 89.490181 
L 323.634141 89.499089 
L 323.634141 89.448 
L 322.979449 89.459213 
L 322.906705 89.178142 
L 322.324757 89.119617 
L 322.252013 88.9488 
L 322.17927 88.9488 
L 322.17927 88.854305 
L 322.17927 88.802595 
L 320.36068 88.703129 
L 320.36068 88.71199 
L 320.287937 88.616481 
L 320.069706 88.529657 
L 320.069706 88.538493 
L 320.069706 88.381475 
L 319.996962 88.390282 
L 319.269527 88.399093 
L 319.269527 88.21576 
L 319.196783 88.224561 
L 318.32386 88.128 
L 318.251117 87.863172 
L 317.596425 87.800794 
L 317.523681 87.631627 
L 316.432528 87.630734 
L 316.432528 87.33444 
L 316.359784 87.343154 
L 315.777836 87.261767 
L 315.777836 86.981672 
L 315.705092 86.990333 
L 315.559605 86.990333 
L 315.559605 86.899479 
L 315.559605 86.791178 
L 315.486861 86.799805 
L 314.904913 86.697373 
L 314.904913 86.706 
L 314.832169 86.551358 
L 314.395708 86.522656 
L 314.395708 86.329976 
L 314.322964 86.338544 
L 314.177477 86.292396 
L 314.177477 86.246199 
L 314.177477 86.191409 
L 314.104733 86.199954 
L 313.813759 86.115852 
L 313.813759 86.12439 
L 313.813759 86.014488 
L 313.231811 86.014488 
L 313.231811 85.917397 
L 313.231811 85.80701 
L 312.649862 85.738892 
L 312.649862 85.542623 
L 312.577119 85.551078 
L 312.431631 85.448434 
L 312.431631 85.456872 
L 312.431631 85.345627 
L 312.358888 85.354045 
L 311.049504 85.274084 
L 310.97676 85.122783 
L 310.685786 85.018892 
L 310.685786 84.818965 
L 310.613042 84.827326 
L 308.794453 84.735208 
L 308.794453 84.583385 
L 308.721709 84.591758 
L 308.139761 84.576675 
L 308.139761 84.144273 
L 308.067017 84.152569 
L 307.92153 84.160868 
L 307.92153 84.111796 
L 307.92153 83.996949 
L 307.848787 84.005217 
L 306.830377 83.939765 
L 306.757633 83.83278 
L 306.757633 83.841049 
L 306.393915 83.750085 
L 306.393915 83.766609 
L 306.393915 83.708635 
L 305.157275 83.68335 
L 305.157275 83.616449 
L 305.157275 83.499684 
L 305.084531 83.507934 
L 303.775147 83.413966 
L 303.775147 83.422243 
L 303.775147 83.304559 
L 303.702403 83.312813 
L 303.120455 83.2032 
L 303.047711 82.973386 
L 302.538506 82.903926 
L 302.538506 82.912125 
L 302.538506 82.852697 
L 302.465763 82.860886 
L 300.501686 82.759362 
L 300.501686 82.663968 
L 300.428943 82.672185 
L 299.846994 82.628486 
L 299.846994 82.376166 
L 298.610353 82.304164 
L 298.610353 82.090112 
L 298.53761 82.098257 
L 298.319379 82.053579 
L 298.319379 82.000691 
L 298.319379 81.817388 
L 298.246636 81.825475 
L 297.737431 81.788533 
L 297.737431 81.759596 
L 297.737431 81.698233 
L 297.664687 81.706311 
L 297.591943 81.706311 
L 297.591943 81.652966 
L 297.591943 81.591501 
L 297.5192 81.599558 
L 297.446456 81.599558 
L 297.446456 81.422922 
L 297.373713 81.430943 
L 297.009995 81.438968 
L 296.937251 81.231968 
L 296.719021 81.12408 
L 296.719021 81.132049 
L 296.719021 80.945922 
L 296.646277 80.953848 
L 296.064329 80.907554 
L 296.064329 80.643349 
L 295.991585 80.651222 
L 295.700611 80.612332 
L 295.700611 80.557618 
L 295.700611 80.494993 
L 295.045919 80.495117 
L 295.045919 80.440143 
L 295.045919 80.377263 
L 294.973175 80.385104 
L 293.954765 80.298317 
L 293.954765 80.1792 
L 293.882021 80.187029 
L 292.936355 80.090553 
L 292.863612 79.915014 
L 292.208919 79.849603 
L 292.208919 79.857406 
L 292.208919 79.793364 
L 292.136176 79.801155 
L 291.772458 79.768202 
L 291.772458 79.711781 
L 291.772458 79.583228 
L 291.699714 79.59098 
L 290.026612 79.560605 
L 290.026612 79.511358 
L 290.026612 79.446462 
L 289.953869 79.45424 
L 289.008202 79.417586 
L 289.008202 79.360135 
L 289.008202 79.229505 
L 288.935459 79.237262 
L 288.426254 79.152873 
L 288.426254 79.160628 
L 288.426254 79.095035 
L 288.280767 79.095035 
L 288.280767 79.044856 
L 288.208023 78.921098 
L 286.898639 78.854259 
L 286.898639 78.86199 
L 286.898639 78.729456 
L 286.171203 78.665901 
L 286.09846 78.481372 
L 285.807485 78.504369 
L 285.807485 78.378397 
L 285.734742 78.252192 
L 284.934563 78.259804 
L 284.934563 78.20176 
L 284.934563 78.134489 
L 284.861819 78.142097 
L 284.27987 78.052918 
L 284.27987 78.000567 
L 284.207127 78.008162 
L 283.188717 77.903595 
L 283.188717 77.9112 
L 283.188717 77.70703 
L 283.115973 77.714583 
L 281.806589 77.638126 
L 281.806589 77.645707 
L 281.806589 77.577074 
L 281.733846 77.58464 
L 281.00641 77.607369 
L 281.00641 77.453772 
L 280.933666 77.461333 
L 280.060743 77.460385 
L 280.060743 77.344489 
L 279.988 77.352053 
L 279.624282 77.243308 
L 279.624282 77.250857 
L 279.624282 77.181244 
L 279.551539 77.188779 
L 278.678616 77.13214 
L 278.678616 77.139692 
L 278.605872 76.866876 
L 278.023924 76.778612 
L 278.023924 76.786087 
L 277.95118 76.299263 
L 277.805693 76.299263 
L 277.732949 76.108589 
L 276.93277 76.081307 
L 276.860026 75.768273 
L 276.423565 75.732826 
L 276.423565 75.668359 
L 276.423565 75.45299 
L 276.350822 75.46014 
L 276.132591 75.46014 
L 276.132591 75.193462 
L 275.186924 75.119716 
L 275.114181 75.068461 
L 275.114181 75.07554 
L 274.750463 75.031219 
L 274.750463 74.965545 
L 274.750463 74.892741 
L 274.677719 74.899783 
L 273.004617 74.835692 
L 273.004617 74.842777 
L 273.004617 74.769253 
L 272.131695 74.699566 
L 272.131695 74.706641 
L 272.131695 74.632702 
L 271.404259 74.547953 
L 271.404259 74.555007 
L 271.331515 74.413345 
L 270.240362 74.334367 
L 270.240362 74.294637 
L 270.167618 74.301659 
L 269.367439 74.221714 
L 269.367439 74.228742 
L 269.367439 74.153432 
L 269.149208 74.092048 
L 269.149208 74.099043 
L 269.149208 74.023561 
L 269.076465 74.030538 
L 268.203542 73.955914 
L 268.203542 73.962901 
L 268.130798 73.817907 
L 267.257875 73.741894 
L 267.257875 73.748848 
L 267.257875 73.519304 
L 267.185132 73.526191 
L 266.821414 73.477046 
L 266.821414 73.330243 
L 266.74867 73.337086 
L 265.730261 73.265035 
L 265.730261 73.123902 
L 265.657517 73.130719 
L 262.747774 73.085962 
L 262.747774 73.092871 
L 262.747774 73.014119 
L 262.675031 73.021007 
L 261.511134 72.959521 
L 261.511134 72.893991 
L 261.43839 72.900886 
L 259.983519 72.845186 
L 259.983519 72.79977 
L 259.983519 72.639447 
L 259.910775 72.646315 
L 258.746878 72.655427 
L 258.746878 72.433724 
L 258.674134 72.440569 
L 256.12811 72.512471 
L 256.12811 72.35531 
L 256.12811 72.273155 
L 256.055366 72.280044 
L 254.818725 72.225531 
L 254.818725 72.232451 
L 254.745982 72.073577 
L 254.455007 72.011139 
L 254.455007 72.018 
L 254.455007 71.934833 
L 254.382264 71.941671 
L 254.164033 71.955362 
L 254.164033 71.878872 
L 254.164033 71.795467 
L 254.09129 71.802269 
L 253.145623 71.779955 
L 253.145623 71.555293 
L 251.472521 71.606698 
L 251.472521 71.372431 
L 251.399778 71.379188 
L 251.03606 71.321065 
L 251.03606 71.327817 
L 251.03606 71.242521 
L 250.963316 71.249249 
L 248.635522 71.287661 
L 248.635522 71.208 
L 248.635522 71.121439 
L 247.98083 71.08893 
L 247.98083 71.095718 
L 247.98083 70.921703 
L 247.908086 70.928434 
L 247.326138 70.848 
L 247.326138 70.807626 
L 247.253394 70.814342 
L 246.016754 70.922512 
L 245.94401 70.936129 
L 245.434805 70.888787 
L 245.434805 70.895603 
L 245.434805 70.807181 
L 245.362061 70.813971 
L 243.179754 70.83422 
L 243.179754 70.751464 
L 243.179754 70.661749 
L 243.107011 70.668575 
L 240.779217 70.610138 
L 240.779217 70.61704 
L 240.779217 70.434737 
L 238.887884 70.423082 
L 238.887884 70.33768 
L 238.887884 70.060287 
L 238.81514 70.067063 
L 237.723987 70.028536 
L 237.723987 69.889589 
L 237.651243 69.896348 
L 236.851064 69.870429 
L 236.851064 69.877213 
L 236.851064 69.783287 
L 236.77832 69.790041 
L 234.232295 69.75028 
L 234.232295 69.743777 
L 234.232295 69.552549 
L 234.159552 69.559322 
L 232.850168 69.668478 
L 232.777424 69.689111 
L 231.177066 69.640338 
L 231.177066 69.647275 
L 231.177066 69.549762 
L 231.104322 69.556665 
L 228.849271 69.667755 
L 228.776528 69.681865 
L 228.194579 69.632169 
L 228.194579 69.639236 
L 228.194579 69.539831 
L 228.121836 69.546864 
L 227.248913 69.489413 
L 227.248913 69.331404 
L 227.176169 69.338395 
L 226.885195 69.359403 
L 226.885195 69.26592 
L 226.885195 69.165332 
L 226.812451 69.17227 
L 225.721298 69.140857 
L 225.721298 68.871149 
L 225.648554 68.878018 
L 224.702888 68.858655 
L 224.702888 68.865561 
L 224.702888 68.763156 
L 224.630144 68.770025 
L 223.029786 68.708722 
L 223.029786 68.715642 
L 223.029786 68.611951 
L 222.957042 68.618833 
L 221.720402 68.729806 
L 221.647658 68.743793 
L 220.992966 68.688 
L 220.992966 68.491636 
L 220.920222 68.498561 
L 219.756325 68.603215 
L 219.756325 68.610244 
L 219.756325 68.504127 
L 219.683582 68.511117 
L 219.465351 68.525115 
L 219.465351 68.425722 
L 219.465351 68.31922 
L 219.392608 68.326142 
L 218.446941 68.353896 
L 218.446941 68.202102 
L 218.374198 68.209021 
L 216.628352 68.117842 
L 216.628352 67.941781 
L 216.555608 67.948671 
L 216.046403 67.880727 
L 216.046403 67.887615 
L 216.046403 67.778034 
L 215.97366 67.784879 
L 215.246224 67.736596 
L 215.246224 67.743458 
L 215.173481 67.529435 
L 213.93684 67.556571 
L 213.93684 67.310762 
L 213.864096 67.317495 
L 212.991173 67.279582 
L 212.991173 67.286343 
L 212.991173 67.173762 
L 212.91843 67.180478 
L 211.681789 67.288836 
L 211.609046 67.302502 
L 210.808866 67.257014 
L 210.808866 67.263872 
L 210.808866 67.149474 
L 210.736123 67.156285 
L 207.098944 67.256889 
L 207.026201 67.278046 
L 205.353099 67.197296 
L 205.353099 67.085201 
L 204.189202 67.191916 
L 204.116458 67.206272 
L 203.025305 67.186439 
L 203.025305 67.193675 
L 203.025305 66.950809 
L 202.952561 66.957931 
L 201.643177 67.000824 
L 201.643177 66.841717 
L 201.570433 66.848861 
L 201.279459 66.87034 
L 201.279459 66.754141 
L 201.279459 66.630635 
L 201.206715 66.637692 
L 201.133972 66.637692 
L 201.133972 66.644757 
L 201.133972 66.520991 
L 201.061228 66.528 
L 200.261049 66.473912 
L 200.261049 66.480941 
L 200.261049 66.356142 
L 200.115562 66.356142 
L 200.115562 66.370095 
L 200.115562 66.245031 
L 200.042818 66.251954 
L 198.733434 66.286686 
L 198.733434 65.998144 
L 198.660691 66.005015 
L 198.587947 66.005015 
L 198.587947 66.011894 
L 198.587947 65.884901 
L 198.515203 65.891721 
L 195.969178 65.998672 
L 195.969178 66.005695 
L 195.969178 65.875971 
L 195.896435 65.882932 
L 194.732538 65.988308 
L 194.732538 65.995397 
L 194.077846 65.995397 
L 194.077846 65.531841 
L 194.005102 65.538725 
L 192.841205 65.642939 
L 192.768461 65.656972 
L 192.550231 65.671037 
L 192.550231 65.678081 
L 192.550231 65.544238 
L 192.477487 65.551217 
L 190.513411 65.621458 
L 190.440667 65.749991 
L 190.440667 65.613809 
L 189.495001 65.562839 
L 189.495001 65.570008 
L 189.495001 65.432498 
L 189.422257 65.439598 
L 188.476591 65.38677 
L 188.476591 65.393902 
L 188.476591 65.254957 
L 188.403847 65.262018 
L 187.603668 65.262018 
L 187.603668 65.059937 
L 187.530925 65.06694 
L 186.294284 65.173018 
L 186.22154 65.19447 
L 185.130387 65.216 
L 185.057643 64.872673 
L 185.057643 64.879721 
L 184.18472 64.813025 
L 184.18472 64.820093 
L 184.18472 64.529762 
L 184.111977 64.536665 
L 183.893746 64.550497 
L 183.821003 64.272425 
L 181.056747 64.379192 
L 180.984003 64.393214 
L 179.674619 64.421368 
L 179.601876 64.528263 
L 178.437979 64.637284 
L 178.365235 64.651984 
L 177.492312 64.733538 
L 177.492312 64.586459 
L 177.492312 64.4317 
L 175.746467 64.446282 
L 175.673723 64.616834 
L 174.582569 64.723292 
L 174.509826 64.738669 
L 172.545749 64.679148 
L 172.545749 64.463764 
L 172.473006 64.471437 
L 171.381852 64.580006 
L 171.309109 64.595692 
L 171.090878 64.611424 
L 171.090878 64.619306 
L 171.090878 64.4544 
L 171.018135 64.462182 
L 169.70875 64.516966 
L 169.636007 64.612174 
L 169.345032 64.636235 
L 169.345032 64.644279 
L 169.345032 64.476393 
L 169.272289 64.484332 
L 168.253879 64.588602 
L 168.181135 64.604821 
L 167.817418 64.637402 
L 167.817418 64.474962 
L 167.744674 64.48303 
L 166.726264 64.491109 
L 166.65352 64.605487 
L 166.65352 64.432671 
L 165.562367 64.522868 
L 165.489623 64.564364 
L 165.489623 64.389289 
L 164.543957 64.295339 
L 164.543957 64.142724 
L 164.471213 64.15084 
L 161.852445 64.260597 
L 161.779701 64.277502 
L 161.706958 64.277502 
L 161.706958 64.285975 
L 161.706958 64.102917 
L 161.634214 64.111265 
L 160.615804 64.221002 
L 160.543061 64.238088 
L 158.433497 64.341765 
L 158.433497 64.112211 
L 158.360754 64.120889 
L 157.997036 64.155746 
L 157.997036 64.164496 
L 157.997036 63.973161 
L 157.924292 63.981775 
L 157.560574 64.016372 
L 157.560574 64.025057 
L 157.560574 63.832493 
L 157.487831 63.841039 
L 156.542164 63.94472 
L 156.469421 63.962204 
L 153.414191 63.920908 
L 153.414191 63.736266 
L 153.341447 63.745178 
L 150.795423 63.848506 
L 150.722679 63.86713 
L 149.849756 63.970781 
L 149.777013 63.989852 
L 148.176654 63.999413 
L 148.103911 63.553441 
L 148.103911 63.562817 
L 147.594706 63.619445 
L 147.594706 63.628945 
L 147.594706 63.409589 
L 147.376475 63.409589 
L 147.376475 63.217231 
L 147.303731 63.226403 
L 147.012757 63.254025 
L 147.012757 63.263267 
L 147.012757 63.041467 
L 146.940013 63.050524 
L 146.576296 63.06869 
L 146.576296 63.096069 
L 146.576296 62.872615 
L 146.430808 62.872615 
L 146.430808 62.890543 
L 146.430808 62.441514 
L 146.358065 62.450087 
L 143.448322 62.554988 
L 143.375579 62.582139 
L 143.011861 62.618597 
L 143.011861 62.627757 
L 143.011861 62.39183 
L 142.939117 62.400779 
L 139.883887 62.500431 
L 139.811144 62.803546 
L 138.938221 62.912549 
L 138.865477 62.932645 
L 138.065298 63.034435 
L 137.992555 63.055059 
L 135.44653 63.146281 
L 135.373786 63.178897 
L 134.500863 63.28924 
L 134.500863 63.311613 
L 132.536787 63.345367 
L 132.464043 63.636014 
L 131.736608 63.744923 
L 131.736608 63.75717 
L 131.736608 63.477976 
L 131.663864 63.48993 
L 131.300146 63.538036 
L 131.300146 63.550136 
L 131.300146 63.268316 
L 131.227403 63.280117 
L 129.554301 63.375568 
L 129.554301 63.55969 
L 129.481557 62.989508 
L 128.754121 63.09725 
L 128.681378 63.121529 
L 127.953942 63.23233 
L 127.881199 63.257302 
L 125.480661 63.362332 
L 125.407917 63.388839 
L 125.407917 63.074341 
L 124.753225 63.178521 
L 124.680482 63.204923 
L 124.025789 63.312 
L 123.953046 63.339142 
L 123.807559 63.35277 
L 123.807559 63.366436 
L 123.807559 63.04179 
L 123.734815 63.055059 
L 121.98897 63.14899 
L 121.98897 63.385043 
L 121.98897 63.048174 
L 121.916226 63.061953 
L 121.843482 63.061953 
L 121.843482 63.075773 
L 121.843482 62.73698 
L 121.770739 62.750365 
L 121.334277 62.817882 
L 121.334277 62.831505 
L 121.334277 62.488354 
L 121.261534 62.50153 
L 120.17038 62.594866 
L 120.17038 61.998545 
L 120.097637 62.011338 
L 119.879406 62.037041 
L 119.879406 62.049951 
L 119.879406 61.693557 
L 119.224714 61.794028 
L 119.15197 61.819535 
L 117.842586 61.923165 
L 117.769843 62.069981 
L 117.11515 62.180039 
L 117.042407 62.208 
L 116.460458 62.30731 
L 116.387715 62.336105 
L 115.805766 62.4384 
L 115.805766 62.453209 
L 114.641869 62.453209 
L 114.569126 62.712742 
L 114.059921 62.808 
L 113.987177 62.840195 
L 113.477972 62.938141 
L 113.405228 62.971251 
L 112.896023 63.072 
L 112.896023 63.089002 
L 111.732126 63.089002 
L 111.659383 63.387631 
L 111.150178 63.497552 
L 111.077434 63.534742 
L 110.713716 63.609962 
L 110.713716 63.628945 
L 110.640973 63.189818 
L 110.640973 63.208076 
L 110.059024 63.319094 
L 109.986281 63.375568 
L 109.258845 63.375568 
L 109.186101 63.588355 
L 108.74964 63.688159 
L 108.676897 63.72864 
L 108.240435 63.831273 
L 108.240435 63.852049 
L 106.203615 63.950833 
L 106.130872 63.995586 
L 105.912641 64.040727 
L 105.912641 64.063445 
L 105.912641 63.560348 
L 105.839897 63.582118 
L 105.621667 63.625943 
L 105.621667 63.648 
L 105.621667 63.138462 
L 105.185205 63.2448 
L 105.112462 63.288 
L 103.875821 63.397707 
L 103.803077 63.694884 
L 103.43936 63.789972 
L 103.43936 63.814024 
L 103.43936 63.267623 
L 103.366616 63.290553 
L 103.002898 63.38337 
L 102.930155 63.430446 
L 102.566437 63.525966 
L 102.566437 63.550136 
L 102.202719 63.648 
L 102.202719 63.672767 
L 101.548027 63.672767 
L 101.475283 63.927295 
L 101.111565 64.032733 
L 101.038822 64.086261 
L 100.675104 64.194977 
L 100.60236 64.250182 
L 100.311386 64.334073 
L 100.238643 64.390737 
L 99.220233 64.448 
L 99.220233 64.804721 
L 99.002002 64.866462 
L 99.002002 64.897587 
L 99.002002 64.260597 
L 98.929258 64.290216 
L 98.638284 64.380067 
L 98.638284 64.410353 
L 98.638284 63.761258 
L 98.565541 63.789972 
L 98.274566 63.877091 
L 98.201823 63.936 
L 96.892438 64.025637 
L 96.819695 64.531142 
L 96.528721 64.631415 
L 96.455977 64.699288 
L 96.165003 64.802675 
L 96.092259 64.872673 
L 95.801285 64.979321 
L 95.728541 65.051544 
L 95.510311 65.124688 
L 95.510311 65.16161 
L 95.510311 64.423385 
L 95.437567 64.458289 
L 95.364823 64.458289 
L 95.364823 64.493419 
L 95.364823 63.745864 
L 95.29208 63.778909 
L 95.001106 63.879344 
L 94.928362 63.947406 
L 94.564644 63.947406 
L 94.491901 64.157091 
L 94.055439 64.265143 
L 93.982696 64.41269 
L 93.764465 64.488 
L 93.691721 64.564364 
L 93.473491 64.641803 
L 93.400747 64.72034 
L 93.109773 64.72034 
L 93.037029 64.048289 
L 93.037029 64.086261 
L 92.746055 64.086261 
L 92.673311 64.280325 
L 92.600568 64.280325 
L 92.600568 64.32 
L 92.600568 63.460639 
L 92.527824 63.497552 
L 92.309594 63.572211 
L 92.23685 63.648 
L 92.018619 63.724947 
L 91.945876 63.803077 
L 91.727645 63.882419 
L 91.654902 63.963 
L 91.436671 63.963 
L 91.363927 64.128 
L 91.145697 64.21248 
L 91.072953 64.298323 
L 90.854722 64.385561 
L 90.781979 64.47423 
L 90.636492 64.519111 
L 90.636492 64.564364 
L 90.636492 63.606174 
L 90.563748 63.648 
L 90.345517 63.690176 
L 90.272774 63.818847 
L 89.909056 63.862468 
L 89.836312 64.086261 
L 89.618082 64.178526 
L 89.545338 64.272425 
L 89.18162 64.368 
L 89.108877 64.564364 
L 88.890646 64.665248 
L 88.817902 64.768 
L 88.599672 64.872673 
L 88.526928 64.979321 
L 88.526928 63.886863 
L 88.381441 63.936 
L 88.381441 63.985608 
L 88.381441 62.872615 
L 87.435775 62.872615 
L 87.363031 63.544082 
L 87.217544 63.595772 
L 87.217544 63.648 
L 87.217544 62.434178 
L 87.1448 62.480842 
L 86.92657 62.57566 
L 86.853826 62.672516 
L 86.635595 62.771478 
L 86.562852 62.872615 
L 86.344621 62.924022 
L 86.344621 63.028559 
L 86.053647 63.028559 
L 85.980903 63.300414 
L 85.835416 63.356671 
L 85.762672 63.471158 
L 85.617185 63.529412 
L 85.544442 63.648 
L 85.544442 62.259737 
L 85.253468 62.365091 
L 85.180724 62.528 
L 85.035237 62.583652 
L 84.962493 62.697057 
L 84.817006 62.754835 
L 84.744263 62.872615 
L 84.671519 62.872615 
L 84.671519 62.932645 
L 84.671519 61.422545 
L 84.598775 61.473882 
L 84.380545 61.525895 
L 84.307801 61.686121 
L 84.016827 61.686121 
L 83.944083 61.968 
L 83.725853 62.026741 
L 83.725853 62.146723 
L 83.580365 62.146723 
L 83.507622 62.333217 
L 83.362135 62.397197 
L 83.289391 62.528 
L 83.143904 62.594866 
L 83.07116 62.731636 
L 82.925673 62.801588 
L 82.85293 62.944744 
L 82.707443 63.018 
L 82.707443 63.092409 
L 82.489212 63.092409 
L 82.416468 63.402146 
L 82.270981 63.482754 
L 82.198238 63.648 
L 82.05275 63.732706 
L 81.980007 63.906462 
L 81.761776 63.995586 
L 81.761776 64.178526 
L 81.470802 64.178526 
L 81.398058 64.665248 
L 81.252571 64.768 
L 81.179828 64.979321 
L 81.034341 65.088 
L 80.961597 65.311689 
L 80.888853 65.311689 
L 80.81611 65.544238 
L 80.743366 65.544238 
L 80.670623 65.786182 
L 80.525136 65.786182 
L 80.452392 66.168 
L 80.379648 66.168 
L 80.306905 66.436085 
L 80.234161 66.436085 
L 80.161418 66.715826 
L 80.088674 66.715826 
L 80.088674 66.860308 
L 79.943187 66.860308 
L 79.870443 67.313455 
L 79.7977 67.313455 
L 79.7977 67.471448 
L 79.652213 67.471448 
L 79.579469 67.968 
L 79.288495 67.968 
L 79.215751 68.879392 
L 79.143008 68.879392 
L 79.070264 69.277091 
L 78.997521 69.277091 
L 78.997521 69.483789 
L 78.706546 69.483789 
L 78.706546 70.368 
L 78.706546 67.197296 
L 78.633803 67.392 
L 78.561059 67.392 
L 78.488316 67.798588 
L 78.415572 67.798588 
L 78.342829 68.229818 
L 78.270085 68.229818 
L 78.197341 68.688 
L 78.124598 68.688 
L 78.051854 69.175742 
L 77.979111 69.175742 
L 77.906367 69.696 
L 77.76088 69.696 
L 77.688136 70.544842 
L 77.615393 70.544842 
L 77.542649 71.162182 
L 77.542649 67.008 
L 77.469906 67.008 
L 77.397162 67.524923 
L 77.324419 67.524923 
L 77.251675 68.0832 
L 77.178931 68.0832 
L 77.106188 68.688 
L 77.033444 68.688 
L 76.960701 69.345391 
L 76.887957 69.345391 
L 76.815214 70.062545 
L 76.74247 70.062545 
L 76.669726 70.848 
L 76.596983 70.848 
L 76.524239 71.712 
L 76.451496 71.712 
L 76.378752 72.666947 
L 76.306009 72.666947 
L 76.306009 73.183135 
L 76.160521 73.183135 
L 76.087778 74.913882 
L 76.015034 74.913882 
L 75.942291 76.248 
L 75.869547 76.248 
L 75.796804 77.76 
L 75.578573 77.76 
L 75.578573 80.448 
L 75.433086 80.448 
L 75.360342 83.808 
L 75.287599 83.808 
L 75.287599 85.122783 
L 75.142112 85.122783 
L 75.069368 89.856 
L 74.996624 89.856 
L 74.923881 93.888 
L 74.851137 93.888 
L 74.778394 98.928 
L 74.70565 98.928 
L 74.632907 105.408 
L 74.632907 90.786462 
L 74.560163 90.786462 
L 74.487419 97.553455 
L 74.414676 97.553455 
L 74.341932 107.328 
L 74.123702 107.328 
L 74.050958 150.336 
L 73.978214 150.336 
L 73.905471 214.848 
L 73.832727 214.848 
L 73.832727 295.488 
L 73.832727 53.568 
L 73.832727 53.568 
" clip-path="url(#pb1d632d297)" style="fill: none; stroke: #1f77b4; stroke-width: 1.5; stroke-linecap: square"/>
   </g>
   <g id="patch_3">
    <path d="M 57.6 307.584 
L 57.6 41.472 
" style="fill: none; stroke: #000000; stroke-width: 0.8; stroke-linejoin: miter; stroke-linecap: square"/>
   </g>
   <g id="patch_4">
    <path d="M 414.72 307.584 
L 414.72 41.472 
" style="fill: none; stroke: #000000; stroke-width: 0.8; stroke-linejoin: miter; stroke-linecap: square"/>
   </g>
   <g id="patch_5">
    <path d="M 57.6 307.584 
L 414.72 307.584 
" style="fill: none; stroke: #000000; stroke-width: 0.8; stroke-linejoin: miter; stroke-linecap: square"/>
   </g>
   <g id="patch_6">
    <path d="M 57.6 41.472 
L 414.72 41.472 
" style="fill: none; stroke: #000000; stroke-width: 0.8; stroke-linejoin: miter; stroke-linecap: square"/>
   </g>
   <g id="legend_1">
    <g id="patch_7">
     <path d="M 64.6 302.584 
L 196.584375 302.584 
Q 198.584375 302.584 198.584375 300.584 
L 198.584375 286.905875 
Q 198.584375 284.905875 196.584375 284.905875 
L 64.6 284.905875 
Q 62.6 284.905875 62.6 286.905875 
L 62.6 300.584 
Q 62.6 302.584 64.6 302.584 
z
" style="fill: #ffffff; opacity: 0.8; stroke: #cccccc; stroke-linejoin: miter"/>
    </g>
    <g id="line2d_14">
     <path d="M 66.6 293.004312 
L 76.6 293.004312 
L 76.6 293.004312 
L 86.6 293.004312 
L 86.6 293.004312 
" style="fill: none; stroke: #1f77b4; stroke-width: 1.5; stroke-linecap: square"/>
    </g>
    <g id="text_15">
     <!-- Pipeline (AP = 0.90) -->
     <g transform="translate(94.6 296.504312) scale(0.1 -0.1)">
      <defs>
       <path id="DejaVuSans-70" d="M 1159 525 
L 1159 -1331 
L 581 -1331 
L 581 3500 
L 1159 3500 
L 1159 2969 
Q 1341 3281 1617 3432 
Q 1894 3584 2278 3584 
Q 2916 3584 3314 3078 
Q 3713 2572 3713 1747 
Q 3713 922 3314 415 
Q 2916 -91 2278 -91 
Q 1894 -91 1617 61 
Q 1341 213 1159 525 
z
M 3116 1747 
Q 3116 2381 2855 2742 
Q 2594 3103 2138 3103 
Q 1681 3103 1420 2742 
Q 1159 2381 1159 1747 
Q 1159 1113 1420 752 
Q 1681 391 2138 391 
Q 2594 391 2855 752 
Q 3116 1113 3116 1747 
z
" transform="scale(0.015625)"/>
       <path id="DejaVuSans-41" d="M 2188 4044 
L 1331 1722 
L 3047 1722 
L 2188 4044 
z
M 1831 4666 
L 2547 4666 
L 4325 0 
L 3669 0 
L 3244 1197 
L 1141 1197 
L 716 0 
L 50 0 
L 1831 4666 
z
" transform="scale(0.015625)"/>
       <path id="DejaVuSans-3d" d="M 678 2906 
L 4684 2906 
L 4684 2381 
L 678 2381 
L 678 2906 
z
M 678 1631 
L 4684 1631 
L 4684 1100 
L 678 1100 
L 678 1631 
z
" transform="scale(0.015625)"/>
       <path id="DejaVuSans-39" d="M 703 97 
L 703 672 
Q 941 559 1184 500 
Q 1428 441 1663 441 
Q 2288 441 2617 861 
Q 2947 1281 2994 2138 
Q 2813 1869 2534 1725 
Q 2256 1581 1919 1581 
Q 1219 1581 811 2004 
Q 403 2428 403 3163 
Q 403 3881 828 4315 
Q 1253 4750 1959 4750 
Q 2769 4750 3195 4129 
Q 3622 3509 3622 2328 
Q 3622 1225 3098 567 
Q 2575 -91 1691 -91 
Q 1453 -91 1209 -44 
Q 966 3 703 97 
z
M 1959 2075 
Q 2384 2075 2632 2365 
Q 2881 2656 2881 3163 
Q 2881 3666 2632 3958 
Q 2384 4250 1959 4250 
Q 1534 4250 1286 3958 
Q 1038 3666 1038 3163 
Q 1038 2656 1286 2365 
Q 1534 2075 1959 2075 
z
" transform="scale(0.015625)"/>
      </defs>
      <use xlink:href="#DejaVuSans-50"/>
      <use xlink:href="#DejaVuSans-69" x="58.052734"/>
      <use xlink:href="#DejaVuSans-70" x="85.835938"/>
      <use xlink:href="#DejaVuSans-65" x="149.3125"/>
      <use xlink:href="#DejaVuSans-6c" x="210.835938"/>
      <use xlink:href="#DejaVuSans-69" x="238.619141"/>
      <use xlink:href="#DejaVuSans-6e" x="266.402344"/>
      <use xlink:href="#DejaVuSans-65" x="329.78125"/>
      <use xlink:href="#DejaVuSans-20" x="391.304688"/>
      <use xlink:href="#DejaVuSans-28" x="423.091797"/>
      <use xlink:href="#DejaVuSans-41" x="462.105469"/>
      <use xlink:href="#DejaVuSans-50" x="530.513672"/>
      <use xlink:href="#DejaVuSans-20" x="590.816406"/>
      <use xlink:href="#DejaVuSans-3d" x="622.603516"/>
      <use xlink:href="#DejaVuSans-20" x="706.392578"/>
      <use xlink:href="#DejaVuSans-30" x="738.179688"/>
      <use xlink:href="#DejaVuSans-2e" x="801.802734"/>
      <use xlink:href="#DejaVuSans-39" x="833.589844"/>
      <use xlink:href="#DejaVuSans-30" x="897.212891"/>
      <use xlink:href="#DejaVuSans-29" x="960.835938"/>
     </g>
    </g>
   </g>
  </g>
 </g>
 <defs>
  <clipPath id="pb1d632d297">
   <rect x="57.6" y="41.472" width="357.12" height="266.112"/>
  </clipPath>
 </defs>
</svg>
