<?xml version="1.0" encoding="utf-8" standalone="no"?>
<!DOCTYPE svg PUBLIC "-//W3C//DTD SVG 1.1//EN"
        "http://www.w3.org/Graphics/SVG/1.1/DTD/svg11.dtd">
<svg xmlns:xlink="http://www.w3.org/1999/xlink" width="460.8pt" height="345.6pt" viewBox="0 0 460.8 345.6"
     xmlns="http://www.w3.org/2000/svg" version="1.1">
    <metadata>
        <rdf:RDF xmlns:dc="http://purl.org/dc/elements/1.1/" xmlns:cc="http://creativecommons.org/ns#"
                 xmlns:rdf="http://www.w3.org/1999/02/22-rdf-syntax-ns#">
            <cc:Work>
                <dc:type rdf:resource="http://purl.org/dc/dcmitype/StillImage"/>
                <dc:date>2022-11-30T19:01:17.182972</dc:date>
                <dc:format>image/svg+xml</dc:format>
                <dc:creator>
                    <cc:Agent>
                        <dc:title>Matplotlib v3.6.2, https://matplotlib.org/</dc:title>
                    </cc:Agent>
                </dc:creator>
            </cc:Work>
        </rdf:RDF>
    </metadata>
    <defs>
        <style type="text/css">*{stroke-linejoin: round; stroke-linecap: butt}</style>
    </defs>
    <g id="figure_1">
        <g id="patch_1">
            <path d="M 0 345.6
L 460.8 345.6 
L 460.8 0 
L 0 0 
z
" style="fill: #ffffff"/>
        </g>
        <g id="axes_1">
            <g id="patch_2">
                <path d="M 57.6 307.584
L 414.72 307.584 
L 414.72 41.472 
L 57.6 41.472 
z
" style="fill: #eaeaf2"/>
            </g>
            <g id="matplotlib.axis_1">
                <g id="xtick_1">
                    <g id="line2d_1">
                        <path d="M 73.832727 307.584
L 73.832727 41.472 
" clip-path="url(#pb1af9a04ab)" style="fill: none; stroke: #ffffff; stroke-width: 0.8; stroke-linecap: round"/>
                    </g>
                    <g id="line2d_2"/>
                    <g id="text_1">
                        <!-- 0.0 -->
                        <g style="fill: #262626" transform="translate(66.882727 318.241812) scale(0.1 -0.1)">
                            <defs>
                                <path id="ArialMT-30" d="M 266 2259
Q 266 3072 433 3567 
Q 600 4063 929 4331 
Q 1259 4600 1759 4600 
Q 2128 4600 2406 4451 
Q 2684 4303 2865 4023 
Q 3047 3744 3150 3342 
Q 3253 2941 3253 2259 
Q 3253 1453 3087 958 
Q 2922 463 2592 192 
Q 2263 -78 1759 -78 
Q 1097 -78 719 397 
Q 266 969 266 2259 
z
M 844 2259 
Q 844 1131 1108 757 
Q 1372 384 1759 384 
Q 2147 384 2411 759 
Q 2675 1134 2675 2259 
Q 2675 3391 2411 3762 
Q 2147 4134 1753 4134 
Q 1366 4134 1134 3806 
Q 844 3388 844 2259 
z
" transform="scale(0.015625)"/>
                                <path id="ArialMT-2e" d="M 581 0
L 581 641 
L 1222 641 
L 1222 0 
L 581 0 
z
" transform="scale(0.015625)"/>
                            </defs>
                            <use xlink:href="#ArialMT-30"/>
                            <use xlink:href="#ArialMT-2e" x="55.615234"/>
                            <use xlink:href="#ArialMT-30" x="83.398438"/>
                        </g>
                    </g>
                </g>
                <g id="xtick_2">
                    <g id="line2d_3">
                        <path d="M 138.763636 307.584
L 138.763636 41.472 
" clip-path="url(#pb1af9a04ab)" style="fill: none; stroke: #ffffff; stroke-width: 0.8; stroke-linecap: round"/>
                    </g>
                    <g id="line2d_4"/>
                    <g id="text_2">
                        <!-- 0.2 -->
                        <g style="fill: #262626" transform="translate(131.813636 318.241812) scale(0.1 -0.1)">
                            <defs>
                                <path id="ArialMT-32" d="M 3222 541
L 3222 0 
L 194 0 
Q 188 203 259 391 
Q 375 700 629 1000 
Q 884 1300 1366 1694 
Q 2113 2306 2375 2664 
Q 2638 3022 2638 3341 
Q 2638 3675 2398 3904 
Q 2159 4134 1775 4134 
Q 1369 4134 1125 3890 
Q 881 3647 878 3216 
L 300 3275 
Q 359 3922 746 4261 
Q 1134 4600 1788 4600 
Q 2447 4600 2831 4234 
Q 3216 3869 3216 3328 
Q 3216 3053 3103 2787 
Q 2991 2522 2730 2228 
Q 2469 1934 1863 1422 
Q 1356 997 1212 845 
Q 1069 694 975 541 
L 3222 541 
z
" transform="scale(0.015625)"/>
                            </defs>
                            <use xlink:href="#ArialMT-30"/>
                            <use xlink:href="#ArialMT-2e" x="55.615234"/>
                            <use xlink:href="#ArialMT-32" x="83.398438"/>
                        </g>
                    </g>
                </g>
                <g id="xtick_3">
                    <g id="line2d_5">
                        <path d="M 203.694545 307.584
L 203.694545 41.472 
" clip-path="url(#pb1af9a04ab)" style="fill: none; stroke: #ffffff; stroke-width: 0.8; stroke-linecap: round"/>
                    </g>
                    <g id="line2d_6"/>
                    <g id="text_3">
                        <!-- 0.4 -->
                        <g style="fill: #262626" transform="translate(196.744545 318.241812) scale(0.1 -0.1)">
                            <defs>
                                <path id="ArialMT-34" d="M 2069 0
L 2069 1097 
L 81 1097 
L 81 1613 
L 2172 4581 
L 2631 4581 
L 2631 1613 
L 3250 1613 
L 3250 1097 
L 2631 1097 
L 2631 0 
L 2069 0 
z
M 2069 1613 
L 2069 3678 
L 634 1613 
L 2069 1613 
z
" transform="scale(0.015625)"/>
                            </defs>
                            <use xlink:href="#ArialMT-30"/>
                            <use xlink:href="#ArialMT-2e" x="55.615234"/>
                            <use xlink:href="#ArialMT-34" x="83.398438"/>
                        </g>
                    </g>
                </g>
                <g id="xtick_4">
                    <g id="line2d_7">
                        <path d="M 268.625455 307.584
L 268.625455 41.472 
" clip-path="url(#pb1af9a04ab)" style="fill: none; stroke: #ffffff; stroke-width: 0.8; stroke-linecap: round"/>
                    </g>
                    <g id="line2d_8"/>
                    <g id="text_4">
                        <!-- 0.6 -->
                        <g style="fill: #262626" transform="translate(261.675455 318.241812) scale(0.1 -0.1)">
                            <defs>
                                <path id="ArialMT-36" d="M 3184 3459
L 2625 3416 
Q 2550 3747 2413 3897 
Q 2184 4138 1850 4138 
Q 1581 4138 1378 3988 
Q 1113 3794 959 3422 
Q 806 3050 800 2363 
Q 1003 2672 1297 2822 
Q 1591 2972 1913 2972 
Q 2475 2972 2870 2558 
Q 3266 2144 3266 1488 
Q 3266 1056 3080 686 
Q 2894 316 2569 119 
Q 2244 -78 1831 -78 
Q 1128 -78 684 439 
Q 241 956 241 2144 
Q 241 3472 731 4075 
Q 1159 4600 1884 4600 
Q 2425 4600 2770 4297 
Q 3116 3994 3184 3459 
z
M 888 1484 
Q 888 1194 1011 928 
Q 1134 663 1356 523 
Q 1578 384 1822 384 
Q 2178 384 2434 671 
Q 2691 959 2691 1453 
Q 2691 1928 2437 2201 
Q 2184 2475 1800 2475 
Q 1419 2475 1153 2201 
Q 888 1928 888 1484 
z
" transform="scale(0.015625)"/>
                            </defs>
                            <use xlink:href="#ArialMT-30"/>
                            <use xlink:href="#ArialMT-2e" x="55.615234"/>
                            <use xlink:href="#ArialMT-36" x="83.398438"/>
                        </g>
                    </g>
                </g>
                <g id="xtick_5">
                    <g id="line2d_9">
                        <path d="M 333.556364 307.584
L 333.556364 41.472 
" clip-path="url(#pb1af9a04ab)" style="fill: none; stroke: #ffffff; stroke-width: 0.8; stroke-linecap: round"/>
                    </g>
                    <g id="line2d_10"/>
                    <g id="text_5">
                        <!-- 0.8 -->
                        <g style="fill: #262626" transform="translate(326.606364 318.241812) scale(0.1 -0.1)">
                            <defs>
                                <path id="ArialMT-38" d="M 1131 2484
Q 781 2613 612 2850 
Q 444 3088 444 3419 
Q 444 3919 803 4259 
Q 1163 4600 1759 4600 
Q 2359 4600 2725 4251 
Q 3091 3903 3091 3403 
Q 3091 3084 2923 2848 
Q 2756 2613 2416 2484 
Q 2838 2347 3058 2040 
Q 3278 1734 3278 1309 
Q 3278 722 2862 322 
Q 2447 -78 1769 -78 
Q 1091 -78 675 323 
Q 259 725 259 1325 
Q 259 1772 486 2073 
Q 713 2375 1131 2484 
z
M 1019 3438 
Q 1019 3113 1228 2906 
Q 1438 2700 1772 2700 
Q 2097 2700 2305 2904 
Q 2513 3109 2513 3406 
Q 2513 3716 2298 3927 
Q 2084 4138 1766 4138 
Q 1444 4138 1231 3931 
Q 1019 3725 1019 3438 
z
M 838 1322 
Q 838 1081 952 856 
Q 1066 631 1291 507 
Q 1516 384 1775 384 
Q 2178 384 2440 643 
Q 2703 903 2703 1303 
Q 2703 1709 2433 1975 
Q 2163 2241 1756 2241 
Q 1359 2241 1098 1978 
Q 838 1716 838 1322 
z
" transform="scale(0.015625)"/>
                            </defs>
                            <use xlink:href="#ArialMT-30"/>
                            <use xlink:href="#ArialMT-2e" x="55.615234"/>
                            <use xlink:href="#ArialMT-38" x="83.398438"/>
                        </g>
                    </g>
                </g>
                <g id="xtick_6">
                    <g id="line2d_11">
                        <path d="M 398.487273 307.584
L 398.487273 41.472 
" clip-path="url(#pb1af9a04ab)" style="fill: none; stroke: #ffffff; stroke-width: 0.8; stroke-linecap: round"/>
                    </g>
                    <g id="line2d_12"/>
                    <g id="text_6">
                        <!-- 1.0 -->
                        <g style="fill: #262626" transform="translate(391.537273 318.241812) scale(0.1 -0.1)">
                            <defs>
                                <path id="ArialMT-31" d="M 2384 0
L 1822 0 
L 1822 3584 
Q 1619 3391 1289 3197 
Q 959 3003 697 2906 
L 697 3450 
Q 1169 3672 1522 3987 
Q 1875 4303 2022 4600 
L 2384 4600 
L 2384 0 
z
" transform="scale(0.015625)"/>
                            </defs>
                            <use xlink:href="#ArialMT-31"/>
                            <use xlink:href="#ArialMT-2e" x="55.615234"/>
                            <use xlink:href="#ArialMT-30" x="83.398438"/>
                        </g>
                    </g>
                </g>
                <g id="text_7">
                    <!-- Recall -->
                    <g style="fill: #262626" transform="translate(222.26625 331.387125) scale(0.1 -0.1)">
                        <defs>
                            <path id="ArialMT-52" d="M 503 0
L 503 4581 
L 2534 4581 
Q 3147 4581 3465 4457 
Q 3784 4334 3975 4021 
Q 4166 3709 4166 3331 
Q 4166 2844 3850 2509 
Q 3534 2175 2875 2084 
Q 3116 1969 3241 1856 
Q 3506 1613 3744 1247 
L 4541 0 
L 3778 0 
L 3172 953 
Q 2906 1366 2734 1584 
Q 2563 1803 2427 1890 
Q 2291 1978 2150 2013 
Q 2047 2034 1813 2034 
L 1109 2034 
L 1109 0 
L 503 0 
z
M 1109 2559 
L 2413 2559 
Q 2828 2559 3062 2645 
Q 3297 2731 3419 2920 
Q 3541 3109 3541 3331 
Q 3541 3656 3305 3865 
Q 3069 4075 2559 4075 
L 1109 4075 
L 1109 2559 
z
" transform="scale(0.015625)"/>
                            <path id="ArialMT-65" d="M 2694 1069
L 3275 997 
Q 3138 488 2766 206 
Q 2394 -75 1816 -75 
Q 1088 -75 661 373 
Q 234 822 234 1631 
Q 234 2469 665 2931 
Q 1097 3394 1784 3394 
Q 2450 3394 2872 2941 
Q 3294 2488 3294 1666 
Q 3294 1616 3291 1516 
L 816 1516 
Q 847 969 1125 678 
Q 1403 388 1819 388 
Q 2128 388 2347 550 
Q 2566 713 2694 1069 
z
M 847 1978 
L 2700 1978 
Q 2663 2397 2488 2606 
Q 2219 2931 1791 2931 
Q 1403 2931 1139 2672 
Q 875 2413 847 1978 
z
" transform="scale(0.015625)"/>
                            <path id="ArialMT-63" d="M 2588 1216
L 3141 1144 
Q 3050 572 2676 248 
Q 2303 -75 1759 -75 
Q 1078 -75 664 370 
Q 250 816 250 1647 
Q 250 2184 428 2587 
Q 606 2991 970 3192 
Q 1334 3394 1763 3394 
Q 2303 3394 2647 3120 
Q 2991 2847 3088 2344 
L 2541 2259 
Q 2463 2594 2264 2762 
Q 2066 2931 1784 2931 
Q 1359 2931 1093 2626 
Q 828 2322 828 1663 
Q 828 994 1084 691 
Q 1341 388 1753 388 
Q 2084 388 2306 591 
Q 2528 794 2588 1216 
z
" transform="scale(0.015625)"/>
                            <path id="ArialMT-61" d="M 2588 409
Q 2275 144 1986 34 
Q 1697 -75 1366 -75 
Q 819 -75 525 192 
Q 231 459 231 875 
Q 231 1119 342 1320 
Q 453 1522 633 1644 
Q 813 1766 1038 1828 
Q 1203 1872 1538 1913 
Q 2219 1994 2541 2106 
Q 2544 2222 2544 2253 
Q 2544 2597 2384 2738 
Q 2169 2928 1744 2928 
Q 1347 2928 1158 2789 
Q 969 2650 878 2297 
L 328 2372 
Q 403 2725 575 2942 
Q 747 3159 1072 3276 
Q 1397 3394 1825 3394 
Q 2250 3394 2515 3294 
Q 2781 3194 2906 3042 
Q 3031 2891 3081 2659 
Q 3109 2516 3109 2141 
L 3109 1391 
Q 3109 606 3145 398 
Q 3181 191 3288 0 
L 2700 0 
Q 2613 175 2588 409 
z
M 2541 1666 
Q 2234 1541 1622 1453 
Q 1275 1403 1131 1340 
Q 988 1278 909 1158 
Q 831 1038 831 891 
Q 831 666 1001 516 
Q 1172 366 1500 366 
Q 1825 366 2078 508 
Q 2331 650 2450 897 
Q 2541 1088 2541 1459 
L 2541 1666 
z
" transform="scale(0.015625)"/>
                            <path id="ArialMT-6c" d="M 409 0
L 409 4581 
L 972 4581 
L 972 0 
L 409 0 
z
" transform="scale(0.015625)"/>
                        </defs>
                        <use xlink:href="#ArialMT-52"/>
                        <use xlink:href="#ArialMT-65" x="72.216797"/>
                        <use xlink:href="#ArialMT-63" x="127.832031"/>
                        <use xlink:href="#ArialMT-61" x="177.832031"/>
                        <use xlink:href="#ArialMT-6c" x="233.447266"/>
                        <use xlink:href="#ArialMT-6c" x="255.664062"/>
                    </g>
                </g>
            </g>
            <g id="matplotlib.axis_2">
                <g id="ytick_1">
                    <g id="line2d_13">
                        <path d="M 57.6 297.207035
L 414.72 297.207035 
" clip-path="url(#pb1af9a04ab)" style="fill: none; stroke: #ffffff; stroke-width: 0.8; stroke-linecap: round"/>
                    </g>
                    <g id="line2d_14"/>
                    <g id="text_8">
                        <!-- 0.5 -->
                        <g style="fill: #262626" transform="translate(40.2 300.785941) scale(0.1 -0.1)">
                            <defs>
                                <path id="ArialMT-35" d="M 266 1200
L 856 1250 
Q 922 819 1161 601 
Q 1400 384 1738 384 
Q 2144 384 2425 690 
Q 2706 997 2706 1503 
Q 2706 1984 2436 2262 
Q 2166 2541 1728 2541 
Q 1456 2541 1237 2417 
Q 1019 2294 894 2097 
L 366 2166 
L 809 4519 
L 3088 4519 
L 3088 3981 
L 1259 3981 
L 1013 2750 
Q 1425 3038 1878 3038 
Q 2478 3038 2890 2622 
Q 3303 2206 3303 1553 
Q 3303 931 2941 478 
Q 2500 -78 1738 -78 
Q 1113 -78 717 272 
Q 322 622 266 1200 
z
" transform="scale(0.015625)"/>
                            </defs>
                            <use xlink:href="#ArialMT-30"/>
                            <use xlink:href="#ArialMT-2e" x="55.615234"/>
                            <use xlink:href="#ArialMT-35" x="83.398438"/>
                        </g>
                    </g>
                </g>
                <g id="ytick_2">
                    <g id="line2d_15">
                        <path d="M 57.6 248.479228
L 414.72 248.479228 
" clip-path="url(#pb1af9a04ab)" style="fill: none; stroke: #ffffff; stroke-width: 0.8; stroke-linecap: round"/>
                    </g>
                    <g id="line2d_16"/>
                    <g id="text_9">
                        <!-- 0.6 -->
                        <g style="fill: #262626" transform="translate(40.2 252.058134) scale(0.1 -0.1)">
                            <use xlink:href="#ArialMT-30"/>
                            <use xlink:href="#ArialMT-2e" x="55.615234"/>
                            <use xlink:href="#ArialMT-36" x="83.398438"/>
                        </g>
                    </g>
                </g>
                <g id="ytick_3">
                    <g id="line2d_17">
                        <path d="M 57.6 199.751421
L 414.72 199.751421 
" clip-path="url(#pb1af9a04ab)" style="fill: none; stroke: #ffffff; stroke-width: 0.8; stroke-linecap: round"/>
                    </g>
                    <g id="line2d_18"/>
                    <g id="text_10">
                        <!-- 0.7 -->
                        <g style="fill: #262626" transform="translate(40.2 203.330327) scale(0.1 -0.1)">
                            <defs>
                                <path id="ArialMT-37" d="M 303 3981
L 303 4522 
L 3269 4522 
L 3269 4084 
Q 2831 3619 2401 2847 
Q 1972 2075 1738 1259 
Q 1569 684 1522 0 
L 944 0 
Q 953 541 1156 1306 
Q 1359 2072 1739 2783 
Q 2119 3494 2547 3981 
L 303 3981 
z
" transform="scale(0.015625)"/>
                            </defs>
                            <use xlink:href="#ArialMT-30"/>
                            <use xlink:href="#ArialMT-2e" x="55.615234"/>
                            <use xlink:href="#ArialMT-37" x="83.398438"/>
                        </g>
                    </g>
                </g>
                <g id="ytick_4">
                    <g id="line2d_19">
                        <path d="M 57.6 151.023614
L 414.72 151.023614 
" clip-path="url(#pb1af9a04ab)" style="fill: none; stroke: #ffffff; stroke-width: 0.8; stroke-linecap: round"/>
                    </g>
                    <g id="line2d_20"/>
                    <g id="text_11">
                        <!-- 0.8 -->
                        <g style="fill: #262626" transform="translate(40.2 154.60252) scale(0.1 -0.1)">
                            <use xlink:href="#ArialMT-30"/>
                            <use xlink:href="#ArialMT-2e" x="55.615234"/>
                            <use xlink:href="#ArialMT-38" x="83.398438"/>
                        </g>
                    </g>
                </g>
                <g id="ytick_5">
                    <g id="line2d_21">
                        <path d="M 57.6 102.295807
L 414.72 102.295807 
" clip-path="url(#pb1af9a04ab)" style="fill: none; stroke: #ffffff; stroke-width: 0.8; stroke-linecap: round"/>
                    </g>
                    <g id="line2d_22"/>
                    <g id="text_12">
                        <!-- 0.9 -->
                        <g style="fill: #262626" transform="translate(40.2 105.874713) scale(0.1 -0.1)">
                            <defs>
                                <path id="ArialMT-39" d="M 350 1059
L 891 1109 
Q 959 728 1153 556 
Q 1347 384 1650 384 
Q 1909 384 2104 503 
Q 2300 622 2425 820 
Q 2550 1019 2634 1356 
Q 2719 1694 2719 2044 
Q 2719 2081 2716 2156 
Q 2547 1888 2255 1720 
Q 1963 1553 1622 1553 
Q 1053 1553 659 1965 
Q 266 2378 266 3053 
Q 266 3750 677 4175 
Q 1088 4600 1706 4600 
Q 2153 4600 2523 4359 
Q 2894 4119 3086 3673 
Q 3278 3228 3278 2384 
Q 3278 1506 3087 986 
Q 2897 466 2520 194 
Q 2144 -78 1638 -78 
Q 1100 -78 759 220 
Q 419 519 350 1059 
z
M 2653 3081 
Q 2653 3566 2395 3850 
Q 2138 4134 1775 4134 
Q 1400 4134 1122 3828 
Q 844 3522 844 3034 
Q 844 2597 1108 2323 
Q 1372 2050 1759 2050 
Q 2150 2050 2401 2323 
Q 2653 2597 2653 3081 
z
" transform="scale(0.015625)"/>
                            </defs>
                            <use xlink:href="#ArialMT-30"/>
                            <use xlink:href="#ArialMT-2e" x="55.615234"/>
                            <use xlink:href="#ArialMT-39" x="83.398438"/>
                        </g>
                    </g>
                </g>
                <g id="ytick_6">
                    <g id="line2d_23">
                        <path d="M 57.6 53.568
L 414.72 53.568 
" clip-path="url(#pb1af9a04ab)" style="fill: none; stroke: #ffffff; stroke-width: 0.8; stroke-linecap: round"/>
                    </g>
                    <g id="line2d_24"/>
                    <g id="text_13">
                        <!-- 1.0 -->
                        <g style="fill: #262626" transform="translate(40.2 57.146906) scale(0.1 -0.1)">
                            <use xlink:href="#ArialMT-31"/>
                            <use xlink:href="#ArialMT-2e" x="55.615234"/>
                            <use xlink:href="#ArialMT-30" x="83.398438"/>
                        </g>
                    </g>
                </g>
                <g id="text_14">
                    <!-- Precision -->
                    <g style="fill: #262626" transform="translate(34.2125 195.091281) rotate(-90) scale(0.1 -0.1)">
                        <defs>
                            <path id="ArialMT-50" d="M 494 0
L 494 4581 
L 2222 4581 
Q 2678 4581 2919 4538 
Q 3256 4481 3484 4323 
Q 3713 4166 3852 3881 
Q 3991 3597 3991 3256 
Q 3991 2672 3619 2267 
Q 3247 1863 2275 1863 
L 1100 1863 
L 1100 0 
L 494 0 
z
M 1100 2403 
L 2284 2403 
Q 2872 2403 3119 2622 
Q 3366 2841 3366 3238 
Q 3366 3525 3220 3729 
Q 3075 3934 2838 4000 
Q 2684 4041 2272 4041 
L 1100 4041 
L 1100 2403 
z
" transform="scale(0.015625)"/>
                            <path id="ArialMT-72" d="M 416 0
L 416 3319 
L 922 3319 
L 922 2816 
Q 1116 3169 1280 3281 
Q 1444 3394 1641 3394 
Q 1925 3394 2219 3213 
L 2025 2691 
Q 1819 2813 1613 2813 
Q 1428 2813 1281 2702 
Q 1134 2591 1072 2394 
Q 978 2094 978 1738 
L 978 0 
L 416 0 
z
" transform="scale(0.015625)"/>
                            <path id="ArialMT-69" d="M 425 3934
L 425 4581 
L 988 4581 
L 988 3934 
L 425 3934 
z
M 425 0 
L 425 3319 
L 988 3319 
L 988 0 
L 425 0 
z
" transform="scale(0.015625)"/>
                            <path id="ArialMT-73" d="M 197 991
L 753 1078 
Q 800 744 1014 566 
Q 1228 388 1613 388 
Q 2000 388 2187 545 
Q 2375 703 2375 916 
Q 2375 1106 2209 1216 
Q 2094 1291 1634 1406 
Q 1016 1563 777 1677 
Q 538 1791 414 1992 
Q 291 2194 291 2438 
Q 291 2659 392 2848 
Q 494 3038 669 3163 
Q 800 3259 1026 3326 
Q 1253 3394 1513 3394 
Q 1903 3394 2198 3281 
Q 2494 3169 2634 2976 
Q 2775 2784 2828 2463 
L 2278 2388 
Q 2241 2644 2061 2787 
Q 1881 2931 1553 2931 
Q 1166 2931 1000 2803 
Q 834 2675 834 2503 
Q 834 2394 903 2306 
Q 972 2216 1119 2156 
Q 1203 2125 1616 2013 
Q 2213 1853 2448 1751 
Q 2684 1650 2818 1456 
Q 2953 1263 2953 975 
Q 2953 694 2789 445 
Q 2625 197 2315 61 
Q 2006 -75 1616 -75 
Q 969 -75 630 194 
Q 291 463 197 991 
z
" transform="scale(0.015625)"/>
                            <path id="ArialMT-6f" d="M 213 1659
Q 213 2581 725 3025 
Q 1153 3394 1769 3394 
Q 2453 3394 2887 2945 
Q 3322 2497 3322 1706 
Q 3322 1066 3130 698 
Q 2938 331 2570 128 
Q 2203 -75 1769 -75 
Q 1072 -75 642 372 
Q 213 819 213 1659 
z
M 791 1659 
Q 791 1022 1069 705 
Q 1347 388 1769 388 
Q 2188 388 2466 706 
Q 2744 1025 2744 1678 
Q 2744 2294 2464 2611 
Q 2184 2928 1769 2928 
Q 1347 2928 1069 2612 
Q 791 2297 791 1659 
z
" transform="scale(0.015625)"/>
                            <path id="ArialMT-6e" d="M 422 0
L 422 3319 
L 928 3319 
L 928 2847 
Q 1294 3394 1984 3394 
Q 2284 3394 2536 3286 
Q 2788 3178 2913 3003 
Q 3038 2828 3088 2588 
Q 3119 2431 3119 2041 
L 3119 0 
L 2556 0 
L 2556 2019 
Q 2556 2363 2490 2533 
Q 2425 2703 2258 2804 
Q 2091 2906 1866 2906 
Q 1506 2906 1245 2678 
Q 984 2450 984 1813 
L 984 0 
L 422 0 
z
" transform="scale(0.015625)"/>
                        </defs>
                        <use xlink:href="#ArialMT-50"/>
                        <use xlink:href="#ArialMT-72" x="66.699219"/>
                        <use xlink:href="#ArialMT-65" x="100"/>
                        <use xlink:href="#ArialMT-63" x="155.615234"/>
                        <use xlink:href="#ArialMT-69" x="205.615234"/>
                        <use xlink:href="#ArialMT-73" x="227.832031"/>
                        <use xlink:href="#ArialMT-69" x="277.832031"/>
                        <use xlink:href="#ArialMT-6f" x="300.048828"/>
                        <use xlink:href="#ArialMT-6e" x="355.664062"/>
                    </g>
                </g>
            </g>
            <g id="line2d_25">
                <path d="M 398.487273 295.488
L 391.555147 295.488 
L 391.482938 210.410394 
L 391.410728 210.410394 
L 391.410728 210.332659 
L 391.338518 205.861443 
L 391.266309 205.861443 
L 391.266309 205.780467 
L 391.194099 203.959627 
L 391.04968 203.959627 
L 390.97747 200.495357 
L 390.90526 200.495357 
L 390.90526 200.410428 
L 390.833051 198.800862 
L 390.472003 198.729595 
L 390.472003 198.698057 
L 390.399793 197.787284 
L 390.327583 197.787284 
L 390.327583 197.700218 
L 390.255374 196.339374 
L 390.110954 196.362412 
L 390.110954 196.274235 
L 390.038745 195.740026 
L 389.822116 195.651346 
L 389.822116 195.641466 
L 389.749906 194.880222 
L 389.461068 194.836695 
L 389.461068 194.803431 
L 389.461068 194.353074 
L 389.316648 194.353074 
L 389.316648 194.286101 
L 389.244439 194.026678 
L 389.100019 193.993041 
L 389.100019 193.959382 
L 389.100019 193.902812 
L 389.02781 193.925702 
L 388.88339 193.835381 
L 388.88339 193.858275 
L 388.88339 193.461393 
L 388.811181 193.484255 
L 388.450133 193.496093 
L 388.450133 193.428208 
L 388.377923 193.223523 
L 387.872456 193.13288 
L 387.872456 193.155778 
L 387.800246 192.950331 
L 387.655827 192.916081 
L 387.655827 192.881809 
L 387.583617 192.675832 
L 387.511407 192.675832 
L 387.511407 192.584152 
L 387.439198 192.43503 
L 387.294778 192.457896 
L 387.294778 192.365987 
L 387.222569 191.871346 
L 387.00594 191.859398 
L 387.00594 191.76695 
L 386.93373 191.616696 
L 386.500472 191.557536 
L 386.500472 191.522553 
L 386.428263 191.371788 
L 386.067214 191.289319 
L 386.067214 191.312165 
L 386.067214 191.138124 
L 385.995005 191.160961 
L 385.706166 191.171441 
L 385.706166 191.078082 
L 385.706166 190.903605 
L 385.633957 190.926445 
L 385.05628 191.028291 
L 384.98407 191.074088 
L 384.98407 191.015813 
L 384.839651 190.922095 
L 384.839651 190.944995 
L 384.839651 190.886649 
L 384.767441 190.90955 
L 384.189764 190.836308 
L 384.189764 190.800751 
L 384.189764 190.683698 
L 384.117554 190.706627 
L 383.900925 190.635342 
L 383.900925 190.599663 
L 383.828716 190.329187 
L 383.756506 190.329187 
L 383.756506 190.23459 
L 383.756506 190.175802 
L 383.684296 190.198711 
L 382.88999 190.231587 
L 382.817781 189.411237 
L 382.528942 189.302114 
L 382.528942 189.325019 
L 382.456732 189.169867 
L 382.384523 189.169867 
L 382.384523 189.073947 
L 382.384523 189.014506 
L 382.312313 189.037397 
L 381.951265 189.129039 
L 381.951265 189.151969 
L 381.951265 188.913855 
L 381.879055 188.936768 
L 381.518007 188.849606 
L 381.518007 188.872539 
L 381.445797 188.776094 
L 381.229169 188.762238 
L 381.229169 188.665638 
L 381.229169 188.605835 
L 381.156959 188.628769 
L 380.94033 188.554957 
L 380.94033 188.518013 
L 380.94033 188.338223 
L 380.001605 188.433673 
L 379.929395 188.479686 
L 379.784976 188.382431 
L 379.784976 188.405445 
L 379.784976 188.04409 
L 379.640556 188.04409 
L 379.640556 187.969424 
L 379.568347 187.871673 
L 379.207299 187.782309 
L 379.207299 187.805303 
L 379.207299 187.744809 
L 379.135089 187.767804 
L 378.91846 187.753284 
L 378.91846 187.715736 
L 378.91846 187.655154 
L 378.84625 187.678162 
L 378.701831 187.640562 
L 378.701831 187.602936 
L 378.629621 187.443882 
L 378.412993 187.429158 
L 378.340783 186.805473 
L 378.124154 186.790378 
L 378.124154 186.752297 
L 378.051944 186.530828 
L 377.763106 186.599709 
L 377.763106 186.439055 
L 377.690896 186.339479 
L 377.546477 186.362438 
L 377.546477 186.262754 
L 377.474267 185.855722 
L 377.402058 185.855722 
L 377.402058 185.755585 
L 377.329848 184.914591 
L 377.257638 184.914591 
L 377.257638 184.813649 
L 377.185429 184.091944 
L 377.041009 184.114696 
L 377.041009 184.013036 
L 376.9688 181.907074 
L 376.89659 181.907074 
L 376.89659 181.803573 
L 376.82438 178.838495 
L 376.752171 178.838495 
L 376.752171 178.732429 
L 376.679961 175.387517 
L 376.318913 175.409306 
L 376.246703 173.545753 
L 376.174494 173.545753 
L 376.174494 173.43507 
L 376.102284 172.660871 
L 376.030074 172.660871 
L 376.030074 172.615892 
L 375.957865 170.631535 
L 375.885655 170.631535 
L 375.885655 170.585549 
L 375.813445 169.797838 
L 375.596817 169.77259 
L 375.596817 169.72614 
L 375.596817 168.300323 
L 375.524607 168.321317 
L 375.452397 168.321317 
L 375.452397 168.274132 
L 375.380188 167.13198 
L 375.307978 167.13198 
L 375.307978 167.084184 
L 375.235768 166.830133 
L 375.163559 166.830133 
L 375.163559 166.782165 
L 375.091349 165.421488 
L 375.019139 165.421488 
L 375.019139 165.372796 
L 374.94693 163.930924 
L 374.802511 163.881462 
L 374.802511 163.831963 
L 374.730301 163.291641 
L 374.658091 163.291641 
L 374.658091 163.241821 
L 374.585882 162.910658 
L 374.369253 162.810549 
L 374.369253 162.830911 
L 374.297043 162.427994 
L 374.224833 162.427994 
L 374.224833 162.377666 
L 374.152624 161.689944 
L 373.430527 161.588007 
L 373.430527 161.60827 
L 373.358318 161.414976 
L 372.997269 161.353433 
L 372.997269 161.373693 
L 372.997269 161.30235 
L 372.92506 161.322609 
L 372.636221 161.312022 
L 372.636221 161.260856 
L 372.636221 161.189385 
L 372.564012 161.209653 
L 372.419592 161.15841 
L 372.419592 161.107129 
L 372.419592 160.820642 
L 372.347383 160.840874 
L 371.553077 160.756272 
L 371.553077 160.77655 
L 371.553077 160.632693 
L 371.480867 160.652959 
L 371.192028 160.569759 
L 371.192028 160.590036 
L 371.119819 160.321826 
L 369.964465 160.264455 
L 369.964465 160.212286 
L 369.964465 160.13977 
L 369.892255 160.160078 
L 369.531207 160.09617 
L 369.531207 160.116496 
L 369.458997 159.918741 
L 369.025739 160.020376 
L 368.95353 160.061085 
L 367.437127 160.028982 
L 367.364918 159.412341 
L 365.920725 159.432436 
L 365.920725 159.305266 
L 365.920725 159.157496 
L 365.848515 159.177948 
L 365.343048 159.152792 
L 365.343048 159.09921 
L 365.343048 159.025113 
L 365.270838 159.045586 
L 364.76537 158.94591 
L 364.76537 158.817787 
L 364.693161 158.838272 
L 364.187693 158.737979 
L 364.187693 158.758488 
L 364.187693 158.683963 
L 364.115484 158.70447 
L 363.104549 158.747591 
L 363.104549 158.618549 
L 363.032339 158.489355 
L 361.804775 158.586476 
L 361.804775 158.689739 
L 361.732566 158.635237 
L 361.443727 158.546773 
L 361.443727 158.56745 
L 361.443727 158.492139 
L 361.371517 158.512814 
L 361.010469 158.520199 
L 361.010469 158.465469 
L 360.938259 158.184089 
L 360.505002 158.287506 
L 360.432792 158.32893 
L 359.710696 158.364175 
L 359.710696 158.157342 
L 359.638486 158.178093 
L 359.421857 158.219622 
L 359.421857 158.08842 
L 359.349647 157.957062 
L 359.277438 157.957062 
L 359.277438 157.901694 
L 359.277438 157.825547 
L 359.205228 157.846282 
L 358.699761 157.742012 
L 358.699761 157.762772 
L 358.699761 157.686415 
L 358.627551 157.707173 
L 358.555341 157.707173 
L 358.555341 157.651529 
L 358.555341 157.575088 
L 358.483132 157.59584 
L 358.410922 157.59584 
L 358.410922 157.540107 
L 358.410922 157.463583 
L 358.338712 157.484329 
L 358.194293 157.428507 
L 358.194293 157.449259 
L 358.194293 157.295992 
L 358.122083 157.316729 
L 357.977664 157.337475 
L 357.977664 157.281516 
L 357.977664 157.204772 
L 357.905455 157.225512 
L 357.616616 157.134112 
L 357.616616 157.154863 
L 357.544406 156.944819 
L 357.399987 156.888545 
L 357.399987 156.909276 
L 357.399987 156.832227 
L 357.327777 156.852954 
L 357.183358 156.87369 
L 357.183358 156.81732 
L 357.111148 156.683717 
L 356.966729 156.627214 
L 356.966729 156.647937 
L 356.966729 156.570665 
L 356.89452 156.591386 
L 356.7501 156.534789 
L 356.7501 156.555515 
L 356.7501 156.400746 
L 356.677891 156.421457 
L 356.316842 156.364723 
L 356.244633 155.691557 
L 356.100214 155.634332 
L 356.100214 155.654973 
L 356.028004 155.285694 
L 355.955794 155.285694 
L 355.955794 155.228201 
L 355.883585 153.916177 
L 355.811375 153.916177 
L 355.811375 153.857893 
L 355.739165 152.535479 
L 355.666956 152.535479 
L 355.666956 152.476393 
L 355.594746 151.860998 
L 355.522536 151.860998 
L 355.522536 151.801503 
L 355.450327 149.175733 
L 355.089279 149.175733 
L 355.017069 148.646648 
L 354.944859 148.646648 
L 354.944859 148.585208 
L 354.87265 147.954782 
L 354.511601 147.870103 
L 354.439392 147.092154 
L 354.367182 147.092154 
L 354.367182 146.947755 
L 354.294973 146.967189 
L 354.222763 146.967189 
L 354.222763 146.904628 
L 354.150553 146.184382 
L 354.078344 146.184382 
L 354.078344 146.121338 
L 354.006134 145.314917 
L 353.933924 145.314917 
L 353.933924 145.251337 
L 353.861715 143.10573 
L 353.500666 143.013563 
L 353.500666 143.032418 
L 353.428457 141.36678 
L 353.284038 141.385373 
L 353.284038 141.319347 
L 353.284038 141.234684 
L 353.211828 141.253265 
L 353.067409 141.253265 
L 353.067409 141.20571 
L 353.067409 140.781463 
L 352.995199 140.799984 
L 352.85078 140.818512 
L 352.85078 140.752049 
L 352.77857 140.430162 
L 352.561941 140.467132 
L 352.561941 140.400392 
L 352.561941 139.973659 
L 352.489731 139.992079 
L 352.417522 139.992079 
L 352.417522 139.925022 
L 352.345312 139.686728 
L 352.200893 139.705114 
L 352.200893 139.637834 
L 352.128683 138.280222 
L 351.984264 138.212057 
L 351.984264 138.230213 
L 351.912054 137.729454 
L 351.406587 137.664624 
L 351.406587 137.682725 
L 351.334377 137.353369 
L 351.045539 137.32056 
L 351.045539 137.251569 
L 350.973329 136.5717 
L 350.395652 136.609975 
L 350.395652 136.540392 
L 350.323442 135.944219 
L 349.745765 135.893519 
L 349.745765 135.911423 
L 349.745765 135.735211 
L 349.673555 135.753093 
L 349.601346 135.753093 
L 349.601346 135.682789 
L 349.601346 135.594556 
L 349.529136 135.612423 
L 348.951459 135.560883 
L 348.951459 135.578782 
L 348.951459 135.490295 
L 348.879249 135.508186 
L 348.518201 135.491226 
L 348.518201 135.420484 
L 348.518201 135.331789 
L 348.445992 135.34968 
L 347.579476 135.280126 
L 347.579476 135.298065 
L 347.579476 135.209012 
L 347.507266 135.226943 
L 346.568541 135.174728 
L 346.568541 135.192715 
L 346.568541 135.103285 
L 346.496331 135.121264 
L 346.063073 135.032112 
L 346.063073 135.050107 
L 345.990864 134.888721 
L 345.774235 134.924688 
L 345.774235 134.852881 
L 345.774235 134.76304 
L 345.702025 134.781012 
L 344.618881 134.672727 
L 344.618881 134.690755 
L 344.618881 134.600458 
L 344.546671 134.618477 
L 344.474461 134.618477 
L 344.474461 134.546135 
L 344.402252 134.292757 
L 344.330042 134.292757 
L 344.330042 134.220173 
L 344.330042 134.12957 
L 344.257832 134.147525 
L 344.041203 134.092766 
L 344.041203 134.110728 
L 344.041203 134.019979 
L 343.968994 134.037933 
L 343.102478 133.962882 
L 343.102478 133.980883 
L 343.102478 133.88976 
L 343.030269 133.907753 
L 342.885849 133.834558 
L 342.885849 133.852551 
L 342.885849 133.761297 
L 341.730495 133.761297 
L 341.730495 133.316395 
L 340.936189 133.312422 
L 340.936189 133.238295 
L 340.936189 133.053857 
L 340.863979 133.071844 
L 340.64735 133.107843 
L 340.64735 133.033506 
L 340.64735 132.941115 
L 340.575141 132.959102 
L 338.986529 133.060162 
L 338.986529 133.078277 
L 338.986529 132.985328 
L 338.914319 133.003435 
L 338.408852 132.925986 
L 338.408852 132.944117 
L 338.408852 132.477623 
L 338.336642 132.495676 
L 337.470126 132.601172 
L 337.397917 132.63745 
L 337.325707 132.63745 
L 337.325707 132.561873 
L 337.325707 132.468101 
L 337.253497 132.486226 
L 336.67582 132.425385 
L 336.67582 132.443543 
L 336.67582 132.349484 
L 336.60361 132.367632 
L 336.098143 132.476698 
L 336.025933 132.51312 
L 336.025933 132.324557 
L 334.437321 132.234262 
L 334.437321 132.252539 
L 334.437321 132.062584 
L 334.365112 132.080835 
L 334.148483 132.022263 
L 334.148483 132.040521 
L 334.148483 131.850158 
L 334.076273 131.868388 
L 333.570806 131.97795 
L 333.498596 132.014539 
L 332.487661 131.966134 
L 332.487661 131.984499 
L 332.487661 131.888702 
L 332.415451 131.907057 
L 331.548936 132.013471 
L 331.476726 132.05036 
L 330.826839 132.101977 
L 330.826839 131.638271 
L 330.75463 131.656697 
L 330.249162 131.670726 
L 330.249162 131.592421 
L 330.176952 131.32023 
L 329.960324 131.260049 
L 329.960324 131.27846 
L 329.960324 131.181383 
L 329.888114 131.199783 
L 329.815904 131.199783 
L 329.815904 131.121032 
L 329.815904 131.023826 
L 329.743695 131.042207 
L 328.804969 130.970827 
L 328.804969 130.989265 
L 328.804969 130.891611 
L 328.73276 130.910039 
L 327.866244 131.015399 
L 327.794034 131.052437 
L 327.649615 131.07097 
L 327.649615 130.99146 
L 327.649615 130.893361 
L 327.577405 130.911874 
L 327.288567 130.869242 
L 327.288567 130.88777 
L 327.288567 130.592766 
L 327.216357 130.611246 
L 327.071938 130.531267 
L 327.071938 130.549745 
L 327.071938 130.451211 
L 326.999728 130.469679 
L 326.71089 130.426479 
L 326.71089 130.444963 
L 326.63868 129.969258 
L 325.988793 129.881578 
L 325.988793 129.936864 
L 325.988793 129.837611 
L 325.916584 129.856038 
L 324.61681 129.771758 
L 324.61681 129.790268 
L 324.61681 129.590484 
L 324.5446 129.608963 
L 324.255762 129.564409 
L 324.255762 129.582904 
L 324.255762 129.482792 
L 324.183552 129.501276 
L 324.111343 129.501276 
L 324.111343 129.419568 
L 324.111343 128.817333 
L 324.039133 128.835696 
L 323.966923 128.835696 
L 323.966923 128.753483 
L 323.966923 128.65285 
L 323.894714 128.67119 
L 323.678085 128.607155 
L 323.678085 128.625502 
L 323.605875 128.139203 
L 321.872844 128.092881 
L 321.800634 127.47826 
L 321.584005 127.514795 
L 321.584005 127.430872 
L 321.511796 126.937259 
L 321.439586 126.937259 
L 321.439586 126.852883 
L 321.367376 125.945617 
L 321.295167 125.945617 
L 321.295167 125.963599 
L 321.222957 125.362081 
L 321.078538 125.276501 
L 321.078538 125.294361 
L 321.006328 125.190835 
L 321.006328 125.208683 
L 320.934118 125.208683 
L 320.934118 125.12292 
L 320.861909 124.829529 
L 320.789699 124.829529 
L 320.789699 124.743448 
L 320.789699 124.014904 
L 320.717489 124.032529 
L 320.64528 124.032529 
L 320.64528 123.945834 
L 320.64528 123.109315 
L 320.428651 123.109315 
L 320.428651 123.056813 
L 320.356441 122.127889 
L 320.284232 122.127889 
L 320.284232 122.039711 
L 320.212022 119.82992 
L 320.139812 119.82992 
L 320.139812 119.740041 
L 320.067603 119.115558 
L 319.995393 119.115558 
L 319.995393 119.02511 
L 319.995393 118.381436 
L 319.923183 118.397924 
L 319.850974 118.397924 
L 319.850974 118.306904 
L 319.850974 118.199332 
L 319.634345 118.199332 
L 319.634345 118.141037 
L 319.562135 117.401925 
L 319.489926 117.401925 
L 319.489926 117.310047 
L 319.417716 116.567341 
L 319.201087 116.599615 
L 319.201087 116.507043 
L 319.128877 115.978615 
L 318.984458 115.994638 
L 318.984458 115.901542 
L 318.912248 114.93266 
L 318.767829 114.948468 
L 318.767829 114.85452 
L 318.69562 113.54844 
L 318.5512 113.453403 
L 318.5512 113.468901 
L 318.5512 113.136829 
L 318.190152 113.056847 
L 318.117942 112.562955 
L 317.973523 112.578286 
L 317.973523 112.482275 
L 317.973523 112.370867 
L 317.901313 112.386164 
L 317.323636 112.381802 
L 317.323636 112.285389 
L 317.251427 112.076982 
L 316.890379 112.026085 
L 316.890379 112.041368 
L 316.818169 111.83228 
L 316.67375 111.735225 
L 316.67375 111.750456 
L 316.67375 111.638068 
L 316.60154 111.653282 
L 316.023863 111.76 
L 315.951653 111.790563 
L 315.590605 111.738982 
L 315.590605 111.754282 
L 315.518395 111.543701 
L 315.012928 111.522222 
L 315.012928 111.537509 
L 315.012928 111.424235 
L 314.940718 111.439505 
L 314.796299 111.454782 
L 314.796299 111.356656 
L 314.796299 111.243185 
L 314.724089 111.258427 
L 314.50746 111.175325 
L 314.50746 111.190565 
L 314.50746 110.963114 
L 314.435251 110.97831 
L 313.713154 110.887221 
L 313.713154 110.902445 
L 313.713154 110.78822 
L 313.640945 110.803426 
L 313.135477 110.894832 
L 313.135477 110.795597 
L 313.063268 110.581612 
L 312.124542 110.53443 
L 312.124542 110.549674 
L 312.124542 110.319261 
L 312.052333 110.33446 
L 311.691284 110.279902 
L 311.691284 110.295114 
L 311.619075 109.847766 
L 310.102672 109.802523 
L 310.102672 109.817726 
L 310.102672 109.701169 
L 310.030463 109.716352 
L 308.008593 109.77706 
L 308.008593 109.674779 
L 308.008593 109.557101 
L 307.936383 109.572386 
L 307.358706 109.56165 
L 307.358706 109.576973 
L 307.358706 109.458915 
L 307.286496 109.474219 
L 306.853238 109.432573 
L 306.853238 109.447899 
L 306.853238 109.211063 
L 306.781029 109.226341 
L 306.63661 109.123055 
L 306.63661 109.138321 
L 306.63661 109.019655 
L 306.5644 109.034901 
L 304.975788 109.007626 
L 304.975788 108.65513 
L 304.61474 108.59635 
L 304.61474 108.611623 
L 304.54253 108.491625 
L 304.54253 108.506877 
L 304.398111 108.522138 
L 304.398111 108.417255 
L 304.398111 108.297035 
L 304.325901 108.312255 
L 303.892643 108.268017 
L 303.892643 108.283258 
L 303.892643 108.1627 
L 303.820434 108.17792 
L 302.665079 108.164983 
L 302.665079 108.18028 
L 302.665079 108.059017 
L 302.59287 108.074294 
L 302.087402 108.044593 
L 302.087402 108.0599 
L 302.087402 107.816556 
L 302.015192 107.831812 
L 300.932048 107.801774 
L 300.932048 107.817098 
L 300.932048 107.694705 
L 300.859838 107.710008 
L 300.065532 107.617851 
L 300.065532 107.633189 
L 300.065532 107.510222 
L 299.993323 107.525537 
L 299.632274 107.463698 
L 299.632274 107.479026 
L 299.632274 107.355736 
L 299.560065 107.371042 
L 298.982388 107.478434 
L 298.910178 107.509196 
L 297.971453 107.446354 
L 297.971453 107.461792 
L 297.971453 107.337578 
L 297.899243 107.352993 
L 297.754824 107.368418 
L 297.754824 107.259472 
L 297.754824 107.135021 
L 297.682614 107.1504 
L 297.104937 107.258305 
L 297.104937 107.273756 
L 297.104937 107.148951 
L 297.032727 107.164378 
L 296.45505 107.272623 
L 296.382841 107.30363 
L 295.516325 107.34927 
L 295.516325 107.239208 
L 295.516325 107.113488 
L 295.444115 107.129017 
L 294.288761 107.236738 
L 294.216551 107.268032 
L 293.638874 107.377848 
L 293.566665 107.409307 
L 293.350036 107.314001 
L 293.350036 107.32973 
L 293.350036 107.202823 
L 293.277826 107.218528 
L 292.122472 107.327716 
L 292.050262 107.359368 
L 291.472585 107.470441 
L 291.400375 107.502261 
L 291.111537 107.422018 
L 291.111537 107.437937 
L 291.111537 107.309786 
L 291.039327 107.325681 
L 290.606069 107.276872 
L 290.606069 107.29279 
L 290.606069 107.164254 
L 290.53386 107.180148 
L 290.028392 107.146866 
L 290.028392 107.162794 
L 290.028392 107.033836 
L 289.956182 107.049739 
L 289.450715 107.145356 
L 289.378505 107.177305 
L 288.800828 107.15985 
L 288.800828 107.175871 
L 288.800828 106.916422 
L 288.728619 106.932385 
L 288.223151 107.028364 
L 288.150941 107.060433 
L 287.934313 107.092542 
L 287.934313 107.10861 
L 287.934313 106.848029 
L 287.862103 106.864039 
L 286.706749 106.974383 
L 286.634539 107.006652 
L 285.984652 106.956215 
L 285.984652 106.626182 
L 285.912443 106.64228 
L 285.840233 106.64228 
L 285.840233 106.658387 
L 285.840233 106.526576 
L 285.768023 106.542658 
L 285.262556 106.639356 
L 285.262556 106.655507 
L 285.262556 106.523334 
L 285.190346 106.539459 
L 284.684879 106.503915 
L 284.684879 106.520073 
L 284.684879 106.387455 
L 284.612669 106.403588 
L 284.39604 106.303077 
L 284.39604 106.319204 
L 284.39604 106.18628 
L 284.32383 106.202381 
L 283.240686 106.161666 
L 283.240686 106.177844 
L 283.240686 106.0441 
L 283.168476 106.060251 
L 282.807428 106.124957 
L 282.807428 106.007114 
L 282.735218 105.75488 
L 282.229751 105.851701 
L 282.157541 105.884055 
L 281.074397 105.8413 
L 281.074397 105.85756 
L 281.074397 105.722218 
L 281.002187 105.73845 
L 280.641139 105.667868 
L 280.641139 105.684114 
L 280.568929 105.292803 
L 280.063462 105.389878 
L 279.991252 105.422317 
L 279.557994 105.503594 
L 279.557994 105.383328 
L 279.557994 105.246691 
L 279.485785 105.262911 
L 278.980317 105.295383 
L 278.908107 104.431778 
L 278.763688 104.447824 
L 278.763688 104.326132 
L 278.763688 104.188298 
L 278.691478 104.204287 
L 278.619269 104.204287 
L 278.619269 104.220286 
L 278.547059 103.960134 
L 278.47485 103.960134 
L 278.47485 103.976076 
L 278.47485 103.837826 
L 278.40264 103.853739 
L 278.258221 103.869663 
L 278.258221 103.747142 
L 278.258221 103.6086 
L 277.824963 103.549206 
L 277.824963 103.565083 
L 277.824963 103.426131 
L 277.752753 103.441979 
L 277.536124 103.334548 
L 277.536124 103.350387 
L 277.536124 103.211102 
L 277.463915 103.226911 
L 277.391705 103.226911 
L 277.391705 103.242731 
L 277.391705 102.824106 
L 277.319495 102.839818 
L 276.886237 102.918526 
L 276.886237 102.794301 
L 276.886237 102.654214 
L 276.814028 102.669917 
L 276.741818 102.669917 
L 276.741818 102.685629 
L 276.741818 102.405027 
L 276.669609 102.42067 
L 276.597399 102.42067 
L 276.597399 102.436323 
L 276.597399 102.155201 
L 276.525189 102.170784 
L 276.45298 102.170784 
L 276.45298 102.186376 
L 276.45298 101.904733 
L 276.38077 101.920255 
L 276.30856 101.920255 
L 276.30856 101.935788 
L 276.30856 101.653621 
L 276.236351 101.669083 
L 276.091931 101.684554 
L 276.091931 101.558695 
L 276.091931 101.27574 
L 276.019722 101.29111 
L 275.658674 101.29111 
L 275.658674 101.226249 
L 275.586464 100.957563 
L 275.514254 100.957563 
L 275.514254 100.97288 
L 275.442045 100.56116 
L 275.297625 100.576373 
L 275.297625 100.591596 
L 275.225416 99.176087 
L 273.709013 99.176087 
L 273.709013 97.458267 
L 273.636804 97.472699 
L 273.564594 97.472699 
L 273.564594 97.487142 
L 273.492384 96.917285 
L 273.420175 96.917285 
L 273.420175 96.931572 
L 273.347965 96.212877 
L 273.275755 96.212877 
L 273.275755 96.226965 
L 273.275755 96.080032 
L 273.203546 96.094086 
L 273.131336 96.094086 
L 273.131336 96.108149 
L 273.059126 95.237785 
L 272.986917 95.237785 
L 272.986917 95.251601 
L 272.914707 94.228504 
L 272.842498 94.228504 
L 272.842498 94.242026 
L 272.770288 93.958226 
L 272.553659 93.958226 
L 272.553659 93.849654 
L 272.481449 92.217566 
L 272.26482 92.243453 
L 272.26482 92.25641 
L 272.26482 92.106078 
L 272.192611 92.118997 
L 272.120401 92.118997 
L 272.120401 92.131925 
L 272.048192 91.390995 
L 271.614934 91.429162 
L 271.614934 91.16459 
L 271.470514 91.16459 
L 271.470514 90.88653 
L 271.398305 90.899124 
L 271.326095 90.899124 
L 271.326095 90.911728 
L 271.326095 90.759774 
L 271.253885 90.772339 
L 271.181676 90.772339 
L 271.181676 90.784912 
L 271.181676 90.480508 
L 271.109466 90.492996 
L 269.520854 90.603791 
L 269.520854 90.616418 
L 269.520854 90.462861 
L 269.448644 90.475448 
L 269.376435 90.475448 
L 269.376435 90.488045 
L 269.376435 90.334287 
L 269.232016 90.334287 
L 269.232016 90.359409 
L 269.159806 90.063861 
L 267.787823 90.134822 
L 267.787823 89.992162 
L 267.787823 89.836802 
L 267.715613 89.849304 
L 267.065726 89.949633 
L 266.993517 89.974801 
L 265.838162 90.007925 
L 265.838162 90.020604 
L 265.838162 89.863686 
L 265.765953 89.876324 
L 265.332695 89.939645 
L 265.332695 89.794956 
L 265.332695 89.637466 
L 265.260485 89.650064 
L 264.755018 89.725841 
L 264.755018 89.580495 
L 264.755018 89.422378 
L 264.682808 89.434945 
L 264.32176 89.326819 
L 264.32176 89.339379 
L 264.32176 89.180733 
L 263.671873 89.281121 
L 263.599664 89.306307 
L 262.949777 89.407405 
L 262.877567 89.432769 
L 262.22768 89.534586 
L 262.155471 89.56013 
L 261.433374 89.514743 
L 261.433374 89.527558 
L 261.433374 89.366603 
L 261.361165 89.379374 
L 259.916972 89.29939 
L 259.916972 89.312238 
L 259.916972 88.987277 
L 259.844762 89.000027 
L 259.194875 89.102357 
L 259.122666 89.128032 
L 259.050456 89.128032 
L 259.050456 89.140884 
L 259.050456 88.977578 
L 258.978247 88.990384 
L 257.028586 89.016025 
L 257.028586 88.348096 
L 256.956377 88.360832 
L 256.30649 88.463051 
L 256.23428 88.4887 
L 256.23428 88.322392 
L 255.945442 88.360766 
L 255.945442 88.373576 
L 255.945442 88.20692 
L 255.873232 88.219683 
L 255.223345 88.322127 
L 255.151136 88.347833 
L 254.934507 88.373576 
L 254.934507 88.386463 
L 254.934507 88.218885 
L 254.862297 88.231723 
L 254.717878 88.244571 
L 254.717878 88.257429 
L 254.645668 88.089555 
L 254.645668 88.102364 
L 253.995781 88.205183 
L 253.923572 88.230984 
L 253.706943 88.256823 
L 253.706943 88.269757 
L 253.634733 87.94484 
L 253.490314 87.957677 
L 253.490314 87.970523 
L 253.490314 87.801287 
L 253.418104 87.814085 
L 252.840427 87.734104 
L 252.840427 87.746919 
L 252.768217 87.419462 
L 252.118331 87.521462 
L 252.046121 87.547059 
L 252.046121 87.376131 
L 251.396234 87.478425 
L 251.324025 87.504096 
L 250.674138 87.607167 
L 250.601928 87.633032 
L 249.952041 87.736889 
L 249.879832 87.762952 
L 249.590993 87.802122 
L 249.590993 87.815198 
L 249.590993 87.642087 
L 249.518784 87.655113 
L 248.868897 87.759674 
L 248.796687 87.785915 
L 248.1468 87.891282 
L 248.074591 87.917725 
L 248.002381 87.917725 
L 248.002381 87.930962 
L 248.002381 87.581625 
L 247.930171 87.594748 
L 247.785752 87.607881 
L 247.785752 87.621023 
L 247.713543 87.2838 
L 247.569123 87.296838 
L 247.569123 87.309886 
L 247.569123 87.134369 
L 247.496914 87.147364 
L 245.908302 87.245555 
L 245.836092 87.271876 
L 245.619463 87.298238 
L 245.619463 87.311434 
L 245.619463 87.133926 
L 245.547253 87.147068 
L 245.402834 87.160221 
L 245.402834 87.173384 
L 245.402834 86.995543 
L 245.330624 87.008652 
L 245.258415 87.008652 
L 245.258415 86.843661 
L 245.186205 86.856726 
L 244.24748 86.835208 
L 244.24748 86.848342 
L 244.24748 86.669038 
L 244.17527 86.682116 
L 244.10306 86.682116 
L 244.10306 86.695205 
L 244.10306 86.515627 
L 244.030851 86.528661 
L 243.380964 86.633298 
L 243.380964 86.646424 
L 243.380964 86.10485 
L 243.308754 86.117788 
L 242.658868 86.221656 
L 242.586658 86.247727 
L 241.936771 86.352428 
L 241.864562 86.378708 
L 241.720142 86.378708 
L 241.720142 86.40503 
L 241.720142 86.22267 
L 241.647933 86.235779 
L 241.359094 86.275169 
L 241.359094 86.288321 
L 241.359094 86.105474 
L 241.286885 86.118567 
L 241.142465 86.131671 
L 241.142465 86.144786 
L 241.142465 85.778239 
L 241.070256 85.791227 
L 240.420369 85.895509 
L 240.348159 85.921686 
L 239.698272 86.026815 
L 239.698272 86.040005 
L 239.698272 85.855124 
L 239.626063 85.868254 
L 238.976176 85.973681 
L 238.903966 86.000146 
L 238.687337 86.013394 
L 238.687337 85.853909 
L 238.615128 85.867119 
L 237.893031 85.799622 
L 237.893031 85.81287 
L 237.893031 85.625768 
L 237.820822 85.638955 
L 237.170935 85.744843 
L 237.098725 85.771425 
L 236.448839 85.878191 
L 236.376629 85.904993 
L 236.304419 85.904993 
L 236.304419 85.729566 
L 236.23221 85.742922 
L 235.582323 85.850172 
L 235.510113 85.877096 
L 235.221275 85.917567 
L 235.221275 85.93108 
L 235.221275 85.740977 
L 235.149065 85.754428 
L 235.076855 85.754428 
L 235.076855 85.767889 
L 235.076855 85.57748 
L 235.004646 85.590879 
L 234.354759 85.507235 
L 234.354759 85.52066 
L 234.354759 85.329186 
L 234.282549 85.342548 
L 233.488243 85.396108 
L 233.416034 85.503772 
L 232.766147 85.612167 
L 232.693937 85.63938 
L 232.04405 85.748699 
L 231.971841 85.776145 
L 231.755212 85.803638 
L 231.755212 85.817403 
L 231.755212 85.623029 
L 231.683002 85.636728 
L 231.033115 85.74674 
L 230.960906 85.774362 
L 230.311019 85.885322 
L 230.238809 85.913182 
L 229.661132 85.99705 
L 229.661132 86.025103 
L 229.588923 85.645205 
L 229.011246 85.742747 
L 228.939036 85.770725 
L 228.361359 85.869032 
L 228.289149 85.89723 
L 228.289149 85.698563 
L 227.711472 85.797079 
L 227.639262 85.825338 
L 227.061585 85.924635 
L 226.989376 85.953118 
L 226.411698 86.053205 
L 226.339489 86.081914 
L 225.761812 86.1828 
L 225.689602 86.211739 
L 225.111925 86.313433 
L 225.039715 86.342605 
L 224.895296 86.357211 
L 224.895296 86.371829 
L 224.895296 86.16912 
L 224.823086 86.183667 
L 224.245409 86.285865 
L 224.1732 86.315182 
L 223.378894 86.359256 
L 223.378894 85.862804 
L 223.234474 85.862804 
L 223.234474 85.686554 
L 223.162265 85.701061 
L 223.017845 85.715582 
L 223.017845 85.730115 
L 222.945636 85.332618 
L 222.367959 85.433596 
L 222.295749 85.462565 
L 222.223539 85.462565 
L 222.223539 85.477069 
L 222.223539 85.062532 
L 222.15133 85.076873 
L 221.573653 85.177633 
L 221.501443 85.206539 
L 221.284814 85.235499 
L 221.284814 85.249999 
L 221.284814 85.041297 
L 221.212604 85.055721 
L 220.779346 85.099073 
L 220.779346 84.933025 
L 220.707137 84.947452 
L 220.562718 84.961893 
L 220.562718 84.976347 
L 220.562718 84.766366 
L 220.490508 84.780743 
L 219.912831 84.881755 
L 219.840621 84.910736 
L 219.262944 84.983423 
L 219.262944 85.027197 
L 219.262944 84.815385 
L 219.190734 84.829912 
L 218.613057 84.93198 
L 218.613057 84.946616 
L 218.613057 84.733778 
L 218.03538 84.83596 
L 218.03538 84.850613 
L 217.96317 84.437329 
L 217.890961 84.437329 
L 217.890961 84.451821 
L 217.818751 83.60726 
L 217.746542 83.60726 
L 217.746542 83.621403 
L 217.746542 83.406035 
L 217.674332 83.420097 
L 217.457703 83.448259 
L 217.457703 83.46236 
L 217.457703 82.813895 
L 217.168864 82.813895 
L 217.168864 82.435184 
L 217.096655 82.448872 
L 216.952236 82.462572 
L 216.952236 82.476286 
L 216.880026 82.054313 
L 216.735607 82.067859 
L 216.735607 82.081417 
L 216.735607 81.863062 
L 216.663397 81.876535 
L 216.591187 81.876535 
L 216.591187 81.890022 
L 216.591187 81.671263 
L 216.518978 81.684665 
L 216.446768 81.684665 
L 216.446768 81.698079 
L 216.446768 81.478916 
L 216.374558 81.492245 
L 216.157929 81.505586 
L 216.157929 81.532308 
L 216.157929 81.312541 
L 216.08572 81.325822 
L 215.796881 81.365742 
L 215.796881 81.379074 
L 215.724672 80.508855 
L 215.508043 80.521813 
L 215.508043 80.547768 
L 215.508043 80.104107 
L 215.435833 80.116902 
L 215.363623 80.116902 
L 215.363623 80.129709 
L 215.291414 79.697404 
L 215.219204 79.697404 
L 215.219204 79.710033 
L 215.219204 78.816791 
L 214.930366 78.816791 
L 214.858156 77.979304 
L 214.497108 78.026889 
L 214.497108 78.038815 
L 214.424898 77.372498 
L 214.13606 77.395778 
L 214.06385 77.192157 
L 214.06385 77.203732 
L 213.919431 77.215318 
L 213.919431 77.226916 
L 213.919431 76.771718 
L 213.847221 76.783114 
L 213.125125 76.886191 
L 213.052915 76.909221 
L 212.330819 77.013423 
L 212.258609 77.036705 
L 211.825351 77.095114 
L 211.825351 77.106831 
L 211.825351 76.87577 
L 211.753141 76.887389 
L 211.608722 76.89902 
L 211.608722 76.910662 
L 211.536512 76.458624 
L 210.814416 76.562045 
L 210.742206 76.585155 
L 210.09232 76.67806 
L 210.09232 76.689726 
L 210.09232 76.455303 
L 210.02011 76.466868 
L 209.659062 76.513246 
L 209.659062 76.52487 
L 209.659062 76.289532 
L 209.586852 76.301054 
L 209.225804 76.347259 
L 209.225804 76.35884 
L 209.225804 76.12258 
L 209.153594 76.134058 
L 208.503708 76.226306 
L 208.503708 76.23789 
L 208.503708 76.000238 
L 208.431498 76.011719 
L 208.214869 76.034714 
L 208.214869 76.04623 
L 208.214869 75.807871 
L 208.142659 75.819282 
L 207.92603 75.842139 
L 207.92603 75.853585 
L 207.92603 75.614514 
L 207.853821 75.625855 
L 207.348353 75.694146 
L 207.348353 75.705568 
L 207.348353 75.46531 
L 207.276144 75.476626 
L 206.554047 75.579003 
L 206.481838 75.601884 
L 205.759741 75.705437 
L 205.687532 75.728581 
L 205.398693 75.763388 
L 205.398693 75.775015 
L 205.398693 75.287264 
L 205.326483 75.298659 
L 204.604387 75.401756 
L 204.532177 75.4248 
L 203.810081 75.529101 
L 203.737871 75.552414 
L 203.521242 75.575777 
L 203.521242 75.587477 
L 203.449033 75.103719 
L 202.871356 75.184291 
L 202.871356 75.19585 
L 202.871356 74.697295 
L 202.799146 74.708613 
L 202.077049 74.811016 
L 202.00484 74.833907 
L 201.282743 74.937531 
L 201.210534 74.960696 
L 200.488437 75.065562 
L 200.416228 75.089005 
L 200.344018 75.089005 
L 200.344018 75.100746 
L 200.344018 74.846518 
L 200.271808 74.85814 
L 199.91076 74.904752 
L 199.91076 74.916437 
L 199.91076 74.661133 
L 199.838551 74.672697 
L 198.827616 74.707466 
L 198.827616 73.026692 
L 198.03331 73.135217 
L 198.03331 73.146137 
L 198.03331 72.884998 
L 197.9611 72.895789 
L 197.88889 72.895789 
L 197.88889 72.906593 
L 197.88889 72.644882 
L 197.816681 72.655557 
L 197.022375 72.762972 
L 196.950165 72.7846 
L 196.155859 72.893476 
L 196.083649 72.915399 
L 195.289343 73.025767 
L 195.217134 73.047991 
L 194.495037 73.148634 
L 194.422828 73.171141 
L 193.700731 73.273063 
L 193.628522 73.295857 
L 193.411893 73.318703 
L 193.411893 73.330146 
L 193.411893 73.059123 
L 193.339683 73.070429 
L 192.617587 73.172774 
L 192.545377 73.195663 
L 191.82328 73.29933 
L 191.751071 73.322516 
L 191.028974 73.427531 
L 190.956765 73.45102 
L 190.234668 73.557409 
L 190.162459 73.581206 
L 189.440362 73.688997 
L 189.368153 73.713109 
L 189.223733 73.725186 
L 189.223733 73.737278 
L 189.223733 73.456901 
L 189.151524 73.468846 
L 188.429427 73.577003 
L 188.357218 73.601198 
L 187.85175 73.674134 
L 187.85175 73.686342 
L 187.85175 73.402527 
L 187.779541 73.414584 
L 187.057444 73.523764 
L 186.985235 73.54819 
L 186.263138 73.65885 
L 186.190929 73.683607 
L 186.190929 73.395591 
L 185.90209 73.432331 
L 185.90209 73.444609 
L 185.90209 73.155554 
L 185.82988 73.167675 
L 185.468832 73.216309 
L 185.468832 73.228506 
L 185.468832 72.93806 
L 185.396622 72.950098 
L 184.602316 73.059123 
L 184.530107 73.095737 
L 184.530107 72.802661 
L 183.80801 72.911742 
L 183.735801 72.93615 
L 183.013704 73.046755 
L 182.941495 73.071506 
L 182.291608 73.171141 
L 182.219398 73.196209 
L 181.569511 73.297125 
L 181.497302 73.322516 
L 180.919625 73.411903 
L 180.919625 73.424739 
L 180.919625 73.122201 
L 180.847415 73.134865 
L 180.197528 73.236776 
L 180.125319 73.26242 
L 179.90869 73.288131 
L 179.90869 73.301011 
L 179.83648 72.701956 
L 179.547642 72.739596 
L 179.547642 72.752176 
L 179.475432 72.149281 
L 178.753335 72.259884 
L 178.681126 72.284641 
L 178.536707 72.297044 
L 178.536707 72.309464 
L 178.536707 71.998557 
L 178.464497 72.010795 
L 177.88682 72.096919 
L 177.88682 72.109288 
L 177.88682 71.796171 
L 177.81461 71.808356 
L 177.670191 71.820556 
L 177.670191 71.832774 
L 177.670191 71.518632 
L 177.597981 71.530663 
L 177.309143 71.566854 
L 177.309143 71.57895 
L 177.236933 71.26337 
L 177.236933 71.275278 
L 176.948094 71.311099 
L 176.948094 71.323071 
L 176.948094 71.00604 
L 176.875885 71.017823 
L 176.153788 71.124586 
L 176.081579 71.148489 
L 175.359482 71.256861 
L 175.287273 71.281126 
L 174.565176 71.391145 
L 174.492967 71.41578 
L 173.84308 71.515003 
L 173.77087 71.539982 
L 173.120984 71.640595 
L 173.048774 71.665924 
L 172.398887 71.767956 
L 172.326677 71.793644 
L 171.676791 71.897125 
L 171.604581 71.92318 
L 170.954694 72.028141 
L 170.954694 72.041346 
L 170.449227 72.120972 
L 170.449227 72.13431 
L 170.377017 71.797108 
L 170.377017 71.810232 
L 169.79934 71.902631 
L 169.79934 71.915907 
L 169.79934 71.576103 
L 169.72713 71.589161 
L 169.077244 71.694318 
L 169.077244 71.707549 
L 169.077244 71.364862 
L 169.005034 71.377871 
L 168.355147 71.482635 
L 168.282938 71.509019 
L 167.994099 71.548741 
L 167.994099 71.56202 
L 167.994099 71.215173 
L 167.921889 71.228226 
L 167.272003 71.333346 
L 167.199793 71.359822 
L 166.549906 71.46652 
L 166.477697 71.493394 
L 165.82781 71.601705 
L 165.7556 71.628987 
L 165.105713 71.738948 
L 165.033504 71.766647 
L 164.672456 71.822301 
L 164.672456 71.836267 
L 164.672456 71.477148 
L 164.600246 71.490872 
L 163.950359 71.601421 
L 163.878149 71.629272 
L 163.300472 71.727431 
L 163.228263 71.755673 
L 162.650586 71.855214 
L 162.578376 71.883855 
L 162.000699 71.984809 
L 161.928489 72.013858 
L 161.350812 72.116253 
L 161.278602 72.145718 
L 160.700925 72.249587 
L 160.628716 72.279478 
L 160.051038 72.384852 
L 159.978829 72.415178 
L 159.401152 72.52209 
L 159.328942 72.55286 
L 158.751265 72.661345 
L 158.679055 72.692569 
L 158.101378 72.802661 
L 158.029169 72.834349 
L 157.523701 72.930042 
L 157.451491 72.962152 
L 156.657185 73.042894 
L 156.657185 72.748963 
L 156.584976 72.76504 
L 156.079508 72.862077 
L 156.007299 72.894641 
L 155.501831 72.992995 
L 155.429621 73.026003 
L 154.924154 73.125702 
L 154.851944 73.159163 
L 154.346477 73.260235 
L 154.274267 73.294158 
L 153.985429 73.328198 
L 153.985429 73.362355 
L 153.985429 72.957958 
L 153.913219 72.974746 
L 153.407752 73.076086 
L 153.335542 73.110102 
L 152.830074 73.212865 
L 152.757865 73.24736 
L 152.396817 73.316715 
L 152.396817 73.33413 
L 152.324607 72.921498 
L 152.324607 72.938595 
L 151.819139 73.041813 
L 151.74693 73.076464 
L 151.241462 73.18116 
L 151.169253 73.216309 
L 150.519366 73.322516 
L 150.447156 73.393961 
L 150.086108 73.465925 
L 150.086108 73.059123 
L 150.013898 73.076858 
L 149.508431 73.183952 
L 149.436221 73.219911 
L 149.147383 73.274098 
L 149.147383 73.292227 
L 149.147383 72.861699 
L 149.075173 72.879481 
L 148.569706 72.986867 
L 148.497496 73.022928 
L 73.832727 73.077271 
L 73.832727 53.568 
L 73.832727 53.568 
" clip-path="url(#pb1af9a04ab)" style="fill: none; stroke: #1f77b4; stroke-width: 1.5; stroke-linecap: round"/>
            </g>
            <g id="patch_3">
                <path d="M 57.6 307.584
L 57.6 41.472 
" style="fill: none"/>
            </g>
            <g id="patch_4">
                <path d="M 414.72 307.584
L 414.72 41.472 
" style="fill: none"/>
            </g>
            <g id="patch_5">
                <path d="M 57.6 307.584
L 414.72 307.584 
" style="fill: none"/>
            </g>
            <g id="patch_6">
                <path d="M 57.6 41.472
L 414.72 41.472 
" style="fill: none"/>
            </g>
        </g>
    </g>
    <defs>
        <clipPath id="pb1af9a04ab">
            <rect x="57.6" y="41.472" width="357.12" height="266.112"/>
        </clipPath>
    </defs>
</svg>
