<?xml version="1.0" encoding="utf-8" standalone="no"?>
<!DOCTYPE svg PUBLIC "-//W3C//DTD SVG 1.1//EN"
  "http://www.w3.org/Graphics/SVG/1.1/DTD/svg11.dtd">
<svg xmlns:xlink="http://www.w3.org/1999/xlink" width="460.8pt" height="345.6pt" viewBox="0 0 460.8 345.6" xmlns="http://www.w3.org/2000/svg" version="1.1">
 <metadata>
  <rdf:RDF xmlns:dc="http://purl.org/dc/elements/1.1/" xmlns:cc="http://creativecommons.org/ns#" xmlns:rdf="http://www.w3.org/1999/02/22-rdf-syntax-ns#">
   <cc:Work>
    <dc:type rdf:resource="http://purl.org/dc/dcmitype/StillImage"/>
    <dc:date>2022-11-30T02:09:35.309522</dc:date>
    <dc:format>image/svg+xml</dc:format>
    <dc:creator>
     <cc:Agent>
      <dc:title>Matplotlib v3.6.2, https://matplotlib.org/</dc:title>
     </cc:Agent>
    </dc:creator>
   </cc:Work>
  </rdf:RDF>
 </metadata>
 <defs>
  <style type="text/css">*{stroke-linejoin: round; stroke-linecap: butt}</style>
 </defs>
 <g id="figure_1">
  <g id="patch_1">
   <path d="M 0 345.6 
L 460.8 345.6 
L 460.8 0 
L 0 0 
z
" style="fill: #ffffff"/>
  </g>
  <g id="axes_1">
   <g id="patch_2">
    <path d="M 57.6 307.584 
L 414.72 307.584 
L 414.72 41.472 
L 57.6 41.472 
z
" style="fill: #ffffff"/>
   </g>
   <g id="matplotlib.axis_1">
    <g id="xtick_1">
     <g id="line2d_1">
      <defs>
       <path id="mea46a5bba3" d="M 0 0 
L 0 3.5 
" style="stroke: #000000; stroke-width: 0.8"/>
      </defs>
      <g>
       <use xlink:href="#mea46a5bba3" x="73.832727" y="307.584" style="stroke: #000000; stroke-width: 0.8"/>
      </g>
     </g>
     <g id="text_1">
      <!-- 0.0 -->
      <g transform="translate(65.881165 322.182437) scale(0.1 -0.1)">
       <defs>
        <path id="DejaVuSans-30" d="M 2034 4250 
Q 1547 4250 1301 3770 
Q 1056 3291 1056 2328 
Q 1056 1369 1301 889 
Q 1547 409 2034 409 
Q 2525 409 2770 889 
Q 3016 1369 3016 2328 
Q 3016 3291 2770 3770 
Q 2525 4250 2034 4250 
z
M 2034 4750 
Q 2819 4750 3233 4129 
Q 3647 3509 3647 2328 
Q 3647 1150 3233 529 
Q 2819 -91 2034 -91 
Q 1250 -91 836 529 
Q 422 1150 422 2328 
Q 422 3509 836 4129 
Q 1250 4750 2034 4750 
z
" transform="scale(0.015625)"/>
        <path id="DejaVuSans-2e" d="M 684 794 
L 1344 794 
L 1344 0 
L 684 0 
L 684 794 
z
" transform="scale(0.015625)"/>
       </defs>
       <use xlink:href="#DejaVuSans-30"/>
       <use xlink:href="#DejaVuSans-2e" x="63.623047"/>
       <use xlink:href="#DejaVuSans-30" x="95.410156"/>
      </g>
     </g>
    </g>
    <g id="xtick_2">
     <g id="line2d_2">
      <g>
       <use xlink:href="#mea46a5bba3" x="138.763636" y="307.584" style="stroke: #000000; stroke-width: 0.8"/>
      </g>
     </g>
     <g id="text_2">
      <!-- 0.2 -->
      <g transform="translate(130.812074 322.182437) scale(0.1 -0.1)">
       <defs>
        <path id="DejaVuSans-32" d="M 1228 531 
L 3431 531 
L 3431 0 
L 469 0 
L 469 531 
Q 828 903 1448 1529 
Q 2069 2156 2228 2338 
Q 2531 2678 2651 2914 
Q 2772 3150 2772 3378 
Q 2772 3750 2511 3984 
Q 2250 4219 1831 4219 
Q 1534 4219 1204 4116 
Q 875 4013 500 3803 
L 500 4441 
Q 881 4594 1212 4672 
Q 1544 4750 1819 4750 
Q 2544 4750 2975 4387 
Q 3406 4025 3406 3419 
Q 3406 3131 3298 2873 
Q 3191 2616 2906 2266 
Q 2828 2175 2409 1742 
Q 1991 1309 1228 531 
z
" transform="scale(0.015625)"/>
       </defs>
       <use xlink:href="#DejaVuSans-30"/>
       <use xlink:href="#DejaVuSans-2e" x="63.623047"/>
       <use xlink:href="#DejaVuSans-32" x="95.410156"/>
      </g>
     </g>
    </g>
    <g id="xtick_3">
     <g id="line2d_3">
      <g>
       <use xlink:href="#mea46a5bba3" x="203.694545" y="307.584" style="stroke: #000000; stroke-width: 0.8"/>
      </g>
     </g>
     <g id="text_3">
      <!-- 0.4 -->
      <g transform="translate(195.742983 322.182437) scale(0.1 -0.1)">
       <defs>
        <path id="DejaVuSans-34" d="M 2419 4116 
L 825 1625 
L 2419 1625 
L 2419 4116 
z
M 2253 4666 
L 3047 4666 
L 3047 1625 
L 3713 1625 
L 3713 1100 
L 3047 1100 
L 3047 0 
L 2419 0 
L 2419 1100 
L 313 1100 
L 313 1709 
L 2253 4666 
z
" transform="scale(0.015625)"/>
       </defs>
       <use xlink:href="#DejaVuSans-30"/>
       <use xlink:href="#DejaVuSans-2e" x="63.623047"/>
       <use xlink:href="#DejaVuSans-34" x="95.410156"/>
      </g>
     </g>
    </g>
    <g id="xtick_4">
     <g id="line2d_4">
      <g>
       <use xlink:href="#mea46a5bba3" x="268.625455" y="307.584" style="stroke: #000000; stroke-width: 0.8"/>
      </g>
     </g>
     <g id="text_4">
      <!-- 0.6 -->
      <g transform="translate(260.673892 322.182437) scale(0.1 -0.1)">
       <defs>
        <path id="DejaVuSans-36" d="M 2113 2584 
Q 1688 2584 1439 2293 
Q 1191 2003 1191 1497 
Q 1191 994 1439 701 
Q 1688 409 2113 409 
Q 2538 409 2786 701 
Q 3034 994 3034 1497 
Q 3034 2003 2786 2293 
Q 2538 2584 2113 2584 
z
M 3366 4563 
L 3366 3988 
Q 3128 4100 2886 4159 
Q 2644 4219 2406 4219 
Q 1781 4219 1451 3797 
Q 1122 3375 1075 2522 
Q 1259 2794 1537 2939 
Q 1816 3084 2150 3084 
Q 2853 3084 3261 2657 
Q 3669 2231 3669 1497 
Q 3669 778 3244 343 
Q 2819 -91 2113 -91 
Q 1303 -91 875 529 
Q 447 1150 447 2328 
Q 447 3434 972 4092 
Q 1497 4750 2381 4750 
Q 2619 4750 2861 4703 
Q 3103 4656 3366 4563 
z
" transform="scale(0.015625)"/>
       </defs>
       <use xlink:href="#DejaVuSans-30"/>
       <use xlink:href="#DejaVuSans-2e" x="63.623047"/>
       <use xlink:href="#DejaVuSans-36" x="95.410156"/>
      </g>
     </g>
    </g>
    <g id="xtick_5">
     <g id="line2d_5">
      <g>
       <use xlink:href="#mea46a5bba3" x="333.556364" y="307.584" style="stroke: #000000; stroke-width: 0.8"/>
      </g>
     </g>
     <g id="text_5">
      <!-- 0.8 -->
      <g transform="translate(325.604801 322.182437) scale(0.1 -0.1)">
       <defs>
        <path id="DejaVuSans-38" d="M 2034 2216 
Q 1584 2216 1326 1975 
Q 1069 1734 1069 1313 
Q 1069 891 1326 650 
Q 1584 409 2034 409 
Q 2484 409 2743 651 
Q 3003 894 3003 1313 
Q 3003 1734 2745 1975 
Q 2488 2216 2034 2216 
z
M 1403 2484 
Q 997 2584 770 2862 
Q 544 3141 544 3541 
Q 544 4100 942 4425 
Q 1341 4750 2034 4750 
Q 2731 4750 3128 4425 
Q 3525 4100 3525 3541 
Q 3525 3141 3298 2862 
Q 3072 2584 2669 2484 
Q 3125 2378 3379 2068 
Q 3634 1759 3634 1313 
Q 3634 634 3220 271 
Q 2806 -91 2034 -91 
Q 1263 -91 848 271 
Q 434 634 434 1313 
Q 434 1759 690 2068 
Q 947 2378 1403 2484 
z
M 1172 3481 
Q 1172 3119 1398 2916 
Q 1625 2713 2034 2713 
Q 2441 2713 2670 2916 
Q 2900 3119 2900 3481 
Q 2900 3844 2670 4047 
Q 2441 4250 2034 4250 
Q 1625 4250 1398 4047 
Q 1172 3844 1172 3481 
z
" transform="scale(0.015625)"/>
       </defs>
       <use xlink:href="#DejaVuSans-30"/>
       <use xlink:href="#DejaVuSans-2e" x="63.623047"/>
       <use xlink:href="#DejaVuSans-38" x="95.410156"/>
      </g>
     </g>
    </g>
    <g id="xtick_6">
     <g id="line2d_6">
      <g>
       <use xlink:href="#mea46a5bba3" x="398.487273" y="307.584" style="stroke: #000000; stroke-width: 0.8"/>
      </g>
     </g>
     <g id="text_6">
      <!-- 1.0 -->
      <g transform="translate(390.53571 322.182437) scale(0.1 -0.1)">
       <defs>
        <path id="DejaVuSans-31" d="M 794 531 
L 1825 531 
L 1825 4091 
L 703 3866 
L 703 4441 
L 1819 4666 
L 2450 4666 
L 2450 531 
L 3481 531 
L 3481 0 
L 794 0 
L 794 531 
z
" transform="scale(0.015625)"/>
       </defs>
       <use xlink:href="#DejaVuSans-31"/>
       <use xlink:href="#DejaVuSans-2e" x="63.623047"/>
       <use xlink:href="#DejaVuSans-30" x="95.410156"/>
      </g>
     </g>
    </g>
    <g id="text_7">
     <!-- Recall -->
     <g transform="translate(221.242812 335.860562) scale(0.1 -0.1)">
      <defs>
       <path id="DejaVuSans-52" d="M 2841 2188 
Q 3044 2119 3236 1894 
Q 3428 1669 3622 1275 
L 4263 0 
L 3584 0 
L 2988 1197 
Q 2756 1666 2539 1819 
Q 2322 1972 1947 1972 
L 1259 1972 
L 1259 0 
L 628 0 
L 628 4666 
L 2053 4666 
Q 2853 4666 3247 4331 
Q 3641 3997 3641 3322 
Q 3641 2881 3436 2590 
Q 3231 2300 2841 2188 
z
M 1259 4147 
L 1259 2491 
L 2053 2491 
Q 2509 2491 2742 2702 
Q 2975 2913 2975 3322 
Q 2975 3731 2742 3939 
Q 2509 4147 2053 4147 
L 1259 4147 
z
" transform="scale(0.015625)"/>
       <path id="DejaVuSans-65" d="M 3597 1894 
L 3597 1613 
L 953 1613 
Q 991 1019 1311 708 
Q 1631 397 2203 397 
Q 2534 397 2845 478 
Q 3156 559 3463 722 
L 3463 178 
Q 3153 47 2828 -22 
Q 2503 -91 2169 -91 
Q 1331 -91 842 396 
Q 353 884 353 1716 
Q 353 2575 817 3079 
Q 1281 3584 2069 3584 
Q 2775 3584 3186 3129 
Q 3597 2675 3597 1894 
z
M 3022 2063 
Q 3016 2534 2758 2815 
Q 2500 3097 2075 3097 
Q 1594 3097 1305 2825 
Q 1016 2553 972 2059 
L 3022 2063 
z
" transform="scale(0.015625)"/>
       <path id="DejaVuSans-63" d="M 3122 3366 
L 3122 2828 
Q 2878 2963 2633 3030 
Q 2388 3097 2138 3097 
Q 1578 3097 1268 2742 
Q 959 2388 959 1747 
Q 959 1106 1268 751 
Q 1578 397 2138 397 
Q 2388 397 2633 464 
Q 2878 531 3122 666 
L 3122 134 
Q 2881 22 2623 -34 
Q 2366 -91 2075 -91 
Q 1284 -91 818 406 
Q 353 903 353 1747 
Q 353 2603 823 3093 
Q 1294 3584 2113 3584 
Q 2378 3584 2631 3529 
Q 2884 3475 3122 3366 
z
" transform="scale(0.015625)"/>
       <path id="DejaVuSans-61" d="M 2194 1759 
Q 1497 1759 1228 1600 
Q 959 1441 959 1056 
Q 959 750 1161 570 
Q 1363 391 1709 391 
Q 2188 391 2477 730 
Q 2766 1069 2766 1631 
L 2766 1759 
L 2194 1759 
z
M 3341 1997 
L 3341 0 
L 2766 0 
L 2766 531 
Q 2569 213 2275 61 
Q 1981 -91 1556 -91 
Q 1019 -91 701 211 
Q 384 513 384 1019 
Q 384 1609 779 1909 
Q 1175 2209 1959 2209 
L 2766 2209 
L 2766 2266 
Q 2766 2663 2505 2880 
Q 2244 3097 1772 3097 
Q 1472 3097 1187 3025 
Q 903 2953 641 2809 
L 641 3341 
Q 956 3463 1253 3523 
Q 1550 3584 1831 3584 
Q 2591 3584 2966 3190 
Q 3341 2797 3341 1997 
z
" transform="scale(0.015625)"/>
       <path id="DejaVuSans-6c" d="M 603 4863 
L 1178 4863 
L 1178 0 
L 603 0 
L 603 4863 
z
" transform="scale(0.015625)"/>
      </defs>
      <use xlink:href="#DejaVuSans-52"/>
      <use xlink:href="#DejaVuSans-65" x="64.982422"/>
      <use xlink:href="#DejaVuSans-63" x="126.505859"/>
      <use xlink:href="#DejaVuSans-61" x="181.486328"/>
      <use xlink:href="#DejaVuSans-6c" x="242.765625"/>
      <use xlink:href="#DejaVuSans-6c" x="270.548828"/>
     </g>
    </g>
   </g>
   <g id="matplotlib.axis_2">
    <g id="ytick_1">
     <g id="line2d_7">
      <defs>
       <path id="m9dcdc263ab" d="M 0 0 
L -3.5 0 
" style="stroke: #000000; stroke-width: 0.8"/>
      </defs>
      <g>
       <use xlink:href="#m9dcdc263ab" x="57.6" y="296.877718" style="stroke: #000000; stroke-width: 0.8"/>
      </g>
     </g>
     <g id="text_8">
      <!-- 0.5 -->
      <g transform="translate(34.696875 300.676937) scale(0.1 -0.1)">
       <defs>
        <path id="DejaVuSans-35" d="M 691 4666 
L 3169 4666 
L 3169 4134 
L 1269 4134 
L 1269 2991 
Q 1406 3038 1543 3061 
Q 1681 3084 1819 3084 
Q 2600 3084 3056 2656 
Q 3513 2228 3513 1497 
Q 3513 744 3044 326 
Q 2575 -91 1722 -91 
Q 1428 -91 1123 -41 
Q 819 9 494 109 
L 494 744 
Q 775 591 1075 516 
Q 1375 441 1709 441 
Q 2250 441 2565 725 
Q 2881 1009 2881 1497 
Q 2881 1984 2565 2268 
Q 2250 2553 1709 2553 
Q 1456 2553 1204 2497 
Q 953 2441 691 2322 
L 691 4666 
z
" transform="scale(0.015625)"/>
       </defs>
       <use xlink:href="#DejaVuSans-30"/>
       <use xlink:href="#DejaVuSans-2e" x="63.623047"/>
       <use xlink:href="#DejaVuSans-35" x="95.410156"/>
      </g>
     </g>
    </g>
    <g id="ytick_2">
     <g id="line2d_8">
      <g>
       <use xlink:href="#m9dcdc263ab" x="57.6" y="248.215775" style="stroke: #000000; stroke-width: 0.8"/>
      </g>
     </g>
     <g id="text_9">
      <!-- 0.6 -->
      <g transform="translate(34.696875 252.014993) scale(0.1 -0.1)">
       <use xlink:href="#DejaVuSans-30"/>
       <use xlink:href="#DejaVuSans-2e" x="63.623047"/>
       <use xlink:href="#DejaVuSans-36" x="95.410156"/>
      </g>
     </g>
    </g>
    <g id="ytick_3">
     <g id="line2d_9">
      <g>
       <use xlink:href="#m9dcdc263ab" x="57.6" y="199.553831" style="stroke: #000000; stroke-width: 0.8"/>
      </g>
     </g>
     <g id="text_10">
      <!-- 0.7 -->
      <g transform="translate(34.696875 203.35305) scale(0.1 -0.1)">
       <defs>
        <path id="DejaVuSans-37" d="M 525 4666 
L 3525 4666 
L 3525 4397 
L 1831 0 
L 1172 0 
L 2766 4134 
L 525 4134 
L 525 4666 
z
" transform="scale(0.015625)"/>
       </defs>
       <use xlink:href="#DejaVuSans-30"/>
       <use xlink:href="#DejaVuSans-2e" x="63.623047"/>
       <use xlink:href="#DejaVuSans-37" x="95.410156"/>
      </g>
     </g>
    </g>
    <g id="ytick_4">
     <g id="line2d_10">
      <g>
       <use xlink:href="#m9dcdc263ab" x="57.6" y="150.891887" style="stroke: #000000; stroke-width: 0.8"/>
      </g>
     </g>
     <g id="text_11">
      <!-- 0.8 -->
      <g transform="translate(34.696875 154.691106) scale(0.1 -0.1)">
       <use xlink:href="#DejaVuSans-30"/>
       <use xlink:href="#DejaVuSans-2e" x="63.623047"/>
       <use xlink:href="#DejaVuSans-38" x="95.410156"/>
      </g>
     </g>
    </g>
    <g id="ytick_5">
     <g id="line2d_11">
      <g>
       <use xlink:href="#m9dcdc263ab" x="57.6" y="102.229944" style="stroke: #000000; stroke-width: 0.8"/>
      </g>
     </g>
     <g id="text_12">
      <!-- 0.9 -->
      <g transform="translate(34.696875 106.029162) scale(0.1 -0.1)">
       <defs>
        <path id="DejaVuSans-39" d="M 703 97 
L 703 672 
Q 941 559 1184 500 
Q 1428 441 1663 441 
Q 2288 441 2617 861 
Q 2947 1281 2994 2138 
Q 2813 1869 2534 1725 
Q 2256 1581 1919 1581 
Q 1219 1581 811 2004 
Q 403 2428 403 3163 
Q 403 3881 828 4315 
Q 1253 4750 1959 4750 
Q 2769 4750 3195 4129 
Q 3622 3509 3622 2328 
Q 3622 1225 3098 567 
Q 2575 -91 1691 -91 
Q 1453 -91 1209 -44 
Q 966 3 703 97 
z
M 1959 2075 
Q 2384 2075 2632 2365 
Q 2881 2656 2881 3163 
Q 2881 3666 2632 3958 
Q 2384 4250 1959 4250 
Q 1534 4250 1286 3958 
Q 1038 3666 1038 3163 
Q 1038 2656 1286 2365 
Q 1534 2075 1959 2075 
z
" transform="scale(0.015625)"/>
       </defs>
       <use xlink:href="#DejaVuSans-30"/>
       <use xlink:href="#DejaVuSans-2e" x="63.623047"/>
       <use xlink:href="#DejaVuSans-39" x="95.410156"/>
      </g>
     </g>
    </g>
    <g id="ytick_6">
     <g id="line2d_12">
      <g>
       <use xlink:href="#m9dcdc263ab" x="57.6" y="53.568" style="stroke: #000000; stroke-width: 0.8"/>
      </g>
     </g>
     <g id="text_13">
      <!-- 1.0 -->
      <g transform="translate(34.696875 57.367219) scale(0.1 -0.1)">
       <use xlink:href="#DejaVuSans-31"/>
       <use xlink:href="#DejaVuSans-2e" x="63.623047"/>
       <use xlink:href="#DejaVuSans-30" x="95.410156"/>
      </g>
     </g>
    </g>
    <g id="text_14">
     <!-- Precision -->
     <g transform="translate(28.617187 196.835031) rotate(-90) scale(0.1 -0.1)">
      <defs>
       <path id="DejaVuSans-50" d="M 1259 4147 
L 1259 2394 
L 2053 2394 
Q 2494 2394 2734 2622 
Q 2975 2850 2975 3272 
Q 2975 3691 2734 3919 
Q 2494 4147 2053 4147 
L 1259 4147 
z
M 628 4666 
L 2053 4666 
Q 2838 4666 3239 4311 
Q 3641 3956 3641 3272 
Q 3641 2581 3239 2228 
Q 2838 1875 2053 1875 
L 1259 1875 
L 1259 0 
L 628 0 
L 628 4666 
z
" transform="scale(0.015625)"/>
       <path id="DejaVuSans-72" d="M 2631 2963 
Q 2534 3019 2420 3045 
Q 2306 3072 2169 3072 
Q 1681 3072 1420 2755 
Q 1159 2438 1159 1844 
L 1159 0 
L 581 0 
L 581 3500 
L 1159 3500 
L 1159 2956 
Q 1341 3275 1631 3429 
Q 1922 3584 2338 3584 
Q 2397 3584 2469 3576 
Q 2541 3569 2628 3553 
L 2631 2963 
z
" transform="scale(0.015625)"/>
       <path id="DejaVuSans-69" d="M 603 3500 
L 1178 3500 
L 1178 0 
L 603 0 
L 603 3500 
z
M 603 4863 
L 1178 4863 
L 1178 4134 
L 603 4134 
L 603 4863 
z
" transform="scale(0.015625)"/>
       <path id="DejaVuSans-73" d="M 2834 3397 
L 2834 2853 
Q 2591 2978 2328 3040 
Q 2066 3103 1784 3103 
Q 1356 3103 1142 2972 
Q 928 2841 928 2578 
Q 928 2378 1081 2264 
Q 1234 2150 1697 2047 
L 1894 2003 
Q 2506 1872 2764 1633 
Q 3022 1394 3022 966 
Q 3022 478 2636 193 
Q 2250 -91 1575 -91 
Q 1294 -91 989 -36 
Q 684 19 347 128 
L 347 722 
Q 666 556 975 473 
Q 1284 391 1588 391 
Q 1994 391 2212 530 
Q 2431 669 2431 922 
Q 2431 1156 2273 1281 
Q 2116 1406 1581 1522 
L 1381 1569 
Q 847 1681 609 1914 
Q 372 2147 372 2553 
Q 372 3047 722 3315 
Q 1072 3584 1716 3584 
Q 2034 3584 2315 3537 
Q 2597 3491 2834 3397 
z
" transform="scale(0.015625)"/>
       <path id="DejaVuSans-6f" d="M 1959 3097 
Q 1497 3097 1228 2736 
Q 959 2375 959 1747 
Q 959 1119 1226 758 
Q 1494 397 1959 397 
Q 2419 397 2687 759 
Q 2956 1122 2956 1747 
Q 2956 2369 2687 2733 
Q 2419 3097 1959 3097 
z
M 1959 3584 
Q 2709 3584 3137 3096 
Q 3566 2609 3566 1747 
Q 3566 888 3137 398 
Q 2709 -91 1959 -91 
Q 1206 -91 779 398 
Q 353 888 353 1747 
Q 353 2609 779 3096 
Q 1206 3584 1959 3584 
z
" transform="scale(0.015625)"/>
       <path id="DejaVuSans-6e" d="M 3513 2113 
L 3513 0 
L 2938 0 
L 2938 2094 
Q 2938 2591 2744 2837 
Q 2550 3084 2163 3084 
Q 1697 3084 1428 2787 
Q 1159 2491 1159 1978 
L 1159 0 
L 581 0 
L 581 3500 
L 1159 3500 
L 1159 2956 
Q 1366 3272 1645 3428 
Q 1925 3584 2291 3584 
Q 2894 3584 3203 3211 
Q 3513 2838 3513 2113 
z
" transform="scale(0.015625)"/>
      </defs>
      <use xlink:href="#DejaVuSans-50"/>
      <use xlink:href="#DejaVuSans-72" x="58.552734"/>
      <use xlink:href="#DejaVuSans-65" x="97.416016"/>
      <use xlink:href="#DejaVuSans-63" x="158.939453"/>
      <use xlink:href="#DejaVuSans-69" x="213.919922"/>
      <use xlink:href="#DejaVuSans-73" x="241.703125"/>
      <use xlink:href="#DejaVuSans-69" x="293.802734"/>
      <use xlink:href="#DejaVuSans-6f" x="321.585938"/>
      <use xlink:href="#DejaVuSans-6e" x="382.767578"/>
     </g>
    </g>
   </g>
   <g id="line2d_13">
    <path d="M 398.487273 295.488 
L 391.039741 295.488 
L 390.967435 211.78109 
L 390.895129 211.78109 
L 390.822822 204.334223 
L 390.750516 204.334223 
L 390.750516 204.252173 
L 390.67821 200.313932 
L 390.605904 200.313932 
L 390.605904 200.228937 
L 390.533598 195.413394 
L 390.461292 195.413394 
L 390.461292 195.324755 
L 390.388986 193.665008 
L 390.316679 193.665008 
L 390.316679 193.575024 
L 390.244373 193.315527 
L 390.172067 193.315527 
L 390.172067 193.225241 
L 390.172067 192.431796 
L 390.099761 192.454482 
L 389.882843 192.454482 
L 389.882843 192.352023 
L 389.810537 191.690724 
L 389.73823 191.690724 
L 389.73823 191.599091 
L 389.665924 190.53228 
L 389.521312 190.439728 
L 389.521312 190.462258 
L 389.449006 190.19669 
L 389.304394 190.161522 
L 389.304394 190.18404 
L 389.304394 190.068604 
L 388.798251 190.088215 
L 388.798251 189.995091 
L 388.725945 189.612144 
L 388.43672 189.505571 
L 388.43672 189.528084 
L 388.43672 189.353772 
L 388.364414 189.376275 
L 388.075189 189.385664 
L 388.075189 189.291788 
L 388.002883 188.964604 
L 387.49674 188.924463 
L 387.49674 188.888532 
L 387.49674 188.47882 
L 387.424434 188.501302 
L 387.207516 188.48766 
L 387.207516 188.392835 
L 387.207516 188.275433 
L 387.13521 188.297914 
L 386.990597 188.26166 
L 386.990597 188.225383 
L 386.990597 188.166595 
L 386.918291 188.18908 
L 386.773679 188.152754 
L 386.773679 188.116403 
L 386.701373 187.844347 
L 386.122924 187.942804 
L 386.050618 187.987851 
L 386.050618 187.810659 
L 385.906005 187.774065 
L 385.906005 187.737447 
L 385.906005 187.678291 
L 385.833699 187.700804 
L 385.689087 187.723325 
L 385.689087 187.627445 
L 385.616781 187.472189 
L 385.544475 187.472189 
L 385.544475 187.376069 
L 385.472168 187.220461 
L 385.399862 187.220461 
L 385.399862 187.124101 
L 385.399862 187.064642 
L 385.327556 187.087128 
L 384.749107 187.006506 
L 384.749107 187.029027 
L 384.749107 186.969412 
L 384.676801 186.991935 
L 384.532189 186.954817 
L 384.532189 186.917675 
L 384.459883 186.641504 
L 384.387576 186.641504 
L 384.387576 186.544377 
L 384.387576 186.484529 
L 384.31527 186.507027 
L 383.158372 186.605408 
L 383.158372 186.628002 
L 383.158372 186.567945 
L 382.724535 186.567945 
L 382.724535 186.101551 
L 382.507617 186.101551 
L 382.435311 185.889969 
L 382.146086 185.897253 
L 382.146086 185.798832 
L 382.07378 185.518492 
L 381.856862 185.563626 
L 381.856862 185.464849 
L 381.784556 185.183637 
L 381.567637 185.107056 
L 381.567637 185.129607 
L 381.567637 185.007824 
L 381.495331 185.030369 
L 381.423025 185.030369 
L 381.423025 184.93103 
L 381.350719 184.770562 
L 380.555351 184.751687 
L 380.555351 184.71307 
L 380.555351 184.651844 
L 380.483045 184.674425 
L 380.338433 184.635755 
L 380.338433 184.597057 
L 380.266127 184.37426 
L 379.687678 184.286514 
L 379.687678 184.309114 
L 379.615372 184.20861 
L 379.253841 184.237451 
L 379.253841 184.13677 
L 379.253841 184.075084 
L 379.181535 184.097698 
L 379.109229 184.097698 
L 379.109229 183.996857 
L 379.109229 183.873309 
L 379.036922 183.895912 
L 378.89231 183.856702 
L 378.89231 183.817466 
L 378.89231 183.755596 
L 378.820004 183.778202 
L 378.313861 183.728121 
L 378.313861 183.688751 
L 378.241555 183.52521 
L 378.096943 183.485728 
L 378.096943 183.446219 
L 378.024637 183.157794 
L 377.807718 183.078409 
L 377.735412 182.874108 
L 377.5908 182.771797 
L 377.5908 182.794385 
L 377.518494 182.691961 
L 377.301575 182.612013 
L 377.301575 182.634605 
L 377.301575 182.571997 
L 377.084657 182.491881 
L 377.012351 181.468151 
L 376.940045 181.468151 
L 376.940045 181.36445 
L 376.867738 180.501007 
L 376.795432 180.501007 
L 376.795432 180.396464 
L 376.723126 180.037468 
L 376.65082 180.037468 
L 376.65082 179.932496 
L 376.578514 176.677074 
L 376.506208 176.677074 
L 376.506208 176.569271 
L 376.433902 174.764443 
L 376.289289 174.786194 
L 376.289289 174.676734 
L 376.289289 171.298509 
L 375.783146 171.298509 
L 375.71084 170.193602 
L 375.638534 170.193602 
L 375.638534 170.147442 
L 375.566228 169.086759 
L 375.421616 169.040035 
L 375.421616 168.993276 
L 375.34931 168.129672 
L 375.277003 168.129672 
L 375.277003 168.082442 
L 375.204697 163.473133 
L 375.132391 163.473133 
L 375.132391 163.423558 
L 375.060085 163.09358 
L 374.915473 163.113957 
L 374.915473 162.993964 
L 374.915473 162.783202 
L 374.843167 162.803548 
L 374.626248 162.703567 
L 374.626248 162.723917 
L 374.553942 161.968368 
L 374.40933 161.98863 
L 374.40933 161.867445 
L 374.337024 161.320749 
L 374.264718 161.320749 
L 374.264718 161.269941 
L 374.192411 160.93469 
L 374.120105 160.93469 
L 374.120105 160.88366 
L 374.047799 160.404749 
L 373.975493 160.404749 
L 373.975493 160.353424 
L 373.975493 159.924394 
L 373.903187 159.94442 
L 373.686268 159.84121 
L 373.686268 159.861239 
L 373.613962 159.666089 
L 373.397044 159.634324 
L 373.397044 159.582504 
L 373.324738 159.458743 
L 373.035513 159.446823 
L 373.035513 159.394844 
L 373.035513 159.17869 
L 372.963207 159.198676 
L 372.890901 159.198676 
L 372.890901 159.146545 
L 372.890901 159.002211 
L 372.818595 159.022184 
L 372.601676 158.917649 
L 372.601676 158.937624 
L 372.52937 158.812955 
L 372.240146 158.728068 
L 372.240146 158.748042 
L 372.16784 158.550524 
L 371.589391 158.472438 
L 371.589391 158.49242 
L 371.517084 158.294143 
L 371.372472 158.314109 
L 371.372472 158.188394 
L 371.300166 157.989582 
L 371.155554 158.009521 
L 371.155554 157.883439 
L 371.083248 157.610939 
L 369.926349 157.543318 
L 369.926349 157.563283 
L 369.926349 157.4898 
L 369.854043 157.509762 
L 369.781737 157.509762 
L 369.781737 157.4562 
L 369.781737 157.382641 
L 369.709431 157.402597 
L 369.564819 157.422562 
L 369.564819 157.295267 
L 369.492513 157.167826 
L 368.263308 157.266076 
L 368.263308 157.286114 
L 368.263308 157.064013 
L 368.191002 157.084028 
L 366.961798 157.049958 
L 366.961798 156.382924 
L 365.8049 156.30933 
L 365.8049 156.329401 
L 365.8049 156.254399 
L 365.732594 156.274467 
L 365.298757 156.374923 
L 365.226451 156.415161 
L 364.286471 156.506727 
L 364.214165 156.547143 
L 364.141859 156.547143 
L 364.141859 156.492025 
L 364.141859 156.416657 
L 364.069553 156.436863 
L 363.997246 156.436863 
L 363.997246 156.381659 
L 363.92494 156.250921 
L 363.708022 156.140214 
L 363.708022 156.160405 
L 363.708022 156.084794 
L 363.635716 156.104983 
L 362.695736 156.19627 
L 362.695736 156.21654 
L 362.695736 156.140687 
L 362.62343 156.160954 
L 362.478818 156.105324 
L 362.478818 156.125596 
L 362.406511 155.841865 
L 361.68345 155.948175 
L 361.611144 155.988794 
L 361.249613 156.070129 
L 361.249613 155.937882 
L 361.249613 155.861535 
L 361.177307 155.881864 
L 359.731184 155.809591 
L 359.731184 155.830015 
L 359.731184 155.75322 
L 359.658878 155.773641 
L 359.369654 155.834952 
L 359.369654 155.701611 
L 359.369654 155.624668 
L 359.297348 155.645096 
L 359.152735 155.588535 
L 359.152735 155.608967 
L 359.152735 155.531928 
L 359.080429 155.552358 
L 358.646592 155.459434 
L 358.646592 155.289051 
L 358.574286 155.309481 
L 358.285062 155.29347 
L 358.285062 155.236529 
L 358.212756 154.869489 
L 358.140449 154.869489 
L 358.140449 154.812286 
L 358.068143 154.677359 
L 357.562 154.644181 
L 357.562 154.586736 
L 357.489694 154.295371 
L 357.128164 154.298814 
L 357.128164 154.24109 
L 357.055857 154.105133 
L 356.911245 154.125501 
L 356.911245 154.067636 
L 356.911245 153.989364 
L 356.838939 154.009725 
L 356.694327 154.030094 
L 356.694327 154.050472 
L 356.694327 153.893761 
L 356.622021 153.914123 
L 356.26049 153.818327 
L 356.26049 153.859079 
L 356.26049 153.780541 
L 356.188184 153.800918 
L 356.115878 153.800918 
L 356.115878 153.742709 
L 356.115878 153.585426 
L 356.043572 153.605784 
L 355.971265 153.605784 
L 355.971265 153.547436 
L 355.971265 153.311104 
L 355.898959 153.33143 
L 355.826653 153.33143 
L 355.826653 153.2729 
L 355.754347 152.740187 
L 355.682041 152.740187 
L 355.682041 152.681295 
L 355.682041 152.522903 
L 355.609735 152.543131 
L 355.103592 152.543131 
L 355.031286 152.228644 
L 354.95898 152.228644 
L 354.95898 152.169313 
L 354.886673 151.631613 
L 354.814367 151.631613 
L 354.814367 151.571915 
L 354.742061 151.112213 
L 354.669755 151.112213 
L 354.669755 151.05219 
L 354.669755 150.811686 
L 354.597449 150.831724 
L 354.452837 150.85177 
L 354.452837 150.791553 
L 354.38053 149.117964 
L 354.235918 149.117964 
L 354.163612 148.446665 
L 354.091306 148.446665 
L 354.091306 148.384999 
L 354.019 147.915684 
L 353.946694 147.915684 
L 353.946694 147.853681 
L 353.946694 146.13148 
L 353.295938 146.13148 
L 353.223632 144.917833 
L 353.07902 144.937041 
L 353.07902 144.873119 
L 353.07902 144.6235 
L 353.006714 144.642669 
L 352.934408 144.642669 
L 352.934408 144.578543 
L 352.862102 143.595165 
L 352.717489 143.530393 
L 352.717489 143.549405 
L 352.645183 142.138105 
L 352.500571 142.156898 
L 352.500571 142.091213 
L 352.500571 141.414035 
L 352.355959 141.414035 
L 352.355959 141.366571 
L 352.355959 140.175044 
L 352.13904 140.175044 
L 352.066734 139.564503 
L 351.994428 139.564503 
L 351.994428 139.49716 
L 351.922122 139.343926 
L 351.849816 139.343926 
L 351.849816 139.276416 
L 351.77751 138.433761 
L 351.343673 138.438616 
L 351.343673 138.370441 
L 351.343673 138.110925 
L 351.271367 138.12913 
L 351.199061 138.12913 
L 351.199061 138.060733 
L 351.126754 137.471524 
L 351.054448 137.471524 
L 351.054448 137.402696 
L 351.054448 137.31572 
L 350.982142 137.333808 
L 350.909836 137.333808 
L 350.909836 137.264861 
L 350.909836 137.003506 
L 350.620611 137.003506 
L 350.620611 136.901183 
L 350.548305 136.569625 
L 350.475999 136.569625 
L 350.475999 136.500107 
L 350.475999 136.324971 
L 350.403693 136.342927 
L 350.186775 136.378861 
L 350.186775 136.309155 
L 350.114469 135.536105 
L 349.969856 135.46585 
L 349.969856 135.483685 
L 349.969856 135.307343 
L 349.89755 135.325155 
L 349.391407 135.25548 
L 349.391407 135.273316 
L 349.319101 134.759916 
L 349.102183 134.706733 
L 349.102183 134.724492 
L 349.102183 134.45809 
L 349.029876 134.47581 
L 348.885264 134.493537 
L 348.885264 134.511273 
L 348.812958 134.173019 
L 348.59604 134.208403 
L 348.59604 134.136963 
L 348.523734 133.797628 
L 348.306815 133.74353 
L 348.306815 133.76117 
L 348.306815 133.403164 
L 348.234509 133.420749 
L 348.017591 133.438342 
L 348.017591 133.383886 
L 348.017591 133.294183 
L 347.945284 133.311767 
L 347.800672 133.329359 
L 347.800672 133.257168 
L 347.800672 133.167338 
L 347.728366 133.184914 
L 346.932999 133.09084 
L 346.932999 133.108453 
L 346.860692 132.945639 
L 346.643774 132.980839 
L 346.643774 132.908126 
L 346.643774 132.81776 
L 346.571468 132.835347 
L 345.631488 132.865735 
L 345.631488 132.792679 
L 345.631488 132.61113 
L 345.559182 132.628746 
L 344.546896 132.585157 
L 344.546896 132.602835 
L 344.546896 132.511632 
L 344.47459 132.529301 
L 343.968447 132.635479 
L 343.896141 132.670935 
L 343.751529 132.597267 
L 343.751529 132.614998 
L 343.679223 132.266561 
L 343.17308 132.189232 
L 343.17308 132.206928 
L 343.17308 132.115082 
L 343.100773 132.132768 
L 342.59463 132.239057 
L 342.522324 132.27455 
L 342.377712 132.200254 
L 342.377712 132.218004 
L 342.377712 132.033736 
L 342.305406 132.05146 
L 341.943875 132.030157 
L 341.943875 131.955565 
L 341.943875 131.863184 
L 341.871569 131.880906 
L 340.280834 131.8239 
L 340.280834 131.06295 
L 339.846997 131.06295 
L 339.846997 130.888647 
L 339.774691 130.906328 
L 339.123936 130.860521 
L 339.123936 130.878241 
L 339.123936 130.784384 
L 339.05163 130.802094 
L 338.545487 130.908526 
L 338.473181 130.944069 
L 337.894732 130.974545 
L 337.894732 130.898127 
L 337.894732 130.803842 
L 337.822426 130.821639 
L 337.243977 130.75746 
L 337.243977 130.775287 
L 337.243977 130.680713 
L 337.17167 130.69853 
L 336.665527 130.805606 
L 336.593221 130.841364 
L 336.303997 130.800232 
L 336.303997 130.818131 
L 336.303997 130.723238 
L 336.231691 130.741127 
L 336.159384 130.741127 
L 336.159384 130.664051 
L 336.159384 130.569034 
L 336.087078 130.586904 
L 335.797854 130.640563 
L 335.797854 130.563315 
L 335.797854 130.46812 
L 335.725548 130.485996 
L 335.219405 130.593423 
L 335.219405 130.611357 
L 335.147099 130.438452 
L 335.074792 130.438452 
L 335.074792 130.360858 
L 335.074792 130.265305 
L 335.002486 130.283191 
L 334.857874 130.301086 
L 334.857874 130.223337 
L 334.857874 130.031899 
L 334.785568 130.049756 
L 333.556364 130.14437 
L 333.484058 130.180305 
L 332.977915 130.288311 
L 332.905608 130.32438 
L 332.544078 130.300178 
L 332.544078 130.221733 
L 332.544078 130.028581 
L 332.471772 130.046597 
L 332.182547 130.003978 
L 332.182547 130.022009 
L 332.182547 129.925226 
L 332.110241 129.943248 
L 331.74871 129.918498 
L 331.74871 129.839557 
L 331.676404 129.469115 
L 330.953343 129.436289 
L 330.953343 129.454297 
L 330.953343 129.259221 
L 330.881037 129.2772 
L 330.230281 129.207727 
L 330.230281 129.243754 
L 330.230281 129.145864 
L 330.157975 129.163872 
L 326.759587 129.110322 
L 326.759587 129.128565 
L 326.687281 128.94815 
L 326.036526 128.994602 
L 325.964219 128.732059 
L 325.530383 128.623463 
L 325.530383 128.641698 
L 325.458077 128.259526 
L 325.241158 128.195616 
L 325.241158 128.213787 
L 325.241158 128.113452 
L 325.168852 128.131612 
L 324.951934 128.067514 
L 324.951934 128.08568 
L 324.951934 127.884606 
L 324.879627 127.902741 
L 324.735015 127.820233 
L 324.735015 127.838366 
L 324.662709 127.352312 
L 324.301178 127.323493 
L 324.301178 127.341557 
L 324.301178 127.139231 
L 324.228872 127.157263 
L 323.216586 127.087767 
L 323.216586 127.105862 
L 323.14428 126.818672 
L 322.999668 126.734837 
L 322.927362 125.646398 
L 322.855056 125.646398 
L 322.855056 125.561672 
L 322.855056 125.459068 
L 322.78275 125.476862 
L 322.565831 125.40976 
L 322.565831 125.42756 
L 322.493525 125.136781 
L 322.348913 125.05155 
L 322.348913 125.069292 
L 322.276607 124.777652 
L 322.059688 124.709777 
L 322.059688 124.72747 
L 321.987382 124.020503 
L 321.408933 124.020503 
L 321.336627 122.719183 
L 321.192015 122.736519 
L 321.192015 122.649164 
L 321.119708 122.247087 
L 320.830484 122.193818 
L 320.830484 122.211074 
L 320.830484 122.105949 
L 320.758178 122.123191 
L 320.685872 122.123191 
L 320.685872 122.03522 
L 320.613565 120.573456 
L 320.541259 120.573456 
L 320.541259 120.484323 
L 320.541259 120.165803 
L 320.468953 120.182655 
L 320.396647 120.182655 
L 320.396647 120.093189 
L 320.324341 119.043578 
L 320.252035 119.043578 
L 320.252035 118.953238 
L 320.252035 118.524828 
L 320.179729 118.541348 
L 320.107423 118.541348 
L 320.107423 118.450592 
L 320.035116 118.144853 
L 319.96281 118.144853 
L 319.96281 118.053756 
L 319.890504 116.775025 
L 319.818198 116.775025 
L 319.818198 116.682877 
L 319.745892 116.482187 
L 319.673586 116.482187 
L 319.673586 116.389772 
L 319.60128 114.661462 
L 319.528973 114.661462 
L 319.528973 114.567657 
L 319.456667 114.034762 
L 319.384361 114.034762 
L 319.384361 113.94044 
L 319.312055 113.62586 
L 319.167443 113.53118 
L 319.167443 113.546675 
L 319.095137 113.341528 
L 318.733606 113.261999 
L 318.6613 112.326255 
L 318.588994 112.326255 
L 318.588994 112.230359 
L 318.516688 111.130591 
L 318.227463 111.145593 
L 318.155157 110.533118 
L 318.010545 110.435683 
L 318.010545 110.450554 
L 318.010545 110.338146 
L 317.938239 110.353 
L 317.576708 110.299897 
L 317.576708 110.314763 
L 317.504402 109.76552 
L 316.998259 109.741004 
L 316.998259 109.755778 
L 316.998259 109.642537 
L 316.925953 109.657293 
L 316.709034 109.686829 
L 316.709034 109.588204 
L 316.709034 109.474739 
L 316.636728 109.489475 
L 316.347504 109.533728 
L 316.347504 109.43484 
L 316.347504 109.207349 
L 316.275197 109.222045 
L 315.841361 109.18165 
L 315.841361 109.196366 
L 315.841361 109.082287 
L 315.769054 109.096985 
L 314.684462 109.189041 
L 314.684462 109.089207 
L 314.612156 108.874494 
L 313.889095 108.892227 
L 313.889095 108.791835 
L 313.816789 108.576023 
L 313.23834 108.679117 
L 313.166034 108.708643 
L 312.009135 108.815082 
L 312.009135 108.829949 
L 311.936829 108.612482 
L 311.864523 108.612482 
L 311.864523 108.511019 
L 311.864523 108.394664 
L 311.792217 108.409446 
L 311.286074 108.381697 
L 311.286074 108.396507 
L 311.286074 108.279807 
L 311.213768 108.294598 
L 310.707625 108.266555 
L 310.707625 108.281375 
L 310.707625 108.047216 
L 310.635319 108.061988 
L 310.05687 108.04822 
L 310.05687 108.063028 
L 310.05687 107.827986 
L 309.984564 107.842747 
L 309.406115 107.946296 
L 309.333808 107.961121 
L 309.333808 107.740096 
L 308.755359 107.84376 
L 308.683053 107.873451 
L 308.466135 107.903175 
L 308.466135 107.799684 
L 308.466135 107.681254 
L 308.393829 107.69608 
L 307.381543 107.651701 
L 307.381543 107.666584 
L 307.381543 107.54753 
L 307.309237 107.562392 
L 306.730788 107.666657 
L 306.658481 107.696521 
L 306.152339 107.666732 
L 306.152339 107.681697 
L 306.152339 107.562022 
L 306.080032 107.576966 
L 306.007726 107.576966 
L 306.007726 107.472119 
L 306.007726 107.352254 
L 305.93542 107.367156 
L 304.63391 107.42685 
L 304.63391 106.30776 
L 304.200073 106.30776 
L 304.200073 106.153415 
L 304.127767 106.168141 
L 303.549318 106.271452 
L 303.477012 106.301044 
L 303.477012 106.1792 
L 302.898562 106.282824 
L 302.826256 106.312505 
L 302.247807 106.416655 
L 302.175501 106.446488 
L 300.584766 106.392275 
L 300.584766 106.407291 
L 300.584766 106.283953 
L 300.51246 106.298946 
L 299.934011 106.389084 
L 299.861705 106.434269 
L 299.57248 106.355721 
L 299.57248 106.370794 
L 299.57248 106.246882 
L 299.500174 106.261933 
L 298.921725 106.367532 
L 298.849419 106.397781 
L 298.27097 106.379412 
L 298.27097 106.394579 
L 298.27097 106.145272 
L 298.198664 106.160385 
L 297.041766 106.262857 
L 296.969459 106.293307 
L 296.680235 106.213551 
L 296.680235 106.228784 
L 296.680235 106.103181 
L 296.607929 106.118391 
L 295.378724 106.110436 
L 295.378724 106.125732 
L 295.378724 105.999331 
L 295.306418 106.014604 
L 295.234112 106.014604 
L 295.234112 106.029886 
L 295.234112 105.903346 
L 295.161806 105.918604 
L 294.583357 106.025661 
L 294.511051 106.056329 
L 293.932602 106.036782 
L 293.932602 106.05216 
L 293.860296 105.812856 
L 293.281847 105.920356 
L 293.20954 105.951151 
L 293.20954 105.823397 
L 292.052642 105.926698 
L 291.980336 105.95767 
L 291.401887 106.066362 
L 291.329581 106.0975 
L 290.751132 106.206774 
L 290.678826 106.238079 
L 290.678826 106.109004 
L 290.100377 106.218628 
L 290.02807 106.250033 
L 289.883458 106.265749 
L 289.883458 106.151951 
L 289.883458 106.02235 
L 289.811152 106.038017 
L 289.232703 106.147951 
L 289.232703 106.163694 
L 289.015785 106.163694 
L 289.015785 106.080889 
L 289.015785 105.950722 
L 288.943478 105.966434 
L 288.365029 106.07668 
L 288.292723 106.108264 
L 287.931193 106.171546 
L 287.931193 106.056629 
L 287.931193 105.925788 
L 287.858886 105.941572 
L 287.280437 105.921134 
L 287.280437 105.93696 
L 287.280437 105.805647 
L 287.208131 105.821448 
L 284.966641 105.769535 
L 284.966641 105.785494 
L 284.966641 105.652649 
L 284.894335 105.668582 
L 284.388192 105.764385 
L 284.315886 105.796397 
L 283.809743 105.892671 
L 283.809743 105.908751 
L 283.809743 105.77525 
L 283.737437 105.791304 
L 283.231294 105.887835 
L 283.158988 105.920091 
L 283.158988 105.65219 
L 282.652845 105.614468 
L 282.652845 105.630562 
L 282.652845 105.496149 
L 282.580539 105.512216 
L 282.074396 105.608826 
L 282.002089 105.64111 
L 281.857477 105.657266 
L 281.857477 105.538533 
L 281.857477 105.403549 
L 281.785171 105.419652 
L 281.279028 105.51648 
L 281.206722 105.548837 
L 281.206722 105.413435 
L 280.917497 105.461934 
L 280.917497 105.342486 
L 280.917497 105.206767 
L 280.845191 105.222889 
L 280.339048 105.319833 
L 280.266742 105.352228 
L 279.760599 105.449658 
L 279.688293 105.482217 
L 279.688293 105.209246 
L 279.543681 105.225465 
L 279.543681 105.105005 
L 279.471375 104.710508 
L 279.18215 104.758832 
L 279.18215 104.637736 
L 279.109844 104.241529 
L 278.748313 104.167809 
L 278.748313 104.183806 
L 278.748313 104.045918 
L 278.676007 104.061887 
L 278.314477 103.987694 
L 278.314477 104.003675 
L 278.314477 103.86538 
L 278.24217 103.881332 
L 278.169864 103.881332 
L 278.169864 103.897295 
L 278.169864 103.758834 
L 278.097558 103.774767 
L 276.00068 103.805723 
L 276.00068 103.68184 
L 276.00068 103.541755 
L 275.928374 103.557798 
L 275.349925 103.529893 
L 275.349925 103.545978 
L 275.349925 103.405353 
L 275.277619 103.421409 
L 275.133007 103.437475 
L 275.133007 103.312715 
L 275.060701 101.773098 
L 274.69917 101.693463 
L 274.69917 101.709073 
L 274.626864 101.012209 
L 274.337639 100.915612 
L 274.337639 100.931025 
L 274.337639 100.644864 
L 274.265333 100.660204 
L 274.048415 100.690913 
L 274.048415 100.562895 
L 273.976109 100.00358 
L 273.903802 100.00358 
L 273.903802 100.01876 
L 273.903802 99.87482 
L 273.831496 99.889968 
L 273.75919 99.889968 
L 273.75919 99.905126 
L 273.75919 99.761007 
L 273.036129 99.761007 
L 273.036129 98.89825 
L 272.963823 98.913176 
L 272.891517 98.913176 
L 272.891517 98.928112 
L 272.81921 97.191509 
L 272.674598 97.191509 
L 272.674598 97.220389 
L 272.602292 96.794387 
L 272.45768 96.808719 
L 272.45768 96.823061 
L 272.45768 96.381463 
L 272.385374 96.395682 
L 272.313067 96.395682 
L 272.313067 96.409911 
L 272.240761 95.537509 
L 272.023843 95.565479 
L 272.023843 95.431226 
L 271.951537 94.702219 
L 271.879231 94.702219 
L 271.879231 94.715967 
L 271.879231 93.521674 
L 271.806924 93.535067 
L 271.662312 93.54847 
L 271.662312 93.561882 
L 271.662312 93.412008 
L 271.590006 93.425383 
L 271.228475 93.328768 
L 271.228475 92.890783 
L 271.156169 92.904027 
L 270.650026 92.983682 
L 270.650026 92.845962 
L 270.57772 92.253916 
L 270.071577 92.180733 
L 270.071577 92.19383 
L 270.071577 92.041814 
L 269.999271 92.054873 
L 269.854659 92.067942 
L 269.854659 92.081019 
L 269.854659 91.928758 
L 269.782353 91.941797 
L 269.203904 91.880573 
L 269.203904 91.893636 
L 269.203904 91.434632 
L 269.131597 91.44756 
L 268.914679 91.44756 
L 268.914679 91.332996 
L 268.842373 91.345911 
L 268.191618 91.295613 
L 268.191618 91.30856 
L 268.191618 91.154465 
L 268.119312 91.167373 
L 267.974699 91.180289 
L 267.974699 91.193214 
L 267.974699 90.884415 
L 267.902393 90.897252 
L 267.39625 90.819557 
L 267.39625 90.832407 
L 267.39625 90.67735 
L 267.323944 90.690159 
L 265.227066 90.582319 
L 265.227066 90.595238 
L 265.227066 90.438258 
L 265.15476 90.451136 
L 263.419413 90.433109 
L 263.419413 90.446103 
L 263.419413 90.28752 
L 263.347107 90.300472 
L 262.696351 90.40442 
L 262.624045 90.430499 
L 262.045596 90.362441 
L 262.045596 90.375507 
L 262.045596 90.215716 
L 261.97329 90.228739 
L 261.322535 90.33326 
L 261.322535 90.346367 
L 261.322535 90.185939 
L 261.250229 90.199003 
L 260.599474 90.30385 
L 260.527167 90.330156 
L 259.876412 90.435756 
L 259.804106 90.462251 
L 259.804106 90.300596 
L 259.7318 90.300596 
L 259.7318 90.313804 
L 259.659494 89.841037 
L 259.587188 89.841037 
L 259.587188 89.854104 
L 259.587188 89.691821 
L 259.514882 89.704844 
L 258.79182 89.659528 
L 258.79182 89.672591 
L 258.79182 89.509479 
L 258.719514 89.522497 
L 258.068759 89.626978 
L 258.068759 89.64008 
L 258.068759 89.476304 
L 257.996453 89.489362 
L 257.779534 89.515506 
L 257.779534 89.528592 
L 257.779534 89.200243 
L 257.707228 89.213228 
L 257.418004 89.252242 
L 257.418004 89.265265 
L 257.418004 89.100635 
L 257.345698 89.113613 
L 255.031901 89.143778 
L 255.031901 88.532508 
L 254.959595 88.545462 
L 254.742677 88.5714 
L 254.742677 88.584384 
L 254.742677 88.416813 
L 254.670371 88.429749 
L 253.079636 88.534666 
L 253.007329 88.560858 
L 252.790411 88.58709 
L 252.790411 88.60022 
L 252.790411 88.430833 
L 252.718105 88.443915 
L 252.06735 88.548923 
L 251.995044 88.575274 
L 251.850431 88.588464 
L 251.850431 88.601665 
L 251.850431 88.431383 
L 251.778125 88.444535 
L 251.488901 88.484047 
L 251.488901 88.497238 
L 251.488901 88.326531 
L 251.416594 88.339672 
L 250.765839 88.445161 
L 250.693533 88.471633 
L 250.548921 88.484884 
L 250.548921 88.498146 
L 250.548921 88.326531 
L 250.476615 88.339742 
L 249.825859 88.445794 
L 249.753553 88.472408 
L 249.536635 88.499063 
L 249.536635 88.512406 
L 249.536635 88.167088 
L 249.464329 88.180319 
L 248.88588 88.273221 
L 248.88588 88.113125 
L 248.88588 87.939584 
L 248.813574 87.952784 
L 248.668961 87.965993 
L 248.668961 87.979213 
L 248.668961 87.805354 
L 248.596655 87.818522 
L 247.9459 87.924233 
L 247.873594 87.950763 
L 247.656675 87.977334 
L 247.656675 87.990635 
L 247.656675 87.815772 
L 247.584369 87.82902 
L 247.512063 87.82902 
L 247.512063 87.842279 
L 247.512063 87.667155 
L 247.439757 87.680362 
L 246.789002 87.786383 
L 246.716696 87.812991 
L 246.06594 87.91984 
L 245.993634 87.946657 
L 245.487491 87.850387 
L 245.487491 87.86381 
L 245.487491 87.509324 
L 245.415185 87.522629 
L 245.270573 87.535945 
L 245.270573 87.549271 
L 245.270573 87.371626 
L 245.198267 87.384898 
L 244.619818 87.478095 
L 244.619818 87.313083 
L 244.619818 87.134575 
L 244.547512 87.147811 
L 243.896756 87.254077 
L 243.896756 87.267407 
L 243.896756 87.088104 
L 243.82445 87.101379 
L 243.535226 87.141268 
L 243.535226 87.154585 
L 243.535226 86.974811 
L 243.46292 86.988072 
L 242.884471 87.081202 
L 242.884471 86.914033 
L 242.812164 86.565728 
L 242.595246 86.592074 
L 242.595246 86.605262 
L 242.595246 86.424047 
L 242.52294 86.437179 
L 241.872185 86.542613 
L 241.799879 86.569077 
L 240.136837 86.679408 
L 240.064531 86.706251 
L 239.413776 86.814062 
L 239.34147 86.841124 
L 238.690715 86.949815 
L 238.618409 86.977099 
L 237.027674 87.079524 
L 236.955367 87.107185 
L 236.810755 87.121033 
L 236.810755 87.134892 
L 236.810755 86.760314 
L 236.738449 86.774041 
L 236.087694 86.884268 
L 236.015388 86.91194 
L 235.436939 87.009152 
L 235.364633 87.037032 
L 234.786183 87.134976 
L 234.713877 87.163066 
L 234.135428 87.26175 
L 234.063122 87.290053 
L 234.063122 86.909307 
L 233.484673 87.0077 
L 233.412367 87.035919 
L 232.110856 87.085155 
L 232.110856 86.133751 
L 232.03855 86.147638 
L 231.460101 86.245182 
L 231.387795 86.273159 
L 231.098571 86.315215 
L 231.098571 86.329257 
L 231.098571 86.134552 
L 231.026264 86.148529 
L 230.447815 86.246705 
L 230.375509 86.274864 
L 229.79706 86.373805 
L 229.724754 86.402183 
L 229.146305 86.501897 
L 229.073999 86.530498 
L 228.640162 86.602218 
L 228.640162 86.616599 
L 228.640162 86.419051 
L 228.567856 86.433365 
L 227.989407 86.533915 
L 227.917101 86.562756 
L 227.627876 86.606113 
L 227.627876 86.620591 
L 227.55557 86.421745 
L 227.55557 86.436155 
L 226.977121 86.537377 
L 226.904815 86.566412 
L 226.326366 86.668439 
L 226.25406 86.697705 
L 225.892529 86.741702 
L 225.892529 86.570116 
L 225.820223 86.584751 
L 225.241774 86.687561 
L 225.169468 86.717053 
L 224.591018 86.82069 
L 224.518712 86.85042 
L 223.940263 86.954894 
L 223.940263 86.969873 
L 223.940263 86.766453 
L 223.867957 86.781361 
L 223.43412 86.856098 
L 223.43412 86.871086 
L 223.43412 86.462509 
L 223.361814 86.47734 
L 222.783365 86.58153 
L 222.711059 86.61142 
L 222.13261 86.716463 
L 222.060304 86.746598 
L 220.975712 86.75166 
L 220.975712 86.766854 
L 220.903406 86.559148 
L 220.903406 86.574268 
L 220.324956 86.680495 
L 220.25265 86.710971 
L 219.674201 86.818082 
L 219.601895 86.848812 
L 219.023446 86.956816 
L 218.95114 86.987804 
L 218.95114 86.777404 
L 218.372691 86.885679 
L 218.300385 86.916745 
L 218.155772 86.932299 
L 218.155772 86.947868 
L 218.155772 86.736272 
L 218.083466 86.751764 
L 216.348119 86.819564 
L 216.348119 86.2703 
L 216.275813 86.285784 
L 215.697364 86.394584 
L 215.697364 86.410186 
L 215.697364 86.19441 
L 215.625058 86.209932 
L 214.901996 86.256585 
L 214.82969 85.293908 
L 214.757384 85.293908 
L 214.757384 85.309124 
L 214.685078 84.010987 
L 214.46816 84.055001 
L 214.46816 84.055001 
L 214.395853 83.835072 
L 214.395853 83.849673 
L 214.178935 83.878916 
L 214.178935 83.893559 
L 214.106629 83.024382 
L 214.034323 83.024382 
L 214.034323 83.038654 
L 214.034323 82.373226 
L 213.962017 82.387209 
L 213.383568 82.387209 
L 213.383568 82.499565 
L 213.383568 82.276411 
L 213.311261 82.290416 
L 213.166649 82.304433 
L 213.166649 82.318465 
L 213.094343 82.094787 
L 213.094343 82.108729 
L 213.022037 82.108729 
L 213.022037 82.122686 
L 213.022037 81.898584 
L 212.949731 81.912451 
L 212.877425 81.912451 
L 212.877425 81.926332 
L 212.805118 81.040379 
L 212.154363 81.148698 
L 212.082057 81.175911 
L 211.503608 81.271582 
L 211.503608 81.285303 
L 211.503608 81.057899 
L 211.431302 81.071528 
L 211.214383 81.098827 
L 211.214383 81.112496 
L 211.214383 80.65616 
L 211.142077 80.669629 
L 210.997465 80.683113 
L 210.997465 80.69661 
L 210.997465 80.46778 
L 210.925159 80.481183 
L 210.780547 80.494599 
L 210.780547 80.508029 
L 210.780547 80.278648 
L 210.708241 80.291983 
L 210.057485 80.385704 
L 210.057485 80.181908 
L 209.985179 79.950982 
L 209.985179 79.964233 
L 209.840567 79.977497 
L 209.840567 79.990775 
L 209.840567 79.759288 
L 209.768261 79.772469 
L 209.117506 79.878399 
L 209.117506 79.891701 
L 209.117506 79.658875 
L 209.045199 79.672079 
L 208.394444 79.778193 
L 208.322138 79.804857 
L 208.032914 79.844954 
L 208.032914 79.858347 
L 208.032914 79.623605 
L 207.960607 79.636898 
L 207.309852 79.743738 
L 207.237546 79.770585 
L 207.16524 79.770585 
L 207.16524 79.784029 
L 207.092934 79.324322 
L 206.803709 79.36409 
L 206.803709 79.377373 
L 206.803709 79.139964 
L 206.731403 79.153146 
L 206.297566 79.219257 
L 206.297566 79.23252 
L 206.297566 78.994054 
L 206.22526 79.007215 
L 205.574505 79.112991 
L 205.574505 79.126275 
L 205.574505 78.886389 
L 205.502199 78.899569 
L 205.28528 78.92597 
L 205.28528 78.939191 
L 205.28528 78.698581 
L 205.212974 78.711697 
L 205.068362 78.724827 
L 205.068362 78.737971 
L 205.068362 78.496753 
L 204.996056 78.509791 
L 204.779137 78.535908 
L 204.779137 78.548987 
L 204.779137 78.307038 
L 204.706831 78.320011 
L 204.056076 78.424285 
L 203.98377 78.450491 
L 203.98377 78.206959 
L 203.333015 78.311361 
L 203.260709 78.3376 
L 202.609953 78.443115 
L 202.537647 78.469634 
L 202.248423 78.509519 
L 202.248423 78.522843 
L 202.248423 78.276095 
L 202.176117 78.289308 
L 201.525361 78.395522 
L 201.453055 78.422219 
L 201.019218 78.489211 
L 201.019218 78.502653 
L 200.946912 78.017275 
L 200.296157 78.123403 
L 200.223851 78.150079 
L 200.223851 77.647591 
L 199.86232 77.700081 
L 199.86232 77.713239 
L 199.86232 77.460935 
L 199.790014 77.473977 
L 199.717708 77.473977 
L 199.717708 77.487033 
L 199.717708 77.234191 
L 199.645402 77.247131 
L 198.994647 77.351158 
L 198.922341 77.377307 
L 197.982361 77.41664 
L 197.982361 77.035789 
L 197.910055 77.048805 
L 197.548524 77.101013 
L 197.548524 77.114102 
L 197.548524 76.59843 
L 197.476218 76.61126 
L 197.259299 76.636964 
L 197.259299 76.649837 
L 197.259299 76.131918 
L 197.186993 76.144531 
L 196.536238 76.245941 
L 196.536238 76.258682 
L 196.536238 75.736827 
L 196.463932 75.749302 
L 195.813177 75.849614 
L 195.740871 75.874833 
L 195.451646 75.91277 
L 195.451646 75.925444 
L 195.451646 75.661959 
L 195.37934 75.674505 
L 195.090115 75.712229 
L 195.090115 75.724833 
L 195.090115 75.460332 
L 195.017809 75.472807 
L 194.367054 75.573115 
L 194.367054 75.585718 
L 194.367054 75.319471 
L 194.294748 75.331943 
L 194.005523 75.369445 
L 194.005523 75.381975 
L 194.005523 75.114692 
L 193.933217 75.127089 
L 193.282462 75.226784 
L 193.210156 75.251852 
L 192.559401 75.352707 
L 192.487095 75.378068 
L 191.836339 75.480103 
L 191.764033 75.505761 
L 191.113278 75.608998 
L 191.040972 75.634959 
L 190.390217 75.739418 
L 190.317911 75.765688 
L 189.667155 75.871391 
L 189.594849 75.897974 
L 189.450237 75.91129 
L 189.450237 75.924621 
L 189.450237 75.647449 
L 189.377931 75.660639 
L 189.233318 75.673844 
L 189.233318 75.687065 
L 189.233318 75.130777 
L 189.161012 75.143697 
L 188.510257 75.247614 
L 188.437951 75.273749 
L 187.787196 75.378926 
L 187.71489 75.405379 
L 187.064134 75.511838 
L 186.991828 75.538615 
L 186.341073 75.64638 
L 186.268767 75.673487 
L 185.618012 75.782583 
L 185.545706 75.810025 
L 184.89495 75.920476 
L 184.822644 75.94826 
L 184.244195 76.046051 
L 184.244195 76.060091 
L 184.244195 75.770012 
L 184.171889 75.783897 
L 183.59344 75.88158 
L 183.521134 75.909647 
L 182.942685 76.008441 
L 182.870379 76.036829 
L 182.29193 76.136754 
L 182.219623 76.165467 
L 181.641174 76.266542 
L 181.568868 76.295587 
L 180.990419 76.397832 
L 180.918113 76.427214 
L 180.628888 76.471429 
L 180.628888 76.486206 
L 180.628888 76.186851 
L 180.556582 76.201462 
L 179.978133 76.304275 
L 179.905827 76.333822 
L 179.327378 76.437843 
L 179.327378 76.452781 
L 179.327378 76.149686 
L 179.255072 76.164455 
L 178.676623 76.268381 
L 178.604317 76.29825 
L 178.025868 76.403413 
L 177.953561 76.433639 
L 177.808949 76.448781 
L 177.808949 76.463944 
L 177.808949 76.156435 
L 177.736643 76.171424 
L 177.158194 76.276907 
L 177.085888 76.307226 
L 176.507439 76.413983 
L 176.507439 76.429316 
L 176.507439 76.11786 
L 176.435133 76.133014 
L 176.29052 76.148189 
L 176.29052 76.163384 
L 176.29052 75.85091 
L 176.218214 75.865926 
L 175.639765 75.971603 
L 175.567459 76.001981 
L 174.98901 76.108955 
L 174.916704 76.139706 
L 174.627479 76.185992 
L 174.627479 76.201462 
L 174.627479 75.883881 
L 174.555173 75.899166 
L 173.976724 76.006749 
L 173.904418 76.037678 
L 173.325969 76.146603 
L 173.253663 76.177918 
L 172.675214 76.288211 
L 172.602907 76.319921 
L 172.096765 76.415584 
L 172.024458 76.447651 
L 171.518315 76.544393 
L 171.446009 76.576823 
L 170.939866 76.674664 
L 170.86756 76.707462 
L 170.361417 76.77334 
L 170.289111 76.839593 
L 170.144499 76.856216 
L 170.144499 76.872862 
L 170.144499 76.54145 
L 170.072193 76.557895 
L 169.56605 76.65706 
L 169.493744 76.690306 
L 169.493744 76.356374 
L 169.059907 76.438762 
L 169.059907 76.455311 
L 169.059907 76.119516 
L 168.987601 76.135858 
L 168.62607 76.201462 
L 168.62607 75.880245 
L 168.553764 75.896496 
L 168.047621 75.994499 
L 167.975315 76.027359 
L 167.758396 76.060314 
L 167.758396 76.076829 
L 167.758396 75.735822 
L 167.68609 75.752121 
L 167.613784 75.752121 
L 167.613784 75.768445 
L 167.613784 75.426458 
L 167.541478 75.442566 
L 167.035335 75.539714 
L 166.963029 75.572289 
L 166.456886 75.670595 
L 166.38458 75.70356 
L 165.878437 75.803045 
L 165.806131 75.836406 
L 165.299988 75.937092 
L 165.227682 75.970857 
L 164.721539 76.072765 
L 164.649233 76.106941 
L 164.14309 76.210094 
L 164.070784 76.244689 
L 163.564641 76.349109 
L 163.492334 76.38413 
L 162.986192 76.489842 
L 162.913885 76.525297 
L 162.407742 76.632325 
L 162.335436 76.668222 
L 161.829293 76.758458 
L 161.756987 76.812938 
L 161.395457 76.885978 
L 161.395457 76.904309 
L 161.395457 76.539807 
L 161.32315 76.557895 
L 160.817007 76.667024 
L 160.744701 76.703631 
L 160.238558 76.814151 
L 160.166252 76.851227 
L 159.732415 76.944434 
L 159.660109 76.981926 
L 159.226273 77.076185 
L 159.153966 77.114102 
L 158.72013 77.20943 
L 158.647823 77.247778 
L 158.213987 77.344194 
L 158.141681 77.382981 
L 157.852456 77.441398 
L 157.852456 77.460935 
L 157.852456 77.081961 
L 157.057088 77.081961 
L 157.057088 76.529348 
L 156.984782 76.548371 
L 156.550946 76.643963 
L 156.478639 76.682423 
L 156.044803 76.779136 
L 155.972496 76.818049 
L 155.53866 76.915902 
L 155.466354 76.955275 
L 155.032517 77.054289 
L 154.960211 77.094131 
L 154.381761 77.194327 
L 154.309455 77.275101 
L 153.875619 77.376848 
L 153.803312 77.417792 
L 153.369476 77.52077 
L 153.297169 77.562211 
L 152.863333 77.666443 
L 152.791027 77.70839 
L 152.35719 77.813899 
L 152.284884 77.856361 
L 151.41721 77.920334 
L 151.344904 78.136032 
L 150.911067 78.24532 
L 150.838761 78.289308 
L 150.838761 77.877267 
L 150.188006 77.98618 
L 150.188006 77.658071 
L 150.1157 77.679774 
L 149.681863 77.788877 
L 149.609557 77.832795 
L 149.17572 77.943291 
L 149.103414 77.987771 
L 73.832727 78.032414 
L 73.832727 53.568 
L 73.832727 53.568 
" clip-path="url(#pd6d197e3d7)" style="fill: none; stroke: #1f77b4; stroke-width: 1.5; stroke-linecap: square"/>
   </g>
   <g id="patch_3">
    <path d="M 57.6 307.584 
L 57.6 41.472 
" style="fill: none; stroke: #000000; stroke-width: 0.8; stroke-linejoin: miter; stroke-linecap: square"/>
   </g>
   <g id="patch_4">
    <path d="M 414.72 307.584 
L 414.72 41.472 
" style="fill: none; stroke: #000000; stroke-width: 0.8; stroke-linejoin: miter; stroke-linecap: square"/>
   </g>
   <g id="patch_5">
    <path d="M 57.6 307.584 
L 414.72 307.584 
" style="fill: none; stroke: #000000; stroke-width: 0.8; stroke-linejoin: miter; stroke-linecap: square"/>
   </g>
   <g id="patch_6">
    <path d="M 57.6 41.472 
L 414.72 41.472 
" style="fill: none; stroke: #000000; stroke-width: 0.8; stroke-linejoin: miter; stroke-linecap: square"/>
   </g>
  </g>
 </g>
 <defs>
  <clipPath id="pd6d197e3d7">
   <rect x="57.6" y="41.472" width="357.12" height="266.112"/>
  </clipPath>
 </defs>
</svg>
