<?xml version="1.0" encoding="utf-8" standalone="no"?>
<!DOCTYPE svg PUBLIC "-//W3C//DTD SVG 1.1//EN"
        "http://www.w3.org/Graphics/SVG/1.1/DTD/svg11.dtd">
<svg xmlns:xlink="http://www.w3.org/1999/xlink" width="460.8pt" height="345.6pt" viewBox="0 0 460.8 345.6"
     xmlns="http://www.w3.org/2000/svg" version="1.1">
    <metadata>
        <rdf:RDF xmlns:dc="http://purl.org/dc/elements/1.1/" xmlns:cc="http://creativecommons.org/ns#"
                 xmlns:rdf="http://www.w3.org/1999/02/22-rdf-syntax-ns#">
            <cc:Work>
                <dc:type rdf:resource="http://purl.org/dc/dcmitype/StillImage"/>
                <dc:date>2022-11-30T18:47:55.037536</dc:date>
                <dc:format>image/svg+xml</dc:format>
                <dc:creator>
                    <cc:Agent>
                        <dc:title>Matplotlib v3.6.2, https://matplotlib.org/</dc:title>
                    </cc:Agent>
                </dc:creator>
            </cc:Work>
        </rdf:RDF>
    </metadata>
    <defs>
        <style type="text/css">*{stroke-linejoin: round; stroke-linecap: butt}</style>
    </defs>
    <g id="figure_1">
        <g id="patch_1">
            <path d="M 0 345.6
L 460.8 345.6 
L 460.8 0 
L 0 0 
z
" style="fill: #ffffff"/>
        </g>
        <g id="axes_1">
            <g id="patch_2">
                <path d="M 57.6 307.584
L 414.72 307.584 
L 414.72 41.472 
L 57.6 41.472 
z
" style="fill: #eaeaf2"/>
            </g>
            <g id="matplotlib.axis_1">
                <g id="xtick_1">
                    <g id="line2d_1">
                        <path d="M 73.832727 307.584
L 73.832727 41.472 
" clip-path="url(#p8782f27534)" style="fill: none; stroke: #ffffff; stroke-width: 0.8; stroke-linecap: round"/>
                    </g>
                    <g id="line2d_2"/>
                    <g id="text_1">
                        <!-- 0.0 -->
                        <g style="fill: #262626" transform="translate(66.882727 318.241812) scale(0.1 -0.1)">
                            <defs>
                                <path id="ArialMT-30" d="M 266 2259
Q 266 3072 433 3567 
Q 600 4063 929 4331 
Q 1259 4600 1759 4600 
Q 2128 4600 2406 4451 
Q 2684 4303 2865 4023 
Q 3047 3744 3150 3342 
Q 3253 2941 3253 2259 
Q 3253 1453 3087 958 
Q 2922 463 2592 192 
Q 2263 -78 1759 -78 
Q 1097 -78 719 397 
Q 266 969 266 2259 
z
M 844 2259 
Q 844 1131 1108 757 
Q 1372 384 1759 384 
Q 2147 384 2411 759 
Q 2675 1134 2675 2259 
Q 2675 3391 2411 3762 
Q 2147 4134 1753 4134 
Q 1366 4134 1134 3806 
Q 844 3388 844 2259 
z
" transform="scale(0.015625)"/>
                                <path id="ArialMT-2e" d="M 581 0
L 581 641 
L 1222 641 
L 1222 0 
L 581 0 
z
" transform="scale(0.015625)"/>
                            </defs>
                            <use xlink:href="#ArialMT-30"/>
                            <use xlink:href="#ArialMT-2e" x="55.615234"/>
                            <use xlink:href="#ArialMT-30" x="83.398438"/>
                        </g>
                    </g>
                </g>
                <g id="xtick_2">
                    <g id="line2d_3">
                        <path d="M 138.763636 307.584
L 138.763636 41.472 
" clip-path="url(#p8782f27534)" style="fill: none; stroke: #ffffff; stroke-width: 0.8; stroke-linecap: round"/>
                    </g>
                    <g id="line2d_4"/>
                    <g id="text_2">
                        <!-- 0.2 -->
                        <g style="fill: #262626" transform="translate(131.813636 318.241812) scale(0.1 -0.1)">
                            <defs>
                                <path id="ArialMT-32" d="M 3222 541
L 3222 0 
L 194 0 
Q 188 203 259 391 
Q 375 700 629 1000 
Q 884 1300 1366 1694 
Q 2113 2306 2375 2664 
Q 2638 3022 2638 3341 
Q 2638 3675 2398 3904 
Q 2159 4134 1775 4134 
Q 1369 4134 1125 3890 
Q 881 3647 878 3216 
L 300 3275 
Q 359 3922 746 4261 
Q 1134 4600 1788 4600 
Q 2447 4600 2831 4234 
Q 3216 3869 3216 3328 
Q 3216 3053 3103 2787 
Q 2991 2522 2730 2228 
Q 2469 1934 1863 1422 
Q 1356 997 1212 845 
Q 1069 694 975 541 
L 3222 541 
z
" transform="scale(0.015625)"/>
                            </defs>
                            <use xlink:href="#ArialMT-30"/>
                            <use xlink:href="#ArialMT-2e" x="55.615234"/>
                            <use xlink:href="#ArialMT-32" x="83.398438"/>
                        </g>
                    </g>
                </g>
                <g id="xtick_3">
                    <g id="line2d_5">
                        <path d="M 203.694545 307.584
L 203.694545 41.472 
" clip-path="url(#p8782f27534)" style="fill: none; stroke: #ffffff; stroke-width: 0.8; stroke-linecap: round"/>
                    </g>
                    <g id="line2d_6"/>
                    <g id="text_3">
                        <!-- 0.4 -->
                        <g style="fill: #262626" transform="translate(196.744545 318.241812) scale(0.1 -0.1)">
                            <defs>
                                <path id="ArialMT-34" d="M 2069 0
L 2069 1097 
L 81 1097 
L 81 1613 
L 2172 4581 
L 2631 4581 
L 2631 1613 
L 3250 1613 
L 3250 1097 
L 2631 1097 
L 2631 0 
L 2069 0 
z
M 2069 1613 
L 2069 3678 
L 634 1613 
L 2069 1613 
z
" transform="scale(0.015625)"/>
                            </defs>
                            <use xlink:href="#ArialMT-30"/>
                            <use xlink:href="#ArialMT-2e" x="55.615234"/>
                            <use xlink:href="#ArialMT-34" x="83.398438"/>
                        </g>
                    </g>
                </g>
                <g id="xtick_4">
                    <g id="line2d_7">
                        <path d="M 268.625455 307.584
L 268.625455 41.472 
" clip-path="url(#p8782f27534)" style="fill: none; stroke: #ffffff; stroke-width: 0.8; stroke-linecap: round"/>
                    </g>
                    <g id="line2d_8"/>
                    <g id="text_4">
                        <!-- 0.6 -->
                        <g style="fill: #262626" transform="translate(261.675455 318.241812) scale(0.1 -0.1)">
                            <defs>
                                <path id="ArialMT-36" d="M 3184 3459
L 2625 3416 
Q 2550 3747 2413 3897 
Q 2184 4138 1850 4138 
Q 1581 4138 1378 3988 
Q 1113 3794 959 3422 
Q 806 3050 800 2363 
Q 1003 2672 1297 2822 
Q 1591 2972 1913 2972 
Q 2475 2972 2870 2558 
Q 3266 2144 3266 1488 
Q 3266 1056 3080 686 
Q 2894 316 2569 119 
Q 2244 -78 1831 -78 
Q 1128 -78 684 439 
Q 241 956 241 2144 
Q 241 3472 731 4075 
Q 1159 4600 1884 4600 
Q 2425 4600 2770 4297 
Q 3116 3994 3184 3459 
z
M 888 1484 
Q 888 1194 1011 928 
Q 1134 663 1356 523 
Q 1578 384 1822 384 
Q 2178 384 2434 671 
Q 2691 959 2691 1453 
Q 2691 1928 2437 2201 
Q 2184 2475 1800 2475 
Q 1419 2475 1153 2201 
Q 888 1928 888 1484 
z
" transform="scale(0.015625)"/>
                            </defs>
                            <use xlink:href="#ArialMT-30"/>
                            <use xlink:href="#ArialMT-2e" x="55.615234"/>
                            <use xlink:href="#ArialMT-36" x="83.398438"/>
                        </g>
                    </g>
                </g>
                <g id="xtick_5">
                    <g id="line2d_9">
                        <path d="M 333.556364 307.584
L 333.556364 41.472 
" clip-path="url(#p8782f27534)" style="fill: none; stroke: #ffffff; stroke-width: 0.8; stroke-linecap: round"/>
                    </g>
                    <g id="line2d_10"/>
                    <g id="text_5">
                        <!-- 0.8 -->
                        <g style="fill: #262626" transform="translate(326.606364 318.241812) scale(0.1 -0.1)">
                            <defs>
                                <path id="ArialMT-38" d="M 1131 2484
Q 781 2613 612 2850 
Q 444 3088 444 3419 
Q 444 3919 803 4259 
Q 1163 4600 1759 4600 
Q 2359 4600 2725 4251 
Q 3091 3903 3091 3403 
Q 3091 3084 2923 2848 
Q 2756 2613 2416 2484 
Q 2838 2347 3058 2040 
Q 3278 1734 3278 1309 
Q 3278 722 2862 322 
Q 2447 -78 1769 -78 
Q 1091 -78 675 323 
Q 259 725 259 1325 
Q 259 1772 486 2073 
Q 713 2375 1131 2484 
z
M 1019 3438 
Q 1019 3113 1228 2906 
Q 1438 2700 1772 2700 
Q 2097 2700 2305 2904 
Q 2513 3109 2513 3406 
Q 2513 3716 2298 3927 
Q 2084 4138 1766 4138 
Q 1444 4138 1231 3931 
Q 1019 3725 1019 3438 
z
M 838 1322 
Q 838 1081 952 856 
Q 1066 631 1291 507 
Q 1516 384 1775 384 
Q 2178 384 2440 643 
Q 2703 903 2703 1303 
Q 2703 1709 2433 1975 
Q 2163 2241 1756 2241 
Q 1359 2241 1098 1978 
Q 838 1716 838 1322 
z
" transform="scale(0.015625)"/>
                            </defs>
                            <use xlink:href="#ArialMT-30"/>
                            <use xlink:href="#ArialMT-2e" x="55.615234"/>
                            <use xlink:href="#ArialMT-38" x="83.398438"/>
                        </g>
                    </g>
                </g>
                <g id="xtick_6">
                    <g id="line2d_11">
                        <path d="M 398.487273 307.584
L 398.487273 41.472 
" clip-path="url(#p8782f27534)" style="fill: none; stroke: #ffffff; stroke-width: 0.8; stroke-linecap: round"/>
                    </g>
                    <g id="line2d_12"/>
                    <g id="text_6">
                        <!-- 1.0 -->
                        <g style="fill: #262626" transform="translate(391.537273 318.241812) scale(0.1 -0.1)">
                            <defs>
                                <path id="ArialMT-31" d="M 2384 0
L 1822 0 
L 1822 3584 
Q 1619 3391 1289 3197 
Q 959 3003 697 2906 
L 697 3450 
Q 1169 3672 1522 3987 
Q 1875 4303 2022 4600 
L 2384 4600 
L 2384 0 
z
" transform="scale(0.015625)"/>
                            </defs>
                            <use xlink:href="#ArialMT-31"/>
                            <use xlink:href="#ArialMT-2e" x="55.615234"/>
                            <use xlink:href="#ArialMT-30" x="83.398438"/>
                        </g>
                    </g>
                </g>
                <g id="text_7">
                    <!-- Recall -->
                    <g style="fill: #262626" transform="translate(222.26625 331.387125) scale(0.1 -0.1)">
                        <defs>
                            <path id="ArialMT-52" d="M 503 0
L 503 4581 
L 2534 4581 
Q 3147 4581 3465 4457 
Q 3784 4334 3975 4021 
Q 4166 3709 4166 3331 
Q 4166 2844 3850 2509 
Q 3534 2175 2875 2084 
Q 3116 1969 3241 1856 
Q 3506 1613 3744 1247 
L 4541 0 
L 3778 0 
L 3172 953 
Q 2906 1366 2734 1584 
Q 2563 1803 2427 1890 
Q 2291 1978 2150 2013 
Q 2047 2034 1813 2034 
L 1109 2034 
L 1109 0 
L 503 0 
z
M 1109 2559 
L 2413 2559 
Q 2828 2559 3062 2645 
Q 3297 2731 3419 2920 
Q 3541 3109 3541 3331 
Q 3541 3656 3305 3865 
Q 3069 4075 2559 4075 
L 1109 4075 
L 1109 2559 
z
" transform="scale(0.015625)"/>
                            <path id="ArialMT-65" d="M 2694 1069
L 3275 997 
Q 3138 488 2766 206 
Q 2394 -75 1816 -75 
Q 1088 -75 661 373 
Q 234 822 234 1631 
Q 234 2469 665 2931 
Q 1097 3394 1784 3394 
Q 2450 3394 2872 2941 
Q 3294 2488 3294 1666 
Q 3294 1616 3291 1516 
L 816 1516 
Q 847 969 1125 678 
Q 1403 388 1819 388 
Q 2128 388 2347 550 
Q 2566 713 2694 1069 
z
M 847 1978 
L 2700 1978 
Q 2663 2397 2488 2606 
Q 2219 2931 1791 2931 
Q 1403 2931 1139 2672 
Q 875 2413 847 1978 
z
" transform="scale(0.015625)"/>
                            <path id="ArialMT-63" d="M 2588 1216
L 3141 1144 
Q 3050 572 2676 248 
Q 2303 -75 1759 -75 
Q 1078 -75 664 370 
Q 250 816 250 1647 
Q 250 2184 428 2587 
Q 606 2991 970 3192 
Q 1334 3394 1763 3394 
Q 2303 3394 2647 3120 
Q 2991 2847 3088 2344 
L 2541 2259 
Q 2463 2594 2264 2762 
Q 2066 2931 1784 2931 
Q 1359 2931 1093 2626 
Q 828 2322 828 1663 
Q 828 994 1084 691 
Q 1341 388 1753 388 
Q 2084 388 2306 591 
Q 2528 794 2588 1216 
z
" transform="scale(0.015625)"/>
                            <path id="ArialMT-61" d="M 2588 409
Q 2275 144 1986 34 
Q 1697 -75 1366 -75 
Q 819 -75 525 192 
Q 231 459 231 875 
Q 231 1119 342 1320 
Q 453 1522 633 1644 
Q 813 1766 1038 1828 
Q 1203 1872 1538 1913 
Q 2219 1994 2541 2106 
Q 2544 2222 2544 2253 
Q 2544 2597 2384 2738 
Q 2169 2928 1744 2928 
Q 1347 2928 1158 2789 
Q 969 2650 878 2297 
L 328 2372 
Q 403 2725 575 2942 
Q 747 3159 1072 3276 
Q 1397 3394 1825 3394 
Q 2250 3394 2515 3294 
Q 2781 3194 2906 3042 
Q 3031 2891 3081 2659 
Q 3109 2516 3109 2141 
L 3109 1391 
Q 3109 606 3145 398 
Q 3181 191 3288 0 
L 2700 0 
Q 2613 175 2588 409 
z
M 2541 1666 
Q 2234 1541 1622 1453 
Q 1275 1403 1131 1340 
Q 988 1278 909 1158 
Q 831 1038 831 891 
Q 831 666 1001 516 
Q 1172 366 1500 366 
Q 1825 366 2078 508 
Q 2331 650 2450 897 
Q 2541 1088 2541 1459 
L 2541 1666 
z
" transform="scale(0.015625)"/>
                            <path id="ArialMT-6c" d="M 409 0
L 409 4581 
L 972 4581 
L 972 0 
L 409 0 
z
" transform="scale(0.015625)"/>
                        </defs>
                        <use xlink:href="#ArialMT-52"/>
                        <use xlink:href="#ArialMT-65" x="72.216797"/>
                        <use xlink:href="#ArialMT-63" x="127.832031"/>
                        <use xlink:href="#ArialMT-61" x="177.832031"/>
                        <use xlink:href="#ArialMT-6c" x="233.447266"/>
                        <use xlink:href="#ArialMT-6c" x="255.664062"/>
                    </g>
                </g>
            </g>
            <g id="matplotlib.axis_2">
                <g id="ytick_1">
                    <g id="line2d_13">
                        <path d="M 57.6 295.569309
L 414.72 295.569309 
" clip-path="url(#p8782f27534)" style="fill: none; stroke: #ffffff; stroke-width: 0.8; stroke-linecap: round"/>
                    </g>
                    <g id="line2d_14"/>
                    <g id="text_8">
                        <!-- 0.5 -->
                        <g style="fill: #262626" transform="translate(40.2 299.148215) scale(0.1 -0.1)">
                            <defs>
                                <path id="ArialMT-35" d="M 266 1200
L 856 1250 
Q 922 819 1161 601 
Q 1400 384 1738 384 
Q 2144 384 2425 690 
Q 2706 997 2706 1503 
Q 2706 1984 2436 2262 
Q 2166 2541 1728 2541 
Q 1456 2541 1237 2417 
Q 1019 2294 894 2097 
L 366 2166 
L 809 4519 
L 3088 4519 
L 3088 3981 
L 1259 3981 
L 1013 2750 
Q 1425 3038 1878 3038 
Q 2478 3038 2890 2622 
Q 3303 2206 3303 1553 
Q 3303 931 2941 478 
Q 2500 -78 1738 -78 
Q 1113 -78 717 272 
Q 322 622 266 1200 
z
" transform="scale(0.015625)"/>
                            </defs>
                            <use xlink:href="#ArialMT-30"/>
                            <use xlink:href="#ArialMT-2e" x="55.615234"/>
                            <use xlink:href="#ArialMT-35" x="83.398438"/>
                        </g>
                    </g>
                </g>
                <g id="ytick_2">
                    <g id="line2d_15">
                        <path d="M 57.6 247.169047
L 414.72 247.169047 
" clip-path="url(#p8782f27534)" style="fill: none; stroke: #ffffff; stroke-width: 0.8; stroke-linecap: round"/>
                    </g>
                    <g id="line2d_16"/>
                    <g id="text_9">
                        <!-- 0.6 -->
                        <g style="fill: #262626" transform="translate(40.2 250.747953) scale(0.1 -0.1)">
                            <use xlink:href="#ArialMT-30"/>
                            <use xlink:href="#ArialMT-2e" x="55.615234"/>
                            <use xlink:href="#ArialMT-36" x="83.398438"/>
                        </g>
                    </g>
                </g>
                <g id="ytick_3">
                    <g id="line2d_17">
                        <path d="M 57.6 198.768785
L 414.72 198.768785 
" clip-path="url(#p8782f27534)" style="fill: none; stroke: #ffffff; stroke-width: 0.8; stroke-linecap: round"/>
                    </g>
                    <g id="line2d_18"/>
                    <g id="text_10">
                        <!-- 0.7 -->
                        <g style="fill: #262626" transform="translate(40.2 202.347691) scale(0.1 -0.1)">
                            <defs>
                                <path id="ArialMT-37" d="M 303 3981
L 303 4522 
L 3269 4522 
L 3269 4084 
Q 2831 3619 2401 2847 
Q 1972 2075 1738 1259 
Q 1569 684 1522 0 
L 944 0 
Q 953 541 1156 1306 
Q 1359 2072 1739 2783 
Q 2119 3494 2547 3981 
L 303 3981 
z
" transform="scale(0.015625)"/>
                            </defs>
                            <use xlink:href="#ArialMT-30"/>
                            <use xlink:href="#ArialMT-2e" x="55.615234"/>
                            <use xlink:href="#ArialMT-37" x="83.398438"/>
                        </g>
                    </g>
                </g>
                <g id="ytick_4">
                    <g id="line2d_19">
                        <path d="M 57.6 150.368523
L 414.72 150.368523 
" clip-path="url(#p8782f27534)" style="fill: none; stroke: #ffffff; stroke-width: 0.8; stroke-linecap: round"/>
                    </g>
                    <g id="line2d_20"/>
                    <g id="text_11">
                        <!-- 0.8 -->
                        <g style="fill: #262626" transform="translate(40.2 153.94743) scale(0.1 -0.1)">
                            <use xlink:href="#ArialMT-30"/>
                            <use xlink:href="#ArialMT-2e" x="55.615234"/>
                            <use xlink:href="#ArialMT-38" x="83.398438"/>
                        </g>
                    </g>
                </g>
                <g id="ytick_5">
                    <g id="line2d_21">
                        <path d="M 57.6 101.968262
L 414.72 101.968262 
" clip-path="url(#p8782f27534)" style="fill: none; stroke: #ffffff; stroke-width: 0.8; stroke-linecap: round"/>
                    </g>
                    <g id="line2d_22"/>
                    <g id="text_12">
                        <!-- 0.9 -->
                        <g style="fill: #262626" transform="translate(40.2 105.547168) scale(0.1 -0.1)">
                            <defs>
                                <path id="ArialMT-39" d="M 350 1059
L 891 1109 
Q 959 728 1153 556 
Q 1347 384 1650 384 
Q 1909 384 2104 503 
Q 2300 622 2425 820 
Q 2550 1019 2634 1356 
Q 2719 1694 2719 2044 
Q 2719 2081 2716 2156 
Q 2547 1888 2255 1720 
Q 1963 1553 1622 1553 
Q 1053 1553 659 1965 
Q 266 2378 266 3053 
Q 266 3750 677 4175 
Q 1088 4600 1706 4600 
Q 2153 4600 2523 4359 
Q 2894 4119 3086 3673 
Q 3278 3228 3278 2384 
Q 3278 1506 3087 986 
Q 2897 466 2520 194 
Q 2144 -78 1638 -78 
Q 1100 -78 759 220 
Q 419 519 350 1059 
z
M 2653 3081 
Q 2653 3566 2395 3850 
Q 2138 4134 1775 4134 
Q 1400 4134 1122 3828 
Q 844 3522 844 3034 
Q 844 2597 1108 2323 
Q 1372 2050 1759 2050 
Q 2150 2050 2401 2323 
Q 2653 2597 2653 3081 
z
" transform="scale(0.015625)"/>
                            </defs>
                            <use xlink:href="#ArialMT-30"/>
                            <use xlink:href="#ArialMT-2e" x="55.615234"/>
                            <use xlink:href="#ArialMT-39" x="83.398438"/>
                        </g>
                    </g>
                </g>
                <g id="ytick_6">
                    <g id="line2d_23">
                        <path d="M 57.6 53.568
L 414.72 53.568 
" clip-path="url(#p8782f27534)" style="fill: none; stroke: #ffffff; stroke-width: 0.8; stroke-linecap: round"/>
                    </g>
                    <g id="line2d_24"/>
                    <g id="text_13">
                        <!-- 1.0 -->
                        <g style="fill: #262626" transform="translate(40.2 57.146906) scale(0.1 -0.1)">
                            <use xlink:href="#ArialMT-31"/>
                            <use xlink:href="#ArialMT-2e" x="55.615234"/>
                            <use xlink:href="#ArialMT-30" x="83.398438"/>
                        </g>
                    </g>
                </g>
                <g id="text_14">
                    <!-- Precision -->
                    <g style="fill: #262626" transform="translate(34.2125 195.091281) rotate(-90) scale(0.1 -0.1)">
                        <defs>
                            <path id="ArialMT-50" d="M 494 0
L 494 4581 
L 2222 4581 
Q 2678 4581 2919 4538 
Q 3256 4481 3484 4323 
Q 3713 4166 3852 3881 
Q 3991 3597 3991 3256 
Q 3991 2672 3619 2267 
Q 3247 1863 2275 1863 
L 1100 1863 
L 1100 0 
L 494 0 
z
M 1100 2403 
L 2284 2403 
Q 2872 2403 3119 2622 
Q 3366 2841 3366 3238 
Q 3366 3525 3220 3729 
Q 3075 3934 2838 4000 
Q 2684 4041 2272 4041 
L 1100 4041 
L 1100 2403 
z
" transform="scale(0.015625)"/>
                            <path id="ArialMT-72" d="M 416 0
L 416 3319 
L 922 3319 
L 922 2816 
Q 1116 3169 1280 3281 
Q 1444 3394 1641 3394 
Q 1925 3394 2219 3213 
L 2025 2691 
Q 1819 2813 1613 2813 
Q 1428 2813 1281 2702 
Q 1134 2591 1072 2394 
Q 978 2094 978 1738 
L 978 0 
L 416 0 
z
" transform="scale(0.015625)"/>
                            <path id="ArialMT-69" d="M 425 3934
L 425 4581 
L 988 4581 
L 988 3934 
L 425 3934 
z
M 425 0 
L 425 3319 
L 988 3319 
L 988 0 
L 425 0 
z
" transform="scale(0.015625)"/>
                            <path id="ArialMT-73" d="M 197 991
L 753 1078 
Q 800 744 1014 566 
Q 1228 388 1613 388 
Q 2000 388 2187 545 
Q 2375 703 2375 916 
Q 2375 1106 2209 1216 
Q 2094 1291 1634 1406 
Q 1016 1563 777 1677 
Q 538 1791 414 1992 
Q 291 2194 291 2438 
Q 291 2659 392 2848 
Q 494 3038 669 3163 
Q 800 3259 1026 3326 
Q 1253 3394 1513 3394 
Q 1903 3394 2198 3281 
Q 2494 3169 2634 2976 
Q 2775 2784 2828 2463 
L 2278 2388 
Q 2241 2644 2061 2787 
Q 1881 2931 1553 2931 
Q 1166 2931 1000 2803 
Q 834 2675 834 2503 
Q 834 2394 903 2306 
Q 972 2216 1119 2156 
Q 1203 2125 1616 2013 
Q 2213 1853 2448 1751 
Q 2684 1650 2818 1456 
Q 2953 1263 2953 975 
Q 2953 694 2789 445 
Q 2625 197 2315 61 
Q 2006 -75 1616 -75 
Q 969 -75 630 194 
Q 291 463 197 991 
z
" transform="scale(0.015625)"/>
                            <path id="ArialMT-6f" d="M 213 1659
Q 213 2581 725 3025 
Q 1153 3394 1769 3394 
Q 2453 3394 2887 2945 
Q 3322 2497 3322 1706 
Q 3322 1066 3130 698 
Q 2938 331 2570 128 
Q 2203 -75 1769 -75 
Q 1072 -75 642 372 
Q 213 819 213 1659 
z
M 791 1659 
Q 791 1022 1069 705 
Q 1347 388 1769 388 
Q 2188 388 2466 706 
Q 2744 1025 2744 1678 
Q 2744 2294 2464 2611 
Q 2184 2928 1769 2928 
Q 1347 2928 1069 2612 
Q 791 2297 791 1659 
z
" transform="scale(0.015625)"/>
                            <path id="ArialMT-6e" d="M 422 0
L 422 3319 
L 928 3319 
L 928 2847 
Q 1294 3394 1984 3394 
Q 2284 3394 2536 3286 
Q 2788 3178 2913 3003 
Q 3038 2828 3088 2588 
Q 3119 2431 3119 2041 
L 3119 0 
L 2556 0 
L 2556 2019 
Q 2556 2363 2490 2533 
Q 2425 2703 2258 2804 
Q 2091 2906 1866 2906 
Q 1506 2906 1245 2678 
Q 984 2450 984 1813 
L 984 0 
L 422 0 
z
" transform="scale(0.015625)"/>
                        </defs>
                        <use xlink:href="#ArialMT-50"/>
                        <use xlink:href="#ArialMT-72" x="66.699219"/>
                        <use xlink:href="#ArialMT-65" x="100"/>
                        <use xlink:href="#ArialMT-63" x="155.615234"/>
                        <use xlink:href="#ArialMT-69" x="205.615234"/>
                        <use xlink:href="#ArialMT-73" x="227.832031"/>
                        <use xlink:href="#ArialMT-69" x="277.832031"/>
                        <use xlink:href="#ArialMT-6f" x="300.048828"/>
                        <use xlink:href="#ArialMT-6e" x="355.664062"/>
                    </g>
                </g>
            </g>
            <g id="line2d_25">
                <path d="M 398.487273 295.488
L 391.653971 295.488 
L 391.581276 222.705989 
L 391.508581 222.705989 
L 391.508581 222.637407 
L 391.435886 218.577189 
L 391.363192 218.577189 
L 391.363192 218.505807 
L 391.290497 216.251154 
L 391.217802 216.251154 
L 391.217802 216.178157 
L 391.145108 210.936198 
L 391.072413 210.936198 
L 391.072413 210.859492 
L 390.999718 209.66636 
L 390.927024 209.66636 
L 390.927024 209.588729 
L 390.854329 205.69398 
L 390.708939 205.69398 
L 390.636245 202.018055 
L 390.56355 202.018055 
L 390.56355 201.934869 
L 390.56355 201.077973 
L 390.490855 201.101514 
L 390.345466 201.071352 
L 390.345466 201.04117 
L 390.272771 199.173028 
L 390.200077 199.173028 
L 390.200077 199.087668 
L 390.127382 198.074343 
L 389.981992 197.988136 
L 389.981992 198.011433 
L 389.909298 197.155965 
L 389.763908 197.069019 
L 389.763908 197.092246 
L 389.691214 196.673977 
L 389.545824 196.697179 
L 389.545824 196.609812 
L 389.47313 196.189954 
L 389.400435 196.189954 
L 389.400435 196.102169 
L 389.32774 195.29078 
L 389.255045 195.29078 
L 389.255045 195.202284 
L 389.182351 193.992912 
L 389.109656 193.992912 
L 389.109656 193.903402 
L 389.036961 193.419199 
L 388.964267 193.419199 
L 388.964267 193.329215 
L 388.891572 193.272727 
L 388.891572 193.295655 
L 388.600793 193.25141 
L 388.600793 193.217786 
L 388.528098 193.01424 
L 388.310014 192.946736 
L 388.310014 192.912951 
L 388.23732 192.76559 
L 388.164625 192.76559 
L 388.164625 192.674883 
L 388.09193 192.470285 
L 387.946541 192.436264 
L 387.946541 192.402222 
L 387.946541 192.288248 
L 387.873846 192.311154 
L 387.655762 192.242907 
L 387.655762 192.20875 
L 387.583067 192.060314 
L 387.510373 192.060314 
L 387.510373 191.968881 
L 387.437678 191.70557 
L 387.364983 191.70557 
L 387.364983 191.613824 
L 387.292288 191.4646 
L 386.419952 191.429071 
L 386.419952 191.394427 
L 386.347257 191.24451 
L 386.129173 191.232691 
L 386.129173 191.14022 
L 386.129173 191.082491 
L 386.056478 191.10541 
L 385.693005 191.023774 
L 385.693005 191.046714 
L 385.693005 190.931013 
L 385.62031 190.953949 
L 385.111447 190.859928 
L 385.111447 190.882894 
L 385.111447 190.708825 
L 385.038753 190.731782 
L 384.675279 190.707481 
L 384.675279 190.672328 
L 384.602584 190.287772 
L 383.875637 190.239997 
L 383.875637 190.16719 
L 383.512164 190.142189 
L 383.512164 190.106655 
L 383.439469 189.836618 
L 383.29408 189.742238 
L 383.29408 189.765225 
L 383.221385 189.670746 
L 382.567133 189.737236 
L 382.567133 189.583633 
L 382.494438 189.488789 
L 381.91288 189.473044 
L 381.91288 189.377935 
L 381.91288 189.200527 
L 381.840186 189.223566 
L 381.476712 189.315802 
L 381.404017 189.361967 
L 381.185933 189.28968 
L 381.185933 189.2535 
L 381.113239 188.801599 
L 380.967849 188.765184 
L 380.967849 188.728744 
L 380.967849 188.371325 
L 380.895155 188.394348 
L 380.022818 188.349342 
L 380.022818 188.312604 
L 379.950123 188.215968 
L 379.295871 188.160964 
L 379.295871 188.124054 
L 379.223176 187.966939 
L 378.714313 187.864971 
L 378.714313 187.888106 
L 378.641619 187.790718 
L 378.132756 187.808974 
L 378.132756 187.832147 
L 378.060061 187.432164 
L 377.914672 187.394765 
L 377.914672 187.357341 
L 377.914672 186.993483 
L 377.841977 187.016591 
L 377.623893 187.062831 
L 377.623893 186.964457 
L 377.551198 186.317719 
L 377.478503 186.317719 
L 377.478503 186.2187 
L 377.405809 185.077605 
L 377.333114 185.077605 
L 377.333114 184.97754 
L 377.333114 184.854449 
L 377.187725 184.854449 
L 377.187725 184.777094 
L 377.11503 181.314633 
L 377.042335 181.314633 
L 377.042335 181.211409 
L 376.969641 176.839444 
L 376.896946 176.839444 
L 376.896946 176.732471 
L 376.824251 175.524151 
L 376.751556 175.524151 
L 376.751556 175.416028 
L 376.751556 173.125567 
L 376.460778 173.125567 
L 376.388083 170.444885 
L 376.315388 170.444885 
L 376.315388 170.399261 
L 376.242693 169.009225 
L 376.169999 169.009225 
L 376.169999 168.962874 
L 376.097304 167.968619 
L 376.024609 167.968619 
L 376.024609 167.921732 
L 375.951915 166.236876 
L 375.87922 166.236876 
L 375.87922 166.189108 
L 375.806525 165.384969 
L 375.588441 165.2885 
L 375.588441 165.309201 
L 375.515746 164.500249 
L 375.443052 164.500249 
L 375.443052 164.451543 
L 375.370357 164.055667 
L 375.297662 164.055667 
L 375.297662 164.006714 
L 375.224968 162.911384 
L 375.006884 162.95223 
L 375.006884 162.832654 
L 374.934189 162.151359 
L 374.64341 162.14205 
L 374.64341 162.092021 
L 374.64341 161.810236 
L 374.570715 161.830548 
L 374.425326 161.780337 
L 374.425326 161.730087 
L 374.352631 161.326386 
L 374.279936 161.326386 
L 374.279936 161.275881 
L 374.207242 160.941839 
L 373.989158 160.840348 
L 373.989158 160.860569 
L 373.989158 160.576313 
L 373.916463 160.596503 
L 373.843768 160.596503 
L 373.843768 160.545551 
L 373.771074 160.352106 
L 373.625684 160.301003 
L 373.625684 160.249862 
L 373.552989 160.127305 
L 373.480295 160.127305 
L 373.480295 160.07605 
L 373.480295 159.790123 
L 373.262211 159.758798 
L 373.262211 159.564023 
L 373.189516 159.584124 
L 372.971432 159.552634 
L 372.971432 159.500995 
L 372.898737 159.305654 
L 372.317179 159.302539 
L 372.317179 159.250658 
L 372.244485 158.838108 
L 372.17179 158.838108 
L 372.17179 158.78596 
L 372.099095 158.589179 
L 372.026401 158.589179 
L 371.953706 158.339678 
L 371.08137 158.342513 
L 371.08137 158.289915 
L 371.08137 158.144486 
L 371.008675 158.164539 
L 370.572507 158.264919 
L 370.499812 158.305125 
L 370.209033 158.292625 
L 370.209033 158.239846 
L 370.136338 157.894969 
L 370.063644 157.894969 
L 370.063644 157.841956 
L 369.990949 157.715741 
L 369.554781 157.669643 
L 369.554781 157.616421 
L 369.554781 157.543085 
L 369.482086 157.563157 
L 368.46436 157.5306 
L 368.46436 157.477107 
L 368.391666 157.276143 
L 367.955497 157.376791 
L 367.882803 157.417105 
L 367.592024 157.403773 
L 367.592024 157.350054 
L 367.592024 157.276124 
L 367.519329 157.296293 
L 366.428909 157.262665 
L 366.428909 156.633868 
L 364.684236 156.725459 
L 364.611541 156.76604 
L 364.538846 156.76604 
L 364.538846 156.711415 
L 364.538846 156.636457 
L 364.466152 156.656746 
L 364.248067 156.697348 
L 364.248067 156.567572 
L 364.248067 156.417364 
L 364.175373 156.437641 
L 363.884594 156.423331 
L 363.884594 156.368398 
L 363.811899 156.162786 
L 363.375731 156.264225 
L 363.303036 156.304856 
L 363.230342 156.304856 
L 363.157647 156.11905 
L 362.358005 156.095455 
L 362.358005 156.040054 
L 362.28531 155.908776 
L 362.212616 155.908776 
L 362.212616 155.777342 
L 362.139921 155.79767 
L 361.19489 155.890053 
L 361.19489 155.910464 
L 361.19489 155.834315 
L 361.122195 155.854724 
L 360.395248 155.962475 
L 360.322553 156.003441 
L 360.322553 155.927097 
L 360.177164 155.947581 
L 360.177164 155.891676 
L 360.177164 155.815249 
L 360.104469 155.835727 
L 359.595606 155.938241 
L 359.595606 155.979304 
L 359.595606 155.902756 
L 359.522912 155.923289 
L 359.377522 155.923289 
L 359.377522 155.811123 
L 359.304828 155.831658 
L 358.72327 155.898869 
L 358.72327 155.765815 
L 358.72327 155.688947 
L 358.650575 155.709511 
L 358.214407 155.65849 
L 358.214407 155.60204 
L 358.141712 155.46843 
L 357.850934 155.375784 
L 357.850934 155.39636 
L 357.850934 155.319106 
L 357.778239 155.339678 
L 357.48746 155.324115 
L 357.414765 155.133062 
L 356.978597 155.236027 
L 356.978597 155.256646 
L 356.905902 155.122121 
L 356.469734 155.147582 
L 356.469734 155.012745 
L 356.469734 154.934957 
L 356.397039 154.955573 
L 356.324345 154.955573 
L 356.324345 154.898355 
L 356.25165 154.52923 
L 356.178955 154.52923 
L 356.178955 154.471745 
L 356.106261 154.336082 
L 355.742787 154.340131 
L 355.742787 154.282451 
L 355.670092 153.911213 
L 355.306619 153.914838 
L 355.306619 153.856831 
L 355.233924 153.641492 
L 353.92542 153.668767 
L 353.852725 152.845466 
L 353.707335 152.865957 
L 353.707335 152.807025 
L 353.634641 152.588994 
L 353.561946 152.588994 
L 353.561946 152.529875 
L 353.489251 152.391042 
L 353.416557 152.391042 
L 353.416557 152.331779 
L 353.416557 151.932733 
L 353.343862 151.953115 
L 353.198472 151.953115 
L 353.198472 151.91396 
L 353.125778 150.247548 
L 352.980388 150.186985 
L 352.907694 149.661213 
L 352.834999 149.661213 
L 352.834999 149.600265 
L 352.834999 148.788272 
L 352.762304 148.808205 
L 352.68961 148.808205 
L 352.68961 148.746735 
L 352.616915 146.142942 
L 352.471525 146.079893 
L 352.471525 146.099414 
L 352.398831 144.875714 
L 352.253441 144.811874 
L 352.253441 144.831205 
L 352.180747 144.350583 
L 352.108052 144.350583 
L 352.108052 144.286385 
L 352.035357 143.217197 
L 351.962663 143.217197 
L 351.962663 143.152297 
L 351.962663 143.068271 
L 351.889968 143.087342 
L 351.817273 143.087342 
L 351.817273 143.022331 
L 351.817273 142.854045 
L 351.744578 142.87309 
L 351.671884 142.87309 
L 351.671884 142.807919 
L 351.599189 142.236286 
L 351.235716 142.236286 
L 351.235716 142.161928 
L 351.235716 140.546974 
L 351.163021 140.565675 
L 351.090326 140.565675 
L 351.090326 140.498993 
L 351.017631 139.747384 
L 350.872242 139.765965 
L 350.872242 139.69875 
L 350.799547 139.545586 
L 350.654158 139.564147 
L 350.654158 139.496758 
L 350.581463 138.998702 
L 350.436074 139.017186 
L 350.436074 138.949414 
L 350.436074 138.776776 
L 350.363379 138.795231 
L 350.290684 138.795231 
L 350.290684 138.72729 
L 350.21799 137.87949 
L 350.0726 137.897806 
L 350.0726 137.829268 
L 349.999906 137.673718 
L 349.927211 137.673718 
L 349.927211 137.605008 
L 349.927211 137.343763 
L 349.854516 137.362007 
L 349.709127 137.380259 
L 349.709127 137.311316 
L 349.709127 137.136797 
L 349.636432 137.15502 
L 349.418348 137.104127 
L 349.418348 137.122358 
L 349.345653 136.878193 
L 348.98218 136.863443 
L 348.98218 136.794002 
L 348.909485 136.285362 
L 348.764096 136.215531 
L 348.764096 136.233652 
L 348.764096 136.145639 
L 348.691401 136.163753 
L 348.546011 136.093792 
L 348.546011 136.111906 
L 348.546011 136.02377 
L 348.473317 136.041876 
L 348.109843 135.937839 
L 348.109843 135.955954 
L 348.109843 135.690803 
L 348.037149 135.70888 
L 347.819064 135.745057 
L 347.819064 135.674635 
L 347.819064 135.408831 
L 347.74637 135.426877 
L 347.092117 135.393857 
L 347.092117 135.32303 
L 347.092117 135.145083 
L 347.019423 135.163131 
L 346.874033 135.092124 
L 346.874033 135.110172 
L 346.874033 135.021053 
L 346.801339 135.039094 
L 346.583254 134.985993 
L 346.583254 135.004042 
L 346.51056 134.75415 
L 345.202055 134.702634 
L 345.202055 134.720724 
L 345.12936 134.559067 
L 344.983971 134.577141 
L 344.983971 134.505254 
L 344.983971 134.325193 
L 344.911276 134.343236 
L 343.966245 134.289351 
L 343.966245 134.30745 
L 343.966245 134.126533 
L 343.89355 134.144608 
L 343.384688 134.253226 
L 343.311993 134.289497 
L 343.311993 134.198832 
L 342.439656 134.307841 
L 342.366962 134.34426 
L 342.366962 134.2533 
L 341.494625 134.362827 
L 341.494625 134.381107 
L 341.421931 134.125501 
L 340.913068 134.235103 
L 340.840373 134.271703 
L 339.313784 134.326666 
L 339.241089 133.108828 
L 338.659532 133.050999 
L 338.659532 133.069233 
L 338.659532 132.976415 
L 338.586837 132.99464 
L 338.441448 133.012874 
L 338.441448 132.938204 
L 338.441448 132.845249 
L 338.368753 132.863466 
L 338.150669 132.806874 
L 338.150669 132.825098 
L 338.077974 132.563823 
L 337.205638 132.670921 
L 337.132943 132.707458 
L 335.969828 132.607165 
L 335.969828 132.625504 
L 335.969828 132.531527 
L 335.897133 132.549857 
L 334.879407 132.505985 
L 334.879407 132.524381 
L 334.879407 132.429965 
L 334.806713 132.448352 
L 333.934376 132.556503 
L 333.861681 132.593457 
L 332.989345 132.702371 
L 332.91665 132.739515 
L 331.971619 132.677236 
L 331.971619 132.695872 
L 331.898924 132.523637 
L 330.663114 132.630928 
L 330.59042 132.66838 
L 330.154252 132.570088 
L 330.154252 132.588835 
L 330.154252 132.396536 
L 330.081557 132.415256 
L 329.645389 132.508988 
L 329.572694 132.546543 
L 329.063831 132.562947 
L 329.063831 132.485232 
L 329.063831 132.388646 
L 328.991136 132.407444 
L 328.554968 132.501569 
L 328.554968 132.520421 
L 328.554968 132.423658 
L 328.482273 132.442501 
L 328.046105 132.536848 
L 327.97341 132.57465 
L 327.755326 132.515493 
L 327.755326 132.534407 
L 327.755326 132.437346 
L 327.682632 132.45625 
L 327.173769 132.375343 
L 327.173769 132.394273 
L 327.173769 132.296922 
L 327.101074 132.315842 
L 326.664906 132.410582 
L 326.592211 132.448542 
L 326.301432 132.407944 
L 326.301432 132.426947 
L 326.301432 132.231555 
L 326.228738 132.250529 
L 325.865264 132.326514 
L 325.865264 132.149725 
L 325.865264 132.05175 
L 325.792569 132.070721 
L 325.283706 131.98838 
L 325.283706 132.007378 
L 325.211012 131.829757 
L 324.774843 131.826253 
L 324.774843 131.746708 
L 324.702149 131.568422 
L 324.265981 131.663336 
L 324.193286 131.701366 
L 323.248255 131.632938 
L 323.248255 131.65202 
L 323.17556 131.472531 
L 322.303224 131.583142 
L 322.230529 131.621441 
L 321.212803 131.571379 
L 321.212803 131.590606 
L 321.140108 131.309353 
L 320.994719 131.228257 
L 320.994719 131.247432 
L 320.994719 130.845729 
L 320.922024 130.864833 
L 320.776635 130.783357 
L 320.776635 130.80246 
L 320.776635 130.7018 
L 320.70394 130.720892 
L 320.631245 130.720892 
L 320.631245 130.639244 
L 320.631245 130.336693 
L 320.558551 130.355723 
L 320.122382 130.451017 
L 320.049688 130.489201 
L 320.049688 130.286924 
L 319.904298 130.204755 
L 319.904298 130.22381 
L 319.904298 130.122505 
L 319.831604 130.141548 
L 319.46813 130.116359 
L 319.46813 130.033901 
L 319.395435 129.442599 
L 318.959267 129.537419 
L 318.959267 129.556411 
L 318.886572 129.166907 
L 318.595794 129.22372 
L 318.595794 129.140338 
L 318.595794 128.935509 
L 318.523099 128.954412 
L 318.37771 128.973325 
L 318.37771 128.889692 
L 318.37771 128.478958 
L 318.305015 128.497784 
L 318.086931 128.535466 
L 318.086931 128.451424 
L 318.014236 127.748386 
L 317.868847 127.663735 
L 317.868847 127.682427 
L 317.796152 127.390621 
L 317.650763 127.409268 
L 317.650763 127.324274 
L 317.578068 127.135419 
L 315.90609 127.050179 
L 315.90609 127.04369 
L 315.833395 126.538803 
L 315.688006 126.452519 
L 315.688006 126.471126 
L 315.615311 126.069415 
L 315.542616 126.069415 
L 315.542616 125.982714 
L 315.469921 124.521914 
L 315.179143 124.452248 
L 315.106448 123.548791 
L 314.961059 123.460075 
L 314.961059 123.478102 
L 314.888364 120.374704 
L 314.597585 120.318296 
L 314.597585 120.33567 
L 314.52489 119.809234 
L 314.452196 119.809234 
L 314.452196 119.717549 
L 314.452196 118.843836 
L 314.379501 118.860902 
L 314.306806 118.860902 
L 314.306806 118.768457 
L 314.306806 118.329806 
L 314.088722 118.363739 
L 314.016027 116.853793 
L 313.943333 116.853793 
L 313.943333 116.759708 
L 313.870638 115.554076 
L 313.507164 115.458956 
L 313.507164 115.524431 
L 313.507164 115.077467 
L 313.43447 115.093756 
L 313.143691 115.142677 
L 313.143691 115.046985 
L 313.070996 114.502194 
L 312.925607 114.405959 
L 312.852912 114.21318 
L 312.707523 114.116637 
L 312.707523 114.132758 
L 312.634828 113.697357 
L 312.19866 113.664453 
L 312.19866 113.680505 
L 312.125965 113.356559 
L 311.835186 113.404556 
L 311.835186 113.307011 
L 311.762492 112.981883 
L 311.617102 112.883955 
L 311.617102 112.899866 
L 311.617102 112.785921 
L 311.544407 112.801815 
L 311.326323 112.719542 
L 311.326323 112.507028 
L 311.253629 112.522876 
L 311.180934 112.522876 
L 311.180934 112.424385 
L 311.180934 112.195504 
L 311.108239 112.21129 
L 310.890155 112.128274 
L 310.890155 112.144058 
L 310.890155 111.914594 
L 310.81746 111.930333 
L 310.744766 111.930333 
L 310.744766 111.831203 
L 310.672071 111.386691 
L 310.308597 111.333942 
L 310.308597 111.349579 
L 310.235903 111.134283 
L 309.799735 111.096669 
L 309.799735 111.112285 
L 309.72704 110.89621 
L 309.58165 110.911788 
L 309.58165 110.811376 
L 309.58165 110.57919 
L 309.508956 110.594703 
L 308.49123 110.680573 
L 308.49123 110.579514 
L 308.49123 110.462785 
L 308.418535 110.478343 
L 307.328115 110.462567 
L 307.328115 110.478198 
L 307.328115 110.360833 
L 307.25542 110.376444 
L 306.601168 110.485961 
L 306.528473 110.533027 
L 306.528473 110.415288 
L 305.438052 110.399102 
L 305.438052 110.414845 
L 305.438052 110.178062 
L 305.365358 110.193757 
L 304.7838 110.303862 
L 304.711105 110.3354 
L 304.565716 110.351182 
L 304.565716 110.24814 
L 304.565716 110.129241 
L 304.493021 110.144983 
L 304.129548 110.08893 
L 304.129548 110.104687 
L 304.129548 109.985483 
L 304.056853 110.00122 
L 303.475295 109.992124 
L 303.475295 110.007902 
L 303.402601 109.784369 
L 301.948707 109.743241 
L 301.876012 109.151822 
L 301.294454 109.140699 
L 301.294454 109.156419 
L 301.294454 109.035193 
L 301.22176 109.050893 
L 300.930981 108.976631 
L 300.930981 108.992336 
L 300.858286 108.764894 
L 300.276728 108.874723 
L 300.276728 108.890449 
L 300.204034 108.662208 
L 300.131339 108.662208 
L 300.131339 108.555769 
L 300.131339 108.433577 
L 300.058644 108.449208 
L 299.477087 108.558877 
L 299.404392 108.590291 
L 297.805108 108.552479 
L 297.805108 108.568297 
L 297.805108 108.444843 
L 297.732414 108.46064 
L 297.51433 108.49226 
L 297.51433 108.384435 
L 297.441635 108.152662 
L 296.351214 108.125235 
L 296.351214 108.141049 
L 296.351214 108.01654 
L 296.27852 108.032332 
L 295.696962 108.143128 
L 295.624267 108.174867 
L 294.533847 108.272735 
L 294.461152 108.304707 
L 293.952289 108.400849 
L 293.879595 108.432972 
L 293.516121 108.371464 
L 293.516121 108.387545 
L 293.516121 108.261574 
L 293.443426 108.277632 
L 292.934563 108.374179 
L 292.861869 108.406437 
L 291.18989 108.509613 
L 291.117196 108.5422 
L 290.026775 108.643663 
L 289.954081 108.676495 
L 289.445218 108.647151 
L 289.445218 108.663607 
L 289.445218 108.535422 
L 289.372523 108.551855 
L 288.86366 108.522162 
L 288.86366 108.53863 
L 288.86366 108.410023 
L 288.790965 108.426468 
L 288.282102 108.525341 
L 288.209408 108.558378 
L 287.918629 108.608009 
L 287.918629 108.495449 
L 287.918629 108.366249 
L 287.845934 108.382754 
L 287.337071 108.481996 
L 287.264377 108.515157 
L 287.264377 108.385572 
L 286.755514 108.48509 
L 286.682819 108.518343 
L 285.010841 108.625327 
L 284.938146 108.65893 
L 283.266168 108.767807 
L 283.193473 108.801765 
L 282.68461 108.903892 
L 282.611915 108.938019 
L 281.230716 108.929738 
L 281.230716 108.599052 
L 281.158021 108.616153 
L 280.794548 108.551179 
L 280.794548 108.568297 
L 280.721853 108.184255 
L 280.649158 108.184255 
L 280.649158 108.201286 
L 280.649158 108.067359 
L 280.576464 108.084363 
L 280.140296 108.035315 
L 280.140296 108.052347 
L 280.140296 107.917997 
L 280.067601 107.935002 
L 279.413349 108.02019 
L 279.340654 108.105646 
L 278.177539 108.09275 
L 278.177539 108.109962 
L 278.177539 107.974357 
L 278.104844 107.991541 
L 277.74137 107.92451 
L 277.74137 107.941712 
L 277.668676 107.68676 
L 277.523286 107.703907 
L 277.523286 107.584779 
L 277.523286 107.448406 
L 277.450592 107.4655 
L 277.305202 107.482604 
L 277.305202 107.363146 
L 277.305202 107.226486 
L 277.232507 107.243536 
L 276.869034 107.243536 
L 276.869034 107.191977 
L 276.869034 106.917763 
L 276.796339 106.934764 
L 276.432866 106.865447 
L 276.432866 106.882465 
L 276.432866 106.744908 
L 276.360171 106.761898 
L 276.287476 106.761898 
L 276.287476 106.778898 
L 276.214782 106.520302 
L 275.924003 106.433116 
L 275.924003 106.450055 
L 275.924003 106.311875 
L 275.851308 106.328785 
L 275.778613 106.328785 
L 275.778613 106.345707 
L 275.778613 106.068926 
L 275.705919 106.08578 
L 274.760888 106.010721 
L 274.760888 106.027638 
L 274.688193 105.486859 
L 274.324719 105.414235 
L 274.324719 105.431019 
L 274.252025 104.184708 
L 274.17933 104.184708 
L 274.17933 104.201152 
L 274.106635 103.370939 
L 272.870825 103.387162 
L 272.798131 102.810144 
L 272.361962 102.748141 
L 272.361962 102.764319 
L 272.289268 102.063977 
L 272.071183 102.095967 
L 272.071183 101.968262 
L 272.071183 100.815112 
L 271.998489 100.830751 
L 271.925794 100.830751 
L 271.925794 100.846401 
L 271.925794 99.831775 
L 271.853099 99.847135 
L 271.780405 99.847135 
L 271.70771 97.538846 
L 271.562321 97.553537 
L 271.562321 97.568238 
L 271.489626 97.141194 
L 271.126152 97.199603 
L 271.126152 97.066558 
L 271.126152 96.918788 
L 271.053458 96.933335 
L 270.908068 96.933335 
L 270.908068 96.814455 
L 270.253816 96.782519 
L 270.253816 96.797084 
L 270.181121 96.216441 
L 270.108426 96.216441 
L 270.108426 96.230845 
L 270.108426 96.081743 
L 270.035732 96.096111 
L 269.526869 96.182521 
L 269.526869 96.047389 
L 269.526869 95.89772 
L 269.454174 95.912074 
L 269.308785 95.926438 
L 269.308785 95.940811 
L 269.308785 95.790903 
L 269.23609 95.80524 
L 268.799922 95.877072 
L 268.799922 95.440161 
L 268.727227 95.454428 
L 268.14567 95.554566 
L 268.072975 95.583265 
L 267.491417 95.684021 
L 267.418722 95.712897 
L 267.346028 95.712897 
L 267.346028 95.72735 
L 267.346028 95.575774 
L 267.273333 95.59019 
L 266.691775 95.691379 
L 266.619081 95.720379 
L 266.037523 95.822197 
L 265.964828 95.851378 
L 264.365545 95.852948 
L 264.365545 95.867672 
L 264.365545 95.713822 
L 264.29285 95.728507 
L 263.783987 95.662534 
L 263.783987 95.677242 
L 263.711293 95.228127 
L 263.493208 95.257301 
L 263.493208 95.271903 
L 263.493208 95.116928 
L 263.420514 95.131491 
L 262.838956 95.233721 
L 262.766261 95.263022 
L 262.112009 95.224663 
L 262.112009 95.239362 
L 262.112009 95.083226 
L 262.039314 95.097886 
L 261.82123 95.127235 
L 261.82123 95.141926 
L 261.82123 94.98548 
L 261.748536 95.000131 
L 261.094283 94.960701 
L 261.094283 94.975395 
L 261.094283 94.818223 
L 261.021589 94.832877 
L 260.658115 94.891596 
L 260.658115 94.748714 
L 260.658115 94.433201 
L 260.58542 94.447765 
L 260.003863 94.550001 
L 259.931168 94.579305 
L 259.858473 94.579305 
L 259.858473 94.593973 
L 259.858473 94.276882 
L 259.785779 94.291457 
L 259.204221 94.393777 
L 259.131526 94.423106 
L 259.131526 94.104524 
L 258.549969 94.206778 
L 258.477274 94.236089 
L 257.895716 94.339009 
L 257.895716 94.353754 
L 257.895716 94.193401 
L 257.823022 94.208104 
L 257.677632 94.222818 
L 257.677632 94.237543 
L 257.677632 94.076915 
L 257.604938 94.091597 
L 257.02338 94.194673 
L 256.950685 94.22422 
L 255.496791 94.268621 
L 255.496791 93.219941 
L 255.424096 93.234514 
L 255.206012 93.263691 
L 255.206012 93.278296 
L 255.206012 93.114773 
L 255.133318 93.129333 
L 254.987928 93.143905 
L 254.987928 93.158487 
L 254.987928 92.994678 
L 254.915233 93.009216 
L 254.333676 93.111282 
L 254.260981 93.140541 
L 254.042897 93.169843 
L 254.042897 93.184511 
L 253.970202 92.70471 
L 253.388645 92.806591 
L 253.31595 92.835797 
L 253.243255 92.835797 
L 253.243255 92.850416 
L 253.243255 92.684785 
L 253.170561 92.699359 
L 252.08014 92.737938 
L 252.08014 92.75262 
L 252.08014 92.585834 
L 252.007445 92.600469 
L 251.934751 92.600469 
L 251.934751 92.615115 
L 251.934751 92.280939 
L 251.862056 92.295482 
L 251.280498 92.397588 
L 251.207804 92.426861 
L 250.408162 92.405455 
L 250.408162 92.42016 
L 250.408162 92.251543 
L 250.335467 92.266201 
L 249.75391 92.369122 
L 249.681215 92.398628 
L 249.681215 92.229297 
L 249.317741 92.118513 
L 249.317741 92.13321 
L 249.317741 91.963326 
L 249.245047 91.977975 
L 248.663489 92.080833 
L 248.590794 92.110322 
L 248.5181 92.110322 
L 248.5181 92.125083 
L 248.5181 91.783615 
L 248.445405 91.798268 
L 248.227321 91.827608 
L 248.227321 91.842295 
L 248.227321 91.671125 
L 248.154626 91.685763 
L 248.009237 91.700412 
L 248.009237 91.715073 
L 248.009237 91.54359 
L 247.936542 91.558202 
L 247.354984 91.660799 
L 247.28229 91.690214 
L 247.28229 91.517993 
L 246.700732 91.620878 
L 246.628037 91.650376 
L 246.04648 91.753982 
L 246.04648 91.768829 
L 246.04648 91.595432 
L 245.973785 91.610229 
L 245.392227 91.699251 
L 245.319533 91.743919 
L 244.737975 91.848552 
L 244.66528 91.878552 
L 244.011028 91.82381 
L 244.011028 91.83886 
L 244.011028 91.663444 
L 243.938333 91.678442 
L 243.865639 91.678442 
L 243.865639 91.693452 
L 243.865639 91.517772 
L 243.792944 91.53273 
L 243.065997 91.491434 
L 243.065997 91.506447 
L 243.065997 91.329788 
L 242.993302 91.344749 
L 242.411744 91.44981 
L 242.33905 91.479935 
L 242.33905 91.302492 
L 241.757492 91.407854 
L 241.684797 91.438065 
L 240.739766 91.441399 
L 240.739766 91.456603 
L 240.739766 91.277441 
L 240.667072 91.292591 
L 240.085514 91.398986 
L 240.085514 91.414234 
L 240.012819 91.249527 
L 239.431262 91.35623 
L 239.358567 91.386828 
L 239.358567 91.206114 
L 239.067788 91.251902 
L 238.995093 90.919949 
L 238.849704 90.935126 
L 238.849704 90.950316 
L 238.849704 90.768689 
L 238.777009 90.783824 
L 238.195452 90.890111 
L 238.122757 90.920591 
L 237.541199 91.027662 
L 237.468505 91.058367 
L 236.886947 91.16623 
L 236.814252 91.197163 
L 235.433053 91.292914 
L 235.360358 91.324221 
L 235.287664 91.324221 
L 235.287664 91.339894 
L 235.287664 91.154582 
L 235.214969 91.170198 
L 234.560717 91.279871 
L 234.488022 91.327069 
L 233.906464 91.437661 
L 233.833769 91.469377 
L 233.179517 91.377528 
L 233.179517 91.049684 
L 233.106822 91.065466 
L 232.525265 91.176311 
L 232.45257 91.208102 
L 231.943707 91.303797 
L 231.871012 91.335804 
L 231.36215 91.43215 
L 231.289455 91.464375 
L 230.780592 91.561379 
L 230.707897 91.593825 
L 230.707897 91.403318 
L 230.199034 91.500539 
L 230.12634 91.533057 
L 229.617477 91.630948 
L 229.544782 91.66369 
L 228.963224 91.729344 
L 228.89053 91.81173 
L 227.50933 91.917358 
L 227.50933 91.351022 
L 227.436636 91.367506 
L 226.927773 91.466718 
L 226.855078 91.499904 
L 226.346215 91.599812 
L 226.27352 91.633232 
L 225.764657 91.733845 
L 225.691963 91.767501 
L 225.401184 91.818096 
L 225.401184 91.834991 
L 225.401184 91.440884 
L 225.328489 91.457634 
L 224.819626 91.558449 
L 224.746932 91.592174 
L 224.601542 91.609058 
L 224.601542 91.625958 
L 224.601542 91.42776 
L 224.528847 91.444594 
L 224.019985 91.545914 
L 223.94729 91.579807 
L 221.621059 91.601434 
L 221.621059 90.917271 
L 221.548365 90.934233 
L 221.039502 91.036326 
L 220.966807 91.070482 
L 220.894112 91.070482 
L 220.894112 91.087583 
L 220.894112 90.883895 
L 220.821418 90.900927 
L 220.312555 91.003443 
L 220.23986 91.03774 
L 219.730997 91.14101 
L 219.658302 91.17556 
L 219.585608 91.17556 
L 219.585608 90.987438 
L 219.512913 91.004667 
L 219.00405 91.108369 
L 219.00405 91.125709 
L 219.00405 90.919403 
L 218.495187 91.023253 
L 218.422492 91.057999 
L 218.277103 91.075395 
L 218.277103 91.092808 
L 218.204408 90.695118 
L 218.131714 90.695118 
L 218.131714 90.712387 
L 218.059019 90.504449 
L 218.059019 90.521645 
L 217.76824 90.573328 
L 217.76824 90.590588 
L 217.76824 90.382011 
L 217.695545 90.399198 
L 217.477461 90.43362 
L 217.477461 90.450855 
L 217.477461 90.241725 
L 217.259377 90.241725 
L 217.186682 89.680818 
L 217.113988 89.680818 
L 217.113988 89.697773 
L 217.113988 89.487405 
L 217.041293 89.504285 
L 216.895904 89.52118 
L 216.895904 89.538091 
L 216.895904 89.327252 
L 216.750514 89.327252 
L 216.677819 88.531362 
L 216.605125 88.531362 
L 216.605125 88.547877 
L 216.605125 88.12327 
L 216.53243 88.139616 
L 216.168957 88.155977 
L 216.168957 87.795048 
L 216.096262 87.8113 
L 216.023567 87.8113 
L 216.023567 87.827568 
L 215.950872 85.91185 
L 215.805483 85.91185 
L 215.805483 85.942757 
L 215.732788 85.526068 
L 215.660094 85.526068 
L 215.660094 85.541366 
L 215.587399 84.906299 
L 215.514704 84.906299 
L 215.514704 84.921337 
L 215.514704 84.70403 
L 215.44201 84.718985 
L 215.29662 84.733954 
L 215.29662 84.53113 
L 215.223925 84.546031 
L 215.151231 84.546031 
L 215.151231 84.560946 
L 215.151231 84.342733 
L 215.078536 84.357564 
L 214.496978 84.461784 
L 214.424284 84.491691 
L 214.278894 84.506666 
L 214.278894 84.521656 
L 214.278894 84.302049 
L 214.06081 84.331873 
L 214.06081 84.346807 
L 213.988115 84.126689 
L 213.988115 84.141538 
L 213.406558 84.245884 
L 213.333863 84.275828 
L 213.188474 84.290822 
L 213.115779 83.433 
L 212.534221 83.521011 
L 212.534221 83.103593 
L 212.461527 83.118135 
L 211.879969 83.220334 
L 211.807274 83.249664 
L 211.443801 83.308498 
L 211.443801 83.323243 
L 211.443801 82.872377 
L 211.371106 82.886927 
L 211.080327 82.930665 
L 211.080327 82.945273 
L 211.080327 82.718979 
L 211.007633 82.733496 
L 210.571464 82.806301 
L 210.571464 82.820905 
L 210.571464 82.593644 
L 210.49877 82.608157 
L 209.989907 82.69554 
L 209.989907 82.710155 
L 209.989907 82.253238 
L 209.917212 82.267653 
L 209.481044 82.339944 
L 209.481044 82.354446 
L 209.481044 82.124887 
L 209.408349 82.139295 
L 209.11757 82.182606 
L 209.11757 82.197073 
L 209.11757 81.966737 
L 209.044876 81.981109 
L 208.463318 82.082121 
L 208.390623 82.111113 
L 208.245234 82.125632 
L 208.245234 82.140165 
L 208.245234 81.908275 
L 208.172539 81.922713 
L 207.590982 82.024187 
L 207.518287 82.053313 
L 207.154813 82.111744 
L 207.154813 82.126389 
L 207.082119 81.892588 
L 207.082119 81.907136 
L 206.864035 81.936277 
L 206.864035 81.95087 
L 206.864035 81.716377 
L 206.79134 81.730871 
L 206.209782 81.832752 
L 206.137087 81.861997 
L 205.55553 81.964831 
L 205.482835 81.994349 
L 204.901278 82.098149 
L 204.828583 82.127946 
L 204.247025 82.232725 
L 204.17433 82.262804 
L 204.028941 82.277867 
L 204.028941 82.292945 
L 204.028941 82.053703 
L 203.956246 82.06868 
L 203.810857 82.083672 
L 203.810857 82.098681 
L 203.810857 81.858832 
L 203.738162 81.873738 
L 203.665468 81.873738 
L 203.665468 81.888659 
L 203.665468 81.648321 
L 203.592773 81.663139 
L 203.011215 81.767305 
L 202.938521 81.797209 
L 202.356963 81.902374 
L 202.284268 81.932565 
L 202.211574 81.932565 
L 202.211574 81.947684 
L 202.211574 81.704685 
L 202.138879 81.7197 
L 201.8481 81.764839 
L 201.8481 81.779917 
L 201.8481 81.536048 
L 201.775405 81.551021 
L 201.630016 81.566009 
L 201.630016 81.581013 
L 201.630016 81.091754 
L 201.557321 81.106528 
L 200.975764 81.210391 
L 200.975764 81.225292 
L 200.975764 80.979151 
L 200.903069 80.993944 
L 200.030732 81.023578 
L 200.030732 80.427775 
L 199.739954 80.427775 
L 199.739954 80.486357 
L 199.739954 79.987357 
L 199.667259 80.001786 
L 199.449175 80.030691 
L 199.449175 80.045167 
L 199.449175 79.794743 
L 199.37648 79.809106 
L 199.085701 79.852289 
L 199.085701 79.866715 
L 199.085701 79.615368 
L 199.013007 79.629679 
L 198.431449 79.730304 
L 198.358754 79.759196 
L 197.777197 79.860825 
L 197.704502 79.890007 
L 197.122944 79.992655 
L 197.05025 80.022131 
L 196.468692 80.125814 
L 196.395997 80.155588 
L 195.81444 80.260322 
L 195.741745 80.290398 
L 195.232882 80.381034 
L 195.232882 80.396199 
L 195.232882 80.13747 
L 195.160187 80.152515 
L 194.57863 80.258309 
L 194.505935 80.288691 
L 193.924377 80.395574 
L 193.851683 80.426269 
L 193.851683 80.164595 
L 193.560904 80.210346 
L 193.560904 80.225631 
L 193.560904 79.963091 
L 193.488209 79.978252 
L 193.270125 80.008626 
L 193.270125 80.023839 
L 193.270125 79.760427 
L 193.19743 79.775515 
L 193.052041 79.79062 
L 193.052041 79.805743 
L 193.052041 79.541597 
L 192.979346 79.556593 
L 192.397789 79.662054 
L 192.325094 79.692343 
L 191.743536 79.798911 
L 191.670842 79.829519 
L 191.089284 79.937211 
L 191.016589 79.968143 
L 190.580421 80.04579 
L 190.580421 80.061375 
L 190.507726 79.53748 
L 189.926169 79.64511 
L 189.853474 79.676025 
L 189.853474 79.404439 
L 189.780779 79.404439 
L 189.780779 79.419772 
L 189.780779 79.147711 
L 189.708085 79.16291 
L 189.126527 79.26981 
L 189.053832 79.300517 
L 188.981137 79.300517 
L 188.981137 79.315898 
L 188.981137 79.041822 
L 188.908443 79.057067 
L 188.326885 79.164292 
L 188.25419 79.195094 
L 188.25419 78.91913 
L 187.672633 79.026421 
L 187.599938 79.057242 
L 187.16377 79.134623 
L 187.16377 79.150155 
L 187.16377 78.87148 
L 187.091075 78.886872 
L 186.509518 78.995138 
L 186.436823 79.026242 
L 186.218739 79.057421 
L 186.218739 79.07304 
L 186.146044 78.243809 
L 185.564486 78.350367 
L 185.491792 78.380982 
L 184.910234 78.48873 
L 184.837539 78.519688 
L 184.255982 78.628647 
L 184.183287 78.659953 
L 183.601729 78.770144 
L 183.529035 78.801805 
L 183.020172 78.897267 
L 182.947477 78.929248 
L 182.438614 79.025679 
L 182.365919 79.057986 
L 181.857057 79.1554 
L 181.784362 79.188036 
L 181.275499 79.286449 
L 181.202804 79.319421 
L 181.202804 79.025482 
L 180.693941 79.123837 
L 180.621247 79.156791 
L 180.112384 79.256165 
L 180.039689 79.289461 
L 179.530826 79.38987 
L 179.458131 79.423514 
L 178.949268 79.524975 
L 178.876574 79.558972 
L 178.367711 79.661501 
L 178.295016 79.695857 
L 177.786153 79.79947 
L 177.713458 79.834191 
L 177.204596 79.938907 
L 177.131901 79.973998 
L 176.623038 80.079833 
L 176.550343 80.115301 
L 176.04148 80.222274 
L 175.968786 80.258124 
L 175.459923 80.366254 
L 175.387228 80.402493 
L 174.878365 80.511798 
L 174.80567 80.548431 
L 174.80567 80.237532 
L 174.296807 80.346833 
L 174.296807 80.365137 
L 174.296807 80.052411 
L 174.224113 80.070539 
L 173.71525 80.179828 
L 173.642555 80.216458 
L 173.133692 80.326956 
L 173.060997 80.363993 
L 172.624829 80.457034 
L 172.552135 80.494432 
L 172.115966 80.588383 
L 172.115966 80.607252 
L 172.115966 80.287921 
L 171.752493 80.362819 
L 171.752493 80.381609 
L 171.679798 80.060775 
L 171.679798 80.079379 
L 171.461714 80.116667 
L 171.461714 80.13535 
L 171.461714 79.813212 
L 171.389019 79.831708 
L 171.09824 79.887351 
L 171.09824 79.905952 
L 171.09824 79.25816 
L 171.025546 79.276354 
L 170.516683 79.386063 
L 170.443988 79.422841 
L 170.371293 79.422841 
L 170.371293 79.441269 
L 170.371293 79.1145 
L 170.298599 79.132735 
L 169.789736 79.242691 
L 169.717041 79.279553 
L 169.280873 79.372174 
L 169.208178 79.40941 
L 168.77201 79.50297 
L 168.699315 79.540584 
L 168.263147 79.635099 
L 168.190452 79.673097 
L 167.754284 79.768581 
L 167.681589 79.80697 
L 167.245421 79.903437 
L 167.172726 79.942222 
L 166.736558 80.039688 
L 166.663864 80.078876 
L 166.227695 80.177356 
L 166.155001 80.216954 
L 165.718832 80.316464 
L 165.646138 80.356477 
L 165.209969 80.457034 
L 165.137275 80.497469 
L 164.701107 80.59909 
L 164.628412 80.639953 
L 164.192244 80.742654 
L 164.119549 80.783953 
L 163.683381 80.887751 
L 163.610686 80.929492 
L 163.174518 81.034406 
L 163.174518 81.055486 
L 163.174518 80.704859 
L 163.101823 80.725718 
L 162.665655 80.830493 
L 162.59296 80.87263 
L 162.156792 80.978544 
L 162.084097 81.02114 
L 161.647929 81.128211 
L 161.575234 81.171274 
L 161.139066 81.279522 
L 161.066371 81.32306 
L 160.630203 81.432504 
L 160.557508 81.476524 
L 160.12134 81.587184 
L 160.048646 81.631694 
L 159.685172 81.72114 
L 159.612477 81.766077 
L 159.249004 81.856384 
L 159.176309 81.901754 
L 158.812836 81.992932 
L 158.740141 82.038742 
L 158.376667 82.130806 
L 158.303973 82.177062 
L 157.940499 82.270024 
L 157.867804 82.316732 
L 157.504331 82.410605 
L 157.431636 82.457772 
L 156.704689 82.457772 
L 156.631994 82.719973 
L 156.268521 82.816503 
L 156.268521 82.840735 
L 156.268521 82.463679 
L 156.195826 82.487658 
L 155.832353 82.583977 
L 155.759658 82.632377 
L 155.396185 82.729664 
L 155.32349 82.778552 
L 154.960016 82.876821 
L 154.960016 82.901492 
L 154.960016 82.518451 
L 154.887322 82.542862 
L 154.523848 82.640915 
L 154.451153 82.690191 
L 154.08768 82.789246 
L 154.014985 82.839027 
L 153.651512 82.939099 
L 153.578817 82.989392 
L 153.215343 83.090496 
L 153.142649 83.14131 
L 152.779175 83.243463 
L 152.70648 83.294804 
L 152.343007 83.398022 
L 152.270312 83.449901 
L 151.906839 83.554201 
L 151.834144 83.606624 
L 151.470671 83.712023 
L 151.397976 83.765 
L 151.034502 83.871515 
L 150.961808 83.925055 
L 150.598334 83.951896 
L 150.525639 84.086815 
L 150.162166 84.195617 
L 150.162166 84.222938 
L 150.162166 83.818164 
L 150.089471 83.845197 
L 149.871387 83.899408 
L 149.871387 83.519731 
L 149.798692 83.546618 
L 149.435219 83.654649 
L 149.435219 83.681779 
L 149.289829 83.681779 
L 149.289829 83.325846 
L 149.217135 83.352776 
L 149.14444 83.352776 
L 149.14444 83.379755 
L 149.14444 82.967978 
L 149.071745 82.994656 
L 148.708272 83.101857 
L 148.635577 83.155751 
L 73.832727 83.155751 
L 73.832727 53.568 
L 73.832727 53.568 
" clip-path="url(#p8782f27534)" style="fill: none; stroke: #1f77b4; stroke-width: 1.5; stroke-linecap: round"/>
            </g>
            <g id="patch_3">
                <path d="M 57.6 307.584
L 57.6 41.472 
" style="fill: none"/>
            </g>
            <g id="patch_4">
                <path d="M 414.72 307.584
L 414.72 41.472 
" style="fill: none"/>
            </g>
            <g id="patch_5">
                <path d="M 57.6 307.584
L 414.72 307.584 
" style="fill: none"/>
            </g>
            <g id="patch_6">
                <path d="M 57.6 41.472
L 414.72 41.472 
" style="fill: none"/>
            </g>
        </g>
    </g>
    <defs>
        <clipPath id="p8782f27534">
            <rect x="57.6" y="41.472" width="357.12" height="266.112"/>
        </clipPath>
    </defs>
</svg>
