<?xml version="1.0" encoding="utf-8" standalone="no"?>
<!DOCTYPE svg PUBLIC "-//W3C//DTD SVG 1.1//EN"
  "http://www.w3.org/Graphics/SVG/1.1/DTD/svg11.dtd">
<svg xmlns:xlink="http://www.w3.org/1999/xlink" width="460.8pt" height="345.6pt" viewBox="0 0 460.8 345.6" xmlns="http://www.w3.org/2000/svg" version="1.1">
 <metadata>
  <rdf:RDF xmlns:dc="http://purl.org/dc/elements/1.1/" xmlns:cc="http://creativecommons.org/ns#" xmlns:rdf="http://www.w3.org/1999/02/22-rdf-syntax-ns#">
   <cc:Work>
    <dc:type rdf:resource="http://purl.org/dc/dcmitype/StillImage"/>
    <dc:date>2022-11-24T19:38:18.652712</dc:date>
    <dc:format>image/svg+xml</dc:format>
    <dc:creator>
     <cc:Agent>
      <dc:title>Matplotlib v3.6.2, https://matplotlib.org/</dc:title>
     </cc:Agent>
    </dc:creator>
   </cc:Work>
  </rdf:RDF>
 </metadata>
 <defs>
  <style type="text/css">*{stroke-linejoin: round; stroke-linecap: butt}</style>
 </defs>
 <g id="figure_1">
  <g id="patch_1">
   <path d="M 0 345.6 
L 460.8 345.6 
L 460.8 0 
L 0 0 
z
" style="fill: #ffffff"/>
  </g>
  <g id="axes_1">
   <g id="patch_2">
    <path d="M 57.6 307.584 
L 414.72 307.584 
L 414.72 41.472 
L 57.6 41.472 
z
" style="fill: #ffffff"/>
   </g>
   <g id="matplotlib.axis_1">
    <g id="xtick_1">
     <g id="line2d_1">
      <defs>
       <path id="m854e6045c8" d="M 0 0 
L 0 3.5 
" style="stroke: #000000; stroke-width: 0.8"/>
      </defs>
      <g>
       <use xlink:href="#m854e6045c8" x="73.832727" y="307.584" style="stroke: #000000; stroke-width: 0.8"/>
      </g>
     </g>
     <g id="text_1">
      <!-- 0.0 -->
      <g transform="translate(65.881165 322.182437) scale(0.1 -0.1)">
       <defs>
        <path id="DejaVuSans-30" d="M 2034 4250 
Q 1547 4250 1301 3770 
Q 1056 3291 1056 2328 
Q 1056 1369 1301 889 
Q 1547 409 2034 409 
Q 2525 409 2770 889 
Q 3016 1369 3016 2328 
Q 3016 3291 2770 3770 
Q 2525 4250 2034 4250 
z
M 2034 4750 
Q 2819 4750 3233 4129 
Q 3647 3509 3647 2328 
Q 3647 1150 3233 529 
Q 2819 -91 2034 -91 
Q 1250 -91 836 529 
Q 422 1150 422 2328 
Q 422 3509 836 4129 
Q 1250 4750 2034 4750 
z
" transform="scale(0.015625)"/>
        <path id="DejaVuSans-2e" d="M 684 794 
L 1344 794 
L 1344 0 
L 684 0 
L 684 794 
z
" transform="scale(0.015625)"/>
       </defs>
       <use xlink:href="#DejaVuSans-30"/>
       <use xlink:href="#DejaVuSans-2e" x="63.623047"/>
       <use xlink:href="#DejaVuSans-30" x="95.410156"/>
      </g>
     </g>
    </g>
    <g id="xtick_2">
     <g id="line2d_2">
      <g>
       <use xlink:href="#m854e6045c8" x="138.763636" y="307.584" style="stroke: #000000; stroke-width: 0.8"/>
      </g>
     </g>
     <g id="text_2">
      <!-- 0.2 -->
      <g transform="translate(130.812074 322.182437) scale(0.1 -0.1)">
       <defs>
        <path id="DejaVuSans-32" d="M 1228 531 
L 3431 531 
L 3431 0 
L 469 0 
L 469 531 
Q 828 903 1448 1529 
Q 2069 2156 2228 2338 
Q 2531 2678 2651 2914 
Q 2772 3150 2772 3378 
Q 2772 3750 2511 3984 
Q 2250 4219 1831 4219 
Q 1534 4219 1204 4116 
Q 875 4013 500 3803 
L 500 4441 
Q 881 4594 1212 4672 
Q 1544 4750 1819 4750 
Q 2544 4750 2975 4387 
Q 3406 4025 3406 3419 
Q 3406 3131 3298 2873 
Q 3191 2616 2906 2266 
Q 2828 2175 2409 1742 
Q 1991 1309 1228 531 
z
" transform="scale(0.015625)"/>
       </defs>
       <use xlink:href="#DejaVuSans-30"/>
       <use xlink:href="#DejaVuSans-2e" x="63.623047"/>
       <use xlink:href="#DejaVuSans-32" x="95.410156"/>
      </g>
     </g>
    </g>
    <g id="xtick_3">
     <g id="line2d_3">
      <g>
       <use xlink:href="#m854e6045c8" x="203.694545" y="307.584" style="stroke: #000000; stroke-width: 0.8"/>
      </g>
     </g>
     <g id="text_3">
      <!-- 0.4 -->
      <g transform="translate(195.742983 322.182437) scale(0.1 -0.1)">
       <defs>
        <path id="DejaVuSans-34" d="M 2419 4116 
L 825 1625 
L 2419 1625 
L 2419 4116 
z
M 2253 4666 
L 3047 4666 
L 3047 1625 
L 3713 1625 
L 3713 1100 
L 3047 1100 
L 3047 0 
L 2419 0 
L 2419 1100 
L 313 1100 
L 313 1709 
L 2253 4666 
z
" transform="scale(0.015625)"/>
       </defs>
       <use xlink:href="#DejaVuSans-30"/>
       <use xlink:href="#DejaVuSans-2e" x="63.623047"/>
       <use xlink:href="#DejaVuSans-34" x="95.410156"/>
      </g>
     </g>
    </g>
    <g id="xtick_4">
     <g id="line2d_4">
      <g>
       <use xlink:href="#m854e6045c8" x="268.625455" y="307.584" style="stroke: #000000; stroke-width: 0.8"/>
      </g>
     </g>
     <g id="text_4">
      <!-- 0.6 -->
      <g transform="translate(260.673892 322.182437) scale(0.1 -0.1)">
       <defs>
        <path id="DejaVuSans-36" d="M 2113 2584 
Q 1688 2584 1439 2293 
Q 1191 2003 1191 1497 
Q 1191 994 1439 701 
Q 1688 409 2113 409 
Q 2538 409 2786 701 
Q 3034 994 3034 1497 
Q 3034 2003 2786 2293 
Q 2538 2584 2113 2584 
z
M 3366 4563 
L 3366 3988 
Q 3128 4100 2886 4159 
Q 2644 4219 2406 4219 
Q 1781 4219 1451 3797 
Q 1122 3375 1075 2522 
Q 1259 2794 1537 2939 
Q 1816 3084 2150 3084 
Q 2853 3084 3261 2657 
Q 3669 2231 3669 1497 
Q 3669 778 3244 343 
Q 2819 -91 2113 -91 
Q 1303 -91 875 529 
Q 447 1150 447 2328 
Q 447 3434 972 4092 
Q 1497 4750 2381 4750 
Q 2619 4750 2861 4703 
Q 3103 4656 3366 4563 
z
" transform="scale(0.015625)"/>
       </defs>
       <use xlink:href="#DejaVuSans-30"/>
       <use xlink:href="#DejaVuSans-2e" x="63.623047"/>
       <use xlink:href="#DejaVuSans-36" x="95.410156"/>
      </g>
     </g>
    </g>
    <g id="xtick_5">
     <g id="line2d_5">
      <g>
       <use xlink:href="#m854e6045c8" x="333.556364" y="307.584" style="stroke: #000000; stroke-width: 0.8"/>
      </g>
     </g>
     <g id="text_5">
      <!-- 0.8 -->
      <g transform="translate(325.604801 322.182437) scale(0.1 -0.1)">
       <defs>
        <path id="DejaVuSans-38" d="M 2034 2216 
Q 1584 2216 1326 1975 
Q 1069 1734 1069 1313 
Q 1069 891 1326 650 
Q 1584 409 2034 409 
Q 2484 409 2743 651 
Q 3003 894 3003 1313 
Q 3003 1734 2745 1975 
Q 2488 2216 2034 2216 
z
M 1403 2484 
Q 997 2584 770 2862 
Q 544 3141 544 3541 
Q 544 4100 942 4425 
Q 1341 4750 2034 4750 
Q 2731 4750 3128 4425 
Q 3525 4100 3525 3541 
Q 3525 3141 3298 2862 
Q 3072 2584 2669 2484 
Q 3125 2378 3379 2068 
Q 3634 1759 3634 1313 
Q 3634 634 3220 271 
Q 2806 -91 2034 -91 
Q 1263 -91 848 271 
Q 434 634 434 1313 
Q 434 1759 690 2068 
Q 947 2378 1403 2484 
z
M 1172 3481 
Q 1172 3119 1398 2916 
Q 1625 2713 2034 2713 
Q 2441 2713 2670 2916 
Q 2900 3119 2900 3481 
Q 2900 3844 2670 4047 
Q 2441 4250 2034 4250 
Q 1625 4250 1398 4047 
Q 1172 3844 1172 3481 
z
" transform="scale(0.015625)"/>
       </defs>
       <use xlink:href="#DejaVuSans-30"/>
       <use xlink:href="#DejaVuSans-2e" x="63.623047"/>
       <use xlink:href="#DejaVuSans-38" x="95.410156"/>
      </g>
     </g>
    </g>
    <g id="xtick_6">
     <g id="line2d_6">
      <g>
       <use xlink:href="#m854e6045c8" x="398.487273" y="307.584" style="stroke: #000000; stroke-width: 0.8"/>
      </g>
     </g>
     <g id="text_6">
      <!-- 1.0 -->
      <g transform="translate(390.53571 322.182437) scale(0.1 -0.1)">
       <defs>
        <path id="DejaVuSans-31" d="M 794 531 
L 1825 531 
L 1825 4091 
L 703 3866 
L 703 4441 
L 1819 4666 
L 2450 4666 
L 2450 531 
L 3481 531 
L 3481 0 
L 794 0 
L 794 531 
z
" transform="scale(0.015625)"/>
       </defs>
       <use xlink:href="#DejaVuSans-31"/>
       <use xlink:href="#DejaVuSans-2e" x="63.623047"/>
       <use xlink:href="#DejaVuSans-30" x="95.410156"/>
      </g>
     </g>
    </g>
    <g id="text_7">
     <!-- Recall -->
     <g transform="translate(221.242812 335.860562) scale(0.1 -0.1)">
      <defs>
       <path id="DejaVuSans-52" d="M 2841 2188 
Q 3044 2119 3236 1894 
Q 3428 1669 3622 1275 
L 4263 0 
L 3584 0 
L 2988 1197 
Q 2756 1666 2539 1819 
Q 2322 1972 1947 1972 
L 1259 1972 
L 1259 0 
L 628 0 
L 628 4666 
L 2053 4666 
Q 2853 4666 3247 4331 
Q 3641 3997 3641 3322 
Q 3641 2881 3436 2590 
Q 3231 2300 2841 2188 
z
M 1259 4147 
L 1259 2491 
L 2053 2491 
Q 2509 2491 2742 2702 
Q 2975 2913 2975 3322 
Q 2975 3731 2742 3939 
Q 2509 4147 2053 4147 
L 1259 4147 
z
" transform="scale(0.015625)"/>
       <path id="DejaVuSans-65" d="M 3597 1894 
L 3597 1613 
L 953 1613 
Q 991 1019 1311 708 
Q 1631 397 2203 397 
Q 2534 397 2845 478 
Q 3156 559 3463 722 
L 3463 178 
Q 3153 47 2828 -22 
Q 2503 -91 2169 -91 
Q 1331 -91 842 396 
Q 353 884 353 1716 
Q 353 2575 817 3079 
Q 1281 3584 2069 3584 
Q 2775 3584 3186 3129 
Q 3597 2675 3597 1894 
z
M 3022 2063 
Q 3016 2534 2758 2815 
Q 2500 3097 2075 3097 
Q 1594 3097 1305 2825 
Q 1016 2553 972 2059 
L 3022 2063 
z
" transform="scale(0.015625)"/>
       <path id="DejaVuSans-63" d="M 3122 3366 
L 3122 2828 
Q 2878 2963 2633 3030 
Q 2388 3097 2138 3097 
Q 1578 3097 1268 2742 
Q 959 2388 959 1747 
Q 959 1106 1268 751 
Q 1578 397 2138 397 
Q 2388 397 2633 464 
Q 2878 531 3122 666 
L 3122 134 
Q 2881 22 2623 -34 
Q 2366 -91 2075 -91 
Q 1284 -91 818 406 
Q 353 903 353 1747 
Q 353 2603 823 3093 
Q 1294 3584 2113 3584 
Q 2378 3584 2631 3529 
Q 2884 3475 3122 3366 
z
" transform="scale(0.015625)"/>
       <path id="DejaVuSans-61" d="M 2194 1759 
Q 1497 1759 1228 1600 
Q 959 1441 959 1056 
Q 959 750 1161 570 
Q 1363 391 1709 391 
Q 2188 391 2477 730 
Q 2766 1069 2766 1631 
L 2766 1759 
L 2194 1759 
z
M 3341 1997 
L 3341 0 
L 2766 0 
L 2766 531 
Q 2569 213 2275 61 
Q 1981 -91 1556 -91 
Q 1019 -91 701 211 
Q 384 513 384 1019 
Q 384 1609 779 1909 
Q 1175 2209 1959 2209 
L 2766 2209 
L 2766 2266 
Q 2766 2663 2505 2880 
Q 2244 3097 1772 3097 
Q 1472 3097 1187 3025 
Q 903 2953 641 2809 
L 641 3341 
Q 956 3463 1253 3523 
Q 1550 3584 1831 3584 
Q 2591 3584 2966 3190 
Q 3341 2797 3341 1997 
z
" transform="scale(0.015625)"/>
       <path id="DejaVuSans-6c" d="M 603 4863 
L 1178 4863 
L 1178 0 
L 603 0 
L 603 4863 
z
" transform="scale(0.015625)"/>
      </defs>
      <use xlink:href="#DejaVuSans-52"/>
      <use xlink:href="#DejaVuSans-65" x="64.982422"/>
      <use xlink:href="#DejaVuSans-63" x="126.505859"/>
      <use xlink:href="#DejaVuSans-61" x="181.486328"/>
      <use xlink:href="#DejaVuSans-6c" x="242.765625"/>
      <use xlink:href="#DejaVuSans-6c" x="270.548828"/>
     </g>
    </g>
   </g>
   <g id="matplotlib.axis_2">
    <g id="ytick_1">
     <g id="line2d_7">
      <defs>
       <path id="m08f98d45a5" d="M 0 0 
L -3.5 0 
" style="stroke: #000000; stroke-width: 0.8"/>
      </defs>
      <g>
       <use xlink:href="#m08f98d45a5" x="57.6" y="292.570399" style="stroke: #000000; stroke-width: 0.8"/>
      </g>
     </g>
     <g id="text_8">
      <!-- 0.5 -->
      <g transform="translate(34.696875 296.369618) scale(0.1 -0.1)">
       <defs>
        <path id="DejaVuSans-35" d="M 691 4666 
L 3169 4666 
L 3169 4134 
L 1269 4134 
L 1269 2991 
Q 1406 3038 1543 3061 
Q 1681 3084 1819 3084 
Q 2600 3084 3056 2656 
Q 3513 2228 3513 1497 
Q 3513 744 3044 326 
Q 2575 -91 1722 -91 
Q 1428 -91 1123 -41 
Q 819 9 494 109 
L 494 744 
Q 775 591 1075 516 
Q 1375 441 1709 441 
Q 2250 441 2565 725 
Q 2881 1009 2881 1497 
Q 2881 1984 2565 2268 
Q 2250 2553 1709 2553 
Q 1456 2553 1204 2497 
Q 953 2441 691 2322 
L 691 4666 
z
" transform="scale(0.015625)"/>
       </defs>
       <use xlink:href="#DejaVuSans-30"/>
       <use xlink:href="#DejaVuSans-2e" x="63.623047"/>
       <use xlink:href="#DejaVuSans-35" x="95.410156"/>
      </g>
     </g>
    </g>
    <g id="ytick_2">
     <g id="line2d_8">
      <g>
       <use xlink:href="#m08f98d45a5" x="57.6" y="244.769919" style="stroke: #000000; stroke-width: 0.8"/>
      </g>
     </g>
     <g id="text_9">
      <!-- 0.6 -->
      <g transform="translate(34.696875 248.569138) scale(0.1 -0.1)">
       <use xlink:href="#DejaVuSans-30"/>
       <use xlink:href="#DejaVuSans-2e" x="63.623047"/>
       <use xlink:href="#DejaVuSans-36" x="95.410156"/>
      </g>
     </g>
    </g>
    <g id="ytick_3">
     <g id="line2d_9">
      <g>
       <use xlink:href="#m08f98d45a5" x="57.6" y="196.969439" style="stroke: #000000; stroke-width: 0.8"/>
      </g>
     </g>
     <g id="text_10">
      <!-- 0.7 -->
      <g transform="translate(34.696875 200.768658) scale(0.1 -0.1)">
       <defs>
        <path id="DejaVuSans-37" d="M 525 4666 
L 3525 4666 
L 3525 4397 
L 1831 0 
L 1172 0 
L 2766 4134 
L 525 4134 
L 525 4666 
z
" transform="scale(0.015625)"/>
       </defs>
       <use xlink:href="#DejaVuSans-30"/>
       <use xlink:href="#DejaVuSans-2e" x="63.623047"/>
       <use xlink:href="#DejaVuSans-37" x="95.410156"/>
      </g>
     </g>
    </g>
    <g id="ytick_4">
     <g id="line2d_10">
      <g>
       <use xlink:href="#m08f98d45a5" x="57.6" y="149.16896" style="stroke: #000000; stroke-width: 0.8"/>
      </g>
     </g>
     <g id="text_11">
      <!-- 0.8 -->
      <g transform="translate(34.696875 152.968178) scale(0.1 -0.1)">
       <use xlink:href="#DejaVuSans-30"/>
       <use xlink:href="#DejaVuSans-2e" x="63.623047"/>
       <use xlink:href="#DejaVuSans-38" x="95.410156"/>
      </g>
     </g>
    </g>
    <g id="ytick_5">
     <g id="line2d_11">
      <g>
       <use xlink:href="#m08f98d45a5" x="57.6" y="101.36848" style="stroke: #000000; stroke-width: 0.8"/>
      </g>
     </g>
     <g id="text_12">
      <!-- 0.9 -->
      <g transform="translate(34.696875 105.167699) scale(0.1 -0.1)">
       <defs>
        <path id="DejaVuSans-39" d="M 703 97 
L 703 672 
Q 941 559 1184 500 
Q 1428 441 1663 441 
Q 2288 441 2617 861 
Q 2947 1281 2994 2138 
Q 2813 1869 2534 1725 
Q 2256 1581 1919 1581 
Q 1219 1581 811 2004 
Q 403 2428 403 3163 
Q 403 3881 828 4315 
Q 1253 4750 1959 4750 
Q 2769 4750 3195 4129 
Q 3622 3509 3622 2328 
Q 3622 1225 3098 567 
Q 2575 -91 1691 -91 
Q 1453 -91 1209 -44 
Q 966 3 703 97 
z
M 1959 2075 
Q 2384 2075 2632 2365 
Q 2881 2656 2881 3163 
Q 2881 3666 2632 3958 
Q 2384 4250 1959 4250 
Q 1534 4250 1286 3958 
Q 1038 3666 1038 3163 
Q 1038 2656 1286 2365 
Q 1534 2075 1959 2075 
z
" transform="scale(0.015625)"/>
       </defs>
       <use xlink:href="#DejaVuSans-30"/>
       <use xlink:href="#DejaVuSans-2e" x="63.623047"/>
       <use xlink:href="#DejaVuSans-39" x="95.410156"/>
      </g>
     </g>
    </g>
    <g id="ytick_6">
     <g id="line2d_12">
      <g>
       <use xlink:href="#m08f98d45a5" x="57.6" y="53.568" style="stroke: #000000; stroke-width: 0.8"/>
      </g>
     </g>
     <g id="text_13">
      <!-- 1.0 -->
      <g transform="translate(34.696875 57.367219) scale(0.1 -0.1)">
       <use xlink:href="#DejaVuSans-31"/>
       <use xlink:href="#DejaVuSans-2e" x="63.623047"/>
       <use xlink:href="#DejaVuSans-30" x="95.410156"/>
      </g>
     </g>
    </g>
    <g id="text_14">
     <!-- Precision -->
     <g transform="translate(28.617187 196.835031) rotate(-90) scale(0.1 -0.1)">
      <defs>
       <path id="DejaVuSans-50" d="M 1259 4147 
L 1259 2394 
L 2053 2394 
Q 2494 2394 2734 2622 
Q 2975 2850 2975 3272 
Q 2975 3691 2734 3919 
Q 2494 4147 2053 4147 
L 1259 4147 
z
M 628 4666 
L 2053 4666 
Q 2838 4666 3239 4311 
Q 3641 3956 3641 3272 
Q 3641 2581 3239 2228 
Q 2838 1875 2053 1875 
L 1259 1875 
L 1259 0 
L 628 0 
L 628 4666 
z
" transform="scale(0.015625)"/>
       <path id="DejaVuSans-72" d="M 2631 2963 
Q 2534 3019 2420 3045 
Q 2306 3072 2169 3072 
Q 1681 3072 1420 2755 
Q 1159 2438 1159 1844 
L 1159 0 
L 581 0 
L 581 3500 
L 1159 3500 
L 1159 2956 
Q 1341 3275 1631 3429 
Q 1922 3584 2338 3584 
Q 2397 3584 2469 3576 
Q 2541 3569 2628 3553 
L 2631 2963 
z
" transform="scale(0.015625)"/>
       <path id="DejaVuSans-69" d="M 603 3500 
L 1178 3500 
L 1178 0 
L 603 0 
L 603 3500 
z
M 603 4863 
L 1178 4863 
L 1178 4134 
L 603 4134 
L 603 4863 
z
" transform="scale(0.015625)"/>
       <path id="DejaVuSans-73" d="M 2834 3397 
L 2834 2853 
Q 2591 2978 2328 3040 
Q 2066 3103 1784 3103 
Q 1356 3103 1142 2972 
Q 928 2841 928 2578 
Q 928 2378 1081 2264 
Q 1234 2150 1697 2047 
L 1894 2003 
Q 2506 1872 2764 1633 
Q 3022 1394 3022 966 
Q 3022 478 2636 193 
Q 2250 -91 1575 -91 
Q 1294 -91 989 -36 
Q 684 19 347 128 
L 347 722 
Q 666 556 975 473 
Q 1284 391 1588 391 
Q 1994 391 2212 530 
Q 2431 669 2431 922 
Q 2431 1156 2273 1281 
Q 2116 1406 1581 1522 
L 1381 1569 
Q 847 1681 609 1914 
Q 372 2147 372 2553 
Q 372 3047 722 3315 
Q 1072 3584 1716 3584 
Q 2034 3584 2315 3537 
Q 2597 3491 2834 3397 
z
" transform="scale(0.015625)"/>
       <path id="DejaVuSans-6f" d="M 1959 3097 
Q 1497 3097 1228 2736 
Q 959 2375 959 1747 
Q 959 1119 1226 758 
Q 1494 397 1959 397 
Q 2419 397 2687 759 
Q 2956 1122 2956 1747 
Q 2956 2369 2687 2733 
Q 2419 3097 1959 3097 
z
M 1959 3584 
Q 2709 3584 3137 3096 
Q 3566 2609 3566 1747 
Q 3566 888 3137 398 
Q 2709 -91 1959 -91 
Q 1206 -91 779 398 
Q 353 888 353 1747 
Q 353 2609 779 3096 
Q 1206 3584 1959 3584 
z
" transform="scale(0.015625)"/>
       <path id="DejaVuSans-6e" d="M 3513 2113 
L 3513 0 
L 2938 0 
L 2938 2094 
Q 2938 2591 2744 2837 
Q 2550 3084 2163 3084 
Q 1697 3084 1428 2787 
Q 1159 2491 1159 1978 
L 1159 0 
L 581 0 
L 581 3500 
L 1159 3500 
L 1159 2956 
Q 1366 3272 1645 3428 
Q 1925 3584 2291 3584 
Q 2894 3584 3203 3211 
Q 3513 2838 3513 2113 
z
" transform="scale(0.015625)"/>
      </defs>
      <use xlink:href="#DejaVuSans-50"/>
      <use xlink:href="#DejaVuSans-72" x="58.552734"/>
      <use xlink:href="#DejaVuSans-65" x="97.416016"/>
      <use xlink:href="#DejaVuSans-63" x="158.939453"/>
      <use xlink:href="#DejaVuSans-69" x="213.919922"/>
      <use xlink:href="#DejaVuSans-73" x="241.703125"/>
      <use xlink:href="#DejaVuSans-69" x="293.802734"/>
      <use xlink:href="#DejaVuSans-6f" x="321.585938"/>
      <use xlink:href="#DejaVuSans-6e" x="382.767578"/>
     </g>
    </g>
   </g>
   <g id="line2d_13">
    <path d="M 398.487273 295.488 
L 398.413655 295.488 
L 398.340037 285.422663 
L 398.266419 285.422663 
L 398.266419 285.363454 
L 398.192801 278.315325 
L 398.119184 278.315325 
L 398.045566 276.4979 
L 397.971948 276.4979 
L 397.971948 276.401226 
L 397.971948 274.499984 
L 397.751095 274.459731 
L 397.677477 271.8787 
L 397.603859 271.8787 
L 397.603859 271.777308 
L 397.530241 269.569919 
L 397.383006 269.569919 
L 397.383006 269.460373 
L 397.383006 269.394951 
L 397.23577 269.394951 
L 397.23577 269.317886 
L 397.162152 267.231691 
L 397.014917 267.231691 
L 397.014917 267.152301 
L 396.941299 265.671269 
L 396.867681 265.671269 
L 396.867681 265.563279 
L 396.867681 264.104671 
L 396.720445 264.104671 
L 396.720445 264.090144 
L 396.720445 262.993622 
L 396.57321 262.993622 
L 396.57321 262.944028 
L 396.499592 260.888685 
L 396.425974 260.888685 
L 396.425974 260.810514 
L 396.352356 259.88896 
L 396.278738 259.88896 
L 396.278738 259.845216 
L 396.205121 257.667667 
L 396.131503 257.667667 
L 396.131503 257.586806 
L 396.131503 256.795355 
L 395.984267 256.795355 
L 395.984267 256.74045 
L 395.984267 256.01635 
L 395.763414 256.01635 
L 395.763414 256.09639 
L 395.689796 254.332551 
L 395.616178 254.332551 
L 395.616178 254.248804 
L 395.54256 252.459895 
L 395.468942 252.459895 
L 395.468942 252.374541 
L 395.395325 249.191819 
L 395.321707 249.191819 
L 395.321707 249.180082 
L 395.248089 246.545627 
L 395.100853 246.571986 
L 395.100853 246.481512 
L 395.027236 243.634798 
L 394.953618 243.634798 
L 394.953618 243.621282 
L 394.88 241.967501 
L 394.806382 241.967501 
L 394.806382 241.87292 
L 394.732764 240.969881 
L 394.659147 240.969881 
L 394.585529 239.596504 
L 394.364675 239.566781 
L 394.364675 238.812509 
L 394.291058 238.838571 
L 394.21744 238.838571 
L 394.21744 238.86464 
L 394.143822 236.440277 
L 394.070204 236.440277 
L 394.070204 236.340529 
L 393.996586 235.356943 
L 393.849351 235.356943 
L 393.849351 235.408765 
L 393.849351 234.562098 
L 393.775733 234.587973 
L 393.554879 234.512305 
L 393.481262 232.423643 
L 393.407644 232.423643 
L 393.334026 231.175922 
L 393.260408 231.175922 
L 393.18679 229.212807 
L 393.113173 229.212807 
L 393.039555 228.512584 
L 392.965937 228.512584 
L 392.965937 228.405161 
L 392.892319 228.342002 
L 392.818701 228.342002 
L 392.745083 226.831549 
L 392.671466 226.831549 
L 392.671466 226.72244 
L 392.671466 226.542773 
L 392.52423 226.542773 
L 392.450612 224.582923 
L 392.156141 224.522337 
L 392.156141 223.862102 
L 392.082523 223.887458 
L 391.86167 223.800673 
L 391.788052 220.93441 
L 391.714434 220.93441 
L 391.714434 220.866081 
L 391.640816 219.764591 
L 391.419963 219.695442 
L 391.419963 217.84806 
L 391.199109 217.84806 
L 391.125492 216.990315 
L 390.978256 216.990315 
L 390.978256 216.028104 
L 390.904638 216.053002 
L 390.683785 216.077908 
L 390.610167 215.328234 
L 390.462931 215.328234 
L 390.389314 213.051082 
L 390.094842 213.12526 
L 390.094842 213.05122 
L 390.021224 212.333083 
L 389.873989 212.308122 
L 389.873989 212.332817 
L 389.800371 211.510927 
L 389.5059 211.560222 
L 389.5059 211.159389 
L 389.432282 211.184028 
L 389.358664 211.184028 
L 389.358664 211.108452 
L 389.285046 210.882245 
L 389.137811 210.882245 
L 389.064193 210.402777 
L 388.990575 210.402777 
L 388.916957 210.149304 
L 388.84334 210.149304 
L 388.769722 209.43913 
L 388.548868 209.488254 
L 388.548868 208.238856 
L 388.401633 208.238856 
L 388.328015 207.0279 
L 388.107161 207.052294 
L 388.107161 206.169755 
L 388.033544 206.194093 
L 387.886308 206.218439 
L 387.81269 205.486671 
L 387.739072 205.486671 
L 387.739072 205.510974 
L 387.665455 205.012789 
L 387.591837 205.012789 
L 387.591837 204.932354 
L 387.518219 204.092256 
L 387.518219 204.116456 
L 387.444601 204.116456 
L 387.444601 204.088005 
L 387.370983 203.108384 
L 387.297365 203.108384 
L 387.297365 202.175738 
L 387.223748 202.199793 
L 386.855659 202.170528 
L 386.782041 200.520599 
L 386.708423 200.520599 
L 386.708423 200.43663 
L 386.708423 200.328645 
L 386.561187 200.328645 
L 386.48757 199.370805 
L 386.193098 199.370805 
L 386.119481 198.508351 
L 385.972245 198.4227 
L 385.972245 198.446509 
L 385.972245 198.391745 
L 385.751391 198.391745 
L 385.677774 197.442711 
L 385.604156 197.442711 
L 385.604156 197.411306 
L 385.530538 195.381383 
L 385.236067 195.404944 
L 385.236067 194.635571 
L 385.162449 194.659083 
L 384.867978 194.570249 
L 384.867978 193.569405 
L 384.79436 193.59284 
L 384.647124 193.59284 
L 384.573506 192.356548 
L 384.279035 192.356548 
L 384.205417 191.672608 
L 383.910946 191.66186 
L 383.910946 190.325983 
L 383.542857 190.325983 
L 383.469239 189.303785 
L 383.027532 189.291726 
L 383.027532 188.624361 
L 382.733061 188.624361 
L 382.733061 187.599529 
L 382.659443 187.622519 
L 382.291354 187.668522 
L 382.217737 186.872832 
L 382.144119 186.872832 
L 382.144119 186.777053 
L 382.144119 186.717657 
L 381.77603 186.717657 
L 381.77603 186.058011 
L 381.628794 186.058011 
L 381.555176 184.867947 
L 381.187087 184.890734 
L 381.113469 184.280887 
L 380.818998 184.303644 
L 380.818998 183.219074 
L 380.74538 183.241736 
L 380.598145 183.241736 
L 380.524527 182.14869 
L 380.450909 182.14869 
L 380.450909 181.433863 
L 380.230056 181.433863 
L 380.230056 180.512983 
L 380.009202 180.512983 
L 380.009202 179.897235 
L 379.935584 179.919587 
L 379.714731 179.817453 
L 379.641113 179.072899 
L 378.978553 179.162083 
L 378.978553 178.457509 
L 378.904935 178.479771 
L 378.463228 178.461353 
L 378.38961 178.004793 
L 378.315993 178.004793 
L 378.242375 177.352396 
L 377.800668 177.269744 
L 377.800668 176.594055 
L 377.72705 176.616186 
L 377.358961 176.596593 
L 377.285343 175.659543 
L 376.696401 175.617291 
L 376.622783 174.955034 
L 376.401929 174.955034 
L 376.328312 174.134815 
L 375.960223 174.15676 
L 375.886605 173.875609 
L 375.665751 173.875609 
L 375.592134 173.309557 
L 375.150427 173.265927 
L 375.150427 172.389093 
L 375.076809 172.410911 
L 374.414249 172.410428 
L 374.414249 171.548155 
L 374.340631 171.569922 
L 373.309981 171.480557 
L 373.236364 170.628588 
L 373.162746 170.628588 
L 373.162746 170.58329 
L 373.162746 170.516229 
L 372.868275 170.516229 
L 372.868275 169.930874 
L 372.794657 169.952551 
L 372.721039 169.952551 
L 372.721039 169.906849 
L 372.721039 169.839437 
L 372.647421 169.861113 
L 372.426568 169.882798 
L 372.426568 168.979295 
L 372.058479 168.979295 
L 372.058479 168.475585 
L 371.984861 168.497135 
L 371.175065 168.468684 
L 371.175065 167.708987 
L 371.101447 167.730503 
L 371.027829 167.730503 
L 371.027829 167.68342 
L 370.954212 167.567635 
L 370.586122 167.589148 
L 370.586122 166.917737 
L 370.291651 166.917737 
L 370.291651 166.381122 
L 370.218033 166.402529 
L 369.849944 166.376043 
L 369.849944 165.814988 
L 369.776327 165.836352 
L 369.555473 165.879104 
L 369.555473 165.761163 
L 369.555473 165.691458 
L 368.819295 165.734204 
L 368.819295 165.065866 
L 368.745677 165.087205 
L 368.30397 165.108553 
L 368.30397 164.652976 
L 368.230353 164.674297 
L 367.052468 164.63355 
L 367.052468 163.883901 
L 366.463525 163.883901 
L 366.463525 163.056686 
L 365.727347 163.056686 
L 365.727347 162.839525 
L 365.653729 162.860788 
L 365.432876 162.810288 
L 365.432876 161.916998 
L 365.359258 161.938156 
L 365.28564 161.938156 
L 365.28564 161.887118 
L 365.28564 161.742625 
L 365.064787 161.742625 
L 365.064787 160.791037 
L 364.991169 160.812065 
L 364.107755 160.750698 
L 364.107755 160.188972 
L 364.034137 160.209985 
L 363.960519 160.209985 
L 363.960519 160.157792 
L 363.960519 160.084549 
L 363.371577 160.084549 
L 363.297959 159.612603 
L 362.782635 159.612603 
L 362.709017 158.597887 
L 362.046456 158.639673 
L 362.046456 157.967531 
L 361.972839 157.988377 
L 361.089425 157.922506 
L 361.089425 157.415381 
L 361.015807 157.436217 
L 360.721336 157.348515 
L 360.721336 157.369363 
L 360.721336 157.294177 
L 360.647718 157.315022 
L 360.132393 157.206208 
L 360.132393 156.555517 
L 360.058776 156.576298 
L 359.985158 156.576298 
L 359.985158 156.521395 
L 359.985158 156.36992 
L 359.837922 156.36992 
L 359.764304 155.139174 
L 359.543451 155.139174 
L 359.543451 154.512509 
L 358.880891 154.512509 
L 358.880891 154.082572 
L 358.807273 154.103077 
L 358.439184 154.103077 
L 358.439184 153.433541 
L 358.365566 153.45398 
L 358.291948 153.45398 
L 358.291948 153.397012 
L 358.291948 153.242085 
L 357.850241 153.242085 
L 357.850241 152.353692 
L 357.776623 152.37401 
L 357.703006 152.37401 
L 357.703006 152.316316 
L 357.703006 152.238264 
L 357.261299 152.238264 
L 357.261299 151.184523 
L 357.187681 151.204705 
L 356.672356 151.305736 
L 356.672356 150.636388 
L 356.598738 150.656526 
L 355.788942 150.676673 
L 355.715325 150.34381 
L 355.568089 150.363971 
L 355.568089 150.304694 
L 355.568089 150.225214 
L 355.2 150.225214 
L 355.126382 149.548884 
L 354.463822 149.548884 
L 354.463822 148.92805 
L 354.390204 148.948079 
L 353.948497 148.887721 
L 353.948497 147.857976 
L 353.874879 147.877872 
L 353.212319 147.856592 
L 353.212319 147.570214 
L 353.138701 147.590117 
L 352.623377 147.528697 
L 352.549759 146.688458 
L 352.108052 146.688458 
L 352.034434 145.841401 
L 350.635696 145.771452 
L 350.562078 144.827203 
L 349.973135 144.846849 
L 349.973135 144.567402 
L 349.899518 144.587048 
L 349.457811 144.685405 
L 349.457811 144.705101 
L 349.457811 144.621454 
L 348.721633 144.621454 
L 348.721633 144.39928 
L 348.648015 144.418988 
L 348.059072 144.478161 
L 348.059072 143.81847 
L 347.985455 143.838128 
L 347.028423 143.857795 
L 346.954805 143.520763 
L 346.513098 143.475187 
L 346.513098 143.043114 
L 346.439481 143.062752 
L 345.629685 143.016734 
L 345.556067 141.927102 
L 345.335213 141.927102 
L 345.335213 140.949777 
L 345.261596 140.969143 
L 344.525417 140.988518 
L 344.525417 140.816097 
L 344.4518 140.835498 
L 343.936475 140.854908 
L 343.936475 140.099672 
L 343.862857 140.118991 
L 343.126679 140.050887 
L 343.126679 139.523123 
L 343.053061 139.5424 
L 342.464119 139.49301 
L 342.464119 138.814521 
L 342.390501 138.833721 
L 341.580705 138.833721 
L 341.580705 138.690662 
L 341.507087 138.709903 
L 340.476438 138.698069 
L 340.476438 137.909001 
L 339.666642 137.909001 
L 339.593024 137.600807 
L 338.930464 137.619997 
L 338.930464 137.142166 
L 338.856846 137.161321 
L 337.973432 137.199658 
L 337.899814 136.392794 
L 337.899814 136.411883 
L 337.826197 136.411883 
L 337.826197 136.339871 
L 337.826197 136.157526 
L 337.163636 136.157526 
L 337.163636 135.780399 
L 337.090019 135.799434 
L 337.016401 135.799434 
L 337.016401 135.726805 
L 337.016401 135.635089 
L 336.942783 135.654108 
L 336.059369 135.654108 
L 336.059369 135.330515 
L 335.985751 135.349547 
L 335.396809 135.333444 
L 335.323191 134.502395 
L 334.587013 134.428428 
L 334.587013 133.759594 
L 334.513395 133.778441 
L 334.36616 133.703768 
L 334.36616 133.722614 
L 334.36616 133.535391 
L 334.145306 133.535391 
L 334.071688 132.765396 
L 333.188275 132.708615 
L 333.188275 132.423496 
L 332.967421 132.423496 
L 332.893803 131.739453 
L 332.820186 131.739453 
L 332.820186 131.662957 
L 332.820186 131.567831 
L 331.642301 131.567831 
L 331.568683 130.831706 
L 330.685269 130.831706 
L 330.685269 129.99352 
L 330.611651 130.011927 
L 329.875473 130.011927 
L 329.875473 129.127703 
L 329.212913 129.127703 
L 329.139295 127.93982 
L 328.329499 127.976055 
L 328.329499 127.448908 
L 328.255881 127.46698 
L 327.372468 127.485062 
L 327.372468 126.691213 
L 327.29885 126.709201 
L 326.489054 126.663538 
L 326.415436 126.225674 
L 325.384787 126.225674 
L 325.384787 125.974984 
L 325.311169 125.992969 
L 324.206902 125.92816 
L 324.206902 125.453808 
L 324.133284 125.47177 
L 323.617959 125.489742 
L 323.544341 124.494647 
L 323.24987 124.494647 
L 323.24987 123.848665 
L 323.176252 123.866364 
L 322.881781 123.816751 
L 322.881781 123.834464 
L 322.881781 123.628744 
L 322.219221 123.628744 
L 322.219221 123.478621 
L 322.145603 123.496315 
L 322.071985 123.496315 
L 322.071985 123.410686 
L 322.071985 123.203865 
L 321.114954 123.203865 
L 321.114954 123.01857 
L 321.041336 123.036246 
L 320.378776 123.036246 
L 320.305158 122.482802 
L 319.863451 122.482802 
L 319.863451 121.959456 
L 319.789833 121.976996 
L 318.685566 122.04725 
L 318.685566 121.078618 
L 318.611948 121.096054 
L 317.87577 121.113498 
L 317.802152 120.543244 
L 316.771503 120.448817 
L 316.771503 120.466248 
L 316.771503 120.359077 
L 316.035325 120.359077 
L 316.035325 119.99578 
L 315.961707 120.013169 
L 315.372764 120.047976 
L 315.299147 119.413035 
L 314.194879 119.482346 
L 314.121262 119.037721 
L 312.943377 119.089695 
L 312.869759 118.675331 
L 312.280816 118.692656 
L 312.280816 118.483806 
L 312.207199 118.501131 
L 311.544638 118.40817 
L 311.544638 117.88277 
L 311.47102 117.900013 
L 310.587607 117.840787 
L 310.587607 117.327735 
L 310.513989 117.34492 
L 309.409722 117.396534 
L 309.409722 117.042892 
L 309.336104 117.060098 
L 308.599926 117.111774 
L 308.599926 116.781696 
L 307.642894 116.781696 
L 307.642894 116.098458 
L 307.569276 116.115575 
L 307.495659 116.115575 
L 307.495659 116.018914 
L 307.495659 115.905064 
L 307.422041 115.922147 
L 307.201187 115.922147 
L 307.12757 115.076453 
L 306.465009 115.076453 
L 306.391391 113.979558 
L 305.655213 113.897418 
L 305.581596 113.235544 
L 304.919035 113.235544 
L 304.845417 112.467166 
L 303.74115 112.483628 
L 303.74115 112.008721 
L 303.667532 112.025151 
L 303.004972 111.956427 
L 303.004972 111.462991 
L 302.931354 111.479341 
L 301.900705 111.426047 
L 301.900705 110.99374 
L 301.827087 111.010054 
L 301.458998 111.010054 
L 301.458998 110.132583 
L 300.575584 110.132583 
L 300.575584 109.239241 
L 299.692171 109.172359 
L 299.692171 109.188374 
L 299.692171 109.066684 
L 298.661521 109.114694 
L 298.661521 108.679793 
L 297.483636 108.679793 
L 297.483636 108.443842 
L 297.115547 108.443842 
L 297.115547 108.153244 
L 297.041929 108.169191 
L 295.790427 108.109214 
L 295.790427 107.570307 
L 295.716809 107.5862 
L 294.612542 107.649863 
L 294.538924 107.716429 
L 293.361039 107.655036 
L 293.361039 107.469761 
L 293.287421 107.485803 
L 292.477625 107.501855 
L 292.477625 107.409592 
L 292.404007 107.172007 
L 291.741447 107.204086 
L 291.741447 107.062086 
L 291.741447 106.934682 
L 291.667829 106.950703 
L 290.784416 106.950703 
L 290.784416 106.631579 
L 290.710798 106.647591 
L 290.63718 106.647591 
L 290.63718 106.663613 
L 290.63718 106.535319 
L 290.563562 106.551316 
L 289.680148 106.551316 
L 289.680148 106.486335 
L 289.606531 105.985902 
L 288.94397 105.985902 
L 288.94397 105.610608 
L 288.870353 105.626485 
L 287.61885 105.674172 
L 287.545232 104.866793 
L 286.882672 104.882572 
L 286.882672 104.614191 
L 286.809054 104.629951 
L 285.92564 104.629951 
L 285.92564 103.892108 
L 285.852022 103.907741 
L 284.526902 103.821693 
L 284.526902 103.120016 
L 284.453284 103.13554 
L 282.686456 103.234745 
L 282.686456 102.834381 
L 282.612839 102.849962 
L 282.171132 102.865553 
L 282.097514 102.142638 
L 281.508571 102.037018 
L 281.508571 101.992825 
L 280.698776 101.992825 
L 280.698776 101.475621 
L 280.625158 101.490967 
L 280.55154 101.490967 
L 280.55154 101.506322 
L 280.55154 101.36848 
L 280.477922 101.383805 
L 279.88898 101.383805 
L 279.88898 101.230106 
L 279.815362 101.245441 
L 277.385974 101.136063 
L 277.385974 100.635965 
L 277.312356 100.651317 
L 276.355325 100.743637 
L 276.281707 100.428142 
L 276.281707 100.443511 
L 275.398293 100.458891 
L 275.324675 100.060389 
L 275.324675 100.075723 
L 274.441262 99.99463 
L 274.441262 99.401904 
L 273.999555 99.401904 
L 273.999555 99.20585 
L 273.925937 99.221037 
L 273.778701 99.236235 
L 273.778701 99.251442 
L 273.778701 99.107431 
L 271.349314 99.191365 
L 271.275696 98.754139 
L 270.907607 98.754139 
L 270.907607 98.537656 
L 270.833989 98.552879 
L 270.760371 98.552879 
L 270.760371 98.568113 
L 270.760371 98.421431 
L 270.686753 98.436631 
L 266.858627 98.365566 
L 266.858627 98.344806 
L 266.858627 98.195004 
L 266.785009 98.21044 
L 265.533506 98.21044 
L 265.533506 97.719715 
L 265.459889 97.73511 
L 264.208386 97.781358 
L 264.134768 97.099379 
L 263.177737 97.099379 
L 263.177737 96.684811 
L 263.104119 96.700068 
L 263.030501 96.700068 
L 263.030501 96.715336 
L 263.030501 96.407254 
L 261.852616 96.326091 
L 261.852616 95.875348 
L 261.04282 95.875348 
L 260.969202 95.118704 
L 260.895584 95.118704 
L 260.895584 95.133635 
L 260.895584 94.976755 
L 260.821967 94.991645 
L 259.644082 94.991645 
L 259.644082 94.599198 
L 259.570464 94.614064 
L 258.539814 94.628941 
L 258.466197 94.041399 
L 256.772987 94.100571 
L 256.772987 93.900756 
L 256.699369 93.915622 
L 256.625751 93.915622 
L 256.625751 93.930499 
L 256.625751 93.607516 
L 256.552134 93.622296 
L 255.815955 93.637088 
L 255.742338 93.785602 
L 254.711688 93.845316 
L 254.711688 93.34228 
L 254.638071 93.357126 
L 253.828275 93.357126 
L 253.828275 92.863439 
L 253.754657 92.878196 
L 253.165714 92.966965 
L 253.092096 93.011501 
L 251.546122 93.011501 
L 251.472505 93.174631 
L 251.472505 93.00794 
L 251.398887 93.00794 
L 251.398887 93.022941 
L 251.398887 92.856066 
L 251.325269 92.871021 
L 250.073766 92.885988 
L 250.073766 91.778991 
L 250.000148 91.793682 
L 248.969499 91.823097 
L 248.969499 91.490207 
L 248.895881 91.504889 
L 247.865232 91.534286 
L 247.865232 91.368925 
L 247.791614 91.383656 
L 247.497143 91.42792 
L 247.497143 91.442697 
L 247.497143 91.270838 
L 245.730315 91.270838 
L 245.730315 90.932765 
L 245.435844 90.977071 
L 245.435844 90.991863 
L 245.435844 90.817583 
L 245.362226 90.832323 
L 245.067755 90.847076 
L 245.067755 90.541794 
L 243.816252 90.585846 
L 243.816252 90.087567 
L 243.742635 90.10218 
L 241.607718 90.190108 
L 241.607718 90.352492 
L 241.5341 89.830433 
L 238.663006 89.901834 
L 238.663006 88.587391 
L 238.589388 88.601892 
L 238.51577 88.601892 
L 238.51577 88.616405 
L 238.51577 88.432834 
L 237.190649 88.432834 
L 237.117032 87.968345 
L 236.528089 88.069395 
L 236.454471 88.098376 
L 234.172319 88.098376 
L 234.172319 88.553883 
L 234.172319 87.987604 
L 234.098701 88.002276 
L 229.239926 88.020655 
L 229.239926 87.440699 
L 229.166308 87.455614 
L 226.516067 87.364185 
L 226.516067 87.006901 
L 226.442449 87.021902 
L 226.368831 87.021902 
L 226.368831 87.036918 
L 226.368831 86.837306 
L 226.295213 86.852251 
L 224.307532 86.852251 
L 224.307532 86.451246 
L 224.233915 86.466234 
L 222.982412 86.556448 
L 222.982412 86.314076 
L 222.908794 86.329138 
L 222.761558 86.344215 
L 222.761558 86.359305 
L 222.761558 86.154232 
L 222.687941 86.169249 
L 222.540705 86.184279 
L 222.540705 86.199324 
L 222.540705 85.993798 
L 220.111317 86.083828 
L 220.111317 85.659402 
L 220.037699 85.674475 
L 219.890464 85.689563 
L 219.890464 85.494943 
L 218.197254 85.494943 
L 218.123636 85.859475 
L 218.050019 85.859475 
L 218.050019 85.874845 
L 217.976401 85.465365 
L 215.694249 85.495801 
L 215.694249 85.079707 
L 215.620631 85.09499 
L 213.412096 85.140925 
L 213.412096 84.460269 
L 213.338479 84.475517 
L 213.264861 84.475517 
L 213.264861 84.490779 
L 213.264861 84.04878 
L 211.866122 84.04878 
L 211.866122 83.890982 
L 211.792505 83.906136 
L 209.363117 84.012639 
L 209.363117 83.504146 
L 209.289499 83.519396 
L 208.700557 83.595881 
L 208.626939 83.65735 
L 206.418404 83.65735 
L 206.344787 83.209777 
L 206.271169 83.209777 
L 206.271169 83.225232 
L 206.271169 82.991352 
L 206.197551 83.006709 
L 203.54731 83.068296 
L 203.473692 82.151309 
L 203.326456 82.166578 
L 203.326456 82.181863 
L 203.252839 81.716034 
L 203.179221 81.716034 
L 203.179221 81.731111 
L 203.179221 81.490038 
L 200.970686 81.490038 
L 200.970686 80.718464 
L 200.897069 80.7333 
L 200.749833 80.748153 
L 200.749833 80.269254 
L 198.541299 80.298531 
L 198.467681 80.479084 
L 195.154879 80.524161 
L 195.154879 80.13904 
L 195.081262 80.154276 
L 192.578256 80.200088 
L 192.504638 79.640989 
L 192.43102 79.640989 
L 192.43102 79.65629 
L 192.43102 79.125248 
L 190.369722 79.125248 
L 190.369722 79.282544 
L 190.369722 79.012035 
L 190.296104 79.027262 
L 187.793098 79.119007 
L 187.793098 78.726147 
L 187.719481 78.741553 
L 181.903673 78.839691 
L 181.903673 78.855996 
L 179.253432 78.855996 
L 179.253432 77.959232 
L 179.179814 77.975407 
L 179.106197 77.975407 
L 179.106197 77.991603 
L 179.106197 77.69042 
L 179.032579 77.706448 
L 175.64616 77.812246 
L 175.572542 77.8622 
L 175.278071 77.91236 
L 175.278071 77.929126 
L 175.278071 77.616484 
L 172.922301 77.616484 
L 172.848683 78.176145 
L 172.848683 77.535755 
L 169.609499 77.552693 
L 169.535881 78.322442 
L 166.517551 78.431253 
L 166.443933 78.764036 
L 166.002226 78.859259 
L 165.928609 78.89755 
L 163.131132 78.935957 
L 163.057514 79.668106 
L 162.910278 79.688481 
L 162.910278 79.708887 
L 162.83666 79.021662 
L 160.186419 79.0816 
L 160.112801 79.416524 
L 160.039184 79.416524 
L 160.039184 79.437403 
L 160.039184 79.071894 
L 159.965566 79.092528 
L 159.891948 79.092528 
L 159.891948 79.113196 
L 159.891948 78.379279 
L 159.81833 78.399418 
L 159.744712 78.399418 
L 159.744712 78.41959 
L 159.744712 78.051173 
L 159.671095 78.071094 
L 156.873618 78.091047 
L 156.873618 76.560636 
L 156.8 76.580055 
L 156.358293 76.677647 
L 156.358293 76.697264 
L 153.928905 76.697264 
L 153.855288 77.384673 
L 153.855288 76.190488 
L 151.573135 76.270075 
L 151.499518 76.43285 
L 151.205046 76.494927 
L 151.205046 76.515694 
L 151.205046 76.103131 
L 148.628423 76.103131 
L 148.554805 76.863454 
L 148.113098 76.973131 
L 148.113098 76.995191 
L 145.094768 76.995191 
L 145.02115 77.960787 
L 144.653061 78.056916 
L 144.653061 78.081067 
L 141.855584 78.081067 
L 141.781967 78.596999 
L 141.561113 78.648499 
L 141.561113 78.674328 
L 141.561113 78.207423 
L 141.487495 78.23285 
L 141.119406 78.335088 
L 141.045788 78.386525 
L 139.058108 78.386525 
L 138.98449 78.645339 
L 138.910872 78.645339 
L 138.910872 78.672218 
L 138.910872 78.186273 
L 138.837254 78.212716 
L 137.070427 78.212716 
L 137.070427 78.365158 
L 136.996809 76.885307 
L 136.555102 76.937123 
L 136.481484 77.067677 
L 131.033766 77.131617 
L 130.960148 77.556001 
L 130.739295 77.614867 
L 130.739295 76.526359 
L 130.665677 76.554667 
L 129.119703 76.554667 
L 129.046085 77.195614 
L 126.763933 77.285795 
L 126.690315 78.194403 
L 126.395844 78.292386 
L 126.322226 78.358142 
L 126.248609 78.358142 
L 126.248609 78.391152 
L 126.248609 77.78691 
L 124.776252 77.78691 
L 124.776252 78.450442 
L 124.702635 77.238114 
L 122.052393 77.336194 
L 121.978776 77.849811 
L 121.684304 77.956 
L 121.610686 78.02731 
L 120.13833 78.099038 
L 120.064712 78.802039 
L 119.843859 78.87839 
L 119.770241 78.955205 
L 119.549388 79.032487 
L 119.549388 79.071305 
L 118.003414 79.071305 
L 117.929796 79.956277 
L 117.708942 80.039785 
L 117.708942 80.081737 
L 115.868497 80.081737 
L 115.794879 80.475555 
L 115.574026 80.564949 
L 115.500408 80.654939 
L 113.880816 80.700159 
L 113.807199 81.734661 
L 113.586345 81.832632 
L 113.512727 81.931286 
L 111.966753 82.030632 
L 111.966753 82.196237 
L 111.7459 82.300529 
L 111.672282 82.405584 
L 111.598664 82.405584 
L 111.598664 82.4584 
L 111.598664 81.634337 
L 111.525046 81.685929 
L 110.126308 81.685929 
L 110.05269 82.759133 
L 109.905455 82.814947 
L 109.905455 82.870976 
L 109.169276 82.870976 
L 109.169276 83.4433 
L 109.169276 82.566334 
L 109.095659 82.623194 
L 108.948423 82.623194 
L 108.948423 82.737584 
L 107.991391 82.737584 
L 107.917774 83.564252 
L 107.770538 83.625097 
L 107.69692 83.747529 
L 106.519035 83.747529 
L 106.445417 84.829917 
L 106.298182 84.89601 
L 106.224564 85.029038 
L 105.046679 85.095976 
L 104.973061 86.207094 
L 104.825826 86.279145 
L 104.752208 86.424206 
L 103.942412 86.497219 
L 103.942412 86.233476 
L 103.868794 86.308055 
L 102.838145 86.382975 
L 102.764527 87.469049 
L 102.617291 87.549384 
L 102.617291 87.6301 
L 102.617291 86.573093 
L 102.543673 86.651864 
L 102.396438 86.731012 
L 102.396438 86.81054 
L 101.66026 86.81054 
L 101.586642 87.7112 
L 101.439406 87.795504 
L 101.365788 87.965368 
L 101.218553 88.050933 
L 101.144935 88.223348 
L 100.408757 88.310203 
L 100.335139 89.203319 
L 100.187904 89.203319 
L 100.114286 89.480278 
L 99.96705 89.573556 
L 99.893432 89.761575 
L 99.746197 89.856322 
L 99.672579 90.047313 
L 99.230872 90.047313 
L 99.157254 90.731912 
L 99.010019 90.831815 
L 98.936401 91.033241 
L 98.347458 91.033241 
L 98.27384 91.967277 
L 98.126605 92.073942 
L 98.052987 92.289059 
L 97.905751 92.397521 
L 97.832134 92.616279 
L 97.316809 92.616279 
L 97.316809 93.401733 
L 96.875102 93.401733 
L 96.801484 94.219434 
L 96.727866 94.219434 
L 96.654249 94.459266 
L 96.580631 94.459266 
L 96.507013 94.701944 
L 96.507013 93.401733 
L 96.433395 93.401733 
L 96.433395 93.52064 
L 95.697217 93.52064 
L 95.697217 94.749952 
L 95.697217 93.401733 
L 95.623599 93.525057 
L 95.549981 93.525057 
L 95.549981 93.649148 
L 95.549981 92.284899 
L 95.476364 92.40589 
L 95.402746 92.40589 
L 95.402746 92.527639 
L 95.108275 92.527639 
L 95.034657 91.625707 
L 95.034657 91.747297 
L 94.961039 91.747297 
L 94.887421 91.992823 
L 94.813803 91.992823 
L 94.813803 92.116774 
L 94.740186 90.815127 
L 94.666568 90.815127 
L 94.666568 90.936453 
L 94.519332 90.936453 
L 94.445714 91.305221 
L 94.372096 91.305221 
L 94.298479 91.555136 
L 94.224861 91.555136 
L 94.151243 91.808384 
L 94.077625 91.808384 
L 94.077625 91.936278 
L 93.93039 91.936278 
L 93.856772 92.325146 
L 93.783154 92.325146 
L 93.709536 92.5888 
L 93.635918 92.5888 
L 93.562301 92.856066 
L 93.488683 92.856066 
L 93.415065 93.127018 
L 93.341447 93.127018 
L 93.267829 93.401733 
L 93.267829 91.875005 
L 93.194212 91.875005 
L 93.120594 92.143826 
L 93.046976 92.143826 
L 92.973358 92.416446 
L 92.973358 90.859154 
L 92.89974 90.859154 
L 92.826122 91.12552 
L 92.752505 91.12552 
L 92.678887 91.395718 
L 92.605269 91.395718 
L 92.531651 91.669832 
L 92.384416 91.669832 
L 92.310798 92.088533 
L 92.23718 92.088533 
L 92.163562 92.372818 
L 92.089944 92.372818 
L 92.016327 92.661329 
L 91.942709 92.661329 
L 91.869091 92.954163 
L 91.795473 92.954163 
L 91.721855 93.251417 
L 91.648237 93.251417 
L 91.57462 93.553192 
L 91.501002 93.553192 
L 91.427384 93.859592 
L 91.353766 93.859592 
L 91.280148 94.170724 
L 91.206531 94.170724 
L 91.206531 94.328099 
L 91.206531 92.626758 
L 91.132913 92.779331 
L 91.059295 92.779331 
L 90.985677 93.088082 
L 90.912059 93.088082 
L 90.838442 93.401733 
L 90.764824 93.401733 
L 90.691206 93.720403 
L 90.617588 93.720403 
L 90.54397 94.044213 
L 90.54397 92.272842 
L 90.470353 92.272842 
L 90.396735 92.5888 
L 90.323117 92.5888 
L 90.249499 92.909959 
L 90.175881 92.909959 
L 90.102263 93.236448 
L 90.028646 93.236448 
L 90.028646 93.401733 
L 89.88141 93.401733 
L 89.88141 93.73647 
L 89.734174 93.73647 
L 89.734174 94.076881 
L 89.734174 90.3376 
L 89.660557 90.495409 
L 89.586939 90.495409 
L 89.513321 90.815127 
L 89.366085 90.815127 
L 89.292468 91.305221 
L 89.21885 91.305221 
L 89.145232 91.639179 
L 89.071614 91.639179 
L 88.997996 91.9791 
L 88.924378 91.9791 
L 88.924378 92.151347 
L 88.777143 92.151347 
L 88.703525 92.677483 
L 88.629907 92.677483 
L 88.556289 93.036286 
L 88.482672 93.036286 
L 88.409054 93.401733 
L 88.335436 93.401733 
L 88.261818 93.774011 
L 88.1882 93.774011 
L 88.1882 93.962772 
L 88.040965 93.962772 
L 88.040965 94.34566 
L 87.893729 94.34566 
L 87.820111 94.9338 
L 87.672876 94.9338 
L 87.599258 95.539153 
L 87.452022 95.539153 
L 87.378404 96.162487 
L 87.157551 96.162487 
L 87.083933 97.022982 
L 87.010315 97.022982 
L 86.936698 97.4664 
L 86.86308 97.4664 
L 86.789462 97.918961 
L 86.715844 97.918961 
L 86.642226 98.38095 
L 86.642226 96.11293 
L 86.568609 96.11293 
L 86.494991 96.563141 
L 86.421373 96.563141 
L 86.421373 96.791838 
L 86.347755 94.686692 
L 86.274137 94.686692 
L 86.200519 95.133635 
L 86.126902 95.133635 
L 86.126902 95.360769 
L 86.053284 90.746151 
L 85.979666 90.746151 
L 85.906048 91.163883 
L 85.83243 91.163883 
L 85.758813 91.591109 
L 85.685195 91.591109 
L 85.685195 89.281002 
L 85.611577 89.487436 
L 85.464341 89.487436 
L 85.464341 89.907546 
L 85.243488 89.907546 
L 85.16987 90.777954 
L 85.096252 90.777954 
L 85.022635 91.228984 
L 84.949017 91.228984 
L 84.875399 91.691082 
L 84.801781 91.691082 
L 84.801781 91.92641 
L 84.654545 91.92641 
L 84.580928 92.650153 
L 84.50731 92.650153 
L 84.433692 93.148015 
L 84.212839 93.148015 
L 84.139221 94.182787 
L 83.991985 94.182787 
L 83.918367 94.995082 
L 83.697514 94.995082 
L 83.697514 92.856066 
L 83.47666 92.856066 
L 83.403043 93.962772 
L 83.329425 93.962772 
L 83.255807 94.53984 
L 83.182189 94.53984 
L 83.108571 95.133635 
L 83.034954 95.133635 
L 82.961336 95.744894 
L 82.887718 95.744894 
L 82.8141 96.3744 
L 82.740482 96.3744 
L 82.740482 96.696252 
L 82.740482 93.401733 
L 82.666865 93.705807 
L 82.593247 93.705807 
L 82.519629 94.328099 
L 82.372393 94.328099 
L 82.298776 95.298578 
L 82.225158 95.298578 
L 82.15154 95.971651 
L 82.077922 95.971651 
L 82.077922 96.316397 
L 81.930686 96.316397 
L 81.930686 97.022982 
L 81.636215 97.022982 
L 81.562597 98.896041 
L 81.48898 98.896041 
L 81.415362 99.69127 
L 81.341744 99.69127 
L 81.341744 100.09944 
L 81.268126 96.631495 
L 81.194508 96.631495 
L 81.120891 97.421651 
L 81.120891 93.401733 
L 81.047273 93.401733 
L 81.047273 93.774011 
L 80.900037 93.774011 
L 80.900037 94.53984 
L 80.752801 94.53984 
L 80.679184 95.744894 
L 80.605566 95.744894 
L 80.531948 96.588432 
L 80.45833 96.588432 
L 80.384712 97.4664 
L 80.311095 97.4664 
L 80.311095 97.918961 
L 80.237477 93.821036 
L 80.163859 93.821036 
L 80.163859 84.742226 
L 80.090241 85.0848 
L 80.016623 85.0848 
L 79.943006 85.793043 
L 79.648534 85.793043 
L 79.648534 87.309515 
L 79.501299 87.309515 
L 79.427681 88.543961 
L 79.354063 88.543961 
L 79.280445 89.41836 
L 79.206827 89.41836 
L 79.13321 90.3376 
L 78.985974 90.3376 
L 78.912356 91.808384 
L 78.838738 91.808384 
L 78.765121 92.856066 
L 78.691503 92.856066 
L 78.617885 93.962772 
L 78.544267 93.962772 
L 78.544267 94.53984 
L 78.544267 88.206029 
L 78.470649 88.715412 
L 78.397032 88.715412 
L 78.397032 82.537988 
L 78.323414 82.98368 
L 78.249796 82.98368 
L 78.249796 83.4433 
L 78.10256 83.4433 
L 78.028942 84.912577 
L 77.955325 84.912577 
L 77.881707 85.975105 
L 77.808089 85.975105 
L 77.734471 87.112196 
L 77.660853 87.112196 
L 77.660853 87.7112 
L 77.44 87.7112 
L 77.44 89.643834 
L 77.44 81.1452 
L 77.292764 81.1452 
L 77.219147 82.8336 
L 77.145529 82.8336 
L 77.071911 84.078945 
L 77.071911 74.350817 
L 76.998293 74.350817 
L 76.998293 74.812658 
L 76.851058 74.812658 
L 76.851058 75.800781 
L 76.703822 75.800781 
L 76.630204 77.46824 
L 76.556586 77.46824 
L 76.482968 78.726147 
L 76.409351 78.726147 
L 76.335733 80.123822 
L 76.262115 80.123822 
L 76.188497 81.685929 
L 76.188497 68.052994 
L 76.114879 68.052994 
L 76.041262 68.98751 
L 75.894026 68.98751 
L 75.820408 70.6396 
L 75.74679 70.6396 
L 75.673173 71.9528 
L 75.673173 53.568 
L 73.832727 53.568 
L 73.832727 53.568 
" clip-path="url(#pa2aed78f3a)" style="fill: none; stroke: #1f77b4; stroke-width: 1.5; stroke-linecap: square"/>
   </g>
   <g id="patch_3">
    <path d="M 57.6 307.584 
L 57.6 41.472 
" style="fill: none; stroke: #000000; stroke-width: 0.8; stroke-linejoin: miter; stroke-linecap: square"/>
   </g>
   <g id="patch_4">
    <path d="M 414.72 307.584 
L 414.72 41.472 
" style="fill: none; stroke: #000000; stroke-width: 0.8; stroke-linejoin: miter; stroke-linecap: square"/>
   </g>
   <g id="patch_5">
    <path d="M 57.6 307.584 
L 414.72 307.584 
" style="fill: none; stroke: #000000; stroke-width: 0.8; stroke-linejoin: miter; stroke-linecap: square"/>
   </g>
   <g id="patch_6">
    <path d="M 57.6 41.472 
L 414.72 41.472 
" style="fill: none; stroke: #000000; stroke-width: 0.8; stroke-linejoin: miter; stroke-linecap: square"/>
   </g>
  </g>
 </g>
 <defs>
  <clipPath id="pa2aed78f3a">
   <rect x="57.6" y="41.472" width="357.12" height="266.112"/>
  </clipPath>
 </defs>
</svg>
