<?xml version="1.0" encoding="utf-8" standalone="no"?>
<!DOCTYPE svg PUBLIC "-//W3C//DTD SVG 1.1//EN"
  "http://www.w3.org/Graphics/SVG/1.1/DTD/svg11.dtd">
<svg xmlns:xlink="http://www.w3.org/1999/xlink" width="460.8pt" height="345.6pt" viewBox="0 0 460.8 345.6" xmlns="http://www.w3.org/2000/svg" version="1.1">
 <metadata>
  <rdf:RDF xmlns:dc="http://purl.org/dc/elements/1.1/" xmlns:cc="http://creativecommons.org/ns#" xmlns:rdf="http://www.w3.org/1999/02/22-rdf-syntax-ns#">
   <cc:Work>
    <dc:type rdf:resource="http://purl.org/dc/dcmitype/StillImage"/>
    <dc:date>2022-11-30T02:59:08.819458</dc:date>
    <dc:format>image/svg+xml</dc:format>
    <dc:creator>
     <cc:Agent>
      <dc:title>Matplotlib v3.6.2, https://matplotlib.org/</dc:title>
     </cc:Agent>
    </dc:creator>
   </cc:Work>
  </rdf:RDF>
 </metadata>
 <defs>
  <style type="text/css">*{stroke-linejoin: round; stroke-linecap: butt}</style>
 </defs>
 <g id="figure_1">
  <g id="patch_1">
   <path d="M 0 345.6 
L 460.8 345.6 
L 460.8 0 
L 0 0 
z
" style="fill: #ffffff"/>
  </g>
  <g id="axes_1">
   <g id="patch_2">
    <path d="M 57.6 307.584 
L 414.72 307.584 
L 414.72 41.472 
L 57.6 41.472 
z
" style="fill: #ffffff"/>
   </g>
   <g id="matplotlib.axis_1">
    <g id="xtick_1">
     <g id="line2d_1">
      <defs>
       <path id="md428042ed3" d="M 0 0 
L 0 3.5 
" style="stroke: #000000; stroke-width: 0.8"/>
      </defs>
      <g>
       <use xlink:href="#md428042ed3" x="73.832727" y="307.584" style="stroke: #000000; stroke-width: 0.8"/>
      </g>
     </g>
     <g id="text_1">
      <!-- 0.0 -->
      <g transform="translate(65.881165 322.182437) scale(0.1 -0.1)">
       <defs>
        <path id="DejaVuSans-30" d="M 2034 4250 
Q 1547 4250 1301 3770 
Q 1056 3291 1056 2328 
Q 1056 1369 1301 889 
Q 1547 409 2034 409 
Q 2525 409 2770 889 
Q 3016 1369 3016 2328 
Q 3016 3291 2770 3770 
Q 2525 4250 2034 4250 
z
M 2034 4750 
Q 2819 4750 3233 4129 
Q 3647 3509 3647 2328 
Q 3647 1150 3233 529 
Q 2819 -91 2034 -91 
Q 1250 -91 836 529 
Q 422 1150 422 2328 
Q 422 3509 836 4129 
Q 1250 4750 2034 4750 
z
" transform="scale(0.015625)"/>
        <path id="DejaVuSans-2e" d="M 684 794 
L 1344 794 
L 1344 0 
L 684 0 
L 684 794 
z
" transform="scale(0.015625)"/>
       </defs>
       <use xlink:href="#DejaVuSans-30"/>
       <use xlink:href="#DejaVuSans-2e" x="63.623047"/>
       <use xlink:href="#DejaVuSans-30" x="95.410156"/>
      </g>
     </g>
    </g>
    <g id="xtick_2">
     <g id="line2d_2">
      <g>
       <use xlink:href="#md428042ed3" x="138.763636" y="307.584" style="stroke: #000000; stroke-width: 0.8"/>
      </g>
     </g>
     <g id="text_2">
      <!-- 0.2 -->
      <g transform="translate(130.812074 322.182437) scale(0.1 -0.1)">
       <defs>
        <path id="DejaVuSans-32" d="M 1228 531 
L 3431 531 
L 3431 0 
L 469 0 
L 469 531 
Q 828 903 1448 1529 
Q 2069 2156 2228 2338 
Q 2531 2678 2651 2914 
Q 2772 3150 2772 3378 
Q 2772 3750 2511 3984 
Q 2250 4219 1831 4219 
Q 1534 4219 1204 4116 
Q 875 4013 500 3803 
L 500 4441 
Q 881 4594 1212 4672 
Q 1544 4750 1819 4750 
Q 2544 4750 2975 4387 
Q 3406 4025 3406 3419 
Q 3406 3131 3298 2873 
Q 3191 2616 2906 2266 
Q 2828 2175 2409 1742 
Q 1991 1309 1228 531 
z
" transform="scale(0.015625)"/>
       </defs>
       <use xlink:href="#DejaVuSans-30"/>
       <use xlink:href="#DejaVuSans-2e" x="63.623047"/>
       <use xlink:href="#DejaVuSans-32" x="95.410156"/>
      </g>
     </g>
    </g>
    <g id="xtick_3">
     <g id="line2d_3">
      <g>
       <use xlink:href="#md428042ed3" x="203.694545" y="307.584" style="stroke: #000000; stroke-width: 0.8"/>
      </g>
     </g>
     <g id="text_3">
      <!-- 0.4 -->
      <g transform="translate(195.742983 322.182437) scale(0.1 -0.1)">
       <defs>
        <path id="DejaVuSans-34" d="M 2419 4116 
L 825 1625 
L 2419 1625 
L 2419 4116 
z
M 2253 4666 
L 3047 4666 
L 3047 1625 
L 3713 1625 
L 3713 1100 
L 3047 1100 
L 3047 0 
L 2419 0 
L 2419 1100 
L 313 1100 
L 313 1709 
L 2253 4666 
z
" transform="scale(0.015625)"/>
       </defs>
       <use xlink:href="#DejaVuSans-30"/>
       <use xlink:href="#DejaVuSans-2e" x="63.623047"/>
       <use xlink:href="#DejaVuSans-34" x="95.410156"/>
      </g>
     </g>
    </g>
    <g id="xtick_4">
     <g id="line2d_4">
      <g>
       <use xlink:href="#md428042ed3" x="268.625455" y="307.584" style="stroke: #000000; stroke-width: 0.8"/>
      </g>
     </g>
     <g id="text_4">
      <!-- 0.6 -->
      <g transform="translate(260.673892 322.182437) scale(0.1 -0.1)">
       <defs>
        <path id="DejaVuSans-36" d="M 2113 2584 
Q 1688 2584 1439 2293 
Q 1191 2003 1191 1497 
Q 1191 994 1439 701 
Q 1688 409 2113 409 
Q 2538 409 2786 701 
Q 3034 994 3034 1497 
Q 3034 2003 2786 2293 
Q 2538 2584 2113 2584 
z
M 3366 4563 
L 3366 3988 
Q 3128 4100 2886 4159 
Q 2644 4219 2406 4219 
Q 1781 4219 1451 3797 
Q 1122 3375 1075 2522 
Q 1259 2794 1537 2939 
Q 1816 3084 2150 3084 
Q 2853 3084 3261 2657 
Q 3669 2231 3669 1497 
Q 3669 778 3244 343 
Q 2819 -91 2113 -91 
Q 1303 -91 875 529 
Q 447 1150 447 2328 
Q 447 3434 972 4092 
Q 1497 4750 2381 4750 
Q 2619 4750 2861 4703 
Q 3103 4656 3366 4563 
z
" transform="scale(0.015625)"/>
       </defs>
       <use xlink:href="#DejaVuSans-30"/>
       <use xlink:href="#DejaVuSans-2e" x="63.623047"/>
       <use xlink:href="#DejaVuSans-36" x="95.410156"/>
      </g>
     </g>
    </g>
    <g id="xtick_5">
     <g id="line2d_5">
      <g>
       <use xlink:href="#md428042ed3" x="333.556364" y="307.584" style="stroke: #000000; stroke-width: 0.8"/>
      </g>
     </g>
     <g id="text_5">
      <!-- 0.8 -->
      <g transform="translate(325.604801 322.182437) scale(0.1 -0.1)">
       <defs>
        <path id="DejaVuSans-38" d="M 2034 2216 
Q 1584 2216 1326 1975 
Q 1069 1734 1069 1313 
Q 1069 891 1326 650 
Q 1584 409 2034 409 
Q 2484 409 2743 651 
Q 3003 894 3003 1313 
Q 3003 1734 2745 1975 
Q 2488 2216 2034 2216 
z
M 1403 2484 
Q 997 2584 770 2862 
Q 544 3141 544 3541 
Q 544 4100 942 4425 
Q 1341 4750 2034 4750 
Q 2731 4750 3128 4425 
Q 3525 4100 3525 3541 
Q 3525 3141 3298 2862 
Q 3072 2584 2669 2484 
Q 3125 2378 3379 2068 
Q 3634 1759 3634 1313 
Q 3634 634 3220 271 
Q 2806 -91 2034 -91 
Q 1263 -91 848 271 
Q 434 634 434 1313 
Q 434 1759 690 2068 
Q 947 2378 1403 2484 
z
M 1172 3481 
Q 1172 3119 1398 2916 
Q 1625 2713 2034 2713 
Q 2441 2713 2670 2916 
Q 2900 3119 2900 3481 
Q 2900 3844 2670 4047 
Q 2441 4250 2034 4250 
Q 1625 4250 1398 4047 
Q 1172 3844 1172 3481 
z
" transform="scale(0.015625)"/>
       </defs>
       <use xlink:href="#DejaVuSans-30"/>
       <use xlink:href="#DejaVuSans-2e" x="63.623047"/>
       <use xlink:href="#DejaVuSans-38" x="95.410156"/>
      </g>
     </g>
    </g>
    <g id="xtick_6">
     <g id="line2d_6">
      <g>
       <use xlink:href="#md428042ed3" x="398.487273" y="307.584" style="stroke: #000000; stroke-width: 0.8"/>
      </g>
     </g>
     <g id="text_6">
      <!-- 1.0 -->
      <g transform="translate(390.53571 322.182437) scale(0.1 -0.1)">
       <defs>
        <path id="DejaVuSans-31" d="M 794 531 
L 1825 531 
L 1825 4091 
L 703 3866 
L 703 4441 
L 1819 4666 
L 2450 4666 
L 2450 531 
L 3481 531 
L 3481 0 
L 794 0 
L 794 531 
z
" transform="scale(0.015625)"/>
       </defs>
       <use xlink:href="#DejaVuSans-31"/>
       <use xlink:href="#DejaVuSans-2e" x="63.623047"/>
       <use xlink:href="#DejaVuSans-30" x="95.410156"/>
      </g>
     </g>
    </g>
    <g id="text_7">
     <!-- Recall -->
     <g transform="translate(221.242812 335.860562) scale(0.1 -0.1)">
      <defs>
       <path id="DejaVuSans-52" d="M 2841 2188 
Q 3044 2119 3236 1894 
Q 3428 1669 3622 1275 
L 4263 0 
L 3584 0 
L 2988 1197 
Q 2756 1666 2539 1819 
Q 2322 1972 1947 1972 
L 1259 1972 
L 1259 0 
L 628 0 
L 628 4666 
L 2053 4666 
Q 2853 4666 3247 4331 
Q 3641 3997 3641 3322 
Q 3641 2881 3436 2590 
Q 3231 2300 2841 2188 
z
M 1259 4147 
L 1259 2491 
L 2053 2491 
Q 2509 2491 2742 2702 
Q 2975 2913 2975 3322 
Q 2975 3731 2742 3939 
Q 2509 4147 2053 4147 
L 1259 4147 
z
" transform="scale(0.015625)"/>
       <path id="DejaVuSans-65" d="M 3597 1894 
L 3597 1613 
L 953 1613 
Q 991 1019 1311 708 
Q 1631 397 2203 397 
Q 2534 397 2845 478 
Q 3156 559 3463 722 
L 3463 178 
Q 3153 47 2828 -22 
Q 2503 -91 2169 -91 
Q 1331 -91 842 396 
Q 353 884 353 1716 
Q 353 2575 817 3079 
Q 1281 3584 2069 3584 
Q 2775 3584 3186 3129 
Q 3597 2675 3597 1894 
z
M 3022 2063 
Q 3016 2534 2758 2815 
Q 2500 3097 2075 3097 
Q 1594 3097 1305 2825 
Q 1016 2553 972 2059 
L 3022 2063 
z
" transform="scale(0.015625)"/>
       <path id="DejaVuSans-63" d="M 3122 3366 
L 3122 2828 
Q 2878 2963 2633 3030 
Q 2388 3097 2138 3097 
Q 1578 3097 1268 2742 
Q 959 2388 959 1747 
Q 959 1106 1268 751 
Q 1578 397 2138 397 
Q 2388 397 2633 464 
Q 2878 531 3122 666 
L 3122 134 
Q 2881 22 2623 -34 
Q 2366 -91 2075 -91 
Q 1284 -91 818 406 
Q 353 903 353 1747 
Q 353 2603 823 3093 
Q 1294 3584 2113 3584 
Q 2378 3584 2631 3529 
Q 2884 3475 3122 3366 
z
" transform="scale(0.015625)"/>
       <path id="DejaVuSans-61" d="M 2194 1759 
Q 1497 1759 1228 1600 
Q 959 1441 959 1056 
Q 959 750 1161 570 
Q 1363 391 1709 391 
Q 2188 391 2477 730 
Q 2766 1069 2766 1631 
L 2766 1759 
L 2194 1759 
z
M 3341 1997 
L 3341 0 
L 2766 0 
L 2766 531 
Q 2569 213 2275 61 
Q 1981 -91 1556 -91 
Q 1019 -91 701 211 
Q 384 513 384 1019 
Q 384 1609 779 1909 
Q 1175 2209 1959 2209 
L 2766 2209 
L 2766 2266 
Q 2766 2663 2505 2880 
Q 2244 3097 1772 3097 
Q 1472 3097 1187 3025 
Q 903 2953 641 2809 
L 641 3341 
Q 956 3463 1253 3523 
Q 1550 3584 1831 3584 
Q 2591 3584 2966 3190 
Q 3341 2797 3341 1997 
z
" transform="scale(0.015625)"/>
       <path id="DejaVuSans-6c" d="M 603 4863 
L 1178 4863 
L 1178 0 
L 603 0 
L 603 4863 
z
" transform="scale(0.015625)"/>
      </defs>
      <use xlink:href="#DejaVuSans-52"/>
      <use xlink:href="#DejaVuSans-65" x="64.982422"/>
      <use xlink:href="#DejaVuSans-63" x="126.505859"/>
      <use xlink:href="#DejaVuSans-61" x="181.486328"/>
      <use xlink:href="#DejaVuSans-6c" x="242.765625"/>
      <use xlink:href="#DejaVuSans-6c" x="270.548828"/>
     </g>
    </g>
   </g>
   <g id="matplotlib.axis_2">
    <g id="ytick_1">
     <g id="line2d_7">
      <defs>
       <path id="m3853b106e3" d="M 0 0 
L -3.5 0 
" style="stroke: #000000; stroke-width: 0.8"/>
      </defs>
      <g>
       <use xlink:href="#m3853b106e3" x="57.6" y="296.877718" style="stroke: #000000; stroke-width: 0.8"/>
      </g>
     </g>
     <g id="text_8">
      <!-- 0.5 -->
      <g transform="translate(34.696875 300.676937) scale(0.1 -0.1)">
       <defs>
        <path id="DejaVuSans-35" d="M 691 4666 
L 3169 4666 
L 3169 4134 
L 1269 4134 
L 1269 2991 
Q 1406 3038 1543 3061 
Q 1681 3084 1819 3084 
Q 2600 3084 3056 2656 
Q 3513 2228 3513 1497 
Q 3513 744 3044 326 
Q 2575 -91 1722 -91 
Q 1428 -91 1123 -41 
Q 819 9 494 109 
L 494 744 
Q 775 591 1075 516 
Q 1375 441 1709 441 
Q 2250 441 2565 725 
Q 2881 1009 2881 1497 
Q 2881 1984 2565 2268 
Q 2250 2553 1709 2553 
Q 1456 2553 1204 2497 
Q 953 2441 691 2322 
L 691 4666 
z
" transform="scale(0.015625)"/>
       </defs>
       <use xlink:href="#DejaVuSans-30"/>
       <use xlink:href="#DejaVuSans-2e" x="63.623047"/>
       <use xlink:href="#DejaVuSans-35" x="95.410156"/>
      </g>
     </g>
    </g>
    <g id="ytick_2">
     <g id="line2d_8">
      <g>
       <use xlink:href="#m3853b106e3" x="57.6" y="248.215775" style="stroke: #000000; stroke-width: 0.8"/>
      </g>
     </g>
     <g id="text_9">
      <!-- 0.6 -->
      <g transform="translate(34.696875 252.014993) scale(0.1 -0.1)">
       <use xlink:href="#DejaVuSans-30"/>
       <use xlink:href="#DejaVuSans-2e" x="63.623047"/>
       <use xlink:href="#DejaVuSans-36" x="95.410156"/>
      </g>
     </g>
    </g>
    <g id="ytick_3">
     <g id="line2d_9">
      <g>
       <use xlink:href="#m3853b106e3" x="57.6" y="199.553831" style="stroke: #000000; stroke-width: 0.8"/>
      </g>
     </g>
     <g id="text_10">
      <!-- 0.7 -->
      <g transform="translate(34.696875 203.35305) scale(0.1 -0.1)">
       <defs>
        <path id="DejaVuSans-37" d="M 525 4666 
L 3525 4666 
L 3525 4397 
L 1831 0 
L 1172 0 
L 2766 4134 
L 525 4134 
L 525 4666 
z
" transform="scale(0.015625)"/>
       </defs>
       <use xlink:href="#DejaVuSans-30"/>
       <use xlink:href="#DejaVuSans-2e" x="63.623047"/>
       <use xlink:href="#DejaVuSans-37" x="95.410156"/>
      </g>
     </g>
    </g>
    <g id="ytick_4">
     <g id="line2d_10">
      <g>
       <use xlink:href="#m3853b106e3" x="57.6" y="150.891887" style="stroke: #000000; stroke-width: 0.8"/>
      </g>
     </g>
     <g id="text_11">
      <!-- 0.8 -->
      <g transform="translate(34.696875 154.691106) scale(0.1 -0.1)">
       <use xlink:href="#DejaVuSans-30"/>
       <use xlink:href="#DejaVuSans-2e" x="63.623047"/>
       <use xlink:href="#DejaVuSans-38" x="95.410156"/>
      </g>
     </g>
    </g>
    <g id="ytick_5">
     <g id="line2d_11">
      <g>
       <use xlink:href="#m3853b106e3" x="57.6" y="102.229944" style="stroke: #000000; stroke-width: 0.8"/>
      </g>
     </g>
     <g id="text_12">
      <!-- 0.9 -->
      <g transform="translate(34.696875 106.029162) scale(0.1 -0.1)">
       <defs>
        <path id="DejaVuSans-39" d="M 703 97 
L 703 672 
Q 941 559 1184 500 
Q 1428 441 1663 441 
Q 2288 441 2617 861 
Q 2947 1281 2994 2138 
Q 2813 1869 2534 1725 
Q 2256 1581 1919 1581 
Q 1219 1581 811 2004 
Q 403 2428 403 3163 
Q 403 3881 828 4315 
Q 1253 4750 1959 4750 
Q 2769 4750 3195 4129 
Q 3622 3509 3622 2328 
Q 3622 1225 3098 567 
Q 2575 -91 1691 -91 
Q 1453 -91 1209 -44 
Q 966 3 703 97 
z
M 1959 2075 
Q 2384 2075 2632 2365 
Q 2881 2656 2881 3163 
Q 2881 3666 2632 3958 
Q 2384 4250 1959 4250 
Q 1534 4250 1286 3958 
Q 1038 3666 1038 3163 
Q 1038 2656 1286 2365 
Q 1534 2075 1959 2075 
z
" transform="scale(0.015625)"/>
       </defs>
       <use xlink:href="#DejaVuSans-30"/>
       <use xlink:href="#DejaVuSans-2e" x="63.623047"/>
       <use xlink:href="#DejaVuSans-39" x="95.410156"/>
      </g>
     </g>
    </g>
    <g id="ytick_6">
     <g id="line2d_12">
      <g>
       <use xlink:href="#m3853b106e3" x="57.6" y="53.568" style="stroke: #000000; stroke-width: 0.8"/>
      </g>
     </g>
     <g id="text_13">
      <!-- 1.0 -->
      <g transform="translate(34.696875 57.367219) scale(0.1 -0.1)">
       <use xlink:href="#DejaVuSans-31"/>
       <use xlink:href="#DejaVuSans-2e" x="63.623047"/>
       <use xlink:href="#DejaVuSans-30" x="95.410156"/>
      </g>
     </g>
    </g>
    <g id="text_14">
     <!-- Precision -->
     <g transform="translate(28.617187 196.835031) rotate(-90) scale(0.1 -0.1)">
      <defs>
       <path id="DejaVuSans-50" d="M 1259 4147 
L 1259 2394 
L 2053 2394 
Q 2494 2394 2734 2622 
Q 2975 2850 2975 3272 
Q 2975 3691 2734 3919 
Q 2494 4147 2053 4147 
L 1259 4147 
z
M 628 4666 
L 2053 4666 
Q 2838 4666 3239 4311 
Q 3641 3956 3641 3272 
Q 3641 2581 3239 2228 
Q 2838 1875 2053 1875 
L 1259 1875 
L 1259 0 
L 628 0 
L 628 4666 
z
" transform="scale(0.015625)"/>
       <path id="DejaVuSans-72" d="M 2631 2963 
Q 2534 3019 2420 3045 
Q 2306 3072 2169 3072 
Q 1681 3072 1420 2755 
Q 1159 2438 1159 1844 
L 1159 0 
L 581 0 
L 581 3500 
L 1159 3500 
L 1159 2956 
Q 1341 3275 1631 3429 
Q 1922 3584 2338 3584 
Q 2397 3584 2469 3576 
Q 2541 3569 2628 3553 
L 2631 2963 
z
" transform="scale(0.015625)"/>
       <path id="DejaVuSans-69" d="M 603 3500 
L 1178 3500 
L 1178 0 
L 603 0 
L 603 3500 
z
M 603 4863 
L 1178 4863 
L 1178 4134 
L 603 4134 
L 603 4863 
z
" transform="scale(0.015625)"/>
       <path id="DejaVuSans-73" d="M 2834 3397 
L 2834 2853 
Q 2591 2978 2328 3040 
Q 2066 3103 1784 3103 
Q 1356 3103 1142 2972 
Q 928 2841 928 2578 
Q 928 2378 1081 2264 
Q 1234 2150 1697 2047 
L 1894 2003 
Q 2506 1872 2764 1633 
Q 3022 1394 3022 966 
Q 3022 478 2636 193 
Q 2250 -91 1575 -91 
Q 1294 -91 989 -36 
Q 684 19 347 128 
L 347 722 
Q 666 556 975 473 
Q 1284 391 1588 391 
Q 1994 391 2212 530 
Q 2431 669 2431 922 
Q 2431 1156 2273 1281 
Q 2116 1406 1581 1522 
L 1381 1569 
Q 847 1681 609 1914 
Q 372 2147 372 2553 
Q 372 3047 722 3315 
Q 1072 3584 1716 3584 
Q 2034 3584 2315 3537 
Q 2597 3491 2834 3397 
z
" transform="scale(0.015625)"/>
       <path id="DejaVuSans-6f" d="M 1959 3097 
Q 1497 3097 1228 2736 
Q 959 2375 959 1747 
Q 959 1119 1226 758 
Q 1494 397 1959 397 
Q 2419 397 2687 759 
Q 2956 1122 2956 1747 
Q 2956 2369 2687 2733 
Q 2419 3097 1959 3097 
z
M 1959 3584 
Q 2709 3584 3137 3096 
Q 3566 2609 3566 1747 
Q 3566 888 3137 398 
Q 2709 -91 1959 -91 
Q 1206 -91 779 398 
Q 353 888 353 1747 
Q 353 2609 779 3096 
Q 1206 3584 1959 3584 
z
" transform="scale(0.015625)"/>
       <path id="DejaVuSans-6e" d="M 3513 2113 
L 3513 0 
L 2938 0 
L 2938 2094 
Q 2938 2591 2744 2837 
Q 2550 3084 2163 3084 
Q 1697 3084 1428 2787 
Q 1159 2491 1159 1978 
L 1159 0 
L 581 0 
L 581 3500 
L 1159 3500 
L 1159 2956 
Q 1366 3272 1645 3428 
Q 1925 3584 2291 3584 
Q 2894 3584 3203 3211 
Q 3513 2838 3513 2113 
z
" transform="scale(0.015625)"/>
      </defs>
      <use xlink:href="#DejaVuSans-50"/>
      <use xlink:href="#DejaVuSans-72" x="58.552734"/>
      <use xlink:href="#DejaVuSans-65" x="97.416016"/>
      <use xlink:href="#DejaVuSans-63" x="158.939453"/>
      <use xlink:href="#DejaVuSans-69" x="213.919922"/>
      <use xlink:href="#DejaVuSans-73" x="241.703125"/>
      <use xlink:href="#DejaVuSans-69" x="293.802734"/>
      <use xlink:href="#DejaVuSans-6f" x="321.585938"/>
      <use xlink:href="#DejaVuSans-6e" x="382.767578"/>
     </g>
    </g>
   </g>
   <g id="line2d_13">
    <path d="M 398.487273 295.488 
L 398.414967 274.667241 
L 398.34266 274.667241 
L 398.34266 274.564957 
L 398.270354 270.491116 
L 398.198048 270.491116 
L 398.198048 269.581909 
L 398.125742 269.60869 
L 398.053436 269.60869 
L 398.053436 269.501225 
L 397.98113 260.362535 
L 397.764211 260.389064 
L 397.764211 260.262542 
L 397.691905 260.073254 
L 397.619599 260.073254 
L 397.547293 256.220385 
L 397.474987 256.220385 
L 397.474987 256.172754 
L 397.402681 248.905738 
L 397.330375 248.905738 
L 397.330375 248.814931 
L 397.258068 246.045715 
L 397.185762 246.045715 
L 397.185762 246.031973 
L 397.185762 244.553403 
L 397.113456 244.579352 
L 397.04115 244.579352 
L 396.968844 243.096964 
L 396.896538 243.096964 
L 396.896538 243.082265 
L 396.824232 238.028829 
L 396.751925 238.028829 
L 396.751925 237.92841 
L 396.751925 237.507436 
L 396.607313 237.507436 
L 396.607313 237.432152 
L 396.535007 234.603851 
L 396.462701 234.603851 
L 396.462701 234.500273 
L 396.462701 233.463899 
L 396.318089 233.463899 
L 396.245783 232.583798 
L 396.173476 232.583798 
L 396.173476 232.478295 
L 396.10117 229.640067 
L 396.028864 229.640067 
L 396.028864 229.620807 
L 395.956558 227.631267 
L 395.884252 227.631267 
L 395.884252 227.521111 
L 395.811946 226.23259 
L 395.595027 226.166603 
L 395.522721 223.717641 
L 395.450415 223.717641 
L 395.450415 223.649962 
L 395.378109 221.859011 
L 395.233497 221.859011 
L 395.161191 220.993817 
L 394.944272 221.018533 
L 394.871966 218.47953 
L 394.79966 218.47953 
L 394.79966 218.40825 
L 394.727354 216.988236 
L 394.655048 216.988236 
L 394.582741 215.579343 
L 394.438129 215.579343 
L 394.365823 213.341382 
L 394.293517 213.341382 
L 394.293517 213.266512 
L 394.221211 211.596958 
L 394.148905 211.596958 
L 394.148905 211.520856 
L 394.148905 211.470739 
L 393.931986 211.368443 
L 393.931986 211.392527 
L 393.931986 209.930769 
L 393.85968 209.954743 
L 393.570456 209.978725 
L 393.570456 208.830623 
L 393.498149 208.854535 
L 393.425843 208.854535 
L 393.425843 208.776357 
L 393.353537 206.486119 
L 392.992006 206.481793 
L 392.9197 204.595692 
L 392.847394 204.595692 
L 392.847394 204.514367 
L 392.775088 202.849965 
L 392.630476 202.849965 
L 392.630476 201.779693 
L 392.55817 201.803074 
L 392.485864 201.803074 
L 392.485864 201.719656 
L 392.485864 201.559321 
L 392.341251 201.559321 
L 392.268945 200.556375 
L 392.196639 200.556375 
L 392.196639 200.471981 
L 392.124333 200.063785 
L 391.979721 200.063785 
L 391.907414 198.668786 
L 391.762802 198.582922 
L 391.762802 198.606073 
L 391.762802 198.22393 
L 391.690496 198.247053 
L 391.401272 198.215511 
L 391.328965 196.935076 
L 391.184353 196.935076 
L 391.112047 195.619728 
L 390.750516 195.642655 
L 390.750516 194.506239 
L 390.67821 194.529085 
L 390.533598 194.439829 
L 390.461292 193.247268 
L 390.388986 193.247268 
L 390.388986 193.156993 
L 390.388986 193.043899 
L 390.172067 193.043899 
L 390.172067 189.914315 
L 389.955149 189.914315 
L 389.882843 188.440528 
L 389.593618 188.440528 
L 389.593618 187.244889 
L 389.449006 187.244889 
L 389.449006 187.230667 
L 389.449006 186.171797 
L 389.3767 186.193901 
L 389.304394 186.193901 
L 389.304394 186.097943 
L 389.304394 186.038879 
L 389.232087 186.06098 
L 388.942863 186.046101 
L 388.870557 184.866357 
L 388.581332 184.888364 
L 388.581332 183.818929 
L 388.509026 183.840846 
L 388.219802 183.84665 
L 388.219802 183.808574 
L 388.219802 183.628402 
L 388.147495 183.650324 
L 387.641353 183.672253 
L 387.641353 182.657666 
L 387.569046 182.679523 
L 387.207516 182.640838 
L 387.13521 181.595257 
L 387.062903 181.595257 
L 387.062903 181.495009 
L 387.062903 181.250709 
L 386.845985 181.250709 
L 386.773679 179.987518 
L 386.701373 179.987518 
L 386.701373 179.885879 
L 386.701373 179.824215 
L 386.55676 179.824215 
L 386.55676 178.815688 
L 386.484454 178.837197 
L 386.339842 178.734546 
L 386.339842 178.756056 
L 386.267536 178.591119 
L 385.906005 178.612623 
L 385.833699 177.408779 
L 385.472168 177.306207 
L 385.472168 177.327615 
L 385.399862 175.645859 
L 385.327556 175.645859 
L 385.327556 175.540275 
L 385.327556 175.476836 
L 385.182944 175.476836 
L 385.110638 174.840964 
L 384.893719 174.755772 
L 384.893719 174.776926 
L 384.821413 174.478858 
L 384.749107 174.478858 
L 384.676801 173.366999 
L 384.31527 173.280309 
L 384.31527 172.568883 
L 384.242964 172.589822 
L 383.519903 172.586111 
L 383.447597 171.455455 
L 383.375291 171.455455 
L 383.375291 171.345757 
L 383.375291 171.28044 
L 383.01376 171.28044 
L 382.941454 170.093487 
L 382.869148 170.093487 
L 382.869148 169.982475 
L 382.796841 168.74677 
L 382.579923 168.65515 
L 382.579923 168.675727 
L 382.507617 168.297287 
L 382.07378 168.31783 
L 382.07378 167.351589 
L 382.001474 167.372042 
L 381.784556 167.345926 
L 381.784556 167.299315 
L 381.712249 167.051193 
L 381.567637 167.051193 
L 381.495331 166.304139 
L 380.699964 166.338448 
L 380.699964 165.443672 
L 380.627657 165.463976 
L 380.483045 165.484287 
L 380.483045 165.368506 
L 380.410739 165.048089 
L 379.83229 165.048089 
L 379.759984 163.860104 
L 379.687678 163.860104 
L 379.687678 163.81146 
L 379.687678 163.742627 
L 379.326147 163.742627 
L 379.253841 162.272287 
L 378.675392 162.342811 
L 378.675392 162.22363 
L 378.675392 162.084314 
L 378.603086 162.104317 
L 378.386167 162.104317 
L 378.313861 161.275741 
L 378.096943 161.245492 
L 378.096943 161.195286 
L 378.024637 160.934386 
L 377.735412 160.883999 
L 377.735412 160.450806 
L 377.663106 160.470654 
L 377.518494 160.49051 
L 377.518494 160.369255 
L 377.446187 159.894302 
L 377.012351 159.894302 
L 376.940045 158.610804 
L 376.65082 158.630457 
L 376.65082 157.758801 
L 376.578514 157.778356 
L 376.289289 157.693406 
L 376.289289 157.712972 
L 376.289289 157.569184 
L 375.71084 157.569184 
L 375.638534 156.227223 
L 375.277003 156.159607 
L 375.277003 156.179026 
L 375.277003 156.033596 
L 375.204697 156.053003 
L 374.553942 156.053003 
L 374.481636 154.784843 
L 374.120105 154.715061 
L 374.120105 154.734352 
L 374.120105 154.660821 
L 374.047799 154.68011 
L 373.107819 154.68011 
L 373.035513 153.842228 
L 372.963207 153.842228 
L 372.963207 153.78732 
L 372.963207 153.193087 
L 372.890901 153.212242 
L 372.818595 153.212242 
L 372.818595 153.156975 
L 372.818595 153.082517 
L 371.878615 153.082517 
L 371.806309 151.853064 
L 371.734003 151.853064 
L 371.734003 151.796875 
L 371.734003 151.72162 
L 371.661697 151.740642 
L 371.010941 151.759672 
L 370.938635 150.645402 
L 370.794023 150.664318 
L 370.794023 150.607315 
L 370.721717 150.398243 
L 370.360186 150.436038 
L 370.28788 149.366733 
L 369.926349 149.288591 
L 369.926349 149.307367 
L 369.926349 149.230679 
L 369.203288 149.230679 
L 369.203288 148.494747 
L 369.130982 148.513456 
L 369.058676 148.513456 
L 369.058676 148.454952 
L 369.058676 148.377703 
L 368.98637 148.396403 
L 368.914064 148.396403 
L 368.914064 148.337807 
L 368.841757 147.969479 
L 368.407921 147.969479 
L 368.407921 147.226568 
L 368.335614 147.245136 
L 368.191002 147.263712 
L 368.191002 147.204353 
L 368.118696 147.066931 
L 367.974084 147.007435 
L 367.974084 147.025993 
L 367.974084 146.947892 
L 367.901778 146.966445 
L 367.829472 146.966445 
L 367.829472 146.90685 
L 367.829472 146.828663 
L 367.323329 146.828663 
L 367.323329 145.702058 
L 367.251022 145.720462 
L 367.10641 145.738874 
L 367.10641 145.678455 
L 367.034104 145.460128 
L 366.16643 145.460128 
L 366.094124 144.827484 
L 365.660288 144.839748 
L 365.660288 144.778529 
L 365.660288 144.698905 
L 365.587981 144.71726 
L 364.720308 144.649653 
L 364.648002 143.514681 
L 364.575695 143.514681 
L 364.575695 143.45249 
L 364.503389 143.309746 
L 364.431083 143.309746 
L 364.431083 143.247409 
L 364.431083 143.166828 
L 363.491103 143.166828 
L 363.418797 142.612805 
L 363.274185 142.630974 
L 363.274185 142.568003 
L 363.274185 142.486823 
L 363.201879 142.504981 
L 362.551124 142.577686 
L 362.551124 141.363256 
L 362.478818 141.38128 
L 362.189593 141.271503 
L 362.189593 141.289531 
L 362.117287 140.814918 
L 361.032695 140.814918 
L 360.960389 139.531044 
L 360.165021 139.483589 
L 360.165021 138.559056 
L 360.092715 138.576774 
L 359.875797 138.528465 
L 359.875797 138.546191 
L 359.875797 138.294641 
L 359.803491 138.312333 
L 358.646592 138.246085 
L 358.646592 137.415014 
L 358.574286 137.432636 
L 358.357368 137.383209 
L 358.357368 137.400839 
L 358.285062 137.079232 
L 358.140449 137.011906 
L 358.140449 137.029488 
L 358.068143 136.536665 
L 357.489694 136.536665 
L 357.417388 135.925325 
L 357.20047 135.960229 
L 357.20047 135.892001 
L 357.20047 135.806272 
L 357.128164 135.823714 
L 356.983551 135.755369 
L 356.983551 135.772811 
L 356.911245 135.532574 
L 356.766633 135.549987 
L 356.766633 135.48141 
L 356.766633 135.395376 
L 356.188184 135.395376 
L 356.188184 134.238088 
L 356.115878 134.255325 
L 355.609735 134.358904 
L 355.609735 134.376192 
L 355.609735 134.289332 
L 355.537429 134.306613 
L 355.32051 134.254256 
L 355.32051 134.271545 
L 355.32051 134.097519 
L 354.886673 134.097519 
L 354.814367 132.37999 
L 354.742061 132.37999 
L 354.742061 132.309009 
L 354.669755 132.149895 
L 353.368245 132.200823 
L 353.295938 131.499014 
L 353.151326 131.42711 
L 353.151326 131.444039 
L 353.151326 131.266209 
L 353.07902 131.283115 
L 353.006714 131.283115 
L 353.006714 131.211023 
L 353.006714 131.121979 
L 352.13904 131.121979 
L 352.13904 130.341001 
L 352.066734 130.357804 
L 351.849816 130.391432 
L 351.849816 130.318492 
L 351.849816 130.228687 
L 351.054448 130.228687 
L 350.982142 129.166656 
L 350.765224 129.109364 
L 350.765224 129.126025 
L 350.765224 129.035343 
L 350.692918 129.051995 
L 350.620611 129.051995 
L 350.620611 128.977899 
L 350.620611 128.887105 
L 350.259081 128.887105 
L 350.186775 127.893159 
L 349.89755 127.851153 
L 349.89755 127.867639 
L 349.89755 127.684548 
L 348.740652 127.684548 
L 348.740652 127.028192 
L 348.668346 127.0446 
L 347.511448 127.143204 
L 347.511448 126.566379 
L 347.439142 126.582776 
L 346.137631 126.555444 
L 346.065325 125.398625 
L 345.7761 125.353464 
L 345.7761 125.369735 
L 345.7761 125.181609 
L 345.703794 125.197851 
L 344.257672 125.090666 
L 344.257672 124.956615 
L 344.185365 124.972906 
L 343.751529 124.864699 
L 343.751529 124.880999 
L 343.751529 124.500856 
L 343.679223 124.517092 
L 342.59463 124.517092 
L 342.59463 123.709323 
L 342.522324 123.725478 
L 342.2331 123.677993 
L 342.2331 123.694158 
L 342.2331 123.405861 
L 342.160794 123.421979 
L 340.931589 123.454236 
L 340.931589 122.729889 
L 340.859283 122.745955 
L 338.907018 122.712621 
L 338.907018 122.303423 
L 338.834711 122.319528 
L 338.328569 122.220179 
L 338.328569 122.236298 
L 338.328569 122.138141 
L 338.256262 122.154249 
L 338.11165 122.154249 
L 338.11165 122.088226 
L 338.11165 121.989919 
L 337.099364 121.989919 
L 337.027058 121.540604 
L 334.496343 121.55414 
L 334.496343 120.9085 
L 334.424037 120.924599 
L 333.917894 120.820555 
L 333.917894 120.836667 
L 333.917894 120.736175 
L 332.327159 120.736175 
L 332.327159 120.48551 
L 332.254853 120.501658 
L 331.893323 120.566328 
L 331.893323 120.481113 
L 331.893323 120.27816 
L 331.821016 120.294293 
L 330.374894 120.25725 
L 330.374894 119.596508 
L 330.302588 119.612597 
L 330.085669 119.542252 
L 330.085669 119.558343 
L 330.085669 119.25034 
L 330.013363 119.266376 
L 328.856465 119.266376 
L 328.856465 118.80105 
L 328.784159 118.81707 
L 328.711853 118.81707 
L 328.711853 118.729571 
L 328.711853 118.314954 
L 328.639546 118.330882 
L 328.494934 118.346818 
L 328.494934 118.258915 
L 328.494934 118.155017 
L 327.26573 118.155017 
L 327.193424 117.291974 
L 327.121118 117.291974 
L 327.121118 117.202849 
L 327.121118 117.097864 
L 327.048812 117.113636 
L 326.831893 117.0401 
L 326.831893 117.055874 
L 326.831893 116.740183 
L 325.602689 116.740183 
L 325.602689 116.055052 
L 325.530383 116.070697 
L 325.168852 116.133356 
L 325.168852 116.042712 
L 325.096546 115.845519 
L 323.795035 115.939428 
L 323.795035 115.700081 
L 323.722729 115.715763 
L 323.578117 115.731452 
L 323.578117 115.639941 
L 323.578117 115.532678 
L 323.505811 115.548338 
L 323.288892 115.57968 
L 323.288892 115.487954 
L 323.288892 115.380489 
L 321.698158 115.380489 
L 321.698158 114.860708 
L 321.625851 114.87634 
L 321.481239 114.89198 
L 321.481239 114.799083 
L 321.408933 114.597411 
L 321.192015 114.628604 
L 321.192015 114.535406 
L 321.192015 114.426543 
L 321.119708 114.442112 
L 319.384361 114.348723 
L 319.384361 113.500216 
L 319.312055 113.515694 
L 316.78134 113.434416 
L 316.78134 113.172209 
L 316.709034 113.187779 
L 316.41981 113.122889 
L 316.41981 113.138467 
L 316.41981 112.91494 
L 316.347504 112.930476 
L 316.202891 112.94602 
L 316.202891 112.849645 
L 316.202891 112.737659 
L 316.130585 112.753169 
L 315.262912 112.672092 
L 315.190605 111.715878 
L 313.310646 111.710211 
L 313.23834 110.763941 
L 313.093727 110.779189 
L 313.093727 110.67991 
L 313.093727 110.565314 
L 313.021421 110.580525 
L 310.563013 110.641453 
L 310.563013 109.362116 
L 310.490707 109.377208 
L 309.261502 109.305888 
L 309.261502 108.226454 
L 309.189196 108.241359 
L 307.020012 108.302699 
L 307.020012 107.74112 
L 306.947706 107.756052 
L 306.369257 107.860807 
L 306.296951 107.890811 
L 304.127767 107.890811 
L 304.127767 107.259251 
L 304.055461 107.274252 
L 303.621624 107.228246 
L 303.621624 107.243268 
L 303.621624 107.000722 
L 303.549318 107.015694 
L 302.175501 107.075663 
L 302.175501 105.833513 
L 302.103195 105.84829 
L 301.524746 105.951962 
L 301.45244 105.981658 
L 301.307827 105.873379 
L 301.307827 105.888217 
L 301.235521 105.656452 
L 299.789399 105.656452 
L 299.789399 104.959692 
L 299.717093 104.974405 
L 299.427868 104.893868 
L 299.427868 104.908583 
L 299.427868 104.658853 
L 299.355562 104.673513 
L 298.126358 104.592445 
L 298.126358 104.295582 
L 298.054051 104.310235 
L 295.523337 104.330966 
L 295.523337 103.682114 
L 295.451031 103.69678 
L 295.161806 103.74083 
L 295.161806 103.62762 
L 295.161806 103.499634 
L 295.0895 103.514277 
L 293.426459 103.459358 
L 293.426459 102.172253 
L 293.354153 102.186663 
L 293.281847 102.186663 
L 293.281847 102.201081 
L 293.281847 102.071154 
L 293.20954 102.085546 
L 290.823438 101.997944 
L 290.823438 101.513682 
L 290.751132 101.528089 
L 290.389601 101.453813 
L 290.389601 101.468228 
L 290.389601 101.336123 
L 290.317295 101.350511 
L 288.292723 101.290184 
L 288.292723 100.42106 
L 288.220417 100.43534 
L 287.641968 100.535545 
L 287.569662 100.564254 
L 285.978927 100.578621 
L 285.978927 100.069857 
L 285.906621 100.084197 
L 285.617396 99.991404 
L 285.617396 99.869757 
L 285.54509 99.884065 
L 283.158988 99.819445 
L 283.158988 99.673594 
L 283.086682 99.688015 
L 282.725151 99.745792 
L 282.725151 99.622237 
L 282.725151 99.484129 
L 282.652845 99.498527 
L 280.411355 99.527351 
L 280.411355 98.691174 
L 280.339048 98.705508 
L 279.760599 98.806101 
L 279.688293 98.834924 
L 277.157578 98.761937 
L 277.157578 98.776515 
L 277.157578 98.634079 
L 277.085272 98.648626 
L 275.349925 98.750717 
L 275.349925 98.281809 
L 275.277619 98.296384 
L 272.313067 98.400807 
L 272.240761 96.571578 
L 270.143883 96.657471 
L 270.143883 96.096085 
L 270.071577 96.110385 
L 269.493128 96.210755 
L 269.420822 96.239519 
L 269.420822 96.089739 
L 267.03472 96.147201 
L 267.03472 95.810425 
L 266.962413 95.824867 
L 266.600883 95.882734 
L 266.600883 95.745019 
L 266.600883 95.592708 
L 266.528577 95.607115 
L 264.142474 95.664841 
L 264.142474 94.697921 
L 264.070168 94.712232 
L 263.925556 94.726553 
L 263.925556 94.740884 
L 263.925556 94.430468 
L 263.85325 94.444711 
L 263.419413 94.360408 
L 263.419413 94.218837 
L 263.347107 94.233051 
L 261.250229 94.233051 
L 261.250229 93.861329 
L 261.177923 93.875592 
L 258.502596 93.831611 
L 258.43029 92.819982 
L 256.044187 92.904974 
L 256.044187 91.821448 
L 255.971881 91.835439 
L 255.899575 91.835439 
L 255.899575 91.849441 
L 255.899575 91.685335 
L 255.827269 91.699292 
L 255.538044 91.741226 
L 255.538044 91.590722 
L 255.538044 91.426099 
L 255.465738 91.439997 
L 249.970472 91.517053 
L 249.970472 90.318386 
L 249.898166 90.332339 
L 249.319717 90.430302 
L 249.24741 90.458388 
L 246.210553 90.427468 
L 246.210553 89.48785 
L 246.138247 89.50181 
L 245.849022 89.543756 
L 245.849022 89.55776 
L 245.849022 89.382281 
L 245.776716 89.396233 
L 243.46292 89.480172 
L 243.46292 88.60152 
L 243.390613 88.615383 
L 243.246001 88.629258 
L 243.246001 88.643144 
L 243.246001 88.464243 
L 243.173695 88.478075 
L 239.992225 88.575201 
L 239.919919 87.651062 
L 239.703001 87.678682 
L 239.703001 87.692509 
L 239.703001 87.325373 
L 237.533817 87.325373 
L 237.533817 85.500518 
L 237.46151 85.513702 
L 235.003102 85.574389 
L 235.003102 85.587804 
L 235.003102 85.397196 
L 234.930796 85.410547 
L 234.85849 85.410547 
L 234.85849 85.423909 
L 234.85849 85.232993 
L 234.786183 85.246292 
L 234.135428 85.353088 
L 234.063122 85.379899 
L 233.990816 85.379899 
L 233.990816 85.393322 
L 233.990816 85.201345 
L 231.604714 85.201345 
L 231.604714 84.282065 
L 231.532407 84.295258 
L 231.460101 84.295258 
L 231.460101 84.308463 
L 231.460101 84.11247 
L 231.387795 84.125608 
L 228.134019 84.165088 
L 228.061713 82.936662 
L 227.627876 83.001494 
L 227.627876 83.014494 
L 227.627876 82.610274 
L 225.530998 82.610274 
L 225.530998 81.343581 
L 225.458692 81.35607 
L 224.807937 81.456388 
L 224.735631 81.481581 
L 224.663325 81.481581 
L 224.663325 81.494195 
L 224.663325 81.286829 
L 222.204916 81.286829 
L 222.204916 80.664618 
L 222.13261 80.677094 
L 221.843385 80.714589 
L 221.843385 80.727111 
L 221.843385 80.515085 
L 221.771079 80.527526 
L 219.168058 80.627468 
L 219.168058 79.034647 
L 219.095752 79.046659 
L 218.372691 79.155284 
L 218.372691 79.167411 
L 218.372691 78.948815 
L 218.300385 78.960855 
L 216.058895 78.98497 
L 215.986588 79.130178 
L 215.986588 78.907874 
L 212.443588 79.018314 
L 212.371282 79.078218 
L 211.720526 79.179549 
L 211.64822 79.205008 
L 211.64822 78.975778 
L 209.479036 78.975778 
L 209.479036 78.661621 
L 209.40673 78.674314 
L 209.045199 78.725214 
L 209.045199 78.269494 
L 208.972893 78.282039 
L 208.828281 78.282039 
L 208.828281 78.072234 
L 208.755975 78.084704 
L 208.611363 78.097187 
L 208.611363 77.87417 
L 208.539056 77.886564 
L 205.863729 77.911392 
L 205.863729 77.150912 
L 205.791423 77.163207 
L 202.899178 77.249637 
L 202.899178 76.925733 
L 202.826872 76.938197 
L 202.176117 77.038391 
L 202.176117 77.050976 
L 202.176117 76.802512 
L 202.10381 76.814983 
L 201.959198 76.827468 
L 201.959198 76.839967 
L 201.959198 76.590855 
L 201.886892 76.60324 
L 201.669974 76.628049 
L 201.669974 76.640473 
L 201.669974 76.390583 
L 198.922341 76.390583 
L 198.922341 75.845669 
L 198.850034 75.857963 
L 198.633116 75.882593 
L 198.633116 75.894928 
L 198.633116 75.638129 
L 198.56081 75.650343 
L 195.37934 75.661959 
L 195.37934 75.410577 
L 195.307034 75.422995 
L 195.234728 75.422995 
L 195.234728 75.435426 
L 195.234728 75.170912 
L 192.342482 75.170912 
L 192.270176 75.41622 
L 192.125564 75.428967 
L 192.125564 75.441728 
L 192.053258 74.910958 
L 188.871788 74.961 
L 188.871788 74.356195 
L 188.799482 74.36871 
L 184.822644 74.456742 
L 184.822644 73.044951 
L 184.750338 73.057139 
L 184.027277 73.167524 
L 183.954971 73.192224 
L 180.773501 73.133762 
L 180.773501 73.146459 
L 180.773501 72.843185 
L 180.701195 72.85571 
L 176.579745 72.953919 
L 176.507439 72.980134 
L 172.675214 72.993268 
L 172.675214 72.718168 
L 172.602907 72.731635 
L 172.385989 72.758626 
L 172.385989 72.77215 
L 172.385989 72.44252 
L 172.313683 72.45584 
L 172.169071 72.469179 
L 172.169071 72.482536 
L 172.096765 72.151769 
L 172.096765 72.164921 
L 169.782968 72.204489 
L 169.782968 71.917681 
L 169.710662 71.930998 
L 169.059907 72.038227 
L 169.059907 72.051719 
L 165.733825 72.051719 
L 165.733825 72.340762 
L 165.661519 72.000554 
L 165.227682 72.07064 
L 165.227682 72.084721 
L 165.227682 71.728207 
L 165.155376 71.742049 
L 164.576927 71.839534 
L 164.50462 71.86758 
L 161.540069 71.86758 
L 161.540069 71.719677 
L 161.467763 71.734095 
L 161.106232 71.777485 
L 161.106232 71.43272 
L 161.033926 71.446989 
L 160.672395 71.504293 
L 160.672395 71.518677 
L 160.672395 71.142538 
L 160.600089 71.156654 
L 157.852456 71.170793 
L 157.78015 71.725442 
L 154.381761 71.816229 
L 154.309455 72.478082 
L 154.020231 72.527199 
L 154.020231 72.543628 
L 154.020231 72.138039 
L 153.947925 72.154159 
L 151.055679 72.154159 
L 150.983373 72.419023 
L 150.47723 72.521474 
L 150.404924 72.555873 
L 150.404924 72.131139 
L 149.898781 72.232855 
L 149.898781 72.249916 
L 146.93423 72.249916 
L 146.861923 72.995772 
L 146.428087 73.08855 
L 146.355781 73.12591 
L 145.921944 73.219939 
L 145.849638 73.257804 
L 142.306637 73.276791 
L 142.306637 72.341136 
L 142.234331 72.360214 
L 141.800494 72.456191 
L 141.800494 72.475504 
L 141.655882 72.475504 
L 141.655882 72.514249 
L 141.655882 72.034584 
L 138.546718 72.034584 
L 138.474412 72.404881 
L 138.402106 72.404881 
L 138.402106 72.425158 
L 138.402106 71.921104 
L 138.3298 71.940902 
L 138.112881 71.980627 
L 138.112881 71.49331 
L 138.040575 71.512751 
L 137.823657 71.551762 
L 137.823657 71.571331 
L 137.823657 71.060856 
L 137.75135 71.079932 
L 134.642187 71.137411 
L 134.642187 71.941503 
L 134.569881 70.887406 
L 134.352962 70.927266 
L 134.352962 70.947266 
L 134.352962 70.406043 
L 134.280656 70.425486 
L 131.677635 70.444975 
L 131.605329 70.611434 
L 131.171492 70.714979 
L 131.099186 70.75675 
L 131.099186 70.184273 
L 128.640777 70.283935 
L 128.568471 70.326578 
L 128.496165 70.326578 
L 128.496165 70.347981 
L 128.496165 69.747163 
L 128.423859 69.767879 
L 128.279247 69.788648 
L 128.279247 69.80947 
L 128.206941 68.009609 
L 125.748532 68.015541 
L 125.748532 68.035064 
L 125.748532 67.396157 
L 125.676226 67.414895 
L 123.36243 67.433683 
L 123.290124 68.063047 
L 120.470184 68.159287 
L 120.397878 68.225212 
L 117.794857 68.314044 
L 117.722551 69.090151 
L 117.36102 69.189812 
L 117.288714 69.240124 
L 115.264143 69.341726 
L 115.191836 70.007846 
L 114.902612 70.09158 
L 114.830306 70.147879 
L 114.468775 70.233049 
L 114.468775 70.290317 
L 111.93806 70.376962 
L 111.865754 71.392888 
L 111.57653 71.491368 
L 111.504224 71.557628 
L 111.431917 71.557628 
L 111.431917 70.721561 
L 111.359611 70.753445 
L 109.69657 70.753445 
L 109.624264 71.555878 
L 109.335039 71.661482 
L 109.262733 71.732576 
L 109.190427 71.732576 
L 109.190427 70.84443 
L 109.118121 70.878573 
L 107.382774 70.947266 
L 107.310468 71.778291 
L 107.093549 71.854325 
L 107.021243 71.930998 
L 106.804325 72.008316 
L 106.732019 72.086287 
L 106.5151 72.164921 
L 106.442794 72.244226 
L 106.225876 72.32421 
L 106.225876 72.364459 
L 104.635141 72.364459 
L 104.562835 73.340347 
L 104.562835 72.284132 
L 104.345916 72.369206 
L 104.345916 71.344052 
L 104.27361 71.38473 
L 104.056692 71.466646 
L 103.984386 71.549319 
L 103.767467 71.632759 
L 103.695161 71.716977 
L 103.622855 71.716977 
L 103.622855 71.759381 
L 103.622855 70.66236 
L 102.538263 70.66236 
L 102.465957 71.327833 
L 102.249038 71.414679 
L 102.176732 71.502377 
L 101.959814 71.590942 
L 101.959814 71.635553 
L 100.441385 71.635553 
L 100.369079 72.676093 
L 100.15216 72.776662 
L 100.079854 72.878295 
L 99.862936 72.981009 
L 99.79063 73.084822 
L 99.573711 73.189751 
L 99.501405 73.295815 
L 98.199895 73.403031 
L 98.127589 74.363702 
L 98.127589 73.032777 
L 97.982976 73.08855 
L 97.982976 71.798699 
L 97.91067 71.851389 
L 97.693752 71.957688 
L 97.693752 72.011302 
L 97.404527 72.011302 
L 97.332221 72.284132 
L 95.452262 72.33967 
L 95.452262 73.84381 
L 95.307649 73.84381 
L 95.235343 74.040662 
L 95.090731 74.107132 
L 95.018425 74.241375 
L 95.018425 72.713683 
L 94.873813 72.776662 
L 94.801506 72.903872 
L 93.78922 72.903872 
L 93.716914 73.914457 
L 93.572302 73.985599 
L 93.572302 74.057239 
L 93.355384 74.057239 
L 93.283078 74.348901 
L 93.066159 74.423119 
L 93.066159 74.573156 
L 92.198486 74.573156 
L 92.126179 75.603597 
L 91.909261 75.687065 
L 91.836955 75.941307 
L 91.692343 76.027359 
L 91.692343 74.31534 
L 91.620036 74.396069 
L 91.475424 74.477429 
L 91.475424 74.559427 
L 90.824669 74.559427 
L 90.752363 75.41622 
L 90.607751 75.505761 
L 90.607751 75.59604 
L 90.463138 75.59604 
L 90.463138 73.84381 
L 90.390832 73.928646 
L 90.24622 74.014195 
L 90.24622 74.100466 
L 90.24622 72.125521 
L 90.173914 72.204489 
L 90.029301 72.284132 
L 89.956995 72.445478 
L 89.233934 72.527199 
L 89.161628 73.385081 
L 89.017016 73.475159 
L 89.017016 73.566059 
L 88.872403 73.566059 
L 88.800097 73.84381 
L 88.655485 73.938116 
L 88.583179 74.129385 
L 88.438567 74.226372 
L 88.438567 74.324279 
L 87.715505 74.324279 
L 87.643199 75.465875 
L 87.498587 75.575914 
L 87.426281 75.799345 
L 87.353974 75.799345 
L 87.281668 76.027359 
L 87.209362 76.027359 
L 87.137056 76.260098 
L 87.06475 76.260098 
L 87.06475 76.378286 
L 86.920138 76.378286 
L 86.920138 74.165648 
L 86.847832 74.27521 
L 86.703219 74.385944 
L 86.703219 74.497868 
L 86.413995 74.497868 
L 86.413995 72.387536 
L 86.341689 72.492089 
L 86.197076 72.59781 
L 86.12477 72.812836 
L 85.980158 72.922182 
L 85.907852 73.144644 
L 85.835546 73.144644 
L 85.76324 73.372279 
L 85.690933 73.372279 
L 85.690933 73.488094 
L 85.690933 70.742804 
L 85.618627 70.84443 
L 85.474015 70.947266 
L 85.401709 71.156654 
L 85.257097 71.263252 
L 85.257097 71.37115 
L 85.112484 71.37115 
L 85.112484 71.590942 
L 84.389423 71.590942 
L 84.317117 72.903872 
L 84.244811 72.903872 
L 84.172505 73.163414 
L 84.100198 73.163414 
L 84.027892 73.430018 
L 83.955586 73.430018 
L 83.88328 73.703977 
L 83.810974 73.703977 
L 83.738668 73.985599 
L 83.666362 73.985599 
L 83.594055 74.27521 
L 83.521749 74.27521 
L 83.449443 74.573156 
L 83.377137 74.573156 
L 83.377137 74.725367 
L 83.232525 74.725367 
L 83.232525 71.590942 
L 83.160219 71.725442 
L 83.087913 71.725442 
L 83.015606 72.000554 
L 82.870994 72.000554 
L 82.798688 72.429218 
L 82.726382 72.429218 
L 82.654076 72.726246 
L 82.58177 72.726246 
L 82.509463 73.032777 
L 82.437157 73.032777 
L 82.437157 73.189751 
L 81.714096 73.189751 
L 81.64179 75.099833 
L 81.569484 75.099833 
L 81.497178 75.487794 
L 81.424871 75.487794 
L 81.424871 75.687065 
L 81.280259 75.687065 
L 81.280259 76.096678 
L 81.135647 76.096678 
L 81.063341 76.740354 
L 80.918728 76.740354 
L 80.846422 77.421894 
L 80.774116 77.421894 
L 80.70181 77.898972 
L 80.629504 77.898972 
L 80.557198 78.395522 
L 80.484892 78.395522 
L 80.412586 78.912762 
L 80.340279 78.912762 
L 80.267973 79.452013 
L 80.195667 79.452013 
L 80.195667 79.730335 
L 80.195667 74.725367 
L 80.123361 74.957865 
L 79.978749 74.957865 
L 79.978749 70.157299 
L 79.906443 70.347981 
L 79.834136 70.347981 
L 79.834136 70.543097 
L 79.472606 70.543097 
L 79.4003 71.816229 
L 79.327994 71.816229 
L 79.327994 72.047219 
L 79.183381 72.047219 
L 79.111075 72.776662 
L 79.038769 72.776662 
L 78.966463 73.295815 
L 78.894157 73.295815 
L 78.894157 73.566059 
L 78.894157 67.085207 
L 78.821851 67.27559 
L 78.749544 67.27559 
L 78.749544 67.471412 
L 78.749544 60.620456 
L 78.388014 60.620456 
L 78.315708 61.292118 
L 78.243401 61.292118 
L 78.171095 61.545368 
L 78.098789 61.545368 
L 78.098789 61.678324 
L 77.954177 61.678324 
L 77.881871 62.105183 
L 77.737259 62.105183 
L 77.737259 62.415626 
L 77.52034 62.415626 
L 77.52034 62.926066 
L 77.375728 62.926066 
L 77.303422 63.499009 
L 77.231116 63.499009 
L 77.231116 63.705905 
L 77.086503 63.705905 
L 77.014197 64.381765 
L 76.941891 64.381765 
L 76.941891 64.627533 
L 76.652667 64.627533 
L 76.652667 65.733486 
L 76.508054 65.733486 
L 76.435748 66.719877 
L 76.363442 66.719877 
L 76.291136 67.471412 
L 76.21883 67.471412 
L 76.21883 67.880336 
L 76.074217 67.880336 
L 76.001911 69.265401 
L 75.929605 69.265401 
L 75.857299 70.347981 
L 75.712687 70.347981 
L 75.712687 71.590942 
L 75.568075 71.590942 
L 75.568075 73.032777 
L 75.568075 53.568 
L 75.495768 53.568 
L 73.832727 53.568 
L 73.832727 53.568 
" clip-path="url(#p2632b19459)" style="fill: none; stroke: #1f77b4; stroke-width: 1.5; stroke-linecap: square"/>
   </g>
   <g id="patch_3">
    <path d="M 57.6 307.584 
L 57.6 41.472 
" style="fill: none; stroke: #000000; stroke-width: 0.8; stroke-linejoin: miter; stroke-linecap: square"/>
   </g>
   <g id="patch_4">
    <path d="M 414.72 307.584 
L 414.72 41.472 
" style="fill: none; stroke: #000000; stroke-width: 0.8; stroke-linejoin: miter; stroke-linecap: square"/>
   </g>
   <g id="patch_5">
    <path d="M 57.6 307.584 
L 414.72 307.584 
" style="fill: none; stroke: #000000; stroke-width: 0.8; stroke-linejoin: miter; stroke-linecap: square"/>
   </g>
   <g id="patch_6">
    <path d="M 57.6 41.472 
L 414.72 41.472 
" style="fill: none; stroke: #000000; stroke-width: 0.8; stroke-linejoin: miter; stroke-linecap: square"/>
   </g>
  </g>
 </g>
 <defs>
  <clipPath id="p2632b19459">
   <rect x="57.6" y="41.472" width="357.12" height="266.112"/>
  </clipPath>
 </defs>
</svg>
