<?xml version="1.0" encoding="utf-8" standalone="no"?>
<!DOCTYPE svg PUBLIC "-//W3C//DTD SVG 1.1//EN"
        "http://www.w3.org/Graphics/SVG/1.1/DTD/svg11.dtd">
<svg xmlns:xlink="http://www.w3.org/1999/xlink" width="460.8pt" height="345.6pt" viewBox="0 0 460.8 345.6"
     xmlns="http://www.w3.org/2000/svg" version="1.1">
    <metadata>
        <rdf:RDF xmlns:dc="http://purl.org/dc/elements/1.1/" xmlns:cc="http://creativecommons.org/ns#"
                 xmlns:rdf="http://www.w3.org/1999/02/22-rdf-syntax-ns#">
            <cc:Work>
                <dc:type rdf:resource="http://purl.org/dc/dcmitype/StillImage"/>
                <dc:date>2022-11-30T19:03:26.912772</dc:date>
                <dc:format>image/svg+xml</dc:format>
                <dc:creator>
                    <cc:Agent>
                        <dc:title>Matplotlib v3.6.2, https://matplotlib.org/</dc:title>
                    </cc:Agent>
                </dc:creator>
            </cc:Work>
        </rdf:RDF>
    </metadata>
    <defs>
        <style type="text/css">*{stroke-linejoin: round; stroke-linecap: butt}</style>
    </defs>
    <g id="figure_1">
        <g id="patch_1">
            <path d="M 0 345.6
L 460.8 345.6 
L 460.8 0 
L 0 0 
z
" style="fill: #ffffff"/>
        </g>
        <g id="axes_1">
            <g id="patch_2">
                <path d="M 57.6 307.584
L 414.72 307.584 
L 414.72 41.472 
L 57.6 41.472 
z
" style="fill: #eaeaf2"/>
            </g>
            <g id="matplotlib.axis_1">
                <g id="xtick_1">
                    <g id="line2d_1">
                        <path d="M 73.832727 307.584
L 73.832727 41.472 
" clip-path="url(#p69cae4c82f)" style="fill: none; stroke: #ffffff; stroke-width: 0.8; stroke-linecap: round"/>
                    </g>
                    <g id="line2d_2"/>
                    <g id="text_1">
                        <!-- 0.0 -->
                        <g style="fill: #262626" transform="translate(66.882727 318.241812) scale(0.1 -0.1)">
                            <defs>
                                <path id="ArialMT-30" d="M 266 2259
Q 266 3072 433 3567 
Q 600 4063 929 4331 
Q 1259 4600 1759 4600 
Q 2128 4600 2406 4451 
Q 2684 4303 2865 4023 
Q 3047 3744 3150 3342 
Q 3253 2941 3253 2259 
Q 3253 1453 3087 958 
Q 2922 463 2592 192 
Q 2263 -78 1759 -78 
Q 1097 -78 719 397 
Q 266 969 266 2259 
z
M 844 2259 
Q 844 1131 1108 757 
Q 1372 384 1759 384 
Q 2147 384 2411 759 
Q 2675 1134 2675 2259 
Q 2675 3391 2411 3762 
Q 2147 4134 1753 4134 
Q 1366 4134 1134 3806 
Q 844 3388 844 2259 
z
" transform="scale(0.015625)"/>
                                <path id="ArialMT-2e" d="M 581 0
L 581 641 
L 1222 641 
L 1222 0 
L 581 0 
z
" transform="scale(0.015625)"/>
                            </defs>
                            <use xlink:href="#ArialMT-30"/>
                            <use xlink:href="#ArialMT-2e" x="55.615234"/>
                            <use xlink:href="#ArialMT-30" x="83.398438"/>
                        </g>
                    </g>
                </g>
                <g id="xtick_2">
                    <g id="line2d_3">
                        <path d="M 138.763636 307.584
L 138.763636 41.472 
" clip-path="url(#p69cae4c82f)" style="fill: none; stroke: #ffffff; stroke-width: 0.8; stroke-linecap: round"/>
                    </g>
                    <g id="line2d_4"/>
                    <g id="text_2">
                        <!-- 0.2 -->
                        <g style="fill: #262626" transform="translate(131.813636 318.241812) scale(0.1 -0.1)">
                            <defs>
                                <path id="ArialMT-32" d="M 3222 541
L 3222 0 
L 194 0 
Q 188 203 259 391 
Q 375 700 629 1000 
Q 884 1300 1366 1694 
Q 2113 2306 2375 2664 
Q 2638 3022 2638 3341 
Q 2638 3675 2398 3904 
Q 2159 4134 1775 4134 
Q 1369 4134 1125 3890 
Q 881 3647 878 3216 
L 300 3275 
Q 359 3922 746 4261 
Q 1134 4600 1788 4600 
Q 2447 4600 2831 4234 
Q 3216 3869 3216 3328 
Q 3216 3053 3103 2787 
Q 2991 2522 2730 2228 
Q 2469 1934 1863 1422 
Q 1356 997 1212 845 
Q 1069 694 975 541 
L 3222 541 
z
" transform="scale(0.015625)"/>
                            </defs>
                            <use xlink:href="#ArialMT-30"/>
                            <use xlink:href="#ArialMT-2e" x="55.615234"/>
                            <use xlink:href="#ArialMT-32" x="83.398438"/>
                        </g>
                    </g>
                </g>
                <g id="xtick_3">
                    <g id="line2d_5">
                        <path d="M 203.694545 307.584
L 203.694545 41.472 
" clip-path="url(#p69cae4c82f)" style="fill: none; stroke: #ffffff; stroke-width: 0.8; stroke-linecap: round"/>
                    </g>
                    <g id="line2d_6"/>
                    <g id="text_3">
                        <!-- 0.4 -->
                        <g style="fill: #262626" transform="translate(196.744545 318.241812) scale(0.1 -0.1)">
                            <defs>
                                <path id="ArialMT-34" d="M 2069 0
L 2069 1097 
L 81 1097 
L 81 1613 
L 2172 4581 
L 2631 4581 
L 2631 1613 
L 3250 1613 
L 3250 1097 
L 2631 1097 
L 2631 0 
L 2069 0 
z
M 2069 1613 
L 2069 3678 
L 634 1613 
L 2069 1613 
z
" transform="scale(0.015625)"/>
                            </defs>
                            <use xlink:href="#ArialMT-30"/>
                            <use xlink:href="#ArialMT-2e" x="55.615234"/>
                            <use xlink:href="#ArialMT-34" x="83.398438"/>
                        </g>
                    </g>
                </g>
                <g id="xtick_4">
                    <g id="line2d_7">
                        <path d="M 268.625455 307.584
L 268.625455 41.472 
" clip-path="url(#p69cae4c82f)" style="fill: none; stroke: #ffffff; stroke-width: 0.8; stroke-linecap: round"/>
                    </g>
                    <g id="line2d_8"/>
                    <g id="text_4">
                        <!-- 0.6 -->
                        <g style="fill: #262626" transform="translate(261.675455 318.241812) scale(0.1 -0.1)">
                            <defs>
                                <path id="ArialMT-36" d="M 3184 3459
L 2625 3416 
Q 2550 3747 2413 3897 
Q 2184 4138 1850 4138 
Q 1581 4138 1378 3988 
Q 1113 3794 959 3422 
Q 806 3050 800 2363 
Q 1003 2672 1297 2822 
Q 1591 2972 1913 2972 
Q 2475 2972 2870 2558 
Q 3266 2144 3266 1488 
Q 3266 1056 3080 686 
Q 2894 316 2569 119 
Q 2244 -78 1831 -78 
Q 1128 -78 684 439 
Q 241 956 241 2144 
Q 241 3472 731 4075 
Q 1159 4600 1884 4600 
Q 2425 4600 2770 4297 
Q 3116 3994 3184 3459 
z
M 888 1484 
Q 888 1194 1011 928 
Q 1134 663 1356 523 
Q 1578 384 1822 384 
Q 2178 384 2434 671 
Q 2691 959 2691 1453 
Q 2691 1928 2437 2201 
Q 2184 2475 1800 2475 
Q 1419 2475 1153 2201 
Q 888 1928 888 1484 
z
" transform="scale(0.015625)"/>
                            </defs>
                            <use xlink:href="#ArialMT-30"/>
                            <use xlink:href="#ArialMT-2e" x="55.615234"/>
                            <use xlink:href="#ArialMT-36" x="83.398438"/>
                        </g>
                    </g>
                </g>
                <g id="xtick_5">
                    <g id="line2d_9">
                        <path d="M 333.556364 307.584
L 333.556364 41.472 
" clip-path="url(#p69cae4c82f)" style="fill: none; stroke: #ffffff; stroke-width: 0.8; stroke-linecap: round"/>
                    </g>
                    <g id="line2d_10"/>
                    <g id="text_5">
                        <!-- 0.8 -->
                        <g style="fill: #262626" transform="translate(326.606364 318.241812) scale(0.1 -0.1)">
                            <defs>
                                <path id="ArialMT-38" d="M 1131 2484
Q 781 2613 612 2850 
Q 444 3088 444 3419 
Q 444 3919 803 4259 
Q 1163 4600 1759 4600 
Q 2359 4600 2725 4251 
Q 3091 3903 3091 3403 
Q 3091 3084 2923 2848 
Q 2756 2613 2416 2484 
Q 2838 2347 3058 2040 
Q 3278 1734 3278 1309 
Q 3278 722 2862 322 
Q 2447 -78 1769 -78 
Q 1091 -78 675 323 
Q 259 725 259 1325 
Q 259 1772 486 2073 
Q 713 2375 1131 2484 
z
M 1019 3438 
Q 1019 3113 1228 2906 
Q 1438 2700 1772 2700 
Q 2097 2700 2305 2904 
Q 2513 3109 2513 3406 
Q 2513 3716 2298 3927 
Q 2084 4138 1766 4138 
Q 1444 4138 1231 3931 
Q 1019 3725 1019 3438 
z
M 838 1322 
Q 838 1081 952 856 
Q 1066 631 1291 507 
Q 1516 384 1775 384 
Q 2178 384 2440 643 
Q 2703 903 2703 1303 
Q 2703 1709 2433 1975 
Q 2163 2241 1756 2241 
Q 1359 2241 1098 1978 
Q 838 1716 838 1322 
z
" transform="scale(0.015625)"/>
                            </defs>
                            <use xlink:href="#ArialMT-30"/>
                            <use xlink:href="#ArialMT-2e" x="55.615234"/>
                            <use xlink:href="#ArialMT-38" x="83.398438"/>
                        </g>
                    </g>
                </g>
                <g id="xtick_6">
                    <g id="line2d_11">
                        <path d="M 398.487273 307.584
L 398.487273 41.472 
" clip-path="url(#p69cae4c82f)" style="fill: none; stroke: #ffffff; stroke-width: 0.8; stroke-linecap: round"/>
                    </g>
                    <g id="line2d_12"/>
                    <g id="text_6">
                        <!-- 1.0 -->
                        <g style="fill: #262626" transform="translate(391.537273 318.241812) scale(0.1 -0.1)">
                            <defs>
                                <path id="ArialMT-31" d="M 2384 0
L 1822 0 
L 1822 3584 
Q 1619 3391 1289 3197 
Q 959 3003 697 2906 
L 697 3450 
Q 1169 3672 1522 3987 
Q 1875 4303 2022 4600 
L 2384 4600 
L 2384 0 
z
" transform="scale(0.015625)"/>
                            </defs>
                            <use xlink:href="#ArialMT-31"/>
                            <use xlink:href="#ArialMT-2e" x="55.615234"/>
                            <use xlink:href="#ArialMT-30" x="83.398438"/>
                        </g>
                    </g>
                </g>
                <g id="text_7">
                    <!-- Recall -->
                    <g style="fill: #262626" transform="translate(222.26625 331.387125) scale(0.1 -0.1)">
                        <defs>
                            <path id="ArialMT-52" d="M 503 0
L 503 4581 
L 2534 4581 
Q 3147 4581 3465 4457 
Q 3784 4334 3975 4021 
Q 4166 3709 4166 3331 
Q 4166 2844 3850 2509 
Q 3534 2175 2875 2084 
Q 3116 1969 3241 1856 
Q 3506 1613 3744 1247 
L 4541 0 
L 3778 0 
L 3172 953 
Q 2906 1366 2734 1584 
Q 2563 1803 2427 1890 
Q 2291 1978 2150 2013 
Q 2047 2034 1813 2034 
L 1109 2034 
L 1109 0 
L 503 0 
z
M 1109 2559 
L 2413 2559 
Q 2828 2559 3062 2645 
Q 3297 2731 3419 2920 
Q 3541 3109 3541 3331 
Q 3541 3656 3305 3865 
Q 3069 4075 2559 4075 
L 1109 4075 
L 1109 2559 
z
" transform="scale(0.015625)"/>
                            <path id="ArialMT-65" d="M 2694 1069
L 3275 997 
Q 3138 488 2766 206 
Q 2394 -75 1816 -75 
Q 1088 -75 661 373 
Q 234 822 234 1631 
Q 234 2469 665 2931 
Q 1097 3394 1784 3394 
Q 2450 3394 2872 2941 
Q 3294 2488 3294 1666 
Q 3294 1616 3291 1516 
L 816 1516 
Q 847 969 1125 678 
Q 1403 388 1819 388 
Q 2128 388 2347 550 
Q 2566 713 2694 1069 
z
M 847 1978 
L 2700 1978 
Q 2663 2397 2488 2606 
Q 2219 2931 1791 2931 
Q 1403 2931 1139 2672 
Q 875 2413 847 1978 
z
" transform="scale(0.015625)"/>
                            <path id="ArialMT-63" d="M 2588 1216
L 3141 1144 
Q 3050 572 2676 248 
Q 2303 -75 1759 -75 
Q 1078 -75 664 370 
Q 250 816 250 1647 
Q 250 2184 428 2587 
Q 606 2991 970 3192 
Q 1334 3394 1763 3394 
Q 2303 3394 2647 3120 
Q 2991 2847 3088 2344 
L 2541 2259 
Q 2463 2594 2264 2762 
Q 2066 2931 1784 2931 
Q 1359 2931 1093 2626 
Q 828 2322 828 1663 
Q 828 994 1084 691 
Q 1341 388 1753 388 
Q 2084 388 2306 591 
Q 2528 794 2588 1216 
z
" transform="scale(0.015625)"/>
                            <path id="ArialMT-61" d="M 2588 409
Q 2275 144 1986 34 
Q 1697 -75 1366 -75 
Q 819 -75 525 192 
Q 231 459 231 875 
Q 231 1119 342 1320 
Q 453 1522 633 1644 
Q 813 1766 1038 1828 
Q 1203 1872 1538 1913 
Q 2219 1994 2541 2106 
Q 2544 2222 2544 2253 
Q 2544 2597 2384 2738 
Q 2169 2928 1744 2928 
Q 1347 2928 1158 2789 
Q 969 2650 878 2297 
L 328 2372 
Q 403 2725 575 2942 
Q 747 3159 1072 3276 
Q 1397 3394 1825 3394 
Q 2250 3394 2515 3294 
Q 2781 3194 2906 3042 
Q 3031 2891 3081 2659 
Q 3109 2516 3109 2141 
L 3109 1391 
Q 3109 606 3145 398 
Q 3181 191 3288 0 
L 2700 0 
Q 2613 175 2588 409 
z
M 2541 1666 
Q 2234 1541 1622 1453 
Q 1275 1403 1131 1340 
Q 988 1278 909 1158 
Q 831 1038 831 891 
Q 831 666 1001 516 
Q 1172 366 1500 366 
Q 1825 366 2078 508 
Q 2331 650 2450 897 
Q 2541 1088 2541 1459 
L 2541 1666 
z
" transform="scale(0.015625)"/>
                            <path id="ArialMT-6c" d="M 409 0
L 409 4581 
L 972 4581 
L 972 0 
L 409 0 
z
" transform="scale(0.015625)"/>
                        </defs>
                        <use xlink:href="#ArialMT-52"/>
                        <use xlink:href="#ArialMT-65" x="72.216797"/>
                        <use xlink:href="#ArialMT-63" x="127.832031"/>
                        <use xlink:href="#ArialMT-61" x="177.832031"/>
                        <use xlink:href="#ArialMT-6c" x="233.447266"/>
                        <use xlink:href="#ArialMT-6c" x="255.664062"/>
                    </g>
                </g>
            </g>
            <g id="matplotlib.axis_2">
                <g id="ytick_1">
                    <g id="line2d_13">
                        <path d="M 57.6 297.207035
L 414.72 297.207035 
" clip-path="url(#p69cae4c82f)" style="fill: none; stroke: #ffffff; stroke-width: 0.8; stroke-linecap: round"/>
                    </g>
                    <g id="line2d_14"/>
                    <g id="text_8">
                        <!-- 0.5 -->
                        <g style="fill: #262626" transform="translate(40.2 300.785941) scale(0.1 -0.1)">
                            <defs>
                                <path id="ArialMT-35" d="M 266 1200
L 856 1250 
Q 922 819 1161 601 
Q 1400 384 1738 384 
Q 2144 384 2425 690 
Q 2706 997 2706 1503 
Q 2706 1984 2436 2262 
Q 2166 2541 1728 2541 
Q 1456 2541 1237 2417 
Q 1019 2294 894 2097 
L 366 2166 
L 809 4519 
L 3088 4519 
L 3088 3981 
L 1259 3981 
L 1013 2750 
Q 1425 3038 1878 3038 
Q 2478 3038 2890 2622 
Q 3303 2206 3303 1553 
Q 3303 931 2941 478 
Q 2500 -78 1738 -78 
Q 1113 -78 717 272 
Q 322 622 266 1200 
z
" transform="scale(0.015625)"/>
                            </defs>
                            <use xlink:href="#ArialMT-30"/>
                            <use xlink:href="#ArialMT-2e" x="55.615234"/>
                            <use xlink:href="#ArialMT-35" x="83.398438"/>
                        </g>
                    </g>
                </g>
                <g id="ytick_2">
                    <g id="line2d_15">
                        <path d="M 57.6 248.479228
L 414.72 248.479228 
" clip-path="url(#p69cae4c82f)" style="fill: none; stroke: #ffffff; stroke-width: 0.8; stroke-linecap: round"/>
                    </g>
                    <g id="line2d_16"/>
                    <g id="text_9">
                        <!-- 0.6 -->
                        <g style="fill: #262626" transform="translate(40.2 252.058134) scale(0.1 -0.1)">
                            <use xlink:href="#ArialMT-30"/>
                            <use xlink:href="#ArialMT-2e" x="55.615234"/>
                            <use xlink:href="#ArialMT-36" x="83.398438"/>
                        </g>
                    </g>
                </g>
                <g id="ytick_3">
                    <g id="line2d_17">
                        <path d="M 57.6 199.751421
L 414.72 199.751421 
" clip-path="url(#p69cae4c82f)" style="fill: none; stroke: #ffffff; stroke-width: 0.8; stroke-linecap: round"/>
                    </g>
                    <g id="line2d_18"/>
                    <g id="text_10">
                        <!-- 0.7 -->
                        <g style="fill: #262626" transform="translate(40.2 203.330327) scale(0.1 -0.1)">
                            <defs>
                                <path id="ArialMT-37" d="M 303 3981
L 303 4522 
L 3269 4522 
L 3269 4084 
Q 2831 3619 2401 2847 
Q 1972 2075 1738 1259 
Q 1569 684 1522 0 
L 944 0 
Q 953 541 1156 1306 
Q 1359 2072 1739 2783 
Q 2119 3494 2547 3981 
L 303 3981 
z
" transform="scale(0.015625)"/>
                            </defs>
                            <use xlink:href="#ArialMT-30"/>
                            <use xlink:href="#ArialMT-2e" x="55.615234"/>
                            <use xlink:href="#ArialMT-37" x="83.398438"/>
                        </g>
                    </g>
                </g>
                <g id="ytick_4">
                    <g id="line2d_19">
                        <path d="M 57.6 151.023614
L 414.72 151.023614 
" clip-path="url(#p69cae4c82f)" style="fill: none; stroke: #ffffff; stroke-width: 0.8; stroke-linecap: round"/>
                    </g>
                    <g id="line2d_20"/>
                    <g id="text_11">
                        <!-- 0.8 -->
                        <g style="fill: #262626" transform="translate(40.2 154.60252) scale(0.1 -0.1)">
                            <use xlink:href="#ArialMT-30"/>
                            <use xlink:href="#ArialMT-2e" x="55.615234"/>
                            <use xlink:href="#ArialMT-38" x="83.398438"/>
                        </g>
                    </g>
                </g>
                <g id="ytick_5">
                    <g id="line2d_21">
                        <path d="M 57.6 102.295807
L 414.72 102.295807 
" clip-path="url(#p69cae4c82f)" style="fill: none; stroke: #ffffff; stroke-width: 0.8; stroke-linecap: round"/>
                    </g>
                    <g id="line2d_22"/>
                    <g id="text_12">
                        <!-- 0.9 -->
                        <g style="fill: #262626" transform="translate(40.2 105.874713) scale(0.1 -0.1)">
                            <defs>
                                <path id="ArialMT-39" d="M 350 1059
L 891 1109 
Q 959 728 1153 556 
Q 1347 384 1650 384 
Q 1909 384 2104 503 
Q 2300 622 2425 820 
Q 2550 1019 2634 1356 
Q 2719 1694 2719 2044 
Q 2719 2081 2716 2156 
Q 2547 1888 2255 1720 
Q 1963 1553 1622 1553 
Q 1053 1553 659 1965 
Q 266 2378 266 3053 
Q 266 3750 677 4175 
Q 1088 4600 1706 4600 
Q 2153 4600 2523 4359 
Q 2894 4119 3086 3673 
Q 3278 3228 3278 2384 
Q 3278 1506 3087 986 
Q 2897 466 2520 194 
Q 2144 -78 1638 -78 
Q 1100 -78 759 220 
Q 419 519 350 1059 
z
M 2653 3081 
Q 2653 3566 2395 3850 
Q 2138 4134 1775 4134 
Q 1400 4134 1122 3828 
Q 844 3522 844 3034 
Q 844 2597 1108 2323 
Q 1372 2050 1759 2050 
Q 2150 2050 2401 2323 
Q 2653 2597 2653 3081 
z
" transform="scale(0.015625)"/>
                            </defs>
                            <use xlink:href="#ArialMT-30"/>
                            <use xlink:href="#ArialMT-2e" x="55.615234"/>
                            <use xlink:href="#ArialMT-39" x="83.398438"/>
                        </g>
                    </g>
                </g>
                <g id="ytick_6">
                    <g id="line2d_23">
                        <path d="M 57.6 53.568
L 414.72 53.568 
" clip-path="url(#p69cae4c82f)" style="fill: none; stroke: #ffffff; stroke-width: 0.8; stroke-linecap: round"/>
                    </g>
                    <g id="line2d_24"/>
                    <g id="text_13">
                        <!-- 1.0 -->
                        <g style="fill: #262626" transform="translate(40.2 57.146906) scale(0.1 -0.1)">
                            <use xlink:href="#ArialMT-31"/>
                            <use xlink:href="#ArialMT-2e" x="55.615234"/>
                            <use xlink:href="#ArialMT-30" x="83.398438"/>
                        </g>
                    </g>
                </g>
                <g id="text_14">
                    <!-- Precision -->
                    <g style="fill: #262626" transform="translate(34.2125 195.091281) rotate(-90) scale(0.1 -0.1)">
                        <defs>
                            <path id="ArialMT-50" d="M 494 0
L 494 4581 
L 2222 4581 
Q 2678 4581 2919 4538 
Q 3256 4481 3484 4323 
Q 3713 4166 3852 3881 
Q 3991 3597 3991 3256 
Q 3991 2672 3619 2267 
Q 3247 1863 2275 1863 
L 1100 1863 
L 1100 0 
L 494 0 
z
M 1100 2403 
L 2284 2403 
Q 2872 2403 3119 2622 
Q 3366 2841 3366 3238 
Q 3366 3525 3220 3729 
Q 3075 3934 2838 4000 
Q 2684 4041 2272 4041 
L 1100 4041 
L 1100 2403 
z
" transform="scale(0.015625)"/>
                            <path id="ArialMT-72" d="M 416 0
L 416 3319 
L 922 3319 
L 922 2816 
Q 1116 3169 1280 3281 
Q 1444 3394 1641 3394 
Q 1925 3394 2219 3213 
L 2025 2691 
Q 1819 2813 1613 2813 
Q 1428 2813 1281 2702 
Q 1134 2591 1072 2394 
Q 978 2094 978 1738 
L 978 0 
L 416 0 
z
" transform="scale(0.015625)"/>
                            <path id="ArialMT-69" d="M 425 3934
L 425 4581 
L 988 4581 
L 988 3934 
L 425 3934 
z
M 425 0 
L 425 3319 
L 988 3319 
L 988 0 
L 425 0 
z
" transform="scale(0.015625)"/>
                            <path id="ArialMT-73" d="M 197 991
L 753 1078 
Q 800 744 1014 566 
Q 1228 388 1613 388 
Q 2000 388 2187 545 
Q 2375 703 2375 916 
Q 2375 1106 2209 1216 
Q 2094 1291 1634 1406 
Q 1016 1563 777 1677 
Q 538 1791 414 1992 
Q 291 2194 291 2438 
Q 291 2659 392 2848 
Q 494 3038 669 3163 
Q 800 3259 1026 3326 
Q 1253 3394 1513 3394 
Q 1903 3394 2198 3281 
Q 2494 3169 2634 2976 
Q 2775 2784 2828 2463 
L 2278 2388 
Q 2241 2644 2061 2787 
Q 1881 2931 1553 2931 
Q 1166 2931 1000 2803 
Q 834 2675 834 2503 
Q 834 2394 903 2306 
Q 972 2216 1119 2156 
Q 1203 2125 1616 2013 
Q 2213 1853 2448 1751 
Q 2684 1650 2818 1456 
Q 2953 1263 2953 975 
Q 2953 694 2789 445 
Q 2625 197 2315 61 
Q 2006 -75 1616 -75 
Q 969 -75 630 194 
Q 291 463 197 991 
z
" transform="scale(0.015625)"/>
                            <path id="ArialMT-6f" d="M 213 1659
Q 213 2581 725 3025 
Q 1153 3394 1769 3394 
Q 2453 3394 2887 2945 
Q 3322 2497 3322 1706 
Q 3322 1066 3130 698 
Q 2938 331 2570 128 
Q 2203 -75 1769 -75 
Q 1072 -75 642 372 
Q 213 819 213 1659 
z
M 791 1659 
Q 791 1022 1069 705 
Q 1347 388 1769 388 
Q 2188 388 2466 706 
Q 2744 1025 2744 1678 
Q 2744 2294 2464 2611 
Q 2184 2928 1769 2928 
Q 1347 2928 1069 2612 
Q 791 2297 791 1659 
z
" transform="scale(0.015625)"/>
                            <path id="ArialMT-6e" d="M 422 0
L 422 3319 
L 928 3319 
L 928 2847 
Q 1294 3394 1984 3394 
Q 2284 3394 2536 3286 
Q 2788 3178 2913 3003 
Q 3038 2828 3088 2588 
Q 3119 2431 3119 2041 
L 3119 0 
L 2556 0 
L 2556 2019 
Q 2556 2363 2490 2533 
Q 2425 2703 2258 2804 
Q 2091 2906 1866 2906 
Q 1506 2906 1245 2678 
Q 984 2450 984 1813 
L 984 0 
L 422 0 
z
" transform="scale(0.015625)"/>
                        </defs>
                        <use xlink:href="#ArialMT-50"/>
                        <use xlink:href="#ArialMT-72" x="66.699219"/>
                        <use xlink:href="#ArialMT-65" x="100"/>
                        <use xlink:href="#ArialMT-63" x="155.615234"/>
                        <use xlink:href="#ArialMT-69" x="205.615234"/>
                        <use xlink:href="#ArialMT-73" x="227.832031"/>
                        <use xlink:href="#ArialMT-69" x="277.832031"/>
                        <use xlink:href="#ArialMT-6f" x="300.048828"/>
                        <use xlink:href="#ArialMT-6e" x="355.664062"/>
                    </g>
                </g>
            </g>
            <g id="line2d_25">
                <path d="M 398.487273 295.488
L 398.415063 283.615896 
L 398.342853 283.615896 
L 398.342853 283.612703 
L 398.270644 275.728563 
L 398.198434 275.728563 
L 398.198434 275.626987 
L 398.126225 261.895679 
L 397.981805 261.851102 
L 397.909596 260.293924 
L 397.837386 260.293924 
L 397.837386 260.212428 
L 397.765176 253.677202 
L 397.692967 253.677202 
L 397.692967 253.628019 
L 397.620757 249.402177 
L 397.548547 249.402177 
L 397.548547 249.311626 
L 397.548547 247.94347 
L 397.404128 247.94347 
L 397.404128 247.917034 
L 397.331918 244.88542 
L 397.187499 244.911361 
L 397.187499 244.776708 
L 397.11529 239.152816 
L 397.04308 239.152816 
L 397.04308 239.095012 
L 396.97087 237.736622 
L 396.826451 237.720084 
L 396.826451 237.66137 
L 396.754241 235.22089 
L 396.682032 235.22089 
L 396.682032 235.117716 
L 396.609822 233.850584 
L 396.537612 233.850584 
L 396.465403 230.222811 
L 396.393193 230.222811 
L 396.320984 226.368633 
L 396.176564 226.393608 
L 396.104355 223.04364 
L 396.032145 223.04364 
L 396.032145 223.021958 
L 395.959935 220.942101 
L 395.887726 220.942101 
L 395.887726 220.872543 
L 395.815516 219.382404 
L 395.743306 219.382404 
L 395.743306 219.311784 
L 395.671097 218.381577 
L 395.598887 218.381577 
L 395.598887 218.358162 
L 395.598887 218.118501 
L 395.526677 218.142963 
L 395.454468 218.142963 
L 395.454468 218.071453 
L 395.454468 217.975418 
L 395.310049 217.975418 
L 395.310049 217.012368 
L 395.237839 217.03677 
L 395.165629 217.03677 
L 395.165629 216.964455 
L 395.09342 216.261531 
L 394.949 216.188662 
L 394.949 216.164383 
L 394.876791 214.918839 
L 394.732371 214.894073 
L 394.732371 214.869291 
L 394.660162 213.266033 
L 394.515742 213.266033 
L 394.443533 212.493568 
L 394.371323 212.493568 
L 394.371323 212.417987 
L 394.371323 212.168459 
L 394.299114 212.192563 
L 394.226904 212.192563 
L 394.226904 212.116741 
L 394.226904 212.066751 
L 394.082485 212.066751 
L 394.010275 210.833703 
L 393.793646 210.7809 
L 393.793646 210.754474 
L 393.721436 209.410195 
L 393.577017 209.332311 
L 393.577017 209.356241 
L 393.504808 208.204587 
L 393.432598 208.204587 
L 393.432598 208.228436 
L 393.360388 206.757836 
L 393.143759 206.729799 
L 393.07155 206.022267 
L 392.99934 206.022267 
L 392.99934 205.941845 
L 392.92713 205.130168 
L 392.782711 205.153802 
L 392.710501 203.992601 
L 392.566082 203.910646 
L 392.566082 203.934196 
L 392.566082 202.450003 
L 392.493873 202.47343 
L 392.277244 202.496865 
L 392.205034 201.71284 
L 392.132824 201.71284 
L 392.132824 201.629119 
L 392.132824 201.575539 
L 392.060615 201.59892 
L 391.916195 201.515079 
L 391.843986 200.377623 
L 391.771776 200.377623 
L 391.699566 199.285868 
L 391.555147 199.200254 
L 391.555147 199.223458 
L 391.482938 199.083278 
L 391.338518 198.997457 
L 391.266309 198.168995 
L 390.833051 198.096985 
L 390.833051 196.709852 
L 390.616422 196.709852 
L 390.544212 195.802218 
L 390.399793 195.825185 
L 390.327583 194.584756 
L 390.038745 194.607623 
L 389.966535 193.685225 
L 389.822116 193.708031 
L 389.822116 193.617795 
L 389.822116 193.391477 
L 389.461068 193.391477 
L 389.461068 192.425909 
L 389.388858 192.448628 
L 389.244439 192.471354 
L 389.244439 192.380024 
L 389.172229 192.174378 
L 389.02781 192.174378 
L 389.02781 191.303132 
L 388.9556 191.325771 
L 388.811181 191.290953 
L 388.811181 191.256112 
L 388.738971 190.991005 
L 388.594552 190.898386 
L 388.522342 189.786749 
L 388.016875 189.809272 
L 387.944665 188.801625 
L 387.800246 188.765603 
L 387.800246 188.729558 
L 387.800246 188.55391 
L 387.366988 188.55391 
L 387.366988 187.27632 
L 386.789311 187.188337 
L 386.717101 185.036181 
L 386.428263 185.080506 
L 386.356053 183.761836 
L 386.211634 183.761836 
L 386.211634 182.592343 
L 386.139424 182.614274 
L 385.778376 182.597244 
L 385.778376 181.991439 
L 385.561747 181.991439 
L 385.489537 180.60418 
L 385.345118 180.564221 
L 385.345118 180.585985 
L 385.345118 180.277014 
L 384.91186 180.277014 
L 384.839651 179.43628 
L 384.478602 179.355101 
L 384.406393 177.814201 
L 384.261973 177.7099 
L 384.261973 177.731419 
L 384.261973 177.668465 
L 383.973135 177.668465 
L 383.973135 176.743893 
L 383.900925 176.765326 
L 383.756506 176.660005 
L 383.756506 176.681439 
L 383.684296 176.321977 
L 383.539877 176.321977 
L 383.539877 175.472706 
L 382.88999 175.408833 
L 382.817781 174.273837 
L 382.528942 174.273837 
L 382.456732 173.734053 
L 382.095684 173.734053 
L 382.095684 172.670834 
L 382.023475 172.691918 
L 381.662426 172.645877 
L 381.662426 172.601714 
L 381.590217 172.361482 
L 381.229169 172.361482 
L 381.156959 170.713022 
L 380.795911 170.713022 
L 380.795911 169.557474 
L 380.507072 169.486679 
L 380.507072 169.50748 
L 380.507072 169.440836 
L 380.434863 169.461635 
L 380.290443 169.415758 
L 380.290443 169.369848 
L 380.218234 168.453986 
L 379.929395 168.381852 
L 379.929395 168.402554 
L 379.929395 168.268195 
L 379.857185 168.288888 
L 379.351718 168.263055 
L 379.279508 167.307426 
L 378.99067 167.233808 
L 378.99067 167.254429 
L 378.99067 167.050985 
L 378.557412 167.050985 
L 378.485202 165.48982 
L 377.979735 165.48982 
L 377.907525 164.345528 
L 377.690896 164.365858 
L 377.690896 164.26827 
L 377.690896 164.199097 
L 377.618687 164.219423 
L 376.89659 164.239755 
L 376.89659 163.798492 
L 376.82438 163.818819 
L 376.607752 163.78994 
L 376.607752 163.74069 
L 376.535542 163.41265 
L 375.885655 163.363188 
L 375.813445 162.214169 
L 375.380188 162.214169 
L 375.380188 160.992939 
L 375.307978 161.012996 
L 375.163559 160.962121 
L 375.163559 160.911207 
L 375.091349 160.718151 
L 374.658091 160.718151 
L 374.585882 159.768458 
L 374.585882 159.788398 
L 374.513672 159.788398 
L 374.513672 159.736775 
L 374.513672 159.521905 
L 373.935995 159.521905 
L 373.863785 158.622098 
L 372.708431 158.557038 
L 372.708431 157.852539 
L 372.636221 157.872346 
L 372.564012 157.872346 
L 372.564012 157.819398 
L 372.564012 157.528067 
L 371.841915 157.528067 
L 371.769706 156.574411 
L 371.119819 156.540321 
L 371.047609 154.849816 
L 370.397722 154.888815 
L 370.397722 153.457174 
L 370.325513 153.476514 
L 370.108884 153.515216 
L 370.108884 153.384457 
L 370.108884 153.309353 
L 370.036674 153.32869 
L 369.603416 153.350291 
L 369.603416 153.219157 
L 369.603416 153.14386 
L 369.170159 153.14386 
L 369.097949 152.5241 
L 368.159224 152.525563 
L 368.087014 151.634741 
L 368.087014 151.653962 
L 368.014804 151.653962 
L 368.014804 151.596882 
L 367.942595 151.386969 
L 367.148289 151.425769 
L 367.148289 150.446953 
L 367.076079 150.466065 
L 365.920725 150.484653 
L 365.920725 149.999393 
L 365.848515 150.018518 
L 365.704096 150.037651 
L 365.704096 149.979239 
L 365.704096 149.901656 
L 365.631886 149.920781 
L 364.548742 149.900541 
L 364.476532 149.292021 
L 364.404322 149.292021 
L 364.404322 149.232937 
L 364.404322 148.841481 
L 364.332113 148.860532 
L 363.537807 148.87959 
L 363.465597 148.145178 
L 362.599081 148.183199 
L 362.526872 147.680031 
L 362.238033 147.578213 
L 362.238033 147.597209 
L 362.165823 147.37765 
L 361.299308 147.37765 
L 361.299308 146.085387 
L 361.227098 146.104218 
L 361.010469 146.061515 
L 361.010469 145.999924 
L 361.010469 145.919458 
L 360.938259 145.938282 
L 360.79384 145.957114 
L 360.79384 145.895417 
L 360.79384 145.492242 
L 360.721631 145.511013 
L 359.999534 145.511013 
L 359.999534 143.912259 
L 359.927324 143.930833 
L 358.91639 143.942133 
L 358.91639 143.043377 
L 358.84418 143.061883 
L 358.483132 142.971266 
L 358.483132 142.989783 
L 358.410922 142.90736 
L 358.410922 142.925872 
L 358.266503 142.861908 
L 358.266503 142.880422 
L 358.266503 142.797891 
L 358.194293 142.8164 
L 357.183358 142.834916 
L 357.183358 141.414454 
L 357.111148 141.432809 
L 356.100214 141.441158 
L 356.028004 139.860031 
L 355.955794 139.860031 
L 355.955794 139.793738 
L 355.883585 139.642836 
L 354.72823 139.612672 
L 354.72823 138.828744 
L 354.656021 138.84683 
L 354.294973 138.833901 
L 354.294973 138.852012 
L 354.222763 138.528242 
L 353.500666 138.528242 
L 353.500666 137.592231 
L 353.428457 137.610189 
L 353.139618 137.664108 
L 353.139618 137.509546 
L 353.139618 137.423216 
L 353.067409 137.441168 
L 352.128683 137.441168 
L 352.128683 136.285604 
L 352.056474 136.303427 
L 351.551006 136.235939 
L 351.551006 136.253786 
L 351.551006 135.991575 
L 351.478797 136.009385 
L 350.395652 136.045027 
L 350.323442 135.063614 
L 349.168088 135.134573 
L 349.168088 134.283426 
L 349.095878 134.301092 
L 347.796105 134.193672 
L 347.796105 133.546445 
L 347.723895 133.564069 
L 347.507266 133.50954 
L 347.507266 133.527171 
L 347.507266 133.347419 
L 347.435057 133.365027 
L 346.063073 133.327896 
L 345.990864 132.178725 
L 345.702025 132.140232 
L 345.702025 132.157735 
L 345.702025 132.066673 
L 345.629816 132.084168 
L 344.185623 132.154224 
L 344.185623 131.702967 
L 344.113413 131.720494 
L 343.824575 131.681278 
L 343.824575 131.69882 
L 343.752365 131.532491 
L 342.81364 131.550015 
L 342.74143 130.576223 
L 342.452591 130.535661 
L 342.452591 130.553082 
L 342.452591 130.274287 
L 342.380382 130.291665 
L 341.369447 130.291665 
L 341.297237 129.712136 
L 341.080608 129.653133 
L 341.080608 129.67048 
L 341.080608 129.576711 
L 341.008399 129.594049 
L 339.491996 129.621684 
L 339.491996 128.826759 
L 339.419786 128.84406 
L 339.203158 128.783915 
L 339.203158 128.801222 
L 339.130948 128.533857 
L 337.831174 128.533857 
L 337.831174 127.411718 
L 337.758965 127.428859 
L 337.686755 127.428859 
L 337.686755 127.350002 
L 337.614545 126.982599 
L 336.314772 127.016753 
L 336.314772 126.42029 
L 336.242562 126.437339 
L 335.737095 126.539804 
L 335.737095 126.556909 
L 334.942789 126.556909 
L 334.942789 125.574446 
L 334.870579 125.59142 
L 334.798369 125.59142 
L 334.798369 125.51047 
L 334.798369 125.41249 
L 334.72616 125.429442 
L 334.581741 125.446403 
L 334.581741 125.365288 
L 334.581741 124.972491 
L 333.570806 124.972491 
L 333.498596 123.841801 
L 332.993128 123.942287 
L 332.920919 123.975847 
L 331.837774 123.975847 
L 331.837774 123.028805 
L 331.765565 123.045478 
L 331.115678 122.978158 
L 331.115678 122.994863 
L 331.115678 122.894273 
L 331.043468 122.910966 
L 329.382646 122.910966 
L 329.382646 122.283669 
L 329.310437 122.300352 
L 328.949389 122.265443 
L 328.949389 122.282145 
L 328.949389 122.078514 
L 328.877179 122.095183 
L 327.649615 122.128546 
L 327.649615 121.046458 
L 327.577405 121.063001 
L 326.422051 121.042793 
L 326.422051 120.397454 
L 326.349841 120.413943 
L 324.61681 120.47998 
L 324.61681 119.242498 
L 324.5446 119.258864 
L 324.400181 119.275237 
L 324.400181 119.186493 
L 324.327972 119.081315 
L 324.327972 119.09766 
L 324.255762 119.09766 
L 324.255762 119.008739 
L 324.255762 118.798031 
L 324.183552 118.814327 
L 322.883779 118.814327 
L 322.811569 117.851411 
L 322.66715 117.761055 
L 322.66715 117.777229 
L 322.66715 117.563935 
L 322.59494 117.580071 
L 322.522731 117.580071 
L 322.522731 117.275733 
L 322.450521 117.291817 
L 322.306102 117.307909 
L 322.306102 117.217005 
L 322.233892 117.018874 
L 320.57307 117.034921 
L 320.500861 117.190716 
L 319.995393 117.288023 
L 319.923183 117.320525 
L 318.69562 117.320525 
L 318.69562 116.620156 
L 318.334571 116.684974 
L 318.334571 116.592137 
L 318.334571 116.483018 
L 318.262362 116.499204 
L 316.67375 116.564032 
L 316.60154 116.104335 
L 316.312701 116.04279 
L 316.312701 116.059009 
L 316.312701 115.948703 
L 316.240492 115.964906 
L 316.023863 115.8869 
L 316.023863 115.903104 
L 316.023863 115.792586 
L 315.951653 115.808773 
L 314.57967 115.808773 
L 314.57967 114.6695 
L 314.50746 114.685533 
L 314.290831 114.60572 
L 314.290831 114.621753 
L 314.290831 114.285614 
L 312.846639 114.285614 
L 312.846639 113.590332 
L 312.774429 113.606236 
L 312.63001 113.622148 
L 312.63001 113.524782 
L 312.63001 113.411434 
L 312.5578 113.427312 
L 310.752559 113.393264 
L 310.752559 112.224261 
L 310.174882 112.334547 
L 310.174882 112.350336 
L 309.091737 112.381939 
L 309.091737 111.545921 
L 309.019528 111.561603 
L 308.802899 111.592993 
L 308.802899 111.492471 
L 308.730689 111.275457 
L 306.997658 111.190251 
L 306.997658 110.479306 
L 306.925448 110.494877 
L 306.347771 110.48614 
L 306.347771 110.501751 
L 306.275561 110.281121 
L 304.686949 110.281121 
L 304.686949 109.673086 
L 304.61474 109.688619 
L 304.253691 109.631321 
L 304.253691 109.646868 
L 304.253691 109.527257 
L 304.181482 109.542784 
L 302.376241 109.438584 
L 302.376241 108.484115 
L 302.304031 108.499515 
L 301.726354 108.486074 
L 301.726354 108.501513 
L 301.726354 108.379931 
L 301.654144 108.39535 
L 300.42658 108.426212 
L 300.42658 107.433773 
L 300.354371 107.449045 
L 299.776694 107.556195 
L 299.704484 107.586888 
L 299.487855 107.617615 
L 299.487855 107.50971 
L 299.487855 107.262935 
L 298.043662 107.262935 
L 298.043662 106.575574 
L 297.971453 106.590793 
L 297.754824 106.49648 
L 297.754824 106.511694 
L 297.754824 106.386813 
L 297.682614 106.402004 
L 297.538195 106.292188 
L 297.538195 106.307365 
L 297.538195 106.182246 
L 297.465985 106.1974 
L 295.516325 106.227734 
L 295.516325 105.218908 
L 293.711084 105.227445 
L 293.711084 104.445563 
L 293.638874 104.460531 
L 293.277826 104.50549 
L 293.277826 104.278247 
L 293.205616 104.293202 
L 293.133407 104.293202 
L 293.133407 104.308165 
L 293.133407 104.179354 
L 293.061197 104.194293 
L 291.544795 104.140029 
L 291.472585 102.964107 
L 289.017457 102.966106 
L 288.945247 102.692925 
L 288.728619 102.722598 
L 288.728619 102.60505 
L 288.728619 102.47257 
L 288.656409 102.487359 
L 286.706749 102.459273 
L 286.634539 102.236274 
L 286.41791 102.266022 
L 286.41791 102.146792 
L 286.3457 101.893098 
L 286.273491 101.893098 
L 286.273491 101.907894 
L 286.273491 101.773457 
L 284.32383 101.773457 
L 284.32383 101.361053 
L 284.251621 101.375845 
L 283.673944 101.479646 
L 283.601734 101.509387 
L 281.435445 101.554066 
L 281.435445 100.580686 
L 281.363235 100.595465 
L 281.291026 100.595465 
L 281.291026 100.610254 
L 281.291026 100.471771 
L 281.218816 100.48653 
L 281.146606 100.48653 
L 281.146606 100.501298 
L 281.146606 100.362651 
L 281.074397 100.377389 
L 280.929977 100.392137 
L 280.929977 100.268042 
L 280.857768 100.004724 
L 279.052527 100.004724 
L 279.052527 99.250319 
L 278.980317 99.264891 
L 278.908107 99.264891 
L 278.908107 99.279472 
L 278.908107 98.997501 
L 278.835898 99.01201 
L 275.947512 99.001489 
L 275.875302 98.182421 
L 273.203546 98.269501 
L 273.203546 97.705506 
L 273.131336 97.720049 
L 272.986917 97.734602 
L 272.986917 97.749164 
L 272.986917 97.603023 
L 272.914707 97.617552 
L 272.842498 97.617552 
L 272.842498 97.632089 
L 272.842498 97.485766 
L 272.770288 97.50027 
L 270.31516 97.529306 
L 270.242951 96.827192 
L 270.170741 96.827192 
L 270.170741 96.841689 
L 270.170741 96.543899 
L 270.098531 96.558316 
L 268.004452 96.572742 
L 268.004452 96.378387 
L 267.932242 96.392913 
L 267.860032 96.392913 
L 267.787823 96.119975 
L 267.210146 96.221428 
L 267.137936 96.250503 
L 264.682808 96.265055 
L 264.682808 95.983915 
L 264.610599 95.998571 
L 264.032921 96.101451 
L 264.032921 96.116189 
L 264.032921 95.962037 
L 263.960712 95.976736 
L 261.722213 95.91055 
L 261.650003 95.51569 
L 261.072326 95.619119 
L 261.072326 95.633936 
L 258.833827 95.633936 
L 258.833827 95.463831 
L 258.761618 95.478783 
L 258.617198 95.493746 
L 258.617198 95.50872 
L 258.617198 95.349614 
L 258.544989 95.364546 
L 258.472779 95.364546 
L 258.472779 95.37949 
L 258.472779 95.220167 
L 258.400569 95.235069 
L 258.32836 95.235069 
L 258.32836 95.249982 
L 258.32836 95.090442 
L 258.25615 95.105314 
L 255.512184 95.149994 
L 255.439974 94.396399 
L 254.862297 94.500782 
L 254.790087 94.530703 
L 254.790087 94.367517 
L 252.912637 94.367517 
L 252.912637 94.264542 
L 252.912637 93.768891 
L 252.840427 93.78377 
L 252.768217 93.78377 
L 252.768217 93.798659 
L 252.768217 93.46739 
L 252.696008 93.482178 
L 252.623798 93.482178 
L 252.623798 93.496978 
L 252.623798 93.331047 
L 252.551588 93.345802 
L 252.479379 93.345802 
L 252.479379 93.360567 
L 252.479379 93.028111 
L 252.407169 93.042775 
L 250.096461 92.997727 
L 250.096461 93.012573 
L 250.096461 92.843897 
L 250.024251 92.858696 
L 249.374364 92.808162 
L 249.374364 92.823003 
L 249.374364 92.65349 
L 249.302155 92.668284 
L 249.013316 92.697906 
L 249.013316 92.387573 
L 247.208075 92.387573 
L 247.208075 91.382126 
L 247.135865 91.396659 
L 246.558188 91.498701 
L 246.485979 91.527958 
L 246.485979 91.35461 
L 244.536318 91.369193 
L 244.464109 89.478732 
L 244.17527 89.521013 
L 244.17527 89.535129 
L 244.17527 89.357866 
L 244.10306 89.371929 
L 241.720142 89.414184 
L 241.720142 88.942794 
L 241.647933 88.95691 
L 240.709207 88.945991 
L 240.709207 88.960187 
L 240.709207 88.77878 
L 240.636998 88.792921 
L 237.748612 88.681838 
L 237.748612 87.888978 
L 237.676402 87.903038 
L 233.921501 87.900324 
L 233.921501 87.321519 
L 233.849291 87.335695 
L 233.271614 87.435263 
L 233.199405 87.463818 
L 230.238809 87.463818 
L 230.238809 86.305028 
L 230.1666 86.319133 
L 229.588923 86.418207 
L 229.588923 86.432409 
L 229.516713 86.053205 
L 226.19507 85.954422 
L 226.19507 85.304764 
L 226.12286 85.318832 
L 225.545183 85.417656 
L 225.472973 85.446005 
L 225.400764 85.446005 
L 225.400764 85.460198 
L 225.400764 85.257353 
L 225.328554 85.271475 
L 225.256344 85.271475 
L 225.256344 85.082416 
L 222.801216 85.082416 
L 222.801216 84.327151 
L 222.729007 84.341127 
L 221.934701 84.273193 
L 221.934701 84.28722 
L 221.862491 83.674425 
L 219.623992 83.702008 
L 219.623992 82.191327 
L 219.551783 82.204678 
L 219.262944 82.231416 
L 219.262944 82.04381 
L 219.190734 82.057129 
L 218.685267 82.137305 
L 218.685267 82.150712 
L 218.685267 81.935362 
L 218.613057 81.948686 
L 215.508043 81.860057 
L 215.508043 81.873639 
L 215.508043 81.653191 
L 215.435833 81.666687 
L 214.858156 81.761524 
L 214.858156 81.775124 
L 214.858156 81.553565 
L 214.785946 81.567078 
L 212.547447 81.621261 
L 212.547447 81.091074 
L 212.475238 81.104598 
L 211.825351 81.213278 
L 211.753141 81.240582 
L 208.359288 81.26794 
L 208.287079 81.447707 
L 207.99824 81.490121 
L 207.99824 81.504287 
L 207.99824 81.271119 
L 207.92603 81.285188 
L 205.398693 81.31337 
L 205.398693 80.358184 
L 205.326483 80.372087 
L 204.748806 80.46981 
L 204.676597 80.497862 
L 202.365888 80.51191 
L 202.365888 79.977332 
L 202.293678 79.991372 
L 202.221469 79.991372 
L 202.221469 80.005427 
L 202.221469 79.760169 
L 202.149259 79.774116 
L 199.260874 79.816045 
L 199.260874 79.088292 
L 199.188664 79.102222 
L 199.116454 79.102222 
L 199.116454 78.863856 
L 199.044245 78.877686 
L 198.466567 78.974925 
L 198.394358 79.002844 
L 198.322148 79.002844 
L 198.322148 79.016827 
L 198.322148 78.762796 
L 194.567247 78.762796 
L 194.567247 78.457345 
L 193.98957 78.556619 
L 193.98957 78.570866 
L 193.98957 78.30716 
L 193.91736 78.321281 
L 193.339683 78.420578 
L 193.267473 78.449095 
L 193.267473 78.183654 
L 193.123054 78.197793 
L 193.123054 78.211948 
L 193.123054 77.945914 
L 190.667926 77.945914 
L 190.667926 76.799032 
L 190.595717 76.812714 
L 189.94583 76.922748 
L 189.94583 76.936575 
L 189.94583 76.661747 
L 189.87362 76.675437 
L 187.346283 76.744127 
L 187.274073 77.179293 
L 186.768606 77.265414 
L 186.768606 76.997682 
L 186.696396 77.011951 
L 184.169059 77.040541 
L 184.169059 75.204487 
L 184.096849 75.218027 
L 183.95243 75.231584 
L 183.95243 75.245157 
L 183.95243 74.953244 
L 183.88022 74.96666 
L 180.341948 75.047512 
L 180.341948 74.437794 
L 180.269738 74.451346 
L 177.020304 74.560397 
L 177.020304 74.143414 
L 176.948094 74.157214 
L 176.298208 74.268282 
L 176.225998 74.296237 
L 169.582711 74.397686 
L 169.510501 74.677519 
L 168.932824 74.784752 
L 168.932824 74.80016 
L 168.860615 74.137234 
L 168.571776 74.182244 
L 168.571776 74.197291 
L 168.571776 73.856422 
L 168.499566 73.871253 
L 168.427357 73.871253 
L 168.427357 73.886105 
L 168.427357 73.544261 
L 168.355147 73.558895 
L 165.538971 73.602928 
L 165.538971 72.734762 
L 165.466762 72.749271 
L 162.867214 72.836791 
L 162.795005 72.937588 
L 162.722795 72.937588 
L 162.722795 72.952697 
L 162.722795 72.587441 
L 162.650586 72.6023 
L 159.7622 72.676944 
L 159.7622 72.082203 
L 159.68999 72.097182 
L 159.328942 72.157342 
L 159.328942 72.172443 
L 159.328942 71.791407 
L 159.256732 71.806235 
L 158.895684 71.865789 
L 158.895684 71.880738 
L 158.895684 71.497283 
L 155.79067 71.497283 
L 155.79067 71.35489 
L 155.71846 71.370003 
L 155.140783 71.47651 
L 155.068573 71.507175 
L 151.458091 71.537946 
L 151.385882 71.906422 
L 150.880414 72.005549 
L 150.808204 72.038829 
L 147.919819 72.038829 
L 147.919819 71.411986 
L 147.847609 71.428756 
L 147.342142 71.530046 
L 147.269932 71.564065 
L 144.525966 71.598213 
L 144.525966 70.850769 
L 144.453756 70.867813 
L 143.948289 70.970788 
L 143.876079 71.005386 
L 140.626645 71.074996 
L 140.626645 70.353153 
L 140.554435 70.370692 
L 140.048968 70.476703 
L 139.976758 70.512337 
L 136.149647 70.620149 
L 136.077438 71.009721 
L 135.64418 71.107818 
L 135.57197 71.147367 
L 135.57197 70.617233 
L 133.333471 70.655806 
L 133.261262 71.25608 
L 132.828004 71.36025 
L 132.755794 71.402262 
L 129.939618 71.423343 
L 129.867409 69.952194 
L 129.434151 70.054852 
L 129.361941 70.096276 
L 126.762394 70.137909 
L 126.690184 70.282023 
L 126.617975 70.282023 
L 126.617975 70.304103 
L 126.617975 69.681693 
L 126.545765 69.703035 
L 126.112507 69.810602 
L 126.040298 69.854032 
L 123.079702 69.875834 
L 123.007493 70.822889 
L 122.646445 70.921208 
L 122.646445 70.945963 
L 122.646445 70.274677 
L 122.574235 70.298577 
L 122.285396 70.370692 
L 122.285396 70.394869 
L 122.285396 69.716985 
L 122.213187 69.740288 
L 119.397011 69.763658 
L 119.324801 70.730934 
L 119.035962 70.810147 
L 119.035962 70.836714 
L 119.035962 70.111391 
L 118.963753 70.136961 
L 118.674914 70.214145 
L 118.674914 70.240033 
L 118.674914 69.507002 
L 118.602705 69.531868 
L 116.580835 69.606933 
L 116.580835 70.26105 
L 116.508625 68.745514 
L 116.147577 68.845695 
L 116.075367 68.896284 
L 113.54803 68.982772 
L 113.47582 69.037145 
L 113.114772 69.14705 
L 113.114772 69.174771 
L 110.731854 69.174771 
L 110.659644 70.179752 
L 110.370806 70.274677 
L 110.298596 70.338565 
L 108.421145 70.370692 
L 108.348936 71.251478 
L 108.348936 70.302802 
L 108.060097 70.404844 
L 108.060097 70.439135 
L 106.182646 70.542851 
L 106.110437 71.42086 
L 105.893808 71.498145 
L 105.821598 71.576103 
L 105.821598 70.553728 
L 105.604969 70.628064 
L 105.53276 70.703053 
L 105.316131 70.778704 
L 105.243921 70.855027 
L 103.005422 70.929451 
L 102.933213 71.054055 
L 101.055762 71.138123 
L 100.983552 72.261532 
L 100.766923 72.357643 
L 100.766923 72.40607 
L 99.46715 72.503676 
L 99.39494 73.376052 
L 99.178311 73.483997 
L 99.106102 73.593126 
L 98.311796 73.593126 
L 98.239586 74.273867 
L 98.095167 74.33269 
L 98.022957 74.451346 
L 97.878538 74.451346 
L 97.806328 74.631893 
L 97.589699 74.631893 
L 97.517489 74.877537 
L 96.506555 74.877537 
L 96.434345 75.852058 
L 96.289926 75.920205 
L 96.289926 75.98877 
L 96.145506 75.98877 
L 96.073297 76.197012 
L 95.928877 76.267289 
L 95.856668 76.409159 
L 95.712248 76.480762 
L 95.640039 76.625322 
L 95.49562 76.698288 
L 95.42341 76.845615 
L 94.845733 76.845615 
L 94.773523 77.532495 
L 94.629104 77.611326 
L 94.556894 77.770553 
L 94.484685 77.770553 
L 94.484685 77.85096 
L 94.484685 76.307643 
L 94.412475 76.383696 
L 93.545959 76.460258 
L 93.47375 77.420773 
L 93.32933 77.504467 
L 93.257121 77.673629 
L 93.112701 77.75911 
L 93.040492 77.931903 
L 92.896072 78.019229 
L 92.823863 78.195772 
L 92.679444 78.285004 
L 92.607234 78.46542 
L 92.462815 78.556619 
L 92.462815 78.648489 
L 91.740718 78.648489 
L 91.668509 79.705521 
L 91.524089 79.80605 
L 91.45188 80.009446 
L 91.30746 80.112331 
L 91.235251 80.320521 
L 91.090831 80.425846 
L 91.090831 80.532004 
L 91.018622 76.957347 
L 90.874203 77.05128 
L 90.801993 77.241428 
L 90.801993 75.356857 
L 90.657574 75.445791 
L 90.585364 75.625855 
L 90.440945 75.625855 
L 90.440945 75.808908 
L 89.863268 75.808908 
L 89.791058 76.671702 
L 89.646639 76.771718 
L 89.574429 76.97437 
L 89.43001 77.07703 
L 89.43001 77.180594 
L 89.43001 73.059123 
L 89.3578 73.146137 
L 89.213381 73.233931 
L 89.141171 73.411903 
L 88.202446 73.502103 
L 88.130236 74.754003 
L 87.841398 74.754003 
L 87.769188 75.278409 
L 87.624769 75.386421 
L 87.552559 75.605702 
L 87.480349 75.605702 
L 87.40814 75.829435 
L 87.26372 75.829435 
L 87.26372 73.661941 
L 87.191511 73.766055 
L 86.758253 73.766055 
L 86.686043 74.526197 
L 86.613834 74.526197 
L 86.541624 74.754003 
L 86.469414 74.754003 
L 86.397205 74.986816 
L 86.252786 74.986816 
L 86.180576 75.345791 
L 85.963947 75.345791 
L 85.891737 75.843569 
L 85.458479 75.843569 
L 85.458479 76.634417 
L 85.31406 76.634417 
L 85.241851 77.05128 
L 85.169641 77.05128 
L 85.097431 77.337662 
L 84.880802 77.337662 
L 84.880802 74.886416 
L 84.808593 75.020494 
L 84.736383 75.020494 
L 84.664173 75.293774 
L 84.591964 75.293774 
L 84.519754 75.574106 
L 84.375335 75.574106 
L 84.303125 76.008437 
L 84.230916 76.008437 
L 84.230916 76.15705 
L 83.797658 76.15705 
L 83.725448 77.255128 
L 83.653238 77.255128 
L 83.581029 77.58875 
L 83.581029 74.303237 
L 83.508819 74.303237 
L 83.43661 74.601586 
L 83.3644 74.601586 
L 83.29219 74.908645 
L 83.219981 74.908645 
L 83.147771 75.224803 
L 83.075561 75.224803 
L 83.003352 75.550469 
L 82.931142 75.550469 
L 82.858932 75.886079 
L 82.353465 75.886079 
L 82.281255 77.337662 
L 82.281255 73.538413 
L 82.209046 73.538413 
L 82.136836 73.871253 
L 82.064626 73.871253 
L 81.992417 74.215376 
L 81.920207 74.215376 
L 81.847997 74.571365 
L 81.775788 74.571365 
L 81.703578 74.939845 
L 81.703578 70.816781 
L 81.631368 70.816781 
L 81.559159 71.12757 
L 81.486949 71.12757 
L 81.486949 71.287203 
L 81.34253 71.287203 
L 81.27032 71.784003 
L 81.053691 71.784003 
L 81.053691 72.309464 
L 80.909272 72.309464 
L 80.837062 72.866141 
L 80.837062 63.412001 
L 80.620434 63.51245 
L 80.620434 63.719626 
L 80.331595 63.719626 
L 80.259385 64.277408 
L 80.259385 58.982201 
L 80.114966 59.043034 
L 80.114966 59.105251 
L 79.970547 59.105251 
L 79.898337 59.300683 
L 79.609499 59.368929 
L 79.609499 59.583779 
L 79.176241 59.583779 
L 79.176241 60.065041 
L 79.031821 60.065041 
L 78.959612 60.335751 
L 78.815192 60.431071 
L 78.742983 60.630001 
L 78.598564 60.733854 
L 78.526354 60.951001 
L 78.454144 60.951001 
L 78.381935 61.18172 
L 78.309725 61.18172 
L 78.309725 61.302573 
L 77.804258 61.302573 
L 77.732048 62.427601 
L 77.587629 62.427601 
L 77.515419 62.938732 
L 77.443209 62.938732 
L 77.371 63.313561 
L 77.29879 63.313561 
L 77.29879 63.51245 
L 77.154371 63.51245 
L 77.082161 64.161002 
L 76.865532 64.161002 
L 76.865532 64.900048 
L 76.648903 64.900048 
L 76.576694 66.062309 
L 76.432274 66.062309 
L 76.360065 67.103502 
L 76.360065 53.568 
L 73.832727 53.568 
L 73.832727 53.568 
" clip-path="url(#p69cae4c82f)" style="fill: none; stroke: #1f77b4; stroke-width: 1.5; stroke-linecap: round"/>
            </g>
            <g id="patch_3">
                <path d="M 57.6 307.584
L 57.6 41.472 
" style="fill: none"/>
            </g>
            <g id="patch_4">
                <path d="M 414.72 307.584
L 414.72 41.472 
" style="fill: none"/>
            </g>
            <g id="patch_5">
                <path d="M 57.6 307.584
L 414.72 307.584 
" style="fill: none"/>
            </g>
            <g id="patch_6">
                <path d="M 57.6 41.472
L 414.72 41.472 
" style="fill: none"/>
            </g>
        </g>
    </g>
    <defs>
        <clipPath id="p69cae4c82f">
            <rect x="57.6" y="41.472" width="357.12" height="266.112"/>
        </clipPath>
    </defs>
</svg>
