<?xml version="1.0" encoding="utf-8" standalone="no"?>
<!DOCTYPE svg PUBLIC "-//W3C//DTD SVG 1.1//EN"
        "http://www.w3.org/Graphics/SVG/1.1/DTD/svg11.dtd">
<svg xmlns:xlink="http://www.w3.org/1999/xlink" width="460.8pt" height="345.6pt" viewBox="0 0 460.8 345.6"
     xmlns="http://www.w3.org/2000/svg" version="1.1">
    <metadata>
        <rdf:RDF xmlns:dc="http://purl.org/dc/elements/1.1/" xmlns:cc="http://creativecommons.org/ns#"
                 xmlns:rdf="http://www.w3.org/1999/02/22-rdf-syntax-ns#">
            <cc:Work>
                <dc:type rdf:resource="http://purl.org/dc/dcmitype/StillImage"/>
                <dc:date>2022-11-22T11:14:39.956411</dc:date>
                <dc:format>image/svg+xml</dc:format>
                <dc:creator>
                    <cc:Agent>
                        <dc:title>Matplotlib v3.6.2, https://matplotlib.org/</dc:title>
                    </cc:Agent>
                </dc:creator>
            </cc:Work>
        </rdf:RDF>
    </metadata>
    <defs>
        <style type="text/css">*{stroke-linejoin: round; stroke-linecap: butt}</style>
    </defs>
    <g id="figure_1">
        <g id="patch_1">
            <path d="M 0 345.6
L 460.8 345.6 
L 460.8 0 
L 0 0 
z
" style="fill: #ffffff"/>
        </g>
        <g id="axes_1">
            <g id="patch_2">
                <path d="M 57.6 307.584
L 414.72 307.584 
L 414.72 41.472 
L 57.6 41.472 
z
" style="fill: #ffffff"/>
            </g>
            <g id="matplotlib.axis_1">
                <g id="xtick_1">
                    <g id="line2d_1">
                        <defs>
                            <path id="mcb94fbdb30" d="M 0 0
L 0 3.5 
" style="stroke: #000000; stroke-width: 0.8"/>
                        </defs>
                        <g>
                            <use xlink:href="#mcb94fbdb30" x="73.832727" y="307.584"
                                 style="stroke: #000000; stroke-width: 0.8"/>
                        </g>
                    </g>
                    <g id="text_1">
                        <!-- 0.0 -->
                        <g transform="translate(65.881165 322.182437) scale(0.1 -0.1)">
                            <defs>
                                <path id="DejaVuSans-30" d="M 2034 4250
Q 1547 4250 1301 3770 
Q 1056 3291 1056 2328 
Q 1056 1369 1301 889 
Q 1547 409 2034 409 
Q 2525 409 2770 889 
Q 3016 1369 3016 2328 
Q 3016 3291 2770 3770 
Q 2525 4250 2034 4250 
z
M 2034 4750 
Q 2819 4750 3233 4129 
Q 3647 3509 3647 2328 
Q 3647 1150 3233 529 
Q 2819 -91 2034 -91 
Q 1250 -91 836 529 
Q 422 1150 422 2328 
Q 422 3509 836 4129 
Q 1250 4750 2034 4750 
z
" transform="scale(0.015625)"/>
                                <path id="DejaVuSans-2e" d="M 684 794
L 1344 794 
L 1344 0 
L 684 0 
L 684 794 
z
" transform="scale(0.015625)"/>
                            </defs>
                            <use xlink:href="#DejaVuSans-30"/>
                            <use xlink:href="#DejaVuSans-2e" x="63.623047"/>
                            <use xlink:href="#DejaVuSans-30" x="95.410156"/>
                        </g>
                    </g>
                </g>
                <g id="xtick_2">
                    <g id="line2d_2">
                        <g>
                            <use xlink:href="#mcb94fbdb30" x="138.763636" y="307.584"
                                 style="stroke: #000000; stroke-width: 0.8"/>
                        </g>
                    </g>
                    <g id="text_2">
                        <!-- 0.2 -->
                        <g transform="translate(130.812074 322.182437) scale(0.1 -0.1)">
                            <defs>
                                <path id="DejaVuSans-32" d="M 1228 531
L 3431 531 
L 3431 0 
L 469 0 
L 469 531 
Q 828 903 1448 1529 
Q 2069 2156 2228 2338 
Q 2531 2678 2651 2914 
Q 2772 3150 2772 3378 
Q 2772 3750 2511 3984 
Q 2250 4219 1831 4219 
Q 1534 4219 1204 4116 
Q 875 4013 500 3803 
L 500 4441 
Q 881 4594 1212 4672 
Q 1544 4750 1819 4750 
Q 2544 4750 2975 4387 
Q 3406 4025 3406 3419 
Q 3406 3131 3298 2873 
Q 3191 2616 2906 2266 
Q 2828 2175 2409 1742 
Q 1991 1309 1228 531 
z
" transform="scale(0.015625)"/>
                            </defs>
                            <use xlink:href="#DejaVuSans-30"/>
                            <use xlink:href="#DejaVuSans-2e" x="63.623047"/>
                            <use xlink:href="#DejaVuSans-32" x="95.410156"/>
                        </g>
                    </g>
                </g>
                <g id="xtick_3">
                    <g id="line2d_3">
                        <g>
                            <use xlink:href="#mcb94fbdb30" x="203.694545" y="307.584"
                                 style="stroke: #000000; stroke-width: 0.8"/>
                        </g>
                    </g>
                    <g id="text_3">
                        <!-- 0.4 -->
                        <g transform="translate(195.742983 322.182437) scale(0.1 -0.1)">
                            <defs>
                                <path id="DejaVuSans-34" d="M 2419 4116
L 825 1625 
L 2419 1625 
L 2419 4116 
z
M 2253 4666 
L 3047 4666 
L 3047 1625 
L 3713 1625 
L 3713 1100 
L 3047 1100 
L 3047 0 
L 2419 0 
L 2419 1100 
L 313 1100 
L 313 1709 
L 2253 4666 
z
" transform="scale(0.015625)"/>
                            </defs>
                            <use xlink:href="#DejaVuSans-30"/>
                            <use xlink:href="#DejaVuSans-2e" x="63.623047"/>
                            <use xlink:href="#DejaVuSans-34" x="95.410156"/>
                        </g>
                    </g>
                </g>
                <g id="xtick_4">
                    <g id="line2d_4">
                        <g>
                            <use xlink:href="#mcb94fbdb30" x="268.625455" y="307.584"
                                 style="stroke: #000000; stroke-width: 0.8"/>
                        </g>
                    </g>
                    <g id="text_4">
                        <!-- 0.6 -->
                        <g transform="translate(260.673892 322.182437) scale(0.1 -0.1)">
                            <defs>
                                <path id="DejaVuSans-36" d="M 2113 2584
Q 1688 2584 1439 2293 
Q 1191 2003 1191 1497 
Q 1191 994 1439 701 
Q 1688 409 2113 409 
Q 2538 409 2786 701 
Q 3034 994 3034 1497 
Q 3034 2003 2786 2293 
Q 2538 2584 2113 2584 
z
M 3366 4563 
L 3366 3988 
Q 3128 4100 2886 4159 
Q 2644 4219 2406 4219 
Q 1781 4219 1451 3797 
Q 1122 3375 1075 2522 
Q 1259 2794 1537 2939 
Q 1816 3084 2150 3084 
Q 2853 3084 3261 2657 
Q 3669 2231 3669 1497 
Q 3669 778 3244 343 
Q 2819 -91 2113 -91 
Q 1303 -91 875 529 
Q 447 1150 447 2328 
Q 447 3434 972 4092 
Q 1497 4750 2381 4750 
Q 2619 4750 2861 4703 
Q 3103 4656 3366 4563 
z
" transform="scale(0.015625)"/>
                            </defs>
                            <use xlink:href="#DejaVuSans-30"/>
                            <use xlink:href="#DejaVuSans-2e" x="63.623047"/>
                            <use xlink:href="#DejaVuSans-36" x="95.410156"/>
                        </g>
                    </g>
                </g>
                <g id="xtick_5">
                    <g id="line2d_5">
                        <g>
                            <use xlink:href="#mcb94fbdb30" x="333.556364" y="307.584"
                                 style="stroke: #000000; stroke-width: 0.8"/>
                        </g>
                    </g>
                    <g id="text_5">
                        <!-- 0.8 -->
                        <g transform="translate(325.604801 322.182437) scale(0.1 -0.1)">
                            <defs>
                                <path id="DejaVuSans-38" d="M 2034 2216
Q 1584 2216 1326 1975 
Q 1069 1734 1069 1313 
Q 1069 891 1326 650 
Q 1584 409 2034 409 
Q 2484 409 2743 651 
Q 3003 894 3003 1313 
Q 3003 1734 2745 1975 
Q 2488 2216 2034 2216 
z
M 1403 2484 
Q 997 2584 770 2862 
Q 544 3141 544 3541 
Q 544 4100 942 4425 
Q 1341 4750 2034 4750 
Q 2731 4750 3128 4425 
Q 3525 4100 3525 3541 
Q 3525 3141 3298 2862 
Q 3072 2584 2669 2484 
Q 3125 2378 3379 2068 
Q 3634 1759 3634 1313 
Q 3634 634 3220 271 
Q 2806 -91 2034 -91 
Q 1263 -91 848 271 
Q 434 634 434 1313 
Q 434 1759 690 2068 
Q 947 2378 1403 2484 
z
M 1172 3481 
Q 1172 3119 1398 2916 
Q 1625 2713 2034 2713 
Q 2441 2713 2670 2916 
Q 2900 3119 2900 3481 
Q 2900 3844 2670 4047 
Q 2441 4250 2034 4250 
Q 1625 4250 1398 4047 
Q 1172 3844 1172 3481 
z
" transform="scale(0.015625)"/>
                            </defs>
                            <use xlink:href="#DejaVuSans-30"/>
                            <use xlink:href="#DejaVuSans-2e" x="63.623047"/>
                            <use xlink:href="#DejaVuSans-38" x="95.410156"/>
                        </g>
                    </g>
                </g>
                <g id="xtick_6">
                    <g id="line2d_6">
                        <g>
                            <use xlink:href="#mcb94fbdb30" x="398.487273" y="307.584"
                                 style="stroke: #000000; stroke-width: 0.8"/>
                        </g>
                    </g>
                    <g id="text_6">
                        <!-- 1.0 -->
                        <g transform="translate(390.53571 322.182437) scale(0.1 -0.1)">
                            <defs>
                                <path id="DejaVuSans-31" d="M 794 531
L 1825 531 
L 1825 4091 
L 703 3866 
L 703 4441 
L 1819 4666 
L 2450 4666 
L 2450 531 
L 3481 531 
L 3481 0 
L 794 0 
L 794 531 
z
" transform="scale(0.015625)"/>
                            </defs>
                            <use xlink:href="#DejaVuSans-31"/>
                            <use xlink:href="#DejaVuSans-2e" x="63.623047"/>
                            <use xlink:href="#DejaVuSans-30" x="95.410156"/>
                        </g>
                    </g>
                </g>
                <g id="text_7">
                    <!-- Recall -->
                    <g transform="translate(221.242812 335.860562) scale(0.1 -0.1)">
                        <defs>
                            <path id="DejaVuSans-52" d="M 2841 2188
Q 3044 2119 3236 1894 
Q 3428 1669 3622 1275 
L 4263 0 
L 3584 0 
L 2988 1197 
Q 2756 1666 2539 1819 
Q 2322 1972 1947 1972 
L 1259 1972 
L 1259 0 
L 628 0 
L 628 4666 
L 2053 4666 
Q 2853 4666 3247 4331 
Q 3641 3997 3641 3322 
Q 3641 2881 3436 2590 
Q 3231 2300 2841 2188 
z
M 1259 4147 
L 1259 2491 
L 2053 2491 
Q 2509 2491 2742 2702 
Q 2975 2913 2975 3322 
Q 2975 3731 2742 3939 
Q 2509 4147 2053 4147 
L 1259 4147 
z
" transform="scale(0.015625)"/>
                            <path id="DejaVuSans-65" d="M 3597 1894
L 3597 1613 
L 953 1613 
Q 991 1019 1311 708 
Q 1631 397 2203 397 
Q 2534 397 2845 478 
Q 3156 559 3463 722 
L 3463 178 
Q 3153 47 2828 -22 
Q 2503 -91 2169 -91 
Q 1331 -91 842 396 
Q 353 884 353 1716 
Q 353 2575 817 3079 
Q 1281 3584 2069 3584 
Q 2775 3584 3186 3129 
Q 3597 2675 3597 1894 
z
M 3022 2063 
Q 3016 2534 2758 2815 
Q 2500 3097 2075 3097 
Q 1594 3097 1305 2825 
Q 1016 2553 972 2059 
L 3022 2063 
z
" transform="scale(0.015625)"/>
                            <path id="DejaVuSans-63" d="M 3122 3366
L 3122 2828 
Q 2878 2963 2633 3030 
Q 2388 3097 2138 3097 
Q 1578 3097 1268 2742 
Q 959 2388 959 1747 
Q 959 1106 1268 751 
Q 1578 397 2138 397 
Q 2388 397 2633 464 
Q 2878 531 3122 666 
L 3122 134 
Q 2881 22 2623 -34 
Q 2366 -91 2075 -91 
Q 1284 -91 818 406 
Q 353 903 353 1747 
Q 353 2603 823 3093 
Q 1294 3584 2113 3584 
Q 2378 3584 2631 3529 
Q 2884 3475 3122 3366 
z
" transform="scale(0.015625)"/>
                            <path id="DejaVuSans-61" d="M 2194 1759
Q 1497 1759 1228 1600 
Q 959 1441 959 1056 
Q 959 750 1161 570 
Q 1363 391 1709 391 
Q 2188 391 2477 730 
Q 2766 1069 2766 1631 
L 2766 1759 
L 2194 1759 
z
M 3341 1997 
L 3341 0 
L 2766 0 
L 2766 531 
Q 2569 213 2275 61 
Q 1981 -91 1556 -91 
Q 1019 -91 701 211 
Q 384 513 384 1019 
Q 384 1609 779 1909 
Q 1175 2209 1959 2209 
L 2766 2209 
L 2766 2266 
Q 2766 2663 2505 2880 
Q 2244 3097 1772 3097 
Q 1472 3097 1187 3025 
Q 903 2953 641 2809 
L 641 3341 
Q 956 3463 1253 3523 
Q 1550 3584 1831 3584 
Q 2591 3584 2966 3190 
Q 3341 2797 3341 1997 
z
" transform="scale(0.015625)"/>
                            <path id="DejaVuSans-6c" d="M 603 4863
L 1178 4863 
L 1178 0 
L 603 0 
L 603 4863 
z
" transform="scale(0.015625)"/>
                        </defs>
                        <use xlink:href="#DejaVuSans-52"/>
                        <use xlink:href="#DejaVuSans-65" x="64.982422"/>
                        <use xlink:href="#DejaVuSans-63" x="126.505859"/>
                        <use xlink:href="#DejaVuSans-61" x="181.486328"/>
                        <use xlink:href="#DejaVuSans-6c" x="242.765625"/>
                        <use xlink:href="#DejaVuSans-6c" x="270.548828"/>
                    </g>
                </g>
            </g>
            <g id="matplotlib.axis_2">
                <g id="ytick_1">
                    <g id="line2d_7">
                        <defs>
                            <path id="m6e2b3061f3" d="M 0 0
L -3.5 0 
" style="stroke: #000000; stroke-width: 0.8"/>
                        </defs>
                        <g>
                            <use xlink:href="#m6e2b3061f3" x="57.6" y="296.49464"
                                 style="stroke: #000000; stroke-width: 0.8"/>
                        </g>
                    </g>
                    <g id="text_8">
                        <!-- 0.5 -->
                        <g transform="translate(34.696875 300.293858) scale(0.1 -0.1)">
                            <defs>
                                <path id="DejaVuSans-35" d="M 691 4666
L 3169 4666 
L 3169 4134 
L 1269 4134 
L 1269 2991 
Q 1406 3038 1543 3061 
Q 1681 3084 1819 3084 
Q 2600 3084 3056 2656 
Q 3513 2228 3513 1497 
Q 3513 744 3044 326 
Q 2575 -91 1722 -91 
Q 1428 -91 1123 -41 
Q 819 9 494 109 
L 494 744 
Q 775 591 1075 516 
Q 1375 441 1709 441 
Q 2250 441 2565 725 
Q 2881 1009 2881 1497 
Q 2881 1984 2565 2268 
Q 2250 2553 1709 2553 
Q 1456 2553 1204 2497 
Q 953 2441 691 2322 
L 691 4666 
z
" transform="scale(0.015625)"/>
                            </defs>
                            <use xlink:href="#DejaVuSans-30"/>
                            <use xlink:href="#DejaVuSans-2e" x="63.623047"/>
                            <use xlink:href="#DejaVuSans-35" x="95.410156"/>
                        </g>
                    </g>
                </g>
                <g id="ytick_2">
                    <g id="line2d_8">
                        <g>
                            <use xlink:href="#m6e2b3061f3" x="57.6" y="247.909312"
                                 style="stroke: #000000; stroke-width: 0.8"/>
                        </g>
                    </g>
                    <g id="text_9">
                        <!-- 0.6 -->
                        <g transform="translate(34.696875 251.70853) scale(0.1 -0.1)">
                            <use xlink:href="#DejaVuSans-30"/>
                            <use xlink:href="#DejaVuSans-2e" x="63.623047"/>
                            <use xlink:href="#DejaVuSans-36" x="95.410156"/>
                        </g>
                    </g>
                </g>
                <g id="ytick_3">
                    <g id="line2d_9">
                        <g>
                            <use xlink:href="#m6e2b3061f3" x="57.6" y="199.323984"
                                 style="stroke: #000000; stroke-width: 0.8"/>
                        </g>
                    </g>
                    <g id="text_10">
                        <!-- 0.7 -->
                        <g transform="translate(34.696875 203.123203) scale(0.1 -0.1)">
                            <defs>
                                <path id="DejaVuSans-37" d="M 525 4666
L 3525 4666 
L 3525 4397 
L 1831 0 
L 1172 0 
L 2766 4134 
L 525 4134 
L 525 4666 
z
" transform="scale(0.015625)"/>
                            </defs>
                            <use xlink:href="#DejaVuSans-30"/>
                            <use xlink:href="#DejaVuSans-2e" x="63.623047"/>
                            <use xlink:href="#DejaVuSans-37" x="95.410156"/>
                        </g>
                    </g>
                </g>
                <g id="ytick_4">
                    <g id="line2d_10">
                        <g>
                            <use xlink:href="#m6e2b3061f3" x="57.6" y="150.738656"
                                 style="stroke: #000000; stroke-width: 0.8"/>
                        </g>
                    </g>
                    <g id="text_11">
                        <!-- 0.8 -->
                        <g transform="translate(34.696875 154.537875) scale(0.1 -0.1)">
                            <use xlink:href="#DejaVuSans-30"/>
                            <use xlink:href="#DejaVuSans-2e" x="63.623047"/>
                            <use xlink:href="#DejaVuSans-38" x="95.410156"/>
                        </g>
                    </g>
                </g>
                <g id="ytick_5">
                    <g id="line2d_11">
                        <g>
                            <use xlink:href="#m6e2b3061f3" x="57.6" y="102.153328"
                                 style="stroke: #000000; stroke-width: 0.8"/>
                        </g>
                    </g>
                    <g id="text_12">
                        <!-- 0.9 -->
                        <g transform="translate(34.696875 105.952547) scale(0.1 -0.1)">
                            <defs>
                                <path id="DejaVuSans-39" d="M 703 97
L 703 672 
Q 941 559 1184 500 
Q 1428 441 1663 441 
Q 2288 441 2617 861 
Q 2947 1281 2994 2138 
Q 2813 1869 2534 1725 
Q 2256 1581 1919 1581 
Q 1219 1581 811 2004 
Q 403 2428 403 3163 
Q 403 3881 828 4315 
Q 1253 4750 1959 4750 
Q 2769 4750 3195 4129 
Q 3622 3509 3622 2328 
Q 3622 1225 3098 567 
Q 2575 -91 1691 -91 
Q 1453 -91 1209 -44 
Q 966 3 703 97 
z
M 1959 2075 
Q 2384 2075 2632 2365 
Q 2881 2656 2881 3163 
Q 2881 3666 2632 3958 
Q 2384 4250 1959 4250 
Q 1534 4250 1286 3958 
Q 1038 3666 1038 3163 
Q 1038 2656 1286 2365 
Q 1534 2075 1959 2075 
z
" transform="scale(0.015625)"/>
                            </defs>
                            <use xlink:href="#DejaVuSans-30"/>
                            <use xlink:href="#DejaVuSans-2e" x="63.623047"/>
                            <use xlink:href="#DejaVuSans-39" x="95.410156"/>
                        </g>
                    </g>
                </g>
                <g id="ytick_6">
                    <g id="line2d_12">
                        <g>
                            <use xlink:href="#m6e2b3061f3" x="57.6" y="53.568"
                                 style="stroke: #000000; stroke-width: 0.8"/>
                        </g>
                    </g>
                    <g id="text_13">
                        <!-- 1.0 -->
                        <g transform="translate(34.696875 57.367219) scale(0.1 -0.1)">
                            <use xlink:href="#DejaVuSans-31"/>
                            <use xlink:href="#DejaVuSans-2e" x="63.623047"/>
                            <use xlink:href="#DejaVuSans-30" x="95.410156"/>
                        </g>
                    </g>
                </g>
                <g id="text_14">
                    <!-- Precision -->
                    <g transform="translate(28.617187 196.835031) rotate(-90) scale(0.1 -0.1)">
                        <defs>
                            <path id="DejaVuSans-50" d="M 1259 4147
L 1259 2394 
L 2053 2394 
Q 2494 2394 2734 2622 
Q 2975 2850 2975 3272 
Q 2975 3691 2734 3919 
Q 2494 4147 2053 4147 
L 1259 4147 
z
M 628 4666 
L 2053 4666 
Q 2838 4666 3239 4311 
Q 3641 3956 3641 3272 
Q 3641 2581 3239 2228 
Q 2838 1875 2053 1875 
L 1259 1875 
L 1259 0 
L 628 0 
L 628 4666 
z
" transform="scale(0.015625)"/>
                            <path id="DejaVuSans-72" d="M 2631 2963
Q 2534 3019 2420 3045 
Q 2306 3072 2169 3072 
Q 1681 3072 1420 2755 
Q 1159 2438 1159 1844 
L 1159 0 
L 581 0 
L 581 3500 
L 1159 3500 
L 1159 2956 
Q 1341 3275 1631 3429 
Q 1922 3584 2338 3584 
Q 2397 3584 2469 3576 
Q 2541 3569 2628 3553 
L 2631 2963 
z
" transform="scale(0.015625)"/>
                            <path id="DejaVuSans-69" d="M 603 3500
L 1178 3500 
L 1178 0 
L 603 0 
L 603 3500 
z
M 603 4863 
L 1178 4863 
L 1178 4134 
L 603 4134 
L 603 4863 
z
" transform="scale(0.015625)"/>
                            <path id="DejaVuSans-73" d="M 2834 3397
L 2834 2853 
Q 2591 2978 2328 3040 
Q 2066 3103 1784 3103 
Q 1356 3103 1142 2972 
Q 928 2841 928 2578 
Q 928 2378 1081 2264 
Q 1234 2150 1697 2047 
L 1894 2003 
Q 2506 1872 2764 1633 
Q 3022 1394 3022 966 
Q 3022 478 2636 193 
Q 2250 -91 1575 -91 
Q 1294 -91 989 -36 
Q 684 19 347 128 
L 347 722 
Q 666 556 975 473 
Q 1284 391 1588 391 
Q 1994 391 2212 530 
Q 2431 669 2431 922 
Q 2431 1156 2273 1281 
Q 2116 1406 1581 1522 
L 1381 1569 
Q 847 1681 609 1914 
Q 372 2147 372 2553 
Q 372 3047 722 3315 
Q 1072 3584 1716 3584 
Q 2034 3584 2315 3537 
Q 2597 3491 2834 3397 
z
" transform="scale(0.015625)"/>
                            <path id="DejaVuSans-6f" d="M 1959 3097
Q 1497 3097 1228 2736 
Q 959 2375 959 1747 
Q 959 1119 1226 758 
Q 1494 397 1959 397 
Q 2419 397 2687 759 
Q 2956 1122 2956 1747 
Q 2956 2369 2687 2733 
Q 2419 3097 1959 3097 
z
M 1959 3584 
Q 2709 3584 3137 3096 
Q 3566 2609 3566 1747 
Q 3566 888 3137 398 
Q 2709 -91 1959 -91 
Q 1206 -91 779 398 
Q 353 888 353 1747 
Q 353 2609 779 3096 
Q 1206 3584 1959 3584 
z
" transform="scale(0.015625)"/>
                            <path id="DejaVuSans-6e" d="M 3513 2113
L 3513 0 
L 2938 0 
L 2938 2094 
Q 2938 2591 2744 2837 
Q 2550 3084 2163 3084 
Q 1697 3084 1428 2787 
Q 1159 2491 1159 1978 
L 1159 0 
L 581 0 
L 581 3500 
L 1159 3500 
L 1159 2956 
Q 1366 3272 1645 3428 
Q 1925 3584 2291 3584 
Q 2894 3584 3203 3211 
Q 3513 2838 3513 2113 
z
" transform="scale(0.015625)"/>
                        </defs>
                        <use xlink:href="#DejaVuSans-50"/>
                        <use xlink:href="#DejaVuSans-72" x="58.552734"/>
                        <use xlink:href="#DejaVuSans-65" x="97.416016"/>
                        <use xlink:href="#DejaVuSans-63" x="158.939453"/>
                        <use xlink:href="#DejaVuSans-69" x="213.919922"/>
                        <use xlink:href="#DejaVuSans-73" x="241.703125"/>
                        <use xlink:href="#DejaVuSans-69" x="293.802734"/>
                        <use xlink:href="#DejaVuSans-6f" x="321.585938"/>
                        <use xlink:href="#DejaVuSans-6e" x="382.767578"/>
                    </g>
                </g>
            </g>
            <g id="line2d_13">
                <path d="M 398.487273 295.488
L 398.414854 291.629473 
L 398.342435 291.629473 
L 398.342435 291.543727 
L 398.270016 286.942136 
L 398.197597 286.942136 
L 398.197597 286.93992 
L 398.125178 283.492449 
L 398.052759 283.492449 
L 398.052759 283.399018 
L 397.980339 277.348578 
L 397.90792 277.348578 
L 397.90792 277.249155 
L 397.90792 275.722865 
L 397.763082 275.722865 
L 397.763082 275.744779 
L 397.690663 269.449129 
L 397.618244 269.449129 
L 397.545825 267.984689 
L 397.473406 267.984689 
L 397.473406 267.875718 
L 397.400987 260.864568 
L 397.328568 260.864568 
L 397.256149 260.021235 
L 397.18373 260.021235 
L 397.111311 256.798261 
L 396.966473 256.787913 
L 396.966473 256.703839 
L 396.894054 255.80554 
L 396.821635 255.80554 
L 396.821635 255.832008 
L 396.749216 253.311959 
L 396.676797 253.311959 
L 396.676797 253.224937 
L 396.604378 252.492955 
L 396.531959 252.492955 
L 396.45954 250.747452 
L 396.387121 250.747452 
L 396.314702 248.7839 
L 396.169864 248.732017 
L 396.169864 248.680093 
L 396.097444 246.817802 
L 395.880187 246.751265 
L 395.880187 246.777431 
L 395.807768 244.727735 
L 395.735349 244.727735 
L 395.735349 244.633151 
L 395.66293 242.306655 
L 395.445673 242.358614 
L 395.373254 240.683077 
L 395.155997 240.61074 
L 395.155997 240.595247 
L 395.083578 239.707033 
L 395.011159 239.707033 
L 394.93874 236.982217 
L 394.866321 236.982217 
L 394.866321 236.880531 
L 394.866321 236.795512 
L 394.721483 236.795512 
L 394.649064 235.891449 
L 394.576645 235.891449 
L 394.504226 232.259897 
L 394.431807 232.259897 
L 394.431807 232.24155 
L 394.431807 231.361631 
L 394.286969 231.361631 
L 394.21455 228.272624 
L 394.069711 228.272624 
L 393.997292 226.99112 
L 393.924873 226.99112 
L 393.924873 226.925427 
L 393.852454 226.084204 
L 393.707616 226.084204 
L 393.635197 224.412018 
L 393.562778 224.412018 
L 393.562778 224.437105 
L 393.562778 223.555836 
L 393.41794 223.555836 
L 393.41794 223.466295 
L 393.345521 222.416744 
L 393.200683 222.416744 
L 393.128264 220.415009 
L 393.055845 220.415009 
L 392.983426 219.032921 
L 392.911007 219.032921 
L 392.838588 218.361619 
L 392.766169 218.361619 
L 392.69375 216.375071 
L 392.548912 216.350866 
L 392.548912 216.326646 
L 392.548912 216.180118 
L 392.404074 216.180118 
L 392.331655 215.519093 
L 392.259235 215.519093 
L 392.259235 215.445412 
L 392.186816 214.73125 
L 391.969559 214.6815 
L 391.969559 214.656603 
L 391.89714 213.938118 
L 391.679883 213.938118 
L 391.679883 213.015334 
L 391.607464 213.039744 
L 391.245369 213.064162 
L 391.17295 211.931805 
L 390.810855 211.878061 
L 390.738436 211.168392 
L 390.666017 211.168392 
L 390.666017 210.583393 
L 390.44876 210.583393 
L 390.376341 209.71088 
L 390.303921 209.71088 
L 390.303921 209.171033 
L 389.869407 209.089461 
L 389.869407 207.299771 
L 389.796988 207.323855 
L 389.724569 207.323855 
L 389.724569 207.243849 
L 389.65215 205.908584 
L 389.579731 205.908584 
L 389.579731 205.301359 
L 389.507312 205.325295 
L 389.145217 205.23892 
L 389.072798 204.464148 
L 388.710703 204.458893 
L 388.710703 203.091068 
L 388.493446 203.091068 
L 388.421027 202.488545 
L 388.203769 202.482302 
L 388.203769 202.50609 
L 388.203769 201.534531 
L 388.058931 201.534531 
L 387.986512 199.918778 
L 387.696836 199.942357 
L 387.624417 199.10407 
L 387.334741 199.10407 
L 387.334741 198.536539 
L 387.262322 198.560039 
L 386.900227 198.560039 
L 386.827808 197.647537 
L 386.68297 197.647537 
L 386.68297 196.578064 
L 386.610551 196.601427 
L 386.320874 196.648178 
L 386.248455 195.594008 
L 386.103617 195.61731 
L 386.031198 194.361397 
L 385.741522 194.350935 
L 385.669103 193.507883 
L 385.451846 193.507883 
L 385.451846 192.544448 
L 385.307008 192.544448 
L 385.307008 191.89842 
L 384.800075 191.793945 
L 384.727656 190.92201 
L 384.510398 190.92201 
L 384.437979 189.962162 
L 384.220722 189.962162 
L 384.148303 189.407611 
L 384.075884 189.407611 
L 384.075884 189.312709 
L 384.003465 189.217712 
L 383.858627 189.181592 
L 383.858627 188.08042 
L 383.786208 188.103145 
L 383.713789 188.103145 
L 383.713789 188.007117 
L 383.713789 187.828825 
L 383.351694 187.828825 
L 383.279275 186.890958 
L 382.772342 186.890958 
L 382.699923 186.171324 
L 382.627503 186.171324 
L 382.627503 186.133697 
L 382.627503 185.590642 
L 382.555084 185.613194 
L 382.410246 185.635755 
L 382.410246 185.537378 
L 382.410246 185.476875 
L 382.265408 185.476875 
L 382.265408 184.854947 
L 382.192989 184.877447 
L 382.12057 184.877447 
L 382.12057 184.778376 
L 382.048151 184.679204 
L 381.39638 184.602421 
L 381.39638 183.782038 
L 381.323961 183.804485 
L 380.961866 183.810539 
L 380.889447 183.201687 
L 380.59977 183.268971 
L 380.527351 182.263036 
L 380.165256 182.285379 
L 380.092837 181.900222 
L 379.87558 181.922556 
L 379.803161 181.053593 
L 379.658323 181.053593 
L 379.585904 180.49345 
L 379.513485 180.49345 
L 379.513485 180.389996 
L 379.513485 180.327129 
L 379.368647 180.327129 
L 379.368647 179.425672 
L 379.296228 179.44778 
L 379.15139 179.44778 
L 379.15139 178.34999 
L 379.078971 178.371989 
L 378.934133 178.393997 
L 378.934133 178.288628 
L 378.934133 178.224903 
L 378.861714 178.246904 
L 378.716875 178.246904 
L 378.644456 176.325318 
L 378.282361 176.368927 
L 378.209942 174.640763 
L 377.847847 174.597212 
L 377.847847 173.833886 
L 377.63059 173.833886 
L 377.558171 173.13175 
L 377.268495 173.13175 
L 377.196076 172.579285 
L 376.544304 172.643673 
L 376.544304 171.976606 
L 376.10979 171.976606 
L 376.037371 171.772333 
L 376.037371 171.793766 
L 375.675276 171.748527 
L 375.675276 171.098895 
L 375.602857 171.120276 
L 375.168343 171.120276 
L 375.095924 170.531036 
L 374.733828 170.531036 
L 374.661409 169.713545 
L 374.58899 169.713545 
L 374.58899 169.667079 
L 374.58899 169.599309 
L 374.226895 169.599309 
L 374.226895 168.821904 
L 374.154476 168.843102 
L 373.575124 168.817333 
L 373.502705 168.419089 
L 372.561257 168.393 
L 372.561257 167.663762 
L 371.981905 167.663762 
L 371.909486 167.162884 
L 371.474972 167.184034 
L 371.474972 166.316463 
L 370.895619 166.316463 
L 370.895619 165.645932 
L 370.8232 165.666956 
L 370.605943 165.709027 
L 370.605943 165.238468 
L 370.171429 165.238468 
L 370.171429 164.588772 
L 370.09901 164.609707 
L 369.519658 164.622798 
L 369.519658 163.78429 
L 369.447239 163.805165 
L 368.867886 163.775765 
L 368.795467 163.330407 
L 368.795467 163.351267 
L 368.650629 163.372134 
L 368.650629 163.249978 
L 368.650629 163.106839 
L 368.288534 163.106839 
L 368.216115 162.370195 
L 367.636763 162.390971 
L 367.636763 161.452582 
L 366.767734 161.452582 
L 366.767734 161.046902 
L 366.695315 161.067599 
L 366.115963 161.067599 
L 366.115963 160.282873 
L 366.043544 160.303511 
L 365.536611 160.292109 
L 365.536611 159.196486 
L 365.464192 159.217013 
L 364.08823 159.217013 
L 364.015811 158.568562 
L 364.015811 158.589102 
L 363.870973 158.60965 
L 363.870973 158.48111 
L 363.870973 158.406518 
L 363.219201 158.406518 
L 363.146782 157.788591 
L 362.205335 157.754519 
L 362.205335 157.377883 
L 362.132916 157.398387 
L 361.481145 157.363928 
L 361.408725 156.543055 
L 361.04663 156.487486 
L 361.04663 155.65428 
L 360.974211 155.674615 
L 360.32244 155.715312 
L 360.32244 155.321445 
L 360.250021 155.341783 
L 359.743088 155.305677 
L 359.670669 154.27107 
L 359.236154 154.27107 
L 359.163735 153.40355 
L 358.80164 153.40355 
L 358.80164 152.880104 
L 358.729221 152.900187 
L 357.932612 152.940378 
L 357.860193 152.121165 
L 356.991164 152.121165 
L 356.918745 151.195509 
L 356.339393 151.195509 
L 356.339393 150.159903 
L 355.904879 150.159903 
L 355.83246 149.577333 
L 355.253107 149.597121 
L 355.180688 149.030382 
L 355.108269 149.030382 
L 355.108269 148.969358 
L 355.108269 148.645935 
L 354.384079 148.645935 
L 354.31166 147.806347 
L 353.732308 147.806347 
L 353.732308 147.063794 
L 353.659888 147.083333 
L 353.587469 147.083333 
L 353.587469 147.020857 
L 353.587469 146.9388 
L 353.152955 146.9388 
L 353.152955 146.891724 
L 353.080536 146.499668 
L 352.863279 146.499668 
L 352.863279 145.980194 
L 352.79086 145.99962 
L 352.646022 145.936321 
L 352.646022 145.95575 
L 352.646022 145.872968 
L 352.139089 145.872968 
L 352.139089 145.428 
L 352.06667 145.447388 
L 351.921832 145.466784 
L 351.921832 145.402992 
L 351.921832 145.236493 
L 350.763127 145.275246 
L 350.690708 144.226154 
L 350.038937 144.199915 
L 349.966518 143.490834 
L 349.676841 143.490834 
L 349.676841 142.293567 
L 349.604422 142.312611 
L 348.952651 142.350723 
L 348.880232 141.90496 
L 348.228461 141.923994 
L 348.228461 141.217067 
L 348.156042 141.23603 
L 347.431851 141.206757 
L 347.431851 140.301103 
L 347.214594 140.301103 
L 347.214594 139.923103 
L 347.142175 139.941916 
L 346.924918 139.979568 
L 346.924918 139.911311 
L 346.924918 139.824177 
L 346.273147 139.824177 
L 346.273147 138.94362 
L 345.838632 138.94362 
L 345.766213 138.194302 
L 345.331699 138.194302 
L 345.331699 137.686841 
L 345.25928 137.705398 
L 344.607509 137.705398 
L 344.53509 137.001701 
L 343.593642 136.955891 
L 343.593642 136.974434 
L 343.593642 136.795369 
L 342.869452 136.795369 
L 342.869452 135.901285 
L 342.797033 135.919696 
L 342.507357 135.938115 
L 342.434938 134.925249 
L 342.072842 134.925249 
L 342.072842 133.923184 
L 342.000423 133.941294 
L 341.348652 133.959413 
L 341.348652 133.462896 
L 341.276233 133.480972 
L 340.552043 133.499055 
L 340.552043 132.924771 
L 340.479624 132.942803 
L 339.465757 132.996947 
L 339.465757 132.268017 
L 339.393338 132.286002 
L 338.089795 132.246893 
L 338.089795 131.769264 
L 338.017376 131.787249 
L 337.148348 131.823245 
L 337.075929 131.927816 
L 337.075929 131.833772 
L 336.858672 131.775791 
L 336.858672 131.793857 
L 336.858672 131.605446 
L 336.2069 131.605446 
L 336.2069 130.916654 
L 336.134481 130.934609 
L 336.062062 130.934609 
L 336.062062 130.857711 
L 336.062062 130.762807 
L 335.120615 130.762807 
L 335.120615 130.424865 
L 335.048196 130.442801 
L 334.251586 130.442801 
L 334.251586 129.874071 
L 334.179167 129.891962 
L 333.672234 129.849587 
L 333.672234 128.763667 
L 333.599815 128.781385 
L 332.585949 128.781385 
L 332.585949 128.447376 
L 331.499663 128.420958 
L 331.499663 127.932118 
L 331.427244 127.949823 
L 330.558215 127.98526 
L 330.558215 127.375855 
L 330.485796 127.393516 
L 329.182254 127.499664 
L 329.182254 126.721047 
L 329.109835 126.738675 
L 329.037416 126.738675 
L 329.037416 126.656825 
L 329.037416 126.358081 
L 328.602901 126.358081 
L 328.530482 125.781487 
L 326.792426 125.843694 
L 326.720006 125.919049 
L 325.199207 125.934192 
L 325.199207 125.276699 
L 325.126788 125.294313 
L 324.837112 125.329568 
L 324.764692 124.872741 
L 323.895664 124.890304 
L 323.895664 124.57178 
L 323.823245 124.589343 
L 323.026636 124.624493 
L 322.954217 123.562787 
L 321.94035 123.562787 
L 321.94035 123.287946 
L 321.867931 123.30538 
L 320.926483 123.340275 
L 320.926483 123.428459 
L 320.926483 123.324043 
L 320.854064 123.341557 
L 319.840198 123.359079 
L 319.840198 122.326614 
L 319.767779 122.343995 
L 319.69536 122.343995 
L 319.69536 122.255907 
L 319.622941 121.956462 
L 318.971169 121.956462 
L 318.971169 121.051055 
L 318.319398 121.051055 
L 318.319398 120.458145 
L 317.740046 120.458145 
L 317.667627 119.752734 
L 317.595208 119.752734 
L 317.595208 119.662004 
L 317.595208 119.554235 
L 317.088274 119.554235 
L 317.088274 119.024276 
L 317.015855 119.041142 
L 316.943436 119.041142 
L 316.943436 118.949648 
L 316.943436 118.841223 
L 316.871017 118.858059 
L 316.219246 118.858059 
L 316.146827 118.155389 
L 315.20538 118.205638 
L 315.13296 117.292693 
L 314.119094 117.342582 
L 314.119094 116.973381 
L 314.046675 116.990001 
L 313.539742 117.00663 
L 313.539742 116.328842 
L 313.177646 116.328842 
L 313.177646 115.853596 
L 313.105227 115.87003 
L 312.960389 115.774663 
L 312.960389 115.79109 
L 312.960389 115.679196 
L 312.236199 115.679196 
L 312.236199 115.394504 
L 312.16378 115.4109 
L 311.367171 115.427303 
L 311.367171 115.027469 
L 311.294751 115.043841 
L 309.91879 115.109415 
L 309.846371 114.804536 
L 308.904923 114.804536 
L 308.904923 114.446948 
L 308.832504 114.463357 
L 307.963476 114.529083 
L 307.963476 113.855402 
L 307.891057 113.87174 
L 307.022028 113.888087 
L 307.022028 113.257411 
L 306.225419 113.257411 
L 306.225419 112.97074 
L 306.153 112.986992 
L 305.211552 112.986992 
L 305.211552 112.260787 
L 305.139133 112.276943 
L 304.6322 112.309281 
L 304.559781 111.816708 
L 303.763172 111.832803 
L 303.763172 111.282461 
L 303.690753 111.298484 
L 302.821724 111.378732 
L 302.821724 111.252921 
L 302.821724 111.014121 
L 302.749305 111.030145 
L 301.663019 111.135489 
L 301.663019 111.151619 
L 301.300924 111.151619 
L 301.300924 110.871672 
L 301.228505 110.887769 
L 299.418029 110.8562 
L 299.418029 110.565239 
L 299.34561 110.581395 
L 298.331744 110.581395 
L 298.331744 110.564455 
L 298.331744 110.320092 
L 297.89723 110.320092 
L 297.82481 109.451553 
L 296.955782 109.451553 
L 296.883363 108.918374 
L 296.304011 108.934302 
L 296.304011 108.673437 
L 296.231592 108.689345 
L 295.362563 108.689345 
L 295.362563 108.506469 
L 295.290144 108.522402 
L 294.783211 108.538345 
L 294.710792 107.771847 
L 294.059021 107.771847 
L 294.059021 107.030345 
L 293.986602 107.045996 
L 292.683059 106.950649 
L 292.683059 106.309595 
L 292.61064 106.325158 
L 291.958868 106.325158 
L 291.958868 105.695708 
L 291.886449 105.711163 
L 290.727745 105.804082 
L 290.655326 105.458058 
L 289.641459 105.473543 
L 289.56904 105.170779 
L 288.772431 105.170779 
L 288.772431 104.818346 
L 288.700012 104.833797 
L 288.120659 104.849257 
L 288.04824 104.431914 
L 288.04824 104.447308 
L 286.59986 104.346365 
L 286.527441 103.577944 
L 284.499708 103.674416 
L 284.427289 102.813944 
L 282.471975 102.833371 
L 282.399555 102.153328 
L 281.096013 102.153328 
L 281.096013 101.740421 
L 281.023594 101.755589 
L 280.951175 101.755589 
L 280.951175 101.770766 
L 280.951175 101.494907 
L 280.878756 101.510017 
L 279.575213 101.510017 
L 279.575213 101.227893 
L 279.502794 101.243028 
L 278.126832 101.243028 
L 278.054413 101.547758 
L 277.764737 101.453699 
L 277.764737 101.469028 
L 277.764737 101.328793 
L 274.867976 101.354279 
L 274.795557 100.682962 
L 274.723138 100.682962 
L 274.723138 100.698299 
L 274.723138 100.555439 
L 274.650718 100.570744 
L 273.129919 100.627087 
L 273.129919 99.740837 
L 273.0575 99.756026 
L 271.5367 99.816879 
L 271.5367 99.640294 
L 271.464281 99.655575 
L 270.305576 99.670866 
L 270.233157 99.46135 
L 270.233157 99.476674 
L 270.160738 99.476674 
L 270.160738 99.492007 
L 270.160738 99.345021 
L 270.088319 99.360321 
L 269.364129 99.360321 
L 269.364129 99.366313 
L 269.364129 99.218644 
L 269.29171 99.233968 
L 269.219291 99.233968 
L 269.219291 99.249302 
L 269.219291 98.953488 
L 268.422681 98.953488 
L 268.350262 97.945668 
L 267.481234 97.975713 
L 267.481234 97.526154 
L 267.408815 97.541111 
L 264.72931 97.509509 
L 264.656891 97.187424 
L 264.656891 97.202491 
L 264.584472 97.202491 
L 264.584472 97.217569 
L 264.584472 97.064716 
L 264.512053 97.079756 
L 262.194644 97.168051 
L 262.194644 96.016234 
L 262.122225 96.031133 
L 260.456587 95.987852 
L 260.456587 95.905905 
L 260.384168 95.920908 
L 259.370302 95.920908 
L 259.297883 95.356237 
L 257.704664 95.415977 
L 257.704664 94.24572 
L 257.632245 94.260405 
L 255.966607 94.2751 
L 255.966607 93.789989 
L 255.894188 93.804663 
L 254.156131 93.817259 
L 254.156131 93.832084 
L 254.156131 93.503599 
L 253.142264 93.503599 
L 253.142264 93.049213 
L 253.069845 93.063868 
L 252.055979 93.063868 
L 252.055979 91.766873 
L 251.98356 91.781179 
L 250.824855 91.795497 
L 250.824855 90.828376 
L 250.752436 90.842458 
L 250.680017 90.842458 
L 250.680017 90.85655 
L 250.680017 90.686897 
L 250.607598 90.700941 
L 247.928094 90.627747 
L 247.928094 89.848037 
L 247.855675 89.862007 
L 247.783256 89.862007 
L 247.783256 89.875988 
L 247.783256 89.702753 
L 246.334875 89.702753 
L 246.334875 88.582747 
L 246.262456 88.596393 
L 246.117618 88.610049 
L 246.117618 88.623716 
L 246.117618 88.44783 
L 246.045199 88.461444 
L 245.031332 88.461444 
L 245.031332 88.121809 
L 244.958913 88.135391 
L 244.017466 88.176203 
L 244.017466 87.598879 
L 243.945047 87.612351 
L 243.727789 87.612351 
L 243.727789 87.473701 
L 243.65537 87.48715 
L 241.700056 87.478337 
L 241.700056 87.491945 
L 241.700056 87.31052 
L 240.541352 87.31052 
L 240.541352 86.79714 
L 240.468933 86.810593 
L 238.296362 86.864514 
L 238.223943 87.047635 
L 238.151524 87.047635 
L 238.151524 86.503822 
L 238.079104 86.517359 
L 237.934266 86.530908 
L 237.934266 86.544467 
L 237.934266 86.358098 
L 236.485886 86.358098 
L 236.485886 85.877445 
L 236.413467 85.890879 
L 236.341048 85.890879 
L 236.341048 85.904325 
L 236.341048 85.715595 
L 236.268629 85.728979 
L 234.820248 85.728979 
L 234.820248 85.236317 
L 234.747829 85.24964 
L 234.458153 85.289676 
L 234.458153 85.303044 
L 234.458153 85.111594 
L 232.937353 85.111594 
L 232.864934 85.406896 
L 230.185429 85.509911 
L 230.11301 85.537566 
L 228.302534 85.620821 
L 228.302534 84.693309 
L 228.230115 84.706972 
L 225.62303 84.802953 
L 225.62303 83.988152 
L 225.550611 84.001762 
L 223.595297 84.015385 
L 223.522878 83.548057 
L 223.522878 83.561666 
L 221.712402 83.616225 
L 221.712402 82.85782 
L 221.639983 82.871306 
L 219.901926 82.871306 
L 219.829507 83.212518 
L 216.860326 83.173608 
L 216.787907 82.501616 
L 214.035984 82.577686 
L 214.035984 82.591775 
L 214.035984 82.369798 
L 213.963565 82.3838 
L 211.790994 82.3838 
L 211.718575 81.695082 
L 211.501318 81.722945 
L 211.501318 81.736897 
L 211.501318 81.509983 
L 211.428899 81.523843 
L 211.35648 81.523843 
L 211.35648 81.537717 
L 211.35648 81.310367 
L 209.401166 81.310367 
L 209.328747 81.470909 
L 209.328747 81.240087 
L 209.183909 81.254042 
L 209.183909 81.26801 
L 209.183909 81.036737 
L 209.111489 81.05061 
L 207.518271 81.05061 
L 207.518271 80.18669 
L 207.445852 80.200326 
L 207.083756 80.255013 
L 207.083756 80.26872 
L 207.083756 79.796583 
L 205.056023 79.796583 
L 205.056023 79.459868 
L 204.983604 79.473402 
L 204.621509 79.527683 
L 204.621509 79.541289 
L 204.621509 79.058728 
L 204.54909 79.072109 
L 202.3041 79.085504 
L 202.3041 78.756545 
L 202.231681 78.770015 
L 199.841853 78.824039 
L 199.769434 78.985937 
L 197.162348 78.968561 
L 197.162348 78.982696 
L 197.162348 78.726327 
L 197.089929 78.740343 
L 196.945091 78.754374 
L 196.945091 78.768421 
L 196.945091 78.51136 
L 196.872672 78.525287 
L 194.338006 78.525287 
L 194.338006 77.444218 
L 194.265587 77.45787 
L 191.948178 77.45787 
L 191.948178 76.555217 
L 191.875759 76.568652 
L 189.630768 76.622549 
L 189.630768 75.612686 
L 189.558349 75.625855 
L 186.734007 75.63904 
L 186.661588 75.882143 
L 184.126922 75.895816 
L 184.126922 75.499935 
L 184.054502 75.513694 
L 183.982083 75.513694 
L 183.982083 75.52747 
L 183.982083 75.23608 
L 183.909664 75.249699 
L 181.302579 75.263335 
L 181.23016 75.467375 
L 181.085322 75.481486 
L 181.085322 75.495614 
L 181.085322 75.196307 
L 181.012903 75.21027 
L 178.116141 75.21027 
L 178.043722 73.946666 
L 175.364218 73.973838 
L 175.291799 74.475621 
L 174.712447 74.576069 
L 174.712447 74.590498 
L 172.757133 74.590498 
L 172.684714 75.002704 
L 169.643114 75.078019 
L 169.643114 73.973134 
L 169.570695 73.98792 
L 166.601514 74.047281 
L 166.529095 74.281266 
L 163.270239 74.359019 
L 163.19782 74.659305 
L 163.125401 74.659305 
L 163.125401 74.675668 
L 163.125401 74.31484 
L 163.052982 74.330961 
L 160.807991 74.347106 
L 160.735572 74.860375 
L 157.11462 74.877354 
L 157.042201 74.990815 
L 154.86963 75.02652 
L 154.797211 75.161479 
L 152.407383 75.179951 
L 152.407383 75.380075 
L 152.262545 75.380075 
L 152.262545 75.00901 
L 152.190126 75.027951 
L 149.583041 75.10405 
L 149.583041 74.885146 
L 149.510622 74.904649 
L 149.438203 74.904649 
L 149.438203 74.924188 
L 149.438203 74.498435 
L 149.365783 74.517637 
L 148.931269 74.614179 
L 148.85885 74.653045 
L 148.424336 74.750842 
L 148.351917 74.790216 
L 145.599994 74.790216 
L 145.527574 75.588351 
L 145.527574 75.140636 
L 143.499841 75.203286 
L 143.427422 75.301 
L 141.254851 75.344292 
L 141.254851 75.493686 
L 141.254851 75.017375 
L 141.182432 75.039419 
L 138.502928 75.150325 
L 138.502928 74.895606 
L 138.430509 74.918466 
L 138.068414 75.010394 
L 137.995995 75.056656 
L 135.751004 75.103118 
L 135.678585 75.306402 
L 135.31649 75.404102 
L 135.244071 75.453283 
L 132.926662 75.477956 
L 132.854243 76.297978 
L 130.391996 76.378013 
L 130.391996 77.239293 
L 130.319577 76.70387 
L 127.133139 76.732154 
L 127.06072 78.048979 
L 126.771044 78.144236 
L 126.698625 78.208153 
L 125.105406 78.240237 
L 125.032987 78.967836 
L 124.960568 78.967836 
L 124.960568 79.00193 
L 124.960568 78.383087 
L 124.888149 78.416485 
L 124.670892 78.449974 
L 124.670892 77.893536 
L 124.598473 77.926498 
L 123.29493 77.926498 
L 123.222511 78.570185 
L 123.150092 78.570185 
L 123.150092 78.605007 
L 123.150092 77.962307 
L 123.077673 77.996377 
L 122.787997 78.099161 
L 122.787997 78.133615 
L 120.325749 78.133615 
L 120.25333 78.723125 
L 120.180911 78.723125 
L 120.180911 78.760392 
L 120.180911 78.076919 
L 118.587692 78.076919 
L 118.515273 78.234397 
L 118.442854 78.234397 
L 118.442854 78.272404 
L 118.442854 77.560755 
L 118.370435 77.597838 
L 118.153178 77.672349 
L 118.153178 77.709778 
L 117.935921 77.709778 
L 117.935921 77.822766 
L 115.473674 77.822766 
L 115.401255 79.223619 
L 115.183998 79.308571 
L 115.111579 79.394088 
L 113.735617 79.394088 
L 113.663198 80.281582 
L 113.445941 80.373698 
L 113.445941 80.419995 
L 112.142398 80.415507 
L 112.142398 79.642416 
L 111.925141 79.73604 
L 111.852722 79.830339 
L 111.635465 79.925321 
L 111.635465 79.97307 
L 109.969827 79.97307 
L 109.897408 81.1733 
L 109.173218 81.225682 
L 109.100799 81.760647 
L 108.376608 81.760647 
L 108.304189 82.37353 
L 108.159351 82.430571 
L 108.159351 82.487838 
L 108.014513 82.487838 
L 107.942094 78.984872 
L 107.000646 78.984872 
L 107.000646 78.715685 
L 106.928227 78.767859 
L 106.71097 78.872858 
L 106.638551 78.978736 
L 105.841942 78.978736 
L 105.841942 78.590486 
L 105.769523 78.644298 
L 105.552266 78.752619 
L 105.479847 78.86188 
L 104.828075 78.972093 
L 104.755656 77.373729 
L 104.538399 77.480242 
L 104.538399 77.533857 
L 104.321142 77.641811 
L 104.248723 77.750742 
L 103.524533 77.860664 
L 103.452114 78.367935 
L 103.452114 77.295718 
L 103.234857 77.406595 
L 103.162437 77.518514 
L 102.438247 77.574868 
L 102.365828 78.153347 
L 102.293409 78.153347 
L 102.293409 78.212732 
L 102.293409 77.096004 
L 102.22099 77.153111 
L 102.076152 77.210495 
L 102.003733 77.326107 
L 101.858895 77.384337 
L 101.786476 77.501659 
L 101.134704 77.501659 
L 101.062285 78.106044 
L 100.917447 78.106044 
L 100.845028 78.293358 
L 100.338095 78.356433 
L 100.265676 78.807131 
L 100.120838 78.872858 
L 100.048419 79.005344 
L 99.903581 79.072109 
L 99.831162 79.206695 
L 99.324228 79.206695 
L 99.251809 79.759551 
L 99.251809 78.517222 
L 99.17939 78.517222 
L 99.17939 78.584836 
L 99.17939 77.332563 
L 99.106971 77.397316 
L 98.672457 77.462424 
L 98.600038 77.860664 
L 98.4552 77.928332 
L 98.382781 78.064804 
L 97.948267 78.064804 
L 97.875848 78.55474 
L 97.296495 78.55474 
L 97.224076 79.214214 
L 97.079238 79.289644 
L 97.006819 79.441843 
L 96.861981 79.51862 
L 96.861981 79.595854 
L 96.282629 79.595854 
L 96.21021 80.312217 
L 96.065372 80.394255 
L 95.992953 80.559849 
L 95.848115 80.643415 
L 95.848115 80.7275 
L 95.703277 80.7275 
L 95.630858 80.982919 
L 95.48602 81.069129 
L 95.4136 81.243187 
L 95.196343 81.331045 
L 95.123924 81.597997 
L 95.123924 80.125896 
L 95.051505 80.125896 
L 95.051505 80.211567 
L 95.051505 78.725451 
L 94.906667 78.725451 
L 94.834248 78.972093 
L 94.68941 79.055385 
L 94.616991 79.223619 
L 94.472153 79.308571 
L 94.399734 79.480175 
L 94.254896 79.566838 
L 94.182477 79.741914 
L 94.037639 79.830339 
L 93.96522 80.008995 
L 93.820382 80.099237 
L 93.747963 80.281582 
L 93.603125 80.373698 
L 93.530705 80.559849 
L 93.16861 80.559849 
L 93.096191 81.134144 
L 92.951353 81.232244 
L 92.878934 81.430554 
L 92.734096 81.530779 
L 92.661677 81.733407 
L 92.661677 80.069088 
L 92.516839 80.165807 
L 92.516839 80.263235 
L 92.154744 80.263235 
L 92.082325 80.863128 
L 91.937487 80.965741 
L 91.865068 81.1733 
L 91.72023 81.278263 
L 91.647811 81.490602 
L 91.502972 81.597997 
L 91.430553 81.815284 
L 91.285715 81.925195 
L 91.213296 82.147605 
L 91.140877 82.147605 
L 91.068458 82.37353 
L 90.996039 82.37353 
L 90.996039 82.487838 
L 90.851201 82.487838 
L 90.851201 82.719197 
L 90.706363 82.719197 
L 90.706363 82.954287 
L 90.561525 82.954287 
L 90.489106 83.314119 
L 90.416687 83.314119 
L 90.344268 83.558943 
L 90.19943 83.558943 
L 90.127011 83.93383 
L 90.054592 83.93383 
L 89.982173 84.189005 
L 89.909754 84.189005 
L 89.837335 84.448505 
L 89.764916 84.448505 
L 89.692497 84.712441 
L 89.620077 84.712441 
L 89.547658 84.980928 
L 89.475239 84.980928 
L 89.40282 85.254083 
L 89.330401 85.254083 
L 89.330401 85.392451 
L 89.330401 83.401096 
L 89.257982 83.532519 
L 89.185563 83.532519 
L 89.185563 83.665106 
L 89.040725 83.665106 
L 88.968306 84.07 
L 88.895887 84.07 
L 88.823468 84.346036 
L 88.751049 84.346036 
L 88.67863 84.627114 
L 88.606211 84.627114 
L 88.533792 84.913373 
L 88.461373 84.913373 
L 88.388954 85.204958 
L 88.316535 85.204958 
L 88.316535 85.352794 
L 88.171697 85.352794 
L 88.099278 85.80471 
L 88.026859 85.80471 
L 87.95444 86.113196 
L 87.882021 86.113196 
L 87.809602 86.427642 
L 87.737182 86.427642 
L 87.737182 86.587155 
L 87.592344 86.587155 
L 87.592344 86.910872 
L 87.592344 84.681757 
L 87.519925 84.835785 
L 87.447506 84.835785 
L 87.375087 85.148463 
L 87.302668 85.148463 
L 87.230249 85.467458 
L 87.15783 85.467458 
L 87.15783 85.629384 
L 87.012992 85.629384 
L 86.940573 86.125179 
L 86.868154 86.125179 
L 86.868154 86.293869 
L 86.650897 86.293869 
L 86.578478 86.98648 
L 86.506059 86.98648 
L 86.506059 87.164237 
L 86.288802 87.164237 
L 86.216383 87.89459 
L 85.999126 87.89459 
L 85.999126 88.463539 
L 85.854288 88.463539 
L 85.781868 89.051666 
L 85.709449 89.051666 
L 85.63703 89.45489 
L 85.564611 89.45489 
L 85.492192 89.867383 
L 85.419773 89.867383 
L 85.347354 90.289469 
L 85.274935 90.289469 
L 85.202516 90.721486 
L 85.130097 90.721486 
L 85.057678 91.163789 
L 84.985259 91.163789 
L 84.985259 91.388914 
L 84.840421 91.388914 
L 84.768002 92.08076 
L 84.695583 92.08076 
L 84.623164 92.556226 
L 84.550745 92.556226 
L 84.478326 93.043579 
L 84.333488 93.043579 
L 84.261069 93.797889 
L 84.18865 93.797889 
L 84.18865 94.055773 
L 84.043812 94.055773 
L 84.043812 91.67414 
L 83.971393 91.924838 
L 83.898973 91.924838 
L 83.898973 92.178857 
L 83.754135 92.178857 
L 83.754135 92.697123 
L 83.754135 89.678717 
L 83.681716 89.924368 
L 83.609297 89.924368 
L 83.536878 90.425835 
L 83.39204 90.425835 
L 83.319621 91.204522 
L 83.247202 91.204522 
L 83.174783 91.742186 
L 83.102364 91.742186 
L 83.029945 92.295435 
L 82.957526 92.295435 
L 82.957526 92.578117 
L 82.812688 92.578117 
L 82.740269 93.451478 
L 82.595431 93.451478 
L 82.523012 94.36484 
L 82.378174 94.36484 
L 82.305755 95.321016 
L 82.160917 95.321016 
L 82.088498 96.323089 
L 82.016079 96.323089 
L 82.016079 96.667888 
L 81.87124 96.667888 
L 81.87124 97.374443 
L 81.798821 94.055773 
L 81.726402 94.055773 
L 81.653983 94.742007 
L 81.581564 94.742007 
L 81.509145 95.451903 
L 81.436726 95.451903 
L 81.436726 95.816111 
L 81.436726 91.924838 
L 81.364307 92.264279 
L 81.291888 92.264279 
L 81.219469 92.961509 
L 81.074631 92.961509 
L 81.002212 94.055773 
L 80.929793 94.055773 
L 80.857374 94.819694 
L 80.784955 94.819694 
L 80.712536 95.612995 
L 80.640117 95.612995 
L 80.567698 96.437407 
L 80.495279 96.437407 
L 80.495279 96.861857 
L 80.278022 96.861857 
L 80.205603 98.64717 
L 80.133184 98.64717 
L 80.060765 99.596205 
L 79.988345 99.596205 
L 79.915926 100.586059 
L 79.843507 100.586059 
L 79.771088 101.619423 
L 79.698669 101.619423 
L 79.62625 102.69923 
L 79.62625 97.73648 
L 79.553831 97.73648 
L 79.553831 98.244164 
L 79.336574 98.244164 
L 79.264155 100.397232 
L 79.191736 100.397232 
L 79.119317 101.553509 
L 79.119317 96.080162 
L 78.757222 96.080162 
L 78.684803 99.527094 
L 78.612384 99.527094 
L 78.539965 100.803735 
L 78.467546 100.803735 
L 78.395127 102.153328 
L 78.322708 102.153328 
L 78.250289 103.582308 
L 78.17787 103.582308 
L 78.10545 105.097893 
L 78.033031 105.097893 
L 77.960612 106.708202 
L 77.888193 106.708202 
L 77.815774 108.422403 
L 77.815774 101.356847 
L 77.743355 101.356847 
L 77.670936 102.976808 
L 77.526098 102.976808 
L 77.526098 104.71045 
L 77.453679 72.254665 
L 77.38126 72.254665 
L 77.38126 72.62107 
L 77.236422 72.62107 
L 77.164003 73.811887 
L 77.091584 73.811887 
L 77.019165 74.692056 
L 76.946746 74.692056 
L 76.874327 75.65224 
L 76.801908 75.65224 
L 76.801908 76.165827 
L 76.801908 65.135935 
L 76.729489 65.41808 
L 76.65707 65.41808 
L 76.584651 66.025776 
L 76.439813 66.025776 
L 76.367394 67.063924 
L 76.222556 67.063924 
L 76.150136 68.290827 
L 76.077717 68.290827 
L 76.005298 69.240686 
L 75.932879 69.240686 
L 75.86046 70.321561 
L 75.715622 70.321561 
L 75.643203 72.254665 
L 75.570784 72.254665 
L 75.498365 73.811887 
L 75.425946 73.811887 
L 75.353527 75.65224 
L 75.281108 75.65224 
L 75.208689 77.860664 
L 75.13627 77.860664 
L 75.063851 80.559849 
L 74.991432 80.559849 
L 74.991432 82.147605 
L 74.991432 53.568 
L 74.919013 53.568 
L 73.832727 53.568 
L 73.832727 53.568 
" clip-path="url(#pad0e41b097)" style="fill: none; stroke: #1f77b4; stroke-width: 1.5; stroke-linecap: square"/>
            </g>
            <g id="patch_3">
                <path d="M 57.6 307.584
L 57.6 41.472 
" style="fill: none; stroke: #000000; stroke-width: 0.8; stroke-linejoin: miter; stroke-linecap: square"/>
            </g>
            <g id="patch_4">
                <path d="M 414.72 307.584
L 414.72 41.472 
" style="fill: none; stroke: #000000; stroke-width: 0.8; stroke-linejoin: miter; stroke-linecap: square"/>
            </g>
            <g id="patch_5">
                <path d="M 57.6 307.584
L 414.72 307.584 
" style="fill: none; stroke: #000000; stroke-width: 0.8; stroke-linejoin: miter; stroke-linecap: square"/>
            </g>
            <g id="patch_6">
                <path d="M 57.6 41.472
L 414.72 41.472 
" style="fill: none; stroke: #000000; stroke-width: 0.8; stroke-linejoin: miter; stroke-linecap: square"/>
            </g>
        </g>
    </g>
    <defs>
        <clipPath id="pad0e41b097">
            <rect x="57.6" y="41.472" width="357.12" height="266.112"/>
        </clipPath>
    </defs>
</svg>
