<?xml version="1.0" encoding="utf-8" standalone="no"?>
<!DOCTYPE svg PUBLIC "-//W3C//DTD SVG 1.1//EN"
        "http://www.w3.org/Graphics/SVG/1.1/DTD/svg11.dtd">
<svg xmlns:xlink="http://www.w3.org/1999/xlink" width="460.8pt" height="345.6pt" viewBox="0 0 460.8 345.6"
     xmlns="http://www.w3.org/2000/svg" version="1.1">
    <metadata>
        <rdf:RDF xmlns:dc="http://purl.org/dc/elements/1.1/" xmlns:cc="http://creativecommons.org/ns#"
                 xmlns:rdf="http://www.w3.org/1999/02/22-rdf-syntax-ns#">
            <cc:Work>
                <dc:type rdf:resource="http://purl.org/dc/dcmitype/StillImage"/>
                <dc:date>2022-11-30T01:34:15.858421</dc:date>
                <dc:format>image/svg+xml</dc:format>
                <dc:creator>
                    <cc:Agent>
                        <dc:title>Matplotlib v3.6.2, https://matplotlib.org/</dc:title>
                    </cc:Agent>
                </dc:creator>
            </cc:Work>
        </rdf:RDF>
    </metadata>
    <defs>
        <style type="text/css">*{stroke-linejoin: round; stroke-linecap: butt}</style>
    </defs>
    <g id="figure_1">
        <g id="patch_1">
            <path d="M 0 345.6
L 460.8 345.6 
L 460.8 0 
L 0 0 
z
" style="fill: #ffffff"/>
        </g>
        <g id="axes_1">
            <g id="patch_2">
                <path d="M 57.6 307.584
L 414.72 307.584 
L 414.72 41.472 
L 57.6 41.472 
z
" style="fill: #ffffff"/>
            </g>
            <g id="matplotlib.axis_1">
                <g id="xtick_1">
                    <g id="line2d_1">
                        <defs>
                            <path id="mebe651c83f" d="M 0 0
L 0 3.5 
" style="stroke: #000000; stroke-width: 0.8"/>
                        </defs>
                        <g>
                            <use xlink:href="#mebe651c83f" x="73.832727" y="307.584"
                                 style="stroke: #000000; stroke-width: 0.8"/>
                        </g>
                    </g>
                    <g id="text_1">
                        <!-- 0.0 -->
                        <g transform="translate(65.881165 322.182437) scale(0.1 -0.1)">
                            <defs>
                                <path id="DejaVuSans-30" d="M 2034 4250
Q 1547 4250 1301 3770 
Q 1056 3291 1056 2328 
Q 1056 1369 1301 889 
Q 1547 409 2034 409 
Q 2525 409 2770 889 
Q 3016 1369 3016 2328 
Q 3016 3291 2770 3770 
Q 2525 4250 2034 4250 
z
M 2034 4750 
Q 2819 4750 3233 4129 
Q 3647 3509 3647 2328 
Q 3647 1150 3233 529 
Q 2819 -91 2034 -91 
Q 1250 -91 836 529 
Q 422 1150 422 2328 
Q 422 3509 836 4129 
Q 1250 4750 2034 4750 
z
" transform="scale(0.015625)"/>
                                <path id="DejaVuSans-2e" d="M 684 794
L 1344 794 
L 1344 0 
L 684 0 
L 684 794 
z
" transform="scale(0.015625)"/>
                            </defs>
                            <use xlink:href="#DejaVuSans-30"/>
                            <use xlink:href="#DejaVuSans-2e" x="63.623047"/>
                            <use xlink:href="#DejaVuSans-30" x="95.410156"/>
                        </g>
                    </g>
                </g>
                <g id="xtick_2">
                    <g id="line2d_2">
                        <g>
                            <use xlink:href="#mebe651c83f" x="138.763636" y="307.584"
                                 style="stroke: #000000; stroke-width: 0.8"/>
                        </g>
                    </g>
                    <g id="text_2">
                        <!-- 0.2 -->
                        <g transform="translate(130.812074 322.182437) scale(0.1 -0.1)">
                            <defs>
                                <path id="DejaVuSans-32" d="M 1228 531
L 3431 531 
L 3431 0 
L 469 0 
L 469 531 
Q 828 903 1448 1529 
Q 2069 2156 2228 2338 
Q 2531 2678 2651 2914 
Q 2772 3150 2772 3378 
Q 2772 3750 2511 3984 
Q 2250 4219 1831 4219 
Q 1534 4219 1204 4116 
Q 875 4013 500 3803 
L 500 4441 
Q 881 4594 1212 4672 
Q 1544 4750 1819 4750 
Q 2544 4750 2975 4387 
Q 3406 4025 3406 3419 
Q 3406 3131 3298 2873 
Q 3191 2616 2906 2266 
Q 2828 2175 2409 1742 
Q 1991 1309 1228 531 
z
" transform="scale(0.015625)"/>
                            </defs>
                            <use xlink:href="#DejaVuSans-30"/>
                            <use xlink:href="#DejaVuSans-2e" x="63.623047"/>
                            <use xlink:href="#DejaVuSans-32" x="95.410156"/>
                        </g>
                    </g>
                </g>
                <g id="xtick_3">
                    <g id="line2d_3">
                        <g>
                            <use xlink:href="#mebe651c83f" x="203.694545" y="307.584"
                                 style="stroke: #000000; stroke-width: 0.8"/>
                        </g>
                    </g>
                    <g id="text_3">
                        <!-- 0.4 -->
                        <g transform="translate(195.742983 322.182437) scale(0.1 -0.1)">
                            <defs>
                                <path id="DejaVuSans-34" d="M 2419 4116
L 825 1625 
L 2419 1625 
L 2419 4116 
z
M 2253 4666 
L 3047 4666 
L 3047 1625 
L 3713 1625 
L 3713 1100 
L 3047 1100 
L 3047 0 
L 2419 0 
L 2419 1100 
L 313 1100 
L 313 1709 
L 2253 4666 
z
" transform="scale(0.015625)"/>
                            </defs>
                            <use xlink:href="#DejaVuSans-30"/>
                            <use xlink:href="#DejaVuSans-2e" x="63.623047"/>
                            <use xlink:href="#DejaVuSans-34" x="95.410156"/>
                        </g>
                    </g>
                </g>
                <g id="xtick_4">
                    <g id="line2d_4">
                        <g>
                            <use xlink:href="#mebe651c83f" x="268.625455" y="307.584"
                                 style="stroke: #000000; stroke-width: 0.8"/>
                        </g>
                    </g>
                    <g id="text_4">
                        <!-- 0.6 -->
                        <g transform="translate(260.673892 322.182437) scale(0.1 -0.1)">
                            <defs>
                                <path id="DejaVuSans-36" d="M 2113 2584
Q 1688 2584 1439 2293 
Q 1191 2003 1191 1497 
Q 1191 994 1439 701 
Q 1688 409 2113 409 
Q 2538 409 2786 701 
Q 3034 994 3034 1497 
Q 3034 2003 2786 2293 
Q 2538 2584 2113 2584 
z
M 3366 4563 
L 3366 3988 
Q 3128 4100 2886 4159 
Q 2644 4219 2406 4219 
Q 1781 4219 1451 3797 
Q 1122 3375 1075 2522 
Q 1259 2794 1537 2939 
Q 1816 3084 2150 3084 
Q 2853 3084 3261 2657 
Q 3669 2231 3669 1497 
Q 3669 778 3244 343 
Q 2819 -91 2113 -91 
Q 1303 -91 875 529 
Q 447 1150 447 2328 
Q 447 3434 972 4092 
Q 1497 4750 2381 4750 
Q 2619 4750 2861 4703 
Q 3103 4656 3366 4563 
z
" transform="scale(0.015625)"/>
                            </defs>
                            <use xlink:href="#DejaVuSans-30"/>
                            <use xlink:href="#DejaVuSans-2e" x="63.623047"/>
                            <use xlink:href="#DejaVuSans-36" x="95.410156"/>
                        </g>
                    </g>
                </g>
                <g id="xtick_5">
                    <g id="line2d_5">
                        <g>
                            <use xlink:href="#mebe651c83f" x="333.556364" y="307.584"
                                 style="stroke: #000000; stroke-width: 0.8"/>
                        </g>
                    </g>
                    <g id="text_5">
                        <!-- 0.8 -->
                        <g transform="translate(325.604801 322.182437) scale(0.1 -0.1)">
                            <defs>
                                <path id="DejaVuSans-38" d="M 2034 2216
Q 1584 2216 1326 1975 
Q 1069 1734 1069 1313 
Q 1069 891 1326 650 
Q 1584 409 2034 409 
Q 2484 409 2743 651 
Q 3003 894 3003 1313 
Q 3003 1734 2745 1975 
Q 2488 2216 2034 2216 
z
M 1403 2484 
Q 997 2584 770 2862 
Q 544 3141 544 3541 
Q 544 4100 942 4425 
Q 1341 4750 2034 4750 
Q 2731 4750 3128 4425 
Q 3525 4100 3525 3541 
Q 3525 3141 3298 2862 
Q 3072 2584 2669 2484 
Q 3125 2378 3379 2068 
Q 3634 1759 3634 1313 
Q 3634 634 3220 271 
Q 2806 -91 2034 -91 
Q 1263 -91 848 271 
Q 434 634 434 1313 
Q 434 1759 690 2068 
Q 947 2378 1403 2484 
z
M 1172 3481 
Q 1172 3119 1398 2916 
Q 1625 2713 2034 2713 
Q 2441 2713 2670 2916 
Q 2900 3119 2900 3481 
Q 2900 3844 2670 4047 
Q 2441 4250 2034 4250 
Q 1625 4250 1398 4047 
Q 1172 3844 1172 3481 
z
" transform="scale(0.015625)"/>
                            </defs>
                            <use xlink:href="#DejaVuSans-30"/>
                            <use xlink:href="#DejaVuSans-2e" x="63.623047"/>
                            <use xlink:href="#DejaVuSans-38" x="95.410156"/>
                        </g>
                    </g>
                </g>
                <g id="xtick_6">
                    <g id="line2d_6">
                        <g>
                            <use xlink:href="#mebe651c83f" x="398.487273" y="307.584"
                                 style="stroke: #000000; stroke-width: 0.8"/>
                        </g>
                    </g>
                    <g id="text_6">
                        <!-- 1.0 -->
                        <g transform="translate(390.53571 322.182437) scale(0.1 -0.1)">
                            <defs>
                                <path id="DejaVuSans-31" d="M 794 531
L 1825 531 
L 1825 4091 
L 703 3866 
L 703 4441 
L 1819 4666 
L 2450 4666 
L 2450 531 
L 3481 531 
L 3481 0 
L 794 0 
L 794 531 
z
" transform="scale(0.015625)"/>
                            </defs>
                            <use xlink:href="#DejaVuSans-31"/>
                            <use xlink:href="#DejaVuSans-2e" x="63.623047"/>
                            <use xlink:href="#DejaVuSans-30" x="95.410156"/>
                        </g>
                    </g>
                </g>
                <g id="text_7">
                    <!-- Recall -->
                    <g transform="translate(221.242812 335.860562) scale(0.1 -0.1)">
                        <defs>
                            <path id="DejaVuSans-52" d="M 2841 2188
Q 3044 2119 3236 1894 
Q 3428 1669 3622 1275 
L 4263 0 
L 3584 0 
L 2988 1197 
Q 2756 1666 2539 1819 
Q 2322 1972 1947 1972 
L 1259 1972 
L 1259 0 
L 628 0 
L 628 4666 
L 2053 4666 
Q 2853 4666 3247 4331 
Q 3641 3997 3641 3322 
Q 3641 2881 3436 2590 
Q 3231 2300 2841 2188 
z
M 1259 4147 
L 1259 2491 
L 2053 2491 
Q 2509 2491 2742 2702 
Q 2975 2913 2975 3322 
Q 2975 3731 2742 3939 
Q 2509 4147 2053 4147 
L 1259 4147 
z
" transform="scale(0.015625)"/>
                            <path id="DejaVuSans-65" d="M 3597 1894
L 3597 1613 
L 953 1613 
Q 991 1019 1311 708 
Q 1631 397 2203 397 
Q 2534 397 2845 478 
Q 3156 559 3463 722 
L 3463 178 
Q 3153 47 2828 -22 
Q 2503 -91 2169 -91 
Q 1331 -91 842 396 
Q 353 884 353 1716 
Q 353 2575 817 3079 
Q 1281 3584 2069 3584 
Q 2775 3584 3186 3129 
Q 3597 2675 3597 1894 
z
M 3022 2063 
Q 3016 2534 2758 2815 
Q 2500 3097 2075 3097 
Q 1594 3097 1305 2825 
Q 1016 2553 972 2059 
L 3022 2063 
z
" transform="scale(0.015625)"/>
                            <path id="DejaVuSans-63" d="M 3122 3366
L 3122 2828 
Q 2878 2963 2633 3030 
Q 2388 3097 2138 3097 
Q 1578 3097 1268 2742 
Q 959 2388 959 1747 
Q 959 1106 1268 751 
Q 1578 397 2138 397 
Q 2388 397 2633 464 
Q 2878 531 3122 666 
L 3122 134 
Q 2881 22 2623 -34 
Q 2366 -91 2075 -91 
Q 1284 -91 818 406 
Q 353 903 353 1747 
Q 353 2603 823 3093 
Q 1294 3584 2113 3584 
Q 2378 3584 2631 3529 
Q 2884 3475 3122 3366 
z
" transform="scale(0.015625)"/>
                            <path id="DejaVuSans-61" d="M 2194 1759
Q 1497 1759 1228 1600 
Q 959 1441 959 1056 
Q 959 750 1161 570 
Q 1363 391 1709 391 
Q 2188 391 2477 730 
Q 2766 1069 2766 1631 
L 2766 1759 
L 2194 1759 
z
M 3341 1997 
L 3341 0 
L 2766 0 
L 2766 531 
Q 2569 213 2275 61 
Q 1981 -91 1556 -91 
Q 1019 -91 701 211 
Q 384 513 384 1019 
Q 384 1609 779 1909 
Q 1175 2209 1959 2209 
L 2766 2209 
L 2766 2266 
Q 2766 2663 2505 2880 
Q 2244 3097 1772 3097 
Q 1472 3097 1187 3025 
Q 903 2953 641 2809 
L 641 3341 
Q 956 3463 1253 3523 
Q 1550 3584 1831 3584 
Q 2591 3584 2966 3190 
Q 3341 2797 3341 1997 
z
" transform="scale(0.015625)"/>
                            <path id="DejaVuSans-6c" d="M 603 4863
L 1178 4863 
L 1178 0 
L 603 0 
L 603 4863 
z
" transform="scale(0.015625)"/>
                        </defs>
                        <use xlink:href="#DejaVuSans-52"/>
                        <use xlink:href="#DejaVuSans-65" x="64.982422"/>
                        <use xlink:href="#DejaVuSans-63" x="126.505859"/>
                        <use xlink:href="#DejaVuSans-61" x="181.486328"/>
                        <use xlink:href="#DejaVuSans-6c" x="242.765625"/>
                        <use xlink:href="#DejaVuSans-6c" x="270.548828"/>
                    </g>
                </g>
            </g>
            <g id="matplotlib.axis_2">
                <g id="ytick_1">
                    <g id="line2d_7">
                        <defs>
                            <path id="mba23fd48d6" d="M 0 0
L -3.5 0 
" style="stroke: #000000; stroke-width: 0.8"/>
                        </defs>
                        <g>
                            <use xlink:href="#mba23fd48d6" x="57.6" y="296.877718"
                                 style="stroke: #000000; stroke-width: 0.8"/>
                        </g>
                    </g>
                    <g id="text_8">
                        <!-- 0.5 -->
                        <g transform="translate(34.696875 300.676937) scale(0.1 -0.1)">
                            <defs>
                                <path id="DejaVuSans-35" d="M 691 4666
L 3169 4666 
L 3169 4134 
L 1269 4134 
L 1269 2991 
Q 1406 3038 1543 3061 
Q 1681 3084 1819 3084 
Q 2600 3084 3056 2656 
Q 3513 2228 3513 1497 
Q 3513 744 3044 326 
Q 2575 -91 1722 -91 
Q 1428 -91 1123 -41 
Q 819 9 494 109 
L 494 744 
Q 775 591 1075 516 
Q 1375 441 1709 441 
Q 2250 441 2565 725 
Q 2881 1009 2881 1497 
Q 2881 1984 2565 2268 
Q 2250 2553 1709 2553 
Q 1456 2553 1204 2497 
Q 953 2441 691 2322 
L 691 4666 
z
" transform="scale(0.015625)"/>
                            </defs>
                            <use xlink:href="#DejaVuSans-30"/>
                            <use xlink:href="#DejaVuSans-2e" x="63.623047"/>
                            <use xlink:href="#DejaVuSans-35" x="95.410156"/>
                        </g>
                    </g>
                </g>
                <g id="ytick_2">
                    <g id="line2d_8">
                        <g>
                            <use xlink:href="#mba23fd48d6" x="57.6" y="248.215775"
                                 style="stroke: #000000; stroke-width: 0.8"/>
                        </g>
                    </g>
                    <g id="text_9">
                        <!-- 0.6 -->
                        <g transform="translate(34.696875 252.014993) scale(0.1 -0.1)">
                            <use xlink:href="#DejaVuSans-30"/>
                            <use xlink:href="#DejaVuSans-2e" x="63.623047"/>
                            <use xlink:href="#DejaVuSans-36" x="95.410156"/>
                        </g>
                    </g>
                </g>
                <g id="ytick_3">
                    <g id="line2d_9">
                        <g>
                            <use xlink:href="#mba23fd48d6" x="57.6" y="199.553831"
                                 style="stroke: #000000; stroke-width: 0.8"/>
                        </g>
                    </g>
                    <g id="text_10">
                        <!-- 0.7 -->
                        <g transform="translate(34.696875 203.35305) scale(0.1 -0.1)">
                            <defs>
                                <path id="DejaVuSans-37" d="M 525 4666
L 3525 4666 
L 3525 4397 
L 1831 0 
L 1172 0 
L 2766 4134 
L 525 4134 
L 525 4666 
z
" transform="scale(0.015625)"/>
                            </defs>
                            <use xlink:href="#DejaVuSans-30"/>
                            <use xlink:href="#DejaVuSans-2e" x="63.623047"/>
                            <use xlink:href="#DejaVuSans-37" x="95.410156"/>
                        </g>
                    </g>
                </g>
                <g id="ytick_4">
                    <g id="line2d_10">
                        <g>
                            <use xlink:href="#mba23fd48d6" x="57.6" y="150.891887"
                                 style="stroke: #000000; stroke-width: 0.8"/>
                        </g>
                    </g>
                    <g id="text_11">
                        <!-- 0.8 -->
                        <g transform="translate(34.696875 154.691106) scale(0.1 -0.1)">
                            <use xlink:href="#DejaVuSans-30"/>
                            <use xlink:href="#DejaVuSans-2e" x="63.623047"/>
                            <use xlink:href="#DejaVuSans-38" x="95.410156"/>
                        </g>
                    </g>
                </g>
                <g id="ytick_5">
                    <g id="line2d_11">
                        <g>
                            <use xlink:href="#mba23fd48d6" x="57.6" y="102.229944"
                                 style="stroke: #000000; stroke-width: 0.8"/>
                        </g>
                    </g>
                    <g id="text_12">
                        <!-- 0.9 -->
                        <g transform="translate(34.696875 106.029162) scale(0.1 -0.1)">
                            <defs>
                                <path id="DejaVuSans-39" d="M 703 97
L 703 672 
Q 941 559 1184 500 
Q 1428 441 1663 441 
Q 2288 441 2617 861 
Q 2947 1281 2994 2138 
Q 2813 1869 2534 1725 
Q 2256 1581 1919 1581 
Q 1219 1581 811 2004 
Q 403 2428 403 3163 
Q 403 3881 828 4315 
Q 1253 4750 1959 4750 
Q 2769 4750 3195 4129 
Q 3622 3509 3622 2328 
Q 3622 1225 3098 567 
Q 2575 -91 1691 -91 
Q 1453 -91 1209 -44 
Q 966 3 703 97 
z
M 1959 2075 
Q 2384 2075 2632 2365 
Q 2881 2656 2881 3163 
Q 2881 3666 2632 3958 
Q 2384 4250 1959 4250 
Q 1534 4250 1286 3958 
Q 1038 3666 1038 3163 
Q 1038 2656 1286 2365 
Q 1534 2075 1959 2075 
z
" transform="scale(0.015625)"/>
                            </defs>
                            <use xlink:href="#DejaVuSans-30"/>
                            <use xlink:href="#DejaVuSans-2e" x="63.623047"/>
                            <use xlink:href="#DejaVuSans-39" x="95.410156"/>
                        </g>
                    </g>
                </g>
                <g id="ytick_6">
                    <g id="line2d_12">
                        <g>
                            <use xlink:href="#mba23fd48d6" x="57.6" y="53.568"
                                 style="stroke: #000000; stroke-width: 0.8"/>
                        </g>
                    </g>
                    <g id="text_13">
                        <!-- 1.0 -->
                        <g transform="translate(34.696875 57.367219) scale(0.1 -0.1)">
                            <use xlink:href="#DejaVuSans-31"/>
                            <use xlink:href="#DejaVuSans-2e" x="63.623047"/>
                            <use xlink:href="#DejaVuSans-30" x="95.410156"/>
                        </g>
                    </g>
                </g>
                <g id="text_14">
                    <!-- Precision -->
                    <g transform="translate(28.617187 196.835031) rotate(-90) scale(0.1 -0.1)">
                        <defs>
                            <path id="DejaVuSans-50" d="M 1259 4147
L 1259 2394 
L 2053 2394 
Q 2494 2394 2734 2622 
Q 2975 2850 2975 3272 
Q 2975 3691 2734 3919 
Q 2494 4147 2053 4147 
L 1259 4147 
z
M 628 4666 
L 2053 4666 
Q 2838 4666 3239 4311 
Q 3641 3956 3641 3272 
Q 3641 2581 3239 2228 
Q 2838 1875 2053 1875 
L 1259 1875 
L 1259 0 
L 628 0 
L 628 4666 
z
" transform="scale(0.015625)"/>
                            <path id="DejaVuSans-72" d="M 2631 2963
Q 2534 3019 2420 3045 
Q 2306 3072 2169 3072 
Q 1681 3072 1420 2755 
Q 1159 2438 1159 1844 
L 1159 0 
L 581 0 
L 581 3500 
L 1159 3500 
L 1159 2956 
Q 1341 3275 1631 3429 
Q 1922 3584 2338 3584 
Q 2397 3584 2469 3576 
Q 2541 3569 2628 3553 
L 2631 2963 
z
" transform="scale(0.015625)"/>
                            <path id="DejaVuSans-69" d="M 603 3500
L 1178 3500 
L 1178 0 
L 603 0 
L 603 3500 
z
M 603 4863 
L 1178 4863 
L 1178 4134 
L 603 4134 
L 603 4863 
z
" transform="scale(0.015625)"/>
                            <path id="DejaVuSans-73" d="M 2834 3397
L 2834 2853 
Q 2591 2978 2328 3040 
Q 2066 3103 1784 3103 
Q 1356 3103 1142 2972 
Q 928 2841 928 2578 
Q 928 2378 1081 2264 
Q 1234 2150 1697 2047 
L 1894 2003 
Q 2506 1872 2764 1633 
Q 3022 1394 3022 966 
Q 3022 478 2636 193 
Q 2250 -91 1575 -91 
Q 1294 -91 989 -36 
Q 684 19 347 128 
L 347 722 
Q 666 556 975 473 
Q 1284 391 1588 391 
Q 1994 391 2212 530 
Q 2431 669 2431 922 
Q 2431 1156 2273 1281 
Q 2116 1406 1581 1522 
L 1381 1569 
Q 847 1681 609 1914 
Q 372 2147 372 2553 
Q 372 3047 722 3315 
Q 1072 3584 1716 3584 
Q 2034 3584 2315 3537 
Q 2597 3491 2834 3397 
z
" transform="scale(0.015625)"/>
                            <path id="DejaVuSans-6f" d="M 1959 3097
Q 1497 3097 1228 2736 
Q 959 2375 959 1747 
Q 959 1119 1226 758 
Q 1494 397 1959 397 
Q 2419 397 2687 759 
Q 2956 1122 2956 1747 
Q 2956 2369 2687 2733 
Q 2419 3097 1959 3097 
z
M 1959 3584 
Q 2709 3584 3137 3096 
Q 3566 2609 3566 1747 
Q 3566 888 3137 398 
Q 2709 -91 1959 -91 
Q 1206 -91 779 398 
Q 353 888 353 1747 
Q 353 2609 779 3096 
Q 1206 3584 1959 3584 
z
" transform="scale(0.015625)"/>
                            <path id="DejaVuSans-6e" d="M 3513 2113
L 3513 0 
L 2938 0 
L 2938 2094 
Q 2938 2591 2744 2837 
Q 2550 3084 2163 3084 
Q 1697 3084 1428 2787 
Q 1159 2491 1159 1978 
L 1159 0 
L 581 0 
L 581 3500 
L 1159 3500 
L 1159 2956 
Q 1366 3272 1645 3428 
Q 1925 3584 2291 3584 
Q 2894 3584 3203 3211 
Q 3513 2838 3513 2113 
z
" transform="scale(0.015625)"/>
                        </defs>
                        <use xlink:href="#DejaVuSans-50"/>
                        <use xlink:href="#DejaVuSans-72" x="58.552734"/>
                        <use xlink:href="#DejaVuSans-65" x="97.416016"/>
                        <use xlink:href="#DejaVuSans-63" x="158.939453"/>
                        <use xlink:href="#DejaVuSans-69" x="213.919922"/>
                        <use xlink:href="#DejaVuSans-73" x="241.703125"/>
                        <use xlink:href="#DejaVuSans-69" x="293.802734"/>
                        <use xlink:href="#DejaVuSans-6f" x="321.585938"/>
                        <use xlink:href="#DejaVuSans-6e" x="382.767578"/>
                    </g>
                </g>
            </g>
            <g id="line2d_13">
                <path d="M 398.487273 295.488
L 398.414967 275.053968 
L 398.34266 275.053968 
L 398.270354 265.226926 
L 398.198048 265.226926 
L 398.125742 257.628119 
L 398.053436 257.628119 
L 398.053436 257.544748 
L 397.98113 251.436287 
L 397.908824 251.436287 
L 397.908824 251.347771 
L 397.836518 246.195028 
L 397.764211 246.195028 
L 397.764211 246.102036 
L 397.691905 243.364822 
L 397.619599 243.364822 
L 397.619599 243.26935 
L 397.547293 242.239513 
L 397.474987 242.239513 
L 397.474987 242.14302 
L 397.402681 241.063538 
L 397.330375 241.063538 
L 397.258068 238.837757 
L 397.185762 238.837757 
L 397.185762 238.821681 
L 397.113456 234.185257 
L 397.04115 234.185257 
L 397.04115 234.081487 
L 396.968844 233.0261 
L 396.896538 233.0261 
L 396.896538 232.921235 
L 396.824232 230.891901 
L 396.751925 230.891901 
L 396.751925 230.785044 
L 396.679619 229.260736 
L 396.607313 229.260736 
L 396.607313 229.152333 
L 396.535007 228.328944 
L 396.390395 228.219631 
L 396.318089 224.779402 
L 396.245783 224.779402 
L 396.245783 224.712579 
L 396.173476 224.278095 
L 396.10117 224.278095 
L 396.10117 224.210917 
L 396.028864 223.219711 
L 395.956558 223.219711 
L 395.956558 221.1925 
L 395.884252 221.217169 
L 395.811946 221.217169 
L 395.811946 221.147927 
L 395.73964 220.796351 
L 395.667333 220.796351 
L 395.667333 220.726801 
L 395.595027 219.426587 
L 395.305803 219.357691 
L 395.305803 219.334698 
L 395.233497 216.526896 
L 395.161191 216.526896 
L 395.161191 216.454386 
L 395.088884 216.284791 
L 395.016578 216.284791 
L 395.016578 216.212086 
L 395.016578 214.895708 
L 394.944272 214.91999 
L 394.79966 214.846329 
L 394.79966 214.821617 
L 394.727354 214.45334 
L 394.510435 214.45334 
L 394.438129 212.224132 
L 394.365823 212.224132 
L 394.365823 212.148513 
L 394.293517 211.873029 
L 394.221211 211.873029 
L 394.221211 211.797135 
L 394.148905 210.364287 
L 394.076599 210.364287 
L 394.076599 210.287317 
L 394.004292 209.805519 
L 393.715068 209.805519 
L 393.642762 206.959728 
L 393.570456 206.959728 
L 393.570456 206.880258 
L 393.570456 206.62192 
L 393.425843 206.62192 
L 393.425843 206.514165 
L 393.353537 205.915512 
L 393.281231 205.915512 
L 393.281231 205.835233 
L 393.208925 202.762311 
L 393.136619 202.762311 
L 393.136619 202.679751 
L 393.064313 202.544059 
L 392.992006 202.544059 
L 392.992006 202.461306 
L 392.9197 202.059335 
L 392.775088 202.029466 
L 392.775088 201.999579 
L 392.775088 201.892979 
L 392.702782 201.916359 
L 392.55817 201.833061 
L 392.55817 201.856447 
L 392.485864 201.612783 
L 392.413557 201.612783 
L 392.413557 201.529209 
L 392.413557 201.15435 
L 392.341251 201.177692 
L 392.268945 201.177692 
L 392.268945 197.898346 
L 392.196639 197.921402 
L 392.052027 197.889776 
L 392.052027 197.85813 
L 392.052027 197.803401 
L 391.979721 197.826464 
L 391.907414 197.826464 
L 391.907414 197.740004 
L 391.835108 197.488913 
L 391.762802 197.488913 
L 391.762802 197.402165 
L 391.690496 196.433774 
L 391.545884 196.456735 
L 391.545884 196.369169 
L 391.473578 195.616324 
L 391.256659 195.616324 
L 391.256659 193.898034 
L 391.112047 193.898034 
L 391.112047 193.831218 
L 391.039741 193.17842 
L 390.967435 193.17842 
L 390.967435 193.088258 
L 390.895129 192.488849 
L 390.822822 192.488849 
L 390.822822 192.39813 
L 390.750516 192.25057 
L 390.67821 192.25057 
L 390.67821 192.15963 
L 390.605904 190.985184 
L 390.316679 190.950482 
L 390.244373 188.677589 
L 389.955149 188.570319 
L 389.955149 188.59263 
L 389.882843 187.916228 
L 389.810537 187.916228 
L 389.810537 187.821747 
L 389.73823 187.610269 
L 389.593618 187.632502 
L 389.593618 187.537739 
L 389.521312 187.091133 
L 389.304394 187.0181 
L 389.304394 186.981547 
L 389.232087 186.356134 
L 388.653638 186.319275 
L 388.581332 184.118449 
L 388.509026 184.118449 
L 388.509026 184.020637 
L 388.43672 183.86277 
L 388.292108 183.824718 
L 388.292108 183.78664 
L 388.219802 183.568305 
L 388.147495 183.568305 
L 388.147495 183.469951 
L 388.147495 183.22917 
L 388.075189 183.251053 
L 387.713659 183.157766 
L 387.713659 183.179667 
L 387.641353 182.354777 
L 387.13521 182.354777 
L 387.13521 179.6947 
L 387.062903 179.716267 
L 386.990597 179.716267 
L 386.990597 179.614506 
L 386.918291 179.14183 
L 386.629067 179.0826 
L 386.629067 179.042183 
L 386.55676 178.505178 
L 386.267536 178.507436 
L 386.267536 178.404473 
L 386.19523 177.48972 
L 385.833699 177.48972 
L 385.761393 174.650914 
L 385.616781 174.608334 
L 385.616781 174.565724 
L 385.616781 174.502004 
L 385.544475 174.523084 
L 385.327556 174.501501 
L 385.327556 174.458802 
L 385.327556 174.394986 
L 385.25525 174.416073 
L 385.182944 174.416073 
L 385.182944 174.309439 
L 385.110638 173.946759 
L 384.966026 173.839692 
L 384.966026 173.860733 
L 384.893719 173.625221 
L 384.749107 173.517816 
L 384.749107 173.538834 
L 384.749107 173.217325 
L 384.170658 173.217325 
L 384.098352 170.941813 
L 384.026046 170.941813 
L 384.026046 170.831919 
L 384.026046 170.635767 
L 383.95374 170.656494 
L 383.881433 170.656494 
L 383.881433 170.546313 
L 383.809127 170.042383 
L 383.664515 170.063052 
L 383.664515 169.952301 
L 383.664515 169.754982 
L 383.592209 169.775627 
L 383.375291 169.685227 
L 383.375291 169.705877 
L 383.302984 169.330744 
L 383.230678 169.330744 
L 383.230678 169.285305 
L 383.158372 169.04143 
L 382.941454 169.016422 
L 382.941454 168.970789 
L 382.941454 168.572915 
L 382.435311 168.572915 
L 382.363005 166.598891 
L 382.001474 166.613034 
L 382.001474 166.498781 
L 381.929168 166.384404 
L 381.712249 166.357678 
L 381.712249 166.310576 
L 381.712249 166.108079 
L 381.639943 166.128401 
L 381.495331 166.081165 
L 381.495331 166.033894 
L 381.495331 165.898626 
L 381.423025 165.918935 
L 380.989188 165.885122 
L 380.989188 165.837678 
L 380.989188 165.769873 
L 380.77227 165.742687 
L 380.77227 165.69514 
L 380.77227 165.559307 
L 380.699964 165.579621 
L 380.338433 165.592954 
L 380.338433 165.477211 
L 380.338433 165.409131 
L 380.266127 165.429455 
L 380.193821 165.429455 
L 380.193821 165.381664 
L 380.193821 165.177151 
L 379.326147 165.177151 
L 379.326147 163.360619 
L 379.253841 163.380746 
L 378.747698 163.29416 
L 378.747698 163.314312 
L 378.675392 162.918672 
L 378.603086 162.918672 
L 378.603086 162.869386 
L 378.53078 162.681121 
L 378.458473 162.681121 
L 378.458473 162.631693 
L 378.458473 162.562149 
L 378.386167 162.582229 
L 378.313861 162.582229 
L 378.313861 162.532728 
L 378.241555 162.134691 
L 378.169249 162.134691 
L 378.169249 162.084943 
L 378.169249 161.245492 
L 377.446187 161.245492 
L 377.446187 159.398206 
L 377.373881 159.417932 
L 377.156963 159.315369 
L 377.156963 159.335098 
L 377.084657 159.141522 
L 377.012351 159.141522 
L 377.012351 159.090071 
L 376.940045 158.753503 
L 376.867738 158.753503 
L 376.867738 158.701829 
L 376.867738 158.559057 
L 376.795432 158.578708 
L 376.578514 158.61803 
L 376.578514 158.494746 
L 376.506208 158.228134 
L 376.289289 158.195744 
L 376.289289 158.143686 
L 376.289289 158.071968 
L 376.216983 158.091589 
L 375.638534 158.013594 
L 375.638534 158.033245 
L 375.566228 157.837049 
L 374.553942 157.856685 
L 374.481636 154.417443 
L 374.40933 154.417443 
L 374.40933 154.3631 
L 374.337024 154.013983 
L 374.264718 154.013983 
L 374.264718 153.959402 
L 374.192411 153.83095 
L 373.975493 153.721503 
L 373.975493 153.740664 
L 373.903187 153.093194 
L 373.541656 153.021022 
L 373.541656 153.040111 
L 373.541656 152.891437 
L 373.46935 152.910512 
L 371.806309 152.820762 
L 371.734003 151.099602 
L 371.734003 151.118529 
L 371.589391 151.061935 
L 371.589391 151.080866 
L 371.517084 150.872975 
L 371.444778 150.872975 
L 371.444778 150.816208 
L 371.372472 150.53206 
L 371.155554 150.569811 
L 371.155554 150.436926 
L 371.155554 150.360995 
L 371.083248 150.379856 
L 371.010941 150.379856 
L 371.010941 150.322742 
L 370.938635 150.18953 
L 370.866329 150.18953 
L 370.866329 150.132286 
L 370.794023 149.92264 
L 370.721717 149.92264 
L 370.721717 149.865224 
L 370.721717 149.788959 
L 370.577105 149.788959 
L 370.577105 149.750258 
L 370.504799 149.463455 
L 370.432492 149.463455 
L 370.432492 149.405736 
L 370.360186 149.041551 
L 370.28788 149.041551 
L 370.28788 148.983576 
L 370.28788 148.830102 
L 370.215574 148.848792 
L 370.070962 148.848792 
L 370.070962 148.809378 
L 370.070962 148.655655 
L 369.998656 148.674333 
L 368.98637 148.674333 
L 368.98637 146.610948 
L 368.914064 146.629387 
L 368.841757 146.629387 
L 368.841757 146.569811 
L 368.841757 146.491759 
L 368.769451 146.510189 
L 368.335614 146.446109 
L 368.335614 146.464559 
L 368.335614 146.308072 
L 368.263308 146.326505 
L 367.901778 146.321963 
L 367.901778 146.262029 
L 367.829472 146.123579 
L 367.684859 146.142016 
L 367.684859 146.081938 
L 367.612553 145.628512 
L 367.178716 145.562802 
L 367.178716 145.58119 
L 367.10641 145.1257 
L 365.587981 145.1257 
L 365.587981 142.151875 
L 365.515675 142.169836 
L 365.371063 142.187804 
L 365.371063 142.125037 
L 365.371063 141.963453 
L 365.298757 141.981397 
L 365.226451 141.981397 
L 365.226451 141.918483 
L 365.154145 141.774571 
L 364.937226 141.810435 
L 364.937226 141.666311 
L 364.937226 141.504113 
L 364.86492 141.522012 
L 364.792614 141.522012 
L 364.792614 141.458743 
L 364.792614 141.377536 
L 364.720308 141.395423 
L 364.358777 141.304403 
L 364.358777 141.322301 
L 364.358777 141.240916 
L 364.286471 141.258809 
L 364.141859 141.276708 
L 364.141859 141.213159 
L 364.141859 141.131669 
L 364.069553 141.149557 
L 363.708022 141.139596 
L 363.708022 141.075873 
L 363.635716 140.68504 
L 363.491103 140.621026 
L 363.491103 140.638869 
L 363.491103 140.55696 
L 363.418797 140.574797 
L 362.334205 140.574797 
L 362.261899 138.962771 
L 361.972675 139.015756 
L 361.972675 138.867392 
L 361.972675 138.618073 
L 361.900368 138.635689 
L 361.394226 138.741539 
L 361.321919 138.776881 
L 360.960389 138.847652 
L 360.960389 138.698598 
L 360.960389 138.36465 
L 360.888083 138.382286 
L 360.309634 138.422264 
L 360.309634 138.272446 
L 360.309634 137.937028 
L 360.237327 137.954634 
L 360.020409 137.989869 
L 360.020409 137.9235 
L 360.020409 137.755399 
L 359.948103 137.772993 
L 358.068143 137.772993 
L 357.995837 135.786002 
L 357.562 135.701776 
L 357.562 135.719174 
L 357.489694 135.633481 
L 357.489694 135.650872 
L 357.272776 135.599903 
L 357.272776 135.617301 
L 357.272776 135.531477 
L 357.20047 135.548868 
L 356.983551 135.497769 
L 356.983551 135.515168 
L 356.911245 135.274558 
L 356.694327 135.223197 
L 356.694327 135.240567 
L 356.622021 134.999313 
L 356.188184 134.913339 
L 356.188184 134.930687 
L 356.115878 134.688551 
L 356.043572 134.688551 
L 356.043572 134.619284 
L 355.971265 134.029353 
L 355.754347 133.976862 
L 355.754347 133.994077 
L 355.754347 133.907098 
L 354.235918 133.907098 
L 354.235918 132.075375 
L 354.019 132.021036 
L 354.019 132.038017 
L 354.019 131.772813 
L 353.946694 131.789755 
L 353.223632 131.76526 
L 353.223632 131.693519 
L 353.151326 131.266209 
L 352.862102 131.227928 
L 352.862102 131.24484 
L 352.862102 131.066651 
L 352.789796 131.083539 
L 351.849816 131.00165 
L 351.849816 130.946025 
L 351.77751 130.962953 
L 349.752938 130.979889 
L 349.752938 128.72283 
L 349.680632 128.739487 
L 349.391407 128.698241 
L 349.391407 128.714911 
L 349.391407 128.623594 
L 349.319101 128.640255 
L 348.812958 128.6489 
L 348.812958 128.574065 
L 348.740652 128.407535 
L 347.800672 128.332219 
L 347.800672 128.348919 
L 347.800672 128.256908 
L 347.728366 128.273598 
L 346.643774 128.231009 
L 346.643774 128.247761 
L 346.643774 128.155315 
L 346.571468 128.172057 
L 346.282243 128.129774 
L 346.282243 128.146529 
L 346.282243 127.961259 
L 346.209937 127.977988 
L 346.137631 127.977988 
L 346.137631 127.901993 
L 346.137631 127.809219 
L 346.065325 127.825929 
L 343.245386 127.842646 
L 343.17308 126.149657 
L 343.100773 126.149657 
L 343.100773 126.071627 
L 343.100773 125.976972 
L 343.028467 125.993527 
L 342.739243 126.026658 
L 342.739243 125.965032 
L 342.739243 125.870201 
L 342.666937 125.886758 
L 342.016181 125.829367 
L 342.016181 125.845956 
L 342.016181 125.655629 
L 341.943875 125.672189 
L 341.799263 125.593492 
L 341.799263 125.61005 
L 341.799263 125.419352 
L 341.726957 125.435881 
L 341.582345 125.356966 
L 341.582345 125.373492 
L 341.510038 125.007636 
L 341.365426 125.024104 
L 341.365426 124.944836 
L 341.365426 124.849048 
L 341.29312 124.865495 
L 340.35314 124.775104 
L 340.35314 124.791595 
L 340.35314 124.695372 
L 340.280834 124.711852 
L 340.136222 124.728339 
L 340.136222 124.648511 
L 340.063916 124.182615 
L 337.750119 124.167983 
L 337.677813 122.970725 
L 337.388589 123.019681 
L 337.388589 122.937884 
L 337.388589 122.741485 
L 337.316283 122.757769 
L 337.17167 122.675753 
L 337.17167 122.692033 
L 337.099364 122.511489 
L 336.882446 122.54401 
L 336.882446 122.461738 
L 336.882446 122.067099 
L 336.81014 122.083281 
L 336.665527 122.000655 
L 336.665527 122.016833 
L 336.665527 121.621026 
L 336.593221 121.637133 
L 336.303997 121.586353 
L 336.303997 121.602471 
L 336.303997 121.503257 
L 336.231691 121.519363 
L 336.087078 121.436176 
L 336.087078 121.452277 
L 336.014772 121.170083 
L 333.050221 121.13475 
L 333.050221 119.71728 
L 332.977915 119.733227 
L 332.471772 119.829073 
L 332.399465 119.861083 
L 332.399465 119.75953 
L 332.327159 119.75953 
L 332.327159 119.673904 
L 332.254853 118.977006 
L 330.808731 119.074463 
L 330.808731 119.090413 
L 330.808731 118.987856 
L 330.736424 119.003793 
L 330.664118 119.003793 
L 330.664118 118.917088 
L 330.664118 118.81439 
L 330.591812 118.830299 
L 330.4472 118.830299 
L 330.4472 118.75933 
L 330.4472 118.450592 
L 330.374894 118.46644 
L 326.614975 118.545797 
L 326.614975 115.625033 
L 326.542669 115.640524 
L 326.108832 115.611978 
L 326.108832 115.627493 
L 326.108832 115.5213 
L 326.036526 115.5368 
L 325.458077 115.645517 
L 325.38577 115.676649 
L 325.02424 115.632442 
L 325.02424 115.648029 
L 324.951934 115.343469 
L 324.373485 115.452366 
L 324.301178 115.483549 
L 324.301178 115.269431 
L 323.433505 115.226153 
L 323.433505 115.241751 
L 323.361199 114.934543 
L 320.035116 114.950087 
L 320.035116 112.590228 
L 319.96281 112.605464 
L 319.528973 112.681759 
L 319.528973 112.586494 
L 319.528973 112.365226 
L 319.167443 112.315321 
L 319.167443 112.330544 
L 319.167443 111.997668 
L 319.095137 112.012825 
L 318.733606 111.962332 
L 318.733606 111.977504 
L 318.733606 111.754884 
L 318.6613 111.770013 
L 317.504402 111.662327 
L 317.504402 111.677507 
L 317.432096 111.468587 
L 316.853646 111.574771 
L 316.78134 111.605181 
L 316.492116 111.538408 
L 316.492116 111.553623 
L 316.492116 111.441091 
L 316.41981 111.456289 
L 313.744483 111.486709 
L 313.744483 110.314356 
L 313.672177 110.329468 
L 313.59987 110.329468 
L 313.59987 110.230055 
L 313.59987 110.115461 
L 313.527564 110.130537 
L 313.166034 110.07613 
L 313.166034 110.091219 
L 313.166034 109.976343 
L 313.093727 109.991413 
L 312.659891 109.951788 
L 312.659891 109.96688 
L 312.659891 109.736446 
L 312.587585 109.751492 
L 311.719911 109.801904 
L 311.719911 109.701299 
L 311.719911 109.585515 
L 311.647605 109.600585 
L 310.273788 109.640459 
L 310.273788 109.539112 
L 310.273788 109.305888 
L 310.201482 109.320985 
L 309.623033 109.426893 
L 309.623033 109.442056 
L 305.93542 109.442056 
L 305.93542 107.247195 
L 305.863114 107.262077 
L 305.429277 107.216408 
L 305.356971 106.885035 
L 305.212359 106.779307 
L 305.212359 106.794117 
L 305.212359 106.673462 
L 305.140053 106.68825 
L 304.923134 106.717852 
L 304.923134 106.611825 
L 304.850828 106.263602 
L 304.561604 106.186531 
L 304.561604 106.201237 
L 304.561604 106.07991 
L 304.489297 106.094595 
L 302.970869 106.02374 
L 302.970869 106.038508 
L 302.898562 105.441138 
L 298.994031 105.470412 
L 298.994031 103.994885 
L 298.921725 104.009404 
L 298.27097 103.99998 
L 298.27097 104.014543 
L 298.27097 103.762493 
L 298.198664 103.777 
L 297.620215 103.878785 
L 297.547908 103.907942 
L 297.041766 103.868964 
L 297.041766 103.883573 
L 297.041766 103.756815 
L 296.969459 103.7714 
L 296.39101 103.873737 
L 296.318704 103.903052 
L 296.318704 103.775893 
L 295.740255 103.878538 
L 295.667949 103.907942 
L 295.0895 103.868633 
L 295.0895 103.77024 
L 295.017194 103.784957 
L 291.401887 103.799684 
L 291.401887 100.608366 
L 291.329581 100.622492 
L 291.257275 100.622492 
L 291.257275 100.636627 
L 291.184969 100.386467 
L 290.60652 100.48521 
L 290.534213 100.513499 
L 290.461907 100.513499 
L 290.461907 100.527656 
L 290.461907 100.395029 
L 290.389601 100.409159 
L 289.811152 100.508309 
L 289.738846 100.536714 
L 289.738846 100.270501 
L 289.305009 100.207897 
L 289.305009 100.222048 
L 289.305009 100.088523 
L 289.232703 100.102646 
L 287.931193 100.20979 
L 287.931193 100.224031 
L 287.858886 100.103864 
L 283.3036 100.160806 
L 283.231294 98.83138 
L 282.797457 98.763906 
L 282.797457 98.778092 
L 282.797457 98.639502 
L 282.725151 98.653658 
L 282.652845 98.653658 
L 282.652845 98.667822 
L 282.580539 98.26535 
L 282.508232 98.26535 
L 282.508232 98.279415 
L 282.508232 98.140319 
L 282.435926 98.154353 
L 281.785171 98.127405 
L 281.785171 98.14148 
L 281.785171 97.722214 
L 281.712865 97.736178 
L 281.134416 97.693922 
L 281.134416 97.707917 
L 281.134416 97.567537 
L 281.06211 97.5815 
L 280.483661 97.679495 
L 280.411355 97.707573 
L 279.832905 97.806131 
L 279.760599 97.834371 
L 274.409945 97.806131 
L 274.409945 96.147201 
L 274.337639 96.161212 
L 273.75919 96.259547 
L 273.686884 96.287726 
L 273.686884 96.141176 
L 273.542272 96.155236 
L 273.542272 96.169305 
L 273.469966 95.595688 
L 272.891517 95.693265 
L 272.81921 95.721227 
L 272.746904 95.721227 
L 272.746904 95.735222 
L 272.746904 95.587613 
L 272.674598 95.601573 
L 272.096149 95.699553 
L 272.023843 95.727631 
L 271.445394 95.826201 
L 271.445394 95.84032 
L 271.445394 95.691808 
L 271.373088 95.705892 
L 270.794639 95.804741 
L 270.722332 95.833068 
L 266.022434 95.875631 
L 266.022434 93.096368 
L 265.950128 93.110036 
L 265.299372 93.219722 
L 265.227066 93.247239 
L 264.21478 93.271259 
L 264.21478 93.285108 
L 264.21478 93.129175 
L 264.142474 93.142984 
L 263.997862 93.156802 
L 263.997862 93.17063 
L 263.997862 93.014439 
L 263.925556 93.028227 
L 263.780944 93.042024 
L 263.780944 93.055831 
L 263.780944 92.899382 
L 263.708637 92.913149 
L 263.636331 92.913149 
L 263.636331 92.770266 
L 263.564025 92.784002 
L 262.840964 92.750789 
L 262.840964 92.607138 
L 262.768658 92.62088 
L 262.551739 92.648392 
L 262.551739 92.662162 
L 262.551739 92.346559 
L 262.479433 92.360237 
L 262.262515 92.387623 
L 262.262515 92.401331 
L 262.262515 92.084874 
L 262.117902 92.084874 
L 262.117902 92.112114 
L 262.117902 91.953615 
L 257.345698 91.953615 
L 257.345698 89.771634 
L 257.273391 89.784842 
L 256.622636 89.890856 
L 256.55033 89.917456 
L 255.899575 90.024249 
L 255.827269 90.051045 
L 255.754963 90.051045 
L 255.754963 90.064458 
L 255.754963 89.898911 
L 255.682656 89.912277 
L 255.393432 89.952437 
L 255.393432 89.965843 
L 255.393432 89.633821 
L 255.321126 89.647125 
L 254.670371 89.753907 
L 254.598064 89.780702 
L 254.525758 89.780702 
L 254.525758 89.794114 
L 254.525758 89.627239 
L 254.453452 89.640605 
L 253.513472 89.634022 
L 253.513472 89.647459 
L 253.513472 89.479535 
L 253.441166 89.492925 
L 253.296554 89.506325 
L 253.296554 89.519735 
L 253.296554 89.351512 
L 248.162818 89.351512 
L 248.162818 87.024261 
L 248.090512 87.037188 
L 247.367451 86.978256 
L 247.367451 86.991221 
L 247.367451 86.815291 
L 247.295145 86.828202 
L 246.64439 86.931857 
L 246.572083 86.957872 
L 246.282859 86.99697 
L 246.282859 87.010023 
L 246.282859 86.833001 
L 246.210553 86.846 
L 245.993634 86.872029 
L 245.993634 86.707641 
L 245.921328 86.720616 
L 244.981348 86.685688 
L 244.981348 86.711765 
L 244.981348 86.533161 
L 244.909042 86.546149 
L 238.618409 86.637357 
L 238.618409 83.242362 
L 238.546102 83.254594 
L 237.823041 83.365136 
L 237.750735 83.389812 
L 237.09998 83.488929 
L 237.027674 83.513811 
L 236.955367 83.513811 
L 236.955367 83.526268 
L 236.955367 83.33623 
L 236.883061 83.348623 
L 236.232306 83.448141 
L 236.16 83.473124 
L 234.930796 83.48229 
L 234.930796 83.49489 
L 234.930796 83.302437 
L 227.989407 83.19726 
L 227.989407 81.939805 
L 227.917101 81.952342 
L 227.844794 81.952342 
L 227.844794 81.96489 
L 227.844794 81.762227 
L 227.772488 81.774702 
L 227.410958 81.824714 
L 227.410958 81.837244 
L 227.410958 81.633895 
L 227.338652 81.646352 
L 226.977121 81.696291 
L 226.977121 81.708804 
L 226.977121 81.504763 
L 226.904815 81.517202 
L 226.687896 81.542112 
L 226.687896 81.554584 
L 226.61559 81.157584 
L 224.735631 81.261789 
L 224.663325 81.286829 
L 217.505017 81.36222 
L 217.505017 79.97191 
L 217.432711 79.984484 
L 216.781956 80.085503 
L 216.781956 80.098185 
L 216.70965 79.890641 
L 216.275813 79.94114 
L 216.275813 79.745414 
L 216.203507 79.757994 
L 215.552752 79.859065 
L 215.480445 79.884454 
L 215.046609 79.935381 
L 215.046609 79.514747 
L 214.395853 79.615756 
L 214.323547 79.641131 
L 213.672792 79.743129 
L 213.600486 79.768753 
L 212.949731 79.871753 
L 212.877425 79.89763 
L 204.706831 79.89763 
L 204.634525 80.263424 
L 204.056076 80.361414 
L 203.98377 80.389544 
L 203.333015 80.474288 
L 203.260709 80.531082 
L 203.260709 80.288391 
L 202.899178 80.330782 
L 202.826872 79.8857 
L 202.248423 79.983744 
L 202.176117 80.011891 
L 201.669974 80.096692 
L 201.669974 79.618291 
L 201.597668 79.632244 
L 201.019218 79.730335 
L 200.946912 79.758497 
L 200.874606 79.758497 
L 200.874606 79.772601 
L 200.874606 79.524532 
L 200.8023 79.538525 
L 193.933217 79.538525 
L 193.933217 79.369373 
L 193.860911 79.384091 
L 193.49938 79.443133 
L 193.49938 79.457936 
L 193.49938 79.19421 
L 193.065544 79.267764 
L 193.065544 79.282525 
L 193.065544 79.017637 
L 192.993237 79.032272 
L 192.414788 79.135187 
L 192.414788 79.149958 
L 192.414788 78.883462 
L 192.342482 78.898104 
L 192.19787 78.912762 
L 192.19787 78.927438 
L 192.19787 78.660196 
L 192.125564 78.674742 
L 191.547115 78.77704 
L 191.474809 78.806421 
L 190.89636 78.909796 
L 190.824053 78.939488 
L 190.751747 78.939488 
L 190.751747 78.95436 
L 190.751747 78.683842 
L 190.173298 78.787382 
L 190.100992 78.817122 
L 183.014991 78.861863 
L 183.014991 75.421245 
L 182.436542 75.518432 
L 182.364236 75.546359 
L 182.29193 75.546359 
L 182.29193 75.264408 
L 182.219623 75.278236 
L 181.641174 75.375529 
L 181.568868 75.403488 
L 181.424256 75.403488 
L 181.424256 75.431518 
L 181.424256 75.133023 
L 181.35195 75.146882 
L 180.773501 75.244398 
L 180.701195 75.272422 
L 180.556582 75.286461 
L 180.556582 75.300519 
L 180.556582 74.999426 
L 180.484276 75.013315 
L 179.905827 75.111048 
L 179.833521 75.139135 
L 179.255072 75.238021 
L 179.182766 75.26644 
L 178.821235 75.323504 
L 178.821235 75.337817 
L 178.821235 75.031793 
L 178.748929 75.045933 
L 178.604317 75.060091 
L 178.604317 74.767263 
L 178.532011 74.781265 
L 178.387398 74.795285 
L 178.387398 74.809325 
L 178.387398 74.19293 
L 169.059907 74.19293 
L 169.059907 73.075339 
L 168.987601 73.089567 
L 168.409152 73.189751 
L 168.336846 73.218565 
L 167.758396 73.32008 
L 167.68609 73.349278 
L 167.107641 73.452152 
L 167.035335 73.481742 
L 166.456886 73.586002 
L 166.38458 73.615992 
L 165.806131 73.721666 
L 165.733825 73.752064 
L 165.155376 73.859182 
L 165.083069 73.889996 
L 156.695558 73.967443 
L 156.695558 72.739093 
L 156.623252 72.755176 
L 156.117109 72.852244 
L 156.044803 72.884819 
L 155.53866 72.983207 
L 155.466354 73.016226 
L 155.321741 73.032777 
L 155.321741 72.651115 
L 155.249435 72.667398 
L 154.743292 72.765679 
L 154.670986 72.798665 
L 154.309455 72.864978 
L 154.309455 72.881627 
L 154.309455 72.478082 
L 154.237149 72.494426 
L 154.164843 72.494426 
L 154.164843 72.510798 
L 154.092537 72.105883 
L 154.092537 72.121947 
L 153.514088 72.218919 
L 153.441782 72.267786 
L 145.488107 72.31691 
L 145.415801 70.642366 
L 145.343495 70.642366 
L 145.343495 70.659024 
L 145.343495 70.2005 
L 145.271188 70.216759 
L 144.765046 70.314982 
L 144.692739 70.347981 
L 144.475821 70.397724 
L 144.475821 70.397724 
L 144.475821 69.933045 
L 144.403515 69.949248 
L 143.897372 70.047144 
L 143.825066 70.080037 
L 143.318923 70.179507 
L 143.246617 70.21293 
L 135.582166 70.297081 
L 135.582166 69.016236 
L 135.50986 69.033771 
L 135.365248 69.051346 
L 135.365248 69.06896 
L 135.365248 68.532379 
L 135.292942 68.549442 
L 135.220636 68.549442 
L 135.220636 68.027549 
L 135.14833 68.044093 
L 134.642187 68.144158 
L 134.569881 68.177821 
L 134.280656 68.228609 
L 134.280656 68.245616 
L 134.280656 67.697484 
L 134.20835 67.713914 
L 133.702207 67.8133 
L 133.629901 67.846739 
L 133.123758 67.897194 
L 133.051452 67.982083 
L 125.60392 67.982083 
L 125.531614 66.164416 
L 125.025471 66.268233 
L 124.953165 66.303219 
L 124.447022 66.409346 
L 124.374716 66.445116 
L 124.157797 66.481086 
L 124.157797 66.499146 
L 124.157797 65.835717 
L 124.085491 65.852923 
L 123.940879 65.870177 
L 123.940879 65.887479 
L 123.868573 65.219451 
L 123.868573 65.235885 
L 123.651654 65.268892 
L 123.651654 64.611845 
L 123.579348 64.627533 
L 123.000899 64.738604 
L 123.000899 64.754654 
L 114.974918 64.754654 
L 114.902612 66.088226 
L 114.613387 66.152985 
L 114.613387 66.174721 
L 114.541081 64.55073 
L 114.107244 64.646901 
L 114.034938 64.685843 
L 113.81802 64.705417 
L 113.81802 63.90328 
L 113.311877 64.014213 
L 113.239571 64.051722 
L 112.805734 64.146683 
L 112.733428 64.185151 
L 106.15357 64.2239 
L 106.081263 66.317854 
L 105.792039 66.401919 
L 105.719733 66.458581 
L 105.430508 66.544518 
L 105.358202 66.602449 
L 105.068978 66.690322 
L 104.996671 66.749565 
L 104.707447 66.839439 
L 104.635141 66.900039 
L 98.995262 66.930547 
L 98.922956 68.519994 
L 98.778344 68.519994 
L 98.778344 67.27559 
L 98.706038 67.314312 
L 98.489119 67.392416 
L 98.416813 67.471412 
L 98.199895 67.551317 
L 98.127589 67.632146 
L 97.91067 67.713914 
L 97.91067 67.755156 
L 97.766058 67.755156 
L 97.766058 66.449103 
L 97.693752 66.4871 
L 97.404527 66.563771 
L 97.404527 66.641358 
L 97.259915 66.641358 
L 97.187609 63.89023 
L 96.898384 63.98493 
L 96.826078 64.049034 
L 96.681466 64.081383 
L 96.681466 64.113932 
L 96.681466 62.635443 
L 96.60916 62.66369 
L 96.319935 62.749499 
L 96.247629 62.80761 
L 93.138465 62.866461 
L 93.138465 60.750575 
L 93.066159 60.777177 
L 92.632322 60.885586 
L 92.632322 60.941022 
L 92.343098 61.025769 
L 92.270792 61.083358 
L 91.981567 61.171429 
L 91.981567 61.201246 
L 91.692343 61.292118 
L 91.692343 61.322891 
L 91.403118 61.416701 
L 91.330812 61.480511 
L 91.041587 61.578196 
L 90.969281 61.644671 
L 87.715505 61.712258 
L 87.643199 63.549937 
L 87.426281 63.60139 
L 87.353974 63.758983 
L 86.847832 63.866824 
L 86.847832 64.146683 
L 86.703219 64.146683 
L 86.630913 64.322021 
L 86.486301 64.381765 
L 86.413995 64.503268 
L 86.413995 59.097766 
L 86.12477 59.193658 
L 86.052464 59.259455 
L 85.76324 59.361089 
L 85.690933 59.430885 
L 85.690933 56.517209 
L 85.257097 56.609371 
L 85.18479 56.64787 
L 82.509463 56.64787 
L 82.437157 57.623162 
L 82.147933 57.691894 
L 82.147933 57.762995 
L 81.931014 57.836592 
L 81.858708 57.912816 
L 81.569484 57.991813 
L 81.497178 58.115845 
L 79.472606 58.158749 
L 79.4003 59.806711 
L 79.183381 59.887733 
L 79.111075 60.143938 
L 78.966463 60.23402 
L 78.894157 60.421795 
L 78.171095 60.421795 
L 78.171095 61.545368 
L 78.171095 53.568 
L 78.098789 53.568 
L 73.832727 53.568 
L 73.832727 53.568 
" clip-path="url(#pa9f3d82f98)" style="fill: none; stroke: #1f77b4; stroke-width: 1.5; stroke-linecap: square"/>
            </g>
            <g id="patch_3">
                <path d="M 57.6 307.584
L 57.6 41.472 
" style="fill: none; stroke: #000000; stroke-width: 0.8; stroke-linejoin: miter; stroke-linecap: square"/>
            </g>
            <g id="patch_4">
                <path d="M 414.72 307.584
L 414.72 41.472 
" style="fill: none; stroke: #000000; stroke-width: 0.8; stroke-linejoin: miter; stroke-linecap: square"/>
            </g>
            <g id="patch_5">
                <path d="M 57.6 307.584
L 414.72 307.584 
" style="fill: none; stroke: #000000; stroke-width: 0.8; stroke-linejoin: miter; stroke-linecap: square"/>
            </g>
            <g id="patch_6">
                <path d="M 57.6 41.472
L 414.72 41.472 
" style="fill: none; stroke: #000000; stroke-width: 0.8; stroke-linejoin: miter; stroke-linecap: square"/>
            </g>
        </g>
    </g>
    <defs>
        <clipPath id="pa9f3d82f98">
            <rect x="57.6" y="41.472" width="357.12" height="266.112"/>
        </clipPath>
    </defs>
</svg>
