<?xml version="1.0" encoding="utf-8" standalone="no"?>
<!DOCTYPE svg PUBLIC "-//W3C//DTD SVG 1.1//EN"
        "http://www.w3.org/Graphics/SVG/1.1/DTD/svg11.dtd">
<svg xmlns:xlink="http://www.w3.org/1999/xlink" width="460.8pt" height="345.6pt" viewBox="0 0 460.8 345.6"
     xmlns="http://www.w3.org/2000/svg" version="1.1">
    <metadata>
        <rdf:RDF xmlns:dc="http://purl.org/dc/elements/1.1/" xmlns:cc="http://creativecommons.org/ns#"
                 xmlns:rdf="http://www.w3.org/1999/02/22-rdf-syntax-ns#">
            <cc:Work>
                <dc:type rdf:resource="http://purl.org/dc/dcmitype/StillImage"/>
                <dc:date>2022-11-18T22:31:55.995685</dc:date>
                <dc:format>image/svg+xml</dc:format>
                <dc:creator>
                    <cc:Agent>
                        <dc:title>Matplotlib v3.6.2, https://matplotlib.org/</dc:title>
                    </cc:Agent>
                </dc:creator>
            </cc:Work>
        </rdf:RDF>
    </metadata>
    <defs>
        <style type="text/css">*{stroke-linejoin: round; stroke-linecap: butt}</style>
    </defs>
    <g id="figure_1">
        <g id="patch_1">
            <path d="M 0 345.6
L 460.8 345.6 
L 460.8 0 
L 0 0 
z
" style="fill: #ffffff"/>
        </g>
        <g id="axes_1">
            <g id="patch_2">
                <path d="M 57.6 307.584
L 414.72 307.584 
L 414.72 41.472 
L 57.6 41.472 
z
" style="fill: #ffffff"/>
            </g>
            <g id="matplotlib.axis_1">
                <g id="xtick_1">
                    <g id="line2d_1">
                        <defs>
                            <path id="mce22f62c6b" d="M 0 0
L 0 3.5 
" style="stroke: #000000; stroke-width: 0.8"/>
                        </defs>
                        <g>
                            <use xlink:href="#mce22f62c6b" x="73.832727" y="307.584"
                                 style="stroke: #000000; stroke-width: 0.8"/>
                        </g>
                    </g>
                    <g id="text_1">
                        <!-- 0.0 -->
                        <g transform="translate(65.881165 322.182437) scale(0.1 -0.1)">
                            <defs>
                                <path id="DejaVuSans-30" d="M 2034 4250
Q 1547 4250 1301 3770 
Q 1056 3291 1056 2328 
Q 1056 1369 1301 889 
Q 1547 409 2034 409 
Q 2525 409 2770 889 
Q 3016 1369 3016 2328 
Q 3016 3291 2770 3770 
Q 2525 4250 2034 4250 
z
M 2034 4750 
Q 2819 4750 3233 4129 
Q 3647 3509 3647 2328 
Q 3647 1150 3233 529 
Q 2819 -91 2034 -91 
Q 1250 -91 836 529 
Q 422 1150 422 2328 
Q 422 3509 836 4129 
Q 1250 4750 2034 4750 
z
" transform="scale(0.015625)"/>
                                <path id="DejaVuSans-2e" d="M 684 794
L 1344 794 
L 1344 0 
L 684 0 
L 684 794 
z
" transform="scale(0.015625)"/>
                            </defs>
                            <use xlink:href="#DejaVuSans-30"/>
                            <use xlink:href="#DejaVuSans-2e" x="63.623047"/>
                            <use xlink:href="#DejaVuSans-30" x="95.410156"/>
                        </g>
                    </g>
                </g>
                <g id="xtick_2">
                    <g id="line2d_2">
                        <g>
                            <use xlink:href="#mce22f62c6b" x="138.763636" y="307.584"
                                 style="stroke: #000000; stroke-width: 0.8"/>
                        </g>
                    </g>
                    <g id="text_2">
                        <!-- 0.2 -->
                        <g transform="translate(130.812074 322.182437) scale(0.1 -0.1)">
                            <defs>
                                <path id="DejaVuSans-32" d="M 1228 531
L 3431 531 
L 3431 0 
L 469 0 
L 469 531 
Q 828 903 1448 1529 
Q 2069 2156 2228 2338 
Q 2531 2678 2651 2914 
Q 2772 3150 2772 3378 
Q 2772 3750 2511 3984 
Q 2250 4219 1831 4219 
Q 1534 4219 1204 4116 
Q 875 4013 500 3803 
L 500 4441 
Q 881 4594 1212 4672 
Q 1544 4750 1819 4750 
Q 2544 4750 2975 4387 
Q 3406 4025 3406 3419 
Q 3406 3131 3298 2873 
Q 3191 2616 2906 2266 
Q 2828 2175 2409 1742 
Q 1991 1309 1228 531 
z
" transform="scale(0.015625)"/>
                            </defs>
                            <use xlink:href="#DejaVuSans-30"/>
                            <use xlink:href="#DejaVuSans-2e" x="63.623047"/>
                            <use xlink:href="#DejaVuSans-32" x="95.410156"/>
                        </g>
                    </g>
                </g>
                <g id="xtick_3">
                    <g id="line2d_3">
                        <g>
                            <use xlink:href="#mce22f62c6b" x="203.694545" y="307.584"
                                 style="stroke: #000000; stroke-width: 0.8"/>
                        </g>
                    </g>
                    <g id="text_3">
                        <!-- 0.4 -->
                        <g transform="translate(195.742983 322.182437) scale(0.1 -0.1)">
                            <defs>
                                <path id="DejaVuSans-34" d="M 2419 4116
L 825 1625 
L 2419 1625 
L 2419 4116 
z
M 2253 4666 
L 3047 4666 
L 3047 1625 
L 3713 1625 
L 3713 1100 
L 3047 1100 
L 3047 0 
L 2419 0 
L 2419 1100 
L 313 1100 
L 313 1709 
L 2253 4666 
z
" transform="scale(0.015625)"/>
                            </defs>
                            <use xlink:href="#DejaVuSans-30"/>
                            <use xlink:href="#DejaVuSans-2e" x="63.623047"/>
                            <use xlink:href="#DejaVuSans-34" x="95.410156"/>
                        </g>
                    </g>
                </g>
                <g id="xtick_4">
                    <g id="line2d_4">
                        <g>
                            <use xlink:href="#mce22f62c6b" x="268.625455" y="307.584"
                                 style="stroke: #000000; stroke-width: 0.8"/>
                        </g>
                    </g>
                    <g id="text_4">
                        <!-- 0.6 -->
                        <g transform="translate(260.673892 322.182437) scale(0.1 -0.1)">
                            <defs>
                                <path id="DejaVuSans-36" d="M 2113 2584
Q 1688 2584 1439 2293 
Q 1191 2003 1191 1497 
Q 1191 994 1439 701 
Q 1688 409 2113 409 
Q 2538 409 2786 701 
Q 3034 994 3034 1497 
Q 3034 2003 2786 2293 
Q 2538 2584 2113 2584 
z
M 3366 4563 
L 3366 3988 
Q 3128 4100 2886 4159 
Q 2644 4219 2406 4219 
Q 1781 4219 1451 3797 
Q 1122 3375 1075 2522 
Q 1259 2794 1537 2939 
Q 1816 3084 2150 3084 
Q 2853 3084 3261 2657 
Q 3669 2231 3669 1497 
Q 3669 778 3244 343 
Q 2819 -91 2113 -91 
Q 1303 -91 875 529 
Q 447 1150 447 2328 
Q 447 3434 972 4092 
Q 1497 4750 2381 4750 
Q 2619 4750 2861 4703 
Q 3103 4656 3366 4563 
z
" transform="scale(0.015625)"/>
                            </defs>
                            <use xlink:href="#DejaVuSans-30"/>
                            <use xlink:href="#DejaVuSans-2e" x="63.623047"/>
                            <use xlink:href="#DejaVuSans-36" x="95.410156"/>
                        </g>
                    </g>
                </g>
                <g id="xtick_5">
                    <g id="line2d_5">
                        <g>
                            <use xlink:href="#mce22f62c6b" x="333.556364" y="307.584"
                                 style="stroke: #000000; stroke-width: 0.8"/>
                        </g>
                    </g>
                    <g id="text_5">
                        <!-- 0.8 -->
                        <g transform="translate(325.604801 322.182437) scale(0.1 -0.1)">
                            <defs>
                                <path id="DejaVuSans-38" d="M 2034 2216
Q 1584 2216 1326 1975 
Q 1069 1734 1069 1313 
Q 1069 891 1326 650 
Q 1584 409 2034 409 
Q 2484 409 2743 651 
Q 3003 894 3003 1313 
Q 3003 1734 2745 1975 
Q 2488 2216 2034 2216 
z
M 1403 2484 
Q 997 2584 770 2862 
Q 544 3141 544 3541 
Q 544 4100 942 4425 
Q 1341 4750 2034 4750 
Q 2731 4750 3128 4425 
Q 3525 4100 3525 3541 
Q 3525 3141 3298 2862 
Q 3072 2584 2669 2484 
Q 3125 2378 3379 2068 
Q 3634 1759 3634 1313 
Q 3634 634 3220 271 
Q 2806 -91 2034 -91 
Q 1263 -91 848 271 
Q 434 634 434 1313 
Q 434 1759 690 2068 
Q 947 2378 1403 2484 
z
M 1172 3481 
Q 1172 3119 1398 2916 
Q 1625 2713 2034 2713 
Q 2441 2713 2670 2916 
Q 2900 3119 2900 3481 
Q 2900 3844 2670 4047 
Q 2441 4250 2034 4250 
Q 1625 4250 1398 4047 
Q 1172 3844 1172 3481 
z
" transform="scale(0.015625)"/>
                            </defs>
                            <use xlink:href="#DejaVuSans-30"/>
                            <use xlink:href="#DejaVuSans-2e" x="63.623047"/>
                            <use xlink:href="#DejaVuSans-38" x="95.410156"/>
                        </g>
                    </g>
                </g>
                <g id="xtick_6">
                    <g id="line2d_6">
                        <g>
                            <use xlink:href="#mce22f62c6b" x="398.487273" y="307.584"
                                 style="stroke: #000000; stroke-width: 0.8"/>
                        </g>
                    </g>
                    <g id="text_6">
                        <!-- 1.0 -->
                        <g transform="translate(390.53571 322.182437) scale(0.1 -0.1)">
                            <defs>
                                <path id="DejaVuSans-31" d="M 794 531
L 1825 531 
L 1825 4091 
L 703 3866 
L 703 4441 
L 1819 4666 
L 2450 4666 
L 2450 531 
L 3481 531 
L 3481 0 
L 794 0 
L 794 531 
z
" transform="scale(0.015625)"/>
                            </defs>
                            <use xlink:href="#DejaVuSans-31"/>
                            <use xlink:href="#DejaVuSans-2e" x="63.623047"/>
                            <use xlink:href="#DejaVuSans-30" x="95.410156"/>
                        </g>
                    </g>
                </g>
                <g id="text_7">
                    <!-- Recall (Positive label: 1) -->
                    <g transform="translate(176.343594 335.860562) scale(0.1 -0.1)">
                        <defs>
                            <path id="DejaVuSans-52" d="M 2841 2188
Q 3044 2119 3236 1894 
Q 3428 1669 3622 1275 
L 4263 0 
L 3584 0 
L 2988 1197 
Q 2756 1666 2539 1819 
Q 2322 1972 1947 1972 
L 1259 1972 
L 1259 0 
L 628 0 
L 628 4666 
L 2053 4666 
Q 2853 4666 3247 4331 
Q 3641 3997 3641 3322 
Q 3641 2881 3436 2590 
Q 3231 2300 2841 2188 
z
M 1259 4147 
L 1259 2491 
L 2053 2491 
Q 2509 2491 2742 2702 
Q 2975 2913 2975 3322 
Q 2975 3731 2742 3939 
Q 2509 4147 2053 4147 
L 1259 4147 
z
" transform="scale(0.015625)"/>
                            <path id="DejaVuSans-65" d="M 3597 1894
L 3597 1613 
L 953 1613 
Q 991 1019 1311 708 
Q 1631 397 2203 397 
Q 2534 397 2845 478 
Q 3156 559 3463 722 
L 3463 178 
Q 3153 47 2828 -22 
Q 2503 -91 2169 -91 
Q 1331 -91 842 396 
Q 353 884 353 1716 
Q 353 2575 817 3079 
Q 1281 3584 2069 3584 
Q 2775 3584 3186 3129 
Q 3597 2675 3597 1894 
z
M 3022 2063 
Q 3016 2534 2758 2815 
Q 2500 3097 2075 3097 
Q 1594 3097 1305 2825 
Q 1016 2553 972 2059 
L 3022 2063 
z
" transform="scale(0.015625)"/>
                            <path id="DejaVuSans-63" d="M 3122 3366
L 3122 2828 
Q 2878 2963 2633 3030 
Q 2388 3097 2138 3097 
Q 1578 3097 1268 2742 
Q 959 2388 959 1747 
Q 959 1106 1268 751 
Q 1578 397 2138 397 
Q 2388 397 2633 464 
Q 2878 531 3122 666 
L 3122 134 
Q 2881 22 2623 -34 
Q 2366 -91 2075 -91 
Q 1284 -91 818 406 
Q 353 903 353 1747 
Q 353 2603 823 3093 
Q 1294 3584 2113 3584 
Q 2378 3584 2631 3529 
Q 2884 3475 3122 3366 
z
" transform="scale(0.015625)"/>
                            <path id="DejaVuSans-61" d="M 2194 1759
Q 1497 1759 1228 1600 
Q 959 1441 959 1056 
Q 959 750 1161 570 
Q 1363 391 1709 391 
Q 2188 391 2477 730 
Q 2766 1069 2766 1631 
L 2766 1759 
L 2194 1759 
z
M 3341 1997 
L 3341 0 
L 2766 0 
L 2766 531 
Q 2569 213 2275 61 
Q 1981 -91 1556 -91 
Q 1019 -91 701 211 
Q 384 513 384 1019 
Q 384 1609 779 1909 
Q 1175 2209 1959 2209 
L 2766 2209 
L 2766 2266 
Q 2766 2663 2505 2880 
Q 2244 3097 1772 3097 
Q 1472 3097 1187 3025 
Q 903 2953 641 2809 
L 641 3341 
Q 956 3463 1253 3523 
Q 1550 3584 1831 3584 
Q 2591 3584 2966 3190 
Q 3341 2797 3341 1997 
z
" transform="scale(0.015625)"/>
                            <path id="DejaVuSans-6c" d="M 603 4863
L 1178 4863 
L 1178 0 
L 603 0 
L 603 4863 
z
" transform="scale(0.015625)"/>
                            <path id="DejaVuSans-20" transform="scale(0.015625)"/>
                            <path id="DejaVuSans-28" d="M 1984 4856
Q 1566 4138 1362 3434 
Q 1159 2731 1159 2009 
Q 1159 1288 1364 580 
Q 1569 -128 1984 -844 
L 1484 -844 
Q 1016 -109 783 600 
Q 550 1309 550 2009 
Q 550 2706 781 3412 
Q 1013 4119 1484 4856 
L 1984 4856 
z
" transform="scale(0.015625)"/>
                            <path id="DejaVuSans-50" d="M 1259 4147
L 1259 2394 
L 2053 2394 
Q 2494 2394 2734 2622 
Q 2975 2850 2975 3272 
Q 2975 3691 2734 3919 
Q 2494 4147 2053 4147 
L 1259 4147 
z
M 628 4666 
L 2053 4666 
Q 2838 4666 3239 4311 
Q 3641 3956 3641 3272 
Q 3641 2581 3239 2228 
Q 2838 1875 2053 1875 
L 1259 1875 
L 1259 0 
L 628 0 
L 628 4666 
z
" transform="scale(0.015625)"/>
                            <path id="DejaVuSans-6f" d="M 1959 3097
Q 1497 3097 1228 2736 
Q 959 2375 959 1747 
Q 959 1119 1226 758 
Q 1494 397 1959 397 
Q 2419 397 2687 759 
Q 2956 1122 2956 1747 
Q 2956 2369 2687 2733 
Q 2419 3097 1959 3097 
z
M 1959 3584 
Q 2709 3584 3137 3096 
Q 3566 2609 3566 1747 
Q 3566 888 3137 398 
Q 2709 -91 1959 -91 
Q 1206 -91 779 398 
Q 353 888 353 1747 
Q 353 2609 779 3096 
Q 1206 3584 1959 3584 
z
" transform="scale(0.015625)"/>
                            <path id="DejaVuSans-73" d="M 2834 3397
L 2834 2853 
Q 2591 2978 2328 3040 
Q 2066 3103 1784 3103 
Q 1356 3103 1142 2972 
Q 928 2841 928 2578 
Q 928 2378 1081 2264 
Q 1234 2150 1697 2047 
L 1894 2003 
Q 2506 1872 2764 1633 
Q 3022 1394 3022 966 
Q 3022 478 2636 193 
Q 2250 -91 1575 -91 
Q 1294 -91 989 -36 
Q 684 19 347 128 
L 347 722 
Q 666 556 975 473 
Q 1284 391 1588 391 
Q 1994 391 2212 530 
Q 2431 669 2431 922 
Q 2431 1156 2273 1281 
Q 2116 1406 1581 1522 
L 1381 1569 
Q 847 1681 609 1914 
Q 372 2147 372 2553 
Q 372 3047 722 3315 
Q 1072 3584 1716 3584 
Q 2034 3584 2315 3537 
Q 2597 3491 2834 3397 
z
" transform="scale(0.015625)"/>
                            <path id="DejaVuSans-69" d="M 603 3500
L 1178 3500 
L 1178 0 
L 603 0 
L 603 3500 
z
M 603 4863 
L 1178 4863 
L 1178 4134 
L 603 4134 
L 603 4863 
z
" transform="scale(0.015625)"/>
                            <path id="DejaVuSans-74" d="M 1172 4494
L 1172 3500 
L 2356 3500 
L 2356 3053 
L 1172 3053 
L 1172 1153 
Q 1172 725 1289 603 
Q 1406 481 1766 481 
L 2356 481 
L 2356 0 
L 1766 0 
Q 1100 0 847 248 
Q 594 497 594 1153 
L 594 3053 
L 172 3053 
L 172 3500 
L 594 3500 
L 594 4494 
L 1172 4494 
z
" transform="scale(0.015625)"/>
                            <path id="DejaVuSans-76" d="M 191 3500
L 800 3500 
L 1894 563 
L 2988 3500 
L 3597 3500 
L 2284 0 
L 1503 0 
L 191 3500 
z
" transform="scale(0.015625)"/>
                            <path id="DejaVuSans-62" d="M 3116 1747
Q 3116 2381 2855 2742 
Q 2594 3103 2138 3103 
Q 1681 3103 1420 2742 
Q 1159 2381 1159 1747 
Q 1159 1113 1420 752 
Q 1681 391 2138 391 
Q 2594 391 2855 752 
Q 3116 1113 3116 1747 
z
M 1159 2969 
Q 1341 3281 1617 3432 
Q 1894 3584 2278 3584 
Q 2916 3584 3314 3078 
Q 3713 2572 3713 1747 
Q 3713 922 3314 415 
Q 2916 -91 2278 -91 
Q 1894 -91 1617 61 
Q 1341 213 1159 525 
L 1159 0 
L 581 0 
L 581 4863 
L 1159 4863 
L 1159 2969 
z
" transform="scale(0.015625)"/>
                            <path id="DejaVuSans-3a" d="M 750 794
L 1409 794 
L 1409 0 
L 750 0 
L 750 794 
z
M 750 3309 
L 1409 3309 
L 1409 2516 
L 750 2516 
L 750 3309 
z
" transform="scale(0.015625)"/>
                            <path id="DejaVuSans-29" d="M 513 4856
L 1013 4856 
Q 1481 4119 1714 3412 
Q 1947 2706 1947 2009 
Q 1947 1309 1714 600 
Q 1481 -109 1013 -844 
L 513 -844 
Q 928 -128 1133 580 
Q 1338 1288 1338 2009 
Q 1338 2731 1133 3434 
Q 928 4138 513 4856 
z
" transform="scale(0.015625)"/>
                        </defs>
                        <use xlink:href="#DejaVuSans-52"/>
                        <use xlink:href="#DejaVuSans-65" x="64.982422"/>
                        <use xlink:href="#DejaVuSans-63" x="126.505859"/>
                        <use xlink:href="#DejaVuSans-61" x="181.486328"/>
                        <use xlink:href="#DejaVuSans-6c" x="242.765625"/>
                        <use xlink:href="#DejaVuSans-6c" x="270.548828"/>
                        <use xlink:href="#DejaVuSans-20" x="298.332031"/>
                        <use xlink:href="#DejaVuSans-28" x="330.119141"/>
                        <use xlink:href="#DejaVuSans-50" x="369.132812"/>
                        <use xlink:href="#DejaVuSans-6f" x="425.810547"/>
                        <use xlink:href="#DejaVuSans-73" x="486.992188"/>
                        <use xlink:href="#DejaVuSans-69" x="539.091797"/>
                        <use xlink:href="#DejaVuSans-74" x="566.875"/>
                        <use xlink:href="#DejaVuSans-69" x="606.083984"/>
                        <use xlink:href="#DejaVuSans-76" x="633.867188"/>
                        <use xlink:href="#DejaVuSans-65" x="693.046875"/>
                        <use xlink:href="#DejaVuSans-20" x="754.570312"/>
                        <use xlink:href="#DejaVuSans-6c" x="786.357422"/>
                        <use xlink:href="#DejaVuSans-61" x="814.140625"/>
                        <use xlink:href="#DejaVuSans-62" x="875.419922"/>
                        <use xlink:href="#DejaVuSans-65" x="938.896484"/>
                        <use xlink:href="#DejaVuSans-6c" x="1000.419922"/>
                        <use xlink:href="#DejaVuSans-3a" x="1028.203125"/>
                        <use xlink:href="#DejaVuSans-20" x="1061.894531"/>
                        <use xlink:href="#DejaVuSans-31" x="1093.681641"/>
                        <use xlink:href="#DejaVuSans-29" x="1157.304688"/>
                    </g>
                </g>
            </g>
            <g id="matplotlib.axis_2">
                <g id="ytick_1">
                    <g id="line2d_7">
                        <defs>
                            <path id="ma249791813" d="M 0 0
L -3.5 0 
" style="stroke: #000000; stroke-width: 0.8"/>
                        </defs>
                        <g>
                            <use xlink:href="#ma249791813" x="57.6" y="300.832615"
                                 style="stroke: #000000; stroke-width: 0.8"/>
                        </g>
                    </g>
                    <g id="text_8">
                        <!-- 0.5 -->
                        <g transform="translate(34.696875 304.631834) scale(0.1 -0.1)">
                            <defs>
                                <path id="DejaVuSans-35" d="M 691 4666
L 3169 4666 
L 3169 4134 
L 1269 4134 
L 1269 2991 
Q 1406 3038 1543 3061 
Q 1681 3084 1819 3084 
Q 2600 3084 3056 2656 
Q 3513 2228 3513 1497 
Q 3513 744 3044 326 
Q 2575 -91 1722 -91 
Q 1428 -91 1123 -41 
Q 819 9 494 109 
L 494 744 
Q 775 591 1075 516 
Q 1375 441 1709 441 
Q 2250 441 2565 725 
Q 2881 1009 2881 1497 
Q 2881 1984 2565 2268 
Q 2250 2553 1709 2553 
Q 1456 2553 1204 2497 
Q 953 2441 691 2322 
L 691 4666 
z
" transform="scale(0.015625)"/>
                            </defs>
                            <use xlink:href="#DejaVuSans-30"/>
                            <use xlink:href="#DejaVuSans-2e" x="63.623047"/>
                            <use xlink:href="#DejaVuSans-35" x="95.410156"/>
                        </g>
                    </g>
                </g>
                <g id="ytick_2">
                    <g id="line2d_8">
                        <g>
                            <use xlink:href="#ma249791813" x="57.6" y="251.379692"
                                 style="stroke: #000000; stroke-width: 0.8"/>
                        </g>
                    </g>
                    <g id="text_9">
                        <!-- 0.6 -->
                        <g transform="translate(34.696875 255.178911) scale(0.1 -0.1)">
                            <use xlink:href="#DejaVuSans-30"/>
                            <use xlink:href="#DejaVuSans-2e" x="63.623047"/>
                            <use xlink:href="#DejaVuSans-36" x="95.410156"/>
                        </g>
                    </g>
                </g>
                <g id="ytick_3">
                    <g id="line2d_9">
                        <g>
                            <use xlink:href="#ma249791813" x="57.6" y="201.926769"
                                 style="stroke: #000000; stroke-width: 0.8"/>
                        </g>
                    </g>
                    <g id="text_10">
                        <!-- 0.7 -->
                        <g transform="translate(34.696875 205.725988) scale(0.1 -0.1)">
                            <defs>
                                <path id="DejaVuSans-37" d="M 525 4666
L 3525 4666 
L 3525 4397 
L 1831 0 
L 1172 0 
L 2766 4134 
L 525 4134 
L 525 4666 
z
" transform="scale(0.015625)"/>
                            </defs>
                            <use xlink:href="#DejaVuSans-30"/>
                            <use xlink:href="#DejaVuSans-2e" x="63.623047"/>
                            <use xlink:href="#DejaVuSans-37" x="95.410156"/>
                        </g>
                    </g>
                </g>
                <g id="ytick_4">
                    <g id="line2d_10">
                        <g>
                            <use xlink:href="#ma249791813" x="57.6" y="152.473846"
                                 style="stroke: #000000; stroke-width: 0.8"/>
                        </g>
                    </g>
                    <g id="text_11">
                        <!-- 0.8 -->
                        <g transform="translate(34.696875 156.273065) scale(0.1 -0.1)">
                            <use xlink:href="#DejaVuSans-30"/>
                            <use xlink:href="#DejaVuSans-2e" x="63.623047"/>
                            <use xlink:href="#DejaVuSans-38" x="95.410156"/>
                        </g>
                    </g>
                </g>
                <g id="ytick_5">
                    <g id="line2d_11">
                        <g>
                            <use xlink:href="#ma249791813" x="57.6" y="103.020923"
                                 style="stroke: #000000; stroke-width: 0.8"/>
                        </g>
                    </g>
                    <g id="text_12">
                        <!-- 0.9 -->
                        <g transform="translate(34.696875 106.820142) scale(0.1 -0.1)">
                            <defs>
                                <path id="DejaVuSans-39" d="M 703 97
L 703 672 
Q 941 559 1184 500 
Q 1428 441 1663 441 
Q 2288 441 2617 861 
Q 2947 1281 2994 2138 
Q 2813 1869 2534 1725 
Q 2256 1581 1919 1581 
Q 1219 1581 811 2004 
Q 403 2428 403 3163 
Q 403 3881 828 4315 
Q 1253 4750 1959 4750 
Q 2769 4750 3195 4129 
Q 3622 3509 3622 2328 
Q 3622 1225 3098 567 
Q 2575 -91 1691 -91 
Q 1453 -91 1209 -44 
Q 966 3 703 97 
z
M 1959 2075 
Q 2384 2075 2632 2365 
Q 2881 2656 2881 3163 
Q 2881 3666 2632 3958 
Q 2384 4250 1959 4250 
Q 1534 4250 1286 3958 
Q 1038 3666 1038 3163 
Q 1038 2656 1286 2365 
Q 1534 2075 1959 2075 
z
" transform="scale(0.015625)"/>
                            </defs>
                            <use xlink:href="#DejaVuSans-30"/>
                            <use xlink:href="#DejaVuSans-2e" x="63.623047"/>
                            <use xlink:href="#DejaVuSans-39" x="95.410156"/>
                        </g>
                    </g>
                </g>
                <g id="ytick_6">
                    <g id="line2d_12">
                        <g>
                            <use xlink:href="#ma249791813" x="57.6" y="53.568"
                                 style="stroke: #000000; stroke-width: 0.8"/>
                        </g>
                    </g>
                    <g id="text_13">
                        <!-- 1.0 -->
                        <g transform="translate(34.696875 57.367219) scale(0.1 -0.1)">
                            <use xlink:href="#DejaVuSans-31"/>
                            <use xlink:href="#DejaVuSans-2e" x="63.623047"/>
                            <use xlink:href="#DejaVuSans-30" x="95.410156"/>
                        </g>
                    </g>
                </g>
                <g id="text_14">
                    <!-- Precision (Positive label: 1) -->
                    <g transform="translate(28.617187 241.73425) rotate(-90) scale(0.1 -0.1)">
                        <defs>
                            <path id="DejaVuSans-72" d="M 2631 2963
Q 2534 3019 2420 3045 
Q 2306 3072 2169 3072 
Q 1681 3072 1420 2755 
Q 1159 2438 1159 1844 
L 1159 0 
L 581 0 
L 581 3500 
L 1159 3500 
L 1159 2956 
Q 1341 3275 1631 3429 
Q 1922 3584 2338 3584 
Q 2397 3584 2469 3576 
Q 2541 3569 2628 3553 
L 2631 2963 
z
" transform="scale(0.015625)"/>
                            <path id="DejaVuSans-6e" d="M 3513 2113
L 3513 0 
L 2938 0 
L 2938 2094 
Q 2938 2591 2744 2837 
Q 2550 3084 2163 3084 
Q 1697 3084 1428 2787 
Q 1159 2491 1159 1978 
L 1159 0 
L 581 0 
L 581 3500 
L 1159 3500 
L 1159 2956 
Q 1366 3272 1645 3428 
Q 1925 3584 2291 3584 
Q 2894 3584 3203 3211 
Q 3513 2838 3513 2113 
z
" transform="scale(0.015625)"/>
                        </defs>
                        <use xlink:href="#DejaVuSans-50"/>
                        <use xlink:href="#DejaVuSans-72" x="58.552734"/>
                        <use xlink:href="#DejaVuSans-65" x="97.416016"/>
                        <use xlink:href="#DejaVuSans-63" x="158.939453"/>
                        <use xlink:href="#DejaVuSans-69" x="213.919922"/>
                        <use xlink:href="#DejaVuSans-73" x="241.703125"/>
                        <use xlink:href="#DejaVuSans-69" x="293.802734"/>
                        <use xlink:href="#DejaVuSans-6f" x="321.585938"/>
                        <use xlink:href="#DejaVuSans-6e" x="382.767578"/>
                        <use xlink:href="#DejaVuSans-20" x="446.146484"/>
                        <use xlink:href="#DejaVuSans-28" x="477.933594"/>
                        <use xlink:href="#DejaVuSans-50" x="516.947266"/>
                        <use xlink:href="#DejaVuSans-6f" x="573.625"/>
                        <use xlink:href="#DejaVuSans-73" x="634.806641"/>
                        <use xlink:href="#DejaVuSans-69" x="686.90625"/>
                        <use xlink:href="#DejaVuSans-74" x="714.689453"/>
                        <use xlink:href="#DejaVuSans-69" x="753.898438"/>
                        <use xlink:href="#DejaVuSans-76" x="781.681641"/>
                        <use xlink:href="#DejaVuSans-65" x="840.861328"/>
                        <use xlink:href="#DejaVuSans-20" x="902.384766"/>
                        <use xlink:href="#DejaVuSans-6c" x="934.171875"/>
                        <use xlink:href="#DejaVuSans-61" x="961.955078"/>
                        <use xlink:href="#DejaVuSans-62" x="1023.234375"/>
                        <use xlink:href="#DejaVuSans-65" x="1086.710938"/>
                        <use xlink:href="#DejaVuSans-6c" x="1148.234375"/>
                        <use xlink:href="#DejaVuSans-3a" x="1176.017578"/>
                        <use xlink:href="#DejaVuSans-20" x="1209.708984"/>
                        <use xlink:href="#DejaVuSans-31" x="1241.496094"/>
                        <use xlink:href="#DejaVuSans-29" x="1305.119141"/>
                    </g>
                </g>
            </g>
            <g id="line2d_13">
                <path d="M 398.487273 295.488
L 398.416092 287.457692 
L 398.273731 287.454599 
L 398.273731 287.361056 
L 398.20255 282.784103 
L 398.13137 282.784103 
L 398.13137 282.68609 
L 398.060189 281.203789 
L 397.989009 281.203789 
L 397.989009 281.104212 
L 397.917828 279.603123 
L 397.846648 279.603123 
L 397.846648 279.501949 
L 397.775467 277.462006 
L 397.633106 277.456384 
L 397.633106 277.353041 
L 397.561925 274.248583 
L 397.490745 274.248583 
L 397.490745 274.142015 
L 397.419564 271.710474 
L 397.348384 271.710474 
L 397.348384 271.601308 
L 397.277203 265.224519 
L 397.206023 265.224519 
L 397.206023 265.144297 
L 397.134842 261.890329 
L 396.992481 261.843918 
L 396.992481 261.797472 
L 396.9213 259.61655 
L 396.85012 259.61655 
L 396.85012 259.531762 
L 396.778939 257.615729 
L 396.707759 257.615729 
L 396.707759 257.529279 
L 396.636578 253.78095 
L 396.565398 253.78095 
L 396.565398 253.691305 
L 396.494217 250.828831 
L 396.423036 250.828831 
L 396.423036 250.73668 
L 396.351856 249.852596 
L 396.209495 249.839021 
L 396.209495 249.745974 
L 396.138314 246.192369 
L 396.067134 246.192369 
L 396.067134 246.096175 
L 395.995953 245.26415 
L 395.853592 245.29009 
L 395.853592 245.193055 
L 395.782411 244.890546 
L 395.711231 244.890546 
L 395.711231 244.793124 
L 395.64005 243.704222 
L 395.56887 243.704222 
L 395.56887 243.605728 
L 395.497689 241.921372 
L 395.355328 241.947181 
L 395.355328 241.847089 
L 395.284147 239.332679 
L 395.212967 239.332679 
L 395.212967 239.23024 
L 395.141786 238.398986 
L 395.070606 238.398986 
L 395.070606 238.295674 
L 394.999425 238.235283 
L 394.928245 238.235283 
L 394.928245 238.131778 
L 394.857064 237.076895 
L 394.714703 237.015715 
L 394.714703 236.997904 
L 394.643522 236.109095 
L 394.572342 236.109095 
L 394.572342 236.003573 
L 394.501161 235.152409 
L 394.429981 235.152409 
L 394.429981 235.045979 
L 394.3588 234.895385 
L 394.216439 234.83276 
L 394.216439 234.814181 
L 394.145258 234.043951 
L 393.718175 233.949564 
L 393.718175 233.975059 
L 393.646994 233.199295 
L 393.504633 233.090806 
L 393.504633 233.116267 
L 393.504633 233.026898 
L 393.433453 233.05236 
L 393.362272 233.05236 
L 393.362272 232.943665 
L 393.291092 230.988046 
L 393.219911 230.988046 
L 393.219911 230.877408 
L 393.148731 229.810555 
L 393.07755 229.810555 
L 393.07755 229.744482 
L 393.006369 229.357965 
L 392.935189 229.357965 
L 392.935189 229.291573 
L 392.864008 228.857707 
L 392.792828 228.857707 
L 392.792828 228.790965 
L 392.721647 226.545568 
L 392.650467 226.545568 
L 392.650467 226.477306 
L 392.579286 225.706505 
L 392.365744 225.615757 
L 392.365744 225.640826 
L 392.294564 224.865123 
L 392.223383 224.865123 
L 392.223383 224.795674 
L 392.152203 224.536921 
L 391.938661 224.561938 
L 391.938661 224.469887 
L 391.86748 223.544263 
L 391.725119 223.521551 
L 391.725119 223.451112 
L 391.653939 223.141673 
L 391.582758 223.141673 
L 391.582758 223.070952 
L 391.511578 222.520603 
L 391.440397 222.520603 
L 391.440397 222.44944 
L 391.369216 222.185737 
L 391.298036 222.185737 
L 391.298036 222.114321 
L 391.226855 221.705011 
L 391.155675 221.705011 
L 391.155675 221.633243 
L 391.084494 220.542352 
L 390.942133 220.567169 
L 390.942133 220.445874 
L 390.870953 219.787022 
L 390.799772 219.787022 
L 390.799772 219.713893 
L 390.799772 218.386396 
L 390.728591 218.411077 
L 390.657411 218.411077 
L 390.657411 218.33699 
L 390.58623 216.972483 
L 390.301508 216.946577 
L 390.301508 216.871416 
L 390.230327 215.69402 
L 390.159147 215.69402 
L 390.159147 215.71854 
L 390.087966 214.633371 
L 390.016786 214.633371 
L 390.016786 214.607198 
L 389.945605 213.819557 
L 389.803244 213.843953 
L 389.803244 213.715623 
L 389.732064 213.434113 
L 389.589702 213.458494 
L 389.589702 213.329694 
L 389.518522 211.917412 
L 389.30498 211.862863 
L 389.30498 211.835563 
L 389.30498 211.370614 
L 389.2338 211.394861 
L 389.162619 211.394861 
L 389.162619 211.315602 
L 389.091438 210.977027 
L 388.735536 210.866248 
L 388.735536 210.890493 
L 388.664355 209.610263 
L 388.593175 209.610263 
L 388.593175 209.529611 
L 388.521994 209.396421 
L 388.379633 209.368082 
L 388.379633 209.287204 
L 388.308452 209.101088 
L 388.237272 209.101088 
L 388.237272 209.019986 
L 388.166091 208.516904 
L 388.094911 208.516904 
L 388.094911 208.435352 
L 388.094911 208.223857 
L 388.02373 208.247935 
L 387.952549 208.247935 
L 387.952549 208.166157 
L 387.881369 207.394082 
L 387.739008 207.364891 
L 387.739008 207.335683 
L 387.667827 206.719529 
L 387.596647 206.719529 
L 387.596647 206.636571 
L 387.525466 206.583076 
L 387.525466 206.607052 
L 387.454286 206.607052 
L 387.454286 206.523976 
L 387.383105 206.065317 
L 387.169563 206.113219 
L 387.169563 205.975956 
L 387.098383 205.623093 
L 386.956022 205.59312 
L 386.956022 205.563128 
L 386.956022 205.509186 
L 386.884841 205.533117 
L 386.81366 205.533117 
L 386.81366 205.449102 
L 386.74248 205.148738 
L 386.457758 205.166385 
L 386.457758 205.082009 
L 386.386577 204.943335 
L 386.315397 204.943335 
L 386.315397 204.858761 
L 386.244216 204.502361 
L 386.101855 204.471852 
L 386.101855 204.495752 
L 386.030674 204.356311 
L 385.888313 204.271216 
L 385.888313 204.295114 
L 385.817133 203.827596 
L 385.745952 203.827596 
L 385.745952 203.74206 
L 385.674771 203.272695 
L 385.603591 203.272695 
L 385.603591 203.186716 
L 385.53241 202.550159 
L 385.46123 202.550159 
L 385.46123 202.463615 
L 385.390049 201.546728 
L 385.318869 201.546728 
L 385.318869 201.45941 
L 385.318869 201.237171 
L 385.247688 201.260843 
L 385.105327 201.228909 
L 385.105327 201.196954 
L 385.034146 200.886407 
L 384.962966 200.886407 
L 384.962966 200.910069 
L 384.891785 199.590097 
L 384.820605 199.590097 
L 384.820605 199.501198 
L 384.749424 199.299608 
L 384.607063 199.210454 
L 384.535882 198.749425 
L 384.464702 198.749425 
L 384.464702 198.659802 
L 384.393521 198.002953 
L 384.17998 198.04984 
L 384.17998 198.016463 
L 384.108799 197.070864 
L 383.966438 197.094236 
L 383.966438 197.003234 
L 383.895257 196.108778 
L 383.824077 196.108778 
L 383.752896 195.001089 
L 383.468174 194.954824 
L 383.468174 194.978033 
L 383.468174 194.629903 
L 383.396993 194.653085 
L 383.325813 194.653085 
L 383.325813 194.560056 
L 383.254632 194.234092 
L 382.96991 194.128706 
L 382.96991 194.15187 
L 382.89873 193.297839 
L 382.756368 193.320931 
L 382.756368 193.226718 
L 382.756368 193.050604 
L 382.685188 193.073681 
L 382.400466 192.966601 
L 382.400466 192.989691 
L 382.400466 192.695338 
L 382.329285 192.718407 
L 382.186924 192.741483 
L 382.186924 192.646654 
L 382.186924 192.174216 
L 382.115743 192.197248 
L 381.902202 192.124993 
L 381.902202 192.088829 
L 381.831021 190.923473 
L 381.759841 190.923473 
L 381.759841 190.827115 
L 381.759841 190.169599 
L 381.68866 190.192458 
L 381.546299 190.215324 
L 381.546299 190.118352 
L 381.475118 189.721085 
L 381.332757 189.683811 
L 381.332757 189.646513 
L 381.332757 189.526187 
L 381.261577 189.549011 
L 381.119215 189.45141 
L 381.048035 189.074832 
L 380.763313 189.082827 
L 380.763313 188.984728 
L 380.763313 188.500259 
L 380.692132 188.523017 
L 380.47859 188.568556 
L 380.47859 188.469964 
L 380.47859 188.105354 
L 380.40741 188.128092 
L 380.265049 188.089983 
L 380.265049 188.11273 
L 380.193868 187.525689 
L 380.051507 187.426166 
L 380.051507 187.448858 
L 379.980326 186.367601 
L 379.909146 186.367601 
L 379.909146 186.267098 
L 379.837965 186.043218 
L 379.766785 186.043218 
L 379.766785 185.942412 
L 379.695604 184.974862 
L 379.553243 184.935252 
L 379.553243 184.895615 
L 379.482063 183.983973 
L 379.410882 183.983973 
L 379.410882 183.881415 
L 379.410882 183.818921 
L 379.339701 183.841274 
L 379.268521 183.841274 
L 379.268521 183.738555 
L 379.268521 183.425478 
L 379.19734 183.447798 
L 379.12616 183.447798 
L 379.12616 183.344716 
L 379.12616 183.219221 
L 379.054979 183.241529 
L 378.912618 183.138234 
L 378.912618 183.160543 
L 378.841437 182.868387 
L 378.627896 182.827709 
L 378.556715 181.122081 
L 378.485535 181.122081 
L 378.485535 181.080566 
L 378.414354 180.656602 
L 378.271993 180.614853 
L 378.271993 180.573074 
L 378.271993 180.445307 
L 378.200812 180.467365 
L 378.129632 180.467365 
L 378.129632 180.361544 
L 378.058451 179.421506 
L 377.987271 179.421506 
L 377.987271 179.314787 
L 377.91609 178.174472 
L 377.773729 178.066687 
L 377.773729 178.088502 
L 377.702548 177.525827 
L 377.631368 177.525827 
L 377.631368 177.417435 
L 377.560187 177.113365 
L 377.489007 177.113365 
L 377.489007 177.135089 
L 377.417826 176.568753 
L 377.346646 176.568753 
L 377.346646 176.459473 
L 377.275465 175.6276 
L 377.061923 175.604911 
L 377.061923 175.626488 
L 376.990743 175.318471 
L 376.777201 175.229548 
L 376.777201 175.2511 
L 376.706021 175.008245 
L 376.563659 174.963611 
L 376.563659 174.918945 
L 376.563659 174.454875 
L 376.278937 174.386486 
L 376.278937 174.407972 
L 376.278937 174.341503 
L 376.207757 174.362989 
L 376.065396 174.384483 
L 376.065396 174.272927 
L 376.065396 174.139775 
L 375.994215 174.161252 
L 375.851854 174.116109 
L 375.851854 174.070934 
L 375.780673 173.15657 
L 375.709493 173.15657 
L 375.709493 173.110914 
L 375.709493 172.84254 
L 375.638312 172.863885 
L 375.42477 172.906597 
L 375.42477 172.793568 
L 375.35359 172.073928 
L 375.282409 172.073928 
L 375.282409 172.027686 
L 375.282409 171.960145 
L 375.211229 171.981412 
L 375.140048 171.981412 
L 375.140048 171.935104 
L 375.140048 171.867498 
L 375.068868 171.888763 
L 374.926507 171.842389 
L 374.926507 171.795981 
L 374.855326 171.546255 
L 374.784145 171.546255 
L 374.784145 171.499683 
L 374.712965 171.3852 
L 374.570604 171.406436 
L 374.570604 171.42768 
L 374.499423 170.904838 
L 374.428243 170.904838 
L 374.428243 170.857899 
L 374.357062 170.742737 
L 374.214701 170.695697 
L 374.214701 170.648623 
L 374.214701 170.101695 
L 374.14352 170.122806 
L 373.645256 170.043947 
L 373.645256 170.065086 
L 373.645256 169.859148 
L 373.574076 169.880269 
L 373.502895 169.880269 
L 373.502895 169.832685 
L 373.502895 169.763947 
L 373.431715 169.785066 
L 373.360534 169.785066 
L 373.360534 169.737412 
L 373.360534 169.599777 
L 373.289354 169.620885 
L 372.86227 169.588701 
L 372.86227 169.333822 
L 372.79109 169.354931 
L 372.648729 169.306964 
L 372.648729 169.258962 
L 372.648729 169.12065 
L 372.577548 169.141748 
L 372.435187 169.162853 
L 372.435187 169.0455 
L 372.435187 168.906932 
L 372.150465 168.900864 
L 372.150465 168.852582 
L 372.079284 168.526343 
L 372.008103 168.526343 
L 372.008103 168.477852 
L 371.936923 168.290075 
L 371.58102 168.304591 
L 371.58102 168.325655 
L 371.58102 168.046565 
L 371.50984 168.067601 
L 371.438659 168.067601 
L 371.438659 168.018791 
L 371.438659 167.739116 
L 371.367478 167.760122 
L 371.296298 167.760122 
L 371.296298 167.711136 
L 371.296298 167.290587 
L 371.225117 167.311546 
L 371.153937 167.311546 
L 371.153937 167.262312 
L 371.082756 167.142782 
L 370.869214 167.114394 
L 370.798034 165.886051 
L 370.655673 165.836033 
L 370.655673 165.856843 
L 370.655673 165.21812 
L 370.584492 165.238853 
L 370.370951 165.280343 
L 370.370951 165.229962 
L 370.29977 164.965861 
L 369.872687 164.855502 
L 369.872687 164.876238 
L 369.801506 164.181521 
L 368.947339 164.12181 
L 368.947339 163.710618 
L 368.876159 163.731271 
L 368.662617 163.700495 
L 368.662617 163.649019 
L 368.662617 163.576849 
L 368.591436 163.597504 
L 368.449075 163.545951 
L 368.449075 163.494359 
L 368.377895 162.790894 
L 368.164353 162.686849 
L 368.164353 162.707414 
L 368.093173 162.509935 
L 367.666089 162.467166 
L 367.666089 162.414883 
L 367.594909 162.216698 
L 367.523728 162.216698 
L 367.523728 162.164262 
L 367.523728 161.872055 
L 367.452547 161.892559 
L 366.669561 161.878255 
L 366.669561 161.825491 
L 366.669561 161.605351 
L 366.598381 161.625879 
L 366.171297 161.581614 
L 366.171297 161.528607 
L 366.100117 160.811894 
L 365.601853 160.712851 
L 365.601853 160.733325 
L 365.601853 160.659288 
L 365.530672 160.67976 
L 365.388311 160.700241 
L 365.388311 160.646632 
L 365.317131 160.370407 
L 365.174769 160.3166 
L 365.174769 160.262753 
L 365.103589 160.060105 
L 365.032408 160.060105 
L 365.032408 160.006096 
L 364.961228 159.13097 
L 364.747686 159.021885 
L 364.747686 159.042184 
L 364.676506 158.762657 
L 364.534144 158.707889 
L 364.462964 158.372689 
L 364.03588 158.398641 
L 364.03588 158.192827 
L 363.9647 158.213064 
L 363.751158 158.178112 
L 363.751158 158.122873 
L 363.679978 157.386515 
L 363.537617 157.406662 
L 363.537617 157.350974 
L 363.537617 157.275101 
L 363.466436 157.295242 
L 363.252894 157.335548 
L 363.252894 157.203791 
L 363.252894 157.127786 
L 363.181714 157.147926 
L 362.968172 157.112163 
L 362.968172 157.056208 
L 362.896991 156.313539 
L 362.75463 156.333586 
L 362.75463 156.277175 
L 362.68345 155.146454 
L 362.541089 155.166348 
L 362.541089 155.109268 
L 362.469908 154.666579 
L 362.327547 154.609203 
L 362.327547 154.629038 
L 362.256366 153.874834 
L 361.758102 153.838065 
L 361.758102 153.780113 
L 361.758102 153.079312 
L 361.686922 153.098967 
L 361.331019 153.099585 
L 361.331019 153.041146 
L 361.259839 152.904467 
L 361.188658 152.904467 
L 361.188658 152.845893 
L 361.188658 152.767626 
L 361.117477 152.787273 
L 360.832755 152.767917 
L 360.832755 152.709196 
L 360.832755 152.630777 
L 360.761575 152.650429 
L 360.619213 152.670088 
L 360.619213 152.61127 
L 360.619213 152.375628 
L 360.548033 152.395256 
L 360.476852 152.395256 
L 360.476852 152.336259 
L 360.476852 152.257594 
L 360.405672 152.277214 
L 360.263311 152.218123 
L 360.263311 152.237747 
L 360.263311 151.843622 
L 360.19213 151.863195 
L 359.907408 151.92196 
L 359.907408 151.862586 
L 359.907408 151.704535 
L 359.836227 151.724111 
L 359.693866 151.743695 
L 359.693866 151.684179 
L 359.693866 151.367428 
L 359.622686 151.386969 
L 359.551505 151.386969 
L 359.551505 151.327226 
L 359.551505 151.247904 
L 359.480324 151.267436 
L 359.409144 151.267436 
L 359.409144 151.207598 
L 359.409144 150.810232 
L 359.337963 150.829707 
L 358.554977 150.86546 
L 358.554977 150.80522 
L 358.554977 150.325881 
L 358.483797 150.345341 
L 358.341435 150.36481 
L 358.341435 150.384286 
L 358.341435 150.224176 
L 358.270255 150.243636 
L 357.914352 150.321553 
L 357.914352 150.180666 
L 357.914352 150.100425 
L 357.843172 150.119895 
L 357.771991 150.119895 
L 357.771991 150.059075 
L 357.771991 149.978744 
L 357.62963 149.978744 
L 357.62963 149.373663 
L 357.558449 149.393041 
L 357.273727 149.351136 
L 357.273727 149.30918 
L 357.202546 149.228404 
L 357.202546 149.247784 
L 356.775463 149.344803 
L 356.775463 149.36423 
L 356.704283 148.897726 
L 356.134838 148.78979 
L 356.134838 148.809175 
L 356.063657 148.42165 
L 355.778935 148.398167 
L 355.778935 148.335949 
L 355.707755 148.110353 
L 355.494213 148.148989 
L 355.423032 147.7785 
L 354.995949 147.792992 
L 354.995949 147.730258 
L 354.995949 147.483929 
L 354.924768 147.503193 
L 354.640046 147.396544 
L 354.640046 146.921451 
L 354.568866 146.940652 
L 354.497685 146.940652 
L 354.497685 146.877322 
L 354.426505 146.565979 
L 354.141782 146.540719 
L 354.141782 146.47708 
L 354.070602 145.998598 
L 353.429977 145.985197 
L 353.429977 145.921078 
L 353.429977 145.253842 
L 353.358796 145.27286 
L 353.216435 145.208299 
L 353.216435 145.22732 
L 353.216435 144.976311 
L 353.145254 144.995299 
L 353.074074 144.995299 
L 353.074074 144.930528 
L 353.002893 144.697971 
L 352.931713 144.697971 
L 352.931713 144.716928 
L 352.860532 143.876027 
L 352.860532 143.894857 
L 352.789352 143.894857 
L 352.789352 143.829384 
L 352.789352 143.745039 
L 352.718171 143.763857 
L 352.291088 143.858066 
L 352.219907 143.895805 
L 352.219907 143.303631 
L 352.077546 143.322416 
L 352.077546 143.256443 
L 352.006365 143.105564 
L 351.864004 143.124331 
L 351.864004 143.058192 
L 351.864004 142.973243 
L 351.792824 142.991998 
L 351.721643 142.991998 
L 351.721643 142.925748 
L 351.721643 142.840699 
L 351.650463 142.859442 
L 351.29456 142.878193 
L 351.29456 142.44173 
L 351.223379 142.460436 
L 351.152199 142.460436 
L 351.152199 142.393739 
L 351.081018 142.155955 
L 350.867476 142.19331 
L 350.867476 142.212 
L 350.796296 141.630556 
L 350.369212 141.723665 
L 350.369212 141.742311 
L 350.369212 141.484308 
L 350.298032 141.502918 
L 350.155671 141.435434 
L 350.155671 141.454046 
L 350.155671 141.367893 
L 350.08449 141.386499 
L 350.01331 141.386499 
L 350.01331 141.146347 
L 349.942129 141.164926 
L 349.372685 141.122272 
L 349.372685 141.054353 
L 349.301504 140.813102 
L 348.518518 140.825451 
L 348.518518 140.757145 
L 348.518518 139.885829 
L 348.447337 139.904297 
L 347.949073 139.927829 
L 347.949073 139.946338 
L 347.949073 139.771316 
L 347.877893 139.789802 
L 347.379629 139.725509 
L 347.379629 139.744022 
L 347.379629 139.656261 
L 347.308448 139.674766 
L 347.023726 139.674766 
L 346.952545 139.327593 
L 346.739004 139.27645 
L 346.739004 139.29493 
L 346.667823 138.872157 
L 346.454282 138.872157 
L 346.383101 138.326094 
L 346.31192 138.326094 
L 346.31192 138.255729 
L 346.31192 137.989368 
L 346.24074 138.007661 
L 346.098379 137.937067 
L 346.027198 137.439298 
L 345.813656 137.386514 
L 345.813656 137.404731 
L 345.813656 137.136772 
L 345.742476 137.154951 
L 345.600115 137.173138 
L 345.600115 136.833322 
L 345.528934 136.851463 
L 345.315393 136.798121 
L 345.315393 136.81627 
L 345.244212 136.205584 
L 344.95949 136.169734 
L 344.888309 135.935421 
L 344.745948 135.863208 
L 344.745948 135.881232 
L 344.745948 135.519797 
L 344.674767 135.537765 
L 343.74942 135.572627 
L 343.74942 135.590666 
L 343.67824 134.699146 
L 343.322337 134.679527 
L 343.322337 134.42342 
L 343.251156 134.441289 
L 343.179976 134.441289 
L 343.179976 134.367713 
L 343.108795 134.110933 
L 342.681712 134.090593 
L 342.681712 133.942706 
L 342.610531 133.960532 
L 342.325809 133.922139 
L 342.325809 133.93998 
L 342.325809 133.848006 
L 342.254628 133.865838 
L 341.685184 133.863004 
L 341.685184 133.362777 
L 341.614003 133.380564 
L 341.2581 133.35926 
L 341.2581 133.284478 
L 341.2581 133.191844 
L 341.18692 133.20963 
L 341.044559 133.227423 
L 341.044559 133.152498 
L 341.044559 133.059732 
L 340.973378 133.077507 
L 340.831017 133.077507 
L 340.831017 132.555308 
L 340.759837 132.573006 
L 340.332753 132.532972 
L 340.332753 132.306204 
L 340.261573 132.323891 
L 340.190392 132.323891 
L 340.190392 132.248156 
L 340.190392 132.154686 
L 340.119211 132.172354 
L 339.97685 132.096483 
L 339.97685 132.11415 
L 339.97685 131.926897 
L 339.763309 131.926897 
L 339.763309 131.322765 
L 339.692128 131.340309 
L 339.336225 131.31644 
L 339.336225 131.334006 
L 339.265045 130.596778 
L 338.837961 130.494769 
L 338.837961 130.512217 
L 338.837961 130.417483 
L 338.62442 130.417483 
L 338.553239 129.82245 
L 338.054975 129.736093 
L 338.054975 129.753451 
L 337.983795 129.580019 
L 337.485531 129.553884 
L 337.485531 128.743689 
L 337.41435 128.760903 
L 337.129628 128.716494 
L 337.129628 128.733722 
L 337.129628 128.63756 
L 337.058447 128.654778 
L 336.773725 128.6102 
L 336.773725 128.627431 
L 336.773725 128.434704 
L 336.702544 128.451907 
L 336.204281 128.362131 
L 336.204281 128.379353 
L 336.1331 127.912722 
L 335.634836 128.015716 
L 335.563655 128.050111 
L 334.780669 127.993561 
L 334.709489 127.672821 
L 334.068864 127.712899 
L 334.068864 127.632378 
L 334.068864 127.534573 
L 333.357058 127.493662 
L 333.357058 127.510906 
L 333.357058 127.412775 
L 333.285877 127.430009 
L 333.072336 127.4645 
L 333.072336 127.383505 
L 333.072336 127.285208 
L 333.001155 127.302435 
L 332.929975 127.302435 
L 332.929975 126.827303 
L 332.858794 126.844452 
L 332.716433 126.762959 
L 332.716433 126.780104 
L 332.716433 126.681389 
L 332.645252 126.698524 
L 332.36053 126.651138 
L 332.36053 126.668285 
L 332.28935 126.487548 
L 332.146988 126.504674 
L 332.075808 126.142374 
L 330.936919 126.100511 
L 330.936919 126.117646 
L 330.936919 125.918176 
L 330.865738 125.93528 
L 330.652197 125.869648 
L 330.652197 125.886756 
L 330.581016 125.703924 
L 330.225113 125.772315 
L 330.225113 124.886423 
L 330.153933 124.903371 
L 329.655669 125.005231 
L 329.584488 125.039248 
L 329.442127 125.039248 
L 329.442127 124.265616 
L 329.370947 124.282493 
L 329.086224 124.333172 
L 329.086224 124.248803 
L 329.086224 124.147477 
L 328.58796 124.24886 
L 328.51678 124.282719 
L 328.51678 124.181182 
L 328.445599 124.181182 
L 328.445599 124.096498 
L 328.374419 123.196575 
L 327.876155 123.297098 
L 327.876155 123.313879 
L 327.662613 123.245168 
L 327.662613 123.261953 
L 327.662613 123.159583 
L 327.591433 123.176356 
L 327.520252 123.176356 
L 327.520252 122.68034 
L 327.449071 122.697026 
L 327.23553 122.730421 
L 327.23553 122.64434 
L 327.23553 122.541499 
L 327.164349 122.558176 
L 326.808446 122.521967 
L 326.808446 122.538663 
L 326.808446 122.435597 
L 326.737266 122.45228 
L 326.594905 122.365813 
L 326.594905 122.382492 
L 326.523724 121.571777 
L 326.167821 121.637928 
L 326.167821 121.550729 
L 326.167821 121.446921 
L 326.096641 121.463445 
L 325.883099 121.392594 
L 325.883099 121.40912 
L 325.883099 121.096985 
L 325.811918 121.113456 
L 325.740738 121.113456 
L 325.669557 120.294995 
L 325.669557 120.311309 
L 325.171293 120.409365 
L 325.100113 120.442114 
L 325.100113 120.337323 
L 324.957752 120.248823 
L 324.957752 120.265174 
L 324.957752 120.160236 
L 324.74421 120.160236 
L 324.74421 119.57817 
L 324.673029 119.594401 
L 323.890043 119.545883 
L 323.890043 119.562157 
L 323.890043 119.456425 
L 323.676502 119.456425 
L 323.676502 118.763172 
L 323.605321 118.779301 
L 323.249418 118.737569 
L 323.249418 118.753716 
L 323.249418 118.647311 
L 323.178238 118.663444 
L 322.822335 118.695734 
L 322.822335 118.317542 
L 322.751154 118.333632 
L 322.18171 118.339508 
L 322.18171 118.24858 
L 322.18171 117.605094 
L 322.110529 117.621075 
L 321.683446 117.593529 
L 321.683446 117.609535 
L 321.683446 117.501887 
L 321.612265 117.517878 
L 321.185182 117.490115 
L 321.185182 117.506132 
L 321.185182 117.398214 
L 321.114001 117.414216 
L 320.829279 117.430225 
L 320.829279 117.153878 
L 320.758099 117.16985 
L 319.761571 117.161018 
L 319.761571 117.177056 
L 319.761571 116.632965 
L 319.69039 116.648895 
L 319.192126 116.744641 
L 319.192126 116.760627 
L 319.192126 116.651455 
L 319.120946 116.667426 
L 318.765043 116.731389 
L 318.765043 116.090355 
L 318.693862 116.106232 
L 318.266779 116.185736 
L 318.266779 116.091792 
L 318.266779 115.981867 
L 318.195598 115.997753 
L 317.768515 115.967176 
L 317.768515 115.983086 
L 317.768515 115.872881 
L 317.412612 115.872881 
L 317.412612 115.178574 
L 317.341432 115.19434 
L 316.985529 115.146582 
L 316.985529 115.051383 
L 316.914348 115.067148 
L 316.344904 115.177729 
L 316.273723 115.209397 
L 315.633098 115.288709 
L 315.561917 114.698194 
L 315.134834 114.665176 
L 315.134834 114.680971 
L 315.134834 114.56889 
L 315.063654 114.584669 
L 314.707751 114.600456 
L 314.707751 114.326646 
L 314.63657 114.342399 
L 314.351848 114.277143 
L 314.351848 114.292903 
L 314.351848 114.06755 
L 314.280667 114.083268 
L 313.35532 114.193525 
L 313.284139 114.304185 
L 313.212959 114.304185 
L 313.212959 114.206857 
L 313.212959 114.093629 
L 313.141778 114.109428 
L 312.785876 114.059291 
L 312.785876 114.075106 
L 312.785876 113.961606 
L 312.714695 113.977404 
L 312.216431 114.040676 
L 312.216431 113.404739 
L 312.14525 113.420448 
L 311.646987 113.400574 
L 311.646987 113.416315 
L 311.575806 113.203173 
L 311.433445 113.104317 
L 311.433445 112.775877 
L 311.362264 112.791495 
L 311.148723 112.822756 
L 311.148723 112.723464 
L 311.077542 112.39384 
L 310.579278 112.340796 
L 310.579278 111.462184 
L 310.508098 111.477557 
L 309.938653 111.585396 
L 309.867472 111.616281 
L 309.867472 111.500072 
L 309.653931 111.414611 
L 309.653931 111.430029 
L 309.653931 111.313615 
L 309.58275 111.329014 
L 309.51157 111.329014 
L 309.440389 110.893237 
L 308.870945 111.000616 
L 308.799764 111.03137 
L 308.3015 110.945052 
L 308.3015 110.669925 
L 308.23032 110.685263 
L 307.874417 110.629065 
L 307.874417 110.644416 
L 307.803236 110.526695 
L 307.803236 110.542027 
L 307.518514 110.588073 
L 307.518514 110.485515 
L 307.518514 110.367529 
L 307.447333 110.382847 
L 306.664347 110.398173 
L 306.664347 109.721861 
L 306.593167 109.737083 
L 305.881361 109.636159 
L 305.881361 109.651407 
L 305.881361 109.532135 
L 305.667819 109.532135 
L 305.667819 109.219382 
L 305.596639 109.23455 
L 305.525458 109.23455 
L 305.525458 109.130052 
L 305.525458 109.010311 
L 305.454278 109.025439 
L 305.240736 108.935828 
L 305.240736 108.950951 
L 305.240736 108.830966 
L 305.169555 108.846069 
L 304.600111 108.756164 
L 304.600111 108.606067 
L 304.52893 108.621158 
L 303.461222 108.636556 
L 303.461222 108.000321 
L 303.390041 108.015341 
L 302.820597 107.999038 
L 302.820597 108.014095 
L 302.820597 107.892323 
L 302.179972 107.860646 
L 302.179972 107.294293 
L 302.108791 107.309225 
L 301.539347 107.413984 
L 301.468166 107.44399 
L 300.542819 107.396189 
L 300.542819 107.146615 
L 300.471638 107.161619 
L 300.186916 107.206681 
L 300.186916 107.098085 
L 300.186916 106.850611 
L 300.115735 106.865565 
L 299.47511 106.861386 
L 299.47511 106.876386 
L 299.47511 106.752168 
L 299.40393 106.767146 
L 298.763305 106.767146 
L 298.763305 106.153687 
L 298.692124 106.168563 
L 297.766777 106.096808 
L 297.766777 105.986131 
L 297.553235 105.986131 
L 297.553235 105.401312 
L 297.482055 105.416079 
L 296.91261 105.519686 
L 296.84143 105.549364 
L 296.84143 105.422922 
L 296.343166 105.340797 
L 296.343166 105.146407 
L 296.271985 105.16119 
L 295.702541 105.26491 
L 295.702541 105.279761 
L 295.275457 105.279761 
L 295.275457 104.603303 
L 295.204277 104.618019 
L 295.133096 104.618019 
L 295.061915 104.391443 
L 294.492471 104.494354 
L 294.42129 104.523834 
L 294.207749 104.523834 
L 294.207749 103.924762 
L 294.136568 103.939376 
L 293.567124 104.041905 
L 293.495943 104.071276 
L 293.424763 104.071276 
L 293.424763 104.085974 
L 293.424763 103.956713 
L 293.353582 103.971387 
L 292.641776 104.030166 
L 292.570596 103.093329 
L 292.072332 103.049945 
L 292.072332 103.064468 
L 292.001151 102.555757 
L 290.862262 102.554386 
L 290.862262 101.99675 
L 290.791082 102.011082 
L 290.221637 102.111646 
L 290.150457 102.140456 
L 289.936915 102.169299 
L 289.936915 102.051258 
L 289.865734 101.800408 
L 289.29629 101.710619 
L 289.225109 100.863085 
L 288.299762 100.764967 
L 288.299762 100.779136 
L 288.299762 100.644807 
L 288.228581 100.658948 
L 287.659137 100.673098 
L 287.659137 100.232953 
L 287.587956 100.247026 
L 287.516776 100.247026 
L 287.516776 100.261107 
L 287.516776 100.125972 
L 287.445595 100.140025 
L 287.374415 100.140025 
L 287.374415 100.154087 
L 287.374415 100.018798 
L 287.303234 100.032831 
L 286.449067 100.023776 
L 286.449067 99.794101 
L 286.377887 99.808135 
L 286.093165 99.850286 
L 286.093165 99.728071 
L 286.093165 99.591706 
L 286.021984 99.605708 
L 285.737262 99.511166 
L 285.737262 99.525165 
L 285.737262 99.388447 
L 285.666081 99.402417 
L 285.167817 99.45838 
L 285.167817 99.088886 
L 285.096637 99.102811 
L 284.527192 99.200526 
L 284.527192 99.214519 
L 284.527192 99.076825 
L 284.456012 99.090789 
L 284.028928 99.090789 
L 284.028928 98.483678 
L 283.957748 98.497511 
L 283.886567 98.497511 
L 283.886567 98.511353 
L 283.886567 98.372805 
L 283.815387 98.386617 
L 283.103581 98.497417 
L 283.103581 98.525203 
L 283.103581 98.247002 
L 282.534136 98.247002 
L 282.534136 97.799186 
L 282.462956 97.812927 
L 282.107053 97.867975 
L 282.107053 97.741635 
L 282.107053 97.461127 
L 282.035873 97.474801 
L 281.252886 97.570757 
L 281.252886 96.920594 
L 281.181706 96.934171 
L 280.683442 96.874232 
L 280.683442 96.887829 
L 280.683442 96.746118 
L 280.612261 96.759683 
L 279.544553 96.80043 
L 279.544553 96.393856 
L 279.473372 96.407396 
L 278.832747 96.516022 
L 278.761567 96.543265 
L 278.476844 96.44081 
L 278.476844 96.454429 
L 278.476844 96.310914 
L 278.405664 96.324501 
L 278.120942 96.324501 
L 278.120942 95.947217 
L 278.049761 95.960722 
L 277.409136 96.069074 
L 277.409136 96.082657 
L 276.768511 96.191634 
L 276.69733 96.218966 
L 276.199066 96.232645 
L 276.199066 95.87896 
L 276.127886 95.892574 
L 275.487261 96.001799 
L 275.41608 96.029193 
L 272.85358 96.052776 
L 272.782399 95.062423 
L 271.928233 95.063543 
L 271.928233 95.077201 
L 271.857052 94.642939 
L 271.429969 94.670034 
L 271.429969 94.12463 
L 271.358788 94.138046 
L 271.216427 94.151471 
L 271.216427 94.164905 
L 271.145246 93.87754 
L 270.36226 93.957838 
L 270.36226 93.117155 
L 270.29108 93.130338 
L 270.148719 93.14353 
L 270.148719 93.156731 
L 270.148719 93.004932 
L 270.077538 93.018096 
L 269.935177 93.031267 
L 269.935177 93.044448 
L 269.935177 92.892409 
L 269.863996 92.905552 
L 268.938649 92.9714 
L 268.867468 92.771527 
L 268.867468 92.7847 
L 268.796288 92.7847 
L 268.796288 92.797882 
L 268.796288 92.644789 
L 268.725107 92.657932 
L 268.155663 92.750188 
L 268.155663 92.609781 
L 268.084482 92.315309 
L 267.301496 92.315309 
L 267.301496 91.686212 
L 267.230316 91.69916 
L 266.58969 91.80306 
L 266.51851 91.829123 
L 266.091427 91.842168 
L 266.091427 91.595709 
L 266.020246 91.60871 
L 265.379621 91.713038 
L 265.30844 91.73921 
L 264.383093 91.817941 
L 264.383093 91.438124 
L 264.311912 91.451192 
L 263.671287 91.556059 
L 263.600107 91.582366 
L 263.528926 91.582366 
L 263.528926 91.595534 
L 263.528926 91.437356 
L 263.457746 91.450482 
L 262.603579 91.503078 
L 262.532398 91.621955 
L 261.108787 91.648655 
L 261.108787 91.087604 
L 261.037607 91.100788 
L 260.396982 91.045541 
L 260.396982 91.058756 
L 260.396982 90.897543 
L 260.325801 90.910715 
L 259.400454 90.963497 
L 259.400454 90.758563 
L 259.329273 90.77176 
L 259.115731 90.798184 
L 259.115731 90.811409 
L 259.115731 90.323551 
L 259.044551 90.336627 
L 258.403926 90.362806 
L 258.403926 89.964221 
L 258.332745 89.977229 
L 258.119204 90.003272 
L 258.119204 89.852357 
L 258.048023 89.865348 
L 257.122676 89.766049 
L 257.051495 89.553196 
L 256.909134 89.566164 
L 256.909134 89.579141 
L 256.909134 89.41379 
L 256.837953 89.426721 
L 256.126148 89.452612 
L 256.126148 88.891516 
L 256.054967 88.904329 
L 255.770245 88.942822 
L 255.770245 88.955671 
L 255.770245 88.788832 
L 255.699064 88.801635 
L 255.556703 88.814447 
L 255.556703 88.827269 
L 255.556703 88.66014 
L 255.485523 88.672914 
L 255.343162 88.685698 
L 255.343162 88.698492 
L 255.343162 88.531072 
L 255.271981 88.543819 
L 254.631356 88.543819 
L 254.631356 88.154263 
L 254.560175 88.166932 
L 251.641772 88.17223 
L 251.641772 87.838655 
L 251.570592 87.851428 
L 250.360522 87.781877 
L 250.360522 87.551796 
L 250.289342 87.564562 
L 249.719897 87.654196 
L 249.719897 87.493488 
L 249.719897 87.319806 
L 248.936911 87.319806 
L 248.936911 87.285902 
L 248.936911 87.111286 
L 248.86573 87.124002 
L 248.225105 87.226073 
L 248.153925 87.251688 
L 246.445591 87.195228 
L 246.445591 87.208151 
L 246.445591 87.030954 
L 246.089688 87.030954 
L 246.089688 86.027448 
L 246.018508 86.039985 
L 245.377883 86.140634 
L 245.306702 86.165894 
L 244.523716 86.191193 
L 244.523716 86.125631 
L 244.523716 85.945596 
L 244.452536 85.958219 
L 244.167813 85.996146 
L 244.167813 86.008809 
L 244.167813 85.828305 
L 244.096633 85.840912 
L 242.815383 85.942121 
L 242.815383 85.705583 
L 242.744202 85.718245 
L 242.103577 85.819906 
L 242.032396 85.845422 
L 241.107049 85.935046 
L 241.107049 85.644508 
L 241.035869 85.657277 
L 240.964688 85.657277 
L 240.964688 85.670057 
L 240.964688 85.485823 
L 240.893507 85.498544 
L 240.252882 85.600681 
L 240.252882 85.613494 
L 239.398716 85.569289 
L 239.398716 85.582156 
L 239.398716 85.396108 
L 239.327535 85.408916 
L 239.113993 85.434563 
L 239.113993 85.447402 
L 239.113993 85.260925 
L 239.042813 85.273705 
L 238.117465 85.337757 
L 238.117465 84.501185 
L 238.046285 84.513754 
L 237.903924 84.513754 
L 237.903924 84.161587 
L 237.832743 84.174044 
L 237.690382 84.174044 
L 237.690382 84.198987 
L 237.690382 84.009873 
L 237.619202 84.022288 
L 237.548021 84.022288 
L 237.548021 84.034713 
L 237.548021 83.8453 
L 237.47684 83.857663 
L 237.40566 83.857663 
L 237.40566 83.870036 
L 237.40566 83.680323 
L 237.334479 83.692634 
L 237.120938 83.717286 
L 237.120938 83.729627 
L 237.120938 83.539469 
L 237.049757 83.551747 
L 234.202535 83.539469 
L 234.202535 82.888731 
L 234.131354 82.900979 
L 233.846632 82.937783 
L 233.846632 82.950071 
L 233.846632 82.755368 
L 233.775451 82.76759 
L 233.704271 82.76759 
L 233.704271 82.779823 
L 233.704271 82.584803 
L 233.63309 82.59697 
L 233.561909 82.59697 
L 233.561909 82.609146 
L 233.561909 82.413809 
L 233.490729 82.425919 
L 232.850104 82.425919 
L 232.850104 82.142654 
L 232.778923 82.154711 
L 232.35184 82.215148 
L 232.35184 82.227266 
L 232.280659 81.844767 
L 231.14177 81.928852 
L 231.14177 81.440698 
L 231.07059 81.452604 
L 230.643506 81.512289 
L 230.643506 81.524256 
L 230.572326 81.324354 
L 230.572326 81.336251 
L 230.074062 81.407849 
L 230.074062 81.419818 
L 230.074062 81.219097 
L 229.362256 81.326549 
L 229.291076 81.350541 
L 229.077534 81.362553 
L 229.077534 81.386607 
L 229.077534 81.184567 
L 229.006353 81.196528 
L 228.721631 81.232471 
L 228.721631 81.244473 
L 228.721631 81.041846 
L 228.650451 81.053776 
L 227.440381 81.16161 
L 227.440381 80.849385 
L 227.369201 80.861335 
L 227.084478 80.885266 
L 227.084478 80.704152 
L 227.013298 80.716069 
L 226.301492 80.739936 
L 226.301492 80.42323 
L 226.230312 80.435092 
L 225.518506 80.542322 
L 225.447325 80.566267 
L 225.304964 80.578255 
L 225.304964 80.590255 
L 225.304964 80.382474 
L 225.233784 80.394397 
L 225.020242 80.418274 
L 225.020242 80.430229 
L 225.020242 80.221914 
L 224.949061 80.233792 
L 224.094895 80.257579 
L 224.094895 79.327044 
L 224.023714 79.338616 
L 223.881353 79.350198 
L 223.881353 79.361791 
L 223.881353 79.150934 
L 223.810172 79.162447 
L 222.101839 79.254929 
L 222.030658 79.015087 
L 222.030658 79.02668 
L 221.674756 79.073159 
L 221.674756 79.084805 
L 221.603575 78.870546 
L 221.603575 78.882111 
L 221.532394 78.882111 
L 221.532394 78.893685 
L 221.461214 78.260481 
L 219.6817 78.317378 
L 219.6817 78.328852 
L 219.6817 78.110963 
L 219.610519 78.122352 
L 218.40045 78.086287 
L 218.40045 78.097761 
L 218.40045 77.877723 
L 218.329269 77.88911 
L 217.19038 77.839373 
L 217.19038 77.850833 
L 217.19038 77.628704 
L 217.1192 77.640075 
L 214.983783 77.749199 
L 214.983783 77.760797 
L 214.983783 77.535108 
L 214.912602 77.546614 
L 214.62788 77.581198 
L 214.62788 77.592749 
L 214.62788 77.366327 
L 214.556699 77.377785 
L 213.34663 77.334211 
L 213.34663 77.345753 
L 213.34663 77.117011 
L 213.275449 77.128459 
L 212.13656 77.162871 
L 212.13656 76.620148 
L 212.06538 76.631464 
L 210.499407 76.710994 
L 210.499407 76.415103 
L 210.428227 76.426458 
L 209.716421 76.529167 
L 209.64524 76.552117 
L 208.008088 76.56936 
L 208.008088 76.580994 
L 207.936907 76.114925 
L 207.225101 76.218194 
L 207.153921 76.241271 
L 206.299754 76.241271 
L 206.228573 76.392426 
L 205.80149 76.451101 
L 205.80149 76.462872 
L 205.80149 76.220137 
L 205.73031 76.231801 
L 204.52024 76.255166 
L 204.52024 75.941397 
L 204.449059 75.953038 
L 203.737254 76.058352 
L 203.666073 76.08189 
L 201.174754 76.118113 
L 201.103573 75.505962 
L 200.961212 75.517693 
L 200.961212 75.529437 
L 200.961212 75.276457 
L 200.890031 75.288084 
L 199.46642 75.288084 
L 199.46642 75.011002 
L 199.395239 75.02263 
L 198.683434 75.127857 
L 198.612253 75.151382 
L 197.544545 75.186764 
L 197.544545 74.808793 
L 197.473364 74.820496 
L 197.402184 74.820496 
L 197.402184 74.832212 
L 197.402184 74.571172 
L 197.331003 74.582763 
L 195.836211 74.675955 
L 195.765031 74.841045 
L 195.551489 74.86484 
L 195.551489 74.876758 
L 195.551489 74.611797 
L 195.480309 74.623586 
L 194.270239 74.670876 
L 194.199058 74.033212 
L 193.700794 74.103059 
L 193.700794 74.114747 
L 193.700794 73.844825 
L 193.629614 73.856379 
L 192.134822 73.902726 
L 192.134822 73.554747 
L 192.063642 73.566294 
L 191.992461 73.566294 
L 191.992461 73.577853 
L 191.992461 73.303406 
L 191.92128 73.314827 
L 190.56885 73.406673 
L 190.497669 73.546054 
L 189.999405 73.616482 
L 189.999405 73.628269 
L 189.999405 73.349169 
L 189.928225 73.360812 
L 188.931697 73.384139 
L 188.931697 73.24345 
L 188.860516 73.255141 
L 188.646975 73.278564 
L 188.646975 73.290297 
L 188.646975 73.007505 
L 188.575794 73.01909 
L 187.081002 73.053928 
L 187.081002 72.691789 
L 187.009822 72.703351 
L 186.298016 72.808043 
L 186.226835 72.831464 
L 186.013294 72.854941 
L 186.013294 72.866702 
L 186.013294 72.57675 
L 185.942113 72.588355 
L 184.23378 72.564786 
L 184.23378 71.986221 
L 184.162599 71.997661 
L 184.020238 72.009115 
L 184.020238 72.020583 
L 184.020238 71.724331 
L 183.949057 71.735637 
L 182.525446 71.792375 
L 182.454266 71.976344 
L 182.454266 71.675762 
L 182.098363 71.721605 
L 182.098363 71.733102 
L 182.027182 70.837275 
L 179.464682 70.919903 
L 179.464682 70.931185 
L 179.393501 70.320782 
L 177.96989 70.353587 
L 177.96989 70.541941 
L 177.613987 70.586875 
L 177.613987 70.598146 
L 177.542807 69.975738 
L 176.68864 69.997543 
L 176.617459 70.11851 
L 175.905654 70.218816 
L 175.905654 70.230036 
L 175.193848 70.230036 
L 175.193848 69.693953 
L 175.122668 69.704916 
L 173.699056 69.782073 
L 173.627876 69.938623 
L 172.275445 69.983908 
L 172.275445 69.821758 
L 172.204265 69.833132 
L 171.421278 69.936221 
L 171.350098 69.970875 
L 171.350098 69.633215 
L 169.997667 69.655938 
L 169.926487 69.863376 
L 169.499403 69.92195 
L 169.499403 69.933716 
L 169.499403 69.589465 
L 169.428223 69.601008 
L 168.004611 69.705647 
L 168.004611 69.485547 
L 167.933431 69.497199 
L 167.221625 69.602846 
L 167.150445 69.626514 
L 167.150445 69.273138 
L 165.940375 69.319672 
L 165.869195 69.484734 
L 165.157389 69.592685 
L 165.086208 69.616873 
L 164.232042 69.628995 
L 164.160861 69.775894 
L 162.950791 69.81304 
L 162.950791 69.619181 
L 162.879611 69.631595 
L 162.238986 69.731601 
L 162.167805 69.756798 
L 160.957736 69.769426 
L 160.886555 69.987152 
L 158.822319 70.09165 
L 158.751138 70.385998 
L 157.256346 70.495651 
L 157.185166 70.691024 
L 157.185166 70.297124 
L 156.117457 70.338636 
L 156.046277 70.520925 
L 155.476832 70.620732 
L 155.405652 70.649465 
L 154.337943 70.721721 
L 154.337943 70.052308 
L 154.266763 70.066409 
L 153.697318 70.165797 
L 153.626138 70.194414 
L 153.626138 69.782073 
L 152.273707 69.796075 
L 152.202527 70.06678 
L 151.633082 70.168805 
L 151.561901 70.198187 
L 150.992457 70.198187 
L 150.921276 70.331703 
L 150.778915 70.34667 
L 150.778915 70.361665 
L 150.707735 69.934352 
L 150.707735 69.949004 
L 150.13829 70.052308 
L 150.13829 70.067172 
L 148.928221 70.067172 
L 148.85704 70.339385 
L 148.78586 70.339385 
L 148.78586 70.354772 
L 148.78586 69.916074 
L 148.714679 69.9311 
L 148.145234 70.037059 
L 148.145234 70.052308 
L 147.504609 70.052308 
L 147.504609 69.296713 
L 147.433429 69.31144 
L 146.29454 69.400386 
L 146.29454 69.095559 
L 146.223359 69.110347 
L 146.009818 69.140008 
L 146.009818 69.154881 
L 146.009818 68.697001 
L 145.938637 68.711479 
L 144.728567 68.798929 
L 144.657387 68.976895 
L 143.660859 69.082643 
L 143.589678 69.205288 
L 142.52197 69.298552 
L 142.450789 69.456489 
L 141.952526 69.552783 
L 141.881345 69.585141 
L 141.169539 69.601369 
L 141.169539 69.259306 
L 141.098359 69.275383 
L 140.600095 69.372542 
L 140.528914 69.405196 
L 139.461206 69.487425 
L 139.461206 69.151904 
L 139.390025 69.168291 
L 138.891761 69.267341 
L 138.891761 69.283971 
L 138.179956 69.283971 
L 138.179956 69.452237 
L 138.179956 68.939219 
L 138.108775 68.955712 
L 137.041067 69.022038 
L 136.969886 69.224493 
L 136.898706 69.224493 
L 136.898706 69.241604 
L 136.898706 68.717692 
L 136.827525 68.734285 
L 136.329261 68.834614 
L 136.329261 68.851464 
L 135.759817 68.851464 
L 135.688636 69.00481 
L 135.190372 69.108761 
L 135.190372 69.126223 
L 134.193844 69.126223 
L 134.193844 68.827759 
L 134.122664 68.845219 
L 133.6244 68.950822 
L 133.553219 68.986348 
L 132.699052 69.057895 
L 132.699052 68.641576 
L 132.627872 68.659268 
L 132.556691 68.659268 
L 132.556691 68.677001 
L 132.556691 68.112977 
L 132.485511 68.130109 
L 131.987247 68.233754 
L 131.916066 68.268631 
L 131.916066 67.697407 
L 131.204261 67.731128 
L 131.13308 67.88489 
L 130.705997 67.971764 
L 130.705997 67.989266 
L 130.705997 67.405193 
L 130.634816 67.422047 
L 129.567108 67.489876 
L 129.567108 67.679876 
L 129.495927 66.500894 
L 129.353566 66.51702 
L 129.353566 66.533186 
L 129.353566 65.931231 
L 129.282385 65.946704 
L 128.428219 65.977767 
L 128.357038 66.151441 
L 127.929955 66.232001 
L 127.929955 66.248237 
L 127.929955 65.629689 
L 126.719885 65.629689 
L 126.648705 65.914985 
L 126.150441 66.013106 
L 126.07926 66.046161 
L 125.011552 66.096074 
L 124.940371 66.317058 
L 124.869191 66.317058 
L 124.869191 66.33438 
L 124.869191 65.67892 
L 124.79801 65.69542 
L 123.51676 65.761871 
L 123.445579 66.017687 
L 123.303218 66.035123 
L 123.303218 65.37558 
L 123.232038 65.392187 
L 122.021968 65.425541 
L 121.950788 65.699309 
L 120.598357 65.805259 
L 120.527176 66.059823 
L 120.100093 66.153325 
L 120.100093 66.172193 
L 119.459468 66.172193 
L 119.388287 66.364038 
L 119.032384 66.442421 
L 119.032384 66.462167 
L 119.032384 65.722328 
L 118.961204 65.741027 
L 118.035857 65.778598 
L 118.035857 65.231425 
L 117.964676 65.249793 
L 117.679954 65.305244 
L 117.679954 65.323845 
L 117.679954 64.557538 
L 117.608773 64.57501 
L 116.896968 64.57501 
L 116.825787 64.770928 
L 115.544537 64.862305 
L 115.473356 65.126279 
L 115.046273 65.223571 
L 114.975092 65.262948 
L 114.263287 65.282736 
L 114.263287 64.633198 
L 114.192106 64.652276 
L 112.982037 64.72925 
L 112.910856 65.007288 
L 112.12787 65.06868 
L 112.056689 65.256873 
L 111.273703 65.32098 
L 111.202523 65.517591 
L 110.84662 65.607101 
L 110.775439 65.652361 
L 109.850092 65.652361 
L 109.778911 65.978965 
L 109.423009 66.075549 
L 109.351828 66.124406 
L 108.3553 66.148978 
L 108.28412 66.503372 
L 107.928217 66.581927 
L 107.857036 66.661442 
L 106.789328 66.688163 
L 106.718147 67.102484 
L 106.433425 67.188508 
L 106.433425 67.217427 
L 106.006342 67.217427 
L 105.935161 67.423345 
L 105.650439 67.51351 
L 105.579258 67.574275 
L 105.080994 67.666421 
L 105.009814 67.822723 
L 104.084466 67.886218 
L 104.013286 68.279396 
L 103.870925 68.313138 
L 103.870925 68.347034 
L 103.870925 67.241619 
L 103.799744 67.273198 
L 103.016758 67.273198 
L 102.945577 67.663845 
L 102.447313 67.697407 
L 102.376133 67.936888 
L 102.091411 68.042026 
L 102.091411 68.077415 
L 102.091411 66.900896 
L 102.02023 66.933655 
L 101.237244 67.032905 
L 101.166063 67.3397 
L 100.881341 67.445096 
L 100.81016 67.51626 
L 100.240716 67.552117 
L 100.169535 67.845747 
L 99.955994 67.921091 
L 99.884813 67.997235 
L 99.386549 68.03561 
L 99.315369 68.310064 
L 98.888285 68.390402 
L 98.817105 68.595131 
L 98.603563 68.678615 
L 98.532382 68.763032 
L 98.17648 68.848398 
L 98.105299 69.022038 
L 98.105299 67.657152 
L 97.464674 67.737892 
L 97.393493 68.070323 
L 97.393493 66.65848 
L 97.179952 66.735938 
L 97.108771 66.814319 
L 96.89523 66.893638 
L 96.824049 66.973913 
L 96.468146 67.055161 
L 96.396966 67.220647 
L 96.183424 67.304923 
L 96.183424 67.347452 
L 95.969882 67.347452 
L 95.969882 67.476635 
L 95.542799 67.476635 
L 95.471618 67.78769 
L 95.258077 67.879135 
L 95.258077 67.9253 
L 94.902174 67.9253 
L 94.830993 68.208668 
L 94.546271 68.256987 
L 94.47509 68.453495 
L 94.261549 68.553734 
L 94.190368 68.655332 
L 93.976826 68.70665 
L 93.905646 68.862718 
L 93.692104 68.968564 
L 93.620924 69.075885 
L 93.336201 69.130109 
L 93.265021 69.350848 
L 93.12266 69.407015 
L 93.12266 69.463582 
L 92.909118 69.463582 
L 92.837937 69.693953 
L 92.624396 69.693953 
L 92.553215 69.9311 
L 92.410854 69.99148 
L 92.339674 70.113588 
L 92.197312 70.113588 
L 92.126132 70.300192 
L 91.983771 70.363332 
L 91.91259 70.491054 
L 91.556687 70.491054 
L 91.485507 70.886144 
L 91.343146 70.953793 
L 91.271965 71.090689 
L 90.844882 71.159949 
L 90.773701 71.587284 
L 90.63134 71.660533 
L 90.560159 71.808832 
L 90.417798 71.883897 
L 90.417798 71.959583 
L 90.204257 71.959583 
L 90.133076 72.268685 
L 89.990715 72.347591 
L 89.919534 72.507417 
L 89.634812 72.507417 
L 89.563632 72.919144 
L 89.278909 73.003647 
L 89.207729 73.349169 
L 89.065368 73.437478 
L 88.994187 73.616482 
L 88.567104 73.707199 
L 88.495923 74.269224 
L 88.06884 74.365958 
L 87.997659 74.965899 
L 87.855298 75.069271 
L 87.784118 75.279039 
L 87.428215 75.385466 
L 87.357034 75.933644 
L 87.285854 75.933644 
L 87.214673 76.160706 
L 87.143492 76.160706 
L 87.072312 76.392426 
L 87.001131 76.392426 
L 86.929951 76.628949 
L 86.502867 76.628949 
L 86.502867 77.368872 
L 86.218145 77.368872 
L 86.146965 78.022742 
L 86.075784 78.022742 
L 86.004603 78.294462 
L 85.933423 78.294462 
L 85.933423 78.432598 
L 85.719881 78.432598 
L 85.719881 78.856427 
L 85.57752 78.856427 
L 85.57752 79.147098 
L 85.435159 79.147098 
L 85.363978 79.595854 
L 85.292798 79.595854 
L 85.221617 79.903876 
L 85.150437 79.903876 
L 85.079256 80.219276 
L 85.079256 77.400734 
L 85.008076 77.400734 
L 84.936895 77.691377 
L 84.865714 77.691377 
L 84.794534 77.989197 
L 84.723353 77.989197 
L 84.652173 78.294462 
L 84.580992 78.294462 
L 84.509812 78.607455 
L 84.438631 78.607455 
L 84.438631 78.766942 
L 84.29627 78.766942 
L 84.29627 79.092089 
L 84.153909 79.092089 
L 84.082728 79.595854 
L 84.011548 79.595854 
L 84.011548 79.768224 
L 83.869187 79.768224 
L 83.798006 80.29931 
L 83.726825 80.29931 
L 83.655645 80.665492 
L 83.584464 80.665492 
L 83.584464 80.852371 
L 83.442103 80.852371 
L 83.370923 81.428802 
L 83.299742 81.428802 
L 83.228562 81.826813 
L 83.157381 81.826813 
L 83.0862 82.236361 
L 82.943839 82.236361 
L 82.943839 82.657955 
L 82.801478 82.657955 
L 82.730298 83.314119 
L 82.659117 83.314119 
L 82.659117 83.539469 
L 82.516756 83.539469 
L 82.516756 84.000568 
L 82.516756 76.749058 
L 82.445575 76.931586 
L 82.374395 76.931586 
L 82.303214 77.305403 
L 82.089673 77.305403 
L 82.018492 78.090111 
L 81.947311 78.090111 
L 81.876131 78.502247 
L 81.80495 78.502247 
L 81.73377 78.928473 
L 81.662589 78.928473 
L 81.591409 79.369525 
L 81.449047 79.369525 
L 81.377867 80.060637 
L 81.306686 80.060637 
L 81.235506 80.542322 
L 81.021964 80.542322 
L 81.021964 81.298611 
L 81.021964 76.894851 
L 80.950784 77.117011 
L 80.879603 77.117011 
L 80.808422 77.574273 
L 80.737242 77.574273 
L 80.666061 78.049645 
L 80.594881 78.049645 
L 80.5237 78.544224 
L 80.45252 78.544224 
L 80.381339 79.059197 
L 80.310158 79.059197 
L 80.238978 79.595854 
L 80.096617 79.595854 
L 80.025436 80.444589 
L 79.954256 80.444589 
L 79.954256 80.739936 
L 79.954256 75.547077 
L 79.883075 75.794033 
L 79.811895 75.794033 
L 79.740714 76.304976 
L 79.598353 76.304976 
L 79.527172 77.117011 
L 79.455992 77.117011 
L 79.384811 77.691377 
L 79.313631 77.691377 
L 79.24245 78.294462 
L 79.171269 78.294462 
L 79.100089 78.928473 
L 78.886547 78.928473 
L 78.815367 80.29931 
L 78.744186 80.29931 
L 78.673006 81.041846 
L 78.530644 81.041846 
L 78.530644 81.826813 
L 78.388283 81.826813 
L 78.317103 83.092133 
L 78.245922 83.092133 
L 78.245922 83.539469 
L 78.103561 83.539469 
L 78.03238 84.966681 
L 77.818839 84.966681 
L 77.747658 87.095405 
L 77.676478 87.095405 
L 77.605297 88.271806 
L 77.534117 88.271806 
L 77.462936 89.533762 
L 77.391755 89.533762 
L 77.320575 90.890961 
L 77.249394 90.890961 
L 77.249394 91.60871 
L 77.249394 82.657955 
L 77.035853 82.657955 
L 76.964672 85.133696 
L 76.893491 85.133696 
L 76.822311 86.536615 
L 76.75113 86.536615 
L 76.75113 87.285902 
L 76.608769 87.285902 
L 76.537589 89.753066 
L 76.466408 89.753066 
L 76.466408 90.657692 
L 76.324047 90.657692 
L 76.324047 80.29931 
L 76.252866 81.041846 
L 76.181686 81.041846 
L 76.110505 82.657955 
L 76.039325 82.657955 
L 75.968144 84.476077 
L 75.896964 84.476077 
L 75.825783 86.536615 
L 75.754602 86.536615 
L 75.683422 88.891516 
L 75.612241 88.891516 
L 75.612241 90.199795 
L 75.46988 90.199795 
L 75.3987 94.778769 
L 75.327519 94.778769 
L 75.256339 98.525203 
L 75.185158 98.525203 
L 75.113977 103.020923 
L 75.042797 103.020923 
L 74.971616 108.515692 
L 74.900436 108.515692 
L 74.829255 115.384154 
L 74.758075 115.384154 
L 74.686894 124.215033 
L 74.686894 91.60871 
L 74.615713 91.60871 
L 74.544533 98.525203 
L 74.473352 98.525203 
L 74.402172 108.515692 
L 74.330991 108.515692 
L 74.259811 124.215033 
L 74.18863 124.215033 
L 74.18863 135.989538 
L 74.046269 135.989538 
L 73.975088 218.411077 
L 73.903908 218.411077 
L 73.903908 53.568 
L 73.832727 53.568 
" clip-path="url(#p3ad6d9e23d)" style="fill: none; stroke: #1f77b4; stroke-width: 1.5; stroke-linecap: square"/>
            </g>
            <g id="patch_3">
                <path d="M 57.6 307.584
L 57.6 41.472 
" style="fill: none; stroke: #000000; stroke-width: 0.8; stroke-linejoin: miter; stroke-linecap: square"/>
            </g>
            <g id="patch_4">
                <path d="M 414.72 307.584
L 414.72 41.472 
" style="fill: none; stroke: #000000; stroke-width: 0.8; stroke-linejoin: miter; stroke-linecap: square"/>
            </g>
            <g id="patch_5">
                <path d="M 57.6 307.584
L 414.72 307.584 
" style="fill: none; stroke: #000000; stroke-width: 0.8; stroke-linejoin: miter; stroke-linecap: square"/>
            </g>
            <g id="patch_6">
                <path d="M 57.6 41.472
L 414.72 41.472 
" style="fill: none; stroke: #000000; stroke-width: 0.8; stroke-linejoin: miter; stroke-linecap: square"/>
            </g>
            <g id="legend_1">
                <g id="patch_7">
                    <path d="M 64.6 302.584
L 196.584375 302.584 
Q 198.584375 302.584 198.584375 300.584 
L 198.584375 286.905875 
Q 198.584375 284.905875 196.584375 284.905875 
L 64.6 284.905875 
Q 62.6 284.905875 62.6 286.905875 
L 62.6 300.584 
Q 62.6 302.584 64.6 302.584 
z
" style="fill: #ffffff; opacity: 0.8; stroke: #cccccc; stroke-linejoin: miter"/>
                </g>
                <g id="line2d_14">
                    <path d="M 66.6 293.004312
L 76.6 293.004312 
L 76.6 293.004312 
L 86.6 293.004312 
L 86.6 293.004312 
" style="fill: none; stroke: #1f77b4; stroke-width: 1.5; stroke-linecap: square"/>
                </g>
                <g id="text_15">
                    <!-- Pipeline (AP = 0.90) -->
                    <g transform="translate(94.6 296.504312) scale(0.1 -0.1)">
                        <defs>
                            <path id="DejaVuSans-70" d="M 1159 525
L 1159 -1331 
L 581 -1331 
L 581 3500 
L 1159 3500 
L 1159 2969 
Q 1341 3281 1617 3432 
Q 1894 3584 2278 3584 
Q 2916 3584 3314 3078 
Q 3713 2572 3713 1747 
Q 3713 922 3314 415 
Q 2916 -91 2278 -91 
Q 1894 -91 1617 61 
Q 1341 213 1159 525 
z
M 3116 1747 
Q 3116 2381 2855 2742 
Q 2594 3103 2138 3103 
Q 1681 3103 1420 2742 
Q 1159 2381 1159 1747 
Q 1159 1113 1420 752 
Q 1681 391 2138 391 
Q 2594 391 2855 752 
Q 3116 1113 3116 1747 
z
" transform="scale(0.015625)"/>
                            <path id="DejaVuSans-41" d="M 2188 4044
L 1331 1722 
L 3047 1722 
L 2188 4044 
z
M 1831 4666 
L 2547 4666 
L 4325 0 
L 3669 0 
L 3244 1197 
L 1141 1197 
L 716 0 
L 50 0 
L 1831 4666 
z
" transform="scale(0.015625)"/>
                            <path id="DejaVuSans-3d" d="M 678 2906
L 4684 2906 
L 4684 2381 
L 678 2381 
L 678 2906 
z
M 678 1631 
L 4684 1631 
L 4684 1100 
L 678 1100 
L 678 1631 
z
" transform="scale(0.015625)"/>
                        </defs>
                        <use xlink:href="#DejaVuSans-50"/>
                        <use xlink:href="#DejaVuSans-69" x="58.052734"/>
                        <use xlink:href="#DejaVuSans-70" x="85.835938"/>
                        <use xlink:href="#DejaVuSans-65" x="149.3125"/>
                        <use xlink:href="#DejaVuSans-6c" x="210.835938"/>
                        <use xlink:href="#DejaVuSans-69" x="238.619141"/>
                        <use xlink:href="#DejaVuSans-6e" x="266.402344"/>
                        <use xlink:href="#DejaVuSans-65" x="329.78125"/>
                        <use xlink:href="#DejaVuSans-20" x="391.304688"/>
                        <use xlink:href="#DejaVuSans-28" x="423.091797"/>
                        <use xlink:href="#DejaVuSans-41" x="462.105469"/>
                        <use xlink:href="#DejaVuSans-50" x="530.513672"/>
                        <use xlink:href="#DejaVuSans-20" x="590.816406"/>
                        <use xlink:href="#DejaVuSans-3d" x="622.603516"/>
                        <use xlink:href="#DejaVuSans-20" x="706.392578"/>
                        <use xlink:href="#DejaVuSans-30" x="738.179688"/>
                        <use xlink:href="#DejaVuSans-2e" x="801.802734"/>
                        <use xlink:href="#DejaVuSans-39" x="833.589844"/>
                        <use xlink:href="#DejaVuSans-30" x="897.212891"/>
                        <use xlink:href="#DejaVuSans-29" x="960.835938"/>
                    </g>
                </g>
            </g>
        </g>
    </g>
    <defs>
        <clipPath id="p3ad6d9e23d">
            <rect x="57.6" y="41.472" width="357.12" height="266.112"/>
        </clipPath>
    </defs>
</svg>
