<?xml version="1.0" encoding="utf-8" standalone="no"?>
<!DOCTYPE svg PUBLIC "-//W3C//DTD SVG 1.1//EN"
  "http://www.w3.org/Graphics/SVG/1.1/DTD/svg11.dtd">
<svg xmlns:xlink="http://www.w3.org/1999/xlink" width="460.8pt" height="345.6pt" viewBox="0 0 460.8 345.6" xmlns="http://www.w3.org/2000/svg" version="1.1">
 <metadata>
  <rdf:RDF xmlns:dc="http://purl.org/dc/elements/1.1/" xmlns:cc="http://creativecommons.org/ns#" xmlns:rdf="http://www.w3.org/1999/02/22-rdf-syntax-ns#">
   <cc:Work>
    <dc:type rdf:resource="http://purl.org/dc/dcmitype/StillImage"/>
    <dc:date>2022-11-21T17:16:22.987728</dc:date>
    <dc:format>image/svg+xml</dc:format>
    <dc:creator>
     <cc:Agent>
      <dc:title>Matplotlib v3.6.2, https://matplotlib.org/</dc:title>
     </cc:Agent>
    </dc:creator>
   </cc:Work>
  </rdf:RDF>
 </metadata>
 <defs>
  <style type="text/css">*{stroke-linejoin: round; stroke-linecap: butt}</style>
 </defs>
 <g id="figure_1">
  <g id="patch_1">
   <path d="M 0 345.6 
L 460.8 345.6 
L 460.8 0 
L 0 0 
z
" style="fill: #ffffff"/>
  </g>
  <g id="axes_1">
   <g id="patch_2">
    <path d="M 57.6 307.584 
L 414.72 307.584 
L 414.72 41.472 
L 57.6 41.472 
z
" style="fill: #ffffff"/>
   </g>
   <g id="matplotlib.axis_1">
    <g id="xtick_1">
     <g id="line2d_1">
      <defs>
       <path id="me0991c3008" d="M 0 0 
L 0 3.5 
" style="stroke: #000000; stroke-width: 0.8"/>
      </defs>
      <g>
       <use xlink:href="#me0991c3008" x="73.832727" y="307.584" style="stroke: #000000; stroke-width: 0.8"/>
      </g>
     </g>
     <g id="text_1">
      <!-- 0.0 -->
      <g transform="translate(65.881165 322.182437) scale(0.1 -0.1)">
       <defs>
        <path id="DejaVuSans-30" d="M 2034 4250 
Q 1547 4250 1301 3770 
Q 1056 3291 1056 2328 
Q 1056 1369 1301 889 
Q 1547 409 2034 409 
Q 2525 409 2770 889 
Q 3016 1369 3016 2328 
Q 3016 3291 2770 3770 
Q 2525 4250 2034 4250 
z
M 2034 4750 
Q 2819 4750 3233 4129 
Q 3647 3509 3647 2328 
Q 3647 1150 3233 529 
Q 2819 -91 2034 -91 
Q 1250 -91 836 529 
Q 422 1150 422 2328 
Q 422 3509 836 4129 
Q 1250 4750 2034 4750 
z
" transform="scale(0.015625)"/>
        <path id="DejaVuSans-2e" d="M 684 794 
L 1344 794 
L 1344 0 
L 684 0 
L 684 794 
z
" transform="scale(0.015625)"/>
       </defs>
       <use xlink:href="#DejaVuSans-30"/>
       <use xlink:href="#DejaVuSans-2e" x="63.623047"/>
       <use xlink:href="#DejaVuSans-30" x="95.410156"/>
      </g>
     </g>
    </g>
    <g id="xtick_2">
     <g id="line2d_2">
      <g>
       <use xlink:href="#me0991c3008" x="138.763636" y="307.584" style="stroke: #000000; stroke-width: 0.8"/>
      </g>
     </g>
     <g id="text_2">
      <!-- 0.2 -->
      <g transform="translate(130.812074 322.182437) scale(0.1 -0.1)">
       <defs>
        <path id="DejaVuSans-32" d="M 1228 531 
L 3431 531 
L 3431 0 
L 469 0 
L 469 531 
Q 828 903 1448 1529 
Q 2069 2156 2228 2338 
Q 2531 2678 2651 2914 
Q 2772 3150 2772 3378 
Q 2772 3750 2511 3984 
Q 2250 4219 1831 4219 
Q 1534 4219 1204 4116 
Q 875 4013 500 3803 
L 500 4441 
Q 881 4594 1212 4672 
Q 1544 4750 1819 4750 
Q 2544 4750 2975 4387 
Q 3406 4025 3406 3419 
Q 3406 3131 3298 2873 
Q 3191 2616 2906 2266 
Q 2828 2175 2409 1742 
Q 1991 1309 1228 531 
z
" transform="scale(0.015625)"/>
       </defs>
       <use xlink:href="#DejaVuSans-30"/>
       <use xlink:href="#DejaVuSans-2e" x="63.623047"/>
       <use xlink:href="#DejaVuSans-32" x="95.410156"/>
      </g>
     </g>
    </g>
    <g id="xtick_3">
     <g id="line2d_3">
      <g>
       <use xlink:href="#me0991c3008" x="203.694545" y="307.584" style="stroke: #000000; stroke-width: 0.8"/>
      </g>
     </g>
     <g id="text_3">
      <!-- 0.4 -->
      <g transform="translate(195.742983 322.182437) scale(0.1 -0.1)">
       <defs>
        <path id="DejaVuSans-34" d="M 2419 4116 
L 825 1625 
L 2419 1625 
L 2419 4116 
z
M 2253 4666 
L 3047 4666 
L 3047 1625 
L 3713 1625 
L 3713 1100 
L 3047 1100 
L 3047 0 
L 2419 0 
L 2419 1100 
L 313 1100 
L 313 1709 
L 2253 4666 
z
" transform="scale(0.015625)"/>
       </defs>
       <use xlink:href="#DejaVuSans-30"/>
       <use xlink:href="#DejaVuSans-2e" x="63.623047"/>
       <use xlink:href="#DejaVuSans-34" x="95.410156"/>
      </g>
     </g>
    </g>
    <g id="xtick_4">
     <g id="line2d_4">
      <g>
       <use xlink:href="#me0991c3008" x="268.625455" y="307.584" style="stroke: #000000; stroke-width: 0.8"/>
      </g>
     </g>
     <g id="text_4">
      <!-- 0.6 -->
      <g transform="translate(260.673892 322.182437) scale(0.1 -0.1)">
       <defs>
        <path id="DejaVuSans-36" d="M 2113 2584 
Q 1688 2584 1439 2293 
Q 1191 2003 1191 1497 
Q 1191 994 1439 701 
Q 1688 409 2113 409 
Q 2538 409 2786 701 
Q 3034 994 3034 1497 
Q 3034 2003 2786 2293 
Q 2538 2584 2113 2584 
z
M 3366 4563 
L 3366 3988 
Q 3128 4100 2886 4159 
Q 2644 4219 2406 4219 
Q 1781 4219 1451 3797 
Q 1122 3375 1075 2522 
Q 1259 2794 1537 2939 
Q 1816 3084 2150 3084 
Q 2853 3084 3261 2657 
Q 3669 2231 3669 1497 
Q 3669 778 3244 343 
Q 2819 -91 2113 -91 
Q 1303 -91 875 529 
Q 447 1150 447 2328 
Q 447 3434 972 4092 
Q 1497 4750 2381 4750 
Q 2619 4750 2861 4703 
Q 3103 4656 3366 4563 
z
" transform="scale(0.015625)"/>
       </defs>
       <use xlink:href="#DejaVuSans-30"/>
       <use xlink:href="#DejaVuSans-2e" x="63.623047"/>
       <use xlink:href="#DejaVuSans-36" x="95.410156"/>
      </g>
     </g>
    </g>
    <g id="xtick_5">
     <g id="line2d_5">
      <g>
       <use xlink:href="#me0991c3008" x="333.556364" y="307.584" style="stroke: #000000; stroke-width: 0.8"/>
      </g>
     </g>
     <g id="text_5">
      <!-- 0.8 -->
      <g transform="translate(325.604801 322.182437) scale(0.1 -0.1)">
       <defs>
        <path id="DejaVuSans-38" d="M 2034 2216 
Q 1584 2216 1326 1975 
Q 1069 1734 1069 1313 
Q 1069 891 1326 650 
Q 1584 409 2034 409 
Q 2484 409 2743 651 
Q 3003 894 3003 1313 
Q 3003 1734 2745 1975 
Q 2488 2216 2034 2216 
z
M 1403 2484 
Q 997 2584 770 2862 
Q 544 3141 544 3541 
Q 544 4100 942 4425 
Q 1341 4750 2034 4750 
Q 2731 4750 3128 4425 
Q 3525 4100 3525 3541 
Q 3525 3141 3298 2862 
Q 3072 2584 2669 2484 
Q 3125 2378 3379 2068 
Q 3634 1759 3634 1313 
Q 3634 634 3220 271 
Q 2806 -91 2034 -91 
Q 1263 -91 848 271 
Q 434 634 434 1313 
Q 434 1759 690 2068 
Q 947 2378 1403 2484 
z
M 1172 3481 
Q 1172 3119 1398 2916 
Q 1625 2713 2034 2713 
Q 2441 2713 2670 2916 
Q 2900 3119 2900 3481 
Q 2900 3844 2670 4047 
Q 2441 4250 2034 4250 
Q 1625 4250 1398 4047 
Q 1172 3844 1172 3481 
z
" transform="scale(0.015625)"/>
       </defs>
       <use xlink:href="#DejaVuSans-30"/>
       <use xlink:href="#DejaVuSans-2e" x="63.623047"/>
       <use xlink:href="#DejaVuSans-38" x="95.410156"/>
      </g>
     </g>
    </g>
    <g id="xtick_6">
     <g id="line2d_6">
      <g>
       <use xlink:href="#me0991c3008" x="398.487273" y="307.584" style="stroke: #000000; stroke-width: 0.8"/>
      </g>
     </g>
     <g id="text_6">
      <!-- 1.0 -->
      <g transform="translate(390.53571 322.182437) scale(0.1 -0.1)">
       <defs>
        <path id="DejaVuSans-31" d="M 794 531 
L 1825 531 
L 1825 4091 
L 703 3866 
L 703 4441 
L 1819 4666 
L 2450 4666 
L 2450 531 
L 3481 531 
L 3481 0 
L 794 0 
L 794 531 
z
" transform="scale(0.015625)"/>
       </defs>
       <use xlink:href="#DejaVuSans-31"/>
       <use xlink:href="#DejaVuSans-2e" x="63.623047"/>
       <use xlink:href="#DejaVuSans-30" x="95.410156"/>
      </g>
     </g>
    </g>
    <g id="text_7">
     <!-- Recall -->
     <g transform="translate(221.242812 335.860562) scale(0.1 -0.1)">
      <defs>
       <path id="DejaVuSans-52" d="M 2841 2188 
Q 3044 2119 3236 1894 
Q 3428 1669 3622 1275 
L 4263 0 
L 3584 0 
L 2988 1197 
Q 2756 1666 2539 1819 
Q 2322 1972 1947 1972 
L 1259 1972 
L 1259 0 
L 628 0 
L 628 4666 
L 2053 4666 
Q 2853 4666 3247 4331 
Q 3641 3997 3641 3322 
Q 3641 2881 3436 2590 
Q 3231 2300 2841 2188 
z
M 1259 4147 
L 1259 2491 
L 2053 2491 
Q 2509 2491 2742 2702 
Q 2975 2913 2975 3322 
Q 2975 3731 2742 3939 
Q 2509 4147 2053 4147 
L 1259 4147 
z
" transform="scale(0.015625)"/>
       <path id="DejaVuSans-65" d="M 3597 1894 
L 3597 1613 
L 953 1613 
Q 991 1019 1311 708 
Q 1631 397 2203 397 
Q 2534 397 2845 478 
Q 3156 559 3463 722 
L 3463 178 
Q 3153 47 2828 -22 
Q 2503 -91 2169 -91 
Q 1331 -91 842 396 
Q 353 884 353 1716 
Q 353 2575 817 3079 
Q 1281 3584 2069 3584 
Q 2775 3584 3186 3129 
Q 3597 2675 3597 1894 
z
M 3022 2063 
Q 3016 2534 2758 2815 
Q 2500 3097 2075 3097 
Q 1594 3097 1305 2825 
Q 1016 2553 972 2059 
L 3022 2063 
z
" transform="scale(0.015625)"/>
       <path id="DejaVuSans-63" d="M 3122 3366 
L 3122 2828 
Q 2878 2963 2633 3030 
Q 2388 3097 2138 3097 
Q 1578 3097 1268 2742 
Q 959 2388 959 1747 
Q 959 1106 1268 751 
Q 1578 397 2138 397 
Q 2388 397 2633 464 
Q 2878 531 3122 666 
L 3122 134 
Q 2881 22 2623 -34 
Q 2366 -91 2075 -91 
Q 1284 -91 818 406 
Q 353 903 353 1747 
Q 353 2603 823 3093 
Q 1294 3584 2113 3584 
Q 2378 3584 2631 3529 
Q 2884 3475 3122 3366 
z
" transform="scale(0.015625)"/>
       <path id="DejaVuSans-61" d="M 2194 1759 
Q 1497 1759 1228 1600 
Q 959 1441 959 1056 
Q 959 750 1161 570 
Q 1363 391 1709 391 
Q 2188 391 2477 730 
Q 2766 1069 2766 1631 
L 2766 1759 
L 2194 1759 
z
M 3341 1997 
L 3341 0 
L 2766 0 
L 2766 531 
Q 2569 213 2275 61 
Q 1981 -91 1556 -91 
Q 1019 -91 701 211 
Q 384 513 384 1019 
Q 384 1609 779 1909 
Q 1175 2209 1959 2209 
L 2766 2209 
L 2766 2266 
Q 2766 2663 2505 2880 
Q 2244 3097 1772 3097 
Q 1472 3097 1187 3025 
Q 903 2953 641 2809 
L 641 3341 
Q 956 3463 1253 3523 
Q 1550 3584 1831 3584 
Q 2591 3584 2966 3190 
Q 3341 2797 3341 1997 
z
" transform="scale(0.015625)"/>
       <path id="DejaVuSans-6c" d="M 603 4863 
L 1178 4863 
L 1178 0 
L 603 0 
L 603 4863 
z
" transform="scale(0.015625)"/>
      </defs>
      <use xlink:href="#DejaVuSans-52"/>
      <use xlink:href="#DejaVuSans-65" x="64.982422"/>
      <use xlink:href="#DejaVuSans-63" x="126.505859"/>
      <use xlink:href="#DejaVuSans-61" x="181.486328"/>
      <use xlink:href="#DejaVuSans-6c" x="242.765625"/>
      <use xlink:href="#DejaVuSans-6c" x="270.548828"/>
     </g>
    </g>
   </g>
   <g id="matplotlib.axis_2">
    <g id="ytick_1">
     <g id="line2d_7">
      <defs>
       <path id="mbc689adc1f" d="M 0 0 
L -3.5 0 
" style="stroke: #000000; stroke-width: 0.8"/>
      </defs>
      <g>
       <use xlink:href="#mbc689adc1f" x="57.6" y="294.328553" style="stroke: #000000; stroke-width: 0.8"/>
      </g>
     </g>
     <g id="text_8">
      <!-- 0.5 -->
      <g transform="translate(34.696875 298.127772) scale(0.1 -0.1)">
       <defs>
        <path id="DejaVuSans-35" d="M 691 4666 
L 3169 4666 
L 3169 4134 
L 1269 4134 
L 1269 2991 
Q 1406 3038 1543 3061 
Q 1681 3084 1819 3084 
Q 2600 3084 3056 2656 
Q 3513 2228 3513 1497 
Q 3513 744 3044 326 
Q 2575 -91 1722 -91 
Q 1428 -91 1123 -41 
Q 819 9 494 109 
L 494 744 
Q 775 591 1075 516 
Q 1375 441 1709 441 
Q 2250 441 2565 725 
Q 2881 1009 2881 1497 
Q 2881 1984 2565 2268 
Q 2250 2553 1709 2553 
Q 1456 2553 1204 2497 
Q 953 2441 691 2322 
L 691 4666 
z
" transform="scale(0.015625)"/>
       </defs>
       <use xlink:href="#DejaVuSans-30"/>
       <use xlink:href="#DejaVuSans-2e" x="63.623047"/>
       <use xlink:href="#DejaVuSans-35" x="95.410156"/>
      </g>
     </g>
    </g>
    <g id="ytick_2">
     <g id="line2d_8">
      <g>
       <use xlink:href="#mbc689adc1f" x="57.6" y="246.176442" style="stroke: #000000; stroke-width: 0.8"/>
      </g>
     </g>
     <g id="text_9">
      <!-- 0.6 -->
      <g transform="translate(34.696875 249.975661) scale(0.1 -0.1)">
       <use xlink:href="#DejaVuSans-30"/>
       <use xlink:href="#DejaVuSans-2e" x="63.623047"/>
       <use xlink:href="#DejaVuSans-36" x="95.410156"/>
      </g>
     </g>
    </g>
    <g id="ytick_3">
     <g id="line2d_9">
      <g>
       <use xlink:href="#mbc689adc1f" x="57.6" y="198.024332" style="stroke: #000000; stroke-width: 0.8"/>
      </g>
     </g>
     <g id="text_10">
      <!-- 0.7 -->
      <g transform="translate(34.696875 201.82355) scale(0.1 -0.1)">
       <defs>
        <path id="DejaVuSans-37" d="M 525 4666 
L 3525 4666 
L 3525 4397 
L 1831 0 
L 1172 0 
L 2766 4134 
L 525 4134 
L 525 4666 
z
" transform="scale(0.015625)"/>
       </defs>
       <use xlink:href="#DejaVuSans-30"/>
       <use xlink:href="#DejaVuSans-2e" x="63.623047"/>
       <use xlink:href="#DejaVuSans-37" x="95.410156"/>
      </g>
     </g>
    </g>
    <g id="ytick_4">
     <g id="line2d_10">
      <g>
       <use xlink:href="#mbc689adc1f" x="57.6" y="149.872221" style="stroke: #000000; stroke-width: 0.8"/>
      </g>
     </g>
     <g id="text_11">
      <!-- 0.8 -->
      <g transform="translate(34.696875 153.67144) scale(0.1 -0.1)">
       <use xlink:href="#DejaVuSans-30"/>
       <use xlink:href="#DejaVuSans-2e" x="63.623047"/>
       <use xlink:href="#DejaVuSans-38" x="95.410156"/>
      </g>
     </g>
    </g>
    <g id="ytick_5">
     <g id="line2d_11">
      <g>
       <use xlink:href="#mbc689adc1f" x="57.6" y="101.720111" style="stroke: #000000; stroke-width: 0.8"/>
      </g>
     </g>
     <g id="text_12">
      <!-- 0.9 -->
      <g transform="translate(34.696875 105.519329) scale(0.1 -0.1)">
       <defs>
        <path id="DejaVuSans-39" d="M 703 97 
L 703 672 
Q 941 559 1184 500 
Q 1428 441 1663 441 
Q 2288 441 2617 861 
Q 2947 1281 2994 2138 
Q 2813 1869 2534 1725 
Q 2256 1581 1919 1581 
Q 1219 1581 811 2004 
Q 403 2428 403 3163 
Q 403 3881 828 4315 
Q 1253 4750 1959 4750 
Q 2769 4750 3195 4129 
Q 3622 3509 3622 2328 
Q 3622 1225 3098 567 
Q 2575 -91 1691 -91 
Q 1453 -91 1209 -44 
Q 966 3 703 97 
z
M 1959 2075 
Q 2384 2075 2632 2365 
Q 2881 2656 2881 3163 
Q 2881 3666 2632 3958 
Q 2384 4250 1959 4250 
Q 1534 4250 1286 3958 
Q 1038 3666 1038 3163 
Q 1038 2656 1286 2365 
Q 1534 2075 1959 2075 
z
" transform="scale(0.015625)"/>
       </defs>
       <use xlink:href="#DejaVuSans-30"/>
       <use xlink:href="#DejaVuSans-2e" x="63.623047"/>
       <use xlink:href="#DejaVuSans-39" x="95.410156"/>
      </g>
     </g>
    </g>
    <g id="ytick_6">
     <g id="line2d_12">
      <g>
       <use xlink:href="#mbc689adc1f" x="57.6" y="53.568" style="stroke: #000000; stroke-width: 0.8"/>
      </g>
     </g>
     <g id="text_13">
      <!-- 1.0 -->
      <g transform="translate(34.696875 57.367219) scale(0.1 -0.1)">
       <use xlink:href="#DejaVuSans-31"/>
       <use xlink:href="#DejaVuSans-2e" x="63.623047"/>
       <use xlink:href="#DejaVuSans-30" x="95.410156"/>
      </g>
     </g>
    </g>
    <g id="text_14">
     <!-- Precision -->
     <g transform="translate(28.617187 196.835031) rotate(-90) scale(0.1 -0.1)">
      <defs>
       <path id="DejaVuSans-50" d="M 1259 4147 
L 1259 2394 
L 2053 2394 
Q 2494 2394 2734 2622 
Q 2975 2850 2975 3272 
Q 2975 3691 2734 3919 
Q 2494 4147 2053 4147 
L 1259 4147 
z
M 628 4666 
L 2053 4666 
Q 2838 4666 3239 4311 
Q 3641 3956 3641 3272 
Q 3641 2581 3239 2228 
Q 2838 1875 2053 1875 
L 1259 1875 
L 1259 0 
L 628 0 
L 628 4666 
z
" transform="scale(0.015625)"/>
       <path id="DejaVuSans-72" d="M 2631 2963 
Q 2534 3019 2420 3045 
Q 2306 3072 2169 3072 
Q 1681 3072 1420 2755 
Q 1159 2438 1159 1844 
L 1159 0 
L 581 0 
L 581 3500 
L 1159 3500 
L 1159 2956 
Q 1341 3275 1631 3429 
Q 1922 3584 2338 3584 
Q 2397 3584 2469 3576 
Q 2541 3569 2628 3553 
L 2631 2963 
z
" transform="scale(0.015625)"/>
       <path id="DejaVuSans-69" d="M 603 3500 
L 1178 3500 
L 1178 0 
L 603 0 
L 603 3500 
z
M 603 4863 
L 1178 4863 
L 1178 4134 
L 603 4134 
L 603 4863 
z
" transform="scale(0.015625)"/>
       <path id="DejaVuSans-73" d="M 2834 3397 
L 2834 2853 
Q 2591 2978 2328 3040 
Q 2066 3103 1784 3103 
Q 1356 3103 1142 2972 
Q 928 2841 928 2578 
Q 928 2378 1081 2264 
Q 1234 2150 1697 2047 
L 1894 2003 
Q 2506 1872 2764 1633 
Q 3022 1394 3022 966 
Q 3022 478 2636 193 
Q 2250 -91 1575 -91 
Q 1294 -91 989 -36 
Q 684 19 347 128 
L 347 722 
Q 666 556 975 473 
Q 1284 391 1588 391 
Q 1994 391 2212 530 
Q 2431 669 2431 922 
Q 2431 1156 2273 1281 
Q 2116 1406 1581 1522 
L 1381 1569 
Q 847 1681 609 1914 
Q 372 2147 372 2553 
Q 372 3047 722 3315 
Q 1072 3584 1716 3584 
Q 2034 3584 2315 3537 
Q 2597 3491 2834 3397 
z
" transform="scale(0.015625)"/>
       <path id="DejaVuSans-6f" d="M 1959 3097 
Q 1497 3097 1228 2736 
Q 959 2375 959 1747 
Q 959 1119 1226 758 
Q 1494 397 1959 397 
Q 2419 397 2687 759 
Q 2956 1122 2956 1747 
Q 2956 2369 2687 2733 
Q 2419 3097 1959 3097 
z
M 1959 3584 
Q 2709 3584 3137 3096 
Q 3566 2609 3566 1747 
Q 3566 888 3137 398 
Q 2709 -91 1959 -91 
Q 1206 -91 779 398 
Q 353 888 353 1747 
Q 353 2609 779 3096 
Q 1206 3584 1959 3584 
z
" transform="scale(0.015625)"/>
       <path id="DejaVuSans-6e" d="M 3513 2113 
L 3513 0 
L 2938 0 
L 2938 2094 
Q 2938 2591 2744 2837 
Q 2550 3084 2163 3084 
Q 1697 3084 1428 2787 
Q 1159 2491 1159 1978 
L 1159 0 
L 581 0 
L 581 3500 
L 1159 3500 
L 1159 2956 
Q 1366 3272 1645 3428 
Q 1925 3584 2291 3584 
Q 2894 3584 3203 3211 
Q 3513 2838 3513 2113 
z
" transform="scale(0.015625)"/>
      </defs>
      <use xlink:href="#DejaVuSans-50"/>
      <use xlink:href="#DejaVuSans-72" x="58.552734"/>
      <use xlink:href="#DejaVuSans-65" x="97.416016"/>
      <use xlink:href="#DejaVuSans-63" x="158.939453"/>
      <use xlink:href="#DejaVuSans-69" x="213.919922"/>
      <use xlink:href="#DejaVuSans-73" x="241.703125"/>
      <use xlink:href="#DejaVuSans-69" x="293.802734"/>
      <use xlink:href="#DejaVuSans-6f" x="321.585938"/>
      <use xlink:href="#DejaVuSans-6e" x="382.767578"/>
     </g>
    </g>
   </g>
   <g id="line2d_13">
    <path d="M 398.487273 295.488 
L 398.414202 280.91005 
L 398.341131 280.91005 
L 398.341131 280.90686 
L 398.26806 278.216138 
L 398.194989 278.216138 
L 398.194989 278.119619 
L 398.194989 277.376037 
L 397.975776 277.376037 
L 397.975776 277.270442 
L 397.902705 271.734055 
L 397.756563 271.734055 
L 397.756563 271.625385 
L 397.683491 270.147884 
L 397.61042 270.147884 
L 397.61042 270.141879 
L 397.537349 263.973384 
L 397.464278 263.973384 
L 397.464278 263.931194 
L 397.391207 262.46726 
L 397.318136 262.46726 
L 397.318136 262.389357 
L 397.318136 261.619711 
L 396.952781 261.619711 
L 396.952781 261.542558 
L 396.87971 258.117364 
L 396.806639 258.117364 
L 396.806639 258.071888 
L 396.733568 255.734797 
L 396.514355 255.71452 
L 396.514355 255.630937 
L 396.514355 253.110959 
L 396.441284 253.137424 
L 396.368213 253.137424 
L 396.368213 253.051664 
L 396.295142 251.34593 
L 396.222071 251.34593 
L 396.222071 251.296544 
L 396.149 250.333831 
L 396.075929 250.333831 
L 396.075929 250.245635 
L 396.002858 247.49407 
L 395.929787 247.49407 
L 395.929787 247.403414 
L 395.856716 243.836908 
L 395.783645 243.836908 
L 395.783645 243.743048 
L 395.710574 242.805728 
L 395.637503 242.805728 
L 395.637503 242.710924 
L 395.564432 241.603858 
L 395.41829 241.507955 
L 395.41829 240.841065 
L 395.272148 240.841065 
L 395.272148 240.770453 
L 395.199077 240.181736 
L 395.126006 240.181736 
L 395.126006 240.084466 
L 395.052935 238.830634 
L 394.979864 238.830634 
L 394.979864 238.815095 
L 394.906793 238.342438 
L 394.833722 238.342438 
L 394.833722 238.28509 
L 394.760651 237.559464 
L 394.68758 237.559464 
L 394.68758 237.459717 
L 394.614509 236.93993 
L 394.468367 236.881665 
L 394.468367 236.865448 
L 394.395296 234.942318 
L 394.249154 234.968093 
L 394.249154 234.865865 
L 394.249154 234.823172 
L 394.176082 234.848951 
L 394.103011 234.848951 
L 394.103011 234.746569 
L 394.02994 232.533114 
L 393.956869 232.533114 
L 393.956869 232.428566 
L 393.883798 232.193451 
L 393.810727 232.193451 
L 393.810727 232.132077 
L 393.737656 231.503362 
L 393.664585 231.503362 
L 393.664585 231.397769 
L 393.591514 230.985143 
L 393.445372 230.879021 
L 393.445372 230.904629 
L 393.372301 229.78364 
L 393.29923 229.78364 
L 393.29923 229.676328 
L 393.226159 228.500795 
L 393.153088 228.500795 
L 393.153088 228.392235 
L 393.153088 228.213324 
L 393.080017 228.238798 
L 393.006946 228.238798 
L 393.006946 228.174734 
L 392.933875 226.941001 
L 392.860804 226.941001 
L 392.860804 226.830873 
L 392.787733 226.222151 
L 392.641591 226.247526 
L 392.641591 226.136667 
L 392.56852 224.287824 
L 392.495449 224.287824 
L 392.495449 224.221076 
L 392.422378 223.276835 
L 392.349307 223.276835 
L 392.349307 223.209388 
L 392.276236 221.650871 
L 392.203165 221.650871 
L 392.203165 221.675981 
L 392.130094 221.091211 
L 391.910881 221.000283 
L 391.83781 218.966033 
L 391.764739 218.966033 
L 391.764739 218.895576 
L 391.764739 218.847848 
L 391.691668 218.8728 
L 391.618597 218.8728 
L 391.618597 218.802247 
L 391.545526 218.252882 
L 391.399384 218.277808 
L 391.399384 218.206803 
L 391.326313 216.78556 
L 391.180171 216.78556 
L 391.180171 216.689873 
L 391.1071 215.742131 
L 390.960958 215.718117 
L 390.960958 215.645266 
L 390.887887 215.327845 
L 390.814816 215.327845 
L 390.814816 215.254692 
L 390.741745 214.346204 
L 390.668674 214.346204 
L 390.668674 214.27234 
L 390.595602 213.951568 
L 390.522531 213.951568 
L 390.522531 213.877397 
L 390.44946 213.208367 
L 390.376389 213.208367 
L 390.376389 213.133645 
L 390.303318 212.560818 
L 390.230247 212.560818 
L 390.230247 212.485611 
L 390.157176 212.210409 
L 390.084105 212.210409 
L 390.084105 212.134922 
L 390.011034 211.909049 
L 389.791821 211.857881 
L 389.791821 211.832273 
L 389.71875 211.756434 
L 389.645679 211.756434 
L 389.645679 211.680525 
L 389.645679 211.177165 
L 389.426466 211.175811 
L 389.353395 210.314327 
L 389.280324 210.314327 
L 389.280324 210.237314 
L 389.207253 210.058594 
L 389.134182 210.058594 
L 389.134182 209.981365 
L 389.061111 209.547333 
L 388.98804 209.547333 
L 388.914969 208.982775 
L 388.768827 208.955958 
L 388.768827 208.877857 
L 388.695756 208.234278 
L 388.622685 208.234278 
L 388.622685 208.155627 
L 388.549614 207.76723 
L 388.403472 207.739898 
L 388.330401 207.167138 
L 388.25733 207.167138 
L 388.25733 207.139546 
L 388.184259 206.956079 
L 387.965046 206.900684 
L 387.891975 206.793149 
L 387.818904 206.793149 
L 387.745833 206.058619 
L 387.599691 205.978165 
L 387.599691 206.002423 
L 387.52662 205.659607 
L 387.453549 205.659607 
L 387.453549 205.578808 
L 387.453549 205.21064 
L 387.380478 205.234849 
L 387.307407 205.234849 
L 387.307407 205.153705 
L 387.307407 204.89001 
L 387.234336 204.914202 
L 387.015122 204.856986 
L 387.015122 204.881192 
L 387.015122 204.722616 
L 386.942051 204.746817 
L 386.86898 204.746817 
L 386.86898 204.665204 
L 386.86898 204.400357 
L 386.795909 204.42454 
L 386.722838 204.42454 
L 386.649767 203.035006 
L 386.503625 202.952066 
L 386.503625 202.761878 
L 386.430554 202.785945 
L 386.065199 202.882293 
L 386.065199 202.906399 
L 385.992128 202.608394 
L 385.919057 202.608394 
L 385.845986 201.686297 
L 385.772915 201.686297 
L 385.772915 201.602149 
L 385.699844 201.138492 
L 385.553702 201.162475 
L 385.553702 201.07788 
L 385.480631 200.394269 
L 385.261418 200.332995 
L 385.261418 200.302327 
L 385.261418 199.316371 
L 385.188347 199.340221 
L 385.115276 199.340221 
L 385.115276 199.25415 
L 385.042205 198.727225 
L 384.896063 198.695854 
L 384.896063 198.719669 
L 384.822992 198.245939 
L 384.749921 198.245939 
L 384.749921 198.158945 
L 384.67685 197.349488 
L 384.603779 197.349488 
L 384.603779 197.317497 
L 384.603779 197.150283 
L 384.530708 197.173981 
L 384.457637 197.173981 
L 384.457637 197.086097 
L 384.457637 196.415012 
L 384.384566 196.438651 
L 384.311495 196.438651 
L 384.311495 196.350169 
L 384.238424 195.868267 
L 384.019211 195.80291 
L 384.019211 195.770199 
L 383.94614 194.833433 
L 383.726927 194.80029 
L 383.726927 194.677202 
L 383.580784 194.677202 
L 383.580784 194.610713 
L 383.507713 194.236183 
L 383.361571 194.202736 
L 383.361571 194.169266 
L 383.2885 193.907596 
L 382.923145 193.830178 
L 382.923145 193.853676 
L 382.850074 193.247112 
L 382.703932 193.247112 
L 382.703932 193.179192 
L 382.630861 192.511969 
L 382.484719 192.419968 
L 382.484719 192.21231 
L 382.411648 192.235686 
L 382.338577 192.235686 
L 382.338577 192.143406 
L 382.265506 191.935199 
L 382.192435 191.935199 
L 382.192435 191.900613 
L 382.119364 191.575825 
L 382.046293 191.575825 
L 382.046293 191.482944 
L 381.973222 191.15711 
L 381.900151 191.15711 
L 381.900151 191.180418 
L 381.900151 191.005549 
L 381.680938 190.935452 
L 381.680938 190.841962 
L 381.607867 190.86526 
L 381.315583 190.759793 
L 381.315583 190.783105 
L 381.242512 190.044089 
L 380.731015 190.007194 
L 380.731015 189.97159 
L 380.731015 189.735854 
L 380.584873 189.735854 
L 380.584873 189.664362 
L 380.511802 189.451329 
L 380.36566 189.356293 
L 380.292589 188.810039 
L 380.000304 188.760814 
L 380.000304 188.724568 
L 379.927233 188.271377 
L 379.781091 188.234893 
L 379.781091 188.198385 
L 379.781091 187.959479 
L 379.70802 187.982622 
L 379.561878 188.005773 
L 379.561878 187.909318 
L 379.561878 187.490019 
L 379.488807 187.513129 
L 379.342665 187.476252 
L 379.269594 187.041687 
L 378.904239 187.01361 
L 378.904239 186.976445 
L 378.831168 186.75824 
L 378.611955 186.74403 
L 378.611955 186.464816 
L 378.538884 186.487889 
L 378.465813 186.487889 
L 378.465813 186.389872 
L 378.392742 185.258189 
L 378.173529 185.304114 
L 378.173529 185.26608 
L 378.173529 185.021833 
L 378.100458 185.044782 
L 378.027387 185.044782 
L 378.027387 184.945461 
L 378.027387 184.823098 
L 377.954316 184.846036 
L 377.881245 184.846036 
L 377.881245 184.868983 
L 377.881245 184.685237 
L 377.808174 184.708172 
L 377.735103 184.708172 
L 377.735103 184.608483 
L 377.735103 184.117098 
L 377.662032 184.139981 
L 377.588961 184.139981 
L 377.51589 183.754535 
L 377.150535 183.722562 
L 377.077464 183.397344 
L 376.712109 183.364915 
L 376.712109 183.325802 
L 376.712109 183.201767 
L 376.565966 183.201767 
L 376.565966 183.123343 
L 376.492895 182.835411 
L 376.419824 182.835411 
L 376.419824 182.73376 
L 376.346753 182.320148 
L 376.12754 182.280492 
L 376.12754 182.076025 
L 376.054469 182.098802 
L 375.981398 182.098802 
L 375.981398 182.121587 
L 375.908327 181.768507 
L 375.835256 181.768507 
L 375.835256 181.665783 
L 375.835256 181.414549 
L 375.542972 181.356952 
L 375.542972 181.316749 
L 375.542972 181.127802 
L 375.469901 181.150515 
L 375.250688 181.195967 
L 375.250688 181.09257 
L 375.177617 180.862734 
L 375.104546 180.862734 
L 375.104546 180.759011 
L 375.031475 179.384805 
L 374.812262 179.302349 
L 374.812262 179.197228 
L 374.739191 179.219775 
L 374.66612 179.219775 
L 374.66612 179.114534 
L 374.66612 178.922668 
L 374.373836 178.903711 
L 374.373836 178.884734 
L 374.300765 178.522423 
L 374.154623 178.480699 
L 374.154623 178.438945 
L 374.081552 178.268506 
L 373.93541 178.22663 
L 373.93541 178.184724 
L 373.862339 177.561862 
L 373.643126 177.542043 
L 373.570055 176.938684 
L 373.423913 176.831113 
L 373.423913 176.85348 
L 373.350842 176.745785 
L 373.058557 176.747818 
L 373.058557 176.639928 
L 372.985486 176.466692 
L 372.693202 176.403227 
L 372.693202 176.425598 
L 372.620131 175.990109 
L 372.54706 175.990109 
L 372.54706 175.88139 
L 372.473989 175.772553 
L 372.327847 175.663596 
L 372.327847 175.423039 
L 372.254776 175.445324 
L 372.181705 175.445324 
L 372.181705 175.336009 
L 372.181705 175.204303 
L 371.962492 175.117017 
L 371.962492 175.139287 
L 371.889421 174.897543 
L 371.743279 174.787625 
L 371.670208 174.169645 
L 371.158711 174.081293 
L 371.158711 174.125698 
L 371.08564 173.815063 
L 370.501072 173.770331 
L 370.501072 173.725762 
L 370.428001 173.346709 
L 370.35493 173.346709 
L 370.35493 173.301909 
L 370.281859 172.854519 
L 370.208788 172.854519 
L 370.135717 172.56254 
L 370.062646 172.56254 
L 369.989575 171.932232 
L 369.843433 171.954261 
L 369.843433 171.841061 
L 369.770362 171.253196 
L 369.697291 171.253196 
L 369.697291 171.275156 
L 369.62422 170.821224 
L 369.258864 170.840817 
L 369.258864 170.72642 
L 369.258864 170.658213 
L 369.185793 170.680136 
L 369.112722 170.680136 
L 369.112722 170.633817 
L 369.039651 170.31407 
L 368.96658 170.31407 
L 368.96658 170.199097 
L 368.893509 170.220983 
L 368.820438 170.220983 
L 368.820438 169.90017 
L 368.747367 169.922029 
L 368.674296 169.922029 
L 368.674296 169.87526 
L 368.601225 169.691036 
L 368.528154 169.691036 
L 368.528154 169.644127 
L 368.528154 169.506534 
L 368.089728 169.477982 
L 368.016657 168.831034 
L 367.943586 168.831034 
L 367.943586 168.852815 
L 367.870515 168.528203 
L 367.578231 168.454687 
L 367.578231 168.476446 
L 367.50516 168.359274 
L 367.432089 168.359274 
L 367.359018 168.054897 
L 367.139805 168.028684 
L 367.139805 167.980707 
L 367.066734 167.373749 
L 366.628308 167.342042 
L 366.628308 167.293629 
L 366.628308 167.08318 
L 366.409095 167.056276 
L 366.409095 167.00768 
L 366.409095 166.796745 
L 366.336024 166.818379 
L 366.262953 166.818379 
L 366.262953 166.769636 
L 366.189882 166.08586 
L 365.751455 165.981425 
L 365.751455 166.002993 
L 365.678384 165.670109 
L 365.239958 165.635809 
L 365.239958 165.586283 
L 365.166887 165.180696 
L 365.093816 165.180696 
L 365.093816 165.130908 
L 365.020745 164.866917 
L 364.65539 164.788402 
L 364.65539 164.831378 
L 364.65539 164.688255 
L 364.582319 164.709736 
L 364.509248 164.709736 
L 364.509248 164.731225 
L 364.509248 164.44457 
L 364.436177 164.466029 
L 364.143893 164.386883 
L 364.143893 164.408355 
L 364.143893 164.120839 
L 364.070822 164.14228 
L 363.778538 164.062651 
L 363.778538 164.084106 
L 363.778538 164.012052 
L 363.705467 164.033506 
L 363.413183 163.953647 
L 363.340112 163.490621 
L 363.267041 163.490621 
L 363.267041 163.439632 
L 363.267041 163.222251 
L 363.19397 163.243634 
L 362.974757 163.286426 
L 362.974757 163.162692 
L 362.974757 163.090079 
L 362.682473 163.081593 
L 362.682473 163.030284 
L 362.609402 162.833353 
L 362.244046 162.773139 
L 362.244046 162.794531 
L 362.170975 162.377791 
L 361.878691 162.368705 
L 361.878691 162.316875 
L 361.878691 162.097123 
L 361.80562 162.118454 
L 361.732549 162.118454 
L 361.732549 162.066464 
L 361.659478 161.794157 
L 361.367194 161.711038 
L 361.294123 161.45912 
L 361.07491 161.354209 
L 361.07491 161.375489 
L 361.001839 161.175265 
L 360.928768 161.175265 
L 360.928768 161.122625 
L 360.855697 160.551501 
L 360.198058 160.47715 
L 360.198058 160.445228 
L 360.198058 160.296412 
L 359.759632 160.253464 
L 359.759632 160.274686 
L 359.759632 160.125506 
L 359.540419 160.018593 
L 359.540419 160.039798 
L 359.467348 159.911509 
L 359.248135 159.879102 
L 359.248135 159.825451 
L 359.175064 159.62187 
L 358.809708 159.556552 
L 358.809708 159.577746 
L 358.809708 159.427511 
L 358.736637 159.448691 
L 358.517424 159.491077 
L 358.517424 159.361842 
L 358.517424 159.060597 
L 358.444353 159.081747 
L 358.298211 159.081747 
L 358.298211 158.973202 
L 358.298211 158.822212 
L 358.22514 158.843343 
L 357.932856 158.755589 
L 357.932856 158.776732 
L 357.932856 158.701076 
L 357.786714 158.701076 
L 357.786714 158.591919 
L 357.713643 158.461464 
L 357.640572 158.461464 
L 357.567501 158.276036 
L 357.202146 158.284512 
L 357.202146 158.229601 
L 357.202146 157.925129 
L 357.129075 157.946211 
L 356.909862 157.988401 
L 356.909862 157.857 
L 356.909862 157.780699 
L 356.544507 157.712297 
L 356.544507 157.733392 
L 356.544507 157.580462 
L 356.252223 157.490608 
L 356.252223 157.511692 
L 356.252223 157.435073 
L 356.179152 157.456154 
L 355.959939 157.498342 
L 355.959939 157.366028 
L 355.886868 157.233552 
L 355.813797 157.233552 
L 355.813797 157.254631 
L 355.740726 156.891136 
L 355.667655 156.891136 
L 355.667655 156.835154 
L 355.667655 156.7581 
L 355.594584 156.779125 
L 355.521512 156.779125 
L 355.521512 156.723051 
L 355.448441 156.435292 
L 354.936944 156.385645 
L 354.936944 156.42768 
L 354.936944 156.272808 
L 354.863873 156.293816 
L 354.717731 156.237325 
L 354.64466 155.268578 
L 354.279305 155.196067 
L 354.279305 155.216957 
L 354.206234 154.846981 
L 354.133163 154.846981 
L 354.060092 154.339943 
L 353.91395 154.282192 
L 353.91395 154.30297 
L 353.840879 153.615284 
L 353.621666 153.577762 
L 353.621666 153.519504 
L 353.621666 153.282456 
L 353.548595 153.303109 
L 353.256311 153.28599 
L 353.256311 153.306666 
L 353.18324 152.851733 
L 352.964027 152.813572 
L 352.964027 152.754742 
L 352.964027 152.516181 
L 352.890956 152.536765 
L 352.598672 152.518933 
L 352.598672 152.220615 
L 352.525601 152.241181 
L 352.306388 152.282337 
L 352.306388 152.143168 
L 352.233317 151.763696 
L 351.941032 151.664958 
L 351.941032 151.685481 
L 351.867961 151.545499 
L 350.918038 151.55077 
L 350.918038 151.57135 
L 350.918038 151.410175 
L 350.625754 151.391215 
L 350.625754 151.331069 
L 350.552683 151.028359 
L 350.406541 150.967971 
L 350.406541 150.907532 
L 350.114257 150.807016 
L 350.114257 150.665267 
L 350.041186 150.685773 
L 349.748902 150.747344 
L 349.748902 150.605347 
L 349.675831 150.46317 
L 349.60276 150.46317 
L 349.529689 149.93347 
L 349.237405 149.831345 
L 349.237405 149.851779 
L 349.164334 149.544795 
L 349.018192 149.483237 
L 349.018192 149.421627 
L 348.068268 149.337883 
L 348.068268 149.358325 
L 348.068268 149.111167 
L 347.4837 149.089092 
L 347.4837 149.026905 
L 347.410629 148.467828 
L 347.264487 148.488184 
L 347.264487 148.425591 
L 347.264487 148.25957 
L 347.191416 148.279903 
L 346.533777 148.193219 
L 346.533777 148.213591 
L 346.460706 147.900475 
L 346.314564 147.837332 
L 346.314564 147.857662 
L 346.314564 147.690572 
L 346.241493 147.710883 
L 346.095351 147.647577 
L 346.095351 147.500503 
L 345.949209 147.500503 
L 345.949209 147.457329 
L 345.949209 147.373517 
L 345.876138 147.393804 
L 345.803067 147.393804 
L 345.729996 147.182625 
L 344.999285 147.112908 
L 344.999285 147.133217 
L 344.926214 146.900644 
L 344.780072 146.836545 
L 344.780072 146.856825 
L 344.780072 146.77239 
L 344.707001 146.792665 
L 344.63393 146.792665 
L 344.63393 146.728449 
L 344.63393 146.643912 
L 344.487788 146.643912 
L 344.487788 146.599849 
L 344.414717 146.281287 
L 343.90322 146.317861 
L 343.90322 146.338121 
L 343.90322 146.168213 
L 343.757078 146.168213 
L 343.757078 146.123664 
L 343.757078 145.442016 
L 343.684007 145.462146 
L 343.318652 145.457309 
L 343.318652 145.306437 
L 343.245581 145.326577 
L 342.880226 145.387051 
L 342.880226 145.341752 
L 342.880226 145.170322 
L 342.807155 145.190472 
L 342.734084 145.190472 
L 342.734084 145.210631 
L 342.661013 144.97324 
L 342.514871 144.90743 
L 342.4418 144.25855 
L 342.368729 144.25855 
L 342.368729 144.192251 
L 342.368729 144.105884 
L 342.295658 144.125892 
L 342.149516 144.059475 
L 342.149516 143.819909 
L 342.003374 143.819909 
L 342.003374 143.773238 
L 342.003374 143.599859 
L 341.05345 143.558944 
L 341.05345 143.511902 
L 340.980379 143.270463 
L 340.907308 143.270463 
L 340.907308 143.203191 
L 340.907308 143.115912 
L 340.834237 143.13586 
L 340.615024 143.175783 
L 340.615024 143.10838 
L 340.615024 143.020962 
L 340.541953 143.040916 
L 340.395811 142.973392 
L 340.395811 142.993348 
L 340.395811 142.818227 
L 340.32274 142.838163 
L 340.030456 142.790395 
L 340.030456 142.742564 
L 339.957385 142.235193 
L 339.884314 142.235193 
L 339.884314 142.16702 
L 339.811243 141.834265 
L 339.445888 141.736884 
L 339.372817 141.333998 
L 339.226675 141.265113 
L 339.226675 141.28486 
L 339.226675 141.196165 
L 339.153604 141.215906 
L 338.642107 141.245692 
L 338.642107 141.17658 
L 338.569036 141.018411 
L 338.349823 140.96887 
L 338.349823 140.98863 
L 338.349823 140.899508 
L 338.276752 140.919261 
L 338.203681 140.919261 
L 338.203681 140.939024 
L 338.13061 140.691044 
L 337.692183 140.789801 
L 337.619112 140.829366 
L 337.47297 140.759705 
L 337.47297 140.68998 
L 337.326828 140.68998 
L 337.326828 140.460672 
L 337.253757 140.480425 
L 337.180686 140.480425 
L 337.180686 140.410446 
L 337.180686 140.230843 
L 337.107615 140.250566 
L 336.74226 140.239605 
L 336.74226 140.169357 
L 336.74226 139.989234 
L 336.669189 140.008947 
L 336.596118 140.008947 
L 336.596118 139.938513 
L 336.596118 139.6678 
L 336.523047 139.687467 
L 335.792337 139.593301 
L 335.792337 139.431722 
L 335.719266 139.451407 
L 335.28084 139.549965 
L 335.207769 139.589451 
L 335.061627 139.609208 
L 335.061627 139.628974 
L 335.061627 139.265249 
L 334.915485 139.265249 
L 334.915485 139.213609 
L 334.842414 138.959813 
L 334.696272 138.888214 
L 334.696272 138.633767 
L 334.623201 138.65339 
L 334.55013 138.65339 
L 334.55013 138.490005 
L 334.477058 138.509613 
L 334.257845 138.437624 
L 334.257845 138.385171 
L 334.184774 138.404782 
L 334.111703 138.404782 
L 334.111703 138.424402 
L 334.111703 138.240846 
L 334.038632 138.260442 
L 333.600206 138.358556 
L 333.527135 138.397866 
L 333.015638 138.331817 
L 333.015638 138.351507 
L 332.942567 137.909799 
L 332.650283 137.876235 
L 332.650283 137.803348 
L 332.650283 137.432832 
L 332.577212 137.45239 
L 332.504141 137.45239 
L 332.504141 137.379186 
L 332.43107 137.120121 
L 331.992644 137.124749 
L 331.992644 137.051187 
L 331.919573 136.791086 
L 331.481147 136.701834 
L 331.481147 136.72134 
L 331.408076 136.553793 
L 331.261934 136.479668 
L 331.261934 136.499149 
L 331.188863 136.143602 
L 330.31201 136.075511 
L 330.31201 136.000775 
L 330.238939 136.020244 
L 330.165868 136.020244 
L 330.165868 135.945429 
L 330.092797 135.776143 
L 329.800513 135.72056 
L 329.800513 135.664897 
L 329.727442 135.684342 
L 329.289016 135.686993 
L 329.289016 135.6117 
L 329.215945 135.441453 
L 328.996732 135.385393 
L 328.996732 135.404841 
L 328.923661 135.139027 
L 328.704448 135.082644 
L 328.631377 134.740013 
L 328.046809 134.760716 
L 328.046809 134.799517 
L 328.046809 134.608129 
L 327.754525 134.646895 
L 327.754525 134.589861 
L 327.754525 134.493979 
L 327.681454 134.513358 
L 327.535312 134.436782 
L 327.535312 134.456161 
L 327.535312 134.360132 
L 327.169956 134.41827 
L 327.169956 134.264694 
L 327.169956 134.168435 
L 326.585388 134.111242 
L 326.585388 134.130631 
L 326.585388 133.744165 
L 326.512317 133.763489 
L 325.489323 133.724429 
L 325.489323 133.743828 
L 325.489323 133.354927 
L 325.416252 133.37426 
L 324.977826 133.276105 
L 324.977826 133.295457 
L 324.904755 133.119592 
L 324.758613 133.041221 
L 324.758613 132.864957 
L 324.174045 132.902211 
L 324.174045 132.823486 
L 324.174045 132.529001 
L 324.100974 132.548274 
L 323.516405 132.486577 
L 323.516405 132.505886 
L 323.443334 132.328063 
L 323.15105 132.26797 
L 323.15105 132.10897 
L 323.077979 132.128239 
L 322.639553 132.224727 
L 322.566482 132.263388 
L 322.201127 132.340825 
L 322.201127 132.161918 
L 322.201127 132.062699 
L 321.981914 132.062699 
L 321.908843 131.841904 
L 321.68963 131.781006 
L 321.616559 131.420856 
L 321.543488 131.420856 
L 321.543488 131.340269 
L 321.470417 130.859473 
L 321.105062 130.916953 
L 321.105062 130.855064 
L 321.105062 130.654402 
L 320.593565 130.750185 
L 320.593565 130.788565 
L 320.520494 130.707202 
L 319.935925 130.721768 
L 319.935925 130.659409 
L 319.862854 130.255585 
L 319.862854 130.274733 
L 319.424428 130.23107 
L 319.424428 130.18732 
L 319.424428 130.085994 
L 319.205215 130.085994 
L 319.205215 130.042043 
L 319.205215 129.635777 
L 319.132144 129.654856 
L 318.036079 129.597648 
L 318.036079 129.124541 
L 317.963008 129.143606 
L 317.816866 129.060201 
L 317.816866 129.079264 
L 317.816866 128.976711 
L 317.743795 128.995763 
L 317.451511 129.052977 
L 317.451511 129.072068 
L 317.451511 128.866594 
L 317.232298 128.801862 
L 317.232298 128.615005 
L 317.159227 128.634028 
L 317.086156 128.634028 
L 317.086156 128.653061 
L 317.086156 128.34367 
L 317.013085 128.362649 
L 316.355445 128.373338 
L 316.355445 128.223385 
L 316.282374 128.242396 
L 316.063161 128.176775 
L 316.063161 128.092047 
L 315.332451 128.036371 
L 315.332451 127.866164 
L 314.967096 127.837973 
L 314.967096 127.857007 
L 314.967096 127.64817 
L 314.601741 127.581637 
L 314.601741 127.638658 
L 314.52867 127.34347 
L 314.163315 127.295498 
L 314.163315 127.333463 
L 314.163315 127.228452 
L 314.090244 127.247427 
L 313.944102 127.161303 
L 313.944102 127.180275 
L 313.871031 126.672676 
L 313.213391 126.699407 
L 313.213391 126.631534 
L 313.213391 126.419898 
L 313.14032 126.438776 
L 313.067249 126.438776 
L 313.067249 126.351719 
L 312.994178 125.839929 
L 312.628823 125.808686 
L 312.628823 125.827474 
L 312.555752 125.419977 
L 311.971184 125.476156 
L 311.971184 125.569982 
L 311.971184 125.463085 
L 311.825042 125.463085 
L 311.825042 125.286586 
L 311.751971 125.305331 
L 310.94819 125.278537 
L 310.94819 125.297344 
L 310.94819 125.189843 
L 310.875119 125.208637 
L 310.655906 125.208637 
L 310.655906 125.157426 
L 310.655906 125.04972 
L 310.582835 125.068506 
L 310.363622 125.087302 
L 310.363622 125.124924 
L 310.363622 124.801183 
L 310.290551 124.819938 
L 309.925196 124.786914 
L 309.925196 124.805695 
L 309.852124 124.499567 
L 309.486769 124.466032 
L 309.486769 124.376182 
L 309.413698 124.394914 
L 309.340627 124.394914 
L 309.340627 124.304954 
L 309.267556 124.106059 
L 309.194485 124.106059 
L 309.194485 124.015827 
L 309.194485 123.797809 
L 308.902201 123.744556 
L 308.902201 123.76319 
L 308.82913 123.563228 
L 308.609917 123.60045 
L 308.609917 123.509613 
L 308.609917 123.400092 
L 308.536846 123.418679 
L 308.317633 123.346232 
L 308.244562 122.94404 
L 307.806136 122.908068 
L 307.806136 122.83494 
L 307.806136 122.503989 
L 307.733065 122.522441 
L 307.36771 122.485789 
L 307.36771 122.393623 
L 307.002355 122.356729 
L 307.002355 122.042372 
L 306.929284 122.060784 
L 306.637 122.004916 
L 306.637 122.023343 
L 306.563929 121.596326 
L 306.490858 121.596326 
L 306.490858 121.391534 
L 306.417787 121.40984 
L 305.906289 121.519884 
L 305.833218 121.556644 
L 305.540934 121.499897 
L 305.540934 121.406248 
L 305.394792 121.406248 
L 305.394792 121.330867 
L 305.394792 121.218646 
L 305.321721 121.237 
L 304.956366 121.29212 
L 304.956366 121.216481 
L 304.956366 120.991428 
L 304.883295 121.009765 
L 304.371798 120.988825 
L 304.371798 120.912691 
L 304.371798 120.799744 
L 304.298727 120.818083 
L 303.78723 120.92833 
L 303.714159 120.965159 
L 303.641088 120.965159 
L 303.641088 120.756991 
L 303.568017 120.775379 
L 302.837306 120.827671 
L 302.837306 120.732394 
L 302.837306 120.504725 
L 302.764235 120.523119 
L 302.618093 120.427543 
L 302.618093 120.445931 
L 302.545022 119.893221 
L 302.325809 119.911498 
L 302.252738 119.622648 
L 302.033525 119.659132 
L 302.033525 119.562603 
L 302.033525 119.33284 
L 301.960454 119.351027 
L 301.814312 119.254194 
L 301.814312 119.042069 
L 301.741241 119.060206 
L 301.66817 119.060206 
L 301.66817 118.96305 
L 301.66817 118.269892 
L 301.595099 118.28786 
L 301.448957 118.190032 
L 301.448957 118.207993 
L 301.448957 118.092096 
L 301.375886 118.110039 
L 300.93746 118.047859 
L 300.93746 117.985539 
L 300.864389 118.003498 
L 299.914466 117.932398 
L 299.914466 118.004475 
L 299.841395 117.554825 
L 299.037613 117.499916 
L 298.964542 117.300729 
L 298.526116 117.272767 
L 298.526116 117.290742 
L 298.526116 117.054831 
L 298.453045 117.07276 
L 298.306903 116.972588 
L 298.306903 116.872301 
L 297.137767 116.904441 
L 297.137767 116.803574 
L 297.137767 116.327438 
L 296.991625 116.327438 
L 296.991625 116.243917 
L 296.918554 115.544603 
L 296.553199 115.49555 
L 296.553199 115.273222 
L 296.480128 115.290877 
L 295.676346 115.227033 
L 295.676346 115.244741 
L 295.676346 115.124131 
L 295.603275 115.14182 
L 295.530204 115.14182 
L 295.457133 114.814713 
L 295.164849 114.867634 
L 295.164849 114.764198 
L 295.091778 114.539377 
L 294.945636 114.556969 
L 294.945636 114.453174 
L 294.945636 114.331709 
L 294.872565 114.34926 
L 294.068784 114.281531 
L 294.068784 114.299134 
L 293.995713 113.950327 
L 293.703429 114.002956 
L 293.703429 113.898115 
L 293.630358 113.547928 
L 292.972719 113.652849 
L 292.899648 113.705448 
L 292.899648 113.599974 
L 292.607364 113.529412 
L 292.607364 113.546945 
L 292.607364 113.423651 
L 292.534293 113.441163 
L 292.168937 113.37027 
L 292.168937 113.405324 
L 292.168937 113.281699 
L 291.949724 113.316732 
L 291.876653 112.980122 
L 291.584369 112.890947 
L 291.584369 112.677303 
L 291.511298 112.694708 
L 291.219014 112.622475 
L 291.219014 112.63989 
L 291.145943 112.283151 
L 290.92673 112.19291 
L 290.92673 112.210239 
L 290.92673 112.085201 
L 290.415233 112.189201 
L 290.415233 112.20657 
L 290.415233 112.081235 
L 290.342162 112.098582 
L 289.830665 112.202884 
L 289.830665 112.220303 
L 289.830665 112.094637 
L 289.757594 112.112035 
L 289.684523 112.112035 
L 289.684523 111.877756 
L 289.611452 111.89511 
L 289.46531 111.912475 
L 289.46531 111.803797 
L 289.46531 111.677669 
L 289.392239 111.694989 
L 289.246097 111.586052 
L 289.246097 111.60336 
L 289.173026 111.367786 
L 288.515386 111.379366 
L 288.515386 111.26975 
L 288.515386 111.142744 
L 288.442315 111.160003 
L 288.07696 111.101894 
L 288.07696 111.119171 
L 288.07696 110.991815 
L 288.003889 111.009069 
L 287.492392 111.112816 
L 287.419321 111.147482 
L 287.419321 110.764055 
L 286.834753 110.739539 
L 286.834753 110.260406 
L 286.761682 110.27757 
L 286.61554 110.294744 
L 286.542469 109.942627 
L 286.469398 109.942627 
L 286.469398 109.959731 
L 286.469398 109.830709 
L 286.396327 109.847789 
L 285.592546 109.872539 
L 285.592546 109.77726 
L 285.592546 109.647592 
L 285.519475 109.664695 
L 285.446404 109.664695 
L 285.446404 109.551992 
L 285.373333 109.569081 
L 284.861835 109.671835 
L 284.788764 109.706171 
L 284.788764 109.184868 
L 284.715693 109.184868 
L 284.715693 109.071352 
L 284.204196 109.139497 
L 284.131125 109.207808 
L 283.254273 109.133842 
L 283.254273 109.019489 
L 282.888918 108.956328 
L 282.888918 108.97346 
L 282.888918 108.841617 
L 281.865924 108.799983 
L 281.865924 108.817157 
L 281.865924 108.684568 
L 281.792852 108.701717 
L 281.573639 108.603268 
L 281.573639 108.354535 
L 281.500568 108.371618 
L 281.208284 108.272645 
L 281.208284 108.306814 
L 281.208284 108.173486 
L 281.135213 108.19055 
L 280.623716 108.258914 
L 280.550645 108.327449 
L 280.550645 108.19371 
L 279.45458 108.282863 
L 279.381509 108.334578 
L 279.089225 108.251785 
L 279.089225 108.134312 
L 279.016154 108.151542 
L 278.943083 108.151542 
L 278.870012 107.781002 
L 278.358515 107.84967 
L 278.285443 107.918512 
L 278.139301 107.935749 
L 278.139301 107.817442 
L 278.139301 107.6818 
L 277.920088 107.580377 
L 277.920088 107.325604 
L 277.847017 107.342708 
L 277.262449 107.326337 
L 277.262449 107.34349 
L 277.189378 107.087433 
L 276.750952 107.036104 
L 276.750952 107.053219 
L 276.750952 106.91616 
L 275.654887 106.863772 
L 275.654887 106.89809 
L 275.654887 106.760187 
L 275.435674 106.794471 
L 275.435674 106.81163 
L 275.435674 106.258657 
L 275.216461 106.15415 
L 275.216461 106.032472 
L 274.704963 106.117421 
L 274.631892 106.168523 
L 274.558821 106.168523 
L 274.558821 106.04646 
L 274.48575 106.063487 
L 274.339608 106.080526 
L 274.339608 105.958247 
L 274.339608 105.818828 
L 274.266537 105.835809 
L 273.389685 105.72624 
L 273.389685 105.620086 
L 273.316614 105.63709 
L 273.243543 105.63709 
L 273.170472 105.249585 
L 273.02433 105.266502 
L 273.02433 105.142648 
L 273.02433 105.001775 
L 272.951259 105.018633 
L 272.878188 105.018633 
L 272.878188 105.035502 
L 272.878188 104.894454 
L 272.512833 104.820575 
L 272.512833 104.837418 
L 272.512833 104.695981 
L 272.439762 104.712794 
L 271.928265 104.780156 
L 271.928265 104.688935 
L 271.855194 104.421714 
L 271.635981 104.438503 
L 271.635981 104.329809 
L 271.635981 104.187409 
L 271.56291 104.204148 
L 271.051412 104.304816 
L 271.051412 104.321633 
L 271.051412 103.892867 
L 270.978341 103.909569 
L 270.90527 103.909569 
L 270.90527 103.783087 
L 270.612986 103.689751 
L 270.612986 103.706425 
L 270.612986 103.56287 
L 270.539915 103.579513 
L 270.466844 103.579513 
L 270.466844 103.452432 
L 270.393773 103.469054 
L 269.736134 103.458222 
L 269.663063 102.913431 
L 269.297708 102.834668 
L 269.224637 102.57737 
L 269.005424 102.57737 
L 269.005424 102.335784 
L 268.932353 102.352198 
L 268.786211 102.368624 
L 268.786211 102.239271 
L 268.71314 102.255675 
L 268.640069 102.255675 
L 268.566998 101.850164 
L 268.055501 101.948165 
L 268.055501 101.964538 
L 267.98243 101.834254 
L 267.836288 101.850604 
L 267.763216 101.442341 
L 267.178648 101.408818 
L 267.178648 101.425101 
L 267.178648 101.12969 
L 267.105577 101.145895 
L 266.009512 101.076763 
L 266.009512 100.944262 
L 265.936441 100.960509 
L 265.571086 101.025609 
L 265.571086 100.743495 
L 265.424944 100.743495 
L 265.424944 100.775952 
L 265.351873 100.493094 
L 264.767305 100.574027 
L 264.694234 100.638975 
L 264.109665 100.586335 
L 264.109665 100.468323 
L 263.525097 100.431368 
L 263.525097 100.447663 
L 263.525097 100.296483 
L 263.0136 100.394207 
L 262.940529 100.426873 
L 262.794387 100.443223 
L 262.794387 100.459584 
L 262.794387 100.155966 
L 262.721316 100.172244 
L 262.209819 100.270152 
L 262.209819 100.28651 
L 262.209819 100.134162 
L 262.136748 100.150483 
L 261.771393 100.063191 
L 261.771393 100.079522 
L 261.771393 99.926673 
L 261.698322 99.942968 
L 261.186825 100.024614 
L 261.113754 100.073739 
L 260.602256 100.172303 
L 260.602256 100.188771 
L 260.602256 100.035042 
L 260.529185 100.051473 
L 260.16383 100.08437 
L 260.16383 99.979673 
L 260.16383 99.516626 
L 259.652333 99.443455 
L 259.652333 99.321073 
L 259.286978 99.369972 
L 259.286978 99.247249 
L 259.213907 98.79659 
L 259.140836 98.79659 
L 259.140836 98.656824 
L 259.067765 98.672944 
L 258.994694 98.672944 
L 258.994694 98.689076 
L 258.994694 98.376693 
L 258.70241 98.424857 
L 258.70241 98.284374 
L 258.70241 98.127701 
L 258.629339 98.143689 
L 258.044771 98.098739 
L 258.044771 97.799946 
L 257.9717 97.815885 
L 257.460203 97.911764 
L 257.460203 97.927784 
L 257.387132 97.785773 
L 257.24099 97.801765 
L 257.24099 97.659509 
L 256.729492 97.59678 
L 256.729492 97.453911 
L 256.656421 97.469852 
L 256.510279 97.485804 
L 256.437208 96.88035 
L 255.779569 96.991042 
L 255.706498 97.038655 
L 255.706498 96.878491 
L 255.12193 96.973713 
L 255.12193 97.005547 
L 254.975788 97.005547 
L 254.975788 96.876616 
L 254.902717 96.892521 
L 254.829646 96.892521 
L 254.756575 96.602067 
L 254.683504 96.602067 
L 254.683504 96.45652 
L 254.464291 96.488113 
L 254.464291 96.342267 
L 254.39122 96.358039 
L 252.929799 96.334089 
L 252.929799 96.349987 
L 252.929799 96.186826 
L 252.564444 96.250318 
L 252.564444 96.102663 
L 252.564444 95.938985 
L 252.491373 95.954789 
L 251.906805 96.065749 
L 251.833734 96.097559 
L 251.468379 95.996744 
L 251.468379 95.847902 
L 251.395308 95.863773 
L 251.249166 95.879656 
L 251.249166 95.89555 
L 251.249166 95.56533 
L 251.176095 95.581124 
L 251.103024 95.581124 
L 251.103024 95.431521 
L 251.029953 95.447283 
L 250.81074 95.463057 
L 250.81074 95.32888 
L 250.737669 95.344633 
L 250.372314 95.407764 
L 250.372314 95.257351 
L 250.372314 95.091 
L 250.299243 95.106711 
L 249.714674 95.217018 
L 249.714674 95.232824 
L 249.495461 95.264472 
L 249.495461 95.113151 
L 249.42239 95.128947 
L 248.837822 95.072108 
L 248.837822 94.920003 
L 248.253254 95.030782 
L 248.180183 95.062542 
L 248.034041 95.062542 
L 248.034041 95.094351 
L 248.034041 94.925641 
L 247.668686 94.97327 
L 247.668686 94.83595 
L 247.595615 94.513042 
L 246.937976 94.453621 
L 246.937976 94.314956 
L 246.864905 94.330707 
L 246.718763 94.330707 
L 246.718763 94.020993 
L 246.207265 93.928326 
L 246.207265 93.959673 
L 246.207265 93.788294 
L 246.134194 93.803926 
L 246.061123 93.803926 
L 246.061123 93.81957 
L 246.061123 93.647936 
L 245.988052 93.663532 
L 245.84191 93.663532 
L 245.84191 93.694759 
L 245.768839 93.021544 
L 245.695768 93.021544 
L 245.622697 92.706878 
L 245.549626 92.706878 
L 245.549626 92.722179 
L 245.476555 92.217893 
L 244.453561 92.226129 
L 244.453561 92.25658 
L 244.38049 91.922599 
L 244.088206 91.968025 
L 244.088206 91.983191 
L 244.088206 91.808119 
L 244.015135 91.823234 
L 243.868993 91.823234 
L 243.868993 91.853499 
L 243.868993 91.678099 
L 243.795922 91.693187 
L 243.138282 91.799132 
L 243.065211 91.844717 
L 242.919069 91.844717 
L 242.919069 91.522291 
L 242.845998 91.537406 
L 242.699856 91.552533 
L 242.699856 91.567673 
L 242.699856 91.39083 
L 242.115288 91.481532 
L 242.115288 91.511863 
L 242.115288 91.156717 
L 241.53072 91.262346 
L 241.457649 91.292635 
L 240.873081 91.39903 
L 240.873081 91.414278 
L 240.873081 91.235377 
L 240.80001 91.250571 
L 240.0693 91.192928 
L 240.0693 91.043497 
L 239.996229 91.058694 
L 239.777016 91.089125 
L 239.777016 90.924024 
L 239.703945 90.939203 
L 239.41166 90.969599 
L 239.41166 90.819226 
L 239.338589 90.834399 
L 239.046305 90.864784 
L 239.046305 90.713914 
L 238.973234 90.729082 
L 238.68095 90.774659 
L 238.68095 90.789877 
L 238.68095 90.426144 
L 238.607879 90.441238 
L 238.169453 90.516891 
L 238.169453 90.349489 
L 238.169453 90.166769 
L 238.096382 90.181812 
L 237.511814 90.287458 
L 237.438743 90.317754 
L 236.927246 90.209805 
L 236.927246 90.055935 
L 236.415749 89.962037 
L 236.415749 89.977157 
L 236.342678 89.436613 
L 236.269607 89.436613 
L 236.269607 89.451546 
L 236.269607 89.265941 
L 236.196536 89.280815 
L 235.392754 89.228768 
L 235.392754 88.884929 
L 234.150547 88.920182 
L 234.150547 88.761558 
L 234.077476 88.776432 
L 232.835269 88.82625 
L 232.835269 88.651131 
L 232.762198 88.666086 
L 232.177629 88.771125 
L 232.104558 88.801252 
L 231.739203 88.846539 
L 231.739203 88.876795 
L 231.739203 88.685369 
L 231.081564 88.775995 
L 231.008493 88.836672 
L 230.862351 88.851874 
L 230.862351 88.867089 
L 230.862351 88.674586 
L 230.78928 88.689738 
L 230.204712 88.796167 
L 230.131641 88.826694 
L 230.05857 88.826694 
L 230.05857 88.648462 
L 229.693215 88.648462 
L 229.693215 88.724691 
L 229.693215 88.530619 
L 229.620144 88.545827 
L 228.962504 88.652653 
L 228.889433 88.698635 
L 228.816362 88.698635 
L 228.816362 88.71399 
L 228.816362 88.51881 
L 228.743291 88.5341 
L 228.524078 88.549402 
L 228.524078 88.384381 
L 228.304865 88.384381 
L 228.304865 88.234138 
L 228.231794 88.249362 
L 227.574155 88.356309 
L 227.501084 88.402346 
L 227.281871 88.402346 
L 227.281871 88.251138 
L 227.2088 88.26647 
L 227.062658 88.26647 
L 226.989587 87.321476 
L 226.331948 87.242304 
L 226.331948 87.057653 
L 226.258877 87.072591 
L 226.185806 87.072591 
L 226.112735 86.501719 
L 225.74738 86.545945 
L 225.74738 86.575495 
L 225.74738 86.374458 
L 225.08974 86.477716 
L 225.08974 86.507338 
L 224.066746 86.468311 
L 224.066746 86.513033 
L 224.066746 86.309689 
L 223.336036 86.384068 
L 223.262965 86.47377 
L 223.043752 86.50378 
L 223.043752 86.518806 
L 222.970681 86.124018 
L 222.89761 86.124018 
L 222.89761 85.933616 
L 222.824539 85.948422 
L 222.751468 85.948422 
L 222.751468 85.963241 
L 222.751468 85.551766 
L 222.313042 85.62519 
L 222.313042 85.433367 
L 222.239971 85.448018 
L 222.1669 85.448018 
L 222.1669 85.462682 
L 222.1669 85.255767 
L 222.020757 85.255767 
L 221.947686 84.88464 
L 221.655402 84.88464 
L 221.655402 84.734415 
L 221.582331 84.74883 
L 221.50926 84.74883 
L 221.50926 84.763259 
L 221.50926 84.554775 
L 221.436189 84.569127 
L 221.143905 84.612264 
L 221.143905 84.417542 
L 221.070834 84.43187 
L 220.486266 84.489318 
L 220.413195 84.561429 
L 219.974769 84.633878 
L 219.974769 84.437626 
L 219.901698 84.452078 
L 219.682485 84.466544 
L 219.682485 84.284168 
L 219.097917 84.370855 
L 219.097917 84.39986 
L 218.513348 84.501807 
L 218.440277 84.531059 
L 218.221064 84.545706 
L 218.221064 84.575041 
L 218.147993 84.162513 
L 217.782638 84.191554 
L 217.782638 84.020833 
L 217.709567 84.03532 
L 217.636496 84.03532 
L 217.636496 84.049822 
L 217.636496 83.835041 
L 217.563425 83.849461 
L 217.051928 83.936268 
L 217.051928 83.519074 
L 216.978857 83.533411 
L 216.905786 83.533411 
L 216.905786 83.331403 
L 216.832715 83.345671 
L 216.248147 83.445933 
L 216.175076 83.474703 
L 215.590508 83.575837 
L 215.590508 83.590341 
L 214.932868 83.692259 
L 214.932868 83.721506 
L 214.786726 83.721506 
L 214.786726 83.75081 
L 214.786726 83.531394 
L 214.713655 83.545968 
L 214.129087 83.633708 
L 214.056016 83.677771 
L 213.398377 83.781089 
L 213.398377 83.810739 
L 213.252235 83.810739 
L 213.252235 83.840447 
L 213.252235 83.618703 
L 212.88688 83.663069 
L 212.813809 83.262197 
L 212.083099 83.365098 
L 212.010028 83.424219 
L 211.279317 83.513342 
L 211.279317 83.573054 
L 211.206246 83.362719 
L 210.621678 83.467157 
L 210.621678 83.482137 
L 210.475536 83.482137 
L 210.475536 83.285559 
L 209.890968 83.375295 
L 209.890968 83.177665 
L 209.890968 82.949772 
L 209.014116 82.869487 
L 209.014116 82.439692 
L 208.941045 82.45437 
L 208.794903 82.45437 
L 208.794903 82.25332 
L 208.721832 82.267933 
L 208.502619 82.297204 
L 208.502619 82.311862 
L 208.502619 82.080735 
L 208.429548 82.095297 
L 208.283406 82.095297 
L 208.283406 82.124466 
L 208.283406 81.892771 
L 208.210335 81.907267 
L 208.064192 81.907267 
L 208.064192 81.936303 
L 208.064192 81.704036 
L 207.479624 81.732908 
L 207.479624 81.586478 
L 207.114269 81.629828 
L 207.041198 80.734563 
L 206.45663 80.819194 
L 206.383559 80.861708 
L 205.798991 80.961424 
L 205.72592 80.990048 
L 205.287494 81.061871 
L 205.287494 81.076281 
L 205.287494 80.838204 
L 204.556784 80.924275 
L 204.556784 80.981959 
L 204.33757 80.981959 
L 204.33757 81.025381 
L 204.33757 80.785516 
L 204.045286 80.828719 
L 204.045286 80.602554 
L 203.972215 80.61688 
L 203.314576 80.703161 
L 203.241505 80.760987 
L 202.803079 80.833618 
L 202.803079 80.848191 
L 202.803079 80.605281 
L 202.730008 80.619748 
L 202.14544 80.721446 
L 202.072369 80.750643 
L 201.926227 80.765265 
L 201.926227 80.535256 
L 201.195517 80.637295 
L 201.195517 80.681262 
L 201.049375 80.681262 
L 200.976303 80.464244 
L 200.976303 80.478838 
L 200.830161 80.493447 
L 200.830161 80.261018 
L 200.245593 80.362955 
L 200.172522 80.392223 
L 199.661025 80.480412 
L 199.661025 80.245801 
L 199.29567 80.275101 
L 199.29567 80.319173 
L 199.29567 80.068886 
L 199.222599 80.083479 
L 198.638031 80.171376 
L 198.638031 80.200805 
L 198.345747 80.200805 
L 198.345747 80.007595 
L 198.272676 80.022267 
L 197.688108 80.125431 
L 197.615037 80.155055 
L 197.395823 80.155055 
L 197.395823 79.945344 
L 197.322752 79.960096 
L 196.884326 80.034107 
L 196.884326 80.048959 
L 196.884326 79.793462 
L 196.226687 79.882111 
L 196.226687 79.926661 
L 196.153616 79.684399 
L 196.080545 79.684399 
L 196.080545 79.441589 
L 196.007474 79.456231 
L 195.71519 79.485567 
L 195.71519 79.256413 
L 195.642119 79.271001 
L 195.057551 79.329516 
L 194.98448 79.403036 
L 194.98448 79.142793 
L 194.765267 79.172038 
L 194.765267 78.925723 
L 194.692196 78.940246 
L 194.619125 78.940246 
L 194.619125 78.693241 
L 194.546054 78.707656 
L 194.326841 78.736536 
L 194.326841 78.488586 
L 194.180699 78.488586 
L 194.107628 77.741304 
L 193.59613 77.825288 
L 193.59613 77.839342 
L 193.59613 77.30889 
L 193.523059 77.322669 
L 193.376917 77.336463 
L 193.376917 77.084147 
L 193.303846 77.097827 
L 192.646207 77.207844 
L 192.646207 77.221668 
L 191.988568 77.318894 
L 191.915497 77.360808 
L 191.550142 77.402869 
L 191.550142 77.160829 
L 190.819432 77.258724 
L 190.746361 77.31503 
L 190.307934 77.343284 
L 190.307934 77.126909 
L 189.577224 77.211551 
L 189.577224 77.268319 
L 188.919585 77.353982 
L 188.919585 77.120663 
L 188.846514 77.134894 
L 188.188875 77.220644 
L 188.115804 77.278158 
L 187.312023 77.350445 
L 187.238952 77.45239 
L 186.654383 77.511038 
L 186.654383 77.569975 
L 186.289028 77.614368 
L 186.289028 77.361507 
L 185.631389 77.450014 
L 185.631389 77.494515 
L 185.631389 77.210118 
L 185.558318 77.22482 
L 185.339105 77.254281 
L 185.339105 77.269039 
L 185.339105 76.983615 
L 185.266034 76.998222 
L 184.827608 77.056834 
L 184.827608 77.086251 
L 184.827608 76.799281 
L 184.754537 76.813846 
L 184.24304 76.901622 
L 184.24304 76.916316 
L 184.24304 76.627612 
L 183.804614 76.671285 
L 183.804614 76.425015 
L 183.731543 76.43949 
L 183.51233 76.453984 
L 183.51233 76.483027 
L 183.51233 76.191849 
L 183.439258 76.206222 
L 182.85469 76.30735 
L 182.85469 76.321871 
L 182.197051 76.321871 
L 182.197051 76.453396 
L 181.539412 76.527125 
L 181.466341 76.60133 
L 181.100986 76.60133 
L 181.100986 76.378539 
L 180.516418 76.482629 
L 180.516418 76.497576 
L 179.858778 76.602758 
L 179.785707 76.648132 
L 179.201139 76.754702 
L 179.128068 76.785332 
L 178.470429 76.893176 
L 178.470429 76.924173 
L 177.520506 77.002027 
L 177.520506 77.127679 
L 176.643654 77.238734 
L 176.643654 77.00919 
L 176.278298 77.072759 
L 176.278298 77.088705 
L 176.278298 76.777775 
L 176.205227 76.793542 
L 175.620659 76.888599 
L 175.547588 76.93642 
L 175.036091 77.000487 
L 175.036091 77.048768 
L 175.036091 76.733964 
L 174.96302 76.749896 
L 174.670736 76.749896 
L 174.670736 76.497576 
L 174.451523 76.529269 
L 174.451523 76.227817 
L 174.086168 76.290717 
L 174.086168 76.306497 
L 174.013097 75.683792 
L 173.209316 75.776521 
L 173.136245 75.87003 
L 172.551676 75.980125 
L 172.551676 75.995941 
L 172.478605 75.687344 
L 171.528682 75.797312 
L 171.528682 75.892445 
L 171.455611 75.580393 
L 170.797972 75.691008 
L 170.797972 75.722817 
L 170.359546 75.802741 
L 170.359546 75.486952 
L 170.140333 75.486952 
L 170.140333 75.201557 
L 170.067262 75.217245 
L 169.409622 75.311852 
L 169.409622 75.359466 
L 169.336551 75.039336 
L 168.751983 75.133923 
L 168.751983 75.165638 
L 168.167415 75.261344 
L 168.167415 75.293435 
L 168.167415 74.953097 
L 168.094344 74.968938 
L 167.582847 75.048495 
L 167.582847 75.080484 
L 167.07135 75.177025 
L 167.07135 75.193199 
L 166.559853 75.25814 
L 166.559853 75.307102 
L 166.121427 75.389198 
L 166.121427 75.405692 
L 166.121427 75.057974 
L 166.048356 75.074242 
L 165.975285 75.074242 
L 165.975285 74.741786 
L 165.902213 74.757851 
L 165.609929 74.806193 
L 165.609929 74.47181 
L 165.536858 74.487743 
L 164.879219 74.583852 
L 164.879219 74.632239 
L 164.294651 74.71338 
L 164.22158 74.778744 
L 163.637012 74.877552 
L 163.637012 74.910693 
L 163.563941 74.56892 
L 163.052444 74.667516 
L 163.052444 74.684039 
L 162.76016 74.684039 
L 162.76016 74.75039 
L 162.76016 74.388488 
L 162.687089 74.404869 
L 162.175591 74.404869 
L 162.10252 74.536853 
L 161.517952 74.586778 
L 161.444881 74.687347 
L 161.152597 74.687347 
L 161.152597 73.647469 
L 160.568029 73.744549 
L 160.568029 73.777118 
L 159.983461 73.875459 
L 159.983461 73.533509 
L 159.91039 73.549755 
L 159.252751 73.647784 
L 159.252751 73.697161 
L 158.887395 73.746781 
L 158.887395 73.779997 
L 158.887395 73.400006 
L 158.302827 73.482024 
L 158.302827 73.531562 
L 157.937472 73.597996 
L 157.937472 73.230112 
L 157.425975 73.295871 
L 157.352904 73.362072 
L 156.768336 73.445451 
L 156.695265 73.512661 
L 156.183768 73.614333 
L 156.110697 73.648455 
L 156.110697 73.255405 
L 155.453058 73.322712 
L 155.453058 73.407496 
L 155.379986 73.02758 
L 154.795418 73.111603 
L 154.722347 73.179345 
L 154.21085 73.281843 
L 154.137779 73.316248 
L 153.407069 73.420186 
L 153.333998 73.50764 
L 152.822501 73.613608 
L 152.822501 73.631379 
L 152.237933 73.73867 
L 152.237933 73.774689 
L 152.164862 73.380139 
L 152.01872 73.397875 
L 152.01872 73.415644 
L 152.01872 73.001587 
L 151.507222 73.089126 
L 151.434151 73.142029 
L 151.288009 73.159727 
L 151.288009 73.177457 
L 151.288009 72.759059 
L 150.703441 72.863928 
L 150.703441 72.899139 
L 150.191944 72.899139 
L 150.118873 73.04128 
L 149.607376 73.131184 
L 149.607376 73.167379 
L 149.16895 73.221923 
L 149.16895 73.276771 
L 149.16895 72.846778 
L 148.657453 72.918848 
L 148.657453 72.539751 
L 148.584382 72.557565 
L 148.145955 72.647138 
L 148.145955 72.665154 
L 148.072884 71.807436 
L 147.853671 71.842046 
L 147.853671 71.8594 
L 147.853671 71.419068 
L 147.342174 71.487201 
L 147.269103 71.555857 
L 146.903748 71.625041 
L 146.903748 71.642421 
L 146.830677 71.19594 
L 146.830677 71.212939 
L 146.246109 71.247036 
L 146.246109 71.350121 
L 145.515399 71.419514 
L 145.442328 71.542265 
L 144.711617 71.630983 
L 144.638546 71.738608 
L 144.273191 71.774768 
L 144.273191 71.829279 
L 144.273191 71.366482 
L 143.907836 71.437891 
L 143.907836 71.455832 
L 143.907836 70.989869 
L 143.396339 71.095563 
L 143.396339 71.113303 
L 142.884842 71.202547 
L 142.811771 71.25653 
L 142.665629 71.274598 
L 142.665629 70.342301 
L 142.592558 70.359505 
L 142.081061 70.446059 
L 142.00799 70.498422 
L 141.861848 70.498422 
L 141.788777 70.051606 
L 141.788777 70.068723 
L 141.131137 70.172176 
L 141.131137 70.22439 
L 140.838853 70.276934 
L 140.838853 70.294523 
L 140.838853 69.80475 
L 140.765782 69.821877 
L 140.254285 69.908059 
L 140.254285 69.942788 
L 139.669717 70.047867 
L 139.596646 70.100913 
L 139.304362 70.154303 
L 139.304362 69.670648 
L 139.231291 69.688037 
L 138.719794 69.775551 
L 138.719794 69.810823 
L 138.208297 69.899679 
L 138.135226 69.95346 
L 137.989084 69.971466 
L 137.989084 69.477288 
L 137.477586 69.583114 
L 137.477586 69.600889 
L 136.966089 69.654451 
L 136.893018 69.744521 
L 136.527663 69.762656 
L 136.527663 69.31108 
L 136.016166 69.400327 
L 136.016166 69.436309 
L 135.796953 69.436309 
L 135.796953 68.959086 
L 135.212385 69.065231 
L 135.139314 69.118855 
L 134.627817 69.190933 
L 134.554746 69.263682 
L 134.043248 69.337112 
L 133.970177 69.411233 
L 133.45868 69.504869 
L 133.385609 69.561584 
L 132.874112 69.618704 
L 132.801041 69.714816 
L 132.362615 69.773037 
L 132.289544 69.851322 
L 131.851118 69.950249 
L 131.778047 69.990157 
L 131.339621 70.070559 
L 131.339621 70.111056 
L 130.901195 70.213174 
L 130.901195 70.233749 
L 130.389697 70.337392 
L 130.389697 70.379211 
L 129.951271 70.484676 
L 129.951271 70.505928 
L 129.512845 70.612995 
L 129.439774 70.656201 
L 129.001348 70.743275 
L 128.928277 70.809165 
L 128.928277 70.214696 
L 128.41678 70.321956 
L 128.343709 70.386978 
L 127.905283 70.496476 
L 127.905283 70.518547 
L 127.68607 70.518547 
L 127.68607 69.976321 
L 127.466857 70.019444 
L 127.466857 69.428379 
L 127.393786 69.449303 
L 127.02843 69.512407 
L 127.02843 68.935695 
L 126.590004 69.038558 
L 126.516933 69.080089 
L 126.078507 69.184901 
L 126.005436 69.227223 
L 125.493939 69.334039 
L 125.420868 69.398831 
L 124.982442 69.508009 
L 124.909371 69.552103 
L 124.470945 69.618704 
L 124.397874 69.708372 
L 124.032519 69.799049 
L 123.959448 69.84477 
L 123.594092 69.936989 
L 123.521021 69.983492 
L 123.155666 70.077295 
L 123.155666 70.100913 
L 122.790311 70.172176 
L 122.790311 70.220027 
L 122.424956 70.31656 
L 122.351885 70.365248 
L 121.98653 70.463477 
L 121.913459 70.513024 
L 121.328891 70.587892 
L 121.25582 70.739629 
L 121.109678 70.765182 
L 121.109678 70.790812 
L 121.109678 70.097829 
L 120.671252 70.197107 
L 120.671252 70.247195 
L 120.232825 70.348281 
L 120.159754 70.424903 
L 120.159754 69.716574 
L 119.794399 69.790763 
L 119.721328 69.865637 
L 119.429044 69.915939 
L 119.429044 69.245431 
L 119.355973 69.269775 
L 118.990618 69.367911 
L 118.990618 69.392637 
L 118.625263 69.467282 
L 118.625263 69.517437 
L 118.259908 69.618704 
L 118.259908 69.644221 
L 117.894553 69.747109 
L 117.821482 69.799049 
L 117.456127 69.903934 
L 117.456127 69.930368 
L 117.090772 70.010184 
L 117.017701 70.090783 
L 116.652345 70.172176 
L 116.652345 70.226885 
L 116.28699 70.309628 
L 116.213919 70.393197 
L 115.921635 70.477604 
L 115.921635 70.505928 
L 115.629351 70.562863 
L 115.55628 70.648985 
L 115.263996 70.735985 
L 115.190925 70.794479 
L 114.898641 70.853373 
L 114.898641 70.115117 
L 114.533286 70.200853 
L 114.533286 70.258506 
L 114.09486 70.345739 
L 114.09486 70.433888 
L 113.802576 70.433888 
L 113.729505 70.58288 
L 113.437221 70.673545 
L 113.36415 70.734528 
L 113.218007 70.734528 
L 113.218007 69.96388 
L 113.144936 69.993316 
L 112.852652 70.082262 
L 112.779581 70.142096 
L 112.487297 70.232665 
L 112.414226 70.293596 
L 112.121942 70.293596 
L 112.048871 70.447891 
L 111.756587 70.541842 
L 111.683516 70.60506 
L 111.172019 70.700773 
L 111.172019 70.830077 
L 110.879735 70.928343 
L 110.806664 70.994478 
L 110.441309 70.994478 
L 110.368238 71.19594 
L 109.929812 71.298428 
L 109.929812 70.496476 
L 109.637527 70.562863 
L 109.637527 70.629771 
L 109.345243 70.697209 
L 109.345243 70.765182 
L 108.906817 70.868159 
L 108.833746 71.007396 
L 108.541462 71.007396 
L 108.468391 71.184626 
L 108.103036 71.292703 
L 108.103036 71.365495 
L 107.810752 71.438886 
L 107.737681 71.550116 
L 107.518468 71.625041 
L 107.445397 71.700594 
L 107.080042 71.738608 
L 107.080042 71.89227 
L 106.787758 71.97008 
L 106.787758 72.048554 
L 106.568545 72.1277 
L 106.568545 72.167528 
L 106.276261 72.167528 
L 106.203189 72.369258 
L 106.057047 72.41013 
L 106.057047 71.441054 
L 105.837834 71.519445 
L 105.764763 71.598526 
L 105.54555 71.678307 
L 105.54555 71.718463 
L 105.326337 71.799311 
L 105.253266 71.880883 
L 105.034053 71.963188 
L 105.034053 70.959281 
L 104.960982 70.998628 
L 104.522556 71.077858 
L 104.522556 71.238499 
L 104.303343 71.238499 
L 104.230272 71.402115 
L 104.011059 71.485064 
L 103.937988 71.568789 
L 103.718775 71.6533 
L 103.645704 71.738608 
L 103.35342 71.824724 
L 103.280349 71.955441 
L 103.207278 71.955441 
L 103.207278 71.99943 
L 103.207278 70.888903 
L 102.988065 70.972377 
L 102.914994 71.05666 
L 102.69578 71.05666 
L 102.69578 70.050385 
L 102.622709 70.090783 
L 102.476567 70.13138 
L 102.476567 70.172176 
L 102.476567 69.024233 
L 102.257354 69.100939 
L 102.257354 69.139578 
L 102.038141 69.217436 
L 102.038141 68.086224 
L 101.745857 68.159549 
L 101.672786 68.270935 
L 101.453573 68.346141 
L 101.380502 68.422122 
L 101.380502 67.219372 
L 101.088218 67.325746 
L 101.015147 67.397588 
L 100.722863 67.470184 
L 100.649792 67.580519 
L 100.357508 67.617687 
L 100.284437 67.768354 
L 100.065224 67.844906 
L 99.992153 67.922288 
L 99.77294 67.961294 
L 99.699869 68.079595 
L 99.480656 68.159549 
L 99.407585 68.240388 
L 99.188371 68.322129 
L 99.188371 67.055986 
L 98.896087 67.055986 
L 98.823016 67.247577 
L 98.530732 67.325746 
L 98.457661 67.444689 
L 98.165377 67.525133 
L 98.092306 67.647564 
L 97.800022 67.730385 
L 97.800022 67.814187 
L 97.434667 67.898985 
L 97.361596 68.071648 
L 97.142383 68.159549 
L 97.069312 68.248522 
L 96.850099 68.338586 
L 96.777028 68.429763 
L 96.777028 66.984997 
L 96.411673 67.068592 
L 96.338602 67.238946 
L 96.338602 65.758408 
L 96.119389 65.836054 
L 96.046318 65.914695 
L 95.754034 65.994351 
L 95.754034 66.075042 
L 95.680962 64.583189 
L 95.388678 64.69225 
L 95.315607 64.766165 
L 95.096394 64.841069 
L 95.023323 64.916982 
L 94.80411 64.993925 
L 94.80411 65.032788 
L 94.584897 65.111314 
L 94.511826 65.190923 
L 94.292613 65.231141 
L 94.219542 65.353482 
L 93.927258 65.436478 
L 93.854187 65.563188 
L 93.634974 65.649175 
L 93.634974 65.692632 
L 93.415761 65.780492 
L 93.34269 65.869634 
L 93.123477 65.914695 
L 93.050406 66.051881 
L 92.831193 66.145044 
L 92.758122 66.239608 
L 92.465838 66.335605 
L 92.392767 66.482359 
L 92.173553 66.582084 
L 92.100482 66.683361 
L 91.881269 66.786226 
L 91.808198 66.890718 
L 91.588985 66.943586 
L 91.515914 67.104738 
L 91.296701 67.214347 
L 91.296701 67.26982 
L 91.150559 67.26982 
L 91.077488 67.438978 
L 90.858275 67.438978 
L 90.785204 67.671129 
L 90.639062 67.730385 
L 90.565991 67.850406 
L 90.49292 67.850406 
L 90.49292 67.911182 
L 90.49292 65.914695 
L 90.419849 65.967685 
L 90.200636 66.075042 
L 90.127565 66.184274 
L 89.981423 66.239608 
L 89.908352 66.351746 
L 89.76221 66.408563 
L 89.689139 66.523725 
L 89.542997 66.582084 
L 89.542997 66.640971 
L 89.542997 64.511661 
L 89.469926 64.561633 
L 89.250713 64.662956 
L 89.177642 64.766165 
L 88.958429 64.818493 
L 88.885358 64.978453 
L 88.666144 65.087644 
L 88.593073 65.198945 
L 88.37386 65.255405 
L 88.300789 65.428126 
L 88.154647 65.486839 
L 88.081576 65.606028 
L 87.935434 65.66652 
L 87.862363 65.789348 
L 87.64315 65.851702 
L 87.570079 66.04264 
L 87.423937 66.107612 
L 87.350866 66.239608 
L 87.204724 66.306654 
L 87.131653 66.442896 
L 86.985511 66.512116 
L 86.91244 66.652813 
L 86.91244 64.093051 
L 86.766298 64.150881 
L 86.693227 64.268469 
L 86.547085 64.328248 
L 86.474014 64.449833 
L 86.327872 64.511661 
L 86.254801 64.637451 
L 86.035588 64.701436 
L 85.962517 64.897908 
L 85.816375 64.964949 
L 85.743304 65.10144 
L 85.597162 65.10144 
L 85.524091 65.312417 
L 85.377949 65.384469 
L 85.377949 65.45741 
L 85.158735 65.45741 
L 85.085664 65.758408 
L 84.939522 65.836054 
L 84.866451 65.994351 
L 84.720309 66.075042 
L 84.647238 66.239608 
L 84.501096 66.239608 
L 84.428025 66.494741 
L 84.281883 66.582084 
L 84.208812 66.760359 
L 84.06267 66.851341 
L 83.989599 67.037122 
L 83.843457 67.131975 
L 83.770386 67.325746 
L 83.624244 67.424722 
L 83.551173 67.62701 
L 83.405031 67.730385 
L 83.33196 67.941764 
L 83.33196 64.429378 
L 83.185818 64.511661 
L 83.112747 64.680026 
L 83.112747 61.033443 
L 82.966605 61.091767 
L 82.893534 61.211192 
L 82.747392 61.272338 
L 82.674321 61.397611 
L 82.528179 61.461789 
L 82.455108 61.593352 
L 82.235895 61.660792 
L 82.235895 61.79913 
L 82.089753 61.79913 
L 82.089753 61.94228 
L 81.943611 61.94228 
L 81.87054 62.166591 
L 81.724398 62.244056 
L 81.651326 62.40325 
L 81.505184 62.485058 
L 81.432113 62.653304 
L 81.2129 62.739831 
L 81.139829 63.00959 
L 80.993687 63.103071 
L 80.920616 63.295699 
L 80.774474 63.394961 
L 80.774474 63.49627 
L 80.774474 58.583845 
L 80.701403 58.636643 
L 80.48219 58.745646 
L 80.409119 58.859441 
L 80.189906 58.918235 
L 80.116835 59.102725 
L 79.970693 59.167083 
L 79.897622 59.300394 
L 79.678409 59.369459 
L 79.605338 59.587014 
L 79.459196 59.663204 
L 79.386125 59.821521 
L 79.239983 59.821521 
L 79.166912 60.075042 
L 79.02077 60.16418 
L 78.947699 60.349987 
L 78.801557 60.446873 
L 78.801557 60.546567 
L 78.655415 60.546567 
L 78.582344 60.863774 
L 78.509273 60.863774 
L 78.436202 61.091767 
L 78.363131 61.091767 
L 78.29006 61.334469 
L 78.216989 61.334469 
L 78.216989 61.461789 
L 78.070846 61.461789 
L 77.997775 61.870088 
L 77.924704 61.870088 
L 77.851633 62.166591 
L 77.851633 53.568 
L 73.832727 53.568 
L 73.832727 53.568 
" clip-path="url(#p3ba1f933e7)" style="fill: none; stroke: #1f77b4; stroke-width: 1.5; stroke-linecap: square"/>
   </g>
   <g id="patch_3">
    <path d="M 57.6 307.584 
L 57.6 41.472 
" style="fill: none; stroke: #000000; stroke-width: 0.8; stroke-linejoin: miter; stroke-linecap: square"/>
   </g>
   <g id="patch_4">
    <path d="M 414.72 307.584 
L 414.72 41.472 
" style="fill: none; stroke: #000000; stroke-width: 0.8; stroke-linejoin: miter; stroke-linecap: square"/>
   </g>
   <g id="patch_5">
    <path d="M 57.6 307.584 
L 414.72 307.584 
" style="fill: none; stroke: #000000; stroke-width: 0.8; stroke-linejoin: miter; stroke-linecap: square"/>
   </g>
   <g id="patch_6">
    <path d="M 57.6 41.472 
L 414.72 41.472 
" style="fill: none; stroke: #000000; stroke-width: 0.8; stroke-linejoin: miter; stroke-linecap: square"/>
   </g>
  </g>
 </g>
 <defs>
  <clipPath id="p3ba1f933e7">
   <rect x="57.6" y="41.472" width="357.12" height="266.112"/>
  </clipPath>
 </defs>
</svg>
