<?xml version="1.0" encoding="utf-8" standalone="no"?>
<!DOCTYPE svg PUBLIC "-//W3C//DTD SVG 1.1//EN"
        "http://www.w3.org/Graphics/SVG/1.1/DTD/svg11.dtd">
<svg xmlns:xlink="http://www.w3.org/1999/xlink" width="460.8pt" height="345.6pt" viewBox="0 0 460.8 345.6"
     xmlns="http://www.w3.org/2000/svg" version="1.1">
    <metadata>
        <rdf:RDF xmlns:dc="http://purl.org/dc/elements/1.1/" xmlns:cc="http://creativecommons.org/ns#"
                 xmlns:rdf="http://www.w3.org/1999/02/22-rdf-syntax-ns#">
            <cc:Work>
                <dc:type rdf:resource="http://purl.org/dc/dcmitype/StillImage"/>
                <dc:date>2022-11-30T18:54:47.721453</dc:date>
                <dc:format>image/svg+xml</dc:format>
                <dc:creator>
                    <cc:Agent>
                        <dc:title>Matplotlib v3.6.2, https://matplotlib.org/</dc:title>
                    </cc:Agent>
                </dc:creator>
            </cc:Work>
        </rdf:RDF>
    </metadata>
    <defs>
        <style type="text/css">*{stroke-linejoin: round; stroke-linecap: butt}</style>
    </defs>
    <g id="figure_1">
        <g id="patch_1">
            <path d="M 0 345.6
L 460.8 345.6 
L 460.8 0 
L 0 0 
z
" style="fill: #ffffff"/>
        </g>
        <g id="axes_1">
            <g id="patch_2">
                <path d="M 57.6 307.584
L 414.72 307.584 
L 414.72 41.472 
L 57.6 41.472 
z
" style="fill: #eaeaf2"/>
            </g>
            <g id="matplotlib.axis_1">
                <g id="xtick_1">
                    <g id="line2d_1">
                        <path d="M 73.832727 307.584
L 73.832727 41.472 
" clip-path="url(#pdc830a884b)" style="fill: none; stroke: #ffffff; stroke-width: 0.8; stroke-linecap: round"/>
                    </g>
                    <g id="line2d_2"/>
                    <g id="text_1">
                        <!-- 0.0 -->
                        <g style="fill: #262626" transform="translate(66.882727 318.241812) scale(0.1 -0.1)">
                            <defs>
                                <path id="ArialMT-30" d="M 266 2259
Q 266 3072 433 3567 
Q 600 4063 929 4331 
Q 1259 4600 1759 4600 
Q 2128 4600 2406 4451 
Q 2684 4303 2865 4023 
Q 3047 3744 3150 3342 
Q 3253 2941 3253 2259 
Q 3253 1453 3087 958 
Q 2922 463 2592 192 
Q 2263 -78 1759 -78 
Q 1097 -78 719 397 
Q 266 969 266 2259 
z
M 844 2259 
Q 844 1131 1108 757 
Q 1372 384 1759 384 
Q 2147 384 2411 759 
Q 2675 1134 2675 2259 
Q 2675 3391 2411 3762 
Q 2147 4134 1753 4134 
Q 1366 4134 1134 3806 
Q 844 3388 844 2259 
z
" transform="scale(0.015625)"/>
                                <path id="ArialMT-2e" d="M 581 0
L 581 641 
L 1222 641 
L 1222 0 
L 581 0 
z
" transform="scale(0.015625)"/>
                            </defs>
                            <use xlink:href="#ArialMT-30"/>
                            <use xlink:href="#ArialMT-2e" x="55.615234"/>
                            <use xlink:href="#ArialMT-30" x="83.398438"/>
                        </g>
                    </g>
                </g>
                <g id="xtick_2">
                    <g id="line2d_3">
                        <path d="M 138.763636 307.584
L 138.763636 41.472 
" clip-path="url(#pdc830a884b)" style="fill: none; stroke: #ffffff; stroke-width: 0.8; stroke-linecap: round"/>
                    </g>
                    <g id="line2d_4"/>
                    <g id="text_2">
                        <!-- 0.2 -->
                        <g style="fill: #262626" transform="translate(131.813636 318.241812) scale(0.1 -0.1)">
                            <defs>
                                <path id="ArialMT-32" d="M 3222 541
L 3222 0 
L 194 0 
Q 188 203 259 391 
Q 375 700 629 1000 
Q 884 1300 1366 1694 
Q 2113 2306 2375 2664 
Q 2638 3022 2638 3341 
Q 2638 3675 2398 3904 
Q 2159 4134 1775 4134 
Q 1369 4134 1125 3890 
Q 881 3647 878 3216 
L 300 3275 
Q 359 3922 746 4261 
Q 1134 4600 1788 4600 
Q 2447 4600 2831 4234 
Q 3216 3869 3216 3328 
Q 3216 3053 3103 2787 
Q 2991 2522 2730 2228 
Q 2469 1934 1863 1422 
Q 1356 997 1212 845 
Q 1069 694 975 541 
L 3222 541 
z
" transform="scale(0.015625)"/>
                            </defs>
                            <use xlink:href="#ArialMT-30"/>
                            <use xlink:href="#ArialMT-2e" x="55.615234"/>
                            <use xlink:href="#ArialMT-32" x="83.398438"/>
                        </g>
                    </g>
                </g>
                <g id="xtick_3">
                    <g id="line2d_5">
                        <path d="M 203.694545 307.584
L 203.694545 41.472 
" clip-path="url(#pdc830a884b)" style="fill: none; stroke: #ffffff; stroke-width: 0.8; stroke-linecap: round"/>
                    </g>
                    <g id="line2d_6"/>
                    <g id="text_3">
                        <!-- 0.4 -->
                        <g style="fill: #262626" transform="translate(196.744545 318.241812) scale(0.1 -0.1)">
                            <defs>
                                <path id="ArialMT-34" d="M 2069 0
L 2069 1097 
L 81 1097 
L 81 1613 
L 2172 4581 
L 2631 4581 
L 2631 1613 
L 3250 1613 
L 3250 1097 
L 2631 1097 
L 2631 0 
L 2069 0 
z
M 2069 1613 
L 2069 3678 
L 634 1613 
L 2069 1613 
z
" transform="scale(0.015625)"/>
                            </defs>
                            <use xlink:href="#ArialMT-30"/>
                            <use xlink:href="#ArialMT-2e" x="55.615234"/>
                            <use xlink:href="#ArialMT-34" x="83.398438"/>
                        </g>
                    </g>
                </g>
                <g id="xtick_4">
                    <g id="line2d_7">
                        <path d="M 268.625455 307.584
L 268.625455 41.472 
" clip-path="url(#pdc830a884b)" style="fill: none; stroke: #ffffff; stroke-width: 0.8; stroke-linecap: round"/>
                    </g>
                    <g id="line2d_8"/>
                    <g id="text_4">
                        <!-- 0.6 -->
                        <g style="fill: #262626" transform="translate(261.675455 318.241812) scale(0.1 -0.1)">
                            <defs>
                                <path id="ArialMT-36" d="M 3184 3459
L 2625 3416 
Q 2550 3747 2413 3897 
Q 2184 4138 1850 4138 
Q 1581 4138 1378 3988 
Q 1113 3794 959 3422 
Q 806 3050 800 2363 
Q 1003 2672 1297 2822 
Q 1591 2972 1913 2972 
Q 2475 2972 2870 2558 
Q 3266 2144 3266 1488 
Q 3266 1056 3080 686 
Q 2894 316 2569 119 
Q 2244 -78 1831 -78 
Q 1128 -78 684 439 
Q 241 956 241 2144 
Q 241 3472 731 4075 
Q 1159 4600 1884 4600 
Q 2425 4600 2770 4297 
Q 3116 3994 3184 3459 
z
M 888 1484 
Q 888 1194 1011 928 
Q 1134 663 1356 523 
Q 1578 384 1822 384 
Q 2178 384 2434 671 
Q 2691 959 2691 1453 
Q 2691 1928 2437 2201 
Q 2184 2475 1800 2475 
Q 1419 2475 1153 2201 
Q 888 1928 888 1484 
z
" transform="scale(0.015625)"/>
                            </defs>
                            <use xlink:href="#ArialMT-30"/>
                            <use xlink:href="#ArialMT-2e" x="55.615234"/>
                            <use xlink:href="#ArialMT-36" x="83.398438"/>
                        </g>
                    </g>
                </g>
                <g id="xtick_5">
                    <g id="line2d_9">
                        <path d="M 333.556364 307.584
L 333.556364 41.472 
" clip-path="url(#pdc830a884b)" style="fill: none; stroke: #ffffff; stroke-width: 0.8; stroke-linecap: round"/>
                    </g>
                    <g id="line2d_10"/>
                    <g id="text_5">
                        <!-- 0.8 -->
                        <g style="fill: #262626" transform="translate(326.606364 318.241812) scale(0.1 -0.1)">
                            <defs>
                                <path id="ArialMT-38" d="M 1131 2484
Q 781 2613 612 2850 
Q 444 3088 444 3419 
Q 444 3919 803 4259 
Q 1163 4600 1759 4600 
Q 2359 4600 2725 4251 
Q 3091 3903 3091 3403 
Q 3091 3084 2923 2848 
Q 2756 2613 2416 2484 
Q 2838 2347 3058 2040 
Q 3278 1734 3278 1309 
Q 3278 722 2862 322 
Q 2447 -78 1769 -78 
Q 1091 -78 675 323 
Q 259 725 259 1325 
Q 259 1772 486 2073 
Q 713 2375 1131 2484 
z
M 1019 3438 
Q 1019 3113 1228 2906 
Q 1438 2700 1772 2700 
Q 2097 2700 2305 2904 
Q 2513 3109 2513 3406 
Q 2513 3716 2298 3927 
Q 2084 4138 1766 4138 
Q 1444 4138 1231 3931 
Q 1019 3725 1019 3438 
z
M 838 1322 
Q 838 1081 952 856 
Q 1066 631 1291 507 
Q 1516 384 1775 384 
Q 2178 384 2440 643 
Q 2703 903 2703 1303 
Q 2703 1709 2433 1975 
Q 2163 2241 1756 2241 
Q 1359 2241 1098 1978 
Q 838 1716 838 1322 
z
" transform="scale(0.015625)"/>
                            </defs>
                            <use xlink:href="#ArialMT-30"/>
                            <use xlink:href="#ArialMT-2e" x="55.615234"/>
                            <use xlink:href="#ArialMT-38" x="83.398438"/>
                        </g>
                    </g>
                </g>
                <g id="xtick_6">
                    <g id="line2d_11">
                        <path d="M 398.487273 307.584
L 398.487273 41.472 
" clip-path="url(#pdc830a884b)" style="fill: none; stroke: #ffffff; stroke-width: 0.8; stroke-linecap: round"/>
                    </g>
                    <g id="line2d_12"/>
                    <g id="text_6">
                        <!-- 1.0 -->
                        <g style="fill: #262626" transform="translate(391.537273 318.241812) scale(0.1 -0.1)">
                            <defs>
                                <path id="ArialMT-31" d="M 2384 0
L 1822 0 
L 1822 3584 
Q 1619 3391 1289 3197 
Q 959 3003 697 2906 
L 697 3450 
Q 1169 3672 1522 3987 
Q 1875 4303 2022 4600 
L 2384 4600 
L 2384 0 
z
" transform="scale(0.015625)"/>
                            </defs>
                            <use xlink:href="#ArialMT-31"/>
                            <use xlink:href="#ArialMT-2e" x="55.615234"/>
                            <use xlink:href="#ArialMT-30" x="83.398438"/>
                        </g>
                    </g>
                </g>
                <g id="text_7">
                    <!-- Recall -->
                    <g style="fill: #262626" transform="translate(222.26625 331.387125) scale(0.1 -0.1)">
                        <defs>
                            <path id="ArialMT-52" d="M 503 0
L 503 4581 
L 2534 4581 
Q 3147 4581 3465 4457 
Q 3784 4334 3975 4021 
Q 4166 3709 4166 3331 
Q 4166 2844 3850 2509 
Q 3534 2175 2875 2084 
Q 3116 1969 3241 1856 
Q 3506 1613 3744 1247 
L 4541 0 
L 3778 0 
L 3172 953 
Q 2906 1366 2734 1584 
Q 2563 1803 2427 1890 
Q 2291 1978 2150 2013 
Q 2047 2034 1813 2034 
L 1109 2034 
L 1109 0 
L 503 0 
z
M 1109 2559 
L 2413 2559 
Q 2828 2559 3062 2645 
Q 3297 2731 3419 2920 
Q 3541 3109 3541 3331 
Q 3541 3656 3305 3865 
Q 3069 4075 2559 4075 
L 1109 4075 
L 1109 2559 
z
" transform="scale(0.015625)"/>
                            <path id="ArialMT-65" d="M 2694 1069
L 3275 997 
Q 3138 488 2766 206 
Q 2394 -75 1816 -75 
Q 1088 -75 661 373 
Q 234 822 234 1631 
Q 234 2469 665 2931 
Q 1097 3394 1784 3394 
Q 2450 3394 2872 2941 
Q 3294 2488 3294 1666 
Q 3294 1616 3291 1516 
L 816 1516 
Q 847 969 1125 678 
Q 1403 388 1819 388 
Q 2128 388 2347 550 
Q 2566 713 2694 1069 
z
M 847 1978 
L 2700 1978 
Q 2663 2397 2488 2606 
Q 2219 2931 1791 2931 
Q 1403 2931 1139 2672 
Q 875 2413 847 1978 
z
" transform="scale(0.015625)"/>
                            <path id="ArialMT-63" d="M 2588 1216
L 3141 1144 
Q 3050 572 2676 248 
Q 2303 -75 1759 -75 
Q 1078 -75 664 370 
Q 250 816 250 1647 
Q 250 2184 428 2587 
Q 606 2991 970 3192 
Q 1334 3394 1763 3394 
Q 2303 3394 2647 3120 
Q 2991 2847 3088 2344 
L 2541 2259 
Q 2463 2594 2264 2762 
Q 2066 2931 1784 2931 
Q 1359 2931 1093 2626 
Q 828 2322 828 1663 
Q 828 994 1084 691 
Q 1341 388 1753 388 
Q 2084 388 2306 591 
Q 2528 794 2588 1216 
z
" transform="scale(0.015625)"/>
                            <path id="ArialMT-61" d="M 2588 409
Q 2275 144 1986 34 
Q 1697 -75 1366 -75 
Q 819 -75 525 192 
Q 231 459 231 875 
Q 231 1119 342 1320 
Q 453 1522 633 1644 
Q 813 1766 1038 1828 
Q 1203 1872 1538 1913 
Q 2219 1994 2541 2106 
Q 2544 2222 2544 2253 
Q 2544 2597 2384 2738 
Q 2169 2928 1744 2928 
Q 1347 2928 1158 2789 
Q 969 2650 878 2297 
L 328 2372 
Q 403 2725 575 2942 
Q 747 3159 1072 3276 
Q 1397 3394 1825 3394 
Q 2250 3394 2515 3294 
Q 2781 3194 2906 3042 
Q 3031 2891 3081 2659 
Q 3109 2516 3109 2141 
L 3109 1391 
Q 3109 606 3145 398 
Q 3181 191 3288 0 
L 2700 0 
Q 2613 175 2588 409 
z
M 2541 1666 
Q 2234 1541 1622 1453 
Q 1275 1403 1131 1340 
Q 988 1278 909 1158 
Q 831 1038 831 891 
Q 831 666 1001 516 
Q 1172 366 1500 366 
Q 1825 366 2078 508 
Q 2331 650 2450 897 
Q 2541 1088 2541 1459 
L 2541 1666 
z
" transform="scale(0.015625)"/>
                            <path id="ArialMT-6c" d="M 409 0
L 409 4581 
L 972 4581 
L 972 0 
L 409 0 
z
" transform="scale(0.015625)"/>
                        </defs>
                        <use xlink:href="#ArialMT-52"/>
                        <use xlink:href="#ArialMT-65" x="72.216797"/>
                        <use xlink:href="#ArialMT-63" x="127.832031"/>
                        <use xlink:href="#ArialMT-61" x="177.832031"/>
                        <use xlink:href="#ArialMT-6c" x="233.447266"/>
                        <use xlink:href="#ArialMT-6c" x="255.664062"/>
                    </g>
                </g>
            </g>
            <g id="matplotlib.axis_2">
                <g id="ytick_1">
                    <g id="line2d_13">
                        <path d="M 57.6 297.207035
L 414.72 297.207035 
" clip-path="url(#pdc830a884b)" style="fill: none; stroke: #ffffff; stroke-width: 0.8; stroke-linecap: round"/>
                    </g>
                    <g id="line2d_14"/>
                    <g id="text_8">
                        <!-- 0.5 -->
                        <g style="fill: #262626" transform="translate(40.2 300.785941) scale(0.1 -0.1)">
                            <defs>
                                <path id="ArialMT-35" d="M 266 1200
L 856 1250 
Q 922 819 1161 601 
Q 1400 384 1738 384 
Q 2144 384 2425 690 
Q 2706 997 2706 1503 
Q 2706 1984 2436 2262 
Q 2166 2541 1728 2541 
Q 1456 2541 1237 2417 
Q 1019 2294 894 2097 
L 366 2166 
L 809 4519 
L 3088 4519 
L 3088 3981 
L 1259 3981 
L 1013 2750 
Q 1425 3038 1878 3038 
Q 2478 3038 2890 2622 
Q 3303 2206 3303 1553 
Q 3303 931 2941 478 
Q 2500 -78 1738 -78 
Q 1113 -78 717 272 
Q 322 622 266 1200 
z
" transform="scale(0.015625)"/>
                            </defs>
                            <use xlink:href="#ArialMT-30"/>
                            <use xlink:href="#ArialMT-2e" x="55.615234"/>
                            <use xlink:href="#ArialMT-35" x="83.398438"/>
                        </g>
                    </g>
                </g>
                <g id="ytick_2">
                    <g id="line2d_15">
                        <path d="M 57.6 248.479228
L 414.72 248.479228 
" clip-path="url(#pdc830a884b)" style="fill: none; stroke: #ffffff; stroke-width: 0.8; stroke-linecap: round"/>
                    </g>
                    <g id="line2d_16"/>
                    <g id="text_9">
                        <!-- 0.6 -->
                        <g style="fill: #262626" transform="translate(40.2 252.058134) scale(0.1 -0.1)">
                            <use xlink:href="#ArialMT-30"/>
                            <use xlink:href="#ArialMT-2e" x="55.615234"/>
                            <use xlink:href="#ArialMT-36" x="83.398438"/>
                        </g>
                    </g>
                </g>
                <g id="ytick_3">
                    <g id="line2d_17">
                        <path d="M 57.6 199.751421
L 414.72 199.751421 
" clip-path="url(#pdc830a884b)" style="fill: none; stroke: #ffffff; stroke-width: 0.8; stroke-linecap: round"/>
                    </g>
                    <g id="line2d_18"/>
                    <g id="text_10">
                        <!-- 0.7 -->
                        <g style="fill: #262626" transform="translate(40.2 203.330327) scale(0.1 -0.1)">
                            <defs>
                                <path id="ArialMT-37" d="M 303 3981
L 303 4522 
L 3269 4522 
L 3269 4084 
Q 2831 3619 2401 2847 
Q 1972 2075 1738 1259 
Q 1569 684 1522 0 
L 944 0 
Q 953 541 1156 1306 
Q 1359 2072 1739 2783 
Q 2119 3494 2547 3981 
L 303 3981 
z
" transform="scale(0.015625)"/>
                            </defs>
                            <use xlink:href="#ArialMT-30"/>
                            <use xlink:href="#ArialMT-2e" x="55.615234"/>
                            <use xlink:href="#ArialMT-37" x="83.398438"/>
                        </g>
                    </g>
                </g>
                <g id="ytick_4">
                    <g id="line2d_19">
                        <path d="M 57.6 151.023614
L 414.72 151.023614 
" clip-path="url(#pdc830a884b)" style="fill: none; stroke: #ffffff; stroke-width: 0.8; stroke-linecap: round"/>
                    </g>
                    <g id="line2d_20"/>
                    <g id="text_11">
                        <!-- 0.8 -->
                        <g style="fill: #262626" transform="translate(40.2 154.60252) scale(0.1 -0.1)">
                            <use xlink:href="#ArialMT-30"/>
                            <use xlink:href="#ArialMT-2e" x="55.615234"/>
                            <use xlink:href="#ArialMT-38" x="83.398438"/>
                        </g>
                    </g>
                </g>
                <g id="ytick_5">
                    <g id="line2d_21">
                        <path d="M 57.6 102.295807
L 414.72 102.295807 
" clip-path="url(#pdc830a884b)" style="fill: none; stroke: #ffffff; stroke-width: 0.8; stroke-linecap: round"/>
                    </g>
                    <g id="line2d_22"/>
                    <g id="text_12">
                        <!-- 0.9 -->
                        <g style="fill: #262626" transform="translate(40.2 105.874713) scale(0.1 -0.1)">
                            <defs>
                                <path id="ArialMT-39" d="M 350 1059
L 891 1109 
Q 959 728 1153 556 
Q 1347 384 1650 384 
Q 1909 384 2104 503 
Q 2300 622 2425 820 
Q 2550 1019 2634 1356 
Q 2719 1694 2719 2044 
Q 2719 2081 2716 2156 
Q 2547 1888 2255 1720 
Q 1963 1553 1622 1553 
Q 1053 1553 659 1965 
Q 266 2378 266 3053 
Q 266 3750 677 4175 
Q 1088 4600 1706 4600 
Q 2153 4600 2523 4359 
Q 2894 4119 3086 3673 
Q 3278 3228 3278 2384 
Q 3278 1506 3087 986 
Q 2897 466 2520 194 
Q 2144 -78 1638 -78 
Q 1100 -78 759 220 
Q 419 519 350 1059 
z
M 2653 3081 
Q 2653 3566 2395 3850 
Q 2138 4134 1775 4134 
Q 1400 4134 1122 3828 
Q 844 3522 844 3034 
Q 844 2597 1108 2323 
Q 1372 2050 1759 2050 
Q 2150 2050 2401 2323 
Q 2653 2597 2653 3081 
z
" transform="scale(0.015625)"/>
                            </defs>
                            <use xlink:href="#ArialMT-30"/>
                            <use xlink:href="#ArialMT-2e" x="55.615234"/>
                            <use xlink:href="#ArialMT-39" x="83.398438"/>
                        </g>
                    </g>
                </g>
                <g id="ytick_6">
                    <g id="line2d_23">
                        <path d="M 57.6 53.568
L 414.72 53.568 
" clip-path="url(#pdc830a884b)" style="fill: none; stroke: #ffffff; stroke-width: 0.8; stroke-linecap: round"/>
                    </g>
                    <g id="line2d_24"/>
                    <g id="text_13">
                        <!-- 1.0 -->
                        <g style="fill: #262626" transform="translate(40.2 57.146906) scale(0.1 -0.1)">
                            <use xlink:href="#ArialMT-31"/>
                            <use xlink:href="#ArialMT-2e" x="55.615234"/>
                            <use xlink:href="#ArialMT-30" x="83.398438"/>
                        </g>
                    </g>
                </g>
                <g id="text_14">
                    <!-- Precision -->
                    <g style="fill: #262626" transform="translate(34.2125 195.091281) rotate(-90) scale(0.1 -0.1)">
                        <defs>
                            <path id="ArialMT-50" d="M 494 0
L 494 4581 
L 2222 4581 
Q 2678 4581 2919 4538 
Q 3256 4481 3484 4323 
Q 3713 4166 3852 3881 
Q 3991 3597 3991 3256 
Q 3991 2672 3619 2267 
Q 3247 1863 2275 1863 
L 1100 1863 
L 1100 0 
L 494 0 
z
M 1100 2403 
L 2284 2403 
Q 2872 2403 3119 2622 
Q 3366 2841 3366 3238 
Q 3366 3525 3220 3729 
Q 3075 3934 2838 4000 
Q 2684 4041 2272 4041 
L 1100 4041 
L 1100 2403 
z
" transform="scale(0.015625)"/>
                            <path id="ArialMT-72" d="M 416 0
L 416 3319 
L 922 3319 
L 922 2816 
Q 1116 3169 1280 3281 
Q 1444 3394 1641 3394 
Q 1925 3394 2219 3213 
L 2025 2691 
Q 1819 2813 1613 2813 
Q 1428 2813 1281 2702 
Q 1134 2591 1072 2394 
Q 978 2094 978 1738 
L 978 0 
L 416 0 
z
" transform="scale(0.015625)"/>
                            <path id="ArialMT-69" d="M 425 3934
L 425 4581 
L 988 4581 
L 988 3934 
L 425 3934 
z
M 425 0 
L 425 3319 
L 988 3319 
L 988 0 
L 425 0 
z
" transform="scale(0.015625)"/>
                            <path id="ArialMT-73" d="M 197 991
L 753 1078 
Q 800 744 1014 566 
Q 1228 388 1613 388 
Q 2000 388 2187 545 
Q 2375 703 2375 916 
Q 2375 1106 2209 1216 
Q 2094 1291 1634 1406 
Q 1016 1563 777 1677 
Q 538 1791 414 1992 
Q 291 2194 291 2438 
Q 291 2659 392 2848 
Q 494 3038 669 3163 
Q 800 3259 1026 3326 
Q 1253 3394 1513 3394 
Q 1903 3394 2198 3281 
Q 2494 3169 2634 2976 
Q 2775 2784 2828 2463 
L 2278 2388 
Q 2241 2644 2061 2787 
Q 1881 2931 1553 2931 
Q 1166 2931 1000 2803 
Q 834 2675 834 2503 
Q 834 2394 903 2306 
Q 972 2216 1119 2156 
Q 1203 2125 1616 2013 
Q 2213 1853 2448 1751 
Q 2684 1650 2818 1456 
Q 2953 1263 2953 975 
Q 2953 694 2789 445 
Q 2625 197 2315 61 
Q 2006 -75 1616 -75 
Q 969 -75 630 194 
Q 291 463 197 991 
z
" transform="scale(0.015625)"/>
                            <path id="ArialMT-6f" d="M 213 1659
Q 213 2581 725 3025 
Q 1153 3394 1769 3394 
Q 2453 3394 2887 2945 
Q 3322 2497 3322 1706 
Q 3322 1066 3130 698 
Q 2938 331 2570 128 
Q 2203 -75 1769 -75 
Q 1072 -75 642 372 
Q 213 819 213 1659 
z
M 791 1659 
Q 791 1022 1069 705 
Q 1347 388 1769 388 
Q 2188 388 2466 706 
Q 2744 1025 2744 1678 
Q 2744 2294 2464 2611 
Q 2184 2928 1769 2928 
Q 1347 2928 1069 2612 
Q 791 2297 791 1659 
z
" transform="scale(0.015625)"/>
                            <path id="ArialMT-6e" d="M 422 0
L 422 3319 
L 928 3319 
L 928 2847 
Q 1294 3394 1984 3394 
Q 2284 3394 2536 3286 
Q 2788 3178 2913 3003 
Q 3038 2828 3088 2588 
Q 3119 2431 3119 2041 
L 3119 0 
L 2556 0 
L 2556 2019 
Q 2556 2363 2490 2533 
Q 2425 2703 2258 2804 
Q 2091 2906 1866 2906 
Q 1506 2906 1245 2678 
Q 984 2450 984 1813 
L 984 0 
L 422 0 
z
" transform="scale(0.015625)"/>
                        </defs>
                        <use xlink:href="#ArialMT-50"/>
                        <use xlink:href="#ArialMT-72" x="66.699219"/>
                        <use xlink:href="#ArialMT-65" x="100"/>
                        <use xlink:href="#ArialMT-63" x="155.615234"/>
                        <use xlink:href="#ArialMT-69" x="205.615234"/>
                        <use xlink:href="#ArialMT-73" x="227.832031"/>
                        <use xlink:href="#ArialMT-69" x="277.832031"/>
                        <use xlink:href="#ArialMT-6f" x="300.048828"/>
                        <use xlink:href="#ArialMT-6e" x="355.664062"/>
                    </g>
                </g>
            </g>
            <g id="line2d_25">
                <path d="M 398.487273 295.488
L 398.415063 275.86725 
L 398.342853 275.86725 
L 398.342853 275.765856 
L 398.270644 250.17422 
L 398.198434 250.17422 
L 398.198434 250.084501 
L 398.126225 244.600528 
L 398.054015 244.600528 
L 398.054015 244.506027 
L 397.981805 241.408526 
L 397.909596 241.408526 
L 397.909596 241.311214 
L 397.837386 240.514105 
L 397.765176 240.514105 
L 397.765176 240.415968 
L 397.692967 234.890289 
L 397.620757 234.890289 
L 397.620757 234.787117 
L 397.548547 231.387565 
L 397.476338 231.387565 
L 397.476338 231.281178 
L 397.476338 230.48934 
L 397.331918 230.48934 
L 397.259709 227.850447 
L 397.187499 227.850447 
L 397.187499 227.740718 
L 397.11529 224.129473 
L 397.04308 224.129473 
L 397.04308 224.062244 
L 396.97087 223.302839 
L 396.826451 223.302839 
L 396.826451 223.259765 
L 396.754241 222.913836 
L 396.682032 222.913836 
L 396.682032 222.845741 
L 396.609822 222.59169 
L 396.393193 222.523354 
L 396.320984 219.590702 
L 396.248774 219.590702 
L 396.248774 219.52033 
L 396.176564 219.069545 
L 396.104355 219.069545 
L 396.104355 218.998796 
L 396.032145 217.827982 
L 395.959935 217.827982 
L 395.887726 214.971097 
L 395.815516 214.971097 
L 395.815516 214.897538 
L 395.743306 214.382944 
L 395.526677 214.382218 
L 395.526677 214.308193 
L 395.454468 213.692539 
L 395.165629 213.692539 
L 395.09342 211.277792 
L 394.949 211.251657 
L 394.949 211.17536 
L 394.876791 210.293995 
L 394.804581 210.293995 
L 394.732371 208.056191 
L 394.587952 208.079936 
L 394.587952 207.950163 
L 394.515742 207.512442 
L 394.082485 207.528334 
L 394.082485 207.449241 
L 394.010275 206.699617 
L 393.649227 206.619908 
L 393.577017 203.763224 
L 393.288179 203.728268 
L 393.288179 203.699028 
L 393.215969 203.45864 
L 393.07155 203.482108 
L 393.07155 203.3999 
L 393.07155 202.817457 
L 392.92713 202.817457 
L 392.854921 200.698414 
L 392.782711 200.698414 
L 392.782711 200.614132 
L 392.782711 200.560341 
L 392.710501 200.583584 
L 392.566082 200.499182 
L 392.566082 200.52243 
L 392.493873 199.952265 
L 392.349453 199.867347 
L 392.349453 199.890555 
L 392.277244 199.480496 
L 392.132824 199.503678 
L 392.132824 199.418358 
L 392.060615 197.146573 
L 391.988405 197.146573 
L 391.988405 197.059492 
L 391.916195 196.641468 
L 391.843986 196.641468 
L 391.843986 196.553976 
L 391.771776 196.079021 
L 391.627357 195.991075 
L 391.627357 196.013977 
L 391.627357 195.95852 
L 391.555147 195.981423 
L 391.410728 195.893345 
L 391.410728 195.916253 
L 391.338518 195.828087 
L 391.121889 195.873918 
L 391.121889 195.730041 
L 391.121889 195.117047 
L 390.90526 195.117047 
L 390.833051 192.450186 
L 390.110954 192.483598 
L 390.110954 192.392527 
L 390.110954 192.107843 
L 390.038745 192.130484 
L 389.822116 192.06175 
L 389.822116 192.02735 
L 389.749906 191.707263 
L 389.316648 191.648765 
L 389.316648 191.614133 
L 389.244439 191.522155 
L 388.594552 191.567453 
L 388.522342 188.972362 
L 388.377923 188.994802 
L 388.377923 188.900576 
L 388.305713 188.51401 
L 388.161294 188.477906 
L 388.161294 188.441777 
L 388.089084 187.70133 
L 387.800246 187.650682 
L 387.800246 187.614151 
L 387.800246 187.55525 
L 387.728036 187.577596 
L 387.655827 187.577596 
L 387.655827 187.482063 
L 387.583617 187.268379 
L 387.222569 187.268379 
L 387.222569 184.401299 
L 387.150359 184.423355 
L 387.00594 184.445418 
L 387.00594 184.347252 
L 386.93373 184.287104 
L 386.93373 184.309163 
L 386.861521 184.309163 
L 386.861521 184.210845 
L 386.789311 183.750507 
L 386.717101 183.750507 
L 386.717101 183.651707 
L 386.644892 183.49232 
L 386.356053 183.437265 
L 386.356053 183.398699 
L 386.283843 183.17818 
L 386.211634 183.17818 
L 386.211634 183.07877 
L 386.211634 182.835721 
L 386.139424 182.85768 
L 386.067214 182.85768 
L 386.067214 182.879645 
L 386.067214 182.514373 
L 385.778376 182.514373 
L 385.778376 179.899351 
L 385.706166 179.921017 
L 385.633957 179.921017 
L 385.633957 179.818838 
L 385.561747 179.344192 
L 385.272908 179.284736 
L 385.272908 179.306363 
L 385.200699 179.016719 
L 384.98407 178.935251 
L 384.98407 178.956859 
L 384.91186 178.791236 
L 384.767441 178.687891 
L 384.767441 178.709485 
L 384.767441 178.584438 
L 384.695231 178.606026 
L 384.550812 178.50246 
L 384.550812 178.524049 
L 384.478602 178.357697 
L 384.334183 178.31658 
L 384.334183 178.275435 
L 384.334183 178.087119 
L 384.261973 178.10868 
L 383.684296 178.10868 
L 383.684296 175.940276 
L 383.612087 175.961636 
L 383.539877 175.961636 
L 383.539877 175.855563 
L 383.467667 175.302269 
L 383.178829 175.302209 
L 383.178829 175.195474 
L 383.178829 175.003229 
L 383.106619 175.024514 
L 383.03441 175.024514 
L 383.03441 174.917502 
L 383.03441 174.853315 
L 382.9622 174.874593 
L 382.88999 174.874593 
L 382.88999 174.767407 
L 382.88999 174.703138 
L 382.817781 174.724408 
L 382.673361 174.617049 
L 382.673361 172.697632 
L 382.601152 172.71868 
L 382.384523 172.63064 
L 382.384523 172.651694 
L 382.384523 172.586573 
L 382.312313 172.607627 
L 382.095684 172.649758 
L 382.095684 172.540461 
L 382.023475 172.431047 
L 381.806846 172.473175 
L 381.806846 172.363629 
L 381.734636 172.057697 
L 381.662426 172.057697 
L 381.662426 171.947755 
L 381.662426 171.816684 
L 381.590217 171.837695 
L 381.445797 171.793127 
L 381.445797 171.748527 
L 381.445797 171.617223 
L 380.507072 171.617223 
L 380.434863 169.061221 
L 380.362653 169.061221 
L 380.362653 169.01515 
L 380.290443 168.634383 
L 380.001605 168.655097 
L 380.001605 168.583184 
L 380.001605 168.448987 
L 379.929395 168.469697 
L 379.857185 168.469697 
L 379.857185 168.423264 
L 379.784976 167.568691 
L 379.568347 167.474869 
L 379.568347 167.495482 
L 379.568347 166.954198 
L 379.496137 166.97475 
L 379.423928 166.97475 
L 379.423928 166.927522 
L 379.351718 166.676648 
L 378.340783 166.717719 
L 378.340783 164.568534 
L 378.268573 164.588864 
L 377.763106 164.50399 
L 377.763106 164.524346 
L 377.690896 164.40654 
L 377.618687 164.40654 
L 377.618687 164.357761 
L 377.618687 164.080982 
L 377.546477 164.101297 
L 377.474267 164.101297 
L 377.474267 164.052343 
L 377.474267 163.913714 
L 377.402058 163.934017 
L 376.82438 163.93747 
L 376.82438 163.88833 
L 376.752171 163.630439 
L 376.607752 163.650753 
L 376.607752 163.531767 
L 376.607752 163.462075 
L 376.535542 163.482377 
L 375.452397 163.482377 
L 375.452397 160.760076 
L 375.380188 160.780097 
L 374.369253 160.756393 
L 374.369253 160.70524 
L 374.369253 160.42001 
L 374.297043 160.440057 
L 374.224833 160.440057 
L 374.224833 160.388718 
L 374.152624 160.051351 
L 374.080414 160.051351 
L 374.080414 159.999789 
L 374.008204 159.804885 
L 373.935995 159.804885 
L 373.935995 159.753172 
L 373.935995 159.681444 
L 373.863785 159.70142 
L 372.85285 159.70142 
L 372.85285 157.011471 
L 372.780641 157.031152 
L 372.564012 156.997478 
L 372.564012 156.944075 
L 372.564012 156.870951 
L 372.491802 156.890631 
L 372.202963 156.876525 
L 372.202963 156.822994 
L 372.202963 156.676448 
L 372.130754 156.696126 
L 371.769706 156.701544 
L 371.769706 156.647844 
L 371.769706 156.574411 
L 371.697496 156.594103 
L 371.336448 156.525892 
L 371.336448 156.545601 
L 371.336448 156.472023 
L 371.264238 156.491728 
L 371.119819 156.511442 
L 371.119819 156.383859 
L 371.047609 155.887042 
L 370.9754 155.887042 
L 370.9754 155.832771 
L 370.9754 155.75883 
L 370.036674 155.75883 
L 370.036674 152.726722 
L 369.603416 152.823086 
L 369.531207 152.861684 
L 369.531207 152.710747 
L 369.458997 152.710747 
L 369.458997 152.654511 
L 369.386787 152.14423 
L 369.242368 152.087664 
L 369.242368 152.106876 
L 369.242368 152.031054 
L 369.170159 152.050263 
L 369.025739 152.050263 
L 369.025739 152.012818 
L 368.95353 151.880157 
L 368.014804 151.806467 
L 368.014804 151.825718 
L 367.942595 151.616107 
L 367.870385 151.616107 
L 367.870385 151.558979 
L 367.870385 151.482588 
L 367.798175 151.501806 
L 367.364918 151.52152 
L 367.364918 151.464243 
L 367.364918 151.387683 
L 365.776305 151.387683 
L 365.776305 149.260851 
L 365.704096 149.279875 
L 365.487467 149.240062 
L 365.487467 149.181169 
L 365.487467 149.025221 
L 365.415257 149.044229 
L 365.270838 149.063244 
L 365.270838 149.004211 
L 365.198628 148.867 
L 364.90979 148.767607 
L 364.90979 148.786609 
L 364.90979 148.708338 
L 364.83758 148.727335 
L 364.548742 148.706024 
L 364.548742 148.646648 
L 364.548742 148.489768 
L 364.476532 148.508756 
L 364.043274 148.446662 
L 364.043274 148.465672 
L 363.971064 148.327368 
L 363.754435 148.286646 
L 363.754435 148.226874 
L 363.754435 147.911454 
L 362.454662 147.911454 
L 362.382452 145.563251 
L 361.949194 145.496044 
L 361.949194 145.514736 
L 361.949194 145.273435 
L 361.876985 145.292097 
L 361.804775 145.292097 
L 361.804775 145.230243 
L 361.732566 144.926432 
L 361.010469 144.851757 
L 361.010469 144.870409 
L 361.010469 144.789482 
L 360.577211 144.882794 
L 360.577211 144.901479 
L 360.505002 144.352129 
L 360.432792 144.352129 
L 360.432792 144.37074 
L 360.432792 144.208117 
L 360.360582 144.226709 
L 360.288373 144.226709 
L 360.288373 144.163923 
L 360.216163 143.938116 
L 360.143953 143.938116 
L 360.143953 143.875133 
L 360.143953 143.630291 
L 360.071744 143.648811 
L 358.194293 143.667339 
L 358.122083 141.426174 
L 357.905455 141.379569 
L 357.905455 141.397867 
L 357.905455 141.231326 
L 357.833245 141.249604 
L 357.688826 141.26789 
L 357.688826 141.202821 
L 357.688826 141.03599 
L 357.616616 141.05425 
L 357.472197 141.072519 
L 357.472197 141.007286 
L 357.472197 140.840164 
L 357.399987 140.858407 
L 357.255568 140.793016 
L 357.255568 140.81126 
L 357.183358 140.49449 
L 357.038939 140.512694 
L 357.038939 140.447036 
L 357.038939 140.027154 
L 356.966729 140.045291 
L 356.89452 140.045291 
L 356.89452 139.979326 
L 356.89452 139.811001 
L 356.82231 139.829111 
L 356.461262 139.817345 
L 356.461262 139.751145 
L 356.461262 139.666775 
L 355.017069 139.666775 
L 354.944859 137.062859 
L 354.511601 136.979701 
L 354.511601 136.997486 
L 354.439392 136.842959 
L 354.367182 136.842959 
L 354.367182 136.774501 
L 354.294973 136.446919 
L 354.222763 136.446919 
L 354.222763 136.378189 
L 354.222763 136.291709 
L 354.150553 136.3094 
L 353.789505 136.207022 
L 353.789505 136.224721 
L 353.717295 135.808583 
L 353.500666 135.756962 
L 353.500666 135.774603 
L 353.428457 135.531207 
L 353.284038 135.548818 
L 353.284038 135.479318 
L 353.284038 135.392161 
L 353.211828 135.409757 
L 353.139618 135.409757 
L 353.139618 135.427362 
L 353.139618 135.252875 
L 351.045539 135.252875 
L 350.973329 132.956597 
L 350.7567 132.902229 
L 350.7567 132.919548 
L 350.7567 132.563046 
L 350.68449 132.580309 
L 350.395652 132.542858 
L 350.395652 132.470795 
L 350.323442 132.309234 
L 350.106813 132.236989 
L 350.106813 132.18191 
L 350.034604 132.199146 
L 349.890184 132.21639 
L 349.890184 132.143994 
L 349.890184 131.964581 
L 349.817975 131.981792 
L 349.745765 131.981792 
L 349.745765 131.909214 
L 349.745765 131.819377 
L 349.673555 131.836571 
L 349.456927 131.870983 
L 349.456927 131.79826 
L 349.384717 131.635437 
L 346.568541 131.596889 
L 346.568541 129.480565 
L 346.496331 129.497536 
L 345.774235 129.46631 
L 345.774235 129.483323 
L 345.702025 129.131094 
L 345.196558 129.047899 
L 345.196558 129.064872 
L 345.124348 128.803822 
L 345.052138 128.803822 
L 345.052138 128.727981 
L 344.979929 128.466274 
L 344.041203 128.57622 
L 343.968994 128.610145 
L 341.297237 128.610145 
L 341.225027 126.234238 
L 341.080608 126.15563 
L 341.080608 126.17232 
L 341.008399 125.902719 
L 340.79177 125.840473 
L 340.79177 125.857122 
L 340.71956 125.586732 
L 340.430721 125.540759 
L 340.430721 125.557373 
L 340.430721 125.461486 
L 340.358512 125.478089 
L 340.214093 125.398732 
L 340.214093 125.415333 
L 340.214093 125.223226 
L 340.141883 125.239797 
L 339.564206 125.163434 
L 339.564206 125.18003 
L 339.564206 125.083654 
L 339.491996 125.10024 
L 338.986529 125.006769 
L 338.986529 125.023371 
L 338.986529 124.926713 
L 338.914319 124.943304 
L 335.520466 124.943304 
L 335.520466 122.882584 
L 335.448256 122.898994 
L 335.231627 122.832829 
L 335.231627 122.849242 
L 335.231627 122.750167 
L 335.159418 122.766569 
L 334.65395 122.865142 
L 334.581741 122.898063 
L 334.365112 122.831676 
L 334.365112 122.848144 
L 334.292902 122.665723 
L 334.076273 122.59906 
L 334.076273 122.6155 
L 334.004063 122.033358 
L 333.931854 122.033358 
L 333.931854 121.949743 
L 333.859644 121.665867 
L 333.715225 121.581956 
L 333.715225 121.598216 
L 333.643015 121.497965 
L 333.643015 121.514212 
L 333.281967 121.47888 
L 333.281967 121.495146 
L 333.281967 121.294163 
L 333.209757 121.310397 
L 329.527066 121.391681 
L 329.527066 119.181445 
L 329.454856 119.197483 
L 329.166017 119.142489 
L 329.166017 119.158538 
L 329.093808 118.968045 
L 328.949389 118.984066 
L 328.949389 118.896702 
L 328.949389 118.793258 
L 328.877179 118.809252 
L 328.371711 118.905384 
L 328.299502 118.93749 
L 328.227292 118.93749 
L 328.227292 118.849846 
L 328.227292 118.642272 
L 328.155082 118.658281 
L 327.649615 118.754497 
L 327.577405 118.786632 
L 327.577405 118.682574 
L 327.360776 118.610545 
L 327.360776 118.626597 
L 327.288567 118.329759 
L 327.071938 118.361772 
L 327.071938 118.168803 
L 326.927519 118.168803 
L 326.927519 118.09616 
L 326.855309 117.693069 
L 323.894714 117.693069 
L 323.894714 115.046434 
L 323.822504 115.061951 
L 322.306102 115.157969 
L 322.306102 115.173605 
L 322.306102 115.065512 
L 322.233892 115.081132 
L 321.656215 114.973968 
L 321.656215 114.881135 
L 321.584005 114.896756 
L 321.222957 114.850676 
L 321.222957 114.866313 
L 321.222957 114.539975 
L 321.150747 114.555549 
L 320.861909 114.602318 
L 320.861909 114.508915 
L 320.789699 114.197068 
L 320.57307 114.118823 
L 320.57307 113.915515 
L 320.500861 113.930992 
L 320.284232 113.852402 
L 320.284232 113.867879 
L 320.284232 113.648522 
L 320.212022 113.663959 
L 316.52933 113.569593 
L 316.52933 112.117904 
L 316.457121 112.133235 
L 316.312701 112.036262 
L 316.312701 112.051584 
L 316.312701 111.939187 
L 316.240492 111.954491 
L 315.951653 111.887895 
L 315.951653 111.903206 
L 315.879444 111.69313 
L 315.446186 111.656675 
L 315.446186 111.671966 
L 315.446186 111.558966 
L 315.373976 111.574238 
L 315.229557 111.589519 
L 315.229557 111.491671 
L 315.157347 111.280438 
L 314.363041 111.319475 
L 314.363041 111.22107 
L 314.363041 111.107322 
L 314.290831 111.12256 
L 313.279896 111.092983 
L 313.279896 110.99396 
L 313.207687 111.009241 
L 309.308366 110.910094 
L 309.308366 109.63473 
L 309.236157 109.649949 
L 308.658479 109.639443 
L 308.658479 109.6547 
L 308.58627 108.846886 
L 308.225222 108.789299 
L 308.225222 108.804383 
L 308.225222 108.686339 
L 308.153012 108.701403 
L 307.575335 108.80708 
L 307.503125 108.837348 
L 306.49219 108.797316 
L 306.49219 108.693595 
L 305.914513 108.800015 
L 305.842303 108.830496 
L 301.654144 108.756953 
L 301.654144 106.930656 
L 301.581935 106.945722 
L 301.365306 106.975879 
L 301.365306 106.868343 
L 301.365306 106.62288 
L 301.293096 106.637889 
L 300.715419 106.620106 
L 300.715419 106.635152 
L 300.715419 106.511972 
L 300.643209 106.526996 
L 300.065532 106.632402 
L 300.065532 106.647494 
L 300.065532 106.523967 
L 299.993323 106.539037 
L 299.415645 106.520922 
L 299.415645 106.53603 
L 299.415645 106.412083 
L 299.343436 106.427168 
L 298.982388 106.363423 
L 298.982388 106.37852 
L 298.910178 106.144941 
L 298.693549 106.050542 
L 298.693549 106.06558 
L 298.693549 105.940965 
L 298.621339 105.95598 
L 298.043662 106.061328 
L 297.971453 106.091506 
L 294.288761 106.041941 
L 294.216551 103.827948 
L 293.927713 103.743735 
L 293.927713 103.758502 
L 293.927713 103.629833 
L 293.855503 103.644574 
L 293.711084 103.659324 
L 293.711084 103.545238 
L 293.711084 103.287319 
L 293.638874 103.301986 
L 292.988987 103.290252 
L 292.988987 103.304963 
L 292.988987 103.045909 
L 292.916778 103.060561 
L 292.55573 102.989441 
L 292.55573 103.004102 
L 292.48352 102.758779 
L 292.41131 102.758779 
L 292.41131 102.773389 
L 292.339101 102.397233 
L 291.255956 102.455856 
L 291.255956 102.22297 
L 291.183746 102.23752 
L 290.100602 102.178673 
L 290.100602 102.193284 
L 290.100602 102.061398 
L 290.028392 102.075982 
L 285.912443 102.075982 
L 285.912443 99.818122 
L 285.840233 99.832379 
L 285.262556 99.932425 
L 285.190346 99.96109 
L 284.612669 100.061694 
L 284.540459 100.090519 
L 284.46825 100.090519 
L 284.46825 100.104944 
L 284.39604 99.845805 
L 283.457315 99.743977 
L 283.457315 99.758375 
L 283.457315 99.620793 
L 283.385105 99.635162 
L 282.807428 99.735997 
L 282.735218 99.764888 
L 278.33043 99.822779 
L 278.258221 98.136116 
L 277.608334 98.094053 
L 277.608334 97.98014 
L 277.536124 97.994448 
L 276.958447 98.094863 
L 276.886237 98.123636 
L 276.886237 97.980545 
L 275.586464 98.082024 
L 275.514254 98.110985 
L 274.142271 98.213896 
L 274.070061 98.257767 
L 269.232016 98.287062 
L 269.159806 96.447156 
L 267.498984 96.465695 
L 267.498984 96.480281 
L 267.498984 96.329137 
L 267.426775 96.343686 
L 266.849097 96.445811 
L 266.849097 96.46044 
L 266.776888 96.171547 
L 266.632468 96.186102 
L 266.632468 96.200668 
L 266.632468 96.048652 
L 266.560259 96.06318 
L 266.27142 96.106825 
L 266.27142 95.969038 
L 266.27142 95.816578 
L 266.199211 95.831062 
L 265.621533 95.932726 
L 265.549324 95.961862 
L 259.628133 95.881602 
L 259.628133 94.50699 
L 259.555924 94.52157 
L 258.978247 94.464552 
L 258.978247 94.479163 
L 258.978247 94.319633 
L 258.906037 94.334202 
L 258.833827 94.334202 
L 258.833827 94.348783 
L 258.833827 94.029171 
L 258.761618 94.043658 
L 258.472779 94.072662 
L 258.472779 93.781117 
L 258.400569 93.795551 
L 257.822892 93.896879 
L 257.750683 93.925924 
L 257.100796 93.881106 
L 257.100796 93.895675 
L 257.028586 93.262991 
L 256.450909 93.36385 
L 256.378699 93.39276 
L 256.378699 93.230168 
L 256.30649 93.230168 
L 256.30649 93.244586 
L 256.30649 93.081822 
L 256.23428 93.096195 
L 249.807622 93.153796 
L 249.807622 91.377237 
L 249.735412 91.391553 
L 249.518784 91.420218 
L 249.518784 91.434567 
L 249.518784 91.264142 
L 249.446574 91.278442 
L 249.302155 91.292754 
L 249.302155 91.307076 
L 249.302155 91.136343 
L 249.229945 91.150617 
L 248.652268 91.250837 
L 248.580058 91.27957 
L 248.507849 91.27957 
L 248.507849 91.293953 
L 248.507849 91.122433 
L 248.435639 91.136767 
L 247.857962 91.237411 
L 247.785752 91.266265 
L 247.785752 91.094012 
L 247.208075 91.194927 
L 247.135865 91.22386 
L 246.558188 91.325476 
L 246.485979 91.35461 
L 240.13153 91.398395 
L 240.13153 89.437625 
L 240.059321 89.452059 
L 239.770482 89.495432 
L 239.770482 89.509913 
L 239.770482 89.327923 
L 239.698272 89.342348 
L 239.626063 89.342348 
L 239.626063 89.356785 
L 239.626063 89.174512 
L 239.553853 89.188893 
L 239.481643 89.188893 
L 239.481643 89.203285 
L 239.481643 88.655175 
L 239.409434 88.669374 
L 238.831757 88.769094 
L 238.759547 88.79769 
L 237.965241 88.756992 
L 237.965241 88.771354 
L 237.965241 88.586759 
L 237.893031 88.601064 
L 237.531983 88.658401 
L 237.531983 88.4876 
L 237.459774 88.501905 
L 236.737677 88.445163 
L 236.737677 88.459516 
L 236.665467 87.914476 
L 236.593258 87.914476 
L 236.521048 87.568823 
L 236.448839 87.568823 
L 236.448839 87.582867 
L 236.448839 87.395568 
L 236.376629 87.409553 
L 230.383229 87.451574 
L 230.311019 85.506882 
L 230.09439 85.534451 
L 230.09439 85.548253 
L 230.09439 85.35158 
L 230.022181 85.365316 
L 229.733342 85.406593 
L 229.733342 85.420376 
L 229.661132 85.039362 
L 228.650197 85.019005 
L 228.650197 85.032727 
L 228.650197 84.833769 
L 228.433568 84.833769 
L 228.433568 84.675389 
L 228.361359 84.688997 
L 227.711472 84.798289 
L 227.639262 84.825732 
L 227.494843 84.839472 
L 227.494843 84.652611 
L 227.422633 84.666292 
L 226.772747 84.762402 
L 226.700537 84.803774 
L 226.483908 84.831416 
L 226.483908 84.845255 
L 226.483908 84.643306 
L 226.411698 84.657075 
L 226.339489 84.657075 
L 226.339489 84.670855 
L 226.339489 84.46856 
L 226.267279 84.48227 
L 218.540848 84.402887 
L 218.540848 82.608035 
L 218.468638 82.621669 
L 217.818751 82.731202 
L 217.746542 82.758715 
L 217.096655 82.869285 
L 217.024445 82.897059 
L 216.518978 82.980697 
L 216.518978 82.994683 
L 216.518978 82.776866 
L 216.446768 82.790769 
L 215.869091 82.888457 
L 215.796881 82.916488 
L 215.219204 83.01502 
L 215.146995 83.043294 
L 214.569317 83.14268 
L 214.569317 83.156933 
L 208.936965 83.156933 
L 208.864756 81.335232 
L 208.287079 81.433598 
L 208.214869 81.461831 
L 207.637192 81.561097 
L 207.564982 81.589589 
L 207.492773 81.589589 
L 207.492773 81.603856 
L 207.492773 81.13572 
L 207.420563 81.149777 
L 206.842886 81.248586 
L 206.842886 81.26276 
L 206.842886 81.027317 
L 206.770676 81.041392 
L 206.481838 81.069584 
L 206.481838 80.861581 
L 206.409628 80.875614 
L 205.831951 80.960114 
L 205.831951 80.513092 
L 205.759741 80.527025 
L 205.182064 80.624956 
L 205.109854 80.653067 
L 204.532177 80.751917 
L 204.459968 80.780293 
L 196.589117 80.822968 
L 196.589117 78.584508 
L 196.01144 78.682612 
L 196.01144 78.178003 
L 195.93923 78.191822 
L 195.433763 78.275057 
L 195.433763 78.288984 
L 195.433763 78.028095 
L 195.361553 78.041899 
L 194.783876 78.125049 
L 194.783876 78.152891 
L 194.783876 77.890445 
L 194.711666 77.904249 
L 194.061779 78.015246 
L 193.98957 78.043154 
L 193.411893 78.141335 
L 193.339683 78.169532 
L 192.762006 78.268732 
L 192.762006 78.282968 
L 192.617587 78.282968 
L 192.617587 78.311491 
L 192.617587 78.044439 
L 192.545377 78.058579 
L 191.9677 78.158019 
L 191.89549 78.186578 
L 191.82328 78.186578 
L 191.82328 78.200883 
L 191.82328 77.931903 
L 184.313478 77.931903 
L 184.313478 74.595009 
L 184.241268 74.608167 
L 184.169059 74.608167 
L 184.169059 74.036734 
L 184.096849 74.049575 
L 184.024639 74.049575 
L 184.024639 74.062432 
L 184.024639 73.769226 
L 183.95243 73.781924 
L 183.519172 73.84565 
L 183.519172 73.858443 
L 183.519172 73.563628 
L 182.869285 73.665128 
L 182.797075 73.690665 
L 182.652656 73.703457 
L 182.652656 73.716266 
L 182.652656 73.418921 
L 182.580446 73.431565 
L 181.93056 73.533299 
L 181.85835 73.558895 
L 181.85835 73.25916 
L 181.425092 73.322516 
L 181.425092 73.335237 
L 181.425092 73.034005 
L 181.352883 73.046556 
L 174.276338 73.096921 
L 174.276338 69.166324 
L 174.204128 69.177186 
L 173.987499 69.198956 
L 173.987499 69.209864 
L 173.987499 68.550694 
L 173.91529 68.561171 
L 173.120984 68.666757 
L 173.048774 68.688053 
L 172.254468 68.79544 
L 172.182258 68.8171 
L 171.387952 68.926335 
L 171.315742 68.948369 
L 170.521436 69.037145 
L 170.449227 69.081918 
L 163.083843 69.115669 
L 163.083843 68.472976 
L 163.011634 68.484676 
L 162.289537 68.590802 
L 162.217328 68.614591 
L 161.495231 68.722581 
L 161.423022 68.74679 
L 160.700925 68.856692 
L 160.628716 68.881332 
L 159.978829 68.980688 
L 159.906619 69.005729 
L 150.158318 69.043444 
L 150.086108 69.632112 
L 149.508431 69.735752 
L 149.436221 69.765609 
L 148.858544 69.870984 
L 148.786335 69.901343 
L 148.208657 70.008497 
L 148.136448 70.039371 
L 147.558771 70.14835 
L 147.486561 70.179752 
L 146.908884 70.290603 
L 146.836674 70.322547 
L 138.749194 70.322547 
L 138.676985 69.320524 
L 138.171517 69.423035 
L 138.099308 69.457502 
L 137.59384 69.56181 
L 137.59384 69.579328 
L 137.59384 68.544713 
L 137.521631 68.561171 
L 137.016163 68.660684 
L 136.943953 68.694148 
L 136.438486 68.79544 
L 136.366276 68.829506 
L 135.860809 68.932624 
L 135.860809 68.949946 
L 135.860809 68.417332 
L 135.788599 68.434111 
L 135.71639 68.434111 
L 135.71639 68.450927 
L 135.71639 67.915939 
L 135.64418 67.932206 
L 135.138712 68.030591 
L 135.066503 68.063686 
L 126.401346 68.080291 
L 126.329136 67.86149 
L 126.329136 67.880573 
L 126.040298 67.938131 
L 126.040298 67.957419 
L 126.040298 67.321816 
L 125.968088 67.340328 
L 125.53483 67.433636 
L 125.53483 67.45245 
L 125.101572 67.547289 
L 125.029363 67.585588 
L 124.596105 67.682261 
L 124.523895 67.721305 
L 124.090637 67.819866 
L 124.018428 67.859675 
L 123.58517 67.960179 
L 123.58517 67.98045 
L 123.151912 68.082666 
L 123.079702 68.123959 
L 122.718654 68.165489 
L 122.718654 67.550154 
L 116.219786 67.550154 
L 116.219786 67.28278 
L 116.147577 67.305524 
L 115.786529 67.397261 
L 115.714319 67.44359 
L 115.353271 67.537186 
L 115.281061 67.584459 
L 115.208852 67.584459 
L 115.208852 67.608216 
L 115.208852 66.804756 
L 115.136642 66.827267 
L 114.775594 66.918084 
L 114.703384 66.963961 
L 114.342336 67.056666 
L 114.270126 67.103502 
L 113.909078 67.198156 
L 113.836868 67.245981 
L 108.132307 67.294143 
L 108.132307 68.484676 
L 108.132307 66.548768 
L 108.060097 66.575423 
L 107.915678 66.602187 
L 107.915678 66.629062 
L 107.915678 64.66543 
L 107.843468 64.688454 
L 107.771258 64.688454 
L 107.771258 63.719626 
L 107.699049 63.74082 
L 107.265791 63.826486 
L 107.265791 63.869862 
L 107.265791 62.859319 
L 107.193581 62.879046 
L 106.976952 62.918752 
L 106.976952 62.938732 
L 106.976952 61.915376 
L 106.904743 61.933289 
L 106.327066 62.042401 
L 106.327066 61.031778 
L 105.821598 61.131074 
L 105.749389 61.164763 
L 99.683779 61.250312 
L 99.683779 60.279819 
L 99.611569 60.29836 
L 99.178311 60.392623 
L 99.106102 60.431071 
L 98.889473 60.450459 
L 98.889473 60.489563 
L 98.889473 59.121026 
L 98.817263 59.136892 
L 98.311796 59.217601 
L 98.239586 59.267159 
L 97.734118 59.368929 
L 97.661909 59.403665 
L 92.318395 59.42119 
L 92.318395 55.464024 
L 91.235251 55.57326 
L 91.235251 55.581546 
L 87.119301 55.668337 
L 87.047092 56.21625 
L 86.469414 56.320983 
L 86.397205 56.352446 
L 85.819528 56.451302 
L 85.747318 56.50341 
L 85.241851 56.613488 
L 85.169641 56.652038 
L 82.570094 56.691577 
L 82.497884 57.595091 
L 82.425675 57.595091 
L 82.425675 57.628651 
L 82.425675 53.568 
L 82.353465 53.568 
L 73.832727 53.568 
L 73.832727 53.568 
" clip-path="url(#pdc830a884b)" style="fill: none; stroke: #1f77b4; stroke-width: 1.5; stroke-linecap: round"/>
            </g>
            <g id="patch_3">
                <path d="M 57.6 307.584
L 57.6 41.472 
" style="fill: none"/>
            </g>
            <g id="patch_4">
                <path d="M 414.72 307.584
L 414.72 41.472 
" style="fill: none"/>
            </g>
            <g id="patch_5">
                <path d="M 57.6 307.584
L 414.72 307.584 
" style="fill: none"/>
            </g>
            <g id="patch_6">
                <path d="M 57.6 41.472
L 414.72 41.472 
" style="fill: none"/>
            </g>
        </g>
    </g>
    <defs>
        <clipPath id="pdc830a884b">
            <rect x="57.6" y="41.472" width="357.12" height="266.112"/>
        </clipPath>
    </defs>
</svg>
