<?xml version="1.0" encoding="utf-8" standalone="no"?>
<!DOCTYPE svg PUBLIC "-//W3C//DTD SVG 1.1//EN"
  "http://www.w3.org/Graphics/SVG/1.1/DTD/svg11.dtd">
<svg xmlns:xlink="http://www.w3.org/1999/xlink" width="460.8pt" height="345.6pt" viewBox="0 0 460.8 345.6" xmlns="http://www.w3.org/2000/svg" version="1.1">
 <metadata>
  <rdf:RDF xmlns:dc="http://purl.org/dc/elements/1.1/" xmlns:cc="http://creativecommons.org/ns#" xmlns:rdf="http://www.w3.org/1999/02/22-rdf-syntax-ns#">
   <cc:Work>
    <dc:type rdf:resource="http://purl.org/dc/dcmitype/StillImage"/>
    <dc:date>2022-11-24T19:39:57.409199</dc:date>
    <dc:format>image/svg+xml</dc:format>
    <dc:creator>
     <cc:Agent>
      <dc:title>Matplotlib v3.6.2, https://matplotlib.org/</dc:title>
     </cc:Agent>
    </dc:creator>
   </cc:Work>
  </rdf:RDF>
 </metadata>
 <defs>
  <style type="text/css">*{stroke-linejoin: round; stroke-linecap: butt}</style>
 </defs>
 <g id="figure_1">
  <g id="patch_1">
   <path d="M 0 345.6 
L 460.8 345.6 
L 460.8 0 
L 0 0 
z
" style="fill: #ffffff"/>
  </g>
  <g id="axes_1">
   <g id="patch_2">
    <path d="M 57.6 307.584 
L 414.72 307.584 
L 414.72 41.472 
L 57.6 41.472 
z
" style="fill: #ffffff"/>
   </g>
   <g id="matplotlib.axis_1">
    <g id="xtick_1">
     <g id="line2d_1">
      <defs>
       <path id="m445950f684" d="M 0 0 
L 0 3.5 
" style="stroke: #000000; stroke-width: 0.8"/>
      </defs>
      <g>
       <use xlink:href="#m445950f684" x="73.832727" y="307.584" style="stroke: #000000; stroke-width: 0.8"/>
      </g>
     </g>
     <g id="text_1">
      <!-- 0.0 -->
      <g transform="translate(65.881165 322.182437) scale(0.1 -0.1)">
       <defs>
        <path id="DejaVuSans-30" d="M 2034 4250 
Q 1547 4250 1301 3770 
Q 1056 3291 1056 2328 
Q 1056 1369 1301 889 
Q 1547 409 2034 409 
Q 2525 409 2770 889 
Q 3016 1369 3016 2328 
Q 3016 3291 2770 3770 
Q 2525 4250 2034 4250 
z
M 2034 4750 
Q 2819 4750 3233 4129 
Q 3647 3509 3647 2328 
Q 3647 1150 3233 529 
Q 2819 -91 2034 -91 
Q 1250 -91 836 529 
Q 422 1150 422 2328 
Q 422 3509 836 4129 
Q 1250 4750 2034 4750 
z
" transform="scale(0.015625)"/>
        <path id="DejaVuSans-2e" d="M 684 794 
L 1344 794 
L 1344 0 
L 684 0 
L 684 794 
z
" transform="scale(0.015625)"/>
       </defs>
       <use xlink:href="#DejaVuSans-30"/>
       <use xlink:href="#DejaVuSans-2e" x="63.623047"/>
       <use xlink:href="#DejaVuSans-30" x="95.410156"/>
      </g>
     </g>
    </g>
    <g id="xtick_2">
     <g id="line2d_2">
      <g>
       <use xlink:href="#m445950f684" x="138.763636" y="307.584" style="stroke: #000000; stroke-width: 0.8"/>
      </g>
     </g>
     <g id="text_2">
      <!-- 0.2 -->
      <g transform="translate(130.812074 322.182437) scale(0.1 -0.1)">
       <defs>
        <path id="DejaVuSans-32" d="M 1228 531 
L 3431 531 
L 3431 0 
L 469 0 
L 469 531 
Q 828 903 1448 1529 
Q 2069 2156 2228 2338 
Q 2531 2678 2651 2914 
Q 2772 3150 2772 3378 
Q 2772 3750 2511 3984 
Q 2250 4219 1831 4219 
Q 1534 4219 1204 4116 
Q 875 4013 500 3803 
L 500 4441 
Q 881 4594 1212 4672 
Q 1544 4750 1819 4750 
Q 2544 4750 2975 4387 
Q 3406 4025 3406 3419 
Q 3406 3131 3298 2873 
Q 3191 2616 2906 2266 
Q 2828 2175 2409 1742 
Q 1991 1309 1228 531 
z
" transform="scale(0.015625)"/>
       </defs>
       <use xlink:href="#DejaVuSans-30"/>
       <use xlink:href="#DejaVuSans-2e" x="63.623047"/>
       <use xlink:href="#DejaVuSans-32" x="95.410156"/>
      </g>
     </g>
    </g>
    <g id="xtick_3">
     <g id="line2d_3">
      <g>
       <use xlink:href="#m445950f684" x="203.694545" y="307.584" style="stroke: #000000; stroke-width: 0.8"/>
      </g>
     </g>
     <g id="text_3">
      <!-- 0.4 -->
      <g transform="translate(195.742983 322.182437) scale(0.1 -0.1)">
       <defs>
        <path id="DejaVuSans-34" d="M 2419 4116 
L 825 1625 
L 2419 1625 
L 2419 4116 
z
M 2253 4666 
L 3047 4666 
L 3047 1625 
L 3713 1625 
L 3713 1100 
L 3047 1100 
L 3047 0 
L 2419 0 
L 2419 1100 
L 313 1100 
L 313 1709 
L 2253 4666 
z
" transform="scale(0.015625)"/>
       </defs>
       <use xlink:href="#DejaVuSans-30"/>
       <use xlink:href="#DejaVuSans-2e" x="63.623047"/>
       <use xlink:href="#DejaVuSans-34" x="95.410156"/>
      </g>
     </g>
    </g>
    <g id="xtick_4">
     <g id="line2d_4">
      <g>
       <use xlink:href="#m445950f684" x="268.625455" y="307.584" style="stroke: #000000; stroke-width: 0.8"/>
      </g>
     </g>
     <g id="text_4">
      <!-- 0.6 -->
      <g transform="translate(260.673892 322.182437) scale(0.1 -0.1)">
       <defs>
        <path id="DejaVuSans-36" d="M 2113 2584 
Q 1688 2584 1439 2293 
Q 1191 2003 1191 1497 
Q 1191 994 1439 701 
Q 1688 409 2113 409 
Q 2538 409 2786 701 
Q 3034 994 3034 1497 
Q 3034 2003 2786 2293 
Q 2538 2584 2113 2584 
z
M 3366 4563 
L 3366 3988 
Q 3128 4100 2886 4159 
Q 2644 4219 2406 4219 
Q 1781 4219 1451 3797 
Q 1122 3375 1075 2522 
Q 1259 2794 1537 2939 
Q 1816 3084 2150 3084 
Q 2853 3084 3261 2657 
Q 3669 2231 3669 1497 
Q 3669 778 3244 343 
Q 2819 -91 2113 -91 
Q 1303 -91 875 529 
Q 447 1150 447 2328 
Q 447 3434 972 4092 
Q 1497 4750 2381 4750 
Q 2619 4750 2861 4703 
Q 3103 4656 3366 4563 
z
" transform="scale(0.015625)"/>
       </defs>
       <use xlink:href="#DejaVuSans-30"/>
       <use xlink:href="#DejaVuSans-2e" x="63.623047"/>
       <use xlink:href="#DejaVuSans-36" x="95.410156"/>
      </g>
     </g>
    </g>
    <g id="xtick_5">
     <g id="line2d_5">
      <g>
       <use xlink:href="#m445950f684" x="333.556364" y="307.584" style="stroke: #000000; stroke-width: 0.8"/>
      </g>
     </g>
     <g id="text_5">
      <!-- 0.8 -->
      <g transform="translate(325.604801 322.182437) scale(0.1 -0.1)">
       <defs>
        <path id="DejaVuSans-38" d="M 2034 2216 
Q 1584 2216 1326 1975 
Q 1069 1734 1069 1313 
Q 1069 891 1326 650 
Q 1584 409 2034 409 
Q 2484 409 2743 651 
Q 3003 894 3003 1313 
Q 3003 1734 2745 1975 
Q 2488 2216 2034 2216 
z
M 1403 2484 
Q 997 2584 770 2862 
Q 544 3141 544 3541 
Q 544 4100 942 4425 
Q 1341 4750 2034 4750 
Q 2731 4750 3128 4425 
Q 3525 4100 3525 3541 
Q 3525 3141 3298 2862 
Q 3072 2584 2669 2484 
Q 3125 2378 3379 2068 
Q 3634 1759 3634 1313 
Q 3634 634 3220 271 
Q 2806 -91 2034 -91 
Q 1263 -91 848 271 
Q 434 634 434 1313 
Q 434 1759 690 2068 
Q 947 2378 1403 2484 
z
M 1172 3481 
Q 1172 3119 1398 2916 
Q 1625 2713 2034 2713 
Q 2441 2713 2670 2916 
Q 2900 3119 2900 3481 
Q 2900 3844 2670 4047 
Q 2441 4250 2034 4250 
Q 1625 4250 1398 4047 
Q 1172 3844 1172 3481 
z
" transform="scale(0.015625)"/>
       </defs>
       <use xlink:href="#DejaVuSans-30"/>
       <use xlink:href="#DejaVuSans-2e" x="63.623047"/>
       <use xlink:href="#DejaVuSans-38" x="95.410156"/>
      </g>
     </g>
    </g>
    <g id="xtick_6">
     <g id="line2d_6">
      <g>
       <use xlink:href="#m445950f684" x="398.487273" y="307.584" style="stroke: #000000; stroke-width: 0.8"/>
      </g>
     </g>
     <g id="text_6">
      <!-- 1.0 -->
      <g transform="translate(390.53571 322.182437) scale(0.1 -0.1)">
       <defs>
        <path id="DejaVuSans-31" d="M 794 531 
L 1825 531 
L 1825 4091 
L 703 3866 
L 703 4441 
L 1819 4666 
L 2450 4666 
L 2450 531 
L 3481 531 
L 3481 0 
L 794 0 
L 794 531 
z
" transform="scale(0.015625)"/>
       </defs>
       <use xlink:href="#DejaVuSans-31"/>
       <use xlink:href="#DejaVuSans-2e" x="63.623047"/>
       <use xlink:href="#DejaVuSans-30" x="95.410156"/>
      </g>
     </g>
    </g>
    <g id="text_7">
     <!-- Recall -->
     <g transform="translate(221.242812 335.860562) scale(0.1 -0.1)">
      <defs>
       <path id="DejaVuSans-52" d="M 2841 2188 
Q 3044 2119 3236 1894 
Q 3428 1669 3622 1275 
L 4263 0 
L 3584 0 
L 2988 1197 
Q 2756 1666 2539 1819 
Q 2322 1972 1947 1972 
L 1259 1972 
L 1259 0 
L 628 0 
L 628 4666 
L 2053 4666 
Q 2853 4666 3247 4331 
Q 3641 3997 3641 3322 
Q 3641 2881 3436 2590 
Q 3231 2300 2841 2188 
z
M 1259 4147 
L 1259 2491 
L 2053 2491 
Q 2509 2491 2742 2702 
Q 2975 2913 2975 3322 
Q 2975 3731 2742 3939 
Q 2509 4147 2053 4147 
L 1259 4147 
z
" transform="scale(0.015625)"/>
       <path id="DejaVuSans-65" d="M 3597 1894 
L 3597 1613 
L 953 1613 
Q 991 1019 1311 708 
Q 1631 397 2203 397 
Q 2534 397 2845 478 
Q 3156 559 3463 722 
L 3463 178 
Q 3153 47 2828 -22 
Q 2503 -91 2169 -91 
Q 1331 -91 842 396 
Q 353 884 353 1716 
Q 353 2575 817 3079 
Q 1281 3584 2069 3584 
Q 2775 3584 3186 3129 
Q 3597 2675 3597 1894 
z
M 3022 2063 
Q 3016 2534 2758 2815 
Q 2500 3097 2075 3097 
Q 1594 3097 1305 2825 
Q 1016 2553 972 2059 
L 3022 2063 
z
" transform="scale(0.015625)"/>
       <path id="DejaVuSans-63" d="M 3122 3366 
L 3122 2828 
Q 2878 2963 2633 3030 
Q 2388 3097 2138 3097 
Q 1578 3097 1268 2742 
Q 959 2388 959 1747 
Q 959 1106 1268 751 
Q 1578 397 2138 397 
Q 2388 397 2633 464 
Q 2878 531 3122 666 
L 3122 134 
Q 2881 22 2623 -34 
Q 2366 -91 2075 -91 
Q 1284 -91 818 406 
Q 353 903 353 1747 
Q 353 2603 823 3093 
Q 1294 3584 2113 3584 
Q 2378 3584 2631 3529 
Q 2884 3475 3122 3366 
z
" transform="scale(0.015625)"/>
       <path id="DejaVuSans-61" d="M 2194 1759 
Q 1497 1759 1228 1600 
Q 959 1441 959 1056 
Q 959 750 1161 570 
Q 1363 391 1709 391 
Q 2188 391 2477 730 
Q 2766 1069 2766 1631 
L 2766 1759 
L 2194 1759 
z
M 3341 1997 
L 3341 0 
L 2766 0 
L 2766 531 
Q 2569 213 2275 61 
Q 1981 -91 1556 -91 
Q 1019 -91 701 211 
Q 384 513 384 1019 
Q 384 1609 779 1909 
Q 1175 2209 1959 2209 
L 2766 2209 
L 2766 2266 
Q 2766 2663 2505 2880 
Q 2244 3097 1772 3097 
Q 1472 3097 1187 3025 
Q 903 2953 641 2809 
L 641 3341 
Q 956 3463 1253 3523 
Q 1550 3584 1831 3584 
Q 2591 3584 2966 3190 
Q 3341 2797 3341 1997 
z
" transform="scale(0.015625)"/>
       <path id="DejaVuSans-6c" d="M 603 4863 
L 1178 4863 
L 1178 0 
L 603 0 
L 603 4863 
z
" transform="scale(0.015625)"/>
      </defs>
      <use xlink:href="#DejaVuSans-52"/>
      <use xlink:href="#DejaVuSans-65" x="64.982422"/>
      <use xlink:href="#DejaVuSans-63" x="126.505859"/>
      <use xlink:href="#DejaVuSans-61" x="181.486328"/>
      <use xlink:href="#DejaVuSans-6c" x="242.765625"/>
      <use xlink:href="#DejaVuSans-6c" x="270.548828"/>
     </g>
    </g>
   </g>
   <g id="matplotlib.axis_2">
    <g id="ytick_1">
     <g id="line2d_7">
      <defs>
       <path id="mdfac1cb1d8" d="M 0 0 
L -3.5 0 
" style="stroke: #000000; stroke-width: 0.8"/>
      </defs>
      <g>
       <use xlink:href="#mdfac1cb1d8" x="57.6" y="292.570399" style="stroke: #000000; stroke-width: 0.8"/>
      </g>
     </g>
     <g id="text_8">
      <!-- 0.5 -->
      <g transform="translate(34.696875 296.369618) scale(0.1 -0.1)">
       <defs>
        <path id="DejaVuSans-35" d="M 691 4666 
L 3169 4666 
L 3169 4134 
L 1269 4134 
L 1269 2991 
Q 1406 3038 1543 3061 
Q 1681 3084 1819 3084 
Q 2600 3084 3056 2656 
Q 3513 2228 3513 1497 
Q 3513 744 3044 326 
Q 2575 -91 1722 -91 
Q 1428 -91 1123 -41 
Q 819 9 494 109 
L 494 744 
Q 775 591 1075 516 
Q 1375 441 1709 441 
Q 2250 441 2565 725 
Q 2881 1009 2881 1497 
Q 2881 1984 2565 2268 
Q 2250 2553 1709 2553 
Q 1456 2553 1204 2497 
Q 953 2441 691 2322 
L 691 4666 
z
" transform="scale(0.015625)"/>
       </defs>
       <use xlink:href="#DejaVuSans-30"/>
       <use xlink:href="#DejaVuSans-2e" x="63.623047"/>
       <use xlink:href="#DejaVuSans-35" x="95.410156"/>
      </g>
     </g>
    </g>
    <g id="ytick_2">
     <g id="line2d_8">
      <g>
       <use xlink:href="#mdfac1cb1d8" x="57.6" y="244.769919" style="stroke: #000000; stroke-width: 0.8"/>
      </g>
     </g>
     <g id="text_9">
      <!-- 0.6 -->
      <g transform="translate(34.696875 248.569138) scale(0.1 -0.1)">
       <use xlink:href="#DejaVuSans-30"/>
       <use xlink:href="#DejaVuSans-2e" x="63.623047"/>
       <use xlink:href="#DejaVuSans-36" x="95.410156"/>
      </g>
     </g>
    </g>
    <g id="ytick_3">
     <g id="line2d_9">
      <g>
       <use xlink:href="#mdfac1cb1d8" x="57.6" y="196.969439" style="stroke: #000000; stroke-width: 0.8"/>
      </g>
     </g>
     <g id="text_10">
      <!-- 0.7 -->
      <g transform="translate(34.696875 200.768658) scale(0.1 -0.1)">
       <defs>
        <path id="DejaVuSans-37" d="M 525 4666 
L 3525 4666 
L 3525 4397 
L 1831 0 
L 1172 0 
L 2766 4134 
L 525 4134 
L 525 4666 
z
" transform="scale(0.015625)"/>
       </defs>
       <use xlink:href="#DejaVuSans-30"/>
       <use xlink:href="#DejaVuSans-2e" x="63.623047"/>
       <use xlink:href="#DejaVuSans-37" x="95.410156"/>
      </g>
     </g>
    </g>
    <g id="ytick_4">
     <g id="line2d_10">
      <g>
       <use xlink:href="#mdfac1cb1d8" x="57.6" y="149.16896" style="stroke: #000000; stroke-width: 0.8"/>
      </g>
     </g>
     <g id="text_11">
      <!-- 0.8 -->
      <g transform="translate(34.696875 152.968178) scale(0.1 -0.1)">
       <use xlink:href="#DejaVuSans-30"/>
       <use xlink:href="#DejaVuSans-2e" x="63.623047"/>
       <use xlink:href="#DejaVuSans-38" x="95.410156"/>
      </g>
     </g>
    </g>
    <g id="ytick_5">
     <g id="line2d_11">
      <g>
       <use xlink:href="#mdfac1cb1d8" x="57.6" y="101.36848" style="stroke: #000000; stroke-width: 0.8"/>
      </g>
     </g>
     <g id="text_12">
      <!-- 0.9 -->
      <g transform="translate(34.696875 105.167699) scale(0.1 -0.1)">
       <defs>
        <path id="DejaVuSans-39" d="M 703 97 
L 703 672 
Q 941 559 1184 500 
Q 1428 441 1663 441 
Q 2288 441 2617 861 
Q 2947 1281 2994 2138 
Q 2813 1869 2534 1725 
Q 2256 1581 1919 1581 
Q 1219 1581 811 2004 
Q 403 2428 403 3163 
Q 403 3881 828 4315 
Q 1253 4750 1959 4750 
Q 2769 4750 3195 4129 
Q 3622 3509 3622 2328 
Q 3622 1225 3098 567 
Q 2575 -91 1691 -91 
Q 1453 -91 1209 -44 
Q 966 3 703 97 
z
M 1959 2075 
Q 2384 2075 2632 2365 
Q 2881 2656 2881 3163 
Q 2881 3666 2632 3958 
Q 2384 4250 1959 4250 
Q 1534 4250 1286 3958 
Q 1038 3666 1038 3163 
Q 1038 2656 1286 2365 
Q 1534 2075 1959 2075 
z
" transform="scale(0.015625)"/>
       </defs>
       <use xlink:href="#DejaVuSans-30"/>
       <use xlink:href="#DejaVuSans-2e" x="63.623047"/>
       <use xlink:href="#DejaVuSans-39" x="95.410156"/>
      </g>
     </g>
    </g>
    <g id="ytick_6">
     <g id="line2d_12">
      <g>
       <use xlink:href="#mdfac1cb1d8" x="57.6" y="53.568" style="stroke: #000000; stroke-width: 0.8"/>
      </g>
     </g>
     <g id="text_13">
      <!-- 1.0 -->
      <g transform="translate(34.696875 57.367219) scale(0.1 -0.1)">
       <use xlink:href="#DejaVuSans-31"/>
       <use xlink:href="#DejaVuSans-2e" x="63.623047"/>
       <use xlink:href="#DejaVuSans-30" x="95.410156"/>
      </g>
     </g>
    </g>
    <g id="text_14">
     <!-- Precision -->
     <g transform="translate(28.617187 196.835031) rotate(-90) scale(0.1 -0.1)">
      <defs>
       <path id="DejaVuSans-50" d="M 1259 4147 
L 1259 2394 
L 2053 2394 
Q 2494 2394 2734 2622 
Q 2975 2850 2975 3272 
Q 2975 3691 2734 3919 
Q 2494 4147 2053 4147 
L 1259 4147 
z
M 628 4666 
L 2053 4666 
Q 2838 4666 3239 4311 
Q 3641 3956 3641 3272 
Q 3641 2581 3239 2228 
Q 2838 1875 2053 1875 
L 1259 1875 
L 1259 0 
L 628 0 
L 628 4666 
z
" transform="scale(0.015625)"/>
       <path id="DejaVuSans-72" d="M 2631 2963 
Q 2534 3019 2420 3045 
Q 2306 3072 2169 3072 
Q 1681 3072 1420 2755 
Q 1159 2438 1159 1844 
L 1159 0 
L 581 0 
L 581 3500 
L 1159 3500 
L 1159 2956 
Q 1341 3275 1631 3429 
Q 1922 3584 2338 3584 
Q 2397 3584 2469 3576 
Q 2541 3569 2628 3553 
L 2631 2963 
z
" transform="scale(0.015625)"/>
       <path id="DejaVuSans-69" d="M 603 3500 
L 1178 3500 
L 1178 0 
L 603 0 
L 603 3500 
z
M 603 4863 
L 1178 4863 
L 1178 4134 
L 603 4134 
L 603 4863 
z
" transform="scale(0.015625)"/>
       <path id="DejaVuSans-73" d="M 2834 3397 
L 2834 2853 
Q 2591 2978 2328 3040 
Q 2066 3103 1784 3103 
Q 1356 3103 1142 2972 
Q 928 2841 928 2578 
Q 928 2378 1081 2264 
Q 1234 2150 1697 2047 
L 1894 2003 
Q 2506 1872 2764 1633 
Q 3022 1394 3022 966 
Q 3022 478 2636 193 
Q 2250 -91 1575 -91 
Q 1294 -91 989 -36 
Q 684 19 347 128 
L 347 722 
Q 666 556 975 473 
Q 1284 391 1588 391 
Q 1994 391 2212 530 
Q 2431 669 2431 922 
Q 2431 1156 2273 1281 
Q 2116 1406 1581 1522 
L 1381 1569 
Q 847 1681 609 1914 
Q 372 2147 372 2553 
Q 372 3047 722 3315 
Q 1072 3584 1716 3584 
Q 2034 3584 2315 3537 
Q 2597 3491 2834 3397 
z
" transform="scale(0.015625)"/>
       <path id="DejaVuSans-6f" d="M 1959 3097 
Q 1497 3097 1228 2736 
Q 959 2375 959 1747 
Q 959 1119 1226 758 
Q 1494 397 1959 397 
Q 2419 397 2687 759 
Q 2956 1122 2956 1747 
Q 2956 2369 2687 2733 
Q 2419 3097 1959 3097 
z
M 1959 3584 
Q 2709 3584 3137 3096 
Q 3566 2609 3566 1747 
Q 3566 888 3137 398 
Q 2709 -91 1959 -91 
Q 1206 -91 779 398 
Q 353 888 353 1747 
Q 353 2609 779 3096 
Q 1206 3584 1959 3584 
z
" transform="scale(0.015625)"/>
       <path id="DejaVuSans-6e" d="M 3513 2113 
L 3513 0 
L 2938 0 
L 2938 2094 
Q 2938 2591 2744 2837 
Q 2550 3084 2163 3084 
Q 1697 3084 1428 2787 
Q 1159 2491 1159 1978 
L 1159 0 
L 581 0 
L 581 3500 
L 1159 3500 
L 1159 2956 
Q 1366 3272 1645 3428 
Q 1925 3584 2291 3584 
Q 2894 3584 3203 3211 
Q 3513 2838 3513 2113 
z
" transform="scale(0.015625)"/>
      </defs>
      <use xlink:href="#DejaVuSans-50"/>
      <use xlink:href="#DejaVuSans-72" x="58.552734"/>
      <use xlink:href="#DejaVuSans-65" x="97.416016"/>
      <use xlink:href="#DejaVuSans-63" x="158.939453"/>
      <use xlink:href="#DejaVuSans-69" x="213.919922"/>
      <use xlink:href="#DejaVuSans-73" x="241.703125"/>
      <use xlink:href="#DejaVuSans-69" x="293.802734"/>
      <use xlink:href="#DejaVuSans-6f" x="321.585938"/>
      <use xlink:href="#DejaVuSans-6e" x="382.767578"/>
     </g>
    </g>
   </g>
   <g id="line2d_13">
    <path d="M 398.487273 295.488 
L 383.837328 295.488 
L 383.763711 204.619069 
L 383.542857 204.619069 
L 383.469239 198.158506 
L 383.395622 198.158506 
L 383.395622 198.071856 
L 383.322004 195.249422 
L 383.248386 195.249422 
L 383.248386 195.160513 
L 383.248386 194.200142 
L 382.953915 194.200142 
L 382.880297 187.0811 
L 382.806679 187.0811 
L 382.806679 186.985691 
L 382.733061 185.939827 
L 382.659443 185.939827 
L 382.659443 185.843466 
L 382.585826 185.149414 
L 382.512208 185.149414 
L 382.512208 185.052376 
L 382.43859 183.0259 
L 382.291354 183.0259 
L 382.217737 180.527549 
L 382.144119 180.527549 
L 382.144119 180.426667 
L 382.070501 179.088457 
L 381.996883 179.088457 
L 381.996883 178.986351 
L 381.923265 178.073932 
L 381.77603 178.095938 
L 381.702412 177.702013 
L 381.628794 177.702013 
L 381.628794 177.598646 
L 381.555176 176.551466 
L 381.334323 176.532079 
L 381.334323 176.490806 
L 381.260705 175.94336 
L 381.113469 175.965166 
L 381.113469 175.860188 
L 381.039852 175.437461 
L 380.966234 175.437461 
L 380.966234 175.331995 
L 380.966234 175.204675 
L 380.671763 175.206202 
L 380.671763 175.100442 
L 380.598145 174.67511 
L 380.450909 174.568856 
L 380.450909 174.590552 
L 380.377291 173.906674 
L 380.009202 173.800225 
L 380.009202 173.821861 
L 380.009202 173.241515 
L 379.935584 173.26309 
L 379.788349 173.284672 
L 379.788349 173.176994 
L 379.788349 173.047633 
L 379.714731 173.069199 
L 379.493878 172.982855 
L 379.493878 173.004429 
L 379.42026 172.636851 
L 379.273024 172.593444 
L 379.273024 172.550005 
L 379.273024 172.485 
L 379.199406 172.506535 
L 379.052171 172.397966 
L 379.052171 172.419501 
L 378.978553 172.180473 
L 378.536846 172.09235 
L 378.536846 172.113885 
L 378.463228 171.677628 
L 378.095139 171.632573 
L 378.095139 171.588499 
L 378.021521 171.215961 
L 377.947904 171.215961 
L 377.947904 171.105872 
L 377.874286 170.797978 
L 376.843636 170.812806 
L 376.843636 170.701971 
L 376.770019 170.45847 
L 376.696401 170.45847 
L 376.696401 170.413617 
L 376.622783 170.302358 
L 376.475547 170.257406 
L 376.475547 170.212422 
L 376.475547 170.145959 
L 376.401929 170.167404 
L 376.254694 170.188858 
L 376.254694 170.077269 
L 376.254694 169.877511 
L 376.181076 169.898939 
L 376.03384 169.853723 
L 376.03384 169.808473 
L 376.03384 169.541489 
L 375.960223 169.56289 
L 375.812987 169.584299 
L 375.812987 169.472026 
L 375.739369 169.292688 
L 375.444898 169.289894 
L 375.444898 169.244277 
L 375.37128 168.86297 
L 375.224045 168.86297 
L 375.224045 168.771233 
L 375.224045 168.636662 
L 375.150427 168.658007 
L 374.414249 168.648166 
L 374.414249 168.669564 
L 374.414249 168.534556 
L 374.340631 168.555945 
L 374.04616 168.484982 
L 374.04616 168.506386 
L 374.04616 168.438751 
L 373.972542 168.460154 
L 373.825306 168.481565 
L 373.825306 168.367586 
L 373.825306 168.232087 
L 373.751688 168.253479 
L 373.309981 168.203443 
L 373.309981 168.178382 
L 373.236364 167.927921 
L 373.162746 167.927921 
L 373.162746 167.881273 
L 373.162746 167.813204 
L 373.089128 167.83459 
L 372.721039 167.852078 
L 372.721039 167.737125 
L 372.721039 167.600652 
L 372.647421 167.622043 
L 372.500186 167.575149 
L 372.500186 167.52822 
L 372.500186 167.459868 
L 372.426568 167.481256 
L 372.132096 167.477055 
L 372.132096 167.430019 
L 372.132096 167.361545 
L 372.058479 167.382947 
L 369.923562 167.425775 
L 369.849944 165.466647 
L 369.702709 165.487965 
L 369.702709 165.369732 
L 369.629091 165.111573 
L 369.113766 165.099408 
L 369.113766 165.050671 
L 369.113766 164.910483 
L 369.040148 164.93178 
L 368.156735 164.885442 
L 368.156735 164.836436 
L 368.083117 164.646511 
L 367.567792 164.562958 
L 367.567792 164.584315 
L 367.567792 164.513686 
L 367.494174 164.535043 
L 366.610761 164.628937 
L 366.537143 164.671818 
L 366.537143 164.600974 
L 366.242672 164.523501 
L 366.242672 164.54495 
L 366.169054 164.353403 
L 366.095436 164.353403 
L 366.095436 164.303774 
L 366.095436 164.23268 
L 366.021818 164.254106 
L 365.727347 164.247274 
L 365.727347 164.197527 
L 365.653729 163.719756 
L 365.506494 163.741145 
L 365.506494 163.619619 
L 365.506494 163.548117 
L 365.432876 163.569493 
L 365.28564 163.590877 
L 365.28564 163.469122 
L 365.212022 163.347226 
L 364.917551 163.267913 
L 364.917551 163.289288 
L 364.843933 162.951462 
L 364.402226 162.84225 
L 364.402226 162.863605 
L 364.402226 162.575157 
L 364.328609 162.596481 
L 363.445195 162.686961 
L 363.445195 162.708366 
L 363.445195 162.635997 
L 363.371577 162.657399 
L 363.150724 162.627803 
L 363.150724 162.576755 
L 363.150724 162.50426 
L 363.077106 162.525667 
L 362.782635 162.444781 
L 362.782635 162.248225 
L 362.709017 162.269623 
L 362.414545 162.188325 
L 362.414545 162.209737 
L 362.414545 162.136913 
L 362.340928 162.158323 
L 362.046456 162.076787 
L 361.972839 161.461862 
L 361.825603 161.409969 
L 361.825603 161.358035 
L 361.751985 161.23271 
L 361.531132 161.275383 
L 361.531132 161.149885 
L 361.457514 161.024237 
L 361.383896 161.024237 
L 361.383896 160.972016 
L 361.383896 160.677537 
L 361.310278 160.698819 
L 361.015807 160.615216 
L 360.942189 160.562707 
L 360.942189 160.583999 
L 360.868571 160.583999 
L 360.868571 160.531447 
L 360.794954 160.330976 
L 360.721336 160.330976 
L 360.647718 159.483549 
L 360.5741 159.483549 
L 360.5741 159.430346 
L 360.500482 159.079165 
L 360.132393 159.01446 
L 360.132393 159.035592 
L 360.058776 157.482086 
L 359.985158 157.482086 
L 359.985158 157.427681 
L 359.91154 155.479126 
L 359.837922 155.479126 
L 359.837922 155.42359 
L 359.764304 153.5295 
L 359.617069 153.5295 
L 359.543451 151.343935 
L 359.469833 151.343935 
L 359.469833 151.28602 
L 359.396215 148.951954 
L 359.322597 148.951954 
L 359.24898 147.245838 
L 359.175362 147.245838 
L 359.175362 147.185537 
L 359.101744 144.716367 
L 358.954508 144.654581 
L 358.954508 144.673617 
L 358.880891 144.449899 
L 358.807273 144.449899 
L 358.807273 144.387911 
L 358.733655 142.042672 
L 358.365566 142.042672 
L 358.291948 140.753809 
L 358.21833 140.753809 
L 358.21833 140.689535 
L 358.144712 139.545928 
L 358.071095 139.545928 
L 358.071095 139.480908 
L 357.997477 138.9151 
L 357.776623 138.867834 
L 357.776623 138.886002 
L 357.776623 138.718652 
L 357.703006 138.7368 
L 357.629388 138.7368 
L 357.629388 138.6712 
L 357.629388 138.503579 
L 357.55577 138.521701 
L 357.482152 138.521701 
L 357.482152 138.455938 
L 357.408534 137.969873 
L 357.334917 137.969873 
L 357.334917 137.903748 
L 357.261299 137.669015 
L 357.114063 137.68702 
L 357.114063 137.620675 
L 357.114063 137.536281 
L 357.040445 137.554273 
L 356.89321 137.487813 
L 356.89321 137.505806 
L 356.89321 137.421297 
L 356.819592 137.439284 
L 356.745974 137.439284 
L 356.745974 137.372704 
L 356.672356 137.051974 
L 356.451503 137.003059 
L 356.451503 137.020998 
L 356.451503 136.936149 
L 356.377885 136.954081 
L 356.083414 137.007925 
L 356.083414 136.855935 
L 356.009796 136.107141 
L 355.788942 136.057381 
L 355.788942 135.989743 
L 355.715325 136.007557 
L 355.641707 136.007557 
L 355.641707 135.939854 
L 355.568089 135.70083 
L 355.494471 135.70083 
L 355.494471 135.632907 
L 355.420853 135.393307 
L 355.347236 135.393307 
L 355.347236 135.325161 
L 355.347236 135.239245 
L 355.273618 135.256957 
L 354.316586 135.297774 
L 354.316586 135.22932 
L 354.242968 135.07448 
L 353.654026 135.025942 
L 353.654026 135.04372 
L 353.580408 134.95716 
L 353.580408 134.974931 
L 353.065083 135.081717 
L 352.991466 135.117375 
L 352.549759 135.033002 
L 352.549759 135.050851 
L 352.476141 134.546649 
L 352.328905 134.477264 
L 352.328905 134.495031 
L 352.255288 134.251008 
L 351.739963 134.182636 
L 351.739963 134.200388 
L 351.739963 133.937692 
L 351.666345 133.955406 
L 350.856549 133.869425 
L 350.856549 133.887179 
L 350.782931 133.640944 
L 350.709314 133.640944 
L 350.709314 133.570574 
L 350.635696 133.235466 
L 349.531429 133.129101 
L 349.531429 133.146809 
L 349.457811 132.809437 
L 348.942486 132.737545 
L 348.942486 132.75522 
L 348.868868 132.505552 
L 348.721633 132.523196 
L 348.721633 132.451618 
L 348.721633 132.183692 
L 348.648015 132.201287 
L 347.617365 132.161781 
L 347.617365 132.179438 
L 347.617365 131.999895 
L 347.543748 132.017528 
L 344.378182 131.94006 
L 344.378182 129.4053 
L 344.304564 129.422666 
L 343.42115 129.429579 
L 343.42115 129.354606 
L 343.347532 129.094517 
L 343.053061 129.054025 
L 343.053061 129.071406 
L 343.053061 128.793179 
L 342.979443 128.810516 
L 342.09603 128.908715 
L 342.022412 128.943554 
L 341.433469 128.879229 
L 341.433469 128.896682 
L 341.433469 128.80334 
L 341.359852 128.820784 
L 340.844527 128.925617 
L 340.770909 128.960627 
L 339.74026 128.90753 
L 339.74026 128.9251 
L 339.666642 128.754752 
L 339.298553 128.730904 
L 339.298553 128.654308 
L 339.224935 128.38906 
L 338.856846 128.364722 
L 338.856846 128.287756 
L 338.856846 128.193222 
L 338.783228 128.210719 
L 338.488757 128.168608 
L 338.488757 128.18612 
L 338.488757 128.091406 
L 338.415139 128.108908 
L 337.310872 128.164694 
L 337.310872 128.087144 
L 337.310872 127.99196 
L 337.237254 128.009521 
L 336.721929 128.115062 
L 336.648312 128.150309 
L 335.764898 128.249167 
L 335.764898 128.266876 
L 335.764898 128.171216 
L 335.69128 128.188915 
L 335.102338 128.217192 
L 335.102338 128.139022 
L 335.102338 127.947048 
L 335.02872 127.964749 
L 334.36616 127.914166 
L 334.36616 127.931906 
L 334.36616 127.835571 
L 334.292542 127.8533 
L 333.703599 127.959853 
L 333.629981 128.013245 
L 332.67295 128.033942 
L 332.67295 127.954914 
L 332.67295 127.76096 
L 332.599332 127.77879 
L 331.274212 127.888398 
L 331.200594 127.924302 
L 330.464416 127.988602 
L 330.464416 127.908862 
L 330.390798 127.731169 
L 329.581002 127.821172 
L 329.581002 127.536626 
L 329.507384 127.554627 
L 328.992059 127.662821 
L 328.918442 127.698956 
L 328.918442 127.60045 
L 328.697588 127.636581 
L 328.697588 127.556047 
L 328.697588 127.457386 
L 328.62397 127.475434 
L 328.476735 127.493492 
L 328.476735 127.412789 
L 328.476735 127.313972 
L 328.403117 127.332008 
L 327.077996 127.441469 
L 327.004378 127.477788 
L 326.047347 127.578605 
L 326.047347 127.116281 
L 325.973729 127.13445 
L 325.826494 127.052672 
L 325.826494 127.070839 
L 325.826494 126.970814 
L 325.752876 126.988969 
L 325.679258 126.988969 
L 325.679258 126.907019 
L 325.679258 126.606375 
L 325.60564 126.624468 
L 325.532022 126.624468 
L 325.532022 126.542214 
L 325.532022 126.44181 
L 325.458404 126.45988 
L 324.94308 126.467887 
L 324.94308 126.385331 
L 324.869462 126.284613 
L 324.869462 126.302693 
L 324.722226 126.219973 
L 324.722226 126.23805 
L 324.648609 125.953284 
L 324.574991 125.953284 
L 324.574991 125.870246 
L 324.501373 125.584687 
L 324.427755 125.584687 
L 324.354137 125.214984 
L 324.206902 125.232887 
L 324.206902 125.149218 
L 324.206902 124.945905 
L 324.133284 124.963763 
L 324.059666 124.963763 
L 324.059666 124.879855 
L 324.059666 124.778029 
L 323.986048 124.795862 
L 323.691577 124.747456 
L 323.691577 124.765304 
L 323.617959 124.476844 
L 323.470724 124.494647 
L 323.470724 124.410208 
L 323.397106 124.223309 
L 323.176252 124.156381 
L 323.176252 124.174144 
L 323.102635 123.781353 
L 322.881781 123.816751 
L 322.881781 123.73163 
L 322.881781 123.422815 
L 321.851132 123.422815 
L 321.777514 121.402057 
L 321.703896 121.402057 
L 321.703896 121.314793 
L 321.630278 119.651613 
L 321.409425 119.685467 
L 321.409425 119.596853 
L 321.335807 119.296725 
L 321.188571 119.313592 
L 321.188571 119.224628 
L 321.114954 118.179874 
L 321.041336 118.179874 
L 321.041336 118.090028 
L 320.967718 117.573286 
L 320.673247 117.482942 
L 320.599629 117.013397 
L 320.452393 116.922506 
L 320.452393 116.93891 
L 320.378776 116.417697 
L 320.305158 116.417697 
L 320.305158 116.326284 
L 320.305158 115.786863 
L 320.084304 115.786863 
L 320.084304 115.727271 
L 320.010686 114.550089 
L 319.937069 114.550089 
L 319.937069 114.457152 
L 319.863451 113.927821 
L 319.789833 113.927821 
L 319.789833 113.834365 
L 319.716215 112.864163 
L 319.56898 112.879718 
L 319.56898 112.785392 
L 319.495362 112.250503 
L 319.200891 112.186483 
L 319.200891 112.201913 
L 319.127273 111.775226 
L 318.906419 111.695199 
L 318.906419 111.710536 
L 318.832801 110.726246 
L 318.759184 110.726246 
L 318.759184 110.629981 
L 318.759184 110.407024 
L 318.685566 110.422081 
L 318.611948 110.422081 
L 318.611948 110.325527 
L 318.53833 109.781466 
L 318.317477 109.699275 
L 318.317477 109.714192 
L 318.243859 109.39245 
L 318.096623 109.294937 
L 318.023006 108.423101 
L 317.654917 108.368657 
L 317.654917 108.383306 
L 317.654917 108.156941 
L 317.581299 108.171544 
L 317.360445 108.087423 
L 317.360445 108.102023 
L 317.360445 107.988584 
L 317.286827 108.003166 
L 317.21321 108.003166 
L 317.21321 107.904202 
L 317.21321 107.790588 
L 317.139592 107.805132 
L 316.550649 107.907164 
L 316.477032 107.936386 
L 316.256178 107.851645 
L 316.256178 107.866257 
L 316.18256 107.652595 
L 316.035325 107.667169 
L 316.035325 107.567464 
L 316.035325 107.338704 
L 315.961707 107.353213 
L 315.667236 107.396788 
L 315.667236 107.296721 
L 315.593618 106.852085 
L 315.52 106.852085 
L 315.52 106.751533 
L 315.52 106.636499 
L 315.446382 106.650873 
L 314.415733 106.607423 
L 314.415733 106.621851 
L 314.342115 106.173268 
L 313.385083 106.113236 
L 313.385083 106.127608 
L 313.385083 105.778215 
L 313.311466 105.792511 
L 312.722523 105.892805 
L 312.648905 105.921531 
L 312.575288 105.921531 
L 312.575288 105.819005 
L 312.575288 105.70204 
L 312.50167 105.716366 
L 312.280816 105.745043 
L 312.280816 105.64225 
L 312.280816 105.525043 
L 312.207199 105.539345 
L 311.839109 105.464911 
L 311.839109 105.376021 
L 311.765492 105.390313 
L 311.176549 105.490578 
L 311.102931 105.519296 
L 311.102931 105.401439 
L 309.925046 105.499057 
L 309.851429 105.527932 
L 309.851429 105.409455 
L 309.556957 105.33411 
L 309.556957 105.348525 
L 309.556957 105.2298 
L 309.48334 105.244194 
L 307.053952 105.349611 
L 306.980334 105.378768 
L 306.538627 105.451802 
L 306.538627 105.346235 
L 306.538627 105.225968 
L 306.465009 105.240548 
L 306.09692 105.178467 
L 306.09692 105.193059 
L 306.09692 105.072476 
L 306.023302 105.087046 
L 304.7718 105.078895 
L 304.7718 105.093546 
L 304.7718 104.972214 
L 304.698182 104.986843 
L 301.458998 104.967831 
L 301.458998 104.037121 
L 301.017291 104.037121 
L 301.017291 103.752958 
L 300.943673 103.767517 
L 300.501967 103.716135 
L 300.501967 103.730713 
L 300.428349 103.496345 
L 299.765788 103.487988 
L 299.765788 103.502554 
L 299.692171 103.267097 
L 299.02961 103.258103 
L 299.02961 103.272658 
L 299.02961 103.147167 
L 298.955993 103.161698 
L 298.882375 103.161698 
L 298.882375 103.050608 
L 298.882375 102.924905 
L 298.808757 102.939388 
L 298.219814 103.041005 
L 298.146197 103.070115 
L 297.778108 103.128439 
L 297.778108 103.016772 
L 297.778108 102.890429 
L 297.70449 102.904974 
L 297.630872 102.904974 
L 297.630872 102.919528 
L 297.630872 102.793044 
L 297.557254 102.807573 
L 296.968312 102.909519 
L 296.894694 102.938723 
L 296.894694 102.811833 
L 296.452987 102.757699 
L 296.452987 102.772291 
L 296.452987 102.517734 
L 296.379369 102.532268 
L 295.790427 102.634247 
L 295.716809 102.663461 
L 295.127866 102.765988 
L 295.054249 102.79536 
L 294.980631 102.79536 
L 294.980631 102.810059 
L 294.907013 102.440239 
L 294.612542 102.48411 
L 294.612542 102.370286 
L 294.612542 102.241744 
L 294.538924 102.256326 
L 294.097217 102.200541 
L 294.097217 102.215141 
L 294.097217 102.086205 
L 294.023599 102.100779 
L 293.949981 102.100779 
L 293.949981 102.115362 
L 293.949981 101.98628 
L 293.876364 102.000837 
L 293.287421 101.973549 
L 293.287421 101.988142 
L 293.287421 101.858593 
L 293.213803 101.873161 
L 293.140186 101.873161 
L 293.140186 101.887737 
L 293.140186 101.75804 
L 293.066568 101.77259 
L 292.477625 101.874688 
L 292.404007 101.903938 
L 291.815065 102.006593 
L 291.741447 102.036003 
L 291.29974 101.97907 
L 291.29974 101.993798 
L 291.29974 101.732258 
L 291.226122 101.746924 
L 290.63718 101.718666 
L 290.63718 101.733369 
L 290.63718 101.470711 
L 290.563562 101.485351 
L 289.97462 101.588084 
L 289.901002 101.617517 
L 289.901002 101.353822 
L 289.312059 101.324397 
L 289.312059 101.339082 
L 289.312059 101.206743 
L 289.238442 101.221401 
L 288.649499 101.324261 
L 288.575881 101.353731 
L 288.575881 101.220947 
L 287.324378 101.323987 
L 287.250761 101.353639 
L 286.661818 101.323848 
L 286.661818 101.338716 
L 286.661818 101.204728 
L 286.072876 101.308804 
L 285.999258 101.338623 
L 285.410315 101.443285 
L 285.336698 101.473273 
L 285.042226 101.383469 
L 285.042226 101.398468 
L 285.042226 101.26349 
L 284.968609 101.27846 
L 284.526902 101.218164 
L 284.526902 101.233153 
L 284.526902 101.097741 
L 284.453284 101.112701 
L 283.422635 101.172019 
L 283.422635 101.050919 
L 283.422635 100.914678 
L 283.349017 100.929666 
L 282.24475 100.866598 
L 282.24475 100.881651 
L 282.24475 100.744532 
L 282.171132 100.759556 
L 282.097514 100.759556 
L 282.097514 100.77459 
L 282.097514 100.637306 
L 282.023896 100.652311 
L 281.434954 100.757611 
L 281.361336 100.787783 
L 280.698776 100.740534 
L 280.698776 100.647715 
L 280.625158 100.662824 
L 280.036215 100.76886 
L 279.962597 100.799243 
L 279.226419 100.797405 
L 279.226419 100.673481 
L 279.152801 100.688706 
L 279.079184 100.688706 
L 279.079184 100.70394 
L 279.079184 100.564591 
L 279.005566 100.579795 
L 278.416623 100.686501 
L 278.343006 100.717078 
L 278.343006 100.577235 
L 277.091503 100.68205 
L 277.017885 100.712823 
L 276.134471 100.741588 
L 276.134471 100.615716 
L 276.134471 100.33275 
L 276.060853 100.348108 
L 275.471911 100.455897 
L 275.398293 100.486784 
L 274.441262 100.53043 
L 274.441262 100.54597 
L 274.441262 100.260522 
L 274.367644 100.275988 
L 274.294026 100.275988 
L 274.294026 100.291464 
L 274.294026 100.148514 
L 274.220408 100.163958 
L 272.968905 100.268702 
L 272.895288 100.299867 
L 272.159109 100.29629 
L 272.159109 100.311939 
L 272.159109 100.167463 
L 272.085492 100.183079 
L 271.496549 100.292688 
L 271.422931 100.3241 
L 270.833989 100.434373 
L 270.760371 100.465976 
L 270.171429 100.576921 
L 270.097811 100.608716 
L 269.582486 100.704359 
L 269.508868 100.736327 
L 269.43525 100.736327 
L 269.43525 100.752327 
L 269.43525 100.606138 
L 269.361633 100.622104 
L 268.846308 100.718133 
L 268.77269 100.75023 
L 267.521187 100.766295 
L 267.44757 100.006502 
L 266.932245 100.102351 
L 266.858627 100.134388 
L 266.343302 100.230766 
L 266.269685 100.26298 
L 266.122449 100.279104 
L 266.122449 100.295239 
L 266.122449 100.146215 
L 266.048831 100.162315 
L 265.312653 100.158131 
L 265.312653 100.174297 
L 265.312653 99.874715 
L 265.239035 99.890799 
L 265.0918 99.906895 
L 265.0918 99.923001 
L 265.018182 99.638748 
L 264.870946 99.654783 
L 264.870946 99.67083 
L 264.870946 99.068457 
L 264.797328 99.084327 
L 264.576475 99.116101 
L 264.576475 98.98096 
L 264.502857 98.694327 
L 264.429239 98.694327 
L 264.355622 97.358541 
L 264.282004 97.358541 
L 264.282004 97.373917 
L 264.208386 96.778423 
L 264.134768 96.778423 
L 264.134768 96.487445 
L 264.06115 96.502563 
L 263.987532 96.502563 
L 263.987532 96.517691 
L 263.913915 95.302601 
L 262.73603 95.302601 
L 262.73603 94.296395 
L 262.662412 94.31092 
L 262.588794 94.31092 
L 262.588794 94.325455 
L 262.588794 94.169407 
L 262.515176 94.183902 
L 262.441558 94.183902 
L 262.441558 94.198408 
L 262.367941 93.116391 
L 262.073469 93.158932 
L 262.073469 93.01583 
L 262.073469 92.543247 
L 261.852616 92.543247 
L 261.778998 91.332448 
L 261.410909 91.387021 
L 261.410909 91.241552 
L 261.337291 91.082301 
L 261.337291 91.095873 
L 260.674731 91.204807 
L 260.674731 91.218469 
L 260.674731 91.058572 
L 260.601113 91.07219 
L 260.527495 91.07219 
L 260.527495 91.085818 
L 260.453878 90.778996 
L 259.570464 90.767496 
L 259.570464 90.781093 
L 259.570464 90.619926 
L 259.496846 90.633478 
L 259.34961 90.64704 
L 259.34961 90.660612 
L 259.275993 90.189335 
L 259.128757 90.189335 
L 259.128757 90.054238 
L 259.055139 90.067632 
L 258.981521 90.067632 
L 258.981521 90.081036 
L 258.981521 89.918842 
L 258.907904 89.932202 
L 258.834286 89.932202 
L 258.834286 89.945571 
L 258.760668 89.471159 
L 257.877254 89.427192 
L 257.877254 89.466991 
L 257.877254 89.30337 
L 257.803636 89.3166 
L 256.772987 89.324965 
L 256.772987 89.338277 
L 256.772987 89.173572 
L 256.699369 89.186837 
L 256.552134 89.200113 
L 256.552134 88.552668 
L 256.478516 88.565736 
L 256.33128 88.578815 
L 256.33128 88.591903 
L 256.33128 88.260454 
L 256.257662 88.273438 
L 256.036809 88.299435 
L 256.036809 88.312448 
L 256.036809 87.980044 
L 255.963191 87.992952 
L 255.66872 88.031733 
L 255.66872 88.04468 
L 255.595102 87.878002 
L 255.595102 87.890901 
L 253.607421 87.892813 
L 253.607421 87.568341 
L 253.533803 87.581279 
L 252.871243 87.685136 
L 252.797625 87.7112 
L 252.135065 87.645766 
L 252.135065 87.658833 
L 252.135065 87.488555 
L 252.061447 87.501572 
L 251.840594 87.527634 
L 251.840594 87.540681 
L 251.840594 87.37003 
L 251.766976 87.383026 
L 251.61974 87.396032 
L 251.61974 87.409048 
L 251.61974 87.066989 
L 251.546122 87.079893 
L 250.95718 86.998784 
L 250.95718 87.011706 
L 250.95718 86.839796 
L 250.883562 86.852667 
L 250.221002 86.783395 
L 250.221002 86.796295 
L 250.221002 86.623499 
L 250.147384 86.636346 
L 249.484824 86.739483 
L 249.484824 86.75242 
L 249.484824 86.405176 
L 249.411206 86.417998 
L 249.116735 86.456524 
L 249.116735 86.469386 
L 249.116735 86.295246 
L 249.043117 86.308055 
L 247.93885 86.313211 
L 247.93885 86.326107 
L 247.93885 85.975105 
L 247.865232 85.987884 
L 247.202672 86.090478 
L 247.129054 86.116228 
L 246.760965 86.167851 
L 246.760965 86.180783 
L 246.760965 86.00404 
L 246.687347 86.016916 
L 246.392876 86.055607 
L 246.392876 86.068525 
L 246.392876 85.891316 
L 246.319258 85.904178 
L 245.656698 85.829506 
L 245.656698 85.842395 
L 245.656698 85.664245 
L 245.58308 85.677079 
L 240.945158 85.626956 
L 240.945158 83.3816 
L 240.87154 83.393919 
L 239.914508 83.356417 
L 239.914508 83.368798 
L 239.914508 83.182434 
L 239.840891 83.194753 
L 239.17833 83.293674 
L 239.104712 83.318507 
L 238.883859 83.343382 
L 238.883859 83.355836 
L 238.883859 82.980602 
L 238.810241 82.992918 
L 238.147681 83.091826 
L 238.074063 83.116657 
L 236.233618 83.227456 
L 236.233618 83.240067 
L 236.233618 83.049368 
L 236.16 83.061913 
L 235.865529 83.099613 
L 235.865529 83.112201 
L 235.865529 82.92096 
L 235.791911 82.933482 
L 235.718293 82.933482 
L 235.718293 82.946016 
L 235.718293 82.754459 
L 235.644675 82.766926 
L 235.571058 82.766926 
L 235.571058 82.779404 
L 235.571058 82.58753 
L 235.49744 82.599942 
L 233.656994 82.707073 
L 233.583377 82.732291 
L 231.522078 82.68398 
L 231.522078 82.696745 
L 231.522078 82.302821 
L 231.44846 82.315435 
L 230.7859 82.416748 
L 230.712282 82.442188 
L 228.871837 82.550903 
L 228.798219 82.57677 
L 228.062041 82.680697 
L 227.988423 82.719862 
L 227.399481 82.609696 
L 227.399481 82.622772 
L 227.325863 82.231047 
L 226.810538 82.308795 
L 226.810538 82.321794 
L 226.810538 82.118513 
L 226.73692 82.131437 
L 226.07436 82.235257 
L 226.000742 82.26133 
L 225.632653 82.313619 
L 225.632653 82.326721 
L 225.559035 81.929763 
L 224.896475 82.0337 
L 224.822857 82.059804 
L 224.160297 82.164698 
L 224.160297 82.177864 
L 224.160297 81.970865 
L 224.086679 81.983953 
L 223.424119 82.0891 
L 223.350501 82.115509 
L 222.982412 82.168473 
L 222.982412 82.181744 
L 222.908794 81.973113 
L 222.908794 81.986307 
L 222.467087 82.052457 
L 222.467087 82.065724 
L 222.467087 81.856262 
L 222.393469 81.86945 
L 221.215584 81.857622 
L 221.215584 81.870916 
L 221.215584 81.65949 
L 221.141967 81.672704 
L 220.479406 81.778859 
L 220.405788 81.805523 
L 219.743228 81.912687 
L 219.66961 81.939605 
L 219.00705 82.04779 
L 218.933432 82.074966 
L 218.270872 82.184188 
L 218.197254 82.211624 
L 218.123636 82.211624 
L 218.123636 82.225362 
L 218.123636 82.009744 
L 218.050019 82.023398 
L 217.681929 82.078147 
L 217.681929 82.091867 
L 217.681929 81.875458 
L 217.608312 81.889093 
L 217.166605 81.957469 
L 217.166605 81.971184 
L 217.092987 81.549897 
L 216.65128 81.617748 
L 216.65128 81.631358 
L 216.65128 81.41294 
L 216.577662 81.426463 
L 215.915102 81.535126 
L 215.841484 81.562424 
L 215.178924 81.672153 
L 215.105306 81.699719 
L 214.442746 81.810529 
L 214.369128 81.838368 
L 213.853803 81.922214 
L 213.853803 81.936237 
L 213.853803 81.491053 
L 213.780186 81.504883 
L 213.191243 81.602079 
L 213.117625 81.629973 
L 212.528683 81.728043 
L 212.455065 81.756189 
L 212.381447 81.756189 
L 212.381447 81.770283 
L 212.307829 81.333927 
L 211.718887 81.431596 
L 211.645269 81.459628 
L 211.27718 81.515861 
L 211.27718 81.529955 
L 211.27718 81.30289 
L 211.203562 81.31689 
L 210.61462 81.415291 
L 210.541002 81.443533 
L 209.952059 81.542835 
L 209.878442 81.571338 
L 209.289499 81.657194 
L 209.289499 81.45569 
L 209.215881 81.46997 
L 208.626939 81.570337 
L 208.553321 81.599146 
L 207.964378 81.700445 
L 207.890761 81.729523 
L 207.301818 81.831769 
L 207.2282 81.861119 
L 206.639258 81.964325 
L 206.56564 81.99395 
L 205.976698 82.098129 
L 205.90308 82.128035 
L 205.682226 82.158004 
L 205.682226 82.173012 
L 205.682226 81.936982 
L 205.608609 81.95189 
L 204.651577 81.981752 
L 204.577959 82.162252 
L 203.989017 82.268607 
L 203.915399 82.299139 
L 203.326456 82.406517 
L 203.252839 82.437344 
L 202.663896 82.545759 
L 202.590278 82.576884 
L 202.001336 82.686352 
L 201.927718 82.71778 
L 201.338776 82.828315 
L 201.265158 82.860051 
L 200.749833 82.955673 
L 200.676215 82.987685 
L 200.234508 83.068023 
L 200.234508 83.084143 
L 200.234508 82.838933 
L 200.160891 82.854946 
L 199.719184 82.935272 
L 199.719184 82.95139 
L 199.719184 82.70503 
L 199.645566 82.72104 
L 199.203859 82.785254 
L 199.203859 82.569946 
L 199.130241 82.585951 
L 198.983006 82.601974 
L 198.983006 82.618015 
L 198.983006 82.369837 
L 198.909388 82.385767 
L 198.394063 82.48172 
L 198.394063 82.497774 
L 198.394063 82.248288 
L 198.320445 82.26423 
L 197.805121 82.360258 
L 197.731503 82.39241 
L 197.216178 82.489299 
L 197.14256 82.52174 
L 196.627236 82.619501 
L 196.553618 82.652236 
L 196.038293 82.734394 
L 195.964675 82.783913 
L 195.449351 82.883456 
L 195.375733 82.916788 
L 194.860408 83.01724 
L 194.78679 83.050877 
L 194.271466 83.152251 
L 194.197848 83.186197 
L 194.12423 83.186197 
L 194.12423 83.2032 
L 194.12423 82.945664 
L 194.050612 82.962548 
L 193.535288 83.064259 
L 193.46167 83.098319 
L 192.946345 83.200974 
L 192.872727 83.235351 
L 192.357403 83.338962 
L 192.357403 83.356301 
L 192.357403 83.095103 
L 192.283785 83.11232 
L 191.76846 83.216045 
L 191.694842 83.250782 
L 191.326753 83.250782 
L 191.326753 82.282069 
L 191.253135 82.29899 
L 190.737811 82.400933 
L 190.664193 82.435075 
L 190.148868 82.537988 
L 190.07525 82.572455 
L 189.559926 82.676352 
L 189.486308 82.71115 
L 188.970983 82.816044 
L 188.897365 82.851177 
L 188.382041 82.957083 
L 188.308423 82.992556 
L 187.793098 83.09949 
L 187.719481 83.135307 
L 187.204156 83.243283 
L 187.130538 83.27945 
L 186.615213 83.388483 
L 186.615213 83.132289 
L 186.541596 83.150405 
L 186.099889 83.241316 
L 186.026271 82.448684 
L 185.658182 82.520083 
L 185.658182 82.537988 
L 185.658182 82.26012 
L 185.142857 82.367047 
L 185.069239 82.402867 
L 184.553915 82.510862 
L 184.480297 82.547041 
L 183.964972 82.58331 
L 183.891354 82.692664 
L 183.817737 82.692664 
L 183.817737 82.146009 
L 183.744119 82.164005 
L 183.228794 82.27246 
L 183.155176 82.308795 
L 183.081558 82.308795 
L 183.081558 82.042304 
L 183.007941 82.06036 
L 73.832727 82.09654 
L 73.832727 53.568 
L 73.832727 53.568 
" clip-path="url(#p78ba3b67c6)" style="fill: none; stroke: #1f77b4; stroke-width: 1.5; stroke-linecap: square"/>
   </g>
   <g id="patch_3">
    <path d="M 57.6 307.584 
L 57.6 41.472 
" style="fill: none; stroke: #000000; stroke-width: 0.8; stroke-linejoin: miter; stroke-linecap: square"/>
   </g>
   <g id="patch_4">
    <path d="M 414.72 307.584 
L 414.72 41.472 
" style="fill: none; stroke: #000000; stroke-width: 0.8; stroke-linejoin: miter; stroke-linecap: square"/>
   </g>
   <g id="patch_5">
    <path d="M 57.6 307.584 
L 414.72 307.584 
" style="fill: none; stroke: #000000; stroke-width: 0.8; stroke-linejoin: miter; stroke-linecap: square"/>
   </g>
   <g id="patch_6">
    <path d="M 57.6 41.472 
L 414.72 41.472 
" style="fill: none; stroke: #000000; stroke-width: 0.8; stroke-linejoin: miter; stroke-linecap: square"/>
   </g>
  </g>
 </g>
 <defs>
  <clipPath id="p78ba3b67c6">
   <rect x="57.6" y="41.472" width="357.12" height="266.112"/>
  </clipPath>
 </defs>
</svg>
