<?xml version="1.0" encoding="utf-8" standalone="no"?>
<!DOCTYPE svg PUBLIC "-//W3C//DTD SVG 1.1//EN"
        "http://www.w3.org/Graphics/SVG/1.1/DTD/svg11.dtd">
<svg xmlns:xlink="http://www.w3.org/1999/xlink" width="460.8pt" height="345.6pt" viewBox="0 0 460.8 345.6"
     xmlns="http://www.w3.org/2000/svg" version="1.1">
    <metadata>
        <rdf:RDF xmlns:dc="http://purl.org/dc/elements/1.1/" xmlns:cc="http://creativecommons.org/ns#"
                 xmlns:rdf="http://www.w3.org/1999/02/22-rdf-syntax-ns#">
            <cc:Work>
                <dc:type rdf:resource="http://purl.org/dc/dcmitype/StillImage"/>
                <dc:date>2022-12-02T22:08:36.414723</dc:date>
                <dc:format>image/svg+xml</dc:format>
                <dc:creator>
                    <cc:Agent>
                        <dc:title>Matplotlib v3.6.2, https://matplotlib.org/</dc:title>
                    </cc:Agent>
                </dc:creator>
            </cc:Work>
        </rdf:RDF>
    </metadata>
    <defs>
        <style type="text/css">*{stroke-linejoin: round; stroke-linecap: butt}</style>
    </defs>
    <g id="figure_1">
        <g id="patch_1">
            <path d="M 0 345.6
L 460.8 345.6 
L 460.8 0 
L 0 0 
z
" style="fill: #ffffff"/>
        </g>
        <g id="axes_1">
            <g id="patch_2">
                <path d="M 57.6 307.584
L 414.72 307.584 
L 414.72 41.472 
L 57.6 41.472 
z
" style="fill: #eaeaf2"/>
            </g>
            <g id="matplotlib.axis_1">
                <g id="xtick_1">
                    <g id="line2d_1">
                        <path d="M 73.832727 307.584
L 73.832727 41.472 
" clip-path="url(#p8be34d7fa0)" style="fill: none; stroke: #ffffff; stroke-width: 0.8; stroke-linecap: round"/>
                    </g>
                    <g id="line2d_2"/>
                    <g id="text_1">
                        <!-- 0.0 -->
                        <g style="fill: #262626" transform="translate(66.882727 318.241812) scale(0.1 -0.1)">
                            <defs>
                                <path id="ArialMT-30" d="M 266 2259
Q 266 3072 433 3567 
Q 600 4063 929 4331 
Q 1259 4600 1759 4600 
Q 2128 4600 2406 4451 
Q 2684 4303 2865 4023 
Q 3047 3744 3150 3342 
Q 3253 2941 3253 2259 
Q 3253 1453 3087 958 
Q 2922 463 2592 192 
Q 2263 -78 1759 -78 
Q 1097 -78 719 397 
Q 266 969 266 2259 
z
M 844 2259 
Q 844 1131 1108 757 
Q 1372 384 1759 384 
Q 2147 384 2411 759 
Q 2675 1134 2675 2259 
Q 2675 3391 2411 3762 
Q 2147 4134 1753 4134 
Q 1366 4134 1134 3806 
Q 844 3388 844 2259 
z
" transform="scale(0.015625)"/>
                                <path id="ArialMT-2e" d="M 581 0
L 581 641 
L 1222 641 
L 1222 0 
L 581 0 
z
" transform="scale(0.015625)"/>
                            </defs>
                            <use xlink:href="#ArialMT-30"/>
                            <use xlink:href="#ArialMT-2e" x="55.615234"/>
                            <use xlink:href="#ArialMT-30" x="83.398438"/>
                        </g>
                    </g>
                </g>
                <g id="xtick_2">
                    <g id="line2d_3">
                        <path d="M 138.763636 307.584
L 138.763636 41.472 
" clip-path="url(#p8be34d7fa0)" style="fill: none; stroke: #ffffff; stroke-width: 0.8; stroke-linecap: round"/>
                    </g>
                    <g id="line2d_4"/>
                    <g id="text_2">
                        <!-- 0.2 -->
                        <g style="fill: #262626" transform="translate(131.813636 318.241812) scale(0.1 -0.1)">
                            <defs>
                                <path id="ArialMT-32" d="M 3222 541
L 3222 0 
L 194 0 
Q 188 203 259 391 
Q 375 700 629 1000 
Q 884 1300 1366 1694 
Q 2113 2306 2375 2664 
Q 2638 3022 2638 3341 
Q 2638 3675 2398 3904 
Q 2159 4134 1775 4134 
Q 1369 4134 1125 3890 
Q 881 3647 878 3216 
L 300 3275 
Q 359 3922 746 4261 
Q 1134 4600 1788 4600 
Q 2447 4600 2831 4234 
Q 3216 3869 3216 3328 
Q 3216 3053 3103 2787 
Q 2991 2522 2730 2228 
Q 2469 1934 1863 1422 
Q 1356 997 1212 845 
Q 1069 694 975 541 
L 3222 541 
z
" transform="scale(0.015625)"/>
                            </defs>
                            <use xlink:href="#ArialMT-30"/>
                            <use xlink:href="#ArialMT-2e" x="55.615234"/>
                            <use xlink:href="#ArialMT-32" x="83.398438"/>
                        </g>
                    </g>
                </g>
                <g id="xtick_3">
                    <g id="line2d_5">
                        <path d="M 203.694545 307.584
L 203.694545 41.472 
" clip-path="url(#p8be34d7fa0)" style="fill: none; stroke: #ffffff; stroke-width: 0.8; stroke-linecap: round"/>
                    </g>
                    <g id="line2d_6"/>
                    <g id="text_3">
                        <!-- 0.4 -->
                        <g style="fill: #262626" transform="translate(196.744545 318.241812) scale(0.1 -0.1)">
                            <defs>
                                <path id="ArialMT-34" d="M 2069 0
L 2069 1097 
L 81 1097 
L 81 1613 
L 2172 4581 
L 2631 4581 
L 2631 1613 
L 3250 1613 
L 3250 1097 
L 2631 1097 
L 2631 0 
L 2069 0 
z
M 2069 1613 
L 2069 3678 
L 634 1613 
L 2069 1613 
z
" transform="scale(0.015625)"/>
                            </defs>
                            <use xlink:href="#ArialMT-30"/>
                            <use xlink:href="#ArialMT-2e" x="55.615234"/>
                            <use xlink:href="#ArialMT-34" x="83.398438"/>
                        </g>
                    </g>
                </g>
                <g id="xtick_4">
                    <g id="line2d_7">
                        <path d="M 268.625455 307.584
L 268.625455 41.472 
" clip-path="url(#p8be34d7fa0)" style="fill: none; stroke: #ffffff; stroke-width: 0.8; stroke-linecap: round"/>
                    </g>
                    <g id="line2d_8"/>
                    <g id="text_4">
                        <!-- 0.6 -->
                        <g style="fill: #262626" transform="translate(261.675455 318.241812) scale(0.1 -0.1)">
                            <defs>
                                <path id="ArialMT-36" d="M 3184 3459
L 2625 3416 
Q 2550 3747 2413 3897 
Q 2184 4138 1850 4138 
Q 1581 4138 1378 3988 
Q 1113 3794 959 3422 
Q 806 3050 800 2363 
Q 1003 2672 1297 2822 
Q 1591 2972 1913 2972 
Q 2475 2972 2870 2558 
Q 3266 2144 3266 1488 
Q 3266 1056 3080 686 
Q 2894 316 2569 119 
Q 2244 -78 1831 -78 
Q 1128 -78 684 439 
Q 241 956 241 2144 
Q 241 3472 731 4075 
Q 1159 4600 1884 4600 
Q 2425 4600 2770 4297 
Q 3116 3994 3184 3459 
z
M 888 1484 
Q 888 1194 1011 928 
Q 1134 663 1356 523 
Q 1578 384 1822 384 
Q 2178 384 2434 671 
Q 2691 959 2691 1453 
Q 2691 1928 2437 2201 
Q 2184 2475 1800 2475 
Q 1419 2475 1153 2201 
Q 888 1928 888 1484 
z
" transform="scale(0.015625)"/>
                            </defs>
                            <use xlink:href="#ArialMT-30"/>
                            <use xlink:href="#ArialMT-2e" x="55.615234"/>
                            <use xlink:href="#ArialMT-36" x="83.398438"/>
                        </g>
                    </g>
                </g>
                <g id="xtick_5">
                    <g id="line2d_9">
                        <path d="M 333.556364 307.584
L 333.556364 41.472 
" clip-path="url(#p8be34d7fa0)" style="fill: none; stroke: #ffffff; stroke-width: 0.8; stroke-linecap: round"/>
                    </g>
                    <g id="line2d_10"/>
                    <g id="text_5">
                        <!-- 0.8 -->
                        <g style="fill: #262626" transform="translate(326.606364 318.241812) scale(0.1 -0.1)">
                            <defs>
                                <path id="ArialMT-38" d="M 1131 2484
Q 781 2613 612 2850 
Q 444 3088 444 3419 
Q 444 3919 803 4259 
Q 1163 4600 1759 4600 
Q 2359 4600 2725 4251 
Q 3091 3903 3091 3403 
Q 3091 3084 2923 2848 
Q 2756 2613 2416 2484 
Q 2838 2347 3058 2040 
Q 3278 1734 3278 1309 
Q 3278 722 2862 322 
Q 2447 -78 1769 -78 
Q 1091 -78 675 323 
Q 259 725 259 1325 
Q 259 1772 486 2073 
Q 713 2375 1131 2484 
z
M 1019 3438 
Q 1019 3113 1228 2906 
Q 1438 2700 1772 2700 
Q 2097 2700 2305 2904 
Q 2513 3109 2513 3406 
Q 2513 3716 2298 3927 
Q 2084 4138 1766 4138 
Q 1444 4138 1231 3931 
Q 1019 3725 1019 3438 
z
M 838 1322 
Q 838 1081 952 856 
Q 1066 631 1291 507 
Q 1516 384 1775 384 
Q 2178 384 2440 643 
Q 2703 903 2703 1303 
Q 2703 1709 2433 1975 
Q 2163 2241 1756 2241 
Q 1359 2241 1098 1978 
Q 838 1716 838 1322 
z
" transform="scale(0.015625)"/>
                            </defs>
                            <use xlink:href="#ArialMT-30"/>
                            <use xlink:href="#ArialMT-2e" x="55.615234"/>
                            <use xlink:href="#ArialMT-38" x="83.398438"/>
                        </g>
                    </g>
                </g>
                <g id="xtick_6">
                    <g id="line2d_11">
                        <path d="M 398.487273 307.584
L 398.487273 41.472 
" clip-path="url(#p8be34d7fa0)" style="fill: none; stroke: #ffffff; stroke-width: 0.8; stroke-linecap: round"/>
                    </g>
                    <g id="line2d_12"/>
                    <g id="text_6">
                        <!-- 1.0 -->
                        <g style="fill: #262626" transform="translate(391.537273 318.241812) scale(0.1 -0.1)">
                            <defs>
                                <path id="ArialMT-31" d="M 2384 0
L 1822 0 
L 1822 3584 
Q 1619 3391 1289 3197 
Q 959 3003 697 2906 
L 697 3450 
Q 1169 3672 1522 3987 
Q 1875 4303 2022 4600 
L 2384 4600 
L 2384 0 
z
" transform="scale(0.015625)"/>
                            </defs>
                            <use xlink:href="#ArialMT-31"/>
                            <use xlink:href="#ArialMT-2e" x="55.615234"/>
                            <use xlink:href="#ArialMT-30" x="83.398438"/>
                        </g>
                    </g>
                </g>
            </g>
            <g id="matplotlib.axis_2">
                <g id="ytick_1">
                    <g id="line2d_13">
                        <path d="M 57.6 295.488
L 414.72 295.488 
" clip-path="url(#p8be34d7fa0)" style="fill: none; stroke: #ffffff; stroke-width: 0.8; stroke-linecap: round"/>
                    </g>
                    <g id="line2d_14"/>
                    <g id="text_7">
                        <!-- 0.0 -->
                        <g style="fill: #262626" transform="translate(40.2 299.066906) scale(0.1 -0.1)">
                            <use xlink:href="#ArialMT-30"/>
                            <use xlink:href="#ArialMT-2e" x="55.615234"/>
                            <use xlink:href="#ArialMT-30" x="83.398438"/>
                        </g>
                    </g>
                </g>
                <g id="ytick_2">
                    <g id="line2d_15">
                        <path d="M 57.6 247.104
L 414.72 247.104 
" clip-path="url(#p8be34d7fa0)" style="fill: none; stroke: #ffffff; stroke-width: 0.8; stroke-linecap: round"/>
                    </g>
                    <g id="line2d_16"/>
                    <g id="text_8">
                        <!-- 0.2 -->
                        <g style="fill: #262626" transform="translate(40.2 250.682906) scale(0.1 -0.1)">
                            <use xlink:href="#ArialMT-30"/>
                            <use xlink:href="#ArialMT-2e" x="55.615234"/>
                            <use xlink:href="#ArialMT-32" x="83.398438"/>
                        </g>
                    </g>
                </g>
                <g id="ytick_3">
                    <g id="line2d_17">
                        <path d="M 57.6 198.72
L 414.72 198.72 
" clip-path="url(#p8be34d7fa0)" style="fill: none; stroke: #ffffff; stroke-width: 0.8; stroke-linecap: round"/>
                    </g>
                    <g id="line2d_18"/>
                    <g id="text_9">
                        <!-- 0.4 -->
                        <g style="fill: #262626" transform="translate(40.2 202.298906) scale(0.1 -0.1)">
                            <use xlink:href="#ArialMT-30"/>
                            <use xlink:href="#ArialMT-2e" x="55.615234"/>
                            <use xlink:href="#ArialMT-34" x="83.398438"/>
                        </g>
                    </g>
                </g>
                <g id="ytick_4">
                    <g id="line2d_19">
                        <path d="M 57.6 150.336
L 414.72 150.336 
" clip-path="url(#p8be34d7fa0)" style="fill: none; stroke: #ffffff; stroke-width: 0.8; stroke-linecap: round"/>
                    </g>
                    <g id="line2d_20"/>
                    <g id="text_10">
                        <!-- 0.6 -->
                        <g style="fill: #262626" transform="translate(40.2 153.914906) scale(0.1 -0.1)">
                            <use xlink:href="#ArialMT-30"/>
                            <use xlink:href="#ArialMT-2e" x="55.615234"/>
                            <use xlink:href="#ArialMT-36" x="83.398438"/>
                        </g>
                    </g>
                </g>
                <g id="ytick_5">
                    <g id="line2d_21">
                        <path d="M 57.6 101.952
L 414.72 101.952 
" clip-path="url(#p8be34d7fa0)" style="fill: none; stroke: #ffffff; stroke-width: 0.8; stroke-linecap: round"/>
                    </g>
                    <g id="line2d_22"/>
                    <g id="text_11">
                        <!-- 0.8 -->
                        <g style="fill: #262626" transform="translate(40.2 105.530906) scale(0.1 -0.1)">
                            <use xlink:href="#ArialMT-30"/>
                            <use xlink:href="#ArialMT-2e" x="55.615234"/>
                            <use xlink:href="#ArialMT-38" x="83.398438"/>
                        </g>
                    </g>
                </g>
                <g id="ytick_6">
                    <g id="line2d_23">
                        <path d="M 57.6 53.568
L 414.72 53.568 
" clip-path="url(#p8be34d7fa0)" style="fill: none; stroke: #ffffff; stroke-width: 0.8; stroke-linecap: round"/>
                    </g>
                    <g id="line2d_24"/>
                    <g id="text_12">
                        <!-- 1.0 -->
                        <g style="fill: #262626" transform="translate(40.2 57.146906) scale(0.1 -0.1)">
                            <use xlink:href="#ArialMT-31"/>
                            <use xlink:href="#ArialMT-2e" x="55.615234"/>
                            <use xlink:href="#ArialMT-30" x="83.398438"/>
                        </g>
                    </g>
                </g>
            </g>
            <g id="line2d_25">
                <path d="M 73.832727 295.488
L 73.905552 281.906716 
L 73.978378 281.798499 
L 74.051203 280.824542 
L 74.196853 276.712281 
L 74.269678 276.712281 
L 74.342503 274.872585 
L 74.560979 270.760324 
L 74.633804 270.706215 
L 74.633804 269.67815 
L 74.99793 262.806345 
L 75.14358 256.854388 
L 75.28923 256.74617 
L 75.362056 256.583844 
L 75.434881 256.475627 
L 75.507706 256.042757 
L 75.580531 255.93454 
L 75.653356 255.285236 
L 75.726181 255.231127 
L 76.017482 248.03467 
L 76.090307 248.03467 
L 76.090307 247.980561 
L 76.308783 239.593712 
L 76.891384 231.693842 
L 76.964209 231.693842 
L 77.037034 230.178798 
L 78.129411 224.443276 
L 78.202237 223.631646 
L 78.347887 223.631646 
L 78.347887 222.928233 
L 78.566362 222.928233 
L 78.639188 222.008385 
L 78.712013 222.008385 
L 78.712013 221.737841 
L 79.294614 214.000297 
L 79.367439 213.188667 
L 79.440264 213.188667 
L 79.440264 213.080449 
L 79.440264 212.972232 
L 80.678292 205.505231 
L 80.751117 205.505231 
L 80.823942 205.018253 
L 80.896767 205.018253 
L 80.969593 204.044296 
L 81.042418 204.044296 
L 81.042418 203.557318 
L 81.91632 194.629382 
L 82.935872 188.623316 
L 82.935872 188.298664 
L 83.227172 188.244556 
L 83.299998 187.703469 
L 83.372823 187.703469 
L 83.445648 186.837729 
L 83.518473 186.837729 
L 83.591298 186.621295 
L 84.4652 181.751512 
L 84.538025 178.504989 
L 84.61085 178.504989 
L 84.61085 178.396772 
L 86.140179 173.47288 
L 86.213004 172.174272 
L 86.358654 172.120163 
L 86.431479 171.362641 
L 86.57713 171.254424 
L 86.57713 170.767445 
L 86.86843 170.713337 
L 86.941255 170.17225 
L 87.014081 170.17225 
L 87.014081 170.009924 
L 87.815157 165.248358 
L 87.887982 165.248358 
L 87.887982 165.031923 
L 88.033633 165.031923 
L 88.033633 164.274401 
L 88.179283 164.274401 
L 88.179283 163.246336 
L 88.324933 163.246336 
L 88.397758 162.597032 
L 88.761884 162.488814 
L 90.728163 157.186161 
L 90.800989 157.186161 
L 90.873814 156.807401 
L 91.092289 156.590966 
L 91.165114 155.075922 
L 92.548792 151.071878 
L 92.621618 149.77327 
L 92.694443 149.77327 
L 92.767268 148.691096 
L 92.840093 148.691096 
L 92.912918 147.879465 
L 93.131394 147.771248 
L 93.131394 147.554813 
L 93.204219 147.554813 
L 94.806372 143.604878 
L 94.879197 142.739138 
L 95.170498 142.68503 
L 95.243323 141.981617 
L 95.388973 141.981617 
L 95.461799 141.548747 
L 95.534624 141.548747 
L 95.607449 141.061769 
L 97.136777 138.031682 
L 97.209602 137.382377 
L 97.355253 137.27416 
L 97.500903 137.165942 
L 97.573728 136.40842 
L 97.646553 136.40842 
L 97.719378 135.759116 
L 97.937854 135.759116 
L 97.937854 135.59679 
L 99.467182 131.646855 
L 99.540007 131.43042 
L 99.612832 131.43042 
L 99.612832 131.268094 
L 99.758483 131.268094 
L 99.831308 130.99755 
L 99.904133 130.99755 
L 99.976958 129.969485 
L 100.122609 129.915376 
L 100.195434 129.644833 
L 100.268259 129.644833 
L 100.268259 129.374289 
L 101.870412 126.181876 
L 101.870412 125.857224 
L 102.016063 125.857224 
L 102.016063 125.694898 
L 102.088888 125.694898 
L 102.307363 125.532572 
L 102.380188 124.450398 
L 102.525839 124.34218 
L 102.598664 123.746985 
L 102.671489 123.746985 
L 105.293195 120.771006 
L 105.438845 120.771006 
L 105.438845 120.392245 
L 105.584495 120.392245 
L 105.65732 119.959376 
L 105.730146 119.959376 
L 105.802971 119.580615 
L 105.948621 119.472397 
L 106.021446 119.36418 
L 106.094271 119.36418 
L 106.167097 118.985419 
L 106.312747 118.93131 
L 106.312747 118.823093 
L 106.531222 118.714875 
L 106.531222 118.660767 
L 108.206201 115.468353 
L 108.279026 115.306027 
L 108.497502 115.306027 
L 108.570327 114.602614 
L 108.788802 114.548505 
L 108.788802 114.277962 
L 109.007278 114.277962 
L 109.007278 113.845092 
L 109.371403 113.790984 
L 111.337683 110.490353 
L 111.556158 110.490353 
L 111.556158 110.111592 
L 111.774634 110.057483 
L 111.847459 109.732831 
L 111.920284 109.732831 
L 111.920284 109.516396 
L 112.211584 109.516396 
L 112.28441 108.758875 
L 112.43006 108.650657 
L 112.43006 108.596548 
L 112.648535 108.54244 
L 112.648535 108.380114 
L 114.68764 106.107548 
L 114.68764 105.837005 
L 114.760465 105.837005 
L 114.97894 105.62057 
L 115.051766 105.458244 
L 115.343066 105.350026 
L 115.415891 105.133592 
L 115.561542 105.079483 
L 115.634367 104.700722 
L 115.780017 104.592505 
L 115.780017 104.538396 
L 117.309345 102.644591 
L 117.454996 102.590483 
L 117.454996 102.211722 
L 117.600646 102.211722 
L 117.673471 101.941178 
L 117.746296 101.941178 
L 117.819121 101.562417 
L 117.891947 101.400091 
L 117.891947 101.183656 
L 118.256072 101.183656 
L 118.328898 100.534352 
L 118.547373 100.480243 
L 120.513652 98.424113 
L 120.513652 98.207678 
L 120.659303 98.207678 
L 120.732128 97.612482 
L 120.804953 97.612482 
L 120.804953 97.450156 
L 121.096254 97.341939 
L 121.169079 97.233721 
L 121.460379 97.179613 
L 121.533204 96.746743 
L 124.082085 94.528286 
L 124.082085 94.311851 
L 124.227735 94.311851 
L 124.30056 93.878982 
L 124.373386 93.878982 
L 124.446211 93.500221 
L 124.591861 93.446112 
L 124.664686 93.175569 
L 124.737511 93.175569 
L 124.737511 93.12146 
L 127.067916 91.552308 
L 127.140741 91.065329 
L 127.213567 91.065329 
L 127.286392 90.848895 
L 127.359217 90.848895 
L 127.359217 90.686569 
L 127.577692 90.63246 
L 127.650518 89.658503 
L 127.723343 89.658503 
L 127.723343 89.38796 
L 129.398321 88.305786 
L 129.471146 87.440047 
L 129.543972 87.440047 
L 129.616797 87.223612 
L 129.835272 87.115394 
L 129.908097 87.007177 
L 130.126573 86.520199 
L 130.199398 86.357873 
L 130.345048 86.249655 
L 130.345048 86.195546 
L 132.529803 85.059264 
L 132.602628 84.896938 
L 132.966754 84.842829 
L 133.039579 84.572285 
L 133.185229 84.572285 
L 133.258055 84.139416 
L 133.403705 84.085307 
L 133.47653 83.652437 
L 133.767831 83.54422 
L 133.767831 83.327785 
L 133.986306 83.327785 
L 134.059131 82.949024 
L 136.02541 81.433981 
L 136.389536 81.379872 
L 136.462361 80.892894 
L 136.608012 80.784676 
L 136.680837 80.460024 
L 136.899312 80.405915 
L 136.972138 79.973046 
L 139.302543 78.241567 
L 139.957969 78.13335 
L 139.957969 78.079241 
L 140.176444 77.971024 
L 140.176444 77.862807 
L 140.68622 77.754589 
L 140.759046 77.429937 
L 140.977521 77.32172 
L 140.977521 77.267611 
L 141.341647 77.267611 
L 141.341647 77.051176 
L 141.778598 76.997067 
L 141.778598 76.618306 
L 141.924248 76.618306 
L 144.982905 75.103263 
L 145.20138 74.995045 
L 145.20138 74.940937 
L 145.638331 74.832719 
L 145.711156 74.724502 
L 145.856807 74.670393 
L 145.856807 74.562176 
L 146.148107 74.453958 
L 148.478512 73.53411 
L 148.478512 73.425893 
L 148.769813 73.317676 
L 148.769813 73.263567 
L 148.842638 73.263567 
L 148.915463 73.101241 
L 149.643715 72.993023 
L 149.71654 72.938915 
L 150.226316 72.884806 
L 150.226316 72.830697 
L 151.609994 71.910849 
L 153.721923 70.936893 
L 154.814301 70.882784 
L 154.887126 70.720458 
L 155.105601 70.666349 
L 155.105601 70.558132 
L 155.324077 70.449915 
L 155.396902 70.125262 
L 155.469727 70.125262 
L 155.469727 69.854719 
L 155.542552 69.854719 
L 158.819684 69.043088 
L 158.892509 68.826654 
L 160.057712 68.772545 
L 160.057712 68.664327 
L 160.713138 68.55611 
L 160.713138 68.12324 
L 160.931614 68.069132 
L 163.116369 67.365719 
L 163.116369 67.31161 
L 163.917445 67.257501 
L 163.99027 66.986958 
L 164.427221 66.932849 
L 164.500046 66.608197 
L 164.718522 66.499979 
L 164.791347 66.229436 
L 164.864172 66.229436 
L 164.864172 66.121219 
L 164.864172 66.06711 
L 165.082648 65.958892 
L 165.155473 65.904784 
L 165.446774 65.850675 
L 165.446774 65.796566 
L 168.35978 64.714392 
L 169.088031 64.606175 
L 169.088031 64.497958 
L 169.306507 64.443849 
L 169.379332 64.281523 
L 169.670633 64.227414 
L 169.670633 64.119197 
L 170.398884 64.010979 
L 170.398884 63.95687 
L 170.690185 63.848653 
L 170.690185 63.794544 
L 171.127136 63.686327 
L 171.127136 63.632218 
L 173.457541 63.361675 
L 173.530366 63.14524 
L 173.603191 63.14524 
L 173.676016 62.928805 
L 174.040142 62.820588 
L 174.112967 62.658262 
L 174.841219 62.550044 
L 174.841219 62.495936 
L 175.132519 62.495936 
L 175.132519 62.333609 
L 175.496645 62.333609 
L 178.846602 61.846631 
L 179.647679 61.792522 
L 179.720504 61.576088 
L 180.448756 61.46787 
L 180.521581 61.197327 
L 180.594406 61.197327 
L 180.594406 61.089109 
L 184.162839 60.764457 
L 184.162839 60.710348 
L 184.672615 60.602131 
L 184.74544 60.493914 
L 185.546517 60.439805 
L 185.619342 60.22337 
L 186.274768 60.115153 
L 188.386698 59.844609 
L 188.386698 59.736392 
L 189.69755 59.628174 
L 189.69755 59.574066 
L 190.207327 59.519957 
L 190.280152 59.141196 
L 190.717103 59.141196 
L 194.285535 58.816544 
L 194.285535 58.762435 
L 196.033339 58.654218 
L 196.033339 58.546 
L 197.052891 58.546 
L 202.150652 58.221348 
L 202.150652 58.16724 
L 202.514778 58.059022 
L 202.514778 58.004913 
L 203.243029 57.896696 
L 203.243029 57.842587 
L 204.044106 57.788479 
L 204.044106 57.626153 
L 210.671195 56.976848 
L 216.570033 56.706305 
L 216.642858 56.543979 
L 216.788509 56.543979 
L 216.788509 56.435761 
L 220.211291 56.273435 
L 220.211291 56.165218 
L 220.284116 56.165218 
L 220.648242 56.111109 
L 220.648242 56.002892 
L 222.03192 55.948783 
L 222.03192 55.840565 
L 223.269947 55.732348 
L 242.641439 55.299478 
L 242.714264 55.137152 
L 245.33597 55.028935 
L 248.613102 54.758391 
L 251.234807 54.650174 
L 251.234807 54.596065 
L 260.192301 54.487848 
L 267.110691 54.271413 
L 267.110691 54.217304 
L 274.393207 54.109087 
L 274.393207 54.054978 
L 288.885413 53.946761 
L 288.885413 53.892652 
L 312.844889 53.784435 
L 312.844889 53.730326 
L 365.788778 53.622109 
L 377.076677 53.568 
L 398.487273 53.568 
L 398.487273 53.568 
" clip-path="url(#p8be34d7fa0)" style="fill: none; stroke: #1f77b4; stroke-width: 1.5; stroke-linecap: round"/>
            </g>
            <g id="line2d_26">
                <path d="M 73.832727 295.488
L 73.905552 290.726434 
L 74.051203 290.347673 
L 74.124028 287.642238 
L 74.196853 287.371695 
L 74.269678 285.09913 
L 74.342503 285.09913 
L 74.415329 284.125173 
L 74.488154 283.962847 
L 74.560979 281.203303 
L 74.633804 281.203303 
L 74.706629 280.391673 
L 74.779454 280.337564 
L 74.852279 276.658172 
L 74.925105 276.658172 
L 74.99793 271.950715 
L 75.14358 267.676128 
L 75.14358 265.241236 
L 75.28923 265.241236 
L 75.28923 265.187128 
L 75.28923 263.455649 
L 75.362056 263.455649 
L 75.434881 263.401541 
L 75.434881 263.239214 
L 75.653356 263.185106 
L 75.653356 263.130997 
L 75.653356 259.072845 
L 75.726181 259.072845 
L 75.871832 256.908497 
L 75.944657 256.908497 
L 76.017482 252.796235 
L 76.090307 252.796235 
L 76.090307 252.742127 
L 76.163132 250.685996 
L 76.235957 250.685996 
L 76.235957 250.577779 
L 76.308783 245.653887 
L 76.381608 245.653887 
L 76.454433 245.221017 
L 76.745734 239.052625 
L 76.818559 239.052625 
L 76.818559 238.944408 
L 76.891384 238.565647 
L 77.109859 233.04656 
L 77.182684 233.04656 
L 77.182684 232.938342 
L 77.473985 230.178798 
L 77.692461 227.852124 
L 78.056586 224.984363 
L 78.420712 223.198776 
L 78.493537 223.198776 
L 78.566362 220.763885 
L 78.784838 220.655667 
L 78.857663 219.844037 
L 79.513089 213.946188 
L 80.241341 210.807884 
L 80.386991 210.807884 
L 80.678292 208.48121 
L 80.823942 208.48121 
L 80.823942 208.04834 
L 81.333718 205.072361 
L 82.06197 200.419013 
L 82.06197 199.607383 
L 82.644571 193.06023 
L 83.008697 191.058208 
L 83.154347 191.058208 
L 83.154347 190.787665 
L 83.664123 189.218512 
L 83.664123 188.731534 
L 83.882599 185.593229 
L 83.955424 185.593229 
L 83.955424 185.539121 
L 84.246725 182.671359 
L 84.683676 180.020033 
L 85.120626 177.044055 
L 85.703228 174.987924 
L 85.776053 174.122185 
L 86.285829 171.795511 
L 86.57713 169.955815 
L 86.795605 169.847597 
L 86.86843 169.468837 
L 87.887982 165.843554 
L 87.887982 165.248358 
L 88.761884 163.625097 
L 88.834709 163.138119 
L 88.907535 163.138119 
L 88.907535 162.921684 
L 89.562961 161.136097 
L 89.635786 160.540901 
L 90.072737 158.863531 
L 90.145562 158.592988 
L 90.728163 156.645074 
L 91.310765 154.643053 
L 91.38359 154.156074 
L 91.456415 154.156074 
L 92.184667 151.937618 
L 92.330317 151.937618 
L 92.694443 150.639009 
L 92.767268 150.639009 
L 92.840093 150.368465 
L 93.349869 148.961639 
L 93.422694 148.528769 
L 94.442246 146.526747 
L 94.879197 144.849378 
L 95.024848 144.74116 
L 95.097673 144.632943 
L 95.243323 144.524726 
L 95.243323 144.470617 
L 95.316148 144.470617 
L 95.89875 142.901465 
L 95.971575 142.901465 
L 96.0444 142.522704 
L 96.554176 141.602856 
L 96.627001 141.602856 
L 96.699826 141.169986 
L 97.646553 139.979595 
L 97.646553 139.33029 
L 98.738931 138.464551 
L 98.738931 138.194008 
L 99.467182 137.111834 
L 99.467182 136.40842 
L 99.540007 136.40842 
L 99.904133 134.35229 
L 100.632385 132.079724 
L 101.870412 130.889333 
L 101.943237 130.456463 
L 102.016063 130.456463 
L 102.016063 130.402355 
L 102.525839 128.833202 
L 102.817139 128.724985 
L 102.817139 128.562659 
L 103.618216 127.047615 
L 103.691041 126.885289 
L 104.637768 125.478463 
L 105.001894 124.179854 
L 105.074719 124.179854 
L 105.074719 123.746985 
L 105.948621 122.123724 
L 106.021446 122.123724 
L 106.021446 121.961397 
L 106.676873 121.095658 
L 106.676873 120.879223 
L 107.113824 120.825115 
L 107.113824 120.662789 
L 107.6236 119.147745 
L 108.643152 118.173788 
L 108.643152 117.849136 
L 109.298578 116.550527 
L 109.298578 116.171766 
L 110.17248 115.19781 
L 110.17248 114.710832 
L 110.755081 113.574549 
L 110.755081 113.358114 
L 111.774634 111.897179 
L 111.847459 111.518418 
L 111.920284 111.518418 
L 111.920284 111.46431 
L 112.794186 109.408179 
L 113.522437 108.488331 
L 113.740913 108.488331 
L 113.740913 108.055461 
L 116.071318 105.566461 
L 117.09087 104.159635 
L 117.746296 103.510331 
L 117.746296 103.185678 
L 117.964772 103.185678 
L 117.964772 103.023352 
L 118.547373 101.345983 
L 119.931051 99.668613 
L 121.023428 98.911091 
L 121.387554 98.802874 
L 121.460379 98.640548 
L 121.60603 98.586439 
L 122.115806 97.7207 
L 122.115806 97.396047 
L 122.698407 96.584417 
L 122.698407 96.313873 
L 122.916882 96.313873 
L 122.989708 95.989221 
L 123.863609 95.123482 
L 124.00926 95.123482 
L 124.664686 93.878982 
L 124.737511 93.878982 
L 125.101637 92.147503 
L 125.392938 92.147503 
L 126.121189 91.281764 
L 126.121189 91.173547 
L 126.26684 91.173547 
L 126.26684 91.065329 
L 126.776616 90.253699 
L 126.995091 90.19959 
L 126.995091 90.145482 
L 127.796168 89.333851 
L 127.868993 89.117416 
L 128.087468 89.063308 
L 128.087468 88.95509 
L 129.107021 88.089351 
L 129.616797 87.331829 
L 130.053748 87.223612 
L 130.053748 87.115394 
L 130.272223 87.007177 
L 130.272223 86.89896 
L 131.947202 85.870894 
L 132.092852 85.870894 
L 132.092852 85.816786 
L 132.238502 85.600351 
L 133.403705 85.275699 
L 133.47653 85.059264 
L 133.549355 85.059264 
L 133.549355 84.951046 
L 134.277607 84.139416 
L 134.496082 84.139416 
L 134.496082 83.922981 
L 134.641733 83.922981 
L 134.641733 83.760655 
L 135.661285 83.219568 
L 135.661285 83.003133 
L 135.952585 83.003133 
L 135.952585 82.894916 
L 136.826487 82.407937 
L 136.899312 82.083285 
L 136.972138 82.083285 
L 136.972138 82.029176 
L 137.700389 81.433981 
L 137.773214 80.892894 
L 137.918865 80.838785 
L 137.918865 80.784676 
L 138.719941 79.81072 
L 139.011242 79.702502 
L 139.011242 79.648394 
L 139.156892 79.648394 
L 139.156892 79.540176 
L 140.24927 78.403894 
L 141.414472 77.646372 
L 141.414472 77.538154 
L 141.632948 77.484046 
L 142.870975 77.159393 
L 142.870975 76.997067 
L 143.089451 76.942959 
L 143.089451 76.88885 
L 144.181828 76.023111 
L 146.730708 74.724502 
L 146.803534 74.508067 
L 147.31331 74.508067 
L 147.31331 74.453958 
L 149.498064 73.750545 
L 149.498064 73.642328 
L 149.57089 73.642328 
L 150.954567 73.047132 
L 150.954567 72.938915 
L 151.100218 72.938915 
L 152.11977 71.856741 
L 154.887126 70.287588 
L 154.887126 70.125262 
L 155.105601 70.017045 
L 155.178427 69.746501 
L 156.270804 69.259523 
L 156.343629 69.043088 
L 156.562104 69.043088 
L 158.091433 68.772545 
L 158.091433 68.610219 
L 158.309908 68.55611 
L 158.309908 68.502001 
L 159.402286 67.906806 
L 159.912062 67.798588 
L 160.858789 67.582153 
L 160.858789 67.473936 
L 161.150089 67.365719 
L 162.169642 67.203393 
L 162.242467 66.87874 
L 164.063096 66.770523 
L 164.135921 66.608197 
L 164.208746 66.608197 
L 164.208746 66.445871 
L 164.500046 66.337653 
L 166.24785 66.06711 
L 167.413053 65.471914 
L 170.253234 64.660284 
L 170.253234 64.606175 
L 170.90866 64.606175 
L 172.219513 64.443849 
L 172.219513 64.281523 
L 173.821666 64.010979 
L 173.894492 63.848653 
L 176.006421 63.686327 
L 177.754225 63.307566 
L 178.700952 62.928805 
L 178.919427 62.928805 
L 178.919427 62.874696 
L 180.23028 62.658262 
L 180.303105 62.495936 
L 180.448756 62.387718 
L 180.521581 62.225392 
L 182.997636 61.521979 
L 182.997636 61.305544 
L 183.143286 61.305544 
L 184.162839 60.926783 
L 191.008403 60.548022 
L 191.008403 60.439805 
L 191.299704 60.331588 
L 191.299704 60.277479 
L 191.445354 60.277479 
L 191.445354 60.115153 
L 191.518179 60.115153 
L 195.377913 59.249414 
L 196.178989 59.195305 
L 196.178989 59.141196 
L 197.926793 59.032979 
L 198.946345 58.708327 
L 199.01917 58.491892 
L 200.694149 58.221348 
L 203.097379 58.004913 
L 203.170204 57.896696 
L 203.53433 57.896696 
L 203.607155 57.680261 
L 205.209309 57.572044 
L 205.209309 57.517935 
L 207.248413 57.463826 
L 207.248413 57.355609 
L 209.870119 57.247392 
L 209.870119 57.193283 
L 211.763573 57.139174 
L 211.763573 57.030957 
L 214.458104 56.922739 
L 222.541696 56.381652 
L 224.362325 56.327544 
L 224.362325 56.219326 
L 226.110128 56.111109 
L 226.110128 56.057 
L 230.698113 55.948783 
L 230.698113 55.894674 
L 242.714264 55.353587 
L 246.428347 55.24537 
L 246.501172 55.191261 
L 247.447899 55.083044 
L 255.604317 54.8125 
L 261.139029 54.704283 
L 262.449881 54.541957 
L 262.449881 54.433739 
L 271.698676 54.325522 
L 271.698676 54.271413 
L 278.835541 54.163196 
L 279.272492 54.109087 
L 296.75053 54.00087 
L 296.75053 53.946761 
L 314.082917 53.838544 
L 322.384985 53.784435 
L 352.097648 53.676217 
L 361.200793 53.568 
L 398.487273 53.568 
L 398.487273 53.568 
" clip-path="url(#p8be34d7fa0)" style="fill: none; stroke: #ff7f0e; stroke-width: 1.5; stroke-linecap: round"/>
            </g>
            <g id="patch_3">
                <path d="M 57.6 307.584
L 57.6 41.472 
" style="fill: none"/>
            </g>
            <g id="patch_4">
                <path d="M 414.72 307.584
L 414.72 41.472 
" style="fill: none"/>
            </g>
            <g id="patch_5">
                <path d="M 57.6 307.584
L 414.72 307.584 
" style="fill: none"/>
            </g>
            <g id="patch_6">
                <path d="M 57.6 41.472
L 414.72 41.472 
" style="fill: none"/>
            </g>
            <g id="legend_1">
                <g id="line2d_27">
                    <path d="M 116.1825 278.687125
L 126.1825 278.687125 
L 136.1825 278.687125 
" style="fill: none; stroke: #1f77b4; stroke-width: 1.5; stroke-linecap: round"/>
                </g>
                <g id="text_13">
                    <!-- Random Forest with uni-grams, auc=0.8455308769670532 -->
                    <g style="fill: #262626" transform="translate(144.1825 282.187125) scale(0.1 -0.1)">
                        <defs>
                            <path id="ArialMT-52" d="M 503 0
L 503 4581 
L 2534 4581 
Q 3147 4581 3465 4457 
Q 3784 4334 3975 4021 
Q 4166 3709 4166 3331 
Q 4166 2844 3850 2509 
Q 3534 2175 2875 2084 
Q 3116 1969 3241 1856 
Q 3506 1613 3744 1247 
L 4541 0 
L 3778 0 
L 3172 953 
Q 2906 1366 2734 1584 
Q 2563 1803 2427 1890 
Q 2291 1978 2150 2013 
Q 2047 2034 1813 2034 
L 1109 2034 
L 1109 0 
L 503 0 
z
M 1109 2559 
L 2413 2559 
Q 2828 2559 3062 2645 
Q 3297 2731 3419 2920 
Q 3541 3109 3541 3331 
Q 3541 3656 3305 3865 
Q 3069 4075 2559 4075 
L 1109 4075 
L 1109 2559 
z
" transform="scale(0.015625)"/>
                            <path id="ArialMT-61" d="M 2588 409
Q 2275 144 1986 34 
Q 1697 -75 1366 -75 
Q 819 -75 525 192 
Q 231 459 231 875 
Q 231 1119 342 1320 
Q 453 1522 633 1644 
Q 813 1766 1038 1828 
Q 1203 1872 1538 1913 
Q 2219 1994 2541 2106 
Q 2544 2222 2544 2253 
Q 2544 2597 2384 2738 
Q 2169 2928 1744 2928 
Q 1347 2928 1158 2789 
Q 969 2650 878 2297 
L 328 2372 
Q 403 2725 575 2942 
Q 747 3159 1072 3276 
Q 1397 3394 1825 3394 
Q 2250 3394 2515 3294 
Q 2781 3194 2906 3042 
Q 3031 2891 3081 2659 
Q 3109 2516 3109 2141 
L 3109 1391 
Q 3109 606 3145 398 
Q 3181 191 3288 0 
L 2700 0 
Q 2613 175 2588 409 
z
M 2541 1666 
Q 2234 1541 1622 1453 
Q 1275 1403 1131 1340 
Q 988 1278 909 1158 
Q 831 1038 831 891 
Q 831 666 1001 516 
Q 1172 366 1500 366 
Q 1825 366 2078 508 
Q 2331 650 2450 897 
Q 2541 1088 2541 1459 
L 2541 1666 
z
" transform="scale(0.015625)"/>
                            <path id="ArialMT-6e" d="M 422 0
L 422 3319 
L 928 3319 
L 928 2847 
Q 1294 3394 1984 3394 
Q 2284 3394 2536 3286 
Q 2788 3178 2913 3003 
Q 3038 2828 3088 2588 
Q 3119 2431 3119 2041 
L 3119 0 
L 2556 0 
L 2556 2019 
Q 2556 2363 2490 2533 
Q 2425 2703 2258 2804 
Q 2091 2906 1866 2906 
Q 1506 2906 1245 2678 
Q 984 2450 984 1813 
L 984 0 
L 422 0 
z
" transform="scale(0.015625)"/>
                            <path id="ArialMT-64" d="M 2575 0
L 2575 419 
Q 2259 -75 1647 -75 
Q 1250 -75 917 144 
Q 584 363 401 755 
Q 219 1147 219 1656 
Q 219 2153 384 2558 
Q 550 2963 881 3178 
Q 1213 3394 1622 3394 
Q 1922 3394 2156 3267 
Q 2391 3141 2538 2938 
L 2538 4581 
L 3097 4581 
L 3097 0 
L 2575 0 
z
M 797 1656 
Q 797 1019 1065 703 
Q 1334 388 1700 388 
Q 2069 388 2326 689 
Q 2584 991 2584 1609 
Q 2584 2291 2321 2609 
Q 2059 2928 1675 2928 
Q 1300 2928 1048 2622 
Q 797 2316 797 1656 
z
" transform="scale(0.015625)"/>
                            <path id="ArialMT-6f" d="M 213 1659
Q 213 2581 725 3025 
Q 1153 3394 1769 3394 
Q 2453 3394 2887 2945 
Q 3322 2497 3322 1706 
Q 3322 1066 3130 698 
Q 2938 331 2570 128 
Q 2203 -75 1769 -75 
Q 1072 -75 642 372 
Q 213 819 213 1659 
z
M 791 1659 
Q 791 1022 1069 705 
Q 1347 388 1769 388 
Q 2188 388 2466 706 
Q 2744 1025 2744 1678 
Q 2744 2294 2464 2611 
Q 2184 2928 1769 2928 
Q 1347 2928 1069 2612 
Q 791 2297 791 1659 
z
" transform="scale(0.015625)"/>
                            <path id="ArialMT-6d" d="M 422 0
L 422 3319 
L 925 3319 
L 925 2853 
Q 1081 3097 1340 3245 
Q 1600 3394 1931 3394 
Q 2300 3394 2536 3241 
Q 2772 3088 2869 2813 
Q 3263 3394 3894 3394 
Q 4388 3394 4653 3120 
Q 4919 2847 4919 2278 
L 4919 0 
L 4359 0 
L 4359 2091 
Q 4359 2428 4304 2576 
Q 4250 2725 4106 2815 
Q 3963 2906 3769 2906 
Q 3419 2906 3187 2673 
Q 2956 2441 2956 1928 
L 2956 0 
L 2394 0 
L 2394 2156 
Q 2394 2531 2256 2718 
Q 2119 2906 1806 2906 
Q 1569 2906 1367 2781 
Q 1166 2656 1075 2415 
Q 984 2175 984 1722 
L 984 0 
L 422 0 
z
" transform="scale(0.015625)"/>
                            <path id="ArialMT-20" transform="scale(0.015625)"/>
                            <path id="ArialMT-46" d="M 525 0
L 525 4581 
L 3616 4581 
L 3616 4041 
L 1131 4041 
L 1131 2622 
L 3281 2622 
L 3281 2081 
L 1131 2081 
L 1131 0 
L 525 0 
z
" transform="scale(0.015625)"/>
                            <path id="ArialMT-72" d="M 416 0
L 416 3319 
L 922 3319 
L 922 2816 
Q 1116 3169 1280 3281 
Q 1444 3394 1641 3394 
Q 1925 3394 2219 3213 
L 2025 2691 
Q 1819 2813 1613 2813 
Q 1428 2813 1281 2702 
Q 1134 2591 1072 2394 
Q 978 2094 978 1738 
L 978 0 
L 416 0 
z
" transform="scale(0.015625)"/>
                            <path id="ArialMT-65" d="M 2694 1069
L 3275 997 
Q 3138 488 2766 206 
Q 2394 -75 1816 -75 
Q 1088 -75 661 373 
Q 234 822 234 1631 
Q 234 2469 665 2931 
Q 1097 3394 1784 3394 
Q 2450 3394 2872 2941 
Q 3294 2488 3294 1666 
Q 3294 1616 3291 1516 
L 816 1516 
Q 847 969 1125 678 
Q 1403 388 1819 388 
Q 2128 388 2347 550 
Q 2566 713 2694 1069 
z
M 847 1978 
L 2700 1978 
Q 2663 2397 2488 2606 
Q 2219 2931 1791 2931 
Q 1403 2931 1139 2672 
Q 875 2413 847 1978 
z
" transform="scale(0.015625)"/>
                            <path id="ArialMT-73" d="M 197 991
L 753 1078 
Q 800 744 1014 566 
Q 1228 388 1613 388 
Q 2000 388 2187 545 
Q 2375 703 2375 916 
Q 2375 1106 2209 1216 
Q 2094 1291 1634 1406 
Q 1016 1563 777 1677 
Q 538 1791 414 1992 
Q 291 2194 291 2438 
Q 291 2659 392 2848 
Q 494 3038 669 3163 
Q 800 3259 1026 3326 
Q 1253 3394 1513 3394 
Q 1903 3394 2198 3281 
Q 2494 3169 2634 2976 
Q 2775 2784 2828 2463 
L 2278 2388 
Q 2241 2644 2061 2787 
Q 1881 2931 1553 2931 
Q 1166 2931 1000 2803 
Q 834 2675 834 2503 
Q 834 2394 903 2306 
Q 972 2216 1119 2156 
Q 1203 2125 1616 2013 
Q 2213 1853 2448 1751 
Q 2684 1650 2818 1456 
Q 2953 1263 2953 975 
Q 2953 694 2789 445 
Q 2625 197 2315 61 
Q 2006 -75 1616 -75 
Q 969 -75 630 194 
Q 291 463 197 991 
z
" transform="scale(0.015625)"/>
                            <path id="ArialMT-74" d="M 1650 503
L 1731 6 
Q 1494 -44 1306 -44 
Q 1000 -44 831 53 
Q 663 150 594 308 
Q 525 466 525 972 
L 525 2881 
L 113 2881 
L 113 3319 
L 525 3319 
L 525 4141 
L 1084 4478 
L 1084 3319 
L 1650 3319 
L 1650 2881 
L 1084 2881 
L 1084 941 
Q 1084 700 1114 631 
Q 1144 563 1211 522 
Q 1278 481 1403 481 
Q 1497 481 1650 503 
z
" transform="scale(0.015625)"/>
                            <path id="ArialMT-77" d="M 1034 0
L 19 3319 
L 600 3319 
L 1128 1403 
L 1325 691 
Q 1338 744 1497 1375 
L 2025 3319 
L 2603 3319 
L 3100 1394 
L 3266 759 
L 3456 1400 
L 4025 3319 
L 4572 3319 
L 3534 0 
L 2950 0 
L 2422 1988 
L 2294 2553 
L 1622 0 
L 1034 0 
z
" transform="scale(0.015625)"/>
                            <path id="ArialMT-69" d="M 425 3934
L 425 4581 
L 988 4581 
L 988 3934 
L 425 3934 
z
M 425 0 
L 425 3319 
L 988 3319 
L 988 0 
L 425 0 
z
" transform="scale(0.015625)"/>
                            <path id="ArialMT-68" d="M 422 0
L 422 4581 
L 984 4581 
L 984 2938 
Q 1378 3394 1978 3394 
Q 2347 3394 2619 3248 
Q 2891 3103 3008 2847 
Q 3125 2591 3125 2103 
L 3125 0 
L 2563 0 
L 2563 2103 
Q 2563 2525 2380 2717 
Q 2197 2909 1863 2909 
Q 1613 2909 1392 2779 
Q 1172 2650 1078 2428 
Q 984 2206 984 1816 
L 984 0 
L 422 0 
z
" transform="scale(0.015625)"/>
                            <path id="ArialMT-75" d="M 2597 0
L 2597 488 
Q 2209 -75 1544 -75 
Q 1250 -75 995 37 
Q 741 150 617 320 
Q 494 491 444 738 
Q 409 903 409 1263 
L 409 3319 
L 972 3319 
L 972 1478 
Q 972 1038 1006 884 
Q 1059 663 1231 536 
Q 1403 409 1656 409 
Q 1909 409 2131 539 
Q 2353 669 2445 892 
Q 2538 1116 2538 1541 
L 2538 3319 
L 3100 3319 
L 3100 0 
L 2597 0 
z
" transform="scale(0.015625)"/>
                            <path id="ArialMT-2d" d="M 203 1375
L 203 1941 
L 1931 1941 
L 1931 1375 
L 203 1375 
z
" transform="scale(0.015625)"/>
                            <path id="ArialMT-67" d="M 319 -275
L 866 -356 
Q 900 -609 1056 -725 
Q 1266 -881 1628 -881 
Q 2019 -881 2231 -725 
Q 2444 -569 2519 -288 
Q 2563 -116 2559 434 
Q 2191 0 1641 0 
Q 956 0 581 494 
Q 206 988 206 1678 
Q 206 2153 378 2554 
Q 550 2956 876 3175 
Q 1203 3394 1644 3394 
Q 2231 3394 2613 2919 
L 2613 3319 
L 3131 3319 
L 3131 450 
Q 3131 -325 2973 -648 
Q 2816 -972 2473 -1159 
Q 2131 -1347 1631 -1347 
Q 1038 -1347 672 -1080 
Q 306 -813 319 -275 
z
M 784 1719 
Q 784 1066 1043 766 
Q 1303 466 1694 466 
Q 2081 466 2343 764 
Q 2606 1063 2606 1700 
Q 2606 2309 2336 2618 
Q 2066 2928 1684 2928 
Q 1309 2928 1046 2623 
Q 784 2319 784 1719 
z
" transform="scale(0.015625)"/>
                            <path id="ArialMT-2c" d="M 569 0
L 569 641 
L 1209 641 
L 1209 0 
Q 1209 -353 1084 -570 
Q 959 -788 688 -906 
L 531 -666 
Q 709 -588 793 -436 
Q 878 -284 888 0 
L 569 0 
z
" transform="scale(0.015625)"/>
                            <path id="ArialMT-63" d="M 2588 1216
L 3141 1144 
Q 3050 572 2676 248 
Q 2303 -75 1759 -75 
Q 1078 -75 664 370 
Q 250 816 250 1647 
Q 250 2184 428 2587 
Q 606 2991 970 3192 
Q 1334 3394 1763 3394 
Q 2303 3394 2647 3120 
Q 2991 2847 3088 2344 
L 2541 2259 
Q 2463 2594 2264 2762 
Q 2066 2931 1784 2931 
Q 1359 2931 1093 2626 
Q 828 2322 828 1663 
Q 828 994 1084 691 
Q 1341 388 1753 388 
Q 2084 388 2306 591 
Q 2528 794 2588 1216 
z
" transform="scale(0.015625)"/>
                            <path id="ArialMT-3d" d="M 3381 2694
L 356 2694 
L 356 3219 
L 3381 3219 
L 3381 2694 
z
M 3381 1303 
L 356 1303 
L 356 1828 
L 3381 1828 
L 3381 1303 
z
" transform="scale(0.015625)"/>
                            <path id="ArialMT-35" d="M 266 1200
L 856 1250 
Q 922 819 1161 601 
Q 1400 384 1738 384 
Q 2144 384 2425 690 
Q 2706 997 2706 1503 
Q 2706 1984 2436 2262 
Q 2166 2541 1728 2541 
Q 1456 2541 1237 2417 
Q 1019 2294 894 2097 
L 366 2166 
L 809 4519 
L 3088 4519 
L 3088 3981 
L 1259 3981 
L 1013 2750 
Q 1425 3038 1878 3038 
Q 2478 3038 2890 2622 
Q 3303 2206 3303 1553 
Q 3303 931 2941 478 
Q 2500 -78 1738 -78 
Q 1113 -78 717 272 
Q 322 622 266 1200 
z
" transform="scale(0.015625)"/>
                            <path id="ArialMT-33" d="M 269 1209
L 831 1284 
Q 928 806 1161 595 
Q 1394 384 1728 384 
Q 2125 384 2398 659 
Q 2672 934 2672 1341 
Q 2672 1728 2419 1979 
Q 2166 2231 1775 2231 
Q 1616 2231 1378 2169 
L 1441 2663 
Q 1497 2656 1531 2656 
Q 1891 2656 2178 2843 
Q 2466 3031 2466 3422 
Q 2466 3731 2256 3934 
Q 2047 4138 1716 4138 
Q 1388 4138 1169 3931 
Q 950 3725 888 3313 
L 325 3413 
Q 428 3978 793 4289 
Q 1159 4600 1703 4600 
Q 2078 4600 2393 4439 
Q 2709 4278 2876 4000 
Q 3044 3722 3044 3409 
Q 3044 3113 2884 2869 
Q 2725 2625 2413 2481 
Q 2819 2388 3044 2092 
Q 3269 1797 3269 1353 
Q 3269 753 2831 336 
Q 2394 -81 1725 -81 
Q 1122 -81 723 278 
Q 325 638 269 1209 
z
" transform="scale(0.015625)"/>
                            <path id="ArialMT-37" d="M 303 3981
L 303 4522 
L 3269 4522 
L 3269 4084 
Q 2831 3619 2401 2847 
Q 1972 2075 1738 1259 
Q 1569 684 1522 0 
L 944 0 
Q 953 541 1156 1306 
Q 1359 2072 1739 2783 
Q 2119 3494 2547 3981 
L 303 3981 
z
" transform="scale(0.015625)"/>
                            <path id="ArialMT-39" d="M 350 1059
L 891 1109 
Q 959 728 1153 556 
Q 1347 384 1650 384 
Q 1909 384 2104 503 
Q 2300 622 2425 820 
Q 2550 1019 2634 1356 
Q 2719 1694 2719 2044 
Q 2719 2081 2716 2156 
Q 2547 1888 2255 1720 
Q 1963 1553 1622 1553 
Q 1053 1553 659 1965 
Q 266 2378 266 3053 
Q 266 3750 677 4175 
Q 1088 4600 1706 4600 
Q 2153 4600 2523 4359 
Q 2894 4119 3086 3673 
Q 3278 3228 3278 2384 
Q 3278 1506 3087 986 
Q 2897 466 2520 194 
Q 2144 -78 1638 -78 
Q 1100 -78 759 220 
Q 419 519 350 1059 
z
M 2653 3081 
Q 2653 3566 2395 3850 
Q 2138 4134 1775 4134 
Q 1400 4134 1122 3828 
Q 844 3522 844 3034 
Q 844 2597 1108 2323 
Q 1372 2050 1759 2050 
Q 2150 2050 2401 2323 
Q 2653 2597 2653 3081 
z
" transform="scale(0.015625)"/>
                        </defs>
                        <use xlink:href="#ArialMT-52"/>
                        <use xlink:href="#ArialMT-61" x="72.216797"/>
                        <use xlink:href="#ArialMT-6e" x="127.832031"/>
                        <use xlink:href="#ArialMT-64" x="183.447266"/>
                        <use xlink:href="#ArialMT-6f" x="239.0625"/>
                        <use xlink:href="#ArialMT-6d" x="294.677734"/>
                        <use xlink:href="#ArialMT-20" x="377.978516"/>
                        <use xlink:href="#ArialMT-46" x="405.761719"/>
                        <use xlink:href="#ArialMT-6f" x="466.845703"/>
                        <use xlink:href="#ArialMT-72" x="522.460938"/>
                        <use xlink:href="#ArialMT-65" x="555.761719"/>
                        <use xlink:href="#ArialMT-73" x="611.376953"/>
                        <use xlink:href="#ArialMT-74" x="661.376953"/>
                        <use xlink:href="#ArialMT-20" x="689.160156"/>
                        <use xlink:href="#ArialMT-77" x="716.943359"/>
                        <use xlink:href="#ArialMT-69" x="789.160156"/>
                        <use xlink:href="#ArialMT-74" x="811.376953"/>
                        <use xlink:href="#ArialMT-68" x="839.160156"/>
                        <use xlink:href="#ArialMT-20" x="894.775391"/>
                        <use xlink:href="#ArialMT-75" x="922.558594"/>
                        <use xlink:href="#ArialMT-6e" x="978.173828"/>
                        <use xlink:href="#ArialMT-69" x="1033.789062"/>
                        <use xlink:href="#ArialMT-2d" x="1056.005859"/>
                        <use xlink:href="#ArialMT-67" x="1089.306641"/>
                        <use xlink:href="#ArialMT-72" x="1144.921875"/>
                        <use xlink:href="#ArialMT-61" x="1178.222656"/>
                        <use xlink:href="#ArialMT-6d" x="1233.837891"/>
                        <use xlink:href="#ArialMT-73" x="1317.138672"/>
                        <use xlink:href="#ArialMT-2c" x="1367.138672"/>
                        <use xlink:href="#ArialMT-20" x="1394.921875"/>
                        <use xlink:href="#ArialMT-61" x="1422.705078"/>
                        <use xlink:href="#ArialMT-75" x="1478.320312"/>
                        <use xlink:href="#ArialMT-63" x="1533.935547"/>
                        <use xlink:href="#ArialMT-3d" x="1583.935547"/>
                        <use xlink:href="#ArialMT-30" x="1642.333984"/>
                        <use xlink:href="#ArialMT-2e" x="1697.949219"/>
                        <use xlink:href="#ArialMT-38" x="1725.732422"/>
                        <use xlink:href="#ArialMT-34" x="1781.347656"/>
                        <use xlink:href="#ArialMT-35" x="1836.962891"/>
                        <use xlink:href="#ArialMT-35" x="1892.578125"/>
                        <use xlink:href="#ArialMT-33" x="1948.193359"/>
                        <use xlink:href="#ArialMT-30" x="2003.808594"/>
                        <use xlink:href="#ArialMT-38" x="2059.423828"/>
                        <use xlink:href="#ArialMT-37" x="2115.039062"/>
                        <use xlink:href="#ArialMT-36" x="2170.654297"/>
                        <use xlink:href="#ArialMT-39" x="2226.269531"/>
                        <use xlink:href="#ArialMT-36" x="2281.884766"/>
                        <use xlink:href="#ArialMT-37" x="2337.5"/>
                        <use xlink:href="#ArialMT-30" x="2393.115234"/>
                        <use xlink:href="#ArialMT-35" x="2448.730469"/>
                        <use xlink:href="#ArialMT-33" x="2504.345703"/>
                        <use xlink:href="#ArialMT-32" x="2559.960938"/>
                    </g>
                </g>
                <g id="line2d_28">
                    <path d="M 116.1825 292.979312
L 126.1825 292.979312 
L 136.1825 292.979312 
" style="fill: none; stroke: #ff7f0e; stroke-width: 1.5; stroke-linecap: round"/>
                </g>
                <g id="text_14">
                    <!-- Random Forest with bi-grams, auc=0.8429450486907352 -->
                    <g style="fill: #262626" transform="translate(144.1825 296.479312) scale(0.1 -0.1)">
                        <defs>
                            <path id="ArialMT-62" d="M 941 0
L 419 0 
L 419 4581 
L 981 4581 
L 981 2947 
Q 1338 3394 1891 3394 
Q 2197 3394 2470 3270 
Q 2744 3147 2920 2923 
Q 3097 2700 3197 2384 
Q 3297 2069 3297 1709 
Q 3297 856 2875 390 
Q 2453 -75 1863 -75 
Q 1275 -75 941 416 
L 941 0 
z
M 934 1684 
Q 934 1088 1097 822 
Q 1363 388 1816 388 
Q 2184 388 2453 708 
Q 2722 1028 2722 1663 
Q 2722 2313 2464 2622 
Q 2206 2931 1841 2931 
Q 1472 2931 1203 2611 
Q 934 2291 934 1684 
z
" transform="scale(0.015625)"/>
                        </defs>
                        <use xlink:href="#ArialMT-52"/>
                        <use xlink:href="#ArialMT-61" x="72.216797"/>
                        <use xlink:href="#ArialMT-6e" x="127.832031"/>
                        <use xlink:href="#ArialMT-64" x="183.447266"/>
                        <use xlink:href="#ArialMT-6f" x="239.0625"/>
                        <use xlink:href="#ArialMT-6d" x="294.677734"/>
                        <use xlink:href="#ArialMT-20" x="377.978516"/>
                        <use xlink:href="#ArialMT-46" x="405.761719"/>
                        <use xlink:href="#ArialMT-6f" x="466.845703"/>
                        <use xlink:href="#ArialMT-72" x="522.460938"/>
                        <use xlink:href="#ArialMT-65" x="555.761719"/>
                        <use xlink:href="#ArialMT-73" x="611.376953"/>
                        <use xlink:href="#ArialMT-74" x="661.376953"/>
                        <use xlink:href="#ArialMT-20" x="689.160156"/>
                        <use xlink:href="#ArialMT-77" x="716.943359"/>
                        <use xlink:href="#ArialMT-69" x="789.160156"/>
                        <use xlink:href="#ArialMT-74" x="811.376953"/>
                        <use xlink:href="#ArialMT-68" x="839.160156"/>
                        <use xlink:href="#ArialMT-20" x="894.775391"/>
                        <use xlink:href="#ArialMT-62" x="922.558594"/>
                        <use xlink:href="#ArialMT-69" x="978.173828"/>
                        <use xlink:href="#ArialMT-2d" x="1000.390625"/>
                        <use xlink:href="#ArialMT-67" x="1033.691406"/>
                        <use xlink:href="#ArialMT-72" x="1089.306641"/>
                        <use xlink:href="#ArialMT-61" x="1122.607422"/>
                        <use xlink:href="#ArialMT-6d" x="1178.222656"/>
                        <use xlink:href="#ArialMT-73" x="1261.523438"/>
                        <use xlink:href="#ArialMT-2c" x="1311.523438"/>
                        <use xlink:href="#ArialMT-20" x="1339.306641"/>
                        <use xlink:href="#ArialMT-61" x="1367.089844"/>
                        <use xlink:href="#ArialMT-75" x="1422.705078"/>
                        <use xlink:href="#ArialMT-63" x="1478.320312"/>
                        <use xlink:href="#ArialMT-3d" x="1528.320312"/>
                        <use xlink:href="#ArialMT-30" x="1586.71875"/>
                        <use xlink:href="#ArialMT-2e" x="1642.333984"/>
                        <use xlink:href="#ArialMT-38" x="1670.117188"/>
                        <use xlink:href="#ArialMT-34" x="1725.732422"/>
                        <use xlink:href="#ArialMT-32" x="1781.347656"/>
                        <use xlink:href="#ArialMT-39" x="1836.962891"/>
                        <use xlink:href="#ArialMT-34" x="1892.578125"/>
                        <use xlink:href="#ArialMT-35" x="1948.193359"/>
                        <use xlink:href="#ArialMT-30" x="2003.808594"/>
                        <use xlink:href="#ArialMT-34" x="2059.423828"/>
                        <use xlink:href="#ArialMT-38" x="2115.039062"/>
                        <use xlink:href="#ArialMT-36" x="2170.654297"/>
                        <use xlink:href="#ArialMT-39" x="2226.269531"/>
                        <use xlink:href="#ArialMT-30" x="2281.884766"/>
                        <use xlink:href="#ArialMT-37" x="2337.5"/>
                        <use xlink:href="#ArialMT-33" x="2393.115234"/>
                        <use xlink:href="#ArialMT-35" x="2448.730469"/>
                        <use xlink:href="#ArialMT-32" x="2504.345703"/>
                    </g>
                </g>
            </g>
        </g>
    </g>
    <defs>
        <clipPath id="p8be34d7fa0">
            <rect x="57.6" y="41.472" width="357.12" height="266.112"/>
        </clipPath>
    </defs>
</svg>
