<?xml version="1.0" encoding="utf-8" standalone="no"?>
<!DOCTYPE svg PUBLIC "-//W3C//DTD SVG 1.1//EN"
        "http://www.w3.org/Graphics/SVG/1.1/DTD/svg11.dtd">
<svg xmlns:xlink="http://www.w3.org/1999/xlink" width="460.8pt" height="345.6pt" viewBox="0 0 460.8 345.6"
     xmlns="http://www.w3.org/2000/svg" version="1.1">
    <metadata>
        <rdf:RDF xmlns:dc="http://purl.org/dc/elements/1.1/" xmlns:cc="http://creativecommons.org/ns#"
                 xmlns:rdf="http://www.w3.org/1999/02/22-rdf-syntax-ns#">
            <cc:Work>
                <dc:type rdf:resource="http://purl.org/dc/dcmitype/StillImage"/>
                <dc:date>2022-11-18T22:31:44.061551</dc:date>
                <dc:format>image/svg+xml</dc:format>
                <dc:creator>
                    <cc:Agent>
                        <dc:title>Matplotlib v3.6.2, https://matplotlib.org/</dc:title>
                    </cc:Agent>
                </dc:creator>
            </cc:Work>
        </rdf:RDF>
    </metadata>
    <defs>
        <style type="text/css">*{stroke-linejoin: round; stroke-linecap: butt}</style>
    </defs>
    <g id="figure_1">
        <g id="patch_1">
            <path d="M 0 345.6
L 460.8 345.6 
L 460.8 0 
L 0 0 
z
" style="fill: #ffffff"/>
        </g>
        <g id="axes_1">
            <g id="patch_2">
                <path d="M 57.6 307.584
L 414.72 307.584 
L 414.72 41.472 
L 57.6 41.472 
z
" style="fill: #ffffff"/>
            </g>
            <g id="matplotlib.axis_1">
                <g id="xtick_1">
                    <g id="line2d_1">
                        <defs>
                            <path id="m68eae70563" d="M 0 0
L 0 3.5 
" style="stroke: #000000; stroke-width: 0.8"/>
                        </defs>
                        <g>
                            <use xlink:href="#m68eae70563" x="73.832727" y="307.584"
                                 style="stroke: #000000; stroke-width: 0.8"/>
                        </g>
                    </g>
                    <g id="text_1">
                        <!-- 0.0 -->
                        <g transform="translate(65.881165 322.182437) scale(0.1 -0.1)">
                            <defs>
                                <path id="DejaVuSans-30" d="M 2034 4250
Q 1547 4250 1301 3770 
Q 1056 3291 1056 2328 
Q 1056 1369 1301 889 
Q 1547 409 2034 409 
Q 2525 409 2770 889 
Q 3016 1369 3016 2328 
Q 3016 3291 2770 3770 
Q 2525 4250 2034 4250 
z
M 2034 4750 
Q 2819 4750 3233 4129 
Q 3647 3509 3647 2328 
Q 3647 1150 3233 529 
Q 2819 -91 2034 -91 
Q 1250 -91 836 529 
Q 422 1150 422 2328 
Q 422 3509 836 4129 
Q 1250 4750 2034 4750 
z
" transform="scale(0.015625)"/>
                                <path id="DejaVuSans-2e" d="M 684 794
L 1344 794 
L 1344 0 
L 684 0 
L 684 794 
z
" transform="scale(0.015625)"/>
                            </defs>
                            <use xlink:href="#DejaVuSans-30"/>
                            <use xlink:href="#DejaVuSans-2e" x="63.623047"/>
                            <use xlink:href="#DejaVuSans-30" x="95.410156"/>
                        </g>
                    </g>
                </g>
                <g id="xtick_2">
                    <g id="line2d_2">
                        <g>
                            <use xlink:href="#m68eae70563" x="138.763636" y="307.584"
                                 style="stroke: #000000; stroke-width: 0.8"/>
                        </g>
                    </g>
                    <g id="text_2">
                        <!-- 0.2 -->
                        <g transform="translate(130.812074 322.182437) scale(0.1 -0.1)">
                            <defs>
                                <path id="DejaVuSans-32" d="M 1228 531
L 3431 531 
L 3431 0 
L 469 0 
L 469 531 
Q 828 903 1448 1529 
Q 2069 2156 2228 2338 
Q 2531 2678 2651 2914 
Q 2772 3150 2772 3378 
Q 2772 3750 2511 3984 
Q 2250 4219 1831 4219 
Q 1534 4219 1204 4116 
Q 875 4013 500 3803 
L 500 4441 
Q 881 4594 1212 4672 
Q 1544 4750 1819 4750 
Q 2544 4750 2975 4387 
Q 3406 4025 3406 3419 
Q 3406 3131 3298 2873 
Q 3191 2616 2906 2266 
Q 2828 2175 2409 1742 
Q 1991 1309 1228 531 
z
" transform="scale(0.015625)"/>
                            </defs>
                            <use xlink:href="#DejaVuSans-30"/>
                            <use xlink:href="#DejaVuSans-2e" x="63.623047"/>
                            <use xlink:href="#DejaVuSans-32" x="95.410156"/>
                        </g>
                    </g>
                </g>
                <g id="xtick_3">
                    <g id="line2d_3">
                        <g>
                            <use xlink:href="#m68eae70563" x="203.694545" y="307.584"
                                 style="stroke: #000000; stroke-width: 0.8"/>
                        </g>
                    </g>
                    <g id="text_3">
                        <!-- 0.4 -->
                        <g transform="translate(195.742983 322.182437) scale(0.1 -0.1)">
                            <defs>
                                <path id="DejaVuSans-34" d="M 2419 4116
L 825 1625 
L 2419 1625 
L 2419 4116 
z
M 2253 4666 
L 3047 4666 
L 3047 1625 
L 3713 1625 
L 3713 1100 
L 3047 1100 
L 3047 0 
L 2419 0 
L 2419 1100 
L 313 1100 
L 313 1709 
L 2253 4666 
z
" transform="scale(0.015625)"/>
                            </defs>
                            <use xlink:href="#DejaVuSans-30"/>
                            <use xlink:href="#DejaVuSans-2e" x="63.623047"/>
                            <use xlink:href="#DejaVuSans-34" x="95.410156"/>
                        </g>
                    </g>
                </g>
                <g id="xtick_4">
                    <g id="line2d_4">
                        <g>
                            <use xlink:href="#m68eae70563" x="268.625455" y="307.584"
                                 style="stroke: #000000; stroke-width: 0.8"/>
                        </g>
                    </g>
                    <g id="text_4">
                        <!-- 0.6 -->
                        <g transform="translate(260.673892 322.182437) scale(0.1 -0.1)">
                            <defs>
                                <path id="DejaVuSans-36" d="M 2113 2584
Q 1688 2584 1439 2293 
Q 1191 2003 1191 1497 
Q 1191 994 1439 701 
Q 1688 409 2113 409 
Q 2538 409 2786 701 
Q 3034 994 3034 1497 
Q 3034 2003 2786 2293 
Q 2538 2584 2113 2584 
z
M 3366 4563 
L 3366 3988 
Q 3128 4100 2886 4159 
Q 2644 4219 2406 4219 
Q 1781 4219 1451 3797 
Q 1122 3375 1075 2522 
Q 1259 2794 1537 2939 
Q 1816 3084 2150 3084 
Q 2853 3084 3261 2657 
Q 3669 2231 3669 1497 
Q 3669 778 3244 343 
Q 2819 -91 2113 -91 
Q 1303 -91 875 529 
Q 447 1150 447 2328 
Q 447 3434 972 4092 
Q 1497 4750 2381 4750 
Q 2619 4750 2861 4703 
Q 3103 4656 3366 4563 
z
" transform="scale(0.015625)"/>
                            </defs>
                            <use xlink:href="#DejaVuSans-30"/>
                            <use xlink:href="#DejaVuSans-2e" x="63.623047"/>
                            <use xlink:href="#DejaVuSans-36" x="95.410156"/>
                        </g>
                    </g>
                </g>
                <g id="xtick_5">
                    <g id="line2d_5">
                        <g>
                            <use xlink:href="#m68eae70563" x="333.556364" y="307.584"
                                 style="stroke: #000000; stroke-width: 0.8"/>
                        </g>
                    </g>
                    <g id="text_5">
                        <!-- 0.8 -->
                        <g transform="translate(325.604801 322.182437) scale(0.1 -0.1)">
                            <defs>
                                <path id="DejaVuSans-38" d="M 2034 2216
Q 1584 2216 1326 1975 
Q 1069 1734 1069 1313 
Q 1069 891 1326 650 
Q 1584 409 2034 409 
Q 2484 409 2743 651 
Q 3003 894 3003 1313 
Q 3003 1734 2745 1975 
Q 2488 2216 2034 2216 
z
M 1403 2484 
Q 997 2584 770 2862 
Q 544 3141 544 3541 
Q 544 4100 942 4425 
Q 1341 4750 2034 4750 
Q 2731 4750 3128 4425 
Q 3525 4100 3525 3541 
Q 3525 3141 3298 2862 
Q 3072 2584 2669 2484 
Q 3125 2378 3379 2068 
Q 3634 1759 3634 1313 
Q 3634 634 3220 271 
Q 2806 -91 2034 -91 
Q 1263 -91 848 271 
Q 434 634 434 1313 
Q 434 1759 690 2068 
Q 947 2378 1403 2484 
z
M 1172 3481 
Q 1172 3119 1398 2916 
Q 1625 2713 2034 2713 
Q 2441 2713 2670 2916 
Q 2900 3119 2900 3481 
Q 2900 3844 2670 4047 
Q 2441 4250 2034 4250 
Q 1625 4250 1398 4047 
Q 1172 3844 1172 3481 
z
" transform="scale(0.015625)"/>
                            </defs>
                            <use xlink:href="#DejaVuSans-30"/>
                            <use xlink:href="#DejaVuSans-2e" x="63.623047"/>
                            <use xlink:href="#DejaVuSans-38" x="95.410156"/>
                        </g>
                    </g>
                </g>
                <g id="xtick_6">
                    <g id="line2d_6">
                        <g>
                            <use xlink:href="#m68eae70563" x="398.487273" y="307.584"
                                 style="stroke: #000000; stroke-width: 0.8"/>
                        </g>
                    </g>
                    <g id="text_6">
                        <!-- 1.0 -->
                        <g transform="translate(390.53571 322.182437) scale(0.1 -0.1)">
                            <defs>
                                <path id="DejaVuSans-31" d="M 794 531
L 1825 531 
L 1825 4091 
L 703 3866 
L 703 4441 
L 1819 4666 
L 2450 4666 
L 2450 531 
L 3481 531 
L 3481 0 
L 794 0 
L 794 531 
z
" transform="scale(0.015625)"/>
                            </defs>
                            <use xlink:href="#DejaVuSans-31"/>
                            <use xlink:href="#DejaVuSans-2e" x="63.623047"/>
                            <use xlink:href="#DejaVuSans-30" x="95.410156"/>
                        </g>
                    </g>
                </g>
                <g id="text_7">
                    <!-- False Positive Rate (Positive label: 1) -->
                    <g transform="translate(144.794375 335.860562) scale(0.1 -0.1)">
                        <defs>
                            <path id="DejaVuSans-46" d="M 628 4666
L 3309 4666 
L 3309 4134 
L 1259 4134 
L 1259 2759 
L 3109 2759 
L 3109 2228 
L 1259 2228 
L 1259 0 
L 628 0 
L 628 4666 
z
" transform="scale(0.015625)"/>
                            <path id="DejaVuSans-61" d="M 2194 1759
Q 1497 1759 1228 1600 
Q 959 1441 959 1056 
Q 959 750 1161 570 
Q 1363 391 1709 391 
Q 2188 391 2477 730 
Q 2766 1069 2766 1631 
L 2766 1759 
L 2194 1759 
z
M 3341 1997 
L 3341 0 
L 2766 0 
L 2766 531 
Q 2569 213 2275 61 
Q 1981 -91 1556 -91 
Q 1019 -91 701 211 
Q 384 513 384 1019 
Q 384 1609 779 1909 
Q 1175 2209 1959 2209 
L 2766 2209 
L 2766 2266 
Q 2766 2663 2505 2880 
Q 2244 3097 1772 3097 
Q 1472 3097 1187 3025 
Q 903 2953 641 2809 
L 641 3341 
Q 956 3463 1253 3523 
Q 1550 3584 1831 3584 
Q 2591 3584 2966 3190 
Q 3341 2797 3341 1997 
z
" transform="scale(0.015625)"/>
                            <path id="DejaVuSans-6c" d="M 603 4863
L 1178 4863 
L 1178 0 
L 603 0 
L 603 4863 
z
" transform="scale(0.015625)"/>
                            <path id="DejaVuSans-73" d="M 2834 3397
L 2834 2853 
Q 2591 2978 2328 3040 
Q 2066 3103 1784 3103 
Q 1356 3103 1142 2972 
Q 928 2841 928 2578 
Q 928 2378 1081 2264 
Q 1234 2150 1697 2047 
L 1894 2003 
Q 2506 1872 2764 1633 
Q 3022 1394 3022 966 
Q 3022 478 2636 193 
Q 2250 -91 1575 -91 
Q 1294 -91 989 -36 
Q 684 19 347 128 
L 347 722 
Q 666 556 975 473 
Q 1284 391 1588 391 
Q 1994 391 2212 530 
Q 2431 669 2431 922 
Q 2431 1156 2273 1281 
Q 2116 1406 1581 1522 
L 1381 1569 
Q 847 1681 609 1914 
Q 372 2147 372 2553 
Q 372 3047 722 3315 
Q 1072 3584 1716 3584 
Q 2034 3584 2315 3537 
Q 2597 3491 2834 3397 
z
" transform="scale(0.015625)"/>
                            <path id="DejaVuSans-65" d="M 3597 1894
L 3597 1613 
L 953 1613 
Q 991 1019 1311 708 
Q 1631 397 2203 397 
Q 2534 397 2845 478 
Q 3156 559 3463 722 
L 3463 178 
Q 3153 47 2828 -22 
Q 2503 -91 2169 -91 
Q 1331 -91 842 396 
Q 353 884 353 1716 
Q 353 2575 817 3079 
Q 1281 3584 2069 3584 
Q 2775 3584 3186 3129 
Q 3597 2675 3597 1894 
z
M 3022 2063 
Q 3016 2534 2758 2815 
Q 2500 3097 2075 3097 
Q 1594 3097 1305 2825 
Q 1016 2553 972 2059 
L 3022 2063 
z
" transform="scale(0.015625)"/>
                            <path id="DejaVuSans-20" transform="scale(0.015625)"/>
                            <path id="DejaVuSans-50" d="M 1259 4147
L 1259 2394 
L 2053 2394 
Q 2494 2394 2734 2622 
Q 2975 2850 2975 3272 
Q 2975 3691 2734 3919 
Q 2494 4147 2053 4147 
L 1259 4147 
z
M 628 4666 
L 2053 4666 
Q 2838 4666 3239 4311 
Q 3641 3956 3641 3272 
Q 3641 2581 3239 2228 
Q 2838 1875 2053 1875 
L 1259 1875 
L 1259 0 
L 628 0 
L 628 4666 
z
" transform="scale(0.015625)"/>
                            <path id="DejaVuSans-6f" d="M 1959 3097
Q 1497 3097 1228 2736 
Q 959 2375 959 1747 
Q 959 1119 1226 758 
Q 1494 397 1959 397 
Q 2419 397 2687 759 
Q 2956 1122 2956 1747 
Q 2956 2369 2687 2733 
Q 2419 3097 1959 3097 
z
M 1959 3584 
Q 2709 3584 3137 3096 
Q 3566 2609 3566 1747 
Q 3566 888 3137 398 
Q 2709 -91 1959 -91 
Q 1206 -91 779 398 
Q 353 888 353 1747 
Q 353 2609 779 3096 
Q 1206 3584 1959 3584 
z
" transform="scale(0.015625)"/>
                            <path id="DejaVuSans-69" d="M 603 3500
L 1178 3500 
L 1178 0 
L 603 0 
L 603 3500 
z
M 603 4863 
L 1178 4863 
L 1178 4134 
L 603 4134 
L 603 4863 
z
" transform="scale(0.015625)"/>
                            <path id="DejaVuSans-74" d="M 1172 4494
L 1172 3500 
L 2356 3500 
L 2356 3053 
L 1172 3053 
L 1172 1153 
Q 1172 725 1289 603 
Q 1406 481 1766 481 
L 2356 481 
L 2356 0 
L 1766 0 
Q 1100 0 847 248 
Q 594 497 594 1153 
L 594 3053 
L 172 3053 
L 172 3500 
L 594 3500 
L 594 4494 
L 1172 4494 
z
" transform="scale(0.015625)"/>
                            <path id="DejaVuSans-76" d="M 191 3500
L 800 3500 
L 1894 563 
L 2988 3500 
L 3597 3500 
L 2284 0 
L 1503 0 
L 191 3500 
z
" transform="scale(0.015625)"/>
                            <path id="DejaVuSans-52" d="M 2841 2188
Q 3044 2119 3236 1894 
Q 3428 1669 3622 1275 
L 4263 0 
L 3584 0 
L 2988 1197 
Q 2756 1666 2539 1819 
Q 2322 1972 1947 1972 
L 1259 1972 
L 1259 0 
L 628 0 
L 628 4666 
L 2053 4666 
Q 2853 4666 3247 4331 
Q 3641 3997 3641 3322 
Q 3641 2881 3436 2590 
Q 3231 2300 2841 2188 
z
M 1259 4147 
L 1259 2491 
L 2053 2491 
Q 2509 2491 2742 2702 
Q 2975 2913 2975 3322 
Q 2975 3731 2742 3939 
Q 2509 4147 2053 4147 
L 1259 4147 
z
" transform="scale(0.015625)"/>
                            <path id="DejaVuSans-28" d="M 1984 4856
Q 1566 4138 1362 3434 
Q 1159 2731 1159 2009 
Q 1159 1288 1364 580 
Q 1569 -128 1984 -844 
L 1484 -844 
Q 1016 -109 783 600 
Q 550 1309 550 2009 
Q 550 2706 781 3412 
Q 1013 4119 1484 4856 
L 1984 4856 
z
" transform="scale(0.015625)"/>
                            <path id="DejaVuSans-62" d="M 3116 1747
Q 3116 2381 2855 2742 
Q 2594 3103 2138 3103 
Q 1681 3103 1420 2742 
Q 1159 2381 1159 1747 
Q 1159 1113 1420 752 
Q 1681 391 2138 391 
Q 2594 391 2855 752 
Q 3116 1113 3116 1747 
z
M 1159 2969 
Q 1341 3281 1617 3432 
Q 1894 3584 2278 3584 
Q 2916 3584 3314 3078 
Q 3713 2572 3713 1747 
Q 3713 922 3314 415 
Q 2916 -91 2278 -91 
Q 1894 -91 1617 61 
Q 1341 213 1159 525 
L 1159 0 
L 581 0 
L 581 4863 
L 1159 4863 
L 1159 2969 
z
" transform="scale(0.015625)"/>
                            <path id="DejaVuSans-3a" d="M 750 794
L 1409 794 
L 1409 0 
L 750 0 
L 750 794 
z
M 750 3309 
L 1409 3309 
L 1409 2516 
L 750 2516 
L 750 3309 
z
" transform="scale(0.015625)"/>
                            <path id="DejaVuSans-29" d="M 513 4856
L 1013 4856 
Q 1481 4119 1714 3412 
Q 1947 2706 1947 2009 
Q 1947 1309 1714 600 
Q 1481 -109 1013 -844 
L 513 -844 
Q 928 -128 1133 580 
Q 1338 1288 1338 2009 
Q 1338 2731 1133 3434 
Q 928 4138 513 4856 
z
" transform="scale(0.015625)"/>
                        </defs>
                        <use xlink:href="#DejaVuSans-46"/>
                        <use xlink:href="#DejaVuSans-61" x="48.394531"/>
                        <use xlink:href="#DejaVuSans-6c" x="109.673828"/>
                        <use xlink:href="#DejaVuSans-73" x="137.457031"/>
                        <use xlink:href="#DejaVuSans-65" x="189.556641"/>
                        <use xlink:href="#DejaVuSans-20" x="251.080078"/>
                        <use xlink:href="#DejaVuSans-50" x="282.867188"/>
                        <use xlink:href="#DejaVuSans-6f" x="339.544922"/>
                        <use xlink:href="#DejaVuSans-73" x="400.726562"/>
                        <use xlink:href="#DejaVuSans-69" x="452.826172"/>
                        <use xlink:href="#DejaVuSans-74" x="480.609375"/>
                        <use xlink:href="#DejaVuSans-69" x="519.818359"/>
                        <use xlink:href="#DejaVuSans-76" x="547.601562"/>
                        <use xlink:href="#DejaVuSans-65" x="606.78125"/>
                        <use xlink:href="#DejaVuSans-20" x="668.304688"/>
                        <use xlink:href="#DejaVuSans-52" x="700.091797"/>
                        <use xlink:href="#DejaVuSans-61" x="767.324219"/>
                        <use xlink:href="#DejaVuSans-74" x="828.603516"/>
                        <use xlink:href="#DejaVuSans-65" x="867.8125"/>
                        <use xlink:href="#DejaVuSans-20" x="929.335938"/>
                        <use xlink:href="#DejaVuSans-28" x="961.123047"/>
                        <use xlink:href="#DejaVuSans-50" x="1000.136719"/>
                        <use xlink:href="#DejaVuSans-6f" x="1056.814453"/>
                        <use xlink:href="#DejaVuSans-73" x="1117.996094"/>
                        <use xlink:href="#DejaVuSans-69" x="1170.095703"/>
                        <use xlink:href="#DejaVuSans-74" x="1197.878906"/>
                        <use xlink:href="#DejaVuSans-69" x="1237.087891"/>
                        <use xlink:href="#DejaVuSans-76" x="1264.871094"/>
                        <use xlink:href="#DejaVuSans-65" x="1324.050781"/>
                        <use xlink:href="#DejaVuSans-20" x="1385.574219"/>
                        <use xlink:href="#DejaVuSans-6c" x="1417.361328"/>
                        <use xlink:href="#DejaVuSans-61" x="1445.144531"/>
                        <use xlink:href="#DejaVuSans-62" x="1506.423828"/>
                        <use xlink:href="#DejaVuSans-65" x="1569.900391"/>
                        <use xlink:href="#DejaVuSans-6c" x="1631.423828"/>
                        <use xlink:href="#DejaVuSans-3a" x="1659.207031"/>
                        <use xlink:href="#DejaVuSans-20" x="1692.898438"/>
                        <use xlink:href="#DejaVuSans-31" x="1724.685547"/>
                        <use xlink:href="#DejaVuSans-29" x="1788.308594"/>
                    </g>
                </g>
            </g>
            <g id="matplotlib.axis_2">
                <g id="ytick_1">
                    <g id="line2d_7">
                        <defs>
                            <path id="m65e4b81340" d="M 0 0
L -3.5 0 
" style="stroke: #000000; stroke-width: 0.8"/>
                        </defs>
                        <g>
                            <use xlink:href="#m65e4b81340" x="57.6" y="295.488"
                                 style="stroke: #000000; stroke-width: 0.8"/>
                        </g>
                    </g>
                    <g id="text_8">
                        <!-- 0.0 -->
                        <g transform="translate(34.696875 299.287219) scale(0.1 -0.1)">
                            <use xlink:href="#DejaVuSans-30"/>
                            <use xlink:href="#DejaVuSans-2e" x="63.623047"/>
                            <use xlink:href="#DejaVuSans-30" x="95.410156"/>
                        </g>
                    </g>
                </g>
                <g id="ytick_2">
                    <g id="line2d_8">
                        <g>
                            <use xlink:href="#m65e4b81340" x="57.6" y="247.104"
                                 style="stroke: #000000; stroke-width: 0.8"/>
                        </g>
                    </g>
                    <g id="text_9">
                        <!-- 0.2 -->
                        <g transform="translate(34.696875 250.903219) scale(0.1 -0.1)">
                            <use xlink:href="#DejaVuSans-30"/>
                            <use xlink:href="#DejaVuSans-2e" x="63.623047"/>
                            <use xlink:href="#DejaVuSans-32" x="95.410156"/>
                        </g>
                    </g>
                </g>
                <g id="ytick_3">
                    <g id="line2d_9">
                        <g>
                            <use xlink:href="#m65e4b81340" x="57.6" y="198.72"
                                 style="stroke: #000000; stroke-width: 0.8"/>
                        </g>
                    </g>
                    <g id="text_10">
                        <!-- 0.4 -->
                        <g transform="translate(34.696875 202.519219) scale(0.1 -0.1)">
                            <use xlink:href="#DejaVuSans-30"/>
                            <use xlink:href="#DejaVuSans-2e" x="63.623047"/>
                            <use xlink:href="#DejaVuSans-34" x="95.410156"/>
                        </g>
                    </g>
                </g>
                <g id="ytick_4">
                    <g id="line2d_10">
                        <g>
                            <use xlink:href="#m65e4b81340" x="57.6" y="150.336"
                                 style="stroke: #000000; stroke-width: 0.8"/>
                        </g>
                    </g>
                    <g id="text_11">
                        <!-- 0.6 -->
                        <g transform="translate(34.696875 154.135219) scale(0.1 -0.1)">
                            <use xlink:href="#DejaVuSans-30"/>
                            <use xlink:href="#DejaVuSans-2e" x="63.623047"/>
                            <use xlink:href="#DejaVuSans-36" x="95.410156"/>
                        </g>
                    </g>
                </g>
                <g id="ytick_5">
                    <g id="line2d_11">
                        <g>
                            <use xlink:href="#m65e4b81340" x="57.6" y="101.952"
                                 style="stroke: #000000; stroke-width: 0.8"/>
                        </g>
                    </g>
                    <g id="text_12">
                        <!-- 0.8 -->
                        <g transform="translate(34.696875 105.751219) scale(0.1 -0.1)">
                            <use xlink:href="#DejaVuSans-30"/>
                            <use xlink:href="#DejaVuSans-2e" x="63.623047"/>
                            <use xlink:href="#DejaVuSans-38" x="95.410156"/>
                        </g>
                    </g>
                </g>
                <g id="ytick_6">
                    <g id="line2d_12">
                        <g>
                            <use xlink:href="#m65e4b81340" x="57.6" y="53.568"
                                 style="stroke: #000000; stroke-width: 0.8"/>
                        </g>
                    </g>
                    <g id="text_13">
                        <!-- 1.0 -->
                        <g transform="translate(34.696875 57.367219) scale(0.1 -0.1)">
                            <use xlink:href="#DejaVuSans-31"/>
                            <use xlink:href="#DejaVuSans-2e" x="63.623047"/>
                            <use xlink:href="#DejaVuSans-30" x="95.410156"/>
                        </g>
                    </g>
                </g>
                <g id="text_14">
                    <!-- True Positive Rate (Positive label: 1) -->
                    <g transform="translate(28.617187 263.956906) rotate(-90) scale(0.1 -0.1)">
                        <defs>
                            <path id="DejaVuSans-54" d="M -19 4666
L 3928 4666 
L 3928 4134 
L 2272 4134 
L 2272 0 
L 1638 0 
L 1638 4134 
L -19 4134 
L -19 4666 
z
" transform="scale(0.015625)"/>
                            <path id="DejaVuSans-72" d="M 2631 2963
Q 2534 3019 2420 3045 
Q 2306 3072 2169 3072 
Q 1681 3072 1420 2755 
Q 1159 2438 1159 1844 
L 1159 0 
L 581 0 
L 581 3500 
L 1159 3500 
L 1159 2956 
Q 1341 3275 1631 3429 
Q 1922 3584 2338 3584 
Q 2397 3584 2469 3576 
Q 2541 3569 2628 3553 
L 2631 2963 
z
" transform="scale(0.015625)"/>
                            <path id="DejaVuSans-75" d="M 544 1381
L 544 3500 
L 1119 3500 
L 1119 1403 
Q 1119 906 1312 657 
Q 1506 409 1894 409 
Q 2359 409 2629 706 
Q 2900 1003 2900 1516 
L 2900 3500 
L 3475 3500 
L 3475 0 
L 2900 0 
L 2900 538 
Q 2691 219 2414 64 
Q 2138 -91 1772 -91 
Q 1169 -91 856 284 
Q 544 659 544 1381 
z
M 1991 3584 
L 1991 3584 
z
" transform="scale(0.015625)"/>
                        </defs>
                        <use xlink:href="#DejaVuSans-54"/>
                        <use xlink:href="#DejaVuSans-72" x="46.333984"/>
                        <use xlink:href="#DejaVuSans-75" x="87.447266"/>
                        <use xlink:href="#DejaVuSans-65" x="150.826172"/>
                        <use xlink:href="#DejaVuSans-20" x="212.349609"/>
                        <use xlink:href="#DejaVuSans-50" x="244.136719"/>
                        <use xlink:href="#DejaVuSans-6f" x="300.814453"/>
                        <use xlink:href="#DejaVuSans-73" x="361.996094"/>
                        <use xlink:href="#DejaVuSans-69" x="414.095703"/>
                        <use xlink:href="#DejaVuSans-74" x="441.878906"/>
                        <use xlink:href="#DejaVuSans-69" x="481.087891"/>
                        <use xlink:href="#DejaVuSans-76" x="508.871094"/>
                        <use xlink:href="#DejaVuSans-65" x="568.050781"/>
                        <use xlink:href="#DejaVuSans-20" x="629.574219"/>
                        <use xlink:href="#DejaVuSans-52" x="661.361328"/>
                        <use xlink:href="#DejaVuSans-61" x="728.59375"/>
                        <use xlink:href="#DejaVuSans-74" x="789.873047"/>
                        <use xlink:href="#DejaVuSans-65" x="829.082031"/>
                        <use xlink:href="#DejaVuSans-20" x="890.605469"/>
                        <use xlink:href="#DejaVuSans-28" x="922.392578"/>
                        <use xlink:href="#DejaVuSans-50" x="961.40625"/>
                        <use xlink:href="#DejaVuSans-6f" x="1018.083984"/>
                        <use xlink:href="#DejaVuSans-73" x="1079.265625"/>
                        <use xlink:href="#DejaVuSans-69" x="1131.365234"/>
                        <use xlink:href="#DejaVuSans-74" x="1159.148438"/>
                        <use xlink:href="#DejaVuSans-69" x="1198.357422"/>
                        <use xlink:href="#DejaVuSans-76" x="1226.140625"/>
                        <use xlink:href="#DejaVuSans-65" x="1285.320312"/>
                        <use xlink:href="#DejaVuSans-20" x="1346.84375"/>
                        <use xlink:href="#DejaVuSans-6c" x="1378.630859"/>
                        <use xlink:href="#DejaVuSans-61" x="1406.414062"/>
                        <use xlink:href="#DejaVuSans-62" x="1467.693359"/>
                        <use xlink:href="#DejaVuSans-65" x="1531.169922"/>
                        <use xlink:href="#DejaVuSans-6c" x="1592.693359"/>
                        <use xlink:href="#DejaVuSans-3a" x="1620.476562"/>
                        <use xlink:href="#DejaVuSans-20" x="1654.167969"/>
                        <use xlink:href="#DejaVuSans-31" x="1685.955078"/>
                        <use xlink:href="#DejaVuSans-29" x="1749.578125"/>
                    </g>
                </g>
            </g>
            <g id="line2d_13">
                <path d="M 73.832727 295.488
L 73.907053 294.851508 
L 73.981379 294.851508 
L 73.981379 294.745426 
L 74.055704 292.942032 
L 74.13003 292.942032 
L 74.13003 292.83595 
L 74.204356 290.130859 
L 74.278681 290.130859 
L 74.278681 289.016998 
L 74.353007 289.016998 
L 74.427333 289.016998 
L 74.427333 288.910916 
L 74.501658 277.931429 
L 74.575984 277.931429 
L 74.575984 277.878388 
L 74.65031 274.430723 
L 74.724635 274.430723 
L 74.724635 274.324641 
L 74.798961 265.360712 
L 74.873287 264.405974 
L 74.947612 262.549539 
L 75.096264 260.640063 
L 75.170589 257.457603 
L 75.244915 257.457603 
L 75.244915 257.351521 
L 75.319241 254.11602 
L 75.393566 254.11602 
L 75.393566 254.009938 
L 75.542218 253.956897 
L 75.616543 252.206544 
L 75.690869 252.206544 
L 75.690869 252.100462 
L 75.765195 251.623093 
L 75.83952 250.562273 
L 75.913846 248.493674 
L 75.988172 248.493674 
L 75.988172 248.387592 
L 76.062498 246.584198 
L 76.211149 244.727763 
L 76.285475 241.492262 
L 76.582777 238.575007 
L 76.657103 236.029039 
L 76.731429 236.029039 
L 76.731429 235.922957 
L 76.731429 235.498629 
L 76.88008 234.596932 
L 76.954406 229.080668 
L 77.028731 227.224233 
L 77.103057 225.314757 
L 77.251708 223.829609 
L 77.326034 222.132297 
L 77.40036 220.16978 
L 77.40036 219.957616 
L 77.549011 219.055919 
L 77.623337 218.154222 
L 77.697662 218.154222 
L 77.697662 218.04814 
L 77.771988 216.775156 
L 77.846314 216.775156 
L 77.846314 216.669074 
L 77.920639 214.86568 
L 78.143616 214.812639 
L 78.143616 214.759598 
L 78.217942 213.380532 
L 78.292268 213.380532 
L 78.292268 213.27445 
L 78.292268 213.221409 
L 78.440919 213.062286 
L 78.515245 211.895384 
L 78.58957 211.895384 
L 78.58957 211.789302 
L 78.58957 211.099769 
L 78.961199 208.50076 
L 79.035524 207.333858 
L 79.555804 203.514906 
L 79.63013 203.302742 
L 79.778781 202.188881 
L 79.778781 201.870635 
L 80.001758 200.650692 
L 80.076084 200.650692 
L 80.076084 200.597651 
L 80.224735 199.589872 
L 80.299061 198.104724 
L 80.522038 196.778699 
L 80.596364 195.505715 
L 80.670689 195.505715 
L 80.670689 195.399633 
L 80.745015 193.64928 
L 81.488272 189.087754 
L 81.562597 188.398221 
L 82.008551 185.427925 
L 82.231528 185.321843 
L 82.231528 185.003597 
L 82.454505 183.518449 
L 82.90046 182.722834 
L 82.974785 181.874178 
L 83.346414 180.495112 
L 83.420739 179.805579 
L 83.495065 179.805579 
L 83.495065 179.699497 
L 83.569391 178.638677 
L 83.643716 178.638677 
L 83.643716 178.532595 
L 83.643716 178.26739 
L 83.866693 177.577857 
L 83.941019 177.365693 
L 84.015345 177.365693 
L 84.015345 177.259611 
L 84.015345 176.994406 
L 84.312647 176.251832 
L 84.386973 176.251832 
L 84.386973 176.14575 
L 84.386973 175.986627 
L 84.684276 175.244053 
L 84.758601 174.448439 
L 85.055904 173.387619 
L 85.13023 173.387619 
L 85.13023 173.281537 
L 85.13023 173.228496 
L 85.278881 173.069373 
L 85.650509 172.485922 
L 85.724835 172.114635 
L 85.799161 172.114635 
L 85.799161 172.008553 
L 85.873487 170.947733 
L 85.947812 170.947733 
L 85.947812 170.841651 
L 86.096464 170.311241 
L 86.096464 169.568667 
L 86.245115 168.66697 
L 86.319441 168.295683 
L 86.393766 168.295683 
L 86.468092 167.128781 
L 86.988372 166.704453 
L 87.062697 166.492289 
L 87.36 164.42369 
L 87.434326 164.42369 
L 87.434326 164.317608 
L 87.434326 163.946321 
L 87.88028 162.142927 
L 87.954605 161.24123 
L 88.028931 161.24123 
L 88.028931 161.135148 
L 88.028931 160.763861 
L 89.069491 158.323975 
L 89.143816 157.952688 
L 89.218142 157.952688 
L 89.515445 157.422278 
L 89.58977 157.422278 
L 89.58977 157.316196 
L 89.58977 157.210114 
L 90.258701 154.823269 
L 90.333027 153.497244 
L 90.556004 152.913793 
L 90.556004 152.22426 
L 90.704655 151.746891 
L 90.704655 151.322563 
L 91.224935 150.686071 
L 91.299261 150.686071 
L 91.299261 150.579989 
L 91.373586 150.10262 
L 91.670889 149.0418 
L 92.116843 148.670513 
L 92.191169 148.405308 
L 92.265495 148.405308 
L 92.265495 148.299226 
L 92.265495 148.246185 
L 92.785774 147.768816 
L 92.8601 147.238406 
L 92.934426 147.238406 
L 92.934426 147.185365 
L 93.454705 146.336709 
L 93.454705 146.018463 
L 93.603357 145.381971 
L 93.603357 144.692438 
L 93.826334 144.215069 
L 93.826334 143.260331 
L 93.900659 143.260331 
L 94.197962 142.67688 
L 94.197962 142.199511 
L 94.56959 141.191732 
L 94.643916 140.926527 
L 95.015544 140.608281 
L 95.015544 140.290035 
L 95.238521 140.290035 
L 95.238521 140.183953 
L 95.238521 139.971789 
L 95.535824 139.547461 
L 95.684476 139.547461 
L 95.684476 139.441379 
L 95.758801 138.857928 
L 96.204755 138.380559 
L 96.204755 138.009272 
L 96.279081 138.009272 
L 96.427732 137.691026 
L 96.502058 137.478862 
L 96.576384 137.478862 
L 96.576384 137.37278 
L 96.576384 137.319739 
L 96.650709 137.319739 
L 96.725035 137.319739 
L 96.725035 137.213657 
L 96.725035 137.054534 
L 96.873686 136.789329 
L 97.096663 136.152837 
L 97.542617 135.463304 
L 97.616943 134.985935 
L 98.434525 134.296402 
L 98.434525 133.765992 
L 98.88048 133.182541 
L 98.88048 132.917336 
L 99.177782 132.864295 
L 99.177782 132.811254 
L 99.252108 132.493008 
L 99.475085 132.439967 
L 99.846713 132.015639 
L 99.921039 131.273065 
L 100.292667 131.00786 
L 100.366993 130.583532 
L 100.887273 130.106163 
L 100.887273 129.681835 
L 101.184575 129.098384 
L 101.184575 128.780138 
L 101.704855 128.461892 
L 101.779181 127.878441 
L 102.299461 127.188908 
L 102.373786 126.817621 
L 102.596763 126.817621 
L 102.596763 126.711539 
L 102.596763 126.552416 
L 102.894066 125.756801 
L 102.894066 125.332473 
L 103.265694 125.067268 
L 103.34002 124.855104 
L 103.488671 124.749022 
L 103.488671 124.377735 
L 103.562997 124.377735 
L 103.934625 123.953407 
L 104.008951 123.529079 
L 104.380579 122.839546 
L 104.529231 122.839546 
L 104.529231 122.733464 
L 104.900859 122.362177 
L 104.975185 121.99089 
L 105.644116 121.195275 
L 105.718442 121.036152 
L 105.792767 121.036152 
L 105.792767 120.93007 
L 105.792767 120.770947 
L 106.09007 120.293578 
L 106.164396 119.86925 
L 106.461698 119.710127 
L 106.536024 119.604045 
L 106.61035 119.604045 
L 106.61035 119.497963 
L 106.61035 119.073635 
L 107.279281 118.80843 
L 107.353606 118.649307 
L 107.576583 118.649307 
L 107.576583 118.543225 
L 107.576583 118.437143 
L 108.022537 118.224979 
L 108.096863 117.853692 
L 108.542817 117.588487 
L 108.617143 117.270241 
L 108.691469 117.270241 
L 108.691469 117.164159 
L 108.691469 117.111118 
L 108.765794 117.111118 
L 108.84012 117.111118 
L 108.84012 117.005036 
L 108.84012 116.262462 
L 108.914446 116.262462 
L 108.988771 116.262462 
L 108.988771 116.15638 
L 109.063097 115.997257 
L 109.434725 115.519888 
L 109.509051 115.307724 
L 109.880679 114.989478 
L 109.955005 114.087781 
L 110.177982 113.981699 
L 110.623936 113.557371 
L 110.698262 113.345207 
L 110.846913 113.345207 
L 110.846913 113.239125 
L 110.846913 112.97392 
L 110.921239 112.97392 
L 111.292867 112.814797 
L 111.367193 112.231346 
L 111.813147 112.125264 
L 111.887473 111.435731 
L 112.184775 111.117485 
L 112.259101 110.799239 
L 112.407752 110.746198 
L 112.407752 110.693157 
L 112.407752 110.427952 
L 112.928032 110.427952 
L 112.928032 110.32187 
L 113.002358 109.950583 
L 113.29966 109.685378 
L 113.373986 109.526255 
L 113.448312 109.367132 
L 113.448312 109.314091 
L 114.117243 108.995845 
L 114.191568 108.518476 
L 114.265894 108.518476 
L 114.8605 108.147189 
L 114.8605 107.775902 
L 115.678082 107.616779 
L 115.901059 107.351574 
L 115.901059 107.192451 
L 116.56999 107.086369 
L 116.644316 106.768123 
L 116.867293 106.662041 
L 116.867293 106.449877 
L 117.387572 106.290754 
L 117.387572 105.813385 
L 118.205155 105.707303 
L 118.205155 105.282975 
L 118.279481 105.282975 
L 118.353806 105.282975 
L 118.353806 105.176893 
L 118.353806 105.01777 
L 118.948412 104.805606 
L 118.948412 104.434319 
L 119.022737 104.434319 
L 119.617343 104.275196 
L 119.691668 104.116073 
L 119.84032 104.063032 
L 119.84032 104.009991 
L 119.84032 103.903909 
L 119.914645 103.903909 
L 119.988971 103.903909 
L 119.988971 103.797827 
L 119.988971 103.638704 
L 120.211948 103.214376 
L 120.286274 103.002212 
L 120.657902 102.843089 
L 120.732228 102.577884 
L 120.880879 102.524843 
L 120.880879 102.471802 
L 120.880879 102.418761 
L 121.401159 102.259638 
L 121.475485 101.83531 
L 121.698462 101.570105 
L 121.772787 101.570105 
L 121.772787 101.464023 
L 121.847113 101.092736 
L 121.995764 101.092736 
L 121.995764 101.039695 
L 122.218741 100.668408 
L 122.293067 100.031916 
L 122.739021 99.925834 
L 122.813347 99.554547 
L 123.036324 99.501506 
L 123.036324 99.448465 
L 123.110649 99.18326 
L 123.184975 99.18326 
L 123.184975 99.077178 
L 123.184975 99.024137 
L 123.259301 99.024137 
L 123.333626 99.024137 
L 123.853906 98.758932 
L 123.928232 98.65285 
L 124.151209 98.546768 
L 124.225534 98.228522 
L 124.374186 98.228522 
L 124.374186 98.175481 
L 124.968791 97.804194 
L 124.968791 97.698112 
L 125.043117 97.698112 
L 125.563397 97.645071 
L 125.563397 97.59203 
L 125.637722 97.326825 
L 126.52963 96.955538 
L 126.52963 96.902497 
L 126.603956 96.902497 
L 126.826933 96.53121 
L 127.421538 96.319046 
L 127.421538 96.212964 
L 127.495864 96.212964 
L 127.57019 96.212964 
L 127.57019 96.106882 
L 127.644515 95.894718 
L 128.164795 95.629513 
L 128.239121 95.311267 
L 128.313447 95.311267 
L 128.313447 95.205185 
L 128.313447 95.152144 
L 128.536424 94.886939 
L 128.536424 94.833898 
L 128.610749 94.833898 
L 128.833726 94.780857 
L 128.833726 94.727816 
L 128.833726 94.674775 
L 129.131029 94.515652 
L 129.131029 94.40957 
L 129.205355 94.40957 
L 129.874286 94.356529 
L 129.874286 94.303488 
L 129.948611 93.826119 
L 130.022937 93.826119 
L 130.022937 93.720037 
L 130.022937 93.613955 
L 130.468891 93.507873 
L 130.468891 93.454832 
L 130.691868 93.295709 
L 130.691868 93.242668 
L 130.766194 93.242668 
L 131.286474 93.083545 
L 131.286474 92.977463 
L 131.806753 92.81834 
L 131.881079 92.659217 
L 132.401359 92.553135 
L 132.401359 92.447053 
L 132.475684 92.447053 
L 132.772987 92.394012 
L 132.772987 92.340971 
L 133.739221 91.916643 
L 134.2595 91.439274 
L 134.2595 91.22711 
L 134.408152 91.22711 
L 134.408152 91.121028 
L 134.482478 90.802782 
L 135.30006 90.802782 
L 135.30006 90.6967 
L 135.374386 90.325413 
L 135.448711 90.325413 
L 135.448711 90.219331 
L 135.82034 90.007167 
L 135.894665 89.688921 
L 136.266294 89.529798 
L 136.266294 89.423716 
L 136.340619 89.423716 
L 136.489271 89.423716 
L 136.489271 89.317634 
L 136.563596 89.052429 
L 137.00955 89.052429 
L 137.00955 88.946347 
L 137.00955 88.893306 
L 137.306853 88.840265 
L 137.306853 88.787224 
L 137.306853 88.734183 
L 137.381179 88.734183 
L 137.52983 88.734183 
L 138.347413 88.04465 
L 138.793367 88.04465 
L 138.793367 87.938568 
L 138.793367 87.620322 
L 138.867692 87.620322 
L 139.685275 87.51424 
L 139.685275 87.461199 
L 139.7596 87.461199 
L 139.982577 87.408158 
L 139.982577 87.355117 
L 139.982577 87.302076 
L 140.056903 87.302076 
L 140.27988 87.249035 
L 140.27988 87.195994 
L 140.27988 87.142953 
L 140.948811 87.142953 
L 140.948811 87.036871 
L 141.023137 86.824707 
L 141.097463 86.824707 
L 141.097463 86.718625 
L 141.097463 86.665584 
L 141.171788 86.665584 
L 141.617742 86.612543 
L 141.617742 86.559502 
L 141.692068 86.400379 
L 142.063696 86.347338 
L 142.063696 86.294297 
L 142.063696 86.241256 
L 142.658302 86.082133 
L 142.658302 85.976051 
L 142.732627 85.976051 
L 142.955604 85.976051 
L 142.955604 85.869969 
L 143.02993 85.710846 
L 143.104256 85.604764 
L 143.55021 85.445641 
L 143.55021 85.3926 
L 143.624535 85.3926 
L 143.773187 85.286518 
L 143.773187 85.180436 
L 144.219141 85.074354 
L 144.293467 84.968272 
L 144.367792 84.968272 
L 144.367792 84.86219 
L 144.367792 84.703067 
L 144.442118 84.703067 
L 144.813746 84.543944 
L 144.813746 84.278739 
L 144.888072 84.278739 
L 145.036723 84.013534 
L 146.002957 83.748329 
L 146.002957 83.483124 
L 146.151608 83.483124 
L 146.151608 83.377042 
L 146.151608 83.324001 
L 146.746214 83.217919 
L 146.820539 82.687509 
L 147.415145 82.581427 
L 147.415145 82.475345 
L 147.489471 82.475345 
L 147.786773 82.475345 
L 147.786773 82.369263 
L 147.786773 82.316222 
L 148.00975 82.316222 
L 148.00975 82.21014 
L 148.00975 82.051017 
L 148.084076 82.051017 
L 148.455704 81.997976 
L 148.455704 81.944935 
L 148.455704 81.891894 
L 148.53003 81.891894 
L 148.901658 81.785812 
L 148.901658 81.626689 
L 148.975984 81.626689 
L 149.124635 81.520607 
L 149.124635 81.361484 
L 149.198961 81.361484 
L 149.496264 81.255402 
L 149.570589 80.937156 
L 150.388172 80.884115 
L 150.388172 80.831074 
L 150.462498 80.565869 
L 151.28008 80.459787 
L 151.28008 80.406746 
L 151.354406 80.406746 
L 151.80036 80.353705 
L 151.80036 80.300664 
L 151.80036 80.247623 
L 151.874685 80.247623 
L 152.98957 80.194582 
L 152.98957 80.141541 
L 152.98957 80.0885 
L 153.807153 80.035459 
L 153.807153 79.982418 
L 153.881479 79.823295 
L 154.104456 79.823295 
L 154.104456 79.717213 
L 154.104456 79.611131 
L 154.178781 79.611131 
L 154.847712 79.505049 
L 154.847712 79.452008 
L 154.922038 79.452008 
L 155.145015 79.398967 
L 155.145015 79.345926 
L 155.145015 79.239844 
L 155.367992 79.080721 
L 155.442318 78.921598 
L 155.888272 78.815516 
L 155.888272 78.762475 
L 155.962597 78.762475 
L 156.2599 78.656393 
L 156.334226 78.550311 
L 157.374785 78.444229 
L 157.374785 78.391188 
L 157.449111 78.391188 
L 157.820739 78.285106 
L 157.820739 78.232065 
L 158.043716 78.232065 
L 158.043716 78.125983 
L 158.118042 78.019901 
L 158.192368 78.019901 
L 158.192368 77.913819 
L 158.266693 77.754696 
L 159.158601 77.648614 
L 159.232927 77.489491 
L 159.307253 77.489491 
L 159.307253 77.383409 
L 159.307253 77.277327 
L 159.381578 77.277327 
L 159.604555 77.277327 
L 159.604555 77.171245 
L 159.678881 77.012122 
L 159.678881 76.90604 
L 159.753207 76.90604 
L 159.827532 76.90604 
L 159.827532 76.799958 
L 159.827532 76.640835 
L 159.901858 76.640835 
L 160.496464 76.534753 
L 160.496464 76.428671 
L 160.570789 76.428671 
L 160.645115 76.428671 
L 160.645115 76.322589 
L 160.719441 76.163466 
L 161.016743 76.110425 
L 161.016743 76.057384 
L 161.016743 76.004343 
L 161.908651 75.898261 
L 161.908651 75.792179 
L 161.982977 75.792179 
L 162.131628 75.739138 
L 162.131628 75.580015 
L 162.205954 75.580015 
L 162.651908 75.473933 
L 162.726234 75.155687 
L 162.874885 75.102646 
L 162.874885 75.049605 
L 162.874885 74.943523 
L 163.692468 74.837441 
L 163.766793 74.625277 
L 164.212747 74.519195 
L 164.212747 74.307031 
L 164.287073 74.307031 
L 165.401958 74.200949 
L 165.401958 74.147908 
L 165.476284 74.147908 
L 166.368192 74.094867 
L 166.368192 74.041826 
L 166.442517 73.935744 
L 167.111449 73.829662 
L 167.111449 73.72358 
L 167.185774 73.72358 
L 167.78038 73.617498 
L 167.854705 73.352293 
L 168.226334 73.246211 
L 168.226334 73.19317 
L 168.300659 73.19317 
L 168.597962 73.19317 
L 168.597962 73.087088 
L 168.746613 72.981006 
L 168.96959 72.981006 
L 168.96959 72.874924 
L 168.96959 72.821883 
L 169.043916 72.821883 
L 169.266893 72.768842 
L 169.266893 72.715801 
L 169.266893 72.66276 
L 169.341219 72.66276 
L 169.712847 72.503637 
L 169.712847 72.291473 
L 169.787173 72.291473 
L 170.084476 72.185391 
L 170.084476 72.079309 
L 170.158801 72.079309 
L 170.381778 72.026268 
L 170.381778 71.973227 
L 170.456104 71.814104 
L 170.53043 71.814104 
L 170.53043 71.708022 
L 170.53043 71.654981 
L 170.604755 71.654981 
L 171.348012 71.548899 
L 171.348012 71.495858 
L 171.422338 71.495858 
L 172.091269 71.389776 
L 172.165594 71.230653 
L 172.685874 71.124571 
L 172.7602 70.965448 
L 173.057502 70.859366 
L 173.057502 70.806325 
L 174.023736 70.753284 
L 174.023736 70.700243 
L 174.023736 70.54112 
L 175.51025 70.435038 
L 175.584575 70.275915 
L 175.881878 70.222874 
L 175.881878 70.169833 
L 175.956204 70.063751 
L 176.104855 70.063751 
L 176.179181 69.904628 
L 176.996763 69.798546 
L 177.071089 69.639423 
L 177.591369 69.533341 
L 177.665694 69.374218 
L 178.854905 69.268136 
L 178.854905 69.215095 
L 178.929231 69.215095 
L 179.96979 69.109013 
L 179.96979 69.055972 
L 180.044116 69.055972 
L 180.787373 68.94989 
L 180.787373 68.896849 
L 180.861698 68.896849 
L 182.496863 68.790767 
L 182.496863 68.737726 
L 182.571189 68.737726 
L 183.7604 68.631644 
L 183.834725 68.525562 
L 185.246913 68.41948 
L 185.246913 68.366439 
L 185.321239 68.366439 
L 186.584775 68.260357 
L 186.584775 68.207316 
L 186.659101 68.207316 
L 187.105055 68.101234 
L 187.105055 67.995152 
L 187.179381 67.995152 
L 187.922637 67.88907 
L 187.922637 67.782988 
L 187.996963 67.782988 
L 189.334825 67.676906 
L 189.409151 67.570824 
L 190.821339 67.464742 
L 191.564595 67.305619 
L 192.828132 67.199537 
L 192.828132 67.146496 
L 192.902458 67.146496 
L 193.497063 67.040414 
L 193.497063 66.987373 
L 193.571389 66.987373 
L 194.091668 66.987373 
L 194.091668 66.881291 
L 194.091668 66.775209 
L 194.165994 66.775209 
L 194.909251 66.722168 
L 194.909251 66.669127 
L 194.909251 66.563045 
L 195.578182 66.456963 
L 195.578182 66.350881 
L 195.652507 66.350881 
L 196.024136 66.244799 
L 196.024136 66.191758 
L 196.544416 66.191758 
L 196.544416 66.085676 
L 196.544416 66.032635 
L 196.618741 66.032635 
L 199.071489 65.926553 
L 199.071489 65.820471 
L 199.145814 65.820471 
L 199.963397 65.714389 
L 199.963397 65.555266 
L 200.037722 65.555266 
L 200.558002 65.502225 
L 200.558002 65.449184 
L 200.558002 65.290061 
L 200.632328 65.290061 
L 201.226933 65.183979 
L 201.226933 65.130938 
L 201.301259 65.130938 
L 202.267493 65.024856 
L 202.267493 64.918774 
L 202.341818 64.918774 
L 202.862098 64.865733 
L 202.862098 64.812692 
L 202.862098 64.759651 
L 203.456703 64.653569 
L 203.456703 64.547487 
L 203.531029 64.547487 
L 206.058102 64.441405 
L 206.058102 64.388364 
L 206.132428 64.388364 
L 207.024336 64.282282 
L 207.024336 64.229241 
L 207.098661 64.229241 
L 207.618941 64.229241 
L 207.618941 64.123159 
L 207.618941 64.070118 
L 207.693267 64.070118 
L 208.733826 63.964036 
L 208.733826 63.910995 
L 208.808152 63.910995 
L 209.551409 63.804913 
L 209.551409 63.751872 
L 209.625734 63.751872 
L 211.706853 63.64579 
L 211.706853 63.592749 
L 211.781179 63.592749 
L 212.301459 63.486667 
L 212.301459 63.380585 
L 212.375784 63.380585 
L 214.1596 63.274503 
L 214.1596 63.221462 
L 214.233926 63.221462 
L 215.348811 63.11538 
L 215.348811 63.062339 
L 215.423137 63.062339 
L 216.686673 62.956257 
L 216.686673 62.903216 
L 216.760999 62.903216 
L 217.058302 62.797134 
L 217.132627 62.691052 
L 217.875884 62.58497 
L 217.875884 62.531929 
L 217.95021 62.531929 
L 218.247512 62.425847 
L 218.247512 62.319765 
L 218.321838 62.319765 
L 218.842118 62.266724 
L 218.842118 62.213683 
L 218.842118 62.160642 
L 218.916444 62.160642 
L 219.362398 62.05456 
L 219.362398 62.001519 
L 219.436723 62.001519 
L 219.808352 62.001519 
L 219.808352 61.895437 
L 219.808352 61.842396 
L 219.882677 61.842396 
L 220.625934 61.789355 
L 220.625934 61.736314 
L 220.625934 61.683273 
L 220.70026 61.683273 
L 221.815145 61.577191 
L 221.889471 61.471109 
L 223.153007 61.418068 
L 223.153007 61.365027 
L 223.153007 61.311986 
L 223.227333 61.311986 
L 224.490869 61.205904 
L 224.565195 61.099822 
L 225.085475 60.99374 
L 225.085475 60.940699 
L 225.1598 60.940699 
L 227.240919 60.834617 
L 227.315245 60.728535 
L 227.463896 60.675494 
L 227.463896 60.622453 
L 227.686873 60.569412 
L 228.207153 60.516371 
L 228.207153 60.46333 
L 228.207153 60.410289 
L 228.281479 60.410289 
L 229.099061 60.304207 
L 229.099061 60.251166 
L 229.173387 60.251166 
L 231.403157 60.198125 
L 231.403157 60.145084 
L 231.477483 60.039002 
L 232.741019 59.93292 
L 232.741019 59.879879 
L 232.815345 59.879879 
L 234.970789 59.773797 
L 234.970789 59.720756 
L 235.045115 59.720756 
L 236.903257 59.667715 
L 236.903257 59.614674 
L 236.903257 59.561633 
L 236.977582 59.561633 
L 238.092468 59.455551 
L 238.092468 59.40251 
L 238.166793 59.40251 
L 241.437123 59.296428 
L 241.437123 59.243387 
L 241.511449 59.243387 
L 242.700659 59.190346 
L 242.700659 59.137305 
L 242.700659 59.084264 
L 242.774985 59.084264 
L 244.707453 58.978182 
L 244.707453 58.925141 
L 244.781778 58.925141 
L 245.970989 58.819059 
L 245.970989 58.766018 
L 246.045315 58.766018 
L 247.234525 58.659936 
L 247.234525 58.606895 
L 247.308851 58.606895 
L 249.092667 58.500813 
L 249.092667 58.447772 
L 249.166993 58.447772 
L 249.464296 58.447772 
L 249.464296 58.34169 
L 249.464296 58.288649 
L 249.538621 58.288649 
L 251.025135 58.182567 
L 251.025135 58.129526 
L 251.099461 58.129526 
L 251.545415 58.023444 
L 251.545415 57.970403 
L 251.61974 57.970403 
L 256.376583 57.864321 
L 256.376583 57.81128 
L 256.450909 57.81128 
L 257.64012 57.705198 
L 257.64012 57.652157 
L 257.714446 57.652157 
L 258.829331 57.546075 
L 258.829331 57.493034 
L 258.903656 57.493034 
L 263.957802 57.386952 
L 263.957802 57.28087 
L 264.032128 57.28087 
L 264.924036 57.174788 
L 264.924036 57.121747 
L 264.998362 57.121747 
L 265.89027 57.015665 
L 265.964595 56.909583 
L 267.005155 56.803501 
L 267.005155 56.75046 
L 267.079481 56.75046 
L 267.674086 56.644378 
L 267.897063 56.591337 
L 269.82953 56.485255 
L 269.82953 56.432214 
L 269.903856 56.432214 
L 271.613347 56.326132 
L 271.613347 56.273091 
L 271.687672 56.273091 
L 273.768791 56.167009 
L 273.768791 56.113968 
L 273.843117 56.113968 
L 275.775584 56.007886 
L 275.775584 55.954845 
L 275.84991 55.954845 
L 280.458102 55.901804 
L 280.458102 55.848763 
L 280.458102 55.795722 
L 280.532428 55.795722 
L 284.397363 55.68964 
L 284.397363 55.636599 
L 284.471688 55.636599 
L 286.775784 55.530517 
L 286.775784 55.424435 
L 286.85011 55.424435 
L 290.938022 55.318353 
L 290.938022 55.265312 
L 291.012348 55.265312 
L 295.769191 55.15923 
L 295.769191 55.106189 
L 295.843516 55.106189 
L 303.127433 55.000107 
L 303.127433 54.947066 
L 303.201758 54.947066 
L 312.269491 54.840984 
L 312.269491 54.787943 
L 312.343816 54.787943 
L 319.33043 54.681861 
L 319.627732 54.575779 
L 338.729431 54.469697 
L 338.729431 54.416656 
L 338.803756 54.416656 
L 346.236324 54.310574 
L 346.236324 54.257533 
L 346.310649 54.257533 
L 353.668891 54.151451 
L 353.668891 54.09841 
L 353.743217 54.09841 
L 360.135225 53.992328 
L 360.135225 53.939287 
L 360.20955 53.939287 
L 366.452907 53.833205 
L 366.452907 53.780164 
L 366.527233 53.780164 
L 377.973387 53.674082 
L 377.973387 53.621041 
L 378.047712 53.621041 
L 398.487273 53.568 
L 398.487273 53.568 
" clip-path="url(#pfd6be3ee8e)" style="fill: none; stroke: #1f77b4; stroke-width: 1.5; stroke-linecap: square"/>
            </g>
            <g id="patch_3">
                <path d="M 57.6 307.584
L 57.6 41.472 
" style="fill: none; stroke: #000000; stroke-width: 0.8; stroke-linejoin: miter; stroke-linecap: square"/>
            </g>
            <g id="patch_4">
                <path d="M 414.72 307.584
L 414.72 41.472 
" style="fill: none; stroke: #000000; stroke-width: 0.8; stroke-linejoin: miter; stroke-linecap: square"/>
            </g>
            <g id="patch_5">
                <path d="M 57.6 307.584
L 414.72 307.584 
" style="fill: none; stroke: #000000; stroke-width: 0.8; stroke-linejoin: miter; stroke-linecap: square"/>
            </g>
            <g id="patch_6">
                <path d="M 57.6 41.472
L 414.72 41.472 
" style="fill: none; stroke: #000000; stroke-width: 0.8; stroke-linejoin: miter; stroke-linecap: square"/>
            </g>
            <g id="legend_1">
                <g id="patch_7">
                    <path d="M 267.46375 302.584
L 407.72 302.584 
Q 409.72 302.584 409.72 300.584 
L 409.72 286.905875 
Q 409.72 284.905875 407.72 284.905875 
L 267.46375 284.905875 
Q 265.46375 284.905875 265.46375 286.905875 
L 265.46375 300.584 
Q 265.46375 302.584 267.46375 302.584 
z
" style="fill: #ffffff; opacity: 0.8; stroke: #cccccc; stroke-linejoin: miter"/>
                </g>
                <g id="line2d_14">
                    <path d="M 269.46375 293.004312
L 279.46375 293.004312 
L 289.46375 293.004312 
" style="fill: none; stroke: #1f77b4; stroke-width: 1.5; stroke-linecap: square"/>
                </g>
                <g id="text_15">
                    <!-- Pipeline (AUC = 0.91) -->
                    <g transform="translate(297.46375 296.504312) scale(0.1 -0.1)">
                        <defs>
                            <path id="DejaVuSans-70" d="M 1159 525
L 1159 -1331 
L 581 -1331 
L 581 3500 
L 1159 3500 
L 1159 2969 
Q 1341 3281 1617 3432 
Q 1894 3584 2278 3584 
Q 2916 3584 3314 3078 
Q 3713 2572 3713 1747 
Q 3713 922 3314 415 
Q 2916 -91 2278 -91 
Q 1894 -91 1617 61 
Q 1341 213 1159 525 
z
M 3116 1747 
Q 3116 2381 2855 2742 
Q 2594 3103 2138 3103 
Q 1681 3103 1420 2742 
Q 1159 2381 1159 1747 
Q 1159 1113 1420 752 
Q 1681 391 2138 391 
Q 2594 391 2855 752 
Q 3116 1113 3116 1747 
z
" transform="scale(0.015625)"/>
                            <path id="DejaVuSans-6e" d="M 3513 2113
L 3513 0 
L 2938 0 
L 2938 2094 
Q 2938 2591 2744 2837 
Q 2550 3084 2163 3084 
Q 1697 3084 1428 2787 
Q 1159 2491 1159 1978 
L 1159 0 
L 581 0 
L 581 3500 
L 1159 3500 
L 1159 2956 
Q 1366 3272 1645 3428 
Q 1925 3584 2291 3584 
Q 2894 3584 3203 3211 
Q 3513 2838 3513 2113 
z
" transform="scale(0.015625)"/>
                            <path id="DejaVuSans-41" d="M 2188 4044
L 1331 1722 
L 3047 1722 
L 2188 4044 
z
M 1831 4666 
L 2547 4666 
L 4325 0 
L 3669 0 
L 3244 1197 
L 1141 1197 
L 716 0 
L 50 0 
L 1831 4666 
z
" transform="scale(0.015625)"/>
                            <path id="DejaVuSans-55" d="M 556 4666
L 1191 4666 
L 1191 1831 
Q 1191 1081 1462 751 
Q 1734 422 2344 422 
Q 2950 422 3222 751 
Q 3494 1081 3494 1831 
L 3494 4666 
L 4128 4666 
L 4128 1753 
Q 4128 841 3676 375 
Q 3225 -91 2344 -91 
Q 1459 -91 1007 375 
Q 556 841 556 1753 
L 556 4666 
z
" transform="scale(0.015625)"/>
                            <path id="DejaVuSans-43" d="M 4122 4306
L 4122 3641 
Q 3803 3938 3442 4084 
Q 3081 4231 2675 4231 
Q 1875 4231 1450 3742 
Q 1025 3253 1025 2328 
Q 1025 1406 1450 917 
Q 1875 428 2675 428 
Q 3081 428 3442 575 
Q 3803 722 4122 1019 
L 4122 359 
Q 3791 134 3420 21 
Q 3050 -91 2638 -91 
Q 1578 -91 968 557 
Q 359 1206 359 2328 
Q 359 3453 968 4101 
Q 1578 4750 2638 4750 
Q 3056 4750 3426 4639 
Q 3797 4528 4122 4306 
z
" transform="scale(0.015625)"/>
                            <path id="DejaVuSans-3d" d="M 678 2906
L 4684 2906 
L 4684 2381 
L 678 2381 
L 678 2906 
z
M 678 1631 
L 4684 1631 
L 4684 1100 
L 678 1100 
L 678 1631 
z
" transform="scale(0.015625)"/>
                            <path id="DejaVuSans-39" d="M 703 97
L 703 672 
Q 941 559 1184 500 
Q 1428 441 1663 441 
Q 2288 441 2617 861 
Q 2947 1281 2994 2138 
Q 2813 1869 2534 1725 
Q 2256 1581 1919 1581 
Q 1219 1581 811 2004 
Q 403 2428 403 3163 
Q 403 3881 828 4315 
Q 1253 4750 1959 4750 
Q 2769 4750 3195 4129 
Q 3622 3509 3622 2328 
Q 3622 1225 3098 567 
Q 2575 -91 1691 -91 
Q 1453 -91 1209 -44 
Q 966 3 703 97 
z
M 1959 2075 
Q 2384 2075 2632 2365 
Q 2881 2656 2881 3163 
Q 2881 3666 2632 3958 
Q 2384 4250 1959 4250 
Q 1534 4250 1286 3958 
Q 1038 3666 1038 3163 
Q 1038 2656 1286 2365 
Q 1534 2075 1959 2075 
z
" transform="scale(0.015625)"/>
                        </defs>
                        <use xlink:href="#DejaVuSans-50"/>
                        <use xlink:href="#DejaVuSans-69" x="58.052734"/>
                        <use xlink:href="#DejaVuSans-70" x="85.835938"/>
                        <use xlink:href="#DejaVuSans-65" x="149.3125"/>
                        <use xlink:href="#DejaVuSans-6c" x="210.835938"/>
                        <use xlink:href="#DejaVuSans-69" x="238.619141"/>
                        <use xlink:href="#DejaVuSans-6e" x="266.402344"/>
                        <use xlink:href="#DejaVuSans-65" x="329.78125"/>
                        <use xlink:href="#DejaVuSans-20" x="391.304688"/>
                        <use xlink:href="#DejaVuSans-28" x="423.091797"/>
                        <use xlink:href="#DejaVuSans-41" x="462.105469"/>
                        <use xlink:href="#DejaVuSans-55" x="530.513672"/>
                        <use xlink:href="#DejaVuSans-43" x="603.707031"/>
                        <use xlink:href="#DejaVuSans-20" x="673.53125"/>
                        <use xlink:href="#DejaVuSans-3d" x="705.318359"/>
                        <use xlink:href="#DejaVuSans-20" x="789.107422"/>
                        <use xlink:href="#DejaVuSans-30" x="820.894531"/>
                        <use xlink:href="#DejaVuSans-2e" x="884.517578"/>
                        <use xlink:href="#DejaVuSans-39" x="916.304688"/>
                        <use xlink:href="#DejaVuSans-31" x="979.927734"/>
                        <use xlink:href="#DejaVuSans-29" x="1043.550781"/>
                    </g>
                </g>
            </g>
        </g>
    </g>
    <defs>
        <clipPath id="pfd6be3ee8e">
            <rect x="57.6" y="41.472" width="357.12" height="266.112"/>
        </clipPath>
    </defs>
</svg>
