<?xml version="1.0" encoding="utf-8" standalone="no"?>
<!DOCTYPE svg PUBLIC "-//W3C//DTD SVG 1.1//EN"
        "http://www.w3.org/Graphics/SVG/1.1/DTD/svg11.dtd">
<svg xmlns:xlink="http://www.w3.org/1999/xlink" width="460.8pt" height="345.6pt" viewBox="0 0 460.8 345.6"
     xmlns="http://www.w3.org/2000/svg" version="1.1">
    <metadata>
        <rdf:RDF xmlns:dc="http://purl.org/dc/elements/1.1/" xmlns:cc="http://creativecommons.org/ns#"
                 xmlns:rdf="http://www.w3.org/1999/02/22-rdf-syntax-ns#">
            <cc:Work>
                <dc:type rdf:resource="http://purl.org/dc/dcmitype/StillImage"/>
                <dc:date>2022-11-30T02:09:35.278940</dc:date>
                <dc:format>image/svg+xml</dc:format>
                <dc:creator>
                    <cc:Agent>
                        <dc:title>Matplotlib v3.6.2, https://matplotlib.org/</dc:title>
                    </cc:Agent>
                </dc:creator>
            </cc:Work>
        </rdf:RDF>
    </metadata>
    <defs>
        <style type="text/css">*{stroke-linejoin: round; stroke-linecap: butt}</style>
    </defs>
    <g id="figure_1">
        <g id="patch_1">
            <path d="M 0 345.6
L 460.8 345.6 
L 460.8 0 
L 0 0 
z
" style="fill: #ffffff"/>
        </g>
        <g id="axes_1">
            <g id="patch_2">
                <path d="M 57.6 307.584
L 414.72 307.584 
L 414.72 41.472 
L 57.6 41.472 
z
" style="fill: #ffffff"/>
            </g>
            <g id="matplotlib.axis_1">
                <g id="xtick_1">
                    <g id="line2d_1">
                        <defs>
                            <path id="mc9dd69128f" d="M 0 0
L 0 3.5 
" style="stroke: #000000; stroke-width: 0.8"/>
                        </defs>
                        <g>
                            <use xlink:href="#mc9dd69128f" x="73.832727" y="307.584"
                                 style="stroke: #000000; stroke-width: 0.8"/>
                        </g>
                    </g>
                    <g id="text_1">
                        <!-- 0.0 -->
                        <g transform="translate(65.881165 322.182437) scale(0.1 -0.1)">
                            <defs>
                                <path id="DejaVuSans-30" d="M 2034 4250
Q 1547 4250 1301 3770 
Q 1056 3291 1056 2328 
Q 1056 1369 1301 889 
Q 1547 409 2034 409 
Q 2525 409 2770 889 
Q 3016 1369 3016 2328 
Q 3016 3291 2770 3770 
Q 2525 4250 2034 4250 
z
M 2034 4750 
Q 2819 4750 3233 4129 
Q 3647 3509 3647 2328 
Q 3647 1150 3233 529 
Q 2819 -91 2034 -91 
Q 1250 -91 836 529 
Q 422 1150 422 2328 
Q 422 3509 836 4129 
Q 1250 4750 2034 4750 
z
" transform="scale(0.015625)"/>
                                <path id="DejaVuSans-2e" d="M 684 794
L 1344 794 
L 1344 0 
L 684 0 
L 684 794 
z
" transform="scale(0.015625)"/>
                            </defs>
                            <use xlink:href="#DejaVuSans-30"/>
                            <use xlink:href="#DejaVuSans-2e" x="63.623047"/>
                            <use xlink:href="#DejaVuSans-30" x="95.410156"/>
                        </g>
                    </g>
                </g>
                <g id="xtick_2">
                    <g id="line2d_2">
                        <g>
                            <use xlink:href="#mc9dd69128f" x="138.763636" y="307.584"
                                 style="stroke: #000000; stroke-width: 0.8"/>
                        </g>
                    </g>
                    <g id="text_2">
                        <!-- 0.2 -->
                        <g transform="translate(130.812074 322.182437) scale(0.1 -0.1)">
                            <defs>
                                <path id="DejaVuSans-32" d="M 1228 531
L 3431 531 
L 3431 0 
L 469 0 
L 469 531 
Q 828 903 1448 1529 
Q 2069 2156 2228 2338 
Q 2531 2678 2651 2914 
Q 2772 3150 2772 3378 
Q 2772 3750 2511 3984 
Q 2250 4219 1831 4219 
Q 1534 4219 1204 4116 
Q 875 4013 500 3803 
L 500 4441 
Q 881 4594 1212 4672 
Q 1544 4750 1819 4750 
Q 2544 4750 2975 4387 
Q 3406 4025 3406 3419 
Q 3406 3131 3298 2873 
Q 3191 2616 2906 2266 
Q 2828 2175 2409 1742 
Q 1991 1309 1228 531 
z
" transform="scale(0.015625)"/>
                            </defs>
                            <use xlink:href="#DejaVuSans-30"/>
                            <use xlink:href="#DejaVuSans-2e" x="63.623047"/>
                            <use xlink:href="#DejaVuSans-32" x="95.410156"/>
                        </g>
                    </g>
                </g>
                <g id="xtick_3">
                    <g id="line2d_3">
                        <g>
                            <use xlink:href="#mc9dd69128f" x="203.694545" y="307.584"
                                 style="stroke: #000000; stroke-width: 0.8"/>
                        </g>
                    </g>
                    <g id="text_3">
                        <!-- 0.4 -->
                        <g transform="translate(195.742983 322.182437) scale(0.1 -0.1)">
                            <defs>
                                <path id="DejaVuSans-34" d="M 2419 4116
L 825 1625 
L 2419 1625 
L 2419 4116 
z
M 2253 4666 
L 3047 4666 
L 3047 1625 
L 3713 1625 
L 3713 1100 
L 3047 1100 
L 3047 0 
L 2419 0 
L 2419 1100 
L 313 1100 
L 313 1709 
L 2253 4666 
z
" transform="scale(0.015625)"/>
                            </defs>
                            <use xlink:href="#DejaVuSans-30"/>
                            <use xlink:href="#DejaVuSans-2e" x="63.623047"/>
                            <use xlink:href="#DejaVuSans-34" x="95.410156"/>
                        </g>
                    </g>
                </g>
                <g id="xtick_4">
                    <g id="line2d_4">
                        <g>
                            <use xlink:href="#mc9dd69128f" x="268.625455" y="307.584"
                                 style="stroke: #000000; stroke-width: 0.8"/>
                        </g>
                    </g>
                    <g id="text_4">
                        <!-- 0.6 -->
                        <g transform="translate(260.673892 322.182437) scale(0.1 -0.1)">
                            <defs>
                                <path id="DejaVuSans-36" d="M 2113 2584
Q 1688 2584 1439 2293 
Q 1191 2003 1191 1497 
Q 1191 994 1439 701 
Q 1688 409 2113 409 
Q 2538 409 2786 701 
Q 3034 994 3034 1497 
Q 3034 2003 2786 2293 
Q 2538 2584 2113 2584 
z
M 3366 4563 
L 3366 3988 
Q 3128 4100 2886 4159 
Q 2644 4219 2406 4219 
Q 1781 4219 1451 3797 
Q 1122 3375 1075 2522 
Q 1259 2794 1537 2939 
Q 1816 3084 2150 3084 
Q 2853 3084 3261 2657 
Q 3669 2231 3669 1497 
Q 3669 778 3244 343 
Q 2819 -91 2113 -91 
Q 1303 -91 875 529 
Q 447 1150 447 2328 
Q 447 3434 972 4092 
Q 1497 4750 2381 4750 
Q 2619 4750 2861 4703 
Q 3103 4656 3366 4563 
z
" transform="scale(0.015625)"/>
                            </defs>
                            <use xlink:href="#DejaVuSans-30"/>
                            <use xlink:href="#DejaVuSans-2e" x="63.623047"/>
                            <use xlink:href="#DejaVuSans-36" x="95.410156"/>
                        </g>
                    </g>
                </g>
                <g id="xtick_5">
                    <g id="line2d_5">
                        <g>
                            <use xlink:href="#mc9dd69128f" x="333.556364" y="307.584"
                                 style="stroke: #000000; stroke-width: 0.8"/>
                        </g>
                    </g>
                    <g id="text_5">
                        <!-- 0.8 -->
                        <g transform="translate(325.604801 322.182437) scale(0.1 -0.1)">
                            <defs>
                                <path id="DejaVuSans-38" d="M 2034 2216
Q 1584 2216 1326 1975 
Q 1069 1734 1069 1313 
Q 1069 891 1326 650 
Q 1584 409 2034 409 
Q 2484 409 2743 651 
Q 3003 894 3003 1313 
Q 3003 1734 2745 1975 
Q 2488 2216 2034 2216 
z
M 1403 2484 
Q 997 2584 770 2862 
Q 544 3141 544 3541 
Q 544 4100 942 4425 
Q 1341 4750 2034 4750 
Q 2731 4750 3128 4425 
Q 3525 4100 3525 3541 
Q 3525 3141 3298 2862 
Q 3072 2584 2669 2484 
Q 3125 2378 3379 2068 
Q 3634 1759 3634 1313 
Q 3634 634 3220 271 
Q 2806 -91 2034 -91 
Q 1263 -91 848 271 
Q 434 634 434 1313 
Q 434 1759 690 2068 
Q 947 2378 1403 2484 
z
M 1172 3481 
Q 1172 3119 1398 2916 
Q 1625 2713 2034 2713 
Q 2441 2713 2670 2916 
Q 2900 3119 2900 3481 
Q 2900 3844 2670 4047 
Q 2441 4250 2034 4250 
Q 1625 4250 1398 4047 
Q 1172 3844 1172 3481 
z
" transform="scale(0.015625)"/>
                            </defs>
                            <use xlink:href="#DejaVuSans-30"/>
                            <use xlink:href="#DejaVuSans-2e" x="63.623047"/>
                            <use xlink:href="#DejaVuSans-38" x="95.410156"/>
                        </g>
                    </g>
                </g>
                <g id="xtick_6">
                    <g id="line2d_6">
                        <g>
                            <use xlink:href="#mc9dd69128f" x="398.487273" y="307.584"
                                 style="stroke: #000000; stroke-width: 0.8"/>
                        </g>
                    </g>
                    <g id="text_6">
                        <!-- 1.0 -->
                        <g transform="translate(390.53571 322.182437) scale(0.1 -0.1)">
                            <defs>
                                <path id="DejaVuSans-31" d="M 794 531
L 1825 531 
L 1825 4091 
L 703 3866 
L 703 4441 
L 1819 4666 
L 2450 4666 
L 2450 531 
L 3481 531 
L 3481 0 
L 794 0 
L 794 531 
z
" transform="scale(0.015625)"/>
                            </defs>
                            <use xlink:href="#DejaVuSans-31"/>
                            <use xlink:href="#DejaVuSans-2e" x="63.623047"/>
                            <use xlink:href="#DejaVuSans-30" x="95.410156"/>
                        </g>
                    </g>
                </g>
                <g id="text_7">
                    <!-- False Positive Rate -->
                    <g transform="translate(189.693594 335.860562) scale(0.1 -0.1)">
                        <defs>
                            <path id="DejaVuSans-46" d="M 628 4666
L 3309 4666 
L 3309 4134 
L 1259 4134 
L 1259 2759 
L 3109 2759 
L 3109 2228 
L 1259 2228 
L 1259 0 
L 628 0 
L 628 4666 
z
" transform="scale(0.015625)"/>
                            <path id="DejaVuSans-61" d="M 2194 1759
Q 1497 1759 1228 1600 
Q 959 1441 959 1056 
Q 959 750 1161 570 
Q 1363 391 1709 391 
Q 2188 391 2477 730 
Q 2766 1069 2766 1631 
L 2766 1759 
L 2194 1759 
z
M 3341 1997 
L 3341 0 
L 2766 0 
L 2766 531 
Q 2569 213 2275 61 
Q 1981 -91 1556 -91 
Q 1019 -91 701 211 
Q 384 513 384 1019 
Q 384 1609 779 1909 
Q 1175 2209 1959 2209 
L 2766 2209 
L 2766 2266 
Q 2766 2663 2505 2880 
Q 2244 3097 1772 3097 
Q 1472 3097 1187 3025 
Q 903 2953 641 2809 
L 641 3341 
Q 956 3463 1253 3523 
Q 1550 3584 1831 3584 
Q 2591 3584 2966 3190 
Q 3341 2797 3341 1997 
z
" transform="scale(0.015625)"/>
                            <path id="DejaVuSans-6c" d="M 603 4863
L 1178 4863 
L 1178 0 
L 603 0 
L 603 4863 
z
" transform="scale(0.015625)"/>
                            <path id="DejaVuSans-73" d="M 2834 3397
L 2834 2853 
Q 2591 2978 2328 3040 
Q 2066 3103 1784 3103 
Q 1356 3103 1142 2972 
Q 928 2841 928 2578 
Q 928 2378 1081 2264 
Q 1234 2150 1697 2047 
L 1894 2003 
Q 2506 1872 2764 1633 
Q 3022 1394 3022 966 
Q 3022 478 2636 193 
Q 2250 -91 1575 -91 
Q 1294 -91 989 -36 
Q 684 19 347 128 
L 347 722 
Q 666 556 975 473 
Q 1284 391 1588 391 
Q 1994 391 2212 530 
Q 2431 669 2431 922 
Q 2431 1156 2273 1281 
Q 2116 1406 1581 1522 
L 1381 1569 
Q 847 1681 609 1914 
Q 372 2147 372 2553 
Q 372 3047 722 3315 
Q 1072 3584 1716 3584 
Q 2034 3584 2315 3537 
Q 2597 3491 2834 3397 
z
" transform="scale(0.015625)"/>
                            <path id="DejaVuSans-65" d="M 3597 1894
L 3597 1613 
L 953 1613 
Q 991 1019 1311 708 
Q 1631 397 2203 397 
Q 2534 397 2845 478 
Q 3156 559 3463 722 
L 3463 178 
Q 3153 47 2828 -22 
Q 2503 -91 2169 -91 
Q 1331 -91 842 396 
Q 353 884 353 1716 
Q 353 2575 817 3079 
Q 1281 3584 2069 3584 
Q 2775 3584 3186 3129 
Q 3597 2675 3597 1894 
z
M 3022 2063 
Q 3016 2534 2758 2815 
Q 2500 3097 2075 3097 
Q 1594 3097 1305 2825 
Q 1016 2553 972 2059 
L 3022 2063 
z
" transform="scale(0.015625)"/>
                            <path id="DejaVuSans-20" transform="scale(0.015625)"/>
                            <path id="DejaVuSans-50" d="M 1259 4147
L 1259 2394 
L 2053 2394 
Q 2494 2394 2734 2622 
Q 2975 2850 2975 3272 
Q 2975 3691 2734 3919 
Q 2494 4147 2053 4147 
L 1259 4147 
z
M 628 4666 
L 2053 4666 
Q 2838 4666 3239 4311 
Q 3641 3956 3641 3272 
Q 3641 2581 3239 2228 
Q 2838 1875 2053 1875 
L 1259 1875 
L 1259 0 
L 628 0 
L 628 4666 
z
" transform="scale(0.015625)"/>
                            <path id="DejaVuSans-6f" d="M 1959 3097
Q 1497 3097 1228 2736 
Q 959 2375 959 1747 
Q 959 1119 1226 758 
Q 1494 397 1959 397 
Q 2419 397 2687 759 
Q 2956 1122 2956 1747 
Q 2956 2369 2687 2733 
Q 2419 3097 1959 3097 
z
M 1959 3584 
Q 2709 3584 3137 3096 
Q 3566 2609 3566 1747 
Q 3566 888 3137 398 
Q 2709 -91 1959 -91 
Q 1206 -91 779 398 
Q 353 888 353 1747 
Q 353 2609 779 3096 
Q 1206 3584 1959 3584 
z
" transform="scale(0.015625)"/>
                            <path id="DejaVuSans-69" d="M 603 3500
L 1178 3500 
L 1178 0 
L 603 0 
L 603 3500 
z
M 603 4863 
L 1178 4863 
L 1178 4134 
L 603 4134 
L 603 4863 
z
" transform="scale(0.015625)"/>
                            <path id="DejaVuSans-74" d="M 1172 4494
L 1172 3500 
L 2356 3500 
L 2356 3053 
L 1172 3053 
L 1172 1153 
Q 1172 725 1289 603 
Q 1406 481 1766 481 
L 2356 481 
L 2356 0 
L 1766 0 
Q 1100 0 847 248 
Q 594 497 594 1153 
L 594 3053 
L 172 3053 
L 172 3500 
L 594 3500 
L 594 4494 
L 1172 4494 
z
" transform="scale(0.015625)"/>
                            <path id="DejaVuSans-76" d="M 191 3500
L 800 3500 
L 1894 563 
L 2988 3500 
L 3597 3500 
L 2284 0 
L 1503 0 
L 191 3500 
z
" transform="scale(0.015625)"/>
                            <path id="DejaVuSans-52" d="M 2841 2188
Q 3044 2119 3236 1894 
Q 3428 1669 3622 1275 
L 4263 0 
L 3584 0 
L 2988 1197 
Q 2756 1666 2539 1819 
Q 2322 1972 1947 1972 
L 1259 1972 
L 1259 0 
L 628 0 
L 628 4666 
L 2053 4666 
Q 2853 4666 3247 4331 
Q 3641 3997 3641 3322 
Q 3641 2881 3436 2590 
Q 3231 2300 2841 2188 
z
M 1259 4147 
L 1259 2491 
L 2053 2491 
Q 2509 2491 2742 2702 
Q 2975 2913 2975 3322 
Q 2975 3731 2742 3939 
Q 2509 4147 2053 4147 
L 1259 4147 
z
" transform="scale(0.015625)"/>
                        </defs>
                        <use xlink:href="#DejaVuSans-46"/>
                        <use xlink:href="#DejaVuSans-61" x="48.394531"/>
                        <use xlink:href="#DejaVuSans-6c" x="109.673828"/>
                        <use xlink:href="#DejaVuSans-73" x="137.457031"/>
                        <use xlink:href="#DejaVuSans-65" x="189.556641"/>
                        <use xlink:href="#DejaVuSans-20" x="251.080078"/>
                        <use xlink:href="#DejaVuSans-50" x="282.867188"/>
                        <use xlink:href="#DejaVuSans-6f" x="339.544922"/>
                        <use xlink:href="#DejaVuSans-73" x="400.726562"/>
                        <use xlink:href="#DejaVuSans-69" x="452.826172"/>
                        <use xlink:href="#DejaVuSans-74" x="480.609375"/>
                        <use xlink:href="#DejaVuSans-69" x="519.818359"/>
                        <use xlink:href="#DejaVuSans-76" x="547.601562"/>
                        <use xlink:href="#DejaVuSans-65" x="606.78125"/>
                        <use xlink:href="#DejaVuSans-20" x="668.304688"/>
                        <use xlink:href="#DejaVuSans-52" x="700.091797"/>
                        <use xlink:href="#DejaVuSans-61" x="767.324219"/>
                        <use xlink:href="#DejaVuSans-74" x="828.603516"/>
                        <use xlink:href="#DejaVuSans-65" x="867.8125"/>
                    </g>
                </g>
            </g>
            <g id="matplotlib.axis_2">
                <g id="ytick_1">
                    <g id="line2d_7">
                        <defs>
                            <path id="m57b0d85c07" d="M 0 0
L -3.5 0 
" style="stroke: #000000; stroke-width: 0.8"/>
                        </defs>
                        <g>
                            <use xlink:href="#m57b0d85c07" x="57.6" y="295.488"
                                 style="stroke: #000000; stroke-width: 0.8"/>
                        </g>
                    </g>
                    <g id="text_8">
                        <!-- 0.0 -->
                        <g transform="translate(34.696875 299.287219) scale(0.1 -0.1)">
                            <use xlink:href="#DejaVuSans-30"/>
                            <use xlink:href="#DejaVuSans-2e" x="63.623047"/>
                            <use xlink:href="#DejaVuSans-30" x="95.410156"/>
                        </g>
                    </g>
                </g>
                <g id="ytick_2">
                    <g id="line2d_8">
                        <g>
                            <use xlink:href="#m57b0d85c07" x="57.6" y="247.104"
                                 style="stroke: #000000; stroke-width: 0.8"/>
                        </g>
                    </g>
                    <g id="text_9">
                        <!-- 0.2 -->
                        <g transform="translate(34.696875 250.903219) scale(0.1 -0.1)">
                            <use xlink:href="#DejaVuSans-30"/>
                            <use xlink:href="#DejaVuSans-2e" x="63.623047"/>
                            <use xlink:href="#DejaVuSans-32" x="95.410156"/>
                        </g>
                    </g>
                </g>
                <g id="ytick_3">
                    <g id="line2d_9">
                        <g>
                            <use xlink:href="#m57b0d85c07" x="57.6" y="198.72"
                                 style="stroke: #000000; stroke-width: 0.8"/>
                        </g>
                    </g>
                    <g id="text_10">
                        <!-- 0.4 -->
                        <g transform="translate(34.696875 202.519219) scale(0.1 -0.1)">
                            <use xlink:href="#DejaVuSans-30"/>
                            <use xlink:href="#DejaVuSans-2e" x="63.623047"/>
                            <use xlink:href="#DejaVuSans-34" x="95.410156"/>
                        </g>
                    </g>
                </g>
                <g id="ytick_4">
                    <g id="line2d_10">
                        <g>
                            <use xlink:href="#m57b0d85c07" x="57.6" y="150.336"
                                 style="stroke: #000000; stroke-width: 0.8"/>
                        </g>
                    </g>
                    <g id="text_11">
                        <!-- 0.6 -->
                        <g transform="translate(34.696875 154.135219) scale(0.1 -0.1)">
                            <use xlink:href="#DejaVuSans-30"/>
                            <use xlink:href="#DejaVuSans-2e" x="63.623047"/>
                            <use xlink:href="#DejaVuSans-36" x="95.410156"/>
                        </g>
                    </g>
                </g>
                <g id="ytick_5">
                    <g id="line2d_11">
                        <g>
                            <use xlink:href="#m57b0d85c07" x="57.6" y="101.952"
                                 style="stroke: #000000; stroke-width: 0.8"/>
                        </g>
                    </g>
                    <g id="text_12">
                        <!-- 0.8 -->
                        <g transform="translate(34.696875 105.751219) scale(0.1 -0.1)">
                            <use xlink:href="#DejaVuSans-30"/>
                            <use xlink:href="#DejaVuSans-2e" x="63.623047"/>
                            <use xlink:href="#DejaVuSans-38" x="95.410156"/>
                        </g>
                    </g>
                </g>
                <g id="ytick_6">
                    <g id="line2d_12">
                        <g>
                            <use xlink:href="#m57b0d85c07" x="57.6" y="53.568"
                                 style="stroke: #000000; stroke-width: 0.8"/>
                        </g>
                    </g>
                    <g id="text_13">
                        <!-- 1.0 -->
                        <g transform="translate(34.696875 57.367219) scale(0.1 -0.1)">
                            <use xlink:href="#DejaVuSans-31"/>
                            <use xlink:href="#DejaVuSans-2e" x="63.623047"/>
                            <use xlink:href="#DejaVuSans-30" x="95.410156"/>
                        </g>
                    </g>
                </g>
                <g id="text_14">
                    <!-- True Positive Rate -->
                    <g transform="translate(28.617187 219.057687) rotate(-90) scale(0.1 -0.1)">
                        <defs>
                            <path id="DejaVuSans-54" d="M -19 4666
L 3928 4666 
L 3928 4134 
L 2272 4134 
L 2272 0 
L 1638 0 
L 1638 4134 
L -19 4134 
L -19 4666 
z
" transform="scale(0.015625)"/>
                            <path id="DejaVuSans-72" d="M 2631 2963
Q 2534 3019 2420 3045 
Q 2306 3072 2169 3072 
Q 1681 3072 1420 2755 
Q 1159 2438 1159 1844 
L 1159 0 
L 581 0 
L 581 3500 
L 1159 3500 
L 1159 2956 
Q 1341 3275 1631 3429 
Q 1922 3584 2338 3584 
Q 2397 3584 2469 3576 
Q 2541 3569 2628 3553 
L 2631 2963 
z
" transform="scale(0.015625)"/>
                            <path id="DejaVuSans-75" d="M 544 1381
L 544 3500 
L 1119 3500 
L 1119 1403 
Q 1119 906 1312 657 
Q 1506 409 1894 409 
Q 2359 409 2629 706 
Q 2900 1003 2900 1516 
L 2900 3500 
L 3475 3500 
L 3475 0 
L 2900 0 
L 2900 538 
Q 2691 219 2414 64 
Q 2138 -91 1772 -91 
Q 1169 -91 856 284 
Q 544 659 544 1381 
z
M 1991 3584 
L 1991 3584 
z
" transform="scale(0.015625)"/>
                        </defs>
                        <use xlink:href="#DejaVuSans-54"/>
                        <use xlink:href="#DejaVuSans-72" x="46.333984"/>
                        <use xlink:href="#DejaVuSans-75" x="87.447266"/>
                        <use xlink:href="#DejaVuSans-65" x="150.826172"/>
                        <use xlink:href="#DejaVuSans-20" x="212.349609"/>
                        <use xlink:href="#DejaVuSans-50" x="244.136719"/>
                        <use xlink:href="#DejaVuSans-6f" x="300.814453"/>
                        <use xlink:href="#DejaVuSans-73" x="361.996094"/>
                        <use xlink:href="#DejaVuSans-69" x="414.095703"/>
                        <use xlink:href="#DejaVuSans-74" x="441.878906"/>
                        <use xlink:href="#DejaVuSans-69" x="481.087891"/>
                        <use xlink:href="#DejaVuSans-76" x="508.871094"/>
                        <use xlink:href="#DejaVuSans-65" x="568.050781"/>
                        <use xlink:href="#DejaVuSans-20" x="629.574219"/>
                        <use xlink:href="#DejaVuSans-52" x="661.361328"/>
                        <use xlink:href="#DejaVuSans-61" x="728.59375"/>
                        <use xlink:href="#DejaVuSans-74" x="789.873047"/>
                        <use xlink:href="#DejaVuSans-65" x="829.082031"/>
                    </g>
                </g>
            </g>
            <g id="line2d_13">
                <path d="M 73.832727 295.488
L 78.001529 237.190129 
L 78.001529 233.472428 
L 78.220939 232.879751 
L 78.294076 225.605987 
L 78.44035 225.498227 
L 78.513487 224.528392 
L 78.586624 224.528392 
L 78.65976 223.720196 
L 78.732897 223.720196 
L 78.806034 219.140419 
L 78.879171 219.140419 
L 78.952308 218.008944 
L 79.025445 218.008944 
L 79.098582 215.907635 
L 79.171718 215.907635 
L 79.244855 209.495947 
L 79.391129 209.495947 
L 79.464266 205.939884 
L 79.537403 205.939884 
L 79.61054 205.131688 
L 79.683677 205.131688 
L 79.756813 204.054094 
L 79.903087 204.054094 
L 79.903087 203.515296 
L 80.049361 203.515296 
L 80.049361 203.299777 
L 80.195635 203.299777 
L 80.195635 202.976499 
L 80.341908 202.437702 
L 80.415045 201.575626 
L 80.488182 201.575626 
L 80.488182 201.306227 
L 80.634456 201.306227 
L 80.707593 200.71355 
L 80.780729 200.71355 
L 80.853866 198.504481 
L 80.927003 198.504481 
L 81.00014 197.696285 
L 81.073277 197.696285 
L 81.146414 197.319127 
L 81.219551 197.319127 
L 81.292688 196.403171 
L 81.365824 196.403171 
L 81.438961 196.133773 
L 81.512098 196.133773 
L 81.585235 194.67902 
L 81.658372 194.67902 
L 81.731509 193.978584 
L 81.877782 193.870824 
L 81.950919 193.278147 
L 82.024056 193.278147 
L 82.024056 193.116508 
L 82.17033 193.116508 
L 82.243467 191.931154 
L 82.536014 191.877274 
L 82.609151 191.661755 
L 82.682288 191.661755 
L 82.755425 191.015198 
L 83.267383 190.907439 
L 83.34052 190.530281 
L 83.998752 190.422521 
L 83.998752 190.368641 
L 84.218162 189.775964 
L 84.218162 189.291047 
L 84.437573 188.967768 
L 84.51071 187.944053 
L 84.583846 187.944053 
L 84.656983 185.842744 
L 84.73012 185.842744 
L 84.803257 184.010833 
L 84.949531 184.010833 
L 85.022668 182.178922 
L 85.095805 182.071163 
L 85.168941 180.131492 
L 85.242078 180.131492 
L 85.315215 177.545265 
L 85.680899 177.491385 
L 85.754036 176.090512 
L 85.90031 176.090512 
L 85.90031 174.043082 
L 86.046584 174.043082 
L 86.119721 170.648659 
L 86.192858 170.648659 
L 86.265994 169.571065 
L 86.485405 169.517185 
L 86.558542 168.762869 
L 86.631679 168.762869 
L 86.631679 168.224071 
L 86.777952 168.224071 
L 86.851089 167.577514 
L 87.0705 167.469755 
L 87.143637 165.961122 
L 87.216774 165.961122 
L 87.289911 165.045167 
L 87.436184 165.045167 
L 87.436184 164.560249 
L 87.582458 164.560249 
L 87.655595 163.105497 
L 87.728732 163.105497 
L 87.801869 162.135661 
L 87.875005 162.135661 
L 87.948142 160.680909 
L 88.021279 160.680909 
L 88.021279 160.46539 
L 88.386963 159.387795 
L 88.4601 158.687359 
L 88.533237 158.687359 
L 88.533237 158.41796 
L 88.679511 158.41796 
L 88.752648 157.663644 
L 88.825785 157.663644 
L 88.898922 157.070967 
L 89.191469 156.963207 
L 89.264606 155.777853 
L 89.337743 155.777853 
L 89.41088 155.185176 
L 89.484016 155.185176 
L 89.557153 153.892062 
L 89.63029 153.892062 
L 89.703427 152.868347 
L 89.849701 152.814468 
L 89.922838 151.575234 
L 89.995975 151.575234 
L 90.069111 151.090316 
L 90.142248 151.090316 
L 90.142248 150.820918 
L 90.288522 150.820918 
L 90.361659 150.551519 
L 90.434796 150.551519 
L 90.507933 149.904962 
L 90.80048 149.797203 
L 90.873617 149.258405 
L 90.946754 149.258405 
L 91.019891 148.881247 
L 91.385575 148.827367 
L 91.385575 148.39633 
L 91.458712 148.39633 
L 91.604986 148.34245 
L 91.751259 147.911412 
L 92.775175 147.803653 
L 92.848312 147.588134 
L 93.433407 147.480374 
L 93.433407 147.372615 
L 93.652818 147.318735 
L 93.652818 147.210976 
L 94.53046 147.157096 
L 94.53046 147.049336 
L 94.823008 147.049336 
L 95.188692 146.3489 
L 95.554376 146.29502 
L 95.554376 146.079501 
L 95.773787 146.025621 
L 95.773787 145.863982 
L 96.139471 145.810102 
L 96.212608 145.540704 
L 97.09025 145.486824 
L 97.163387 145.055786 
L 97.236524 145.055786 
L 97.236524 144.840267 
L 97.382798 144.840267 
L 97.455935 144.085951 
L 97.529072 144.085951 
L 97.602209 143.223875 
L 97.748482 143.116116 
L 97.821619 142.792837 
L 97.967893 142.685078 
L 97.967893 142.523439 
L 98.26044 142.469559 
L 98.26044 142.25404 
L 98.552988 142.20016 
L 98.552988 142.092401 
L 98.699262 142.092401 
L 98.699262 141.176445 
L 98.845535 141.176445 
L 98.918672 140.476009 
L 99.064946 140.476009 
L 99.138083 139.775572 
L 99.21122 139.775572 
L 99.21122 139.506174 
L 99.357493 139.506174 
L 99.43063 138.15918 
L 99.503767 138.15918 
L 99.576904 137.458744 
L 99.650041 137.404864 
L 99.723178 136.596668 
L 99.796314 136.596668 
L 99.869451 136.381149 
L 99.942588 136.381149 
L 99.942588 135.950111 
L 100.088862 135.950111 
L 100.088862 135.141915 
L 100.161999 135.141915 
L 100.235136 134.980276 
L 100.235136 134.495359 
L 100.381409 134.495359 
L 100.454546 132.394049 
L 100.527683 132.394049 
L 100.60082 131.531973 
L 100.747094 131.478094 
L 100.820231 130.508258 
L 100.966504 130.400499 
L 101.039641 129.538423 
L 101.185915 129.430664 
L 101.259052 128.568588 
L 101.332189 128.568588 
L 101.332189 128.24531 
L 101.478462 128.24531 
L 101.551599 127.275474 
L 101.697873 127.167715 
L 101.77101 126.305639 
L 101.844147 126.305639 
L 101.917284 125.712962 
L 101.99042 125.712962 
L 102.063557 123.827171 
L 102.209831 123.503893 
L 103.014337 122.749577 
L 103.014337 122.480178 
L 103.233747 122.372419 
L 103.306884 121.456463 
L 103.453158 121.402584 
L 103.526295 120.648267 
L 103.672568 120.648267 
L 103.672568 120.00171 
L 103.745705 120.00171 
L 103.818842 119.947831 
L 103.818842 119.462913 
L 103.965116 119.462913 
L 104.038253 118.977996 
L 104.184526 118.977996 
L 104.257663 118.546958 
L 104.3308 118.546958 
L 104.403937 118.11592 
L 104.696484 118.00816 
L 104.769621 116.661167 
L 104.989032 116.607287 
L 105.062169 116.06849 
L 105.281579 116.01461 
L 105.354716 115.152535 
L 105.427853 115.152535 
L 105.50099 114.775376 
L 105.720401 114.775376 
L 105.720401 114.505978 
L 105.866674 114.505978 
L 105.939811 113.96718 
L 106.378632 113.859421 
L 106.451769 113.536143 
L 106.67118 113.428383 
L 106.67118 113.374503 
L 106.817454 113.374503 
L 107.036864 113.158984 
L 108.06078 113.051225 
L 108.06078 112.997345 
L 108.426465 112.997345 
L 108.645875 112.674067 
L 108.865286 112.566307 
L 108.865286 112.512428 
L 109.523518 112.404668 
L 109.523518 112.350788 
L 110.839981 112.243029 
L 110.839981 112.189149 
L 111.937034 112.08139 
L 111.937034 112.02751 
L 112.229582 111.919751 
L 112.229582 111.865871 
L 113.399771 111.758111 
L 113.399771 111.650352 
L 114.789372 111.542592 
L 114.862509 111.327073 
L 115.155056 111.219314 
L 115.155056 111.165434 
L 115.520741 111.057675 
L 115.520741 111.003795 
L 115.593877 111.003795 
L 116.325246 110.572757 
L 116.837204 110.518878 
L 116.910341 110.357238 
L 117.202888 110.249479 
L 117.276025 110.141719 
L 117.495436 110.03396 
L 117.495436 109.9262 
L 118.373078 109.818441 
L 118.811899 109.387403 
L 118.885036 109.064125 
L 118.958173 109.064125 
L 118.958173 108.848606 
L 119.177584 108.794726 
L 119.177584 108.579207 
L 119.616405 108.471448 
L 119.616405 108.363688 
L 119.835816 108.309808 
L 119.908952 108.09429 
L 120.2015 107.98653 
L 120.274637 107.878771 
L 120.420911 107.824891 
L 120.494047 107.555492 
L 120.640321 107.501612 
L 120.713458 107.070575 
L 120.859732 107.016695 
L 120.932869 106.747296 
L 121.006005 106.747296 
L 121.006005 106.370138 
L 121.152279 106.154619 
L 121.152279 105.669702 
L 121.298553 105.669702 
L 121.37169 104.753746 
L 121.444827 104.753746 
L 121.517964 104.430468 
L 121.5911 104.430468 
L 121.5911 104.322708 
L 121.5911 104.214949 
L 121.737374 104.214949 
L 121.737374 103.89167 
L 121.883648 103.89167 
L 121.956785 103.460633 
L 122.176195 103.352873 
L 122.176195 103.298993 
L 122.468743 103.191234 
L 122.54188 102.921835 
L 122.615016 102.921835 
L 122.615016 102.706316 
L 122.834427 102.706316 
L 122.834427 102.598557 
L 122.907564 102.436918 
L 122.980701 101.305443 
L 123.053838 101.305443 
L 123.053838 100.982165 
L 123.273248 100.982165 
L 123.273248 100.820526 
L 123.346385 100.820526 
L 123.565796 100.551127 
L 123.565796 100.281728 
L 123.712069 100.281728 
L 123.712069 100.01233 
L 123.93148 99.90457 
L 124.004617 99.204134 
L 124.077754 99.204134 
L 124.150891 98.826976 
L 124.370301 98.719216 
L 124.443438 97.803261 
L 124.516575 97.803261 
L 124.589712 97.479982 
L 124.662849 97.479982 
L 124.662849 97.264463 
L 124.882259 96.941185 
L 126.27186 95.324793 
L 126.344997 94.732116 
L 126.418133 94.732116 
L 126.49127 94.408837 
L 126.856955 94.301078 
L 126.930092 93.546762 
L 127.076365 93.492882 
L 127.149502 92.954085 
L 127.368913 92.954085 
L 127.44205 92.361408 
L 127.515186 92.361408 
L 127.515186 92.199768 
L 127.66146 92.199768 
L 127.734597 91.984249 
L 127.880871 91.93037 
L 127.954008 91.499332 
L 128.027145 91.499332 
L 128.027145 91.337693 
L 128.173418 91.337693 
L 128.173418 91.176053 
L 128.319692 91.176053 
L 128.319692 91.068294 
L 128.319692 90.960535 
L 128.392829 90.960535 
L 128.685376 90.852775 
L 128.685376 90.798895 
L 129.051061 90.745016 
L 129.124198 90.529497 
L 129.343608 90.529497 
L 129.343608 90.367857 
L 129.636156 90.313978 
L 129.636156 90.206218 
L 130.074977 90.152339 
L 130.148114 89.93682 
L 130.22125 89.93682 
L 130.22125 89.721301 
L 130.806345 89.613541 
L 130.806345 89.559661 
L 131.17203 89.559661 
L 131.17203 89.344143 
L 131.683988 89.236383 
L 131.830262 89.020864 
L 132.269083 88.913105 
L 132.269083 88.859225 
L 132.854178 88.751465 
L 132.854178 88.697586 
L 133.146725 88.697586 
L 133.219862 88.374307 
L 134.097504 88.266548 
L 134.097504 88.212668 
L 134.390052 88.104909 
L 134.828873 87.943269 
L 136.584158 87.83551 
L 136.584158 87.727751 
L 137.900621 87.619991 
L 137.900621 87.566111 
L 138.851401 87.512232 
L 138.851401 87.404472 
L 139.509632 87.296713 
L 139.509632 87.242833 
L 140.094727 87.242833 
L 140.387275 86.757915 
L 142.508244 86.650156 
L 142.508244 86.596276 
L 142.947065 86.542396 
L 143.166476 86.434637 
L 144.775487 86.380757 
L 144.775487 86.219118 
L 145.579992 86.111359 
L 145.579992 86.057479 
L 146.238224 85.949719 
L 146.238224 85.89584 
L 146.603908 85.464802 
L 147.408414 85.357042 
L 147.408414 85.249283 
L 147.920372 85.141523 
L 147.993509 84.926004 
L 148.066646 84.926004 
L 148.066646 84.818245 
L 148.724877 84.333327 
L 148.724877 84.117808 
L 149.163699 84.010049 
L 149.236835 83.90229 
L 149.309972 83.632891 
L 149.895067 83.525131 
L 149.968204 83.255733 
L 150.041341 83.255733 
L 150.480162 82.716935 
L 150.699573 82.716935 
L 150.77271 82.339777 
L 150.918983 82.232018 
L 150.99212 81.85486 
L 151.065257 81.85486 
L 151.065257 81.7471 
L 151.138394 81.585461 
L 151.211531 81.585461 
L 151.211531 81.316062 
L 151.430941 81.316062 
L 151.504078 80.453987 
L 151.869763 80.346227 
L 151.9429 80.022949 
L 152.016036 80.022949 
L 152.089173 79.484151 
L 152.308584 79.430272 
L 152.381721 79.268633 
L 152.674268 79.160873 
L 152.747405 78.406557 
L 152.820542 78.406557 
L 152.893679 77.81388 
L 153.113089 77.70612 
L 153.186226 77.328962 
L 153.259363 77.059563 
L 154.50269 76.089728 
L 154.575827 75.335412 
L 154.7221 75.335412 
L 154.7221 75.227653 
L 154.795237 75.119893 
L 155.014648 75.119893 
L 155.014648 74.958254 
L 155.234058 74.850494 
L 155.307195 74.634976 
L 155.453469 74.527216 
L 155.526606 74.150058 
L 155.599743 74.150058 
L 155.67288 73.934539 
L 156.111701 73.82678 
L 156.111701 73.7729 
L 156.477385 73.66514 
L 156.477385 73.611261 
L 156.696796 73.503501 
L 156.769933 73.395742 
L 156.843069 73.395742 
L 156.843069 73.180223 
L 157.06248 73.126343 
L 157.06248 73.018584 
L 157.281891 72.910824 
L 157.355028 72.803065 
L 157.501301 72.803065 
L 157.501301 72.641425 
L 158.013259 72.533666 
L 158.086396 72.318147 
L 158.378944 72.210388 
L 158.378944 72.102628 
L 158.744628 71.994869 
L 158.744628 71.833229 
L 159.841681 71.72547 
L 159.914818 71.61771 
L 161.011871 71.509951 
L 161.011871 71.402192 
L 161.96265 71.294432 
L 161.96265 71.132793 
L 162.620882 71.025033 
L 162.620882 70.971154 
L 167.667326 70.863394 
L 167.740462 70.809514 
L 168.837515 70.701755 
L 168.837515 70.647875 
L 170.300253 70.540116 
L 170.300253 70.486236 
L 171.031621 70.486236 
L 171.470443 70.109078 
L 176.224339 70.001318 
L 176.224339 69.947439 
L 181.417056 69.839679 
L 181.417056 69.7858 
L 182.660383 69.67804 
L 182.660383 69.62416 
L 184.342531 69.516401 
L 185.147036 68.977604 
L 186.097816 68.654325 
L 186.097816 68.600445 
L 186.390363 68.546566 
L 186.4635 68.331047 
L 186.536637 68.331047 
L 186.536637 68.169408 
L 186.756047 68.115528 
L 186.756047 68.007768 
L 187.268005 67.900009 
L 187.341142 67.63061 
L 187.560553 67.522851 
L 187.560553 67.415091 
L 187.63369 67.415091 
L 187.779964 67.253452 
L 187.779964 67.145693 
L 188.218785 67.037933 
L 188.218785 66.930174 
L 188.438195 66.876294 
L 188.511332 66.445256 
L 188.730743 66.337497 
L 188.730743 66.283617 
L 189.169564 66.175857 
L 189.169564 66.068098 
L 189.827796 65.960339 
L 189.827796 65.798699 
L 190.412891 65.69094 
L 190.486028 65.475421 
L 190.559164 65.475421 
L 190.778575 65.313782 
L 191.583081 64.990503 
L 191.656217 64.559465 
L 191.729354 64.559465 
L 191.802491 64.290067 
L 191.875628 64.290067 
L 191.875628 64.074548 
L 192.53386 63.966788 
L 192.606997 63.805149 
L 192.75327 63.751269 
L 192.826407 63.535751 
L 192.972681 63.535751 
L 192.972681 63.320232 
L 193.557776 63.212472 
L 193.557776 63.158592 
L 193.92346 63.104713 
L 193.92346 62.943073 
L 194.362281 62.835314 
L 194.435418 62.350396 
L 194.947376 62.242637 
L 194.947376 62.134878 
L 195.166787 62.080998 
L 195.166787 61.973238 
L 195.532471 61.865479 
L 195.532471 61.757719 
L 196.26384 61.64996 
L 196.336977 61.380561 
L 196.922072 61.326682 
L 196.995209 61.057283 
L 197.287756 61.003403 
L 197.287756 60.895644 
L 198.092262 60.787884 
L 198.165398 60.572365 
L 198.238535 60.572365 
L 198.238535 60.410726 
L 198.60422 60.302967 
L 198.60422 60.249087 
L 199.189315 60.141327 
L 199.189315 60.087448 
L 201.529694 59.979688 
L 201.602831 59.764169 
L 203.284979 59.65641 
L 203.284979 59.60253 
L 209.721023 59.494771 
L 209.721023 59.440891 
L 217.766078 59.333131 
L 217.766078 59.279252 
L 238.463811 59.171492 
L 238.756359 59.117612 
L 243.071434 59.117612 
L 398.487273 53.568 
L 398.487273 53.568 
" clip-path="url(#p710d60e085)" style="fill: none; stroke: #1f77b4; stroke-width: 1.5; stroke-linecap: square"/>
            </g>
            <g id="patch_3">
                <path d="M 57.6 307.584
L 57.6 41.472 
" style="fill: none; stroke: #000000; stroke-width: 0.8; stroke-linejoin: miter; stroke-linecap: square"/>
            </g>
            <g id="patch_4">
                <path d="M 414.72 307.584
L 414.72 41.472 
" style="fill: none; stroke: #000000; stroke-width: 0.8; stroke-linejoin: miter; stroke-linecap: square"/>
            </g>
            <g id="patch_5">
                <path d="M 57.6 307.584
L 414.72 307.584 
" style="fill: none; stroke: #000000; stroke-width: 0.8; stroke-linejoin: miter; stroke-linecap: square"/>
            </g>
            <g id="patch_6">
                <path d="M 57.6 41.472
L 414.72 41.472 
" style="fill: none; stroke: #000000; stroke-width: 0.8; stroke-linejoin: miter; stroke-linecap: square"/>
            </g>
            <g id="legend_1">
                <g id="patch_7">
                    <path d="M 317.57625 302.584
L 407.72 302.584 
Q 409.72 302.584 409.72 300.584 
L 409.72 286.905875 
Q 409.72 284.905875 407.72 284.905875 
L 317.57625 284.905875 
Q 315.57625 284.905875 315.57625 286.905875 
L 315.57625 300.584 
Q 315.57625 302.584 317.57625 302.584 
z
" style="fill: #ffffff; opacity: 0.8; stroke: #cccccc; stroke-linejoin: miter"/>
                </g>
                <g id="line2d_14">
                    <path d="M 319.57625 293.004312
L 329.57625 293.004312 
L 339.57625 293.004312 
" style="fill: none; stroke: #1f77b4; stroke-width: 1.5; stroke-linecap: square"/>
                </g>
                <g id="text_15">
                    <!-- AUC = 0.91 -->
                    <g transform="translate(347.57625 296.504312) scale(0.1 -0.1)">
                        <defs>
                            <path id="DejaVuSans-41" d="M 2188 4044
L 1331 1722 
L 3047 1722 
L 2188 4044 
z
M 1831 4666 
L 2547 4666 
L 4325 0 
L 3669 0 
L 3244 1197 
L 1141 1197 
L 716 0 
L 50 0 
L 1831 4666 
z
" transform="scale(0.015625)"/>
                            <path id="DejaVuSans-55" d="M 556 4666
L 1191 4666 
L 1191 1831 
Q 1191 1081 1462 751 
Q 1734 422 2344 422 
Q 2950 422 3222 751 
Q 3494 1081 3494 1831 
L 3494 4666 
L 4128 4666 
L 4128 1753 
Q 4128 841 3676 375 
Q 3225 -91 2344 -91 
Q 1459 -91 1007 375 
Q 556 841 556 1753 
L 556 4666 
z
" transform="scale(0.015625)"/>
                            <path id="DejaVuSans-43" d="M 4122 4306
L 4122 3641 
Q 3803 3938 3442 4084 
Q 3081 4231 2675 4231 
Q 1875 4231 1450 3742 
Q 1025 3253 1025 2328 
Q 1025 1406 1450 917 
Q 1875 428 2675 428 
Q 3081 428 3442 575 
Q 3803 722 4122 1019 
L 4122 359 
Q 3791 134 3420 21 
Q 3050 -91 2638 -91 
Q 1578 -91 968 557 
Q 359 1206 359 2328 
Q 359 3453 968 4101 
Q 1578 4750 2638 4750 
Q 3056 4750 3426 4639 
Q 3797 4528 4122 4306 
z
" transform="scale(0.015625)"/>
                            <path id="DejaVuSans-3d" d="M 678 2906
L 4684 2906 
L 4684 2381 
L 678 2381 
L 678 2906 
z
M 678 1631 
L 4684 1631 
L 4684 1100 
L 678 1100 
L 678 1631 
z
" transform="scale(0.015625)"/>
                            <path id="DejaVuSans-39" d="M 703 97
L 703 672 
Q 941 559 1184 500 
Q 1428 441 1663 441 
Q 2288 441 2617 861 
Q 2947 1281 2994 2138 
Q 2813 1869 2534 1725 
Q 2256 1581 1919 1581 
Q 1219 1581 811 2004 
Q 403 2428 403 3163 
Q 403 3881 828 4315 
Q 1253 4750 1959 4750 
Q 2769 4750 3195 4129 
Q 3622 3509 3622 2328 
Q 3622 1225 3098 567 
Q 2575 -91 1691 -91 
Q 1453 -91 1209 -44 
Q 966 3 703 97 
z
M 1959 2075 
Q 2384 2075 2632 2365 
Q 2881 2656 2881 3163 
Q 2881 3666 2632 3958 
Q 2384 4250 1959 4250 
Q 1534 4250 1286 3958 
Q 1038 3666 1038 3163 
Q 1038 2656 1286 2365 
Q 1534 2075 1959 2075 
z
" transform="scale(0.015625)"/>
                        </defs>
                        <use xlink:href="#DejaVuSans-41"/>
                        <use xlink:href="#DejaVuSans-55" x="68.408203"/>
                        <use xlink:href="#DejaVuSans-43" x="141.601562"/>
                        <use xlink:href="#DejaVuSans-20" x="211.425781"/>
                        <use xlink:href="#DejaVuSans-3d" x="243.212891"/>
                        <use xlink:href="#DejaVuSans-20" x="327.001953"/>
                        <use xlink:href="#DejaVuSans-30" x="358.789062"/>
                        <use xlink:href="#DejaVuSans-2e" x="422.412109"/>
                        <use xlink:href="#DejaVuSans-39" x="454.199219"/>
                        <use xlink:href="#DejaVuSans-31" x="517.822266"/>
                    </g>
                </g>
            </g>
        </g>
    </g>
    <defs>
        <clipPath id="p710d60e085">
            <rect x="57.6" y="41.472" width="357.12" height="266.112"/>
        </clipPath>
    </defs>
</svg>
