<?xml version="1.0" encoding="utf-8" standalone="no"?>
<!DOCTYPE svg PUBLIC "-//W3C//DTD SVG 1.1//EN"
        "http://www.w3.org/Graphics/SVG/1.1/DTD/svg11.dtd">
<svg xmlns:xlink="http://www.w3.org/1999/xlink" width="460.8pt" height="345.6pt" viewBox="0 0 460.8 345.6"
     xmlns="http://www.w3.org/2000/svg" version="1.1">
    <metadata>
        <rdf:RDF xmlns:dc="http://purl.org/dc/elements/1.1/" xmlns:cc="http://creativecommons.org/ns#"
                 xmlns:rdf="http://www.w3.org/1999/02/22-rdf-syntax-ns#">
            <cc:Work>
                <dc:type rdf:resource="http://purl.org/dc/dcmitype/StillImage"/>
                <dc:date>2022-11-30T19:01:17.153127</dc:date>
                <dc:format>image/svg+xml</dc:format>
                <dc:creator>
                    <cc:Agent>
                        <dc:title>Matplotlib v3.6.2, https://matplotlib.org/</dc:title>
                    </cc:Agent>
                </dc:creator>
            </cc:Work>
        </rdf:RDF>
    </metadata>
    <defs>
        <style type="text/css">*{stroke-linejoin: round; stroke-linecap: butt}</style>
    </defs>
    <g id="figure_1">
        <g id="patch_1">
            <path d="M 0 345.6
L 460.8 345.6 
L 460.8 0 
L 0 0 
z
" style="fill: #ffffff"/>
        </g>
        <g id="axes_1">
            <g id="patch_2">
                <path d="M 57.6 307.584
L 414.72 307.584 
L 414.72 41.472 
L 57.6 41.472 
z
" style="fill: #eaeaf2"/>
            </g>
            <g id="matplotlib.axis_1">
                <g id="xtick_1">
                    <g id="line2d_1">
                        <path d="M 73.832727 307.584
L 73.832727 41.472 
" clip-path="url(#p2210d1336b)" style="fill: none; stroke: #ffffff; stroke-width: 0.8; stroke-linecap: round"/>
                    </g>
                    <g id="line2d_2"/>
                    <g id="text_1">
                        <!-- 0.0 -->
                        <g style="fill: #262626" transform="translate(66.882727 318.241812) scale(0.1 -0.1)">
                            <defs>
                                <path id="ArialMT-30" d="M 266 2259
Q 266 3072 433 3567 
Q 600 4063 929 4331 
Q 1259 4600 1759 4600 
Q 2128 4600 2406 4451 
Q 2684 4303 2865 4023 
Q 3047 3744 3150 3342 
Q 3253 2941 3253 2259 
Q 3253 1453 3087 958 
Q 2922 463 2592 192 
Q 2263 -78 1759 -78 
Q 1097 -78 719 397 
Q 266 969 266 2259 
z
M 844 2259 
Q 844 1131 1108 757 
Q 1372 384 1759 384 
Q 2147 384 2411 759 
Q 2675 1134 2675 2259 
Q 2675 3391 2411 3762 
Q 2147 4134 1753 4134 
Q 1366 4134 1134 3806 
Q 844 3388 844 2259 
z
" transform="scale(0.015625)"/>
                                <path id="ArialMT-2e" d="M 581 0
L 581 641 
L 1222 641 
L 1222 0 
L 581 0 
z
" transform="scale(0.015625)"/>
                            </defs>
                            <use xlink:href="#ArialMT-30"/>
                            <use xlink:href="#ArialMT-2e" x="55.615234"/>
                            <use xlink:href="#ArialMT-30" x="83.398438"/>
                        </g>
                    </g>
                </g>
                <g id="xtick_2">
                    <g id="line2d_3">
                        <path d="M 138.763636 307.584
L 138.763636 41.472 
" clip-path="url(#p2210d1336b)" style="fill: none; stroke: #ffffff; stroke-width: 0.8; stroke-linecap: round"/>
                    </g>
                    <g id="line2d_4"/>
                    <g id="text_2">
                        <!-- 0.2 -->
                        <g style="fill: #262626" transform="translate(131.813636 318.241812) scale(0.1 -0.1)">
                            <defs>
                                <path id="ArialMT-32" d="M 3222 541
L 3222 0 
L 194 0 
Q 188 203 259 391 
Q 375 700 629 1000 
Q 884 1300 1366 1694 
Q 2113 2306 2375 2664 
Q 2638 3022 2638 3341 
Q 2638 3675 2398 3904 
Q 2159 4134 1775 4134 
Q 1369 4134 1125 3890 
Q 881 3647 878 3216 
L 300 3275 
Q 359 3922 746 4261 
Q 1134 4600 1788 4600 
Q 2447 4600 2831 4234 
Q 3216 3869 3216 3328 
Q 3216 3053 3103 2787 
Q 2991 2522 2730 2228 
Q 2469 1934 1863 1422 
Q 1356 997 1212 845 
Q 1069 694 975 541 
L 3222 541 
z
" transform="scale(0.015625)"/>
                            </defs>
                            <use xlink:href="#ArialMT-30"/>
                            <use xlink:href="#ArialMT-2e" x="55.615234"/>
                            <use xlink:href="#ArialMT-32" x="83.398438"/>
                        </g>
                    </g>
                </g>
                <g id="xtick_3">
                    <g id="line2d_5">
                        <path d="M 203.694545 307.584
L 203.694545 41.472 
" clip-path="url(#p2210d1336b)" style="fill: none; stroke: #ffffff; stroke-width: 0.8; stroke-linecap: round"/>
                    </g>
                    <g id="line2d_6"/>
                    <g id="text_3">
                        <!-- 0.4 -->
                        <g style="fill: #262626" transform="translate(196.744545 318.241812) scale(0.1 -0.1)">
                            <defs>
                                <path id="ArialMT-34" d="M 2069 0
L 2069 1097 
L 81 1097 
L 81 1613 
L 2172 4581 
L 2631 4581 
L 2631 1613 
L 3250 1613 
L 3250 1097 
L 2631 1097 
L 2631 0 
L 2069 0 
z
M 2069 1613 
L 2069 3678 
L 634 1613 
L 2069 1613 
z
" transform="scale(0.015625)"/>
                            </defs>
                            <use xlink:href="#ArialMT-30"/>
                            <use xlink:href="#ArialMT-2e" x="55.615234"/>
                            <use xlink:href="#ArialMT-34" x="83.398438"/>
                        </g>
                    </g>
                </g>
                <g id="xtick_4">
                    <g id="line2d_7">
                        <path d="M 268.625455 307.584
L 268.625455 41.472 
" clip-path="url(#p2210d1336b)" style="fill: none; stroke: #ffffff; stroke-width: 0.8; stroke-linecap: round"/>
                    </g>
                    <g id="line2d_8"/>
                    <g id="text_4">
                        <!-- 0.6 -->
                        <g style="fill: #262626" transform="translate(261.675455 318.241812) scale(0.1 -0.1)">
                            <defs>
                                <path id="ArialMT-36" d="M 3184 3459
L 2625 3416 
Q 2550 3747 2413 3897 
Q 2184 4138 1850 4138 
Q 1581 4138 1378 3988 
Q 1113 3794 959 3422 
Q 806 3050 800 2363 
Q 1003 2672 1297 2822 
Q 1591 2972 1913 2972 
Q 2475 2972 2870 2558 
Q 3266 2144 3266 1488 
Q 3266 1056 3080 686 
Q 2894 316 2569 119 
Q 2244 -78 1831 -78 
Q 1128 -78 684 439 
Q 241 956 241 2144 
Q 241 3472 731 4075 
Q 1159 4600 1884 4600 
Q 2425 4600 2770 4297 
Q 3116 3994 3184 3459 
z
M 888 1484 
Q 888 1194 1011 928 
Q 1134 663 1356 523 
Q 1578 384 1822 384 
Q 2178 384 2434 671 
Q 2691 959 2691 1453 
Q 2691 1928 2437 2201 
Q 2184 2475 1800 2475 
Q 1419 2475 1153 2201 
Q 888 1928 888 1484 
z
" transform="scale(0.015625)"/>
                            </defs>
                            <use xlink:href="#ArialMT-30"/>
                            <use xlink:href="#ArialMT-2e" x="55.615234"/>
                            <use xlink:href="#ArialMT-36" x="83.398438"/>
                        </g>
                    </g>
                </g>
                <g id="xtick_5">
                    <g id="line2d_9">
                        <path d="M 333.556364 307.584
L 333.556364 41.472 
" clip-path="url(#p2210d1336b)" style="fill: none; stroke: #ffffff; stroke-width: 0.8; stroke-linecap: round"/>
                    </g>
                    <g id="line2d_10"/>
                    <g id="text_5">
                        <!-- 0.8 -->
                        <g style="fill: #262626" transform="translate(326.606364 318.241812) scale(0.1 -0.1)">
                            <defs>
                                <path id="ArialMT-38" d="M 1131 2484
Q 781 2613 612 2850 
Q 444 3088 444 3419 
Q 444 3919 803 4259 
Q 1163 4600 1759 4600 
Q 2359 4600 2725 4251 
Q 3091 3903 3091 3403 
Q 3091 3084 2923 2848 
Q 2756 2613 2416 2484 
Q 2838 2347 3058 2040 
Q 3278 1734 3278 1309 
Q 3278 722 2862 322 
Q 2447 -78 1769 -78 
Q 1091 -78 675 323 
Q 259 725 259 1325 
Q 259 1772 486 2073 
Q 713 2375 1131 2484 
z
M 1019 3438 
Q 1019 3113 1228 2906 
Q 1438 2700 1772 2700 
Q 2097 2700 2305 2904 
Q 2513 3109 2513 3406 
Q 2513 3716 2298 3927 
Q 2084 4138 1766 4138 
Q 1444 4138 1231 3931 
Q 1019 3725 1019 3438 
z
M 838 1322 
Q 838 1081 952 856 
Q 1066 631 1291 507 
Q 1516 384 1775 384 
Q 2178 384 2440 643 
Q 2703 903 2703 1303 
Q 2703 1709 2433 1975 
Q 2163 2241 1756 2241 
Q 1359 2241 1098 1978 
Q 838 1716 838 1322 
z
" transform="scale(0.015625)"/>
                            </defs>
                            <use xlink:href="#ArialMT-30"/>
                            <use xlink:href="#ArialMT-2e" x="55.615234"/>
                            <use xlink:href="#ArialMT-38" x="83.398438"/>
                        </g>
                    </g>
                </g>
                <g id="xtick_6">
                    <g id="line2d_11">
                        <path d="M 398.487273 307.584
L 398.487273 41.472 
" clip-path="url(#p2210d1336b)" style="fill: none; stroke: #ffffff; stroke-width: 0.8; stroke-linecap: round"/>
                    </g>
                    <g id="line2d_12"/>
                    <g id="text_6">
                        <!-- 1.0 -->
                        <g style="fill: #262626" transform="translate(391.537273 318.241812) scale(0.1 -0.1)">
                            <defs>
                                <path id="ArialMT-31" d="M 2384 0
L 1822 0 
L 1822 3584 
Q 1619 3391 1289 3197 
Q 959 3003 697 2906 
L 697 3450 
Q 1169 3672 1522 3987 
Q 1875 4303 2022 4600 
L 2384 4600 
L 2384 0 
z
" transform="scale(0.015625)"/>
                            </defs>
                            <use xlink:href="#ArialMT-31"/>
                            <use xlink:href="#ArialMT-2e" x="55.615234"/>
                            <use xlink:href="#ArialMT-30" x="83.398438"/>
                        </g>
                    </g>
                </g>
                <g id="text_7">
                    <!-- False Positive Rate -->
                    <g style="fill: #262626" transform="translate(193.088125 331.387125) scale(0.1 -0.1)">
                        <defs>
                            <path id="ArialMT-46" d="M 525 0
L 525 4581 
L 3616 4581 
L 3616 4041 
L 1131 4041 
L 1131 2622 
L 3281 2622 
L 3281 2081 
L 1131 2081 
L 1131 0 
L 525 0 
z
" transform="scale(0.015625)"/>
                            <path id="ArialMT-61" d="M 2588 409
Q 2275 144 1986 34 
Q 1697 -75 1366 -75 
Q 819 -75 525 192 
Q 231 459 231 875 
Q 231 1119 342 1320 
Q 453 1522 633 1644 
Q 813 1766 1038 1828 
Q 1203 1872 1538 1913 
Q 2219 1994 2541 2106 
Q 2544 2222 2544 2253 
Q 2544 2597 2384 2738 
Q 2169 2928 1744 2928 
Q 1347 2928 1158 2789 
Q 969 2650 878 2297 
L 328 2372 
Q 403 2725 575 2942 
Q 747 3159 1072 3276 
Q 1397 3394 1825 3394 
Q 2250 3394 2515 3294 
Q 2781 3194 2906 3042 
Q 3031 2891 3081 2659 
Q 3109 2516 3109 2141 
L 3109 1391 
Q 3109 606 3145 398 
Q 3181 191 3288 0 
L 2700 0 
Q 2613 175 2588 409 
z
M 2541 1666 
Q 2234 1541 1622 1453 
Q 1275 1403 1131 1340 
Q 988 1278 909 1158 
Q 831 1038 831 891 
Q 831 666 1001 516 
Q 1172 366 1500 366 
Q 1825 366 2078 508 
Q 2331 650 2450 897 
Q 2541 1088 2541 1459 
L 2541 1666 
z
" transform="scale(0.015625)"/>
                            <path id="ArialMT-6c" d="M 409 0
L 409 4581 
L 972 4581 
L 972 0 
L 409 0 
z
" transform="scale(0.015625)"/>
                            <path id="ArialMT-73" d="M 197 991
L 753 1078 
Q 800 744 1014 566 
Q 1228 388 1613 388 
Q 2000 388 2187 545 
Q 2375 703 2375 916 
Q 2375 1106 2209 1216 
Q 2094 1291 1634 1406 
Q 1016 1563 777 1677 
Q 538 1791 414 1992 
Q 291 2194 291 2438 
Q 291 2659 392 2848 
Q 494 3038 669 3163 
Q 800 3259 1026 3326 
Q 1253 3394 1513 3394 
Q 1903 3394 2198 3281 
Q 2494 3169 2634 2976 
Q 2775 2784 2828 2463 
L 2278 2388 
Q 2241 2644 2061 2787 
Q 1881 2931 1553 2931 
Q 1166 2931 1000 2803 
Q 834 2675 834 2503 
Q 834 2394 903 2306 
Q 972 2216 1119 2156 
Q 1203 2125 1616 2013 
Q 2213 1853 2448 1751 
Q 2684 1650 2818 1456 
Q 2953 1263 2953 975 
Q 2953 694 2789 445 
Q 2625 197 2315 61 
Q 2006 -75 1616 -75 
Q 969 -75 630 194 
Q 291 463 197 991 
z
" transform="scale(0.015625)"/>
                            <path id="ArialMT-65" d="M 2694 1069
L 3275 997 
Q 3138 488 2766 206 
Q 2394 -75 1816 -75 
Q 1088 -75 661 373 
Q 234 822 234 1631 
Q 234 2469 665 2931 
Q 1097 3394 1784 3394 
Q 2450 3394 2872 2941 
Q 3294 2488 3294 1666 
Q 3294 1616 3291 1516 
L 816 1516 
Q 847 969 1125 678 
Q 1403 388 1819 388 
Q 2128 388 2347 550 
Q 2566 713 2694 1069 
z
M 847 1978 
L 2700 1978 
Q 2663 2397 2488 2606 
Q 2219 2931 1791 2931 
Q 1403 2931 1139 2672 
Q 875 2413 847 1978 
z
" transform="scale(0.015625)"/>
                            <path id="ArialMT-20" transform="scale(0.015625)"/>
                            <path id="ArialMT-50" d="M 494 0
L 494 4581 
L 2222 4581 
Q 2678 4581 2919 4538 
Q 3256 4481 3484 4323 
Q 3713 4166 3852 3881 
Q 3991 3597 3991 3256 
Q 3991 2672 3619 2267 
Q 3247 1863 2275 1863 
L 1100 1863 
L 1100 0 
L 494 0 
z
M 1100 2403 
L 2284 2403 
Q 2872 2403 3119 2622 
Q 3366 2841 3366 3238 
Q 3366 3525 3220 3729 
Q 3075 3934 2838 4000 
Q 2684 4041 2272 4041 
L 1100 4041 
L 1100 2403 
z
" transform="scale(0.015625)"/>
                            <path id="ArialMT-6f" d="M 213 1659
Q 213 2581 725 3025 
Q 1153 3394 1769 3394 
Q 2453 3394 2887 2945 
Q 3322 2497 3322 1706 
Q 3322 1066 3130 698 
Q 2938 331 2570 128 
Q 2203 -75 1769 -75 
Q 1072 -75 642 372 
Q 213 819 213 1659 
z
M 791 1659 
Q 791 1022 1069 705 
Q 1347 388 1769 388 
Q 2188 388 2466 706 
Q 2744 1025 2744 1678 
Q 2744 2294 2464 2611 
Q 2184 2928 1769 2928 
Q 1347 2928 1069 2612 
Q 791 2297 791 1659 
z
" transform="scale(0.015625)"/>
                            <path id="ArialMT-69" d="M 425 3934
L 425 4581 
L 988 4581 
L 988 3934 
L 425 3934 
z
M 425 0 
L 425 3319 
L 988 3319 
L 988 0 
L 425 0 
z
" transform="scale(0.015625)"/>
                            <path id="ArialMT-74" d="M 1650 503
L 1731 6 
Q 1494 -44 1306 -44 
Q 1000 -44 831 53 
Q 663 150 594 308 
Q 525 466 525 972 
L 525 2881 
L 113 2881 
L 113 3319 
L 525 3319 
L 525 4141 
L 1084 4478 
L 1084 3319 
L 1650 3319 
L 1650 2881 
L 1084 2881 
L 1084 941 
Q 1084 700 1114 631 
Q 1144 563 1211 522 
Q 1278 481 1403 481 
Q 1497 481 1650 503 
z
" transform="scale(0.015625)"/>
                            <path id="ArialMT-76" d="M 1344 0
L 81 3319 
L 675 3319 
L 1388 1331 
Q 1503 1009 1600 663 
Q 1675 925 1809 1294 
L 2547 3319 
L 3125 3319 
L 1869 0 
L 1344 0 
z
" transform="scale(0.015625)"/>
                            <path id="ArialMT-52" d="M 503 0
L 503 4581 
L 2534 4581 
Q 3147 4581 3465 4457 
Q 3784 4334 3975 4021 
Q 4166 3709 4166 3331 
Q 4166 2844 3850 2509 
Q 3534 2175 2875 2084 
Q 3116 1969 3241 1856 
Q 3506 1613 3744 1247 
L 4541 0 
L 3778 0 
L 3172 953 
Q 2906 1366 2734 1584 
Q 2563 1803 2427 1890 
Q 2291 1978 2150 2013 
Q 2047 2034 1813 2034 
L 1109 2034 
L 1109 0 
L 503 0 
z
M 1109 2559 
L 2413 2559 
Q 2828 2559 3062 2645 
Q 3297 2731 3419 2920 
Q 3541 3109 3541 3331 
Q 3541 3656 3305 3865 
Q 3069 4075 2559 4075 
L 1109 4075 
L 1109 2559 
z
" transform="scale(0.015625)"/>
                        </defs>
                        <use xlink:href="#ArialMT-46"/>
                        <use xlink:href="#ArialMT-61" x="61.083984"/>
                        <use xlink:href="#ArialMT-6c" x="116.699219"/>
                        <use xlink:href="#ArialMT-73" x="138.916016"/>
                        <use xlink:href="#ArialMT-65" x="188.916016"/>
                        <use xlink:href="#ArialMT-20" x="244.53125"/>
                        <use xlink:href="#ArialMT-50" x="272.314453"/>
                        <use xlink:href="#ArialMT-6f" x="339.013672"/>
                        <use xlink:href="#ArialMT-73" x="394.628906"/>
                        <use xlink:href="#ArialMT-69" x="444.628906"/>
                        <use xlink:href="#ArialMT-74" x="466.845703"/>
                        <use xlink:href="#ArialMT-69" x="494.628906"/>
                        <use xlink:href="#ArialMT-76" x="516.845703"/>
                        <use xlink:href="#ArialMT-65" x="566.845703"/>
                        <use xlink:href="#ArialMT-20" x="622.460938"/>
                        <use xlink:href="#ArialMT-52" x="650.244141"/>
                        <use xlink:href="#ArialMT-61" x="722.460938"/>
                        <use xlink:href="#ArialMT-74" x="778.076172"/>
                        <use xlink:href="#ArialMT-65" x="805.859375"/>
                    </g>
                </g>
            </g>
            <g id="matplotlib.axis_2">
                <g id="ytick_1">
                    <g id="line2d_13">
                        <path d="M 57.6 295.488
L 414.72 295.488 
" clip-path="url(#p2210d1336b)" style="fill: none; stroke: #ffffff; stroke-width: 0.8; stroke-linecap: round"/>
                    </g>
                    <g id="line2d_14"/>
                    <g id="text_8">
                        <!-- 0.0 -->
                        <g style="fill: #262626" transform="translate(40.2 299.066906) scale(0.1 -0.1)">
                            <use xlink:href="#ArialMT-30"/>
                            <use xlink:href="#ArialMT-2e" x="55.615234"/>
                            <use xlink:href="#ArialMT-30" x="83.398438"/>
                        </g>
                    </g>
                </g>
                <g id="ytick_2">
                    <g id="line2d_15">
                        <path d="M 57.6 247.104
L 414.72 247.104 
" clip-path="url(#p2210d1336b)" style="fill: none; stroke: #ffffff; stroke-width: 0.8; stroke-linecap: round"/>
                    </g>
                    <g id="line2d_16"/>
                    <g id="text_9">
                        <!-- 0.2 -->
                        <g style="fill: #262626" transform="translate(40.2 250.682906) scale(0.1 -0.1)">
                            <use xlink:href="#ArialMT-30"/>
                            <use xlink:href="#ArialMT-2e" x="55.615234"/>
                            <use xlink:href="#ArialMT-32" x="83.398438"/>
                        </g>
                    </g>
                </g>
                <g id="ytick_3">
                    <g id="line2d_17">
                        <path d="M 57.6 198.72
L 414.72 198.72 
" clip-path="url(#p2210d1336b)" style="fill: none; stroke: #ffffff; stroke-width: 0.8; stroke-linecap: round"/>
                    </g>
                    <g id="line2d_18"/>
                    <g id="text_10">
                        <!-- 0.4 -->
                        <g style="fill: #262626" transform="translate(40.2 202.298906) scale(0.1 -0.1)">
                            <use xlink:href="#ArialMT-30"/>
                            <use xlink:href="#ArialMT-2e" x="55.615234"/>
                            <use xlink:href="#ArialMT-34" x="83.398438"/>
                        </g>
                    </g>
                </g>
                <g id="ytick_4">
                    <g id="line2d_19">
                        <path d="M 57.6 150.336
L 414.72 150.336 
" clip-path="url(#p2210d1336b)" style="fill: none; stroke: #ffffff; stroke-width: 0.8; stroke-linecap: round"/>
                    </g>
                    <g id="line2d_20"/>
                    <g id="text_11">
                        <!-- 0.6 -->
                        <g style="fill: #262626" transform="translate(40.2 153.914906) scale(0.1 -0.1)">
                            <use xlink:href="#ArialMT-30"/>
                            <use xlink:href="#ArialMT-2e" x="55.615234"/>
                            <use xlink:href="#ArialMT-36" x="83.398438"/>
                        </g>
                    </g>
                </g>
                <g id="ytick_5">
                    <g id="line2d_21">
                        <path d="M 57.6 101.952
L 414.72 101.952 
" clip-path="url(#p2210d1336b)" style="fill: none; stroke: #ffffff; stroke-width: 0.8; stroke-linecap: round"/>
                    </g>
                    <g id="line2d_22"/>
                    <g id="text_12">
                        <!-- 0.8 -->
                        <g style="fill: #262626" transform="translate(40.2 105.530906) scale(0.1 -0.1)">
                            <use xlink:href="#ArialMT-30"/>
                            <use xlink:href="#ArialMT-2e" x="55.615234"/>
                            <use xlink:href="#ArialMT-38" x="83.398438"/>
                        </g>
                    </g>
                </g>
                <g id="ytick_6">
                    <g id="line2d_23">
                        <path d="M 57.6 53.568
L 414.72 53.568 
" clip-path="url(#p2210d1336b)" style="fill: none; stroke: #ffffff; stroke-width: 0.8; stroke-linecap: round"/>
                    </g>
                    <g id="line2d_24"/>
                    <g id="text_13">
                        <!-- 1.0 -->
                        <g style="fill: #262626" transform="translate(40.2 57.146906) scale(0.1 -0.1)">
                            <use xlink:href="#ArialMT-31"/>
                            <use xlink:href="#ArialMT-2e" x="55.615234"/>
                            <use xlink:href="#ArialMT-30" x="83.398438"/>
                        </g>
                    </g>
                </g>
                <g id="text_14">
                    <!-- True Positive Rate -->
                    <g style="fill: #262626" transform="translate(34.2125 215.466281) rotate(-90) scale(0.1 -0.1)">
                        <defs>
                            <path id="ArialMT-54" d="M 1659 0
L 1659 4041 
L 150 4041 
L 150 4581 
L 3781 4581 
L 3781 4041 
L 2266 4041 
L 2266 0 
L 1659 0 
z
" transform="scale(0.015625)"/>
                            <path id="ArialMT-72" d="M 416 0
L 416 3319 
L 922 3319 
L 922 2816 
Q 1116 3169 1280 3281 
Q 1444 3394 1641 3394 
Q 1925 3394 2219 3213 
L 2025 2691 
Q 1819 2813 1613 2813 
Q 1428 2813 1281 2702 
Q 1134 2591 1072 2394 
Q 978 2094 978 1738 
L 978 0 
L 416 0 
z
" transform="scale(0.015625)"/>
                            <path id="ArialMT-75" d="M 2597 0
L 2597 488 
Q 2209 -75 1544 -75 
Q 1250 -75 995 37 
Q 741 150 617 320 
Q 494 491 444 738 
Q 409 903 409 1263 
L 409 3319 
L 972 3319 
L 972 1478 
Q 972 1038 1006 884 
Q 1059 663 1231 536 
Q 1403 409 1656 409 
Q 1909 409 2131 539 
Q 2353 669 2445 892 
Q 2538 1116 2538 1541 
L 2538 3319 
L 3100 3319 
L 3100 0 
L 2597 0 
z
" transform="scale(0.015625)"/>
                        </defs>
                        <use xlink:href="#ArialMT-54"/>
                        <use xlink:href="#ArialMT-72" x="57.333984"/>
                        <use xlink:href="#ArialMT-75" x="90.634766"/>
                        <use xlink:href="#ArialMT-65" x="146.25"/>
                        <use xlink:href="#ArialMT-20" x="201.865234"/>
                        <use xlink:href="#ArialMT-50" x="229.648438"/>
                        <use xlink:href="#ArialMT-6f" x="296.347656"/>
                        <use xlink:href="#ArialMT-73" x="351.962891"/>
                        <use xlink:href="#ArialMT-69" x="401.962891"/>
                        <use xlink:href="#ArialMT-74" x="424.179688"/>
                        <use xlink:href="#ArialMT-69" x="451.962891"/>
                        <use xlink:href="#ArialMT-76" x="474.179688"/>
                        <use xlink:href="#ArialMT-65" x="524.179688"/>
                        <use xlink:href="#ArialMT-20" x="579.794922"/>
                        <use xlink:href="#ArialMT-52" x="607.578125"/>
                        <use xlink:href="#ArialMT-61" x="679.794922"/>
                        <use xlink:href="#ArialMT-74" x="735.410156"/>
                        <use xlink:href="#ArialMT-65" x="763.193359"/>
                    </g>
                </g>
            </g>
            <g id="line2d_25">
                <path d="M 73.832727 295.488
L 77.348048 233.286149 
L 77.421284 225.322591 
L 77.49452 225.322591 
L 77.567756 223.977395 
L 77.640992 223.977395 
L 77.714228 218.65042 
L 77.787463 218.65042 
L 77.860699 218.112342 
L 77.933935 218.112342 
L 78.007171 217.466648 
L 78.080407 217.466648 
L 78.153643 216.713338 
L 78.226879 216.713338 
L 78.300114 216.444299 
L 78.37335 216.444299 
L 78.446586 213.000598 
L 78.519822 213.000598 
L 78.519822 212.94679 
L 78.593058 211.978249 
L 78.666294 211.978249 
L 78.73953 210.525438 
L 78.812765 210.525438 
L 78.886001 206.382235 
L 78.959237 206.382235 
L 79.032473 202.938534 
L 79.105709 202.938534 
L 79.105709 202.346648 
L 79.61836 201.754762 
L 79.691596 201.216683 
L 79.764832 201.216683 
L 79.764832 199.333409 
L 79.911303 199.333409 
L 79.984539 198.849139 
L 80.057775 198.849139 
L 80.057775 197.450135 
L 80.204247 197.450135 
L 80.277483 195.566861 
L 80.350718 195.566861 
L 80.423954 195.136399 
L 80.49719 195.136399 
L 80.570426 194.275473 
L 80.643662 194.275473 
L 80.716898 192.87647 
L 80.863369 192.822662 
L 80.936605 191.100811 
L 81.083077 191.100811 
L 81.156313 190.724157 
L 81.37602 190.670349 
L 81.37602 190.40131 
L 81.595728 190.347502 
L 81.668964 190.13227 
L 82.108379 190.024655 
L 82.108379 189.917039 
L 82.254851 189.917039 
L 82.254851 189.809423 
L 82.254851 189.755616 
L 82.547794 189.701808 
L 82.547794 189.648 
L 82.62103 189.217537 
L 82.767502 189.109922 
L 82.840737 188.89469 
L 82.987209 188.840883 
L 82.987209 188.679459 
L 83.133681 188.464228 
L 83.353388 188.464228 
L 83.426624 188.195189 
L 83.792804 188.087573 
L 83.866039 187.603302 
L 83.939275 187.603302 
L 84.012511 186.150491 
L 84.085747 186.150491 
L 84.158983 185.612413 
L 84.232219 185.612413 
L 84.232219 184.912911 
L 84.37869 184.912911 
L 84.451926 184.321025 
L 84.525162 184.321025 
L 84.598398 184.051986 
L 84.818106 183.621523 
L 84.891341 180.393053 
L 84.964577 180.393053 
L 85.037813 179.370705 
L 85.111049 179.370705 
L 85.111049 179.263089 
L 85.184285 175.873196 
L 85.257521 175.873196 
L 85.330757 175.335117 
L 85.477228 175.227502 
L 85.550464 173.236612 
L 85.6237 173.236612 
L 85.696936 172.644726 
L 85.770172 172.53711 
L 85.843408 170.81526 
L 85.989879 170.81526 
L 86.063115 170.384797 
L 86.136351 170.384797 
L 86.136351 170.277181 
L 86.136351 169.147217 
L 86.356058 169.147217 
L 86.429294 168.501523 
L 86.50253 168.501523 
L 86.575766 167.748214 
L 86.722238 167.640598 
L 86.795474 166.34921 
L 86.868709 166.34921 
L 86.941945 165.918747 
L 87.088417 165.86494 
L 87.088417 165.703516 
L 87.234889 165.703516 
L 87.308125 162.690278 
L 87.38136 162.690278 
L 87.454596 162.098391 
L 87.601068 161.990776 
L 87.674304 161.506505 
L 87.820776 161.452698 
L 87.894011 160.537964 
L 87.967247 160.537964 
L 88.040483 159.569423 
L 88.113719 159.569423 
L 88.113719 158.977537 
L 88.62637 157.470918 
L 88.62637 156.825224 
L 88.846078 156.717609 
L 88.919313 155.69526 
L 89.065785 155.587644 
L 89.139021 153.489139 
L 89.212257 153.489139 
L 89.212257 153.2201 
L 89.358729 153.2201 
L 89.358729 152.789637 
L 89.5052 152.789637 
L 89.578436 151.874904 
L 89.651672 151.874904 
L 89.651672 150.960171 
L 89.798144 150.960171 
L 89.87138 149.937822 
L 90.017851 149.884014 
L 90.091087 149.668783 
L 90.164323 149.668783 
L 90.237559 148.431203 
L 90.457266 148.323587 
L 90.457266 148.215972 
L 90.75021 147.946932 
L 90.75021 147.785509 
L 91.116389 147.731701 
L 91.189625 147.462662 
L 91.995219 147.408854 
L 92.141691 147.193623 
L 92.727578 147.086007 
L 92.727578 147.032199 
L 92.800814 147.032199 
L 92.87405 146.978391 
L 93.240229 146.870776 
L 93.240229 146.816968 
L 93.826116 146.709352 
L 93.899352 146.547929 
L 94.338767 146.547929 
L 94.924654 145.417964 
L 95.657012 145.364157 
L 95.730248 145.202733 
L 96.023191 145.095117 
L 96.096427 144.77227 
L 96.316135 144.77227 
L 96.316135 144.610847 
L 96.609078 144.503231 
L 96.609078 144.395616 
L 96.902022 144.288 
L 96.902022 144.180384 
L 97.048493 144.180384 
L 97.048493 143.80373 
L 97.341437 143.696114 
L 97.414673 143.480883 
L 97.487908 143.480883 
L 97.561144 143.158036 
L 97.707616 143.158036 
L 97.780852 142.942804 
L 97.927324 142.888996 
L 97.927324 142.781381 
L 98.147031 142.673765 
L 98.147031 142.619957 
L 98.586446 142.350918 
L 98.586446 142.189495 
L 98.732918 142.189495 
L 98.806154 141.382377 
L 99.025861 141.328569 
L 99.099097 140.790491 
L 99.172333 140.790491 
L 99.245569 139.82195 
L 99.465277 139.768142 
L 99.538512 139.283872 
L 99.611748 139.176256 
L 99.904692 138.153907 
L 99.977928 138.153907 
L 100.051163 137.508214 
L 100.197635 137.400598 
L 100.417343 137.131559 
L 100.490579 135.947786 
L 100.63705 135.947786 
L 100.63705 135.302093 
L 100.783522 135.302093 
L 100.856758 134.387359 
L 100.929994 134.387359 
L 101.003229 133.956897 
L 101.076465 133.956897 
L 101.149701 133.580242 
L 101.222937 133.580242 
L 101.222937 133.472626 
L 101.296173 133.418819 
L 101.369409 131.912199 
L 101.51588 131.858391 
L 101.589116 130.297964 
L 101.735588 130.297964 
L 101.808824 129.114192 
L 101.88206 129.114192 
L 101.88206 128.629922 
L 102.028531 128.629922 
L 102.101767 128.41469 
L 102.175003 128.41469 
L 102.248239 127.230918 
L 102.394711 127.17711 
L 102.467947 126.800456 
L 102.541182 126.800456 
L 102.614418 126.262377 
L 102.76089 126.208569 
L 102.834126 125.401452 
L 103.053833 125.293836 
L 103.127069 124.809566 
L 103.200305 124.809566 
L 103.273541 124.056256 
L 103.346777 124.056256 
L 103.420013 123.679601 
L 103.566484 123.679601 
L 103.63972 123.356754 
L 103.712956 123.249139 
L 104.298843 121.850135 
L 104.445315 121.850135 
L 104.518551 121.47348 
L 104.591786 121.47348 
L 104.665022 120.98921 
L 104.811494 120.98921 
L 104.88473 120.074477 
L 104.957966 120.074477 
L 105.031202 119.428783 
L 105.104437 119.428783 
L 105.177673 118.783089 
L 105.250909 118.783089 
L 105.324145 118.298819 
L 105.617088 118.245011 
L 105.690324 117.922164 
L 105.910032 117.868356 
L 105.983268 117.222662 
L 106.202975 117.168854 
L 106.276211 116.630776 
L 106.349447 116.630776 
L 106.422683 116.146505 
L 106.64239 116.03889 
L 106.64239 115.931274 
L 106.788862 115.931274 
L 106.862098 115.662235 
L 106.935334 115.662235 
L 107.00857 115.339388 
L 107.081805 115.339388 
L 107.155041 114.53227 
L 107.374749 114.424655 
L 107.447985 114.263231 
L 107.521221 114.263231 
L 107.594456 114.048 
L 107.740928 114.048 
L 107.814164 113.56373 
L 108.107107 113.456114 
L 108.107107 113.402306 
L 108.692994 113.025651 
L 109.64506 112.971843 
L 109.64506 112.864228 
L 110.377419 112.81042 
L 110.450655 112.648996 
L 110.816834 112.648996 
L 110.816834 112.487573 
L 111.549193 112.379957 
L 111.549193 112.326149 
L 111.988608 112.326149 
L 111.988608 112.164726 
L 112.64773 112.05711 
L 112.720966 111.949495 
L 114.698334 111.841879 
L 114.77157 111.788071 
L 115.503929 111.734263 
L 115.503929 111.57284 
L 116.748938 111.465224 
L 116.748938 111.411416 
L 117.041882 111.357609 
L 117.115118 111.196185 
L 117.627769 111.088569 
L 117.627769 111.034762 
L 118.579835 110.927146 
L 118.579835 110.873338 
L 118.799542 110.873338 
L 118.872778 110.658107 
L 119.01925 110.658107 
L 119.605137 109.366719 
L 120.044552 109.259103 
L 120.044552 109.09768 
L 120.703675 108.990064 
L 120.77691 108.828641 
L 120.850146 108.828641 
L 120.850146 108.613409 
L 120.996618 108.613409 
L 120.996618 108.505794 
L 121.14309 108.451986 
L 121.216325 107.8601 
L 121.289561 107.8601 
L 121.362797 107.375829 
L 121.509269 107.375829 
L 121.582505 107.052982 
L 121.948684 106.999174 
L 122.02192 106.730135 
L 122.314863 106.62252 
L 122.388099 106.35348 
L 122.534571 106.35348 
L 122.607807 105.492555 
L 122.754278 105.38494 
L 122.827514 105.008285 
L 122.90075 104.954477 
L 122.90075 104.739246 
L 123.120458 104.63163 
L 123.193694 104.470206 
L 123.559873 104.362591 
L 123.559873 103.985936 
L 123.926052 103.932128 
L 123.999288 102.855972 
L 124.14576 102.748356 
L 124.218996 102.371701 
L 124.365467 102.317893 
L 124.365467 101.510776 
L 124.585175 101.40316 
L 124.585175 101.295544 
L 124.804882 101.187929 
L 124.878118 100.703658 
L 125.02459 100.596043 
L 125.097826 100.111772 
L 125.244298 100.111772 
L 125.317533 99.519886 
L 125.390769 99.519886 
L 125.464005 99.143231 
L 125.610477 99.143231 
L 125.683713 98.336114 
L 126.123128 98.228498 
L 126.196364 97.905651 
L 126.269599 97.905651 
L 126.342835 97.259957 
L 126.416071 97.259957 
L 126.489307 96.668071 
L 126.635779 96.668071 
L 126.635779 96.45284 
L 126.855486 96.45284 
L 126.928722 96.129993 
L 127.001958 96.129993 
L 127.001958 95.860954 
L 128.02726 94.354335 
L 128.100496 94.031488 
L 128.320203 93.923872 
L 128.393439 93.816256 
L 128.686383 93.708641 
L 128.759619 93.601025 
L 128.832854 93.601025 
L 128.90609 93.009139 
L 128.979326 93.009139 
L 128.979326 92.847715 
L 129.125798 92.847715 
L 129.199034 92.632484 
L 129.418741 92.524868 
L 129.491977 92.148214 
L 129.565213 92.148214 
L 129.638449 91.879174 
L 129.711685 91.879174 
L 129.784921 91.448712 
L 129.858156 91.448712 
L 129.931392 90.910633 
L 130.1511 90.803018 
L 130.224336 90.480171 
L 130.370807 90.372555 
L 130.444043 89.9959 
L 130.736987 89.888285 
L 130.810223 89.726861 
L 130.883458 89.726861 
L 130.883458 89.457822 
L 131.469345 89.404014 
L 131.542581 88.973552 
L 132.27494 88.865936 
L 132.27494 88.704512 
L 132.567883 88.650705 
L 132.641119 88.435473 
L 132.714355 88.435473 
L 132.787591 88.220242 
L 133.446713 88.112626 
L 133.446713 88.058819 
L 134.618487 87.951203 
L 134.618487 87.897395 
L 135.204374 87.789779 
L 135.204374 87.628356 
L 135.570553 87.574548 
L 135.570553 87.413125 
L 136.009968 87.413125 
L 136.009968 87.305509 
L 136.009968 87.251701 
L 136.376147 87.144085 
L 136.376147 87.090278 
L 137.694393 87.03647 
L 137.767629 86.821238 
L 140.111176 86.713623 
L 140.111176 86.659815 
L 141.28295 86.552199 
L 141.28295 86.444584 
L 141.429421 86.390776 
L 142.16178 86.28316 
L 142.235016 86.121737 
L 142.967374 86.014121 
L 142.967374 85.960313 
L 143.260318 85.960313 
L 143.260318 85.906505 
L 143.553261 85.637466 
L 146.40946 85.529851 
L 146.40946 85.476043 
L 148.020648 85.368427 
L 148.020648 85.314619 
L 149.631837 85.207004 
L 149.705073 85.099388 
L 150.144488 84.991772 
L 151.023318 84.399886 
L 151.023318 84.346078 
L 151.16979 84.346078 
L 151.243026 84.130847 
L 151.535969 84.023231 
L 151.609205 83.915616 
L 151.682441 83.915616 
L 151.682441 83.754192 
L 151.828913 83.754192 
L 151.828913 83.592769 
L 152.04862 83.538961 
L 152.04862 83.431345 
L 152.341564 83.32373 
L 152.4148 83.162306 
L 152.488036 83.162306 
L 152.488036 82.947075 
L 152.634507 82.947075 
L 152.634507 82.785651 
L 153.073922 82.678036 
L 153.073922 82.462804 
L 153.366866 82.408996 
L 153.440102 81.548071 
L 153.806281 81.494263 
L 153.879517 81.171416 
L 154.025989 81.117609 
L 154.099224 80.902377 
L 154.17246 80.902377 
L 154.245696 80.149068 
L 154.318932 80.149068 
L 154.392168 79.933836 
L 154.611875 79.933836 
L 154.685111 79.557181 
L 154.758347 79.557181 
L 154.831583 79.126719 
L 154.978055 79.072911 
L 155.051291 78.803872 
L 155.197762 78.696256 
L 155.490706 78.481025 
L 155.490706 78.265794 
L 155.783649 78.158178 
L 155.783649 77.835331 
L 156.076592 77.835331 
L 156.149828 77.404868 
L 156.223064 77.404868 
L 156.2963 77.028214 
L 156.442772 77.028214 
L 156.442772 76.759174 
L 156.516008 76.759174 
L 156.662479 76.705367 
L 157.54131 75.683018 
L 157.54131 75.198747 
L 157.834253 75.091132 
L 157.907489 74.822093 
L 158.053961 74.822093 
L 158.127196 74.553053 
L 158.200432 74.553053 
L 158.273668 74.068783 
L 158.566612 73.961167 
L 158.566612 73.907359 
L 158.859555 73.799744 
L 158.859555 73.63832 
L 159.152498 73.584512 
L 159.225734 73.261665 
L 159.29897 73.261665 
L 159.29897 72.992626 
L 159.738385 72.938819 
L 159.738385 72.831203 
L 159.958093 72.723587 
L 160.031329 72.508356 
L 160.1778 72.454548 
L 160.251036 72.239317 
L 160.617216 72.131701 
L 160.690451 71.701238 
L 161.569282 71.593623 
L 161.569282 71.539815 
L 162.081933 71.486007 
L 162.081933 71.378391 
L 162.594584 71.270776 
L 162.594584 71.216968 
L 163.912829 71.109352 
L 163.912829 71.055544 
L 166.402848 70.947929 
L 166.402848 70.894121 
L 167.42815 70.786505 
L 167.42815 70.732698 
L 169.698462 70.625082 
L 169.771697 70.463658 
L 171.529358 70.356043 
L 171.529358 70.302235 
L 174.019377 70.194619 
L 174.019377 70.140811 
L 175.630566 70.087004 
L 176.216453 69.817964 
L 181.123255 69.710349 
L 181.123255 69.656541 
L 186.396236 69.548925 
L 186.396236 69.44131 
L 187.494774 69.333694 
L 187.56801 69.279886 
L 189.252435 69.17227 
L 189.325671 69.010847 
L 189.618614 69.010847 
L 189.618614 68.795616 
L 189.984793 68.741808 
L 190.058029 68.580384 
L 190.863624 68.472769 
L 190.93686 68.365153 
L 191.303039 68.257537 
L 191.303039 68.149922 
L 191.522746 68.096114 
L 191.595982 67.880883 
L 192.108633 67.504228 
L 192.69452 67.45042 
L 192.767756 66.858534 
L 192.914228 66.858534 
L 192.914228 66.804726 
L 192.914228 66.643302 
L 193.353643 66.589495 
L 193.353643 66.428071 
L 193.646586 66.374263 
L 193.719822 66.21284 
L 193.93953 66.159032 
L 194.012765 65.889993 
L 194.305709 65.889993 
L 194.305709 65.567146 
L 194.745124 65.45953 
L 194.81836 65.351915 
L 195.184539 65.244299 
L 195.184539 65.190491 
L 196.283077 64.706221 
L 196.283077 64.544797 
L 196.9422 64.437181 
L 196.9422 64.329566 
L 197.308379 64.22195 
L 197.308379 64.168142 
L 197.454851 64.168142 
L 197.454851 63.952911 
L 197.601322 63.952911 
L 197.674558 63.683872 
L 197.894266 63.630064 
L 197.967502 63.091986 
L 198.333681 63.091986 
L 198.406917 62.822947 
L 198.846332 62.715331 
L 198.919568 62.5001 
L 199.212511 62.392484 
L 199.212511 62.23106 
L 199.725162 62.123445 
L 199.798398 61.962021 
L 200.603992 61.908214 
L 200.677228 61.74679 
L 201.336351 61.639174 
L 201.409587 61.531559 
L 201.775766 61.423943 
L 201.849002 61.208712 
L 202.141945 61.101096 
L 202.141945 61.047288 
L 202.508125 60.939673 
L 202.508125 60.724441 
L 203.167247 60.670633 
L 203.167247 60.563018 
L 203.679898 60.455402 
L 203.679898 60.401594 
L 204.558729 60.293979 
L 204.631964 60.186363 
L 205.437559 60.078747 
L 205.437559 60.02494 
L 205.803738 60.02494 
L 205.803738 59.917324 
L 205.95021 59.863516 
L 206.82904 59.809708 
L 206.82904 59.702093 
L 209.099352 59.594477 
L 209.099352 59.540669 
L 210.197889 59.486861 
L 210.271125 59.325438 
L 212.687908 59.217822 
L 212.687908 59.164014 
L 216.789116 59.110206 
L 218.107362 58.948783 
L 226.675957 58.841167 
L 226.749193 58.787359 
L 245.131392 58.733552 
L 398.487273 53.568 
L 398.487273 53.568 
" clip-path="url(#p2210d1336b)" style="fill: none; stroke: #1f77b4; stroke-width: 1.5; stroke-linecap: round"/>
            </g>
            <g id="patch_3">
                <path d="M 57.6 307.584
L 57.6 41.472 
" style="fill: none"/>
            </g>
            <g id="patch_4">
                <path d="M 414.72 307.584
L 414.72 41.472 
" style="fill: none"/>
            </g>
            <g id="patch_5">
                <path d="M 57.6 307.584
L 414.72 307.584 
" style="fill: none"/>
            </g>
            <g id="patch_6">
                <path d="M 57.6 41.472
L 414.72 41.472 
" style="fill: none"/>
            </g>
            <g id="legend_1">
                <g id="line2d_26">
                    <path d="M 325.748125 293.0965
L 335.748125 293.0965 
L 345.748125 293.0965 
" style="fill: none; stroke: #1f77b4; stroke-width: 1.5; stroke-linecap: round"/>
                </g>
                <g id="text_15">
                    <!-- AUC = 0.91 -->
                    <g style="fill: #262626" transform="translate(353.748125 296.5965) scale(0.1 -0.1)">
                        <defs>
                            <path id="ArialMT-41" d="M -9 0
L 1750 4581 
L 2403 4581 
L 4278 0 
L 3588 0 
L 3053 1388 
L 1138 1388 
L 634 0 
L -9 0 
z
M 1313 1881 
L 2866 1881 
L 2388 3150 
Q 2169 3728 2063 4100 
Q 1975 3659 1816 3225 
L 1313 1881 
z
" transform="scale(0.015625)"/>
                            <path id="ArialMT-55" d="M 3500 4581
L 4106 4581 
L 4106 1934 
Q 4106 1244 3950 837 
Q 3794 431 3386 176 
Q 2978 -78 2316 -78 
Q 1672 -78 1262 144 
Q 853 366 678 786 
Q 503 1206 503 1934 
L 503 4581 
L 1109 4581 
L 1109 1938 
Q 1109 1341 1220 1058 
Q 1331 775 1601 622 
Q 1872 469 2263 469 
Q 2931 469 3215 772 
Q 3500 1075 3500 1938 
L 3500 4581 
z
" transform="scale(0.015625)"/>
                            <path id="ArialMT-43" d="M 3763 1606
L 4369 1453 
Q 4178 706 3683 314 
Q 3188 -78 2472 -78 
Q 1731 -78 1267 223 
Q 803 525 561 1097 
Q 319 1669 319 2325 
Q 319 3041 592 3573 
Q 866 4106 1370 4382 
Q 1875 4659 2481 4659 
Q 3169 4659 3637 4309 
Q 4106 3959 4291 3325 
L 3694 3184 
Q 3534 3684 3231 3912 
Q 2928 4141 2469 4141 
Q 1941 4141 1586 3887 
Q 1231 3634 1087 3207 
Q 944 2781 944 2328 
Q 944 1744 1114 1308 
Q 1284 872 1643 656 
Q 2003 441 2422 441 
Q 2931 441 3284 734 
Q 3638 1028 3763 1606 
z
" transform="scale(0.015625)"/>
                            <path id="ArialMT-3d" d="M 3381 2694
L 356 2694 
L 356 3219 
L 3381 3219 
L 3381 2694 
z
M 3381 1303 
L 356 1303 
L 356 1828 
L 3381 1828 
L 3381 1303 
z
" transform="scale(0.015625)"/>
                            <path id="ArialMT-39" d="M 350 1059
L 891 1109 
Q 959 728 1153 556 
Q 1347 384 1650 384 
Q 1909 384 2104 503 
Q 2300 622 2425 820 
Q 2550 1019 2634 1356 
Q 2719 1694 2719 2044 
Q 2719 2081 2716 2156 
Q 2547 1888 2255 1720 
Q 1963 1553 1622 1553 
Q 1053 1553 659 1965 
Q 266 2378 266 3053 
Q 266 3750 677 4175 
Q 1088 4600 1706 4600 
Q 2153 4600 2523 4359 
Q 2894 4119 3086 3673 
Q 3278 3228 3278 2384 
Q 3278 1506 3087 986 
Q 2897 466 2520 194 
Q 2144 -78 1638 -78 
Q 1100 -78 759 220 
Q 419 519 350 1059 
z
M 2653 3081 
Q 2653 3566 2395 3850 
Q 2138 4134 1775 4134 
Q 1400 4134 1122 3828 
Q 844 3522 844 3034 
Q 844 2597 1108 2323 
Q 1372 2050 1759 2050 
Q 2150 2050 2401 2323 
Q 2653 2597 2653 3081 
z
" transform="scale(0.015625)"/>
                        </defs>
                        <use xlink:href="#ArialMT-41"/>
                        <use xlink:href="#ArialMT-55" x="66.699219"/>
                        <use xlink:href="#ArialMT-43" x="138.916016"/>
                        <use xlink:href="#ArialMT-20" x="211.132812"/>
                        <use xlink:href="#ArialMT-3d" x="238.916016"/>
                        <use xlink:href="#ArialMT-20" x="297.314453"/>
                        <use xlink:href="#ArialMT-30" x="325.097656"/>
                        <use xlink:href="#ArialMT-2e" x="380.712891"/>
                        <use xlink:href="#ArialMT-39" x="408.496094"/>
                        <use xlink:href="#ArialMT-31" x="464.111328"/>
                    </g>
                </g>
            </g>
        </g>
    </g>
    <defs>
        <clipPath id="p2210d1336b">
            <rect x="57.6" y="41.472" width="357.12" height="266.112"/>
        </clipPath>
    </defs>
</svg>
