<?xml version="1.0" encoding="utf-8" standalone="no"?>
<!DOCTYPE svg PUBLIC "-//W3C//DTD SVG 1.1//EN"
        "http://www.w3.org/Graphics/SVG/1.1/DTD/svg11.dtd">
<svg xmlns:xlink="http://www.w3.org/1999/xlink" width="460.8pt" height="345.6pt" viewBox="0 0 460.8 345.6"
     xmlns="http://www.w3.org/2000/svg" version="1.1">
    <metadata>
        <rdf:RDF xmlns:dc="http://purl.org/dc/elements/1.1/" xmlns:cc="http://creativecommons.org/ns#"
                 xmlns:rdf="http://www.w3.org/1999/02/22-rdf-syntax-ns#">
            <cc:Work>
                <dc:type rdf:resource="http://purl.org/dc/dcmitype/StillImage"/>
                <dc:date>2022-11-19T22:40:28.214569</dc:date>
                <dc:format>image/svg+xml</dc:format>
                <dc:creator>
                    <cc:Agent>
                        <dc:title>Matplotlib v3.6.2, https://matplotlib.org/</dc:title>
                    </cc:Agent>
                </dc:creator>
            </cc:Work>
        </rdf:RDF>
    </metadata>
    <defs>
        <style type="text/css">*{stroke-linejoin: round; stroke-linecap: butt}</style>
    </defs>
    <g id="figure_1">
        <g id="patch_1">
            <path d="M 0 345.6
L 460.8 345.6 
L 460.8 0 
L 0 0 
z
" style="fill: #ffffff"/>
        </g>
        <g id="axes_1">
            <g id="patch_2">
                <path d="M 57.6 307.584
L 414.72 307.584 
L 414.72 41.472 
L 57.6 41.472 
z
" style="fill: #ffffff"/>
            </g>
            <g id="matplotlib.axis_1">
                <g id="xtick_1">
                    <g id="line2d_1">
                        <defs>
                            <path id="medef05a59f" d="M 0 0
L 0 3.5 
" style="stroke: #000000; stroke-width: 0.8"/>
                        </defs>
                        <g>
                            <use xlink:href="#medef05a59f" x="73.832727" y="307.584"
                                 style="stroke: #000000; stroke-width: 0.8"/>
                        </g>
                    </g>
                    <g id="text_1">
                        <!-- 0.0 -->
                        <g transform="translate(65.881165 322.182437) scale(0.1 -0.1)">
                            <defs>
                                <path id="DejaVuSans-30" d="M 2034 4250
Q 1547 4250 1301 3770 
Q 1056 3291 1056 2328 
Q 1056 1369 1301 889 
Q 1547 409 2034 409 
Q 2525 409 2770 889 
Q 3016 1369 3016 2328 
Q 3016 3291 2770 3770 
Q 2525 4250 2034 4250 
z
M 2034 4750 
Q 2819 4750 3233 4129 
Q 3647 3509 3647 2328 
Q 3647 1150 3233 529 
Q 2819 -91 2034 -91 
Q 1250 -91 836 529 
Q 422 1150 422 2328 
Q 422 3509 836 4129 
Q 1250 4750 2034 4750 
z
" transform="scale(0.015625)"/>
                                <path id="DejaVuSans-2e" d="M 684 794
L 1344 794 
L 1344 0 
L 684 0 
L 684 794 
z
" transform="scale(0.015625)"/>
                            </defs>
                            <use xlink:href="#DejaVuSans-30"/>
                            <use xlink:href="#DejaVuSans-2e" x="63.623047"/>
                            <use xlink:href="#DejaVuSans-30" x="95.410156"/>
                        </g>
                    </g>
                </g>
                <g id="xtick_2">
                    <g id="line2d_2">
                        <g>
                            <use xlink:href="#medef05a59f" x="138.763636" y="307.584"
                                 style="stroke: #000000; stroke-width: 0.8"/>
                        </g>
                    </g>
                    <g id="text_2">
                        <!-- 0.2 -->
                        <g transform="translate(130.812074 322.182437) scale(0.1 -0.1)">
                            <defs>
                                <path id="DejaVuSans-32" d="M 1228 531
L 3431 531 
L 3431 0 
L 469 0 
L 469 531 
Q 828 903 1448 1529 
Q 2069 2156 2228 2338 
Q 2531 2678 2651 2914 
Q 2772 3150 2772 3378 
Q 2772 3750 2511 3984 
Q 2250 4219 1831 4219 
Q 1534 4219 1204 4116 
Q 875 4013 500 3803 
L 500 4441 
Q 881 4594 1212 4672 
Q 1544 4750 1819 4750 
Q 2544 4750 2975 4387 
Q 3406 4025 3406 3419 
Q 3406 3131 3298 2873 
Q 3191 2616 2906 2266 
Q 2828 2175 2409 1742 
Q 1991 1309 1228 531 
z
" transform="scale(0.015625)"/>
                            </defs>
                            <use xlink:href="#DejaVuSans-30"/>
                            <use xlink:href="#DejaVuSans-2e" x="63.623047"/>
                            <use xlink:href="#DejaVuSans-32" x="95.410156"/>
                        </g>
                    </g>
                </g>
                <g id="xtick_3">
                    <g id="line2d_3">
                        <g>
                            <use xlink:href="#medef05a59f" x="203.694545" y="307.584"
                                 style="stroke: #000000; stroke-width: 0.8"/>
                        </g>
                    </g>
                    <g id="text_3">
                        <!-- 0.4 -->
                        <g transform="translate(195.742983 322.182437) scale(0.1 -0.1)">
                            <defs>
                                <path id="DejaVuSans-34" d="M 2419 4116
L 825 1625 
L 2419 1625 
L 2419 4116 
z
M 2253 4666 
L 3047 4666 
L 3047 1625 
L 3713 1625 
L 3713 1100 
L 3047 1100 
L 3047 0 
L 2419 0 
L 2419 1100 
L 313 1100 
L 313 1709 
L 2253 4666 
z
" transform="scale(0.015625)"/>
                            </defs>
                            <use xlink:href="#DejaVuSans-30"/>
                            <use xlink:href="#DejaVuSans-2e" x="63.623047"/>
                            <use xlink:href="#DejaVuSans-34" x="95.410156"/>
                        </g>
                    </g>
                </g>
                <g id="xtick_4">
                    <g id="line2d_4">
                        <g>
                            <use xlink:href="#medef05a59f" x="268.625455" y="307.584"
                                 style="stroke: #000000; stroke-width: 0.8"/>
                        </g>
                    </g>
                    <g id="text_4">
                        <!-- 0.6 -->
                        <g transform="translate(260.673892 322.182437) scale(0.1 -0.1)">
                            <defs>
                                <path id="DejaVuSans-36" d="M 2113 2584
Q 1688 2584 1439 2293 
Q 1191 2003 1191 1497 
Q 1191 994 1439 701 
Q 1688 409 2113 409 
Q 2538 409 2786 701 
Q 3034 994 3034 1497 
Q 3034 2003 2786 2293 
Q 2538 2584 2113 2584 
z
M 3366 4563 
L 3366 3988 
Q 3128 4100 2886 4159 
Q 2644 4219 2406 4219 
Q 1781 4219 1451 3797 
Q 1122 3375 1075 2522 
Q 1259 2794 1537 2939 
Q 1816 3084 2150 3084 
Q 2853 3084 3261 2657 
Q 3669 2231 3669 1497 
Q 3669 778 3244 343 
Q 2819 -91 2113 -91 
Q 1303 -91 875 529 
Q 447 1150 447 2328 
Q 447 3434 972 4092 
Q 1497 4750 2381 4750 
Q 2619 4750 2861 4703 
Q 3103 4656 3366 4563 
z
" transform="scale(0.015625)"/>
                            </defs>
                            <use xlink:href="#DejaVuSans-30"/>
                            <use xlink:href="#DejaVuSans-2e" x="63.623047"/>
                            <use xlink:href="#DejaVuSans-36" x="95.410156"/>
                        </g>
                    </g>
                </g>
                <g id="xtick_5">
                    <g id="line2d_5">
                        <g>
                            <use xlink:href="#medef05a59f" x="333.556364" y="307.584"
                                 style="stroke: #000000; stroke-width: 0.8"/>
                        </g>
                    </g>
                    <g id="text_5">
                        <!-- 0.8 -->
                        <g transform="translate(325.604801 322.182437) scale(0.1 -0.1)">
                            <defs>
                                <path id="DejaVuSans-38" d="M 2034 2216
Q 1584 2216 1326 1975 
Q 1069 1734 1069 1313 
Q 1069 891 1326 650 
Q 1584 409 2034 409 
Q 2484 409 2743 651 
Q 3003 894 3003 1313 
Q 3003 1734 2745 1975 
Q 2488 2216 2034 2216 
z
M 1403 2484 
Q 997 2584 770 2862 
Q 544 3141 544 3541 
Q 544 4100 942 4425 
Q 1341 4750 2034 4750 
Q 2731 4750 3128 4425 
Q 3525 4100 3525 3541 
Q 3525 3141 3298 2862 
Q 3072 2584 2669 2484 
Q 3125 2378 3379 2068 
Q 3634 1759 3634 1313 
Q 3634 634 3220 271 
Q 2806 -91 2034 -91 
Q 1263 -91 848 271 
Q 434 634 434 1313 
Q 434 1759 690 2068 
Q 947 2378 1403 2484 
z
M 1172 3481 
Q 1172 3119 1398 2916 
Q 1625 2713 2034 2713 
Q 2441 2713 2670 2916 
Q 2900 3119 2900 3481 
Q 2900 3844 2670 4047 
Q 2441 4250 2034 4250 
Q 1625 4250 1398 4047 
Q 1172 3844 1172 3481 
z
" transform="scale(0.015625)"/>
                            </defs>
                            <use xlink:href="#DejaVuSans-30"/>
                            <use xlink:href="#DejaVuSans-2e" x="63.623047"/>
                            <use xlink:href="#DejaVuSans-38" x="95.410156"/>
                        </g>
                    </g>
                </g>
                <g id="xtick_6">
                    <g id="line2d_6">
                        <g>
                            <use xlink:href="#medef05a59f" x="398.487273" y="307.584"
                                 style="stroke: #000000; stroke-width: 0.8"/>
                        </g>
                    </g>
                    <g id="text_6">
                        <!-- 1.0 -->
                        <g transform="translate(390.53571 322.182437) scale(0.1 -0.1)">
                            <defs>
                                <path id="DejaVuSans-31" d="M 794 531
L 1825 531 
L 1825 4091 
L 703 3866 
L 703 4441 
L 1819 4666 
L 2450 4666 
L 2450 531 
L 3481 531 
L 3481 0 
L 794 0 
L 794 531 
z
" transform="scale(0.015625)"/>
                            </defs>
                            <use xlink:href="#DejaVuSans-31"/>
                            <use xlink:href="#DejaVuSans-2e" x="63.623047"/>
                            <use xlink:href="#DejaVuSans-30" x="95.410156"/>
                        </g>
                    </g>
                </g>
                <g id="text_7">
                    <!-- False Positive Rate (Positive label: 1) -->
                    <g transform="translate(144.794375 335.860562) scale(0.1 -0.1)">
                        <defs>
                            <path id="DejaVuSans-46" d="M 628 4666
L 3309 4666 
L 3309 4134 
L 1259 4134 
L 1259 2759 
L 3109 2759 
L 3109 2228 
L 1259 2228 
L 1259 0 
L 628 0 
L 628 4666 
z
" transform="scale(0.015625)"/>
                            <path id="DejaVuSans-61" d="M 2194 1759
Q 1497 1759 1228 1600 
Q 959 1441 959 1056 
Q 959 750 1161 570 
Q 1363 391 1709 391 
Q 2188 391 2477 730 
Q 2766 1069 2766 1631 
L 2766 1759 
L 2194 1759 
z
M 3341 1997 
L 3341 0 
L 2766 0 
L 2766 531 
Q 2569 213 2275 61 
Q 1981 -91 1556 -91 
Q 1019 -91 701 211 
Q 384 513 384 1019 
Q 384 1609 779 1909 
Q 1175 2209 1959 2209 
L 2766 2209 
L 2766 2266 
Q 2766 2663 2505 2880 
Q 2244 3097 1772 3097 
Q 1472 3097 1187 3025 
Q 903 2953 641 2809 
L 641 3341 
Q 956 3463 1253 3523 
Q 1550 3584 1831 3584 
Q 2591 3584 2966 3190 
Q 3341 2797 3341 1997 
z
" transform="scale(0.015625)"/>
                            <path id="DejaVuSans-6c" d="M 603 4863
L 1178 4863 
L 1178 0 
L 603 0 
L 603 4863 
z
" transform="scale(0.015625)"/>
                            <path id="DejaVuSans-73" d="M 2834 3397
L 2834 2853 
Q 2591 2978 2328 3040 
Q 2066 3103 1784 3103 
Q 1356 3103 1142 2972 
Q 928 2841 928 2578 
Q 928 2378 1081 2264 
Q 1234 2150 1697 2047 
L 1894 2003 
Q 2506 1872 2764 1633 
Q 3022 1394 3022 966 
Q 3022 478 2636 193 
Q 2250 -91 1575 -91 
Q 1294 -91 989 -36 
Q 684 19 347 128 
L 347 722 
Q 666 556 975 473 
Q 1284 391 1588 391 
Q 1994 391 2212 530 
Q 2431 669 2431 922 
Q 2431 1156 2273 1281 
Q 2116 1406 1581 1522 
L 1381 1569 
Q 847 1681 609 1914 
Q 372 2147 372 2553 
Q 372 3047 722 3315 
Q 1072 3584 1716 3584 
Q 2034 3584 2315 3537 
Q 2597 3491 2834 3397 
z
" transform="scale(0.015625)"/>
                            <path id="DejaVuSans-65" d="M 3597 1894
L 3597 1613 
L 953 1613 
Q 991 1019 1311 708 
Q 1631 397 2203 397 
Q 2534 397 2845 478 
Q 3156 559 3463 722 
L 3463 178 
Q 3153 47 2828 -22 
Q 2503 -91 2169 -91 
Q 1331 -91 842 396 
Q 353 884 353 1716 
Q 353 2575 817 3079 
Q 1281 3584 2069 3584 
Q 2775 3584 3186 3129 
Q 3597 2675 3597 1894 
z
M 3022 2063 
Q 3016 2534 2758 2815 
Q 2500 3097 2075 3097 
Q 1594 3097 1305 2825 
Q 1016 2553 972 2059 
L 3022 2063 
z
" transform="scale(0.015625)"/>
                            <path id="DejaVuSans-20" transform="scale(0.015625)"/>
                            <path id="DejaVuSans-50" d="M 1259 4147
L 1259 2394 
L 2053 2394 
Q 2494 2394 2734 2622 
Q 2975 2850 2975 3272 
Q 2975 3691 2734 3919 
Q 2494 4147 2053 4147 
L 1259 4147 
z
M 628 4666 
L 2053 4666 
Q 2838 4666 3239 4311 
Q 3641 3956 3641 3272 
Q 3641 2581 3239 2228 
Q 2838 1875 2053 1875 
L 1259 1875 
L 1259 0 
L 628 0 
L 628 4666 
z
" transform="scale(0.015625)"/>
                            <path id="DejaVuSans-6f" d="M 1959 3097
Q 1497 3097 1228 2736 
Q 959 2375 959 1747 
Q 959 1119 1226 758 
Q 1494 397 1959 397 
Q 2419 397 2687 759 
Q 2956 1122 2956 1747 
Q 2956 2369 2687 2733 
Q 2419 3097 1959 3097 
z
M 1959 3584 
Q 2709 3584 3137 3096 
Q 3566 2609 3566 1747 
Q 3566 888 3137 398 
Q 2709 -91 1959 -91 
Q 1206 -91 779 398 
Q 353 888 353 1747 
Q 353 2609 779 3096 
Q 1206 3584 1959 3584 
z
" transform="scale(0.015625)"/>
                            <path id="DejaVuSans-69" d="M 603 3500
L 1178 3500 
L 1178 0 
L 603 0 
L 603 3500 
z
M 603 4863 
L 1178 4863 
L 1178 4134 
L 603 4134 
L 603 4863 
z
" transform="scale(0.015625)"/>
                            <path id="DejaVuSans-74" d="M 1172 4494
L 1172 3500 
L 2356 3500 
L 2356 3053 
L 1172 3053 
L 1172 1153 
Q 1172 725 1289 603 
Q 1406 481 1766 481 
L 2356 481 
L 2356 0 
L 1766 0 
Q 1100 0 847 248 
Q 594 497 594 1153 
L 594 3053 
L 172 3053 
L 172 3500 
L 594 3500 
L 594 4494 
L 1172 4494 
z
" transform="scale(0.015625)"/>
                            <path id="DejaVuSans-76" d="M 191 3500
L 800 3500 
L 1894 563 
L 2988 3500 
L 3597 3500 
L 2284 0 
L 1503 0 
L 191 3500 
z
" transform="scale(0.015625)"/>
                            <path id="DejaVuSans-52" d="M 2841 2188
Q 3044 2119 3236 1894 
Q 3428 1669 3622 1275 
L 4263 0 
L 3584 0 
L 2988 1197 
Q 2756 1666 2539 1819 
Q 2322 1972 1947 1972 
L 1259 1972 
L 1259 0 
L 628 0 
L 628 4666 
L 2053 4666 
Q 2853 4666 3247 4331 
Q 3641 3997 3641 3322 
Q 3641 2881 3436 2590 
Q 3231 2300 2841 2188 
z
M 1259 4147 
L 1259 2491 
L 2053 2491 
Q 2509 2491 2742 2702 
Q 2975 2913 2975 3322 
Q 2975 3731 2742 3939 
Q 2509 4147 2053 4147 
L 1259 4147 
z
" transform="scale(0.015625)"/>
                            <path id="DejaVuSans-28" d="M 1984 4856
Q 1566 4138 1362 3434 
Q 1159 2731 1159 2009 
Q 1159 1288 1364 580 
Q 1569 -128 1984 -844 
L 1484 -844 
Q 1016 -109 783 600 
Q 550 1309 550 2009 
Q 550 2706 781 3412 
Q 1013 4119 1484 4856 
L 1984 4856 
z
" transform="scale(0.015625)"/>
                            <path id="DejaVuSans-62" d="M 3116 1747
Q 3116 2381 2855 2742 
Q 2594 3103 2138 3103 
Q 1681 3103 1420 2742 
Q 1159 2381 1159 1747 
Q 1159 1113 1420 752 
Q 1681 391 2138 391 
Q 2594 391 2855 752 
Q 3116 1113 3116 1747 
z
M 1159 2969 
Q 1341 3281 1617 3432 
Q 1894 3584 2278 3584 
Q 2916 3584 3314 3078 
Q 3713 2572 3713 1747 
Q 3713 922 3314 415 
Q 2916 -91 2278 -91 
Q 1894 -91 1617 61 
Q 1341 213 1159 525 
L 1159 0 
L 581 0 
L 581 4863 
L 1159 4863 
L 1159 2969 
z
" transform="scale(0.015625)"/>
                            <path id="DejaVuSans-3a" d="M 750 794
L 1409 794 
L 1409 0 
L 750 0 
L 750 794 
z
M 750 3309 
L 1409 3309 
L 1409 2516 
L 750 2516 
L 750 3309 
z
" transform="scale(0.015625)"/>
                            <path id="DejaVuSans-29" d="M 513 4856
L 1013 4856 
Q 1481 4119 1714 3412 
Q 1947 2706 1947 2009 
Q 1947 1309 1714 600 
Q 1481 -109 1013 -844 
L 513 -844 
Q 928 -128 1133 580 
Q 1338 1288 1338 2009 
Q 1338 2731 1133 3434 
Q 928 4138 513 4856 
z
" transform="scale(0.015625)"/>
                        </defs>
                        <use xlink:href="#DejaVuSans-46"/>
                        <use xlink:href="#DejaVuSans-61" x="48.394531"/>
                        <use xlink:href="#DejaVuSans-6c" x="109.673828"/>
                        <use xlink:href="#DejaVuSans-73" x="137.457031"/>
                        <use xlink:href="#DejaVuSans-65" x="189.556641"/>
                        <use xlink:href="#DejaVuSans-20" x="251.080078"/>
                        <use xlink:href="#DejaVuSans-50" x="282.867188"/>
                        <use xlink:href="#DejaVuSans-6f" x="339.544922"/>
                        <use xlink:href="#DejaVuSans-73" x="400.726562"/>
                        <use xlink:href="#DejaVuSans-69" x="452.826172"/>
                        <use xlink:href="#DejaVuSans-74" x="480.609375"/>
                        <use xlink:href="#DejaVuSans-69" x="519.818359"/>
                        <use xlink:href="#DejaVuSans-76" x="547.601562"/>
                        <use xlink:href="#DejaVuSans-65" x="606.78125"/>
                        <use xlink:href="#DejaVuSans-20" x="668.304688"/>
                        <use xlink:href="#DejaVuSans-52" x="700.091797"/>
                        <use xlink:href="#DejaVuSans-61" x="767.324219"/>
                        <use xlink:href="#DejaVuSans-74" x="828.603516"/>
                        <use xlink:href="#DejaVuSans-65" x="867.8125"/>
                        <use xlink:href="#DejaVuSans-20" x="929.335938"/>
                        <use xlink:href="#DejaVuSans-28" x="961.123047"/>
                        <use xlink:href="#DejaVuSans-50" x="1000.136719"/>
                        <use xlink:href="#DejaVuSans-6f" x="1056.814453"/>
                        <use xlink:href="#DejaVuSans-73" x="1117.996094"/>
                        <use xlink:href="#DejaVuSans-69" x="1170.095703"/>
                        <use xlink:href="#DejaVuSans-74" x="1197.878906"/>
                        <use xlink:href="#DejaVuSans-69" x="1237.087891"/>
                        <use xlink:href="#DejaVuSans-76" x="1264.871094"/>
                        <use xlink:href="#DejaVuSans-65" x="1324.050781"/>
                        <use xlink:href="#DejaVuSans-20" x="1385.574219"/>
                        <use xlink:href="#DejaVuSans-6c" x="1417.361328"/>
                        <use xlink:href="#DejaVuSans-61" x="1445.144531"/>
                        <use xlink:href="#DejaVuSans-62" x="1506.423828"/>
                        <use xlink:href="#DejaVuSans-65" x="1569.900391"/>
                        <use xlink:href="#DejaVuSans-6c" x="1631.423828"/>
                        <use xlink:href="#DejaVuSans-3a" x="1659.207031"/>
                        <use xlink:href="#DejaVuSans-20" x="1692.898438"/>
                        <use xlink:href="#DejaVuSans-31" x="1724.685547"/>
                        <use xlink:href="#DejaVuSans-29" x="1788.308594"/>
                    </g>
                </g>
            </g>
            <g id="matplotlib.axis_2">
                <g id="ytick_1">
                    <g id="line2d_7">
                        <defs>
                            <path id="mc20727f14a" d="M 0 0
L -3.5 0 
" style="stroke: #000000; stroke-width: 0.8"/>
                        </defs>
                        <g>
                            <use xlink:href="#mc20727f14a" x="57.6" y="295.488"
                                 style="stroke: #000000; stroke-width: 0.8"/>
                        </g>
                    </g>
                    <g id="text_8">
                        <!-- 0.0 -->
                        <g transform="translate(34.696875 299.287219) scale(0.1 -0.1)">
                            <use xlink:href="#DejaVuSans-30"/>
                            <use xlink:href="#DejaVuSans-2e" x="63.623047"/>
                            <use xlink:href="#DejaVuSans-30" x="95.410156"/>
                        </g>
                    </g>
                </g>
                <g id="ytick_2">
                    <g id="line2d_8">
                        <g>
                            <use xlink:href="#mc20727f14a" x="57.6" y="247.104"
                                 style="stroke: #000000; stroke-width: 0.8"/>
                        </g>
                    </g>
                    <g id="text_9">
                        <!-- 0.2 -->
                        <g transform="translate(34.696875 250.903219) scale(0.1 -0.1)">
                            <use xlink:href="#DejaVuSans-30"/>
                            <use xlink:href="#DejaVuSans-2e" x="63.623047"/>
                            <use xlink:href="#DejaVuSans-32" x="95.410156"/>
                        </g>
                    </g>
                </g>
                <g id="ytick_3">
                    <g id="line2d_9">
                        <g>
                            <use xlink:href="#mc20727f14a" x="57.6" y="198.72"
                                 style="stroke: #000000; stroke-width: 0.8"/>
                        </g>
                    </g>
                    <g id="text_10">
                        <!-- 0.4 -->
                        <g transform="translate(34.696875 202.519219) scale(0.1 -0.1)">
                            <use xlink:href="#DejaVuSans-30"/>
                            <use xlink:href="#DejaVuSans-2e" x="63.623047"/>
                            <use xlink:href="#DejaVuSans-34" x="95.410156"/>
                        </g>
                    </g>
                </g>
                <g id="ytick_4">
                    <g id="line2d_10">
                        <g>
                            <use xlink:href="#mc20727f14a" x="57.6" y="150.336"
                                 style="stroke: #000000; stroke-width: 0.8"/>
                        </g>
                    </g>
                    <g id="text_11">
                        <!-- 0.6 -->
                        <g transform="translate(34.696875 154.135219) scale(0.1 -0.1)">
                            <use xlink:href="#DejaVuSans-30"/>
                            <use xlink:href="#DejaVuSans-2e" x="63.623047"/>
                            <use xlink:href="#DejaVuSans-36" x="95.410156"/>
                        </g>
                    </g>
                </g>
                <g id="ytick_5">
                    <g id="line2d_11">
                        <g>
                            <use xlink:href="#mc20727f14a" x="57.6" y="101.952"
                                 style="stroke: #000000; stroke-width: 0.8"/>
                        </g>
                    </g>
                    <g id="text_12">
                        <!-- 0.8 -->
                        <g transform="translate(34.696875 105.751219) scale(0.1 -0.1)">
                            <use xlink:href="#DejaVuSans-30"/>
                            <use xlink:href="#DejaVuSans-2e" x="63.623047"/>
                            <use xlink:href="#DejaVuSans-38" x="95.410156"/>
                        </g>
                    </g>
                </g>
                <g id="ytick_6">
                    <g id="line2d_12">
                        <g>
                            <use xlink:href="#mc20727f14a" x="57.6" y="53.568"
                                 style="stroke: #000000; stroke-width: 0.8"/>
                        </g>
                    </g>
                    <g id="text_13">
                        <!-- 1.0 -->
                        <g transform="translate(34.696875 57.367219) scale(0.1 -0.1)">
                            <use xlink:href="#DejaVuSans-31"/>
                            <use xlink:href="#DejaVuSans-2e" x="63.623047"/>
                            <use xlink:href="#DejaVuSans-30" x="95.410156"/>
                        </g>
                    </g>
                </g>
                <g id="text_14">
                    <!-- True Positive Rate (Positive label: 1) -->
                    <g transform="translate(28.617187 263.956906) rotate(-90) scale(0.1 -0.1)">
                        <defs>
                            <path id="DejaVuSans-54" d="M -19 4666
L 3928 4666 
L 3928 4134 
L 2272 4134 
L 2272 0 
L 1638 0 
L 1638 4134 
L -19 4134 
L -19 4666 
z
" transform="scale(0.015625)"/>
                            <path id="DejaVuSans-72" d="M 2631 2963
Q 2534 3019 2420 3045 
Q 2306 3072 2169 3072 
Q 1681 3072 1420 2755 
Q 1159 2438 1159 1844 
L 1159 0 
L 581 0 
L 581 3500 
L 1159 3500 
L 1159 2956 
Q 1341 3275 1631 3429 
Q 1922 3584 2338 3584 
Q 2397 3584 2469 3576 
Q 2541 3569 2628 3553 
L 2631 2963 
z
" transform="scale(0.015625)"/>
                            <path id="DejaVuSans-75" d="M 544 1381
L 544 3500 
L 1119 3500 
L 1119 1403 
Q 1119 906 1312 657 
Q 1506 409 1894 409 
Q 2359 409 2629 706 
Q 2900 1003 2900 1516 
L 2900 3500 
L 3475 3500 
L 3475 0 
L 2900 0 
L 2900 538 
Q 2691 219 2414 64 
Q 2138 -91 1772 -91 
Q 1169 -91 856 284 
Q 544 659 544 1381 
z
M 1991 3584 
L 1991 3584 
z
" transform="scale(0.015625)"/>
                        </defs>
                        <use xlink:href="#DejaVuSans-54"/>
                        <use xlink:href="#DejaVuSans-72" x="46.333984"/>
                        <use xlink:href="#DejaVuSans-75" x="87.447266"/>
                        <use xlink:href="#DejaVuSans-65" x="150.826172"/>
                        <use xlink:href="#DejaVuSans-20" x="212.349609"/>
                        <use xlink:href="#DejaVuSans-50" x="244.136719"/>
                        <use xlink:href="#DejaVuSans-6f" x="300.814453"/>
                        <use xlink:href="#DejaVuSans-73" x="361.996094"/>
                        <use xlink:href="#DejaVuSans-69" x="414.095703"/>
                        <use xlink:href="#DejaVuSans-74" x="441.878906"/>
                        <use xlink:href="#DejaVuSans-69" x="481.087891"/>
                        <use xlink:href="#DejaVuSans-76" x="508.871094"/>
                        <use xlink:href="#DejaVuSans-65" x="568.050781"/>
                        <use xlink:href="#DejaVuSans-20" x="629.574219"/>
                        <use xlink:href="#DejaVuSans-52" x="661.361328"/>
                        <use xlink:href="#DejaVuSans-61" x="728.59375"/>
                        <use xlink:href="#DejaVuSans-74" x="789.873047"/>
                        <use xlink:href="#DejaVuSans-65" x="829.082031"/>
                        <use xlink:href="#DejaVuSans-20" x="890.605469"/>
                        <use xlink:href="#DejaVuSans-28" x="922.392578"/>
                        <use xlink:href="#DejaVuSans-50" x="961.40625"/>
                        <use xlink:href="#DejaVuSans-6f" x="1018.083984"/>
                        <use xlink:href="#DejaVuSans-73" x="1079.265625"/>
                        <use xlink:href="#DejaVuSans-69" x="1131.365234"/>
                        <use xlink:href="#DejaVuSans-74" x="1159.148438"/>
                        <use xlink:href="#DejaVuSans-69" x="1198.357422"/>
                        <use xlink:href="#DejaVuSans-76" x="1226.140625"/>
                        <use xlink:href="#DejaVuSans-65" x="1285.320312"/>
                        <use xlink:href="#DejaVuSans-20" x="1346.84375"/>
                        <use xlink:href="#DejaVuSans-6c" x="1378.630859"/>
                        <use xlink:href="#DejaVuSans-61" x="1406.414062"/>
                        <use xlink:href="#DejaVuSans-62" x="1467.693359"/>
                        <use xlink:href="#DejaVuSans-65" x="1531.169922"/>
                        <use xlink:href="#DejaVuSans-6c" x="1592.693359"/>
                        <use xlink:href="#DejaVuSans-3a" x="1620.476562"/>
                        <use xlink:href="#DejaVuSans-20" x="1654.167969"/>
                        <use xlink:href="#DejaVuSans-31" x="1685.955078"/>
                        <use xlink:href="#DejaVuSans-29" x="1749.578125"/>
                    </g>
                </g>
            </g>
            <g id="line2d_13">
                <path d="M 73.832727 295.488
L 73.978117 295.488 
L 73.978117 295.379589 
L 74.050811 292.72351 
L 74.123506 292.72351 
L 74.123506 292.615098 
L 74.196201 287.411352 
L 74.268895 287.411352 
L 74.268895 287.302941 
L 74.34159 285.514153 
L 74.414285 285.514153 
L 74.414285 285.405741 
L 74.48698 284.53845 
L 74.559674 284.53845 
L 74.559674 284.430039 
L 74.632369 281.502932 
L 74.705064 281.502932 
L 74.705064 281.39452 
L 74.777758 279.443115 
L 74.923148 279.334704 
L 74.995843 276.732831 
L 75.068537 276.732831 
L 75.068537 276.678625 
L 75.141232 271.800113 
L 75.213927 271.800113 
L 75.213927 271.691702 
L 75.286621 271.149645 
L 75.359316 268.547771 
L 75.432011 261.175797 
L 75.504705 261.175797 
L 75.504705 261.067386 
L 75.504705 260.958975 
L 75.650095 260.200095 
L 75.72279 259.712244 
L 75.868179 259.603832 
L 75.940874 257.056165 
L 76.013568 257.056165 
L 76.013568 256.947754 
L 76.086263 254.020646 
L 76.231652 253.966441 
L 76.304347 252.34027 
L 76.377042 252.34027 
L 76.377042 252.231858 
L 76.449737 243.938388 
L 76.522431 243.938388 
L 76.522431 243.829976 
L 76.595126 241.39072 
L 76.81321 241.282309 
L 76.885905 240.686046 
L 77.031294 240.089784 
L 77.249378 238.409407 
L 77.322073 236.186974 
L 77.394768 235.915945 
L 77.467462 234.831832 
L 78.703272 219.545827 
L 78.703272 218.24489 
L 78.775967 218.24489 
L 78.848662 218.24489 
L 78.848662 218.136479 
L 78.921357 213.528995 
L 79.066746 213.312172 
L 79.066746 213.257966 
L 79.139441 213.257966 
L 79.212135 213.257966 
L 79.212135 213.149555 
L 79.28483 212.553292 
L 79.502914 211.57759 
L 79.502914 210.710299 
L 80.011777 208.542071 
L 80.084472 205.885992 
L 80.375251 205.181318 
L 80.447945 204.042999 
L 80.593335 202.416828 
L 81.029503 200.682246 
L 81.102198 200.519629 
L 81.247587 200.519629 
L 81.247587 200.411218 
L 81.247587 200.2486 
L 81.611061 198.188784 
L 81.683755 197.321493 
L 81.75645 197.321493 
L 81.75645 197.213082 
L 81.829145 194.665414 
L 81.901839 194.665414 
L 81.901839 194.557003 
L 81.974534 193.418683 
L 82.119923 193.310272 
L 82.192618 191.358867 
L 82.265313 191.358867 
L 82.265313 191.250456 
L 82.265313 191.087839 
L 83.064955 188.160731 
L 83.137649 187.727086 
L 83.501123 186.155121 
L 83.501123 185.829887 
L 83.646512 185.613064 
L 83.719207 184.312127 
L 83.791902 184.312127 
L 83.791902 184.203716 
L 84.08268 182.414928 
L 84.08268 182.306517 
L 84.373459 181.818665 
L 84.373459 181.439226 
L 84.446154 181.439226 
L 84.518849 181.439226 
L 84.518849 181.330814 
L 84.518849 181.168197 
L 84.809627 180.2467 
L 84.882322 179.433615 
L 84.955017 178.512118 
L 85.027712 177.807444 
L 85.100406 177.807444 
L 85.100406 177.699033 
L 85.173101 175.964451 
L 85.31849 175.964451 
L 85.609269 173.95884 
L 85.681964 173.95884 
L 85.681964 173.850429 
L 85.681964 173.362578 
L 86.118132 172.495287 
L 86.190827 172.495287 
L 86.190827 172.386875 
L 86.263522 171.844818 
L 86.336216 171.844818 
L 86.336216 171.736407 
L 86.336216 171.085939 
L 86.481606 171.085939 
L 86.481606 170.977527 
L 86.5543 170.110236 
L 86.69969 169.351356 
L 86.69969 169.297151 
L 86.772384 169.297151 
L 86.845079 169.297151 
L 86.845079 169.188739 
L 86.917774 168.321448 
L 86.990469 168.321448 
L 86.990469 168.213037 
L 87.063163 167.454157 
L 87.135858 167.183129 
L 87.208553 165.827987 
L 87.426637 165.719575 
L 87.499332 165.231724 
L 87.644721 165.231724 
L 87.644721 165.123313 
L 87.717416 163.659759 
L 87.79011 163.659759 
L 87.79011 163.551348 
L 87.862805 163.334525 
L 87.9355 163.334525 
L 87.9355 163.226113 
L 87.9355 163.117702 
L 88.153584 162.846674 
L 88.226279 161.870971 
L 88.517057 161.437326 
L 88.517057 161.112091 
L 88.589752 161.112091 
L 88.662447 161.112091 
L 88.662447 161.00368 
L 88.735141 160.732652 
L 88.953226 160.62424 
L 89.02592 160.027978 
L 89.098615 160.027978 
L 89.098615 159.919566 
L 89.098615 159.648538 
L 89.17131 159.648538 
L 89.316699 159.648538 
L 89.316699 159.540126 
L 89.316699 158.998069 
L 89.462089 158.347601 
L 89.462089 157.697133 
L 89.680173 157.426104 
L 89.752867 156.775636 
L 89.898257 156.775636 
L 90.334425 154.770026 
L 90.40712 154.498997 
L 90.552509 154.390586 
L 90.625204 153.035443 
L 90.697898 153.035443 
L 90.697898 152.927032 
L 90.697898 152.493387 
L 90.915983 152.222358 
L 90.988677 151.680301 
L 91.134067 151.626095 
L 91.134067 151.57189 
L 91.206761 151.355067 
L 91.424845 151.355067 
L 91.424845 151.246656 
L 91.49754 151.084039 
L 91.64293 150.650393 
L 91.788319 150.596187 
L 91.788319 150.541982 
L 91.861014 149.945719 
L 91.933708 149.945719 
L 91.933708 149.891513 
L 92.224487 149.295251 
L 92.297182 148.861605 
L 92.369877 148.861605 
L 92.369877 148.753194 
L 92.442571 148.319548 
L 92.660655 148.211137 
L 92.73335 147.723286 
L 92.806045 147.723286 
L 92.806045 147.614874 
L 92.806045 147.398052 
L 92.87874 147.398052 
L 92.951434 147.398052 
L 92.951434 147.28964 
L 93.024129 146.855995 
L 93.169518 146.801789 
L 93.169518 146.747583 
L 93.242213 145.771881 
L 93.387602 145.771881 
L 93.387602 145.663469 
L 93.460297 145.446647 
L 93.96916 144.52515 
L 94.332634 144.470944 
L 94.332634 144.416739 
L 94.405328 144.14571 
L 94.768802 143.657859 
L 94.841497 143.495242 
L 95.059581 143.38683 
L 95.495749 143.332625 
L 95.495749 143.278419 
L 95.495749 143.115802 
L 95.568444 143.115802 
L 95.641138 142.953185 
L 95.641138 142.898979 
L 95.713833 142.898979 
L 95.931917 142.844773 
L 95.931917 142.790568 
L 96.004612 142.682156 
L 96.077307 142.682156 
L 96.077307 142.573745 
L 96.150001 142.085894 
L 96.222696 142.085894 
L 96.222696 141.977482 
L 96.295391 141.814865 
L 96.44078 141.489631 
L 96.513475 141.110191 
L 96.804254 140.459723 
L 97.022338 139.592432 
L 97.022338 139.484021 
L 97.095032 139.484021 
L 97.240422 139.484021 
L 97.240422 139.429815 
L 97.458506 138.670935 
L 97.749285 138.183084 
L 97.967369 137.532616 
L 98.185453 137.532616 
L 98.185453 137.424204 
L 98.185453 137.315793 
L 98.258148 137.315793 
L 98.403537 137.207382 
L 98.476232 137.044765 
L 98.548926 137.044765 
L 98.548926 136.71953 
L 98.621621 136.71953 
L 98.694316 136.71953 
L 98.694316 136.665325 
L 98.767011 136.285885 
L 98.839705 136.285885 
L 98.839705 136.231679 
L 98.985095 135.689622 
L 99.203179 135.581211 
L 99.275873 135.472799 
L 99.493958 135.147565 
L 99.639347 135.039154 
L 99.712042 134.388686 
L 99.857431 134.280274 
L 99.930126 133.684012 
L 100.002821 133.684012 
L 100.002821 133.5756 
L 100.075515 133.087749 
L 100.366294 132.979338 
L 100.438989 132.708309 
L 100.802462 132.166252 
L 100.947852 132.112047 
L 100.947852 132.057841 
L 101.020546 131.461578 
L 101.093241 131.461578 
L 101.38402 130.648493 
L 101.529409 130.648493 
L 101.529409 130.540082 
L 101.602104 130.160642 
L 101.747493 130.160642 
L 101.747493 130.106436 
L 102.329051 129.401762 
L 102.61983 129.293351 
L 102.692525 129.184939 
L 103.492166 128.263443 
L 103.492166 128.209237 
L 103.564861 128.209237 
L 103.85564 128.155031 
L 103.85564 128.100825 
L 103.85564 127.992414 
L 103.928334 127.992414 
L 104.437197 127.070917 
L 104.509892 127.070917 
L 105.309534 125.715775 
L 105.382229 125.011101 
L 105.454923 125.011101 
L 105.454923 124.90269 
L 105.673007 124.631661 
L 105.745702 124.631661 
L 105.963786 124.252221 
L 106.18187 124.14381 
L 106.254565 123.872782 
L 106.472649 123.113902 
L 106.618039 123.113902 
L 107.635764 121.054086 
L 107.708459 121.054086 
L 107.708459 120.945674 
L 107.708459 120.891469 
L 107.781154 120.891469 
L 108.290017 120.62044 
L 108.362711 120.403617 
L 108.726185 119.915766 
L 108.871574 119.915766 
L 108.871574 119.807355 
L 108.944269 118.994269 
L 109.162353 118.994269 
L 109.307743 118.831652 
L 109.525827 118.723241 
L 109.671216 118.614829 
L 109.961995 117.693333 
L 110.180079 117.639127 
L 110.180079 117.584921 
L 110.180079 117.530716 
L 110.616247 117.259687 
L 110.616247 117.09707 
L 110.688942 117.09707 
L 110.834331 117.09707 
L 110.979721 116.663425 
L 111.2705 116.609219 
L 111.2705 116.555013 
L 111.2705 116.392396 
L 111.343194 116.392396 
L 111.488584 116.33819 
L 111.488584 116.283985 
L 111.488584 116.229779 
L 112.070141 115.796134 
L 112.070141 115.741928 
L 112.433615 115.362488 
L 113.305951 114.71202 
L 113.742119 114.115757 
L 113.814814 113.844729 
L 113.887509 113.844729 
L 114.323677 113.302672 
L 114.396372 113.302672 
L 114.905235 112.597998 
L 115.341403 112.001735 
L 115.559487 111.947529 
L 115.559487 111.893324 
L 115.632182 111.784912 
L 115.704876 111.784912 
L 115.704876 111.730707 
L 116.141045 110.917621 
L 116.141045 110.42977 
L 116.213739 110.42977 
L 116.504518 110.321359 
L 116.940686 109.833508 
L 117.30416 109.616685 
L 117.376855 109.237245 
L 117.522244 109.237245 
L 117.522244 109.128834 
L 117.740328 108.532571 
L 118.031107 108.42416 
L 118.031107 108.261542 
L 118.103802 108.261542 
L 118.39458 108.153131 
L 118.53997 107.773691 
L 118.830749 107.66528 
L 118.830749 107.28584 
L 119.703085 106.743783 
L 119.77578 106.255932 
L 120.575422 104.954995 
L 121.375063 104.358733 
L 121.593147 104.358733 
L 121.593147 104.250321 
L 122.174705 103.925087 
L 122.2474 103.925087 
L 122.2474 103.816676 
L 122.2474 103.708264 
L 122.320094 103.708264 
L 122.465484 103.599853 
L 122.465484 103.545647 
L 123.047041 103.112002 
L 123.047041 102.895179 
L 123.119736 102.895179 
L 123.192431 102.895179 
L 123.192431 102.786768 
L 123.701294 102.353122 
L 124.064767 102.136299 
L 124.064767 101.919477 
L 124.137462 101.919477 
L 124.71902 100.889568 
L 124.71902 100.835363 
L 124.791714 100.835363 
L 125.009798 100.726951 
L 125.082493 100.401717 
L 125.155188 100.401717 
L 125.155188 100.347512 
L 125.373272 100.076483 
L 125.445967 99.805455 
L 125.591356 99.697043 
L 125.591356 99.642838 
L 125.736746 99.154986 
L 125.80944 98.992369 
L 125.882135 98.992369 
L 125.882135 98.883958 
L 125.882135 98.667135 
L 125.95483 98.667135 
L 126.681777 98.179284 
L 127.04525 97.528816 
L 127.117945 97.528816 
L 127.117945 97.420404 
L 128.062976 96.282085 
L 128.42645 96.282085 
L 128.42645 96.173673 
L 128.42645 96.065262 
L 129.080702 95.740028 
L 129.080702 95.631616 
L 129.153397 95.631616 
L 129.226091 95.631616 
L 129.226091 95.523205 
L 129.226091 95.252177 
L 129.51687 95.143765 
L 129.880344 94.601708 
L 130.025733 94.601708 
L 130.025733 94.493297 
L 130.025733 94.384886 
L 130.607291 94.059651 
L 130.75268 94.005446 
L 131.116154 93.517594 
L 131.116154 93.354977 
L 131.552322 92.921332 
L 131.552322 92.704509 
L 131.915795 92.541892 
L 131.98849 92.433481 
L 132.351964 92.379275 
L 132.351964 92.325069 
L 133.006216 91.999835 
L 133.006216 91.891424 
L 133.078911 91.891424 
L 133.151605 91.891424 
L 133.151605 91.783012 
L 133.2243 91.674601 
L 133.587773 91.295161 
L 133.660468 91.132544 
L 133.878552 91.078338 
L 133.878552 91.024133 
L 133.878552 90.644693 
L 134.750889 89.994225 
L 134.823583 89.777402 
L 134.968973 89.777402 
L 135.914004 89.181139 
L 135.986699 88.801699 
L 136.495562 88.584877 
L 136.568256 88.476465 
L 136.713646 88.422259 
L 136.713646 88.368054 
L 136.713646 88.313848 
L 138.094845 87.717585 
L 138.16754 87.500763 
L 139.039876 87.28394 
L 139.112571 87.28394 
L 139.112571 87.229734 
L 139.185266 87.012911 
L 139.25796 87.012911 
L 139.25796 86.9045 
L 139.621434 86.687677 
L 139.694129 86.470855 
L 139.766823 86.470855 
L 139.766823 86.416649 
L 140.130297 86.199826 
L 140.130297 86.14562 
L 140.202991 86.14562 
L 140.49377 86.037209 
L 140.49377 85.983003 
L 140.929939 85.711975 
L 141.002633 85.549358 
L 141.220717 85.495152 
L 141.220717 85.440946 
L 141.220717 85.386741 
L 142.165748 84.627861 
L 143.619643 84.248421 
L 143.619643 84.14001 
L 143.837727 84.085804 
L 143.837727 84.031598 
L 143.837727 83.814776 
L 144.34659 83.326924 
L 144.928147 83.110102 
L 144.928147 83.00169 
L 145.000842 83.00169 
L 145.146231 82.893279 
L 145.218926 82.297016 
L 145.291621 82.297016 
L 145.291621 82.188605 
L 145.291621 82.025988 
L 145.364315 82.025988 
L 145.873178 82.025988 
L 145.873178 81.917577 
L 145.945873 81.809165 
L 146.163957 81.700754 
L 146.236652 81.429725 
L 147.036294 81.158697 
L 147.036294 80.941874 
L 148.344798 80.399817 
L 148.999051 79.911966 
L 149.217135 79.803555 
L 149.289829 79.47832 
L 150.38025 79.207292 
L 150.816418 78.936263 
L 150.889113 78.719441 
L 151.761449 78.611029 
L 151.761449 78.502618 
L 152.70648 78.285795 
L 152.779175 78.123178 
L 153.069954 78.068972 
L 153.069954 78.014767 
L 153.069954 77.960561 
L 154.08768 77.85215 
L 154.08768 77.797944 
L 154.160375 77.797944 
L 154.451153 77.689533 
L 154.451153 77.581121 
L 154.523848 77.581121 
L 154.669237 77.581121 
L 154.669237 77.526916 
L 156.777384 76.659624 
L 156.777384 76.605419 
L 156.850079 76.605419 
L 157.286247 76.497007 
L 157.358941 76.388596 
L 157.504331 76.33439 
L 157.504331 76.280185 
L 157.577026 76.117568 
L 157.867804 76.063362 
L 157.867804 76.009156 
L 158.376667 75.846539 
L 158.740141 75.792333 
L 158.740141 75.738128 
L 158.812836 75.629716 
L 159.103614 75.521305 
L 159.321698 75.358688 
L 159.903256 75.033454 
L 159.903256 74.979248 
L 159.975951 74.979248 
L 160.26673 74.870837 
L 160.26673 74.599808 
L 160.339424 74.599808 
L 161.575234 74.491397 
L 161.647929 74.220368 
L 161.720624 74.220368 
L 161.720624 74.111957 
L 161.720624 74.057751 
L 161.793318 74.057751 
L 161.866013 74.057751 
L 161.866013 73.94934 
L 162.883739 73.624106 
L 162.883739 73.5699 
L 163.247212 73.515694 
L 163.247212 73.461489 
L 163.247212 73.353077 
L 163.319907 73.353077 
L 163.537991 73.19046 
L 163.610686 73.082049 
L 164.264938 73.027843 
L 164.264938 72.973637 
L 165.864222 72.431581 
L 165.864222 72.323169 
L 165.936917 72.323169 
L 166.082306 72.268963 
L 166.082306 72.214758 
L 166.155001 72.106346 
L 166.881948 71.997935 
L 166.954642 71.781112 
L 167.172726 71.672701 
L 167.245421 71.618495 
L 167.899673 71.455878 
L 167.972368 71.293261 
L 168.190452 71.239055 
L 168.190452 71.18485 
L 168.190452 71.130644 
L 168.263147 71.130644 
L 169.353568 71.022233 
L 169.353568 70.913821 
L 169.644346 70.80541 
L 169.644346 70.751204 
L 169.717041 70.751204 
L 170.662072 70.588587 
L 170.662072 70.534381 
L 170.734767 70.534381 
L 170.952851 70.42597 
L 170.952851 70.371764 
L 172.261356 70.263353 
L 172.261356 70.100736 
L 172.33405 70.100736 
L 173.497166 69.992324 
L 173.497166 69.938119 
L 173.56986 69.938119 
L 173.860639 69.775502 
L 173.860639 69.721296 
L 173.933334 69.721296 
L 174.587586 69.612885 
L 174.587586 69.558679 
L 174.878365 69.450268 
L 174.95106 69.233445 
L 175.096449 69.179239 
L 175.096449 69.125033 
L 175.169144 68.962416 
L 175.605312 68.854005 
L 175.605312 68.691388 
L 175.678007 68.691388 
L 176.332259 68.420359 
L 176.404954 68.311948 
L 177.568069 68.257742 
L 177.568069 68.203537 
L 177.568069 68.149331 
L 177.640764 68.149331 
L 178.367711 68.04092 
L 180.548552 67.824097 
L 180.548552 67.769891 
L 181.057415 67.607274 
L 181.057415 67.498863 
L 181.13011 67.498863 
L 181.638972 67.444657 
L 181.638972 67.390451 
L 181.638972 67.336246 
L 182.293225 67.173629 
L 182.293225 67.119423 
L 182.365919 67.119423 
L 182.511309 67.119423 
L 182.511309 67.011011 
L 182.511309 66.956806 
L 182.584004 66.956806 
L 183.165561 66.848394 
L 183.965203 66.685777 
L 183.965203 66.631572 
L 184.037898 66.631572 
L 184.837539 66.577366 
L 184.837539 66.52316 
L 185.709876 66.360543 
L 185.709876 66.306337 
L 185.782571 66.306337 
L 187.454549 65.601663 
L 187.527243 65.493252 
L 188.326885 65.384841 
L 188.326885 65.330635 
L 188.39958 65.330635 
L 189.780779 65.222224 
L 189.780779 65.113812 
L 189.853474 65.113812 
L 189.998863 65.005401 
L 190.071558 64.842784 
L 190.943894 64.734372 
L 191.016589 64.625961 
L 191.307368 64.51755 
L 191.307368 64.463344 
L 191.380063 64.463344 
L 191.598147 64.409138 
L 191.598147 64.354933 
L 198.14067 63.487641 
L 198.504144 63.37923 
L 198.504144 63.325024 
L 198.576838 63.325024 
L 199.231091 63.216613 
L 199.303785 63.108202 
L 200.321511 62.99979 
L 200.321511 62.945585 
L 200.394206 62.945585 
L 203.374689 62.837173 
L 203.374689 62.782968 
L 203.447383 62.782968 
L 204.537804 62.674556 
L 204.537804 62.62035 
L 204.610499 62.62035 
L 204.828583 62.511939 
L 204.828583 62.457733 
L 204.901278 62.457733 
L 205.846309 62.349322 
L 205.846309 62.240911 
L 205.919003 62.240911 
L 207.954455 62.132499 
L 208.02715 62.024088 
L 209.917212 61.915676 
L 209.989907 61.807265 
L 211.298411 61.753059 
L 211.298411 61.698854 
L 211.298411 61.536237 
L 211.371106 61.536237 
L 213.624642 61.427825 
L 213.624642 61.37362 
L 213.697337 61.37362 
L 213.988115 61.265208 
L 213.988115 61.211002 
L 214.06081 61.211002 
L 215.29662 61.102591 
L 215.29662 61.048385 
L 215.369315 61.048385 
L 215.950872 60.939974 
L 216.023567 60.777357 
L 217.113988 60.668946 
L 217.113988 60.61474 
L 217.186682 60.61474 
L 218.131714 60.506328 
L 218.131714 60.452123 
L 218.204408 60.452123 
L 219.149439 60.343711 
L 219.149439 60.181094 
L 219.222134 60.181094 
L 219.440218 60.072683 
L 219.440218 60.018477 
L 222.348006 59.910066 
L 222.348006 59.801654 
L 222.420701 59.801654 
L 224.310763 59.693243 
L 224.310763 59.639037 
L 224.383458 59.639037 
L 228.89053 59.530626 
L 228.89053 59.47642 
L 228.963224 59.47642 
L 230.780592 59.368009 
L 230.780592 59.313803 
L 230.853287 59.313803 
L 232.816044 59.259598 
L 232.961433 59.151186 
L 236.814252 59.042775 
L 236.886947 58.934363 
L 238.995093 58.825952 
L 238.995093 58.771746 
L 239.067788 58.771746 
L 240.812461 58.663335 
L 240.812461 58.609129 
L 240.885156 58.609129 
L 242.048271 58.500718 
L 242.048271 58.446512 
L 242.120966 58.446512 
L 242.411744 58.338101 
L 242.411744 58.283895 
L 244.592586 58.229689 
L 244.592586 58.175484 
L 244.592586 58.067072 
L 244.66528 58.067072 
L 245.319533 58.012867 
L 245.319533 57.958661 
L 245.319533 57.904455 
L 245.392227 57.904455 
L 246.337258 57.796044 
L 246.337258 57.741838 
L 246.409953 57.741838 
L 246.773427 57.633427 
L 246.773427 57.579221 
L 246.846121 57.579221 
L 248.663489 57.47081 
L 248.663489 57.416604 
L 248.736184 57.416604 
L 250.262772 57.308193 
L 250.262772 57.253987 
L 250.335467 57.253987 
L 253.534034 57.145576 
L 253.824813 57.037164 
L 257.459548 56.928753 
L 257.459548 56.874547 
L 257.532243 56.874547 
L 259.34961 56.766136 
L 259.34961 56.71193 
L 259.422305 56.71193 
L 262.112009 56.657724 
L 262.112009 56.603519 
L 262.112009 56.495107 
L 262.184704 56.495107 
L 263.05704 56.386696 
L 263.05704 56.33249 
L 263.129735 56.33249 
L 265.455965 56.224079 
L 265.455965 56.169873 
L 265.52866 56.169873 
L 273.161604 56.061462 
L 273.161604 56.007256 
L 273.234299 56.007256 
L 275.633224 55.898845 
L 275.633224 55.844639 
L 275.705919 55.844639 
L 278.613707 55.736228 
L 278.613707 55.682022 
L 278.686401 55.682022 
L 280.867243 55.573611 
L 280.867243 55.519405 
L 280.939937 55.519405 
L 281.012632 55.519405 
L 281.012632 55.410994 
L 281.012632 55.356788 
L 281.085327 55.356788 
L 283.847725 55.248376 
L 283.847725 55.194171 
L 283.92042 55.194171 
L 291.117196 55.085759 
L 291.117196 55.031554 
L 291.18989 55.031554 
L 295.188099 54.923142 
L 295.188099 54.868937 
L 295.260794 54.868937 
L 301.439844 54.760525 
L 301.439844 54.652114 
L 301.512538 54.652114 
L 305.219968 54.543702 
L 305.219968 54.489497 
L 305.292663 54.489497 
L 309.799735 54.381085 
L 309.799735 54.32688 
L 309.872429 54.32688 
L 315.033753 54.218468 
L 315.033753 54.164263 
L 315.106448 54.164263 
L 327.101074 54.055851 
L 327.101074 54.001646 
L 327.173769 54.001646 
L 341.421931 53.893234 
L 341.421931 53.839028 
L 347.237507 53.730617 
L 347.237507 53.676411 
L 347.310202 53.676411 
L 398.487273 53.568 
L 398.487273 53.568 
" clip-path="url(#p8fbe7605f9)" style="fill: none; stroke: #1f77b4; stroke-width: 1.5; stroke-linecap: square"/>
            </g>
            <g id="patch_3">
                <path d="M 57.6 307.584
L 57.6 41.472 
" style="fill: none; stroke: #000000; stroke-width: 0.8; stroke-linejoin: miter; stroke-linecap: square"/>
            </g>
            <g id="patch_4">
                <path d="M 414.72 307.584
L 414.72 41.472 
" style="fill: none; stroke: #000000; stroke-width: 0.8; stroke-linejoin: miter; stroke-linecap: square"/>
            </g>
            <g id="patch_5">
                <path d="M 57.6 307.584
L 414.72 307.584 
" style="fill: none; stroke: #000000; stroke-width: 0.8; stroke-linejoin: miter; stroke-linecap: square"/>
            </g>
            <g id="patch_6">
                <path d="M 57.6 41.472
L 414.72 41.472 
" style="fill: none; stroke: #000000; stroke-width: 0.8; stroke-linejoin: miter; stroke-linecap: square"/>
            </g>
            <g id="legend_1">
                <g id="patch_7">
                    <path d="M 267.46375 302.584
L 407.72 302.584 
Q 409.72 302.584 409.72 300.584 
L 409.72 286.905875 
Q 409.72 284.905875 407.72 284.905875 
L 267.46375 284.905875 
Q 265.46375 284.905875 265.46375 286.905875 
L 265.46375 300.584 
Q 265.46375 302.584 267.46375 302.584 
z
" style="fill: #ffffff; opacity: 0.8; stroke: #cccccc; stroke-linejoin: miter"/>
                </g>
                <g id="line2d_14">
                    <path d="M 269.46375 293.004312
L 279.46375 293.004312 
L 289.46375 293.004312 
" style="fill: none; stroke: #1f77b4; stroke-width: 1.5; stroke-linecap: square"/>
                </g>
                <g id="text_15">
                    <!-- Pipeline (AUC = 0.91) -->
                    <g transform="translate(297.46375 296.504312) scale(0.1 -0.1)">
                        <defs>
                            <path id="DejaVuSans-70" d="M 1159 525
L 1159 -1331 
L 581 -1331 
L 581 3500 
L 1159 3500 
L 1159 2969 
Q 1341 3281 1617 3432 
Q 1894 3584 2278 3584 
Q 2916 3584 3314 3078 
Q 3713 2572 3713 1747 
Q 3713 922 3314 415 
Q 2916 -91 2278 -91 
Q 1894 -91 1617 61 
Q 1341 213 1159 525 
z
M 3116 1747 
Q 3116 2381 2855 2742 
Q 2594 3103 2138 3103 
Q 1681 3103 1420 2742 
Q 1159 2381 1159 1747 
Q 1159 1113 1420 752 
Q 1681 391 2138 391 
Q 2594 391 2855 752 
Q 3116 1113 3116 1747 
z
" transform="scale(0.015625)"/>
                            <path id="DejaVuSans-6e" d="M 3513 2113
L 3513 0 
L 2938 0 
L 2938 2094 
Q 2938 2591 2744 2837 
Q 2550 3084 2163 3084 
Q 1697 3084 1428 2787 
Q 1159 2491 1159 1978 
L 1159 0 
L 581 0 
L 581 3500 
L 1159 3500 
L 1159 2956 
Q 1366 3272 1645 3428 
Q 1925 3584 2291 3584 
Q 2894 3584 3203 3211 
Q 3513 2838 3513 2113 
z
" transform="scale(0.015625)"/>
                            <path id="DejaVuSans-41" d="M 2188 4044
L 1331 1722 
L 3047 1722 
L 2188 4044 
z
M 1831 4666 
L 2547 4666 
L 4325 0 
L 3669 0 
L 3244 1197 
L 1141 1197 
L 716 0 
L 50 0 
L 1831 4666 
z
" transform="scale(0.015625)"/>
                            <path id="DejaVuSans-55" d="M 556 4666
L 1191 4666 
L 1191 1831 
Q 1191 1081 1462 751 
Q 1734 422 2344 422 
Q 2950 422 3222 751 
Q 3494 1081 3494 1831 
L 3494 4666 
L 4128 4666 
L 4128 1753 
Q 4128 841 3676 375 
Q 3225 -91 2344 -91 
Q 1459 -91 1007 375 
Q 556 841 556 1753 
L 556 4666 
z
" transform="scale(0.015625)"/>
                            <path id="DejaVuSans-43" d="M 4122 4306
L 4122 3641 
Q 3803 3938 3442 4084 
Q 3081 4231 2675 4231 
Q 1875 4231 1450 3742 
Q 1025 3253 1025 2328 
Q 1025 1406 1450 917 
Q 1875 428 2675 428 
Q 3081 428 3442 575 
Q 3803 722 4122 1019 
L 4122 359 
Q 3791 134 3420 21 
Q 3050 -91 2638 -91 
Q 1578 -91 968 557 
Q 359 1206 359 2328 
Q 359 3453 968 4101 
Q 1578 4750 2638 4750 
Q 3056 4750 3426 4639 
Q 3797 4528 4122 4306 
z
" transform="scale(0.015625)"/>
                            <path id="DejaVuSans-3d" d="M 678 2906
L 4684 2906 
L 4684 2381 
L 678 2381 
L 678 2906 
z
M 678 1631 
L 4684 1631 
L 4684 1100 
L 678 1100 
L 678 1631 
z
" transform="scale(0.015625)"/>
                            <path id="DejaVuSans-39" d="M 703 97
L 703 672 
Q 941 559 1184 500 
Q 1428 441 1663 441 
Q 2288 441 2617 861 
Q 2947 1281 2994 2138 
Q 2813 1869 2534 1725 
Q 2256 1581 1919 1581 
Q 1219 1581 811 2004 
Q 403 2428 403 3163 
Q 403 3881 828 4315 
Q 1253 4750 1959 4750 
Q 2769 4750 3195 4129 
Q 3622 3509 3622 2328 
Q 3622 1225 3098 567 
Q 2575 -91 1691 -91 
Q 1453 -91 1209 -44 
Q 966 3 703 97 
z
M 1959 2075 
Q 2384 2075 2632 2365 
Q 2881 2656 2881 3163 
Q 2881 3666 2632 3958 
Q 2384 4250 1959 4250 
Q 1534 4250 1286 3958 
Q 1038 3666 1038 3163 
Q 1038 2656 1286 2365 
Q 1534 2075 1959 2075 
z
" transform="scale(0.015625)"/>
                        </defs>
                        <use xlink:href="#DejaVuSans-50"/>
                        <use xlink:href="#DejaVuSans-69" x="58.052734"/>
                        <use xlink:href="#DejaVuSans-70" x="85.835938"/>
                        <use xlink:href="#DejaVuSans-65" x="149.3125"/>
                        <use xlink:href="#DejaVuSans-6c" x="210.835938"/>
                        <use xlink:href="#DejaVuSans-69" x="238.619141"/>
                        <use xlink:href="#DejaVuSans-6e" x="266.402344"/>
                        <use xlink:href="#DejaVuSans-65" x="329.78125"/>
                        <use xlink:href="#DejaVuSans-20" x="391.304688"/>
                        <use xlink:href="#DejaVuSans-28" x="423.091797"/>
                        <use xlink:href="#DejaVuSans-41" x="462.105469"/>
                        <use xlink:href="#DejaVuSans-55" x="530.513672"/>
                        <use xlink:href="#DejaVuSans-43" x="603.707031"/>
                        <use xlink:href="#DejaVuSans-20" x="673.53125"/>
                        <use xlink:href="#DejaVuSans-3d" x="705.318359"/>
                        <use xlink:href="#DejaVuSans-20" x="789.107422"/>
                        <use xlink:href="#DejaVuSans-30" x="820.894531"/>
                        <use xlink:href="#DejaVuSans-2e" x="884.517578"/>
                        <use xlink:href="#DejaVuSans-39" x="916.304688"/>
                        <use xlink:href="#DejaVuSans-31" x="979.927734"/>
                        <use xlink:href="#DejaVuSans-29" x="1043.550781"/>
                    </g>
                </g>
            </g>
        </g>
    </g>
    <defs>
        <clipPath id="p8fbe7605f9">
            <rect x="57.6" y="41.472" width="357.12" height="266.112"/>
        </clipPath>
    </defs>
</svg>
