<?xml version="1.0" encoding="utf-8" standalone="no"?>
<!DOCTYPE svg PUBLIC "-//W3C//DTD SVG 1.1//EN"
  "http://www.w3.org/Graphics/SVG/1.1/DTD/svg11.dtd">
<svg xmlns:xlink="http://www.w3.org/1999/xlink" width="460.8pt" height="345.6pt" viewBox="0 0 460.8 345.6" xmlns="http://www.w3.org/2000/svg" version="1.1">
 <metadata>
  <rdf:RDF xmlns:dc="http://purl.org/dc/elements/1.1/" xmlns:cc="http://creativecommons.org/ns#" xmlns:rdf="http://www.w3.org/1999/02/22-rdf-syntax-ns#">
   <cc:Work>
    <dc:type rdf:resource="http://purl.org/dc/dcmitype/StillImage"/>
    <dc:date>2022-11-24T19:39:57.378773</dc:date>
    <dc:format>image/svg+xml</dc:format>
    <dc:creator>
     <cc:Agent>
      <dc:title>Matplotlib v3.6.2, https://matplotlib.org/</dc:title>
     </cc:Agent>
    </dc:creator>
   </cc:Work>
  </rdf:RDF>
 </metadata>
 <defs>
  <style type="text/css">*{stroke-linejoin: round; stroke-linecap: butt}</style>
 </defs>
 <g id="figure_1">
  <g id="patch_1">
   <path d="M 0 345.6 
L 460.8 345.6 
L 460.8 0 
L 0 0 
z
" style="fill: #ffffff"/>
  </g>
  <g id="axes_1">
   <g id="patch_2">
    <path d="M 57.6 307.584 
L 414.72 307.584 
L 414.72 41.472 
L 57.6 41.472 
z
" style="fill: #ffffff"/>
   </g>
   <g id="matplotlib.axis_1">
    <g id="xtick_1">
     <g id="line2d_1">
      <defs>
       <path id="m0213041e76" d="M 0 0 
L 0 3.5 
" style="stroke: #000000; stroke-width: 0.8"/>
      </defs>
      <g>
       <use xlink:href="#m0213041e76" x="73.832727" y="307.584" style="stroke: #000000; stroke-width: 0.8"/>
      </g>
     </g>
     <g id="text_1">
      <!-- 0.0 -->
      <g transform="translate(65.881165 322.182437) scale(0.1 -0.1)">
       <defs>
        <path id="DejaVuSans-30" d="M 2034 4250 
Q 1547 4250 1301 3770 
Q 1056 3291 1056 2328 
Q 1056 1369 1301 889 
Q 1547 409 2034 409 
Q 2525 409 2770 889 
Q 3016 1369 3016 2328 
Q 3016 3291 2770 3770 
Q 2525 4250 2034 4250 
z
M 2034 4750 
Q 2819 4750 3233 4129 
Q 3647 3509 3647 2328 
Q 3647 1150 3233 529 
Q 2819 -91 2034 -91 
Q 1250 -91 836 529 
Q 422 1150 422 2328 
Q 422 3509 836 4129 
Q 1250 4750 2034 4750 
z
" transform="scale(0.015625)"/>
        <path id="DejaVuSans-2e" d="M 684 794 
L 1344 794 
L 1344 0 
L 684 0 
L 684 794 
z
" transform="scale(0.015625)"/>
       </defs>
       <use xlink:href="#DejaVuSans-30"/>
       <use xlink:href="#DejaVuSans-2e" x="63.623047"/>
       <use xlink:href="#DejaVuSans-30" x="95.410156"/>
      </g>
     </g>
    </g>
    <g id="xtick_2">
     <g id="line2d_2">
      <g>
       <use xlink:href="#m0213041e76" x="138.763636" y="307.584" style="stroke: #000000; stroke-width: 0.8"/>
      </g>
     </g>
     <g id="text_2">
      <!-- 0.2 -->
      <g transform="translate(130.812074 322.182437) scale(0.1 -0.1)">
       <defs>
        <path id="DejaVuSans-32" d="M 1228 531 
L 3431 531 
L 3431 0 
L 469 0 
L 469 531 
Q 828 903 1448 1529 
Q 2069 2156 2228 2338 
Q 2531 2678 2651 2914 
Q 2772 3150 2772 3378 
Q 2772 3750 2511 3984 
Q 2250 4219 1831 4219 
Q 1534 4219 1204 4116 
Q 875 4013 500 3803 
L 500 4441 
Q 881 4594 1212 4672 
Q 1544 4750 1819 4750 
Q 2544 4750 2975 4387 
Q 3406 4025 3406 3419 
Q 3406 3131 3298 2873 
Q 3191 2616 2906 2266 
Q 2828 2175 2409 1742 
Q 1991 1309 1228 531 
z
" transform="scale(0.015625)"/>
       </defs>
       <use xlink:href="#DejaVuSans-30"/>
       <use xlink:href="#DejaVuSans-2e" x="63.623047"/>
       <use xlink:href="#DejaVuSans-32" x="95.410156"/>
      </g>
     </g>
    </g>
    <g id="xtick_3">
     <g id="line2d_3">
      <g>
       <use xlink:href="#m0213041e76" x="203.694545" y="307.584" style="stroke: #000000; stroke-width: 0.8"/>
      </g>
     </g>
     <g id="text_3">
      <!-- 0.4 -->
      <g transform="translate(195.742983 322.182437) scale(0.1 -0.1)">
       <defs>
        <path id="DejaVuSans-34" d="M 2419 4116 
L 825 1625 
L 2419 1625 
L 2419 4116 
z
M 2253 4666 
L 3047 4666 
L 3047 1625 
L 3713 1625 
L 3713 1100 
L 3047 1100 
L 3047 0 
L 2419 0 
L 2419 1100 
L 313 1100 
L 313 1709 
L 2253 4666 
z
" transform="scale(0.015625)"/>
       </defs>
       <use xlink:href="#DejaVuSans-30"/>
       <use xlink:href="#DejaVuSans-2e" x="63.623047"/>
       <use xlink:href="#DejaVuSans-34" x="95.410156"/>
      </g>
     </g>
    </g>
    <g id="xtick_4">
     <g id="line2d_4">
      <g>
       <use xlink:href="#m0213041e76" x="268.625455" y="307.584" style="stroke: #000000; stroke-width: 0.8"/>
      </g>
     </g>
     <g id="text_4">
      <!-- 0.6 -->
      <g transform="translate(260.673892 322.182437) scale(0.1 -0.1)">
       <defs>
        <path id="DejaVuSans-36" d="M 2113 2584 
Q 1688 2584 1439 2293 
Q 1191 2003 1191 1497 
Q 1191 994 1439 701 
Q 1688 409 2113 409 
Q 2538 409 2786 701 
Q 3034 994 3034 1497 
Q 3034 2003 2786 2293 
Q 2538 2584 2113 2584 
z
M 3366 4563 
L 3366 3988 
Q 3128 4100 2886 4159 
Q 2644 4219 2406 4219 
Q 1781 4219 1451 3797 
Q 1122 3375 1075 2522 
Q 1259 2794 1537 2939 
Q 1816 3084 2150 3084 
Q 2853 3084 3261 2657 
Q 3669 2231 3669 1497 
Q 3669 778 3244 343 
Q 2819 -91 2113 -91 
Q 1303 -91 875 529 
Q 447 1150 447 2328 
Q 447 3434 972 4092 
Q 1497 4750 2381 4750 
Q 2619 4750 2861 4703 
Q 3103 4656 3366 4563 
z
" transform="scale(0.015625)"/>
       </defs>
       <use xlink:href="#DejaVuSans-30"/>
       <use xlink:href="#DejaVuSans-2e" x="63.623047"/>
       <use xlink:href="#DejaVuSans-36" x="95.410156"/>
      </g>
     </g>
    </g>
    <g id="xtick_5">
     <g id="line2d_5">
      <g>
       <use xlink:href="#m0213041e76" x="333.556364" y="307.584" style="stroke: #000000; stroke-width: 0.8"/>
      </g>
     </g>
     <g id="text_5">
      <!-- 0.8 -->
      <g transform="translate(325.604801 322.182437) scale(0.1 -0.1)">
       <defs>
        <path id="DejaVuSans-38" d="M 2034 2216 
Q 1584 2216 1326 1975 
Q 1069 1734 1069 1313 
Q 1069 891 1326 650 
Q 1584 409 2034 409 
Q 2484 409 2743 651 
Q 3003 894 3003 1313 
Q 3003 1734 2745 1975 
Q 2488 2216 2034 2216 
z
M 1403 2484 
Q 997 2584 770 2862 
Q 544 3141 544 3541 
Q 544 4100 942 4425 
Q 1341 4750 2034 4750 
Q 2731 4750 3128 4425 
Q 3525 4100 3525 3541 
Q 3525 3141 3298 2862 
Q 3072 2584 2669 2484 
Q 3125 2378 3379 2068 
Q 3634 1759 3634 1313 
Q 3634 634 3220 271 
Q 2806 -91 2034 -91 
Q 1263 -91 848 271 
Q 434 634 434 1313 
Q 434 1759 690 2068 
Q 947 2378 1403 2484 
z
M 1172 3481 
Q 1172 3119 1398 2916 
Q 1625 2713 2034 2713 
Q 2441 2713 2670 2916 
Q 2900 3119 2900 3481 
Q 2900 3844 2670 4047 
Q 2441 4250 2034 4250 
Q 1625 4250 1398 4047 
Q 1172 3844 1172 3481 
z
" transform="scale(0.015625)"/>
       </defs>
       <use xlink:href="#DejaVuSans-30"/>
       <use xlink:href="#DejaVuSans-2e" x="63.623047"/>
       <use xlink:href="#DejaVuSans-38" x="95.410156"/>
      </g>
     </g>
    </g>
    <g id="xtick_6">
     <g id="line2d_6">
      <g>
       <use xlink:href="#m0213041e76" x="398.487273" y="307.584" style="stroke: #000000; stroke-width: 0.8"/>
      </g>
     </g>
     <g id="text_6">
      <!-- 1.0 -->
      <g transform="translate(390.53571 322.182437) scale(0.1 -0.1)">
       <defs>
        <path id="DejaVuSans-31" d="M 794 531 
L 1825 531 
L 1825 4091 
L 703 3866 
L 703 4441 
L 1819 4666 
L 2450 4666 
L 2450 531 
L 3481 531 
L 3481 0 
L 794 0 
L 794 531 
z
" transform="scale(0.015625)"/>
       </defs>
       <use xlink:href="#DejaVuSans-31"/>
       <use xlink:href="#DejaVuSans-2e" x="63.623047"/>
       <use xlink:href="#DejaVuSans-30" x="95.410156"/>
      </g>
     </g>
    </g>
    <g id="text_7">
     <!-- False Positive Rate -->
     <g transform="translate(189.693594 335.860562) scale(0.1 -0.1)">
      <defs>
       <path id="DejaVuSans-46" d="M 628 4666 
L 3309 4666 
L 3309 4134 
L 1259 4134 
L 1259 2759 
L 3109 2759 
L 3109 2228 
L 1259 2228 
L 1259 0 
L 628 0 
L 628 4666 
z
" transform="scale(0.015625)"/>
       <path id="DejaVuSans-61" d="M 2194 1759 
Q 1497 1759 1228 1600 
Q 959 1441 959 1056 
Q 959 750 1161 570 
Q 1363 391 1709 391 
Q 2188 391 2477 730 
Q 2766 1069 2766 1631 
L 2766 1759 
L 2194 1759 
z
M 3341 1997 
L 3341 0 
L 2766 0 
L 2766 531 
Q 2569 213 2275 61 
Q 1981 -91 1556 -91 
Q 1019 -91 701 211 
Q 384 513 384 1019 
Q 384 1609 779 1909 
Q 1175 2209 1959 2209 
L 2766 2209 
L 2766 2266 
Q 2766 2663 2505 2880 
Q 2244 3097 1772 3097 
Q 1472 3097 1187 3025 
Q 903 2953 641 2809 
L 641 3341 
Q 956 3463 1253 3523 
Q 1550 3584 1831 3584 
Q 2591 3584 2966 3190 
Q 3341 2797 3341 1997 
z
" transform="scale(0.015625)"/>
       <path id="DejaVuSans-6c" d="M 603 4863 
L 1178 4863 
L 1178 0 
L 603 0 
L 603 4863 
z
" transform="scale(0.015625)"/>
       <path id="DejaVuSans-73" d="M 2834 3397 
L 2834 2853 
Q 2591 2978 2328 3040 
Q 2066 3103 1784 3103 
Q 1356 3103 1142 2972 
Q 928 2841 928 2578 
Q 928 2378 1081 2264 
Q 1234 2150 1697 2047 
L 1894 2003 
Q 2506 1872 2764 1633 
Q 3022 1394 3022 966 
Q 3022 478 2636 193 
Q 2250 -91 1575 -91 
Q 1294 -91 989 -36 
Q 684 19 347 128 
L 347 722 
Q 666 556 975 473 
Q 1284 391 1588 391 
Q 1994 391 2212 530 
Q 2431 669 2431 922 
Q 2431 1156 2273 1281 
Q 2116 1406 1581 1522 
L 1381 1569 
Q 847 1681 609 1914 
Q 372 2147 372 2553 
Q 372 3047 722 3315 
Q 1072 3584 1716 3584 
Q 2034 3584 2315 3537 
Q 2597 3491 2834 3397 
z
" transform="scale(0.015625)"/>
       <path id="DejaVuSans-65" d="M 3597 1894 
L 3597 1613 
L 953 1613 
Q 991 1019 1311 708 
Q 1631 397 2203 397 
Q 2534 397 2845 478 
Q 3156 559 3463 722 
L 3463 178 
Q 3153 47 2828 -22 
Q 2503 -91 2169 -91 
Q 1331 -91 842 396 
Q 353 884 353 1716 
Q 353 2575 817 3079 
Q 1281 3584 2069 3584 
Q 2775 3584 3186 3129 
Q 3597 2675 3597 1894 
z
M 3022 2063 
Q 3016 2534 2758 2815 
Q 2500 3097 2075 3097 
Q 1594 3097 1305 2825 
Q 1016 2553 972 2059 
L 3022 2063 
z
" transform="scale(0.015625)"/>
       <path id="DejaVuSans-20" transform="scale(0.015625)"/>
       <path id="DejaVuSans-50" d="M 1259 4147 
L 1259 2394 
L 2053 2394 
Q 2494 2394 2734 2622 
Q 2975 2850 2975 3272 
Q 2975 3691 2734 3919 
Q 2494 4147 2053 4147 
L 1259 4147 
z
M 628 4666 
L 2053 4666 
Q 2838 4666 3239 4311 
Q 3641 3956 3641 3272 
Q 3641 2581 3239 2228 
Q 2838 1875 2053 1875 
L 1259 1875 
L 1259 0 
L 628 0 
L 628 4666 
z
" transform="scale(0.015625)"/>
       <path id="DejaVuSans-6f" d="M 1959 3097 
Q 1497 3097 1228 2736 
Q 959 2375 959 1747 
Q 959 1119 1226 758 
Q 1494 397 1959 397 
Q 2419 397 2687 759 
Q 2956 1122 2956 1747 
Q 2956 2369 2687 2733 
Q 2419 3097 1959 3097 
z
M 1959 3584 
Q 2709 3584 3137 3096 
Q 3566 2609 3566 1747 
Q 3566 888 3137 398 
Q 2709 -91 1959 -91 
Q 1206 -91 779 398 
Q 353 888 353 1747 
Q 353 2609 779 3096 
Q 1206 3584 1959 3584 
z
" transform="scale(0.015625)"/>
       <path id="DejaVuSans-69" d="M 603 3500 
L 1178 3500 
L 1178 0 
L 603 0 
L 603 3500 
z
M 603 4863 
L 1178 4863 
L 1178 4134 
L 603 4134 
L 603 4863 
z
" transform="scale(0.015625)"/>
       <path id="DejaVuSans-74" d="M 1172 4494 
L 1172 3500 
L 2356 3500 
L 2356 3053 
L 1172 3053 
L 1172 1153 
Q 1172 725 1289 603 
Q 1406 481 1766 481 
L 2356 481 
L 2356 0 
L 1766 0 
Q 1100 0 847 248 
Q 594 497 594 1153 
L 594 3053 
L 172 3053 
L 172 3500 
L 594 3500 
L 594 4494 
L 1172 4494 
z
" transform="scale(0.015625)"/>
       <path id="DejaVuSans-76" d="M 191 3500 
L 800 3500 
L 1894 563 
L 2988 3500 
L 3597 3500 
L 2284 0 
L 1503 0 
L 191 3500 
z
" transform="scale(0.015625)"/>
       <path id="DejaVuSans-52" d="M 2841 2188 
Q 3044 2119 3236 1894 
Q 3428 1669 3622 1275 
L 4263 0 
L 3584 0 
L 2988 1197 
Q 2756 1666 2539 1819 
Q 2322 1972 1947 1972 
L 1259 1972 
L 1259 0 
L 628 0 
L 628 4666 
L 2053 4666 
Q 2853 4666 3247 4331 
Q 3641 3997 3641 3322 
Q 3641 2881 3436 2590 
Q 3231 2300 2841 2188 
z
M 1259 4147 
L 1259 2491 
L 2053 2491 
Q 2509 2491 2742 2702 
Q 2975 2913 2975 3322 
Q 2975 3731 2742 3939 
Q 2509 4147 2053 4147 
L 1259 4147 
z
" transform="scale(0.015625)"/>
      </defs>
      <use xlink:href="#DejaVuSans-46"/>
      <use xlink:href="#DejaVuSans-61" x="48.394531"/>
      <use xlink:href="#DejaVuSans-6c" x="109.673828"/>
      <use xlink:href="#DejaVuSans-73" x="137.457031"/>
      <use xlink:href="#DejaVuSans-65" x="189.556641"/>
      <use xlink:href="#DejaVuSans-20" x="251.080078"/>
      <use xlink:href="#DejaVuSans-50" x="282.867188"/>
      <use xlink:href="#DejaVuSans-6f" x="339.544922"/>
      <use xlink:href="#DejaVuSans-73" x="400.726562"/>
      <use xlink:href="#DejaVuSans-69" x="452.826172"/>
      <use xlink:href="#DejaVuSans-74" x="480.609375"/>
      <use xlink:href="#DejaVuSans-69" x="519.818359"/>
      <use xlink:href="#DejaVuSans-76" x="547.601562"/>
      <use xlink:href="#DejaVuSans-65" x="606.78125"/>
      <use xlink:href="#DejaVuSans-20" x="668.304688"/>
      <use xlink:href="#DejaVuSans-52" x="700.091797"/>
      <use xlink:href="#DejaVuSans-61" x="767.324219"/>
      <use xlink:href="#DejaVuSans-74" x="828.603516"/>
      <use xlink:href="#DejaVuSans-65" x="867.8125"/>
     </g>
    </g>
   </g>
   <g id="matplotlib.axis_2">
    <g id="ytick_1">
     <g id="line2d_7">
      <defs>
       <path id="m7f4446e53c" d="M 0 0 
L -3.5 0 
" style="stroke: #000000; stroke-width: 0.8"/>
      </defs>
      <g>
       <use xlink:href="#m7f4446e53c" x="57.6" y="295.488" style="stroke: #000000; stroke-width: 0.8"/>
      </g>
     </g>
     <g id="text_8">
      <!-- 0.0 -->
      <g transform="translate(34.696875 299.287219) scale(0.1 -0.1)">
       <use xlink:href="#DejaVuSans-30"/>
       <use xlink:href="#DejaVuSans-2e" x="63.623047"/>
       <use xlink:href="#DejaVuSans-30" x="95.410156"/>
      </g>
     </g>
    </g>
    <g id="ytick_2">
     <g id="line2d_8">
      <g>
       <use xlink:href="#m7f4446e53c" x="57.6" y="247.104" style="stroke: #000000; stroke-width: 0.8"/>
      </g>
     </g>
     <g id="text_9">
      <!-- 0.2 -->
      <g transform="translate(34.696875 250.903219) scale(0.1 -0.1)">
       <use xlink:href="#DejaVuSans-30"/>
       <use xlink:href="#DejaVuSans-2e" x="63.623047"/>
       <use xlink:href="#DejaVuSans-32" x="95.410156"/>
      </g>
     </g>
    </g>
    <g id="ytick_3">
     <g id="line2d_9">
      <g>
       <use xlink:href="#m7f4446e53c" x="57.6" y="198.72" style="stroke: #000000; stroke-width: 0.8"/>
      </g>
     </g>
     <g id="text_10">
      <!-- 0.4 -->
      <g transform="translate(34.696875 202.519219) scale(0.1 -0.1)">
       <use xlink:href="#DejaVuSans-30"/>
       <use xlink:href="#DejaVuSans-2e" x="63.623047"/>
       <use xlink:href="#DejaVuSans-34" x="95.410156"/>
      </g>
     </g>
    </g>
    <g id="ytick_4">
     <g id="line2d_10">
      <g>
       <use xlink:href="#m7f4446e53c" x="57.6" y="150.336" style="stroke: #000000; stroke-width: 0.8"/>
      </g>
     </g>
     <g id="text_11">
      <!-- 0.6 -->
      <g transform="translate(34.696875 154.135219) scale(0.1 -0.1)">
       <use xlink:href="#DejaVuSans-30"/>
       <use xlink:href="#DejaVuSans-2e" x="63.623047"/>
       <use xlink:href="#DejaVuSans-36" x="95.410156"/>
      </g>
     </g>
    </g>
    <g id="ytick_5">
     <g id="line2d_11">
      <g>
       <use xlink:href="#m7f4446e53c" x="57.6" y="101.952" style="stroke: #000000; stroke-width: 0.8"/>
      </g>
     </g>
     <g id="text_12">
      <!-- 0.8 -->
      <g transform="translate(34.696875 105.751219) scale(0.1 -0.1)">
       <use xlink:href="#DejaVuSans-30"/>
       <use xlink:href="#DejaVuSans-2e" x="63.623047"/>
       <use xlink:href="#DejaVuSans-38" x="95.410156"/>
      </g>
     </g>
    </g>
    <g id="ytick_6">
     <g id="line2d_12">
      <g>
       <use xlink:href="#m7f4446e53c" x="57.6" y="53.568" style="stroke: #000000; stroke-width: 0.8"/>
      </g>
     </g>
     <g id="text_13">
      <!-- 1.0 -->
      <g transform="translate(34.696875 57.367219) scale(0.1 -0.1)">
       <use xlink:href="#DejaVuSans-31"/>
       <use xlink:href="#DejaVuSans-2e" x="63.623047"/>
       <use xlink:href="#DejaVuSans-30" x="95.410156"/>
      </g>
     </g>
    </g>
    <g id="text_14">
     <!-- True Positive Rate -->
     <g transform="translate(28.617187 219.057687) rotate(-90) scale(0.1 -0.1)">
      <defs>
       <path id="DejaVuSans-54" d="M -19 4666 
L 3928 4666 
L 3928 4134 
L 2272 4134 
L 2272 0 
L 1638 0 
L 1638 4134 
L -19 4134 
L -19 4666 
z
" transform="scale(0.015625)"/>
       <path id="DejaVuSans-72" d="M 2631 2963 
Q 2534 3019 2420 3045 
Q 2306 3072 2169 3072 
Q 1681 3072 1420 2755 
Q 1159 2438 1159 1844 
L 1159 0 
L 581 0 
L 581 3500 
L 1159 3500 
L 1159 2956 
Q 1341 3275 1631 3429 
Q 1922 3584 2338 3584 
Q 2397 3584 2469 3576 
Q 2541 3569 2628 3553 
L 2631 2963 
z
" transform="scale(0.015625)"/>
       <path id="DejaVuSans-75" d="M 544 1381 
L 544 3500 
L 1119 3500 
L 1119 1403 
Q 1119 906 1312 657 
Q 1506 409 1894 409 
Q 2359 409 2629 706 
Q 2900 1003 2900 1516 
L 2900 3500 
L 3475 3500 
L 3475 0 
L 2900 0 
L 2900 538 
Q 2691 219 2414 64 
Q 2138 -91 1772 -91 
Q 1169 -91 856 284 
Q 544 659 544 1381 
z
M 1991 3584 
L 1991 3584 
z
" transform="scale(0.015625)"/>
      </defs>
      <use xlink:href="#DejaVuSans-54"/>
      <use xlink:href="#DejaVuSans-72" x="46.333984"/>
      <use xlink:href="#DejaVuSans-75" x="87.447266"/>
      <use xlink:href="#DejaVuSans-65" x="150.826172"/>
      <use xlink:href="#DejaVuSans-20" x="212.349609"/>
      <use xlink:href="#DejaVuSans-50" x="244.136719"/>
      <use xlink:href="#DejaVuSans-6f" x="300.814453"/>
      <use xlink:href="#DejaVuSans-73" x="361.996094"/>
      <use xlink:href="#DejaVuSans-69" x="414.095703"/>
      <use xlink:href="#DejaVuSans-74" x="441.878906"/>
      <use xlink:href="#DejaVuSans-69" x="481.087891"/>
      <use xlink:href="#DejaVuSans-76" x="508.871094"/>
      <use xlink:href="#DejaVuSans-65" x="568.050781"/>
      <use xlink:href="#DejaVuSans-20" x="629.574219"/>
      <use xlink:href="#DejaVuSans-52" x="661.361328"/>
      <use xlink:href="#DejaVuSans-61" x="728.59375"/>
      <use xlink:href="#DejaVuSans-74" x="789.873047"/>
      <use xlink:href="#DejaVuSans-65" x="829.082031"/>
     </g>
    </g>
   </g>
   <g id="line2d_13">
    <path d="M 73.832727 295.488 
L 80.657729 213.531429 
L 80.801413 213.421714 
L 80.873255 211.885714 
L 81.088782 211.776 
L 81.160624 207.936 
L 81.447992 207.661714 
L 81.519834 205.851429 
L 81.591676 205.851429 
L 81.663518 202.230857 
L 81.735361 202.230857 
L 81.807203 201.682286 
L 81.879045 201.682286 
L 81.950887 197.238857 
L 82.022729 197.238857 
L 82.094571 193.069714 
L 82.166413 193.069714 
L 82.166413 193.014857 
L 82.238255 192.246857 
L 82.310098 192.246857 
L 82.310098 191.149714 
L 82.453782 191.149714 
L 82.525624 188.736 
L 82.669308 188.681143 
L 82.74115 187.968 
L 82.812992 187.968 
L 82.884835 185.28 
L 82.956677 185.170286 
L 83.028519 184.347429 
L 83.100361 184.347429 
L 83.172203 182.427429 
L 83.315887 182.372571 
L 83.387729 181.110857 
L 83.603256 181.001143 
L 83.675098 177.984 
L 83.818782 177.984 
L 83.890624 176.886857 
L 83.962466 176.886857 
L 84.034308 174.966857 
L 84.177993 174.857143 
L 84.249835 174.473143 
L 84.321677 174.473143 
L 84.393519 172.498286 
L 84.537203 172.498286 
L 84.609045 171.401143 
L 84.680888 171.401143 
L 84.680888 170.962286 
L 85.902204 167.945143 
L 85.974046 167.286857 
L 86.045888 167.286857 
L 86.11773 166.628571 
L 86.189572 166.628571 
L 86.189572 165.750857 
L 86.333256 165.750857 
L 86.405098 164.873143 
L 86.476941 164.873143 
L 86.476941 164.598857 
L 86.620625 164.598857 
L 86.692467 163.940571 
L 86.764309 163.940571 
L 86.836151 163.337143 
L 86.907993 163.337143 
L 86.907993 163.008 
L 87.051678 163.008 
L 87.12352 162.624 
L 87.267204 162.514286 
L 87.267204 161.526857 
L 87.410888 161.472 
L 87.48273 160.539429 
L 87.554572 160.484571 
L 87.626415 159.716571 
L 87.770099 159.716571 
L 87.770099 159.497143 
L 87.913783 159.497143 
L 87.913783 159.332571 
L 88.201152 159.277714 
L 88.272994 158.838857 
L 88.344836 158.838857 
L 88.344836 158.784 
L 88.416678 157.906286 
L 88.48852 157.906286 
L 88.560362 157.632 
L 88.775888 157.522286 
L 88.847731 157.302857 
L 89.063257 157.248 
L 89.135099 156.754286 
L 89.206941 156.754286 
L 89.206941 156.644571 
L 89.278783 156.370286 
L 89.422468 156.260571 
L 89.422468 155.712 
L 89.566152 155.712 
L 89.566152 155.437714 
L 90.069047 155.382857 
L 90.140889 155.218286 
L 90.428257 155.218286 
L 90.428257 155.108571 
L 90.428257 154.998857 
L 90.931152 154.944 
L 91.002994 154.724571 
L 91.146678 154.724571 
L 91.577731 153.846857 
L 92.152468 153.792 
L 92.152468 153.682286 
L 92.799047 153.462857 
L 93.445626 153.298286 
L 93.445626 153.133714 
L 93.804837 153.024 
L 93.876679 152.804571 
L 94.020363 152.804571 
L 94.092205 152.201143 
L 94.164048 152.201143 
L 94.23589 151.158857 
L 94.666942 150.281143 
L 94.738785 147.702857 
L 94.810627 147.702857 
L 94.882469 146.441143 
L 95.241679 145.673143 
L 95.241679 144.740571 
L 95.457206 144.740571 
L 95.529048 143.314286 
L 95.60089 143.314286 
L 95.672732 142.546286 
L 95.744574 142.546286 
L 95.744574 142.436571 
L 95.816416 142.381714 
L 95.888258 141.339429 
L 96.031943 141.174857 
L 96.103785 140.187429 
L 96.247469 140.077714 
L 96.319311 139.309714 
L 96.462995 139.309714 
L 96.534838 138.486857 
L 96.60668 138.486857 
L 96.60668 138.377143 
L 96.678522 138.322286 
L 96.750364 138.048 
L 96.822206 138.048 
L 96.894048 136.566857 
L 96.96589 136.566857 
L 97.037732 135.469714 
L 97.109575 135.469714 
L 97.181417 134.866286 
L 97.253259 134.811429 
L 97.253259 134.482286 
L 97.396943 134.482286 
L 97.396943 133.933714 
L 97.612469 133.824 
L 97.612469 133.44 
L 97.756154 133.44 
L 97.827996 132.068571 
L 97.97168 131.958857 
L 98.043522 131.465143 
L 98.187206 131.355429 
L 98.259048 130.971429 
L 98.402733 130.971429 
L 98.402733 130.752 
L 98.618259 130.697143 
L 98.618259 129.6 
L 98.761943 129.6 
L 98.833785 129.270857 
L 98.905628 129.270857 
L 98.97747 128.612571 
L 99.121154 128.612571 
L 99.121154 127.789714 
L 99.33668 127.68 
L 99.408522 127.186286 
L 99.552207 127.131429 
L 99.624049 126.637714 
L 99.767733 126.582857 
L 99.839575 126.198857 
L 100.055101 125.869714 
L 101.132733 123.236571 
L 101.204575 122.413714 
L 101.34826 122.358857 
L 101.34826 122.084571 
L 101.491944 122.084571 
L 101.563786 120.548571 
L 101.635628 120.548571 
L 101.70747 119.835429 
L 101.851155 119.725714 
L 101.922997 118.848 
L 101.994839 118.848 
L 102.066681 118.134857 
L 102.497734 117.586286 
L 102.497734 116.982857 
L 102.71326 116.982857 
L 102.785102 116.434286 
L 102.856944 116.434286 
L 102.856944 116.379429 
L 102.856944 116.269714 
L 103.144313 116.214857 
L 103.216155 115.666286 
L 103.287997 115.666286 
L 103.287997 115.392 
L 103.790892 115.282286 
L 103.790892 115.008 
L 104.07826 114.898286 
L 104.150102 114.733714 
L 104.221945 114.733714 
L 104.221945 114.130286 
L 104.437471 114.020571 
L 104.509313 113.801143 
L 104.652997 113.801143 
L 104.724839 113.526857 
L 105.371418 113.417143 
L 105.371418 113.362286 
L 105.658787 113.252571 
L 105.658787 113.142857 
L 106.08984 113.088 
L 106.08984 112.978286 
L 106.951945 112.868571 
L 107.023787 112.704 
L 107.311156 112.649143 
L 107.311156 112.594286 
L 107.382998 112.429714 
L 109.82563 111.990857 
L 109.82563 111.826286 
L 110.615893 111.716571 
L 110.687735 111.606857 
L 110.975104 111.552 
L 111.118788 111.332571 
L 111.837209 111.222857 
L 111.837209 111.168 
L 112.483788 111.058286 
L 112.483788 111.003429 
L 112.627473 111.003429 
L 112.627473 110.838857 
L 114.207999 110.729143 
L 114.207999 110.674286 
L 114.279841 110.674286 
L 115.429315 109.906286 
L 115.716684 109.906286 
L 115.788526 109.686857 
L 116.075895 109.577143 
L 116.147737 109.467429 
L 116.435105 109.357714 
L 116.506947 109.193143 
L 117.297211 108.644571 
L 117.728263 108.534857 
L 117.800105 108.370286 
L 118.015632 108.260571 
L 118.015632 107.931429 
L 118.446685 107.821714 
L 118.518527 107.657143 
L 118.734053 107.547429 
L 118.949579 107.437714 
L 119.021421 106.395429 
L 119.165106 106.066286 
L 119.165106 105.737143 
L 119.30879 105.737143 
L 119.30879 105.572571 
L 119.452474 105.572571 
L 119.524316 104.914286 
L 119.811685 104.585143 
L 119.883527 104.256 
L 120.027211 104.256 
L 120.099053 103.158857 
L 120.242738 102.884571 
L 120.242738 102.610286 
L 120.458264 102.610286 
L 120.530106 102.006857 
L 120.601948 102.006857 
L 120.67379 101.238857 
L 120.817475 101.184 
L 120.817475 100.8 
L 121.033001 100.745143 
L 121.104843 100.306286 
L 121.176685 100.306286 
L 121.248527 99.154286 
L 121.392211 99.154286 
L 121.464054 98.441143 
L 121.535896 98.441143 
L 121.607738 98.221714 
L 121.67958 98.221714 
L 121.67958 98.002286 
L 121.823264 98.002286 
L 121.895106 97.728 
L 122.254317 97.618286 
L 122.326159 97.344 
L 122.398001 97.344 
L 122.469843 97.069714 
L 122.541685 97.069714 
L 122.613528 96.082286 
L 122.68537 96.082286 
L 122.68537 95.917714 
L 122.829054 95.917714 
L 122.900896 94.875429 
L 123.188264 94.765714 
L 123.260107 94.601143 
L 123.547475 94.491429 
L 123.619317 93.888 
L 126.061949 92.352 
L 126.133791 91.803429 
L 126.277476 91.748571 
L 126.277476 91.474286 
L 126.42116 91.474286 
L 126.493002 90.980571 
L 126.564844 90.980571 
L 126.636686 90.651429 
L 126.995897 90.541714 
L 126.995897 90.486857 
L 127.139581 90.486857 
L 127.211423 90.267429 
L 127.283265 90.267429 
L 127.355108 90.048 
L 127.642476 89.993143 
L 127.714318 89.718857 
L 127.78616 89.718857 
L 127.858002 89.225143 
L 128.360897 89.115429 
L 128.432739 89.005714 
L 128.504581 89.005714 
L 128.576424 88.676571 
L 128.648266 88.676571 
L 128.648266 88.402286 
L 129.007476 88.292571 
L 129.079318 87.963429 
L 129.654055 87.853714 
L 129.725898 87.744 
L 129.869582 87.634286 
L 129.941424 86.921143 
L 130.013266 86.921143 
L 130.085108 86.537143 
L 130.300634 86.482286 
L 130.372477 85.988571 
L 130.588003 85.659429 
L 130.947214 85.549714 
L 130.947214 85.494857 
L 131.16274 85.494857 
L 131.16274 85.385143 
L 131.306424 85.220571 
L 132.096688 85.165714 
L 132.096688 85.110857 
L 132.16853 84.781714 
L 132.599582 84.672 
L 132.671424 84.507429 
L 132.886951 84.397714 
L 132.958793 84.233143 
L 133.677214 84.123429 
L 133.677214 84.013714 
L 134.036425 83.904 
L 134.108267 83.739429 
L 134.970372 83.629714 
L 134.970372 83.574857 
L 136.766425 83.465143 
L 136.981952 83.190857 
L 139.209058 83.081143 
L 139.209058 83.026286 
L 141.364321 82.916571 
L 141.364321 82.861714 
L 143.088532 82.752 
L 143.304058 82.697143 
L 146.177743 82.587429 
L 146.177743 82.532571 
L 149.12327 82.422857 
L 149.12327 82.368 
L 151.422218 82.258286 
L 151.422218 82.203429 
L 153.002745 82.093714 
L 153.074587 81.874286 
L 153.721166 81.764571 
L 153.721166 81.709714 
L 154.655114 81.6 
L 154.726956 81.380571 
L 154.87064 81.380571 
L 154.87064 81.216 
L 154.942482 81.216 
L 155.517219 81.106286 
L 155.589061 80.886857 
L 156.091956 80.777143 
L 156.091956 80.722286 
L 156.523009 80.667429 
L 156.594851 80.448 
L 156.738535 80.338286 
L 156.810377 80.173714 
L 157.169588 80.064 
L 157.169588 79.899429 
L 157.385114 79.844571 
L 157.456956 79.405714 
L 157.600641 79.296 
L 157.600641 78.966857 
L 158.031693 78.857143 
L 158.103535 78.637714 
L 158.462746 78.582857 
L 158.534588 78.418286 
L 158.893799 78.308571 
L 158.893799 78.144 
L 159.468536 78.034286 
L 159.468536 77.979429 
L 159.684062 77.979429 
L 159.755904 77.705143 
L 160.115115 77.595429 
L 160.115115 77.485714 
L 160.330641 77.376 
L 160.402483 76.717714 
L 160.546167 76.608 
L 160.546167 76.498286 
L 160.761694 76.388571 
L 160.761694 76.224 
L 161.049062 76.169143 
L 161.120904 75.84 
L 161.264589 75.84 
L 161.336431 75.456 
L 161.695641 75.346286 
L 161.767484 75.017143 
L 162.414063 74.907429 
L 162.414063 74.852571 
L 164.784853 73.371429 
L 164.784853 73.206857 
L 165.000379 73.097143 
L 165.000379 72.932571 
L 165.215905 72.877714 
L 165.215905 72.768 
L 165.503274 72.768 
L 165.575116 72.438857 
L 166.078011 72.329143 
L 166.078011 72.109714 
L 166.221695 72.109714 
L 166.221695 71.945143 
L 166.509064 71.945143 
L 166.580906 71.670857 
L 166.72459 71.616 
L 166.72459 71.506286 
L 166.868274 71.506286 
L 166.940116 71.286857 
L 167.011958 71.286857 
L 167.083801 70.902857 
L 167.586695 70.793143 
L 167.586695 70.738286 
L 167.945906 70.628571 
L 167.945906 70.518857 
L 168.305117 70.464 
L 168.305117 70.299429 
L 168.736169 70.244571 
L 168.736169 70.134857 
L 169.09538 70.134857 
L 169.09538 69.970286 
L 169.382748 69.860571 
L 169.382748 69.805714 
L 169.957485 69.696 
L 170.029327 69.531429 
L 170.10117 69.531429 
L 170.10117 69.202286 
L 170.244854 69.202286 
L 170.244854 68.928 
L 171.106959 68.818286 
L 171.106959 68.763429 
L 171.322486 68.708571 
L 171.394328 68.489143 
L 171.897223 68.434286 
L 171.969065 68.214857 
L 172.256433 68.105143 
L 172.256433 68.050286 
L 172.543802 67.995429 
L 172.543802 67.885714 
L 172.903012 67.776 
L 172.903012 67.721143 
L 173.334065 67.666286 
L 173.334065 67.501714 
L 173.621434 67.501714 
L 173.621434 67.337143 
L 174.339855 67.282286 
L 174.339855 67.117714 
L 175.273802 67.008 
L 175.273802 66.953143 
L 176.064066 66.843429 
L 176.135908 66.624 
L 176.998013 66.514286 
L 177.069855 66.404571 
L 177.860119 66.294857 
L 177.860119 66.185143 
L 179.296961 66.075429 
L 179.296961 66.020571 
L 181.883277 65.746286 
L 185.331699 65.636571 
L 185.762752 65.472 
L 189.283016 65.362286 
L 189.283016 65.307429 
L 190.935385 65.197714 
L 191.150911 65.142857 
L 198.478807 65.142857 
L 199.700124 64.923429 
L 204.872756 64.813714 
L 204.872756 64.758857 
L 213.278284 64.704 
L 213.565653 64.539429 
L 218.091707 64.484571 
L 398.487273 53.568 
L 398.487273 53.568 
" clip-path="url(#p9ad44323f9)" style="fill: none; stroke: #1f77b4; stroke-width: 1.5; stroke-linecap: square"/>
   </g>
   <g id="patch_3">
    <path d="M 57.6 307.584 
L 57.6 41.472 
" style="fill: none; stroke: #000000; stroke-width: 0.8; stroke-linejoin: miter; stroke-linecap: square"/>
   </g>
   <g id="patch_4">
    <path d="M 414.72 307.584 
L 414.72 41.472 
" style="fill: none; stroke: #000000; stroke-width: 0.8; stroke-linejoin: miter; stroke-linecap: square"/>
   </g>
   <g id="patch_5">
    <path d="M 57.6 307.584 
L 414.72 307.584 
" style="fill: none; stroke: #000000; stroke-width: 0.8; stroke-linejoin: miter; stroke-linecap: square"/>
   </g>
   <g id="patch_6">
    <path d="M 57.6 41.472 
L 414.72 41.472 
" style="fill: none; stroke: #000000; stroke-width: 0.8; stroke-linejoin: miter; stroke-linecap: square"/>
   </g>
   <g id="legend_1">
    <g id="patch_7">
     <path d="M 317.57625 302.584 
L 407.72 302.584 
Q 409.72 302.584 409.72 300.584 
L 409.72 286.905875 
Q 409.72 284.905875 407.72 284.905875 
L 317.57625 284.905875 
Q 315.57625 284.905875 315.57625 286.905875 
L 315.57625 300.584 
Q 315.57625 302.584 317.57625 302.584 
z
" style="fill: #ffffff; opacity: 0.8; stroke: #cccccc; stroke-linejoin: miter"/>
    </g>
    <g id="line2d_14">
     <path d="M 319.57625 293.004312 
L 329.57625 293.004312 
L 339.57625 293.004312 
" style="fill: none; stroke: #1f77b4; stroke-width: 1.5; stroke-linecap: square"/>
    </g>
    <g id="text_15">
     <!-- AUC = 0.90 -->
     <g transform="translate(347.57625 296.504312) scale(0.1 -0.1)">
      <defs>
       <path id="DejaVuSans-41" d="M 2188 4044 
L 1331 1722 
L 3047 1722 
L 2188 4044 
z
M 1831 4666 
L 2547 4666 
L 4325 0 
L 3669 0 
L 3244 1197 
L 1141 1197 
L 716 0 
L 50 0 
L 1831 4666 
z
" transform="scale(0.015625)"/>
       <path id="DejaVuSans-55" d="M 556 4666 
L 1191 4666 
L 1191 1831 
Q 1191 1081 1462 751 
Q 1734 422 2344 422 
Q 2950 422 3222 751 
Q 3494 1081 3494 1831 
L 3494 4666 
L 4128 4666 
L 4128 1753 
Q 4128 841 3676 375 
Q 3225 -91 2344 -91 
Q 1459 -91 1007 375 
Q 556 841 556 1753 
L 556 4666 
z
" transform="scale(0.015625)"/>
       <path id="DejaVuSans-43" d="M 4122 4306 
L 4122 3641 
Q 3803 3938 3442 4084 
Q 3081 4231 2675 4231 
Q 1875 4231 1450 3742 
Q 1025 3253 1025 2328 
Q 1025 1406 1450 917 
Q 1875 428 2675 428 
Q 3081 428 3442 575 
Q 3803 722 4122 1019 
L 4122 359 
Q 3791 134 3420 21 
Q 3050 -91 2638 -91 
Q 1578 -91 968 557 
Q 359 1206 359 2328 
Q 359 3453 968 4101 
Q 1578 4750 2638 4750 
Q 3056 4750 3426 4639 
Q 3797 4528 4122 4306 
z
" transform="scale(0.015625)"/>
       <path id="DejaVuSans-3d" d="M 678 2906 
L 4684 2906 
L 4684 2381 
L 678 2381 
L 678 2906 
z
M 678 1631 
L 4684 1631 
L 4684 1100 
L 678 1100 
L 678 1631 
z
" transform="scale(0.015625)"/>
       <path id="DejaVuSans-39" d="M 703 97 
L 703 672 
Q 941 559 1184 500 
Q 1428 441 1663 441 
Q 2288 441 2617 861 
Q 2947 1281 2994 2138 
Q 2813 1869 2534 1725 
Q 2256 1581 1919 1581 
Q 1219 1581 811 2004 
Q 403 2428 403 3163 
Q 403 3881 828 4315 
Q 1253 4750 1959 4750 
Q 2769 4750 3195 4129 
Q 3622 3509 3622 2328 
Q 3622 1225 3098 567 
Q 2575 -91 1691 -91 
Q 1453 -91 1209 -44 
Q 966 3 703 97 
z
M 1959 2075 
Q 2384 2075 2632 2365 
Q 2881 2656 2881 3163 
Q 2881 3666 2632 3958 
Q 2384 4250 1959 4250 
Q 1534 4250 1286 3958 
Q 1038 3666 1038 3163 
Q 1038 2656 1286 2365 
Q 1534 2075 1959 2075 
z
" transform="scale(0.015625)"/>
      </defs>
      <use xlink:href="#DejaVuSans-41"/>
      <use xlink:href="#DejaVuSans-55" x="68.408203"/>
      <use xlink:href="#DejaVuSans-43" x="141.601562"/>
      <use xlink:href="#DejaVuSans-20" x="211.425781"/>
      <use xlink:href="#DejaVuSans-3d" x="243.212891"/>
      <use xlink:href="#DejaVuSans-20" x="327.001953"/>
      <use xlink:href="#DejaVuSans-30" x="358.789062"/>
      <use xlink:href="#DejaVuSans-2e" x="422.412109"/>
      <use xlink:href="#DejaVuSans-39" x="454.199219"/>
      <use xlink:href="#DejaVuSans-30" x="517.822266"/>
     </g>
    </g>
   </g>
  </g>
 </g>
 <defs>
  <clipPath id="p9ad44323f9">
   <rect x="57.6" y="41.472" width="357.12" height="266.112"/>
  </clipPath>
 </defs>
</svg>
