<?xml version="1.0" encoding="utf-8" standalone="no"?>
<!DOCTYPE svg PUBLIC "-//W3C//DTD SVG 1.1//EN"
  "http://www.w3.org/Graphics/SVG/1.1/DTD/svg11.dtd">
<svg xmlns:xlink="http://www.w3.org/1999/xlink" width="460.8pt" height="345.6pt" viewBox="0 0 460.8 345.6" xmlns="http://www.w3.org/2000/svg" version="1.1">
 <metadata>
  <rdf:RDF xmlns:dc="http://purl.org/dc/elements/1.1/" xmlns:cc="http://creativecommons.org/ns#" xmlns:rdf="http://www.w3.org/1999/02/22-rdf-syntax-ns#">
   <cc:Work>
    <dc:type rdf:resource="http://purl.org/dc/dcmitype/StillImage"/>
    <dc:date>2022-11-21T17:16:22.953499</dc:date>
    <dc:format>image/svg+xml</dc:format>
    <dc:creator>
     <cc:Agent>
      <dc:title>Matplotlib v3.6.2, https://matplotlib.org/</dc:title>
     </cc:Agent>
    </dc:creator>
   </cc:Work>
  </rdf:RDF>
 </metadata>
 <defs>
  <style type="text/css">*{stroke-linejoin: round; stroke-linecap: butt}</style>
 </defs>
 <g id="figure_1">
  <g id="patch_1">
   <path d="M 0 345.6 
L 460.8 345.6 
L 460.8 0 
L 0 0 
z
" style="fill: #ffffff"/>
  </g>
  <g id="axes_1">
   <g id="patch_2">
    <path d="M 57.6 307.584 
L 414.72 307.584 
L 414.72 41.472 
L 57.6 41.472 
z
" style="fill: #ffffff"/>
   </g>
   <g id="matplotlib.axis_1">
    <g id="xtick_1">
     <g id="line2d_1">
      <defs>
       <path id="m86129d1a87" d="M 0 0 
L 0 3.5 
" style="stroke: #000000; stroke-width: 0.8"/>
      </defs>
      <g>
       <use xlink:href="#m86129d1a87" x="73.832727" y="307.584" style="stroke: #000000; stroke-width: 0.8"/>
      </g>
     </g>
     <g id="text_1">
      <!-- 0.0 -->
      <g transform="translate(65.881165 322.182437) scale(0.1 -0.1)">
       <defs>
        <path id="DejaVuSans-30" d="M 2034 4250 
Q 1547 4250 1301 3770 
Q 1056 3291 1056 2328 
Q 1056 1369 1301 889 
Q 1547 409 2034 409 
Q 2525 409 2770 889 
Q 3016 1369 3016 2328 
Q 3016 3291 2770 3770 
Q 2525 4250 2034 4250 
z
M 2034 4750 
Q 2819 4750 3233 4129 
Q 3647 3509 3647 2328 
Q 3647 1150 3233 529 
Q 2819 -91 2034 -91 
Q 1250 -91 836 529 
Q 422 1150 422 2328 
Q 422 3509 836 4129 
Q 1250 4750 2034 4750 
z
" transform="scale(0.015625)"/>
        <path id="DejaVuSans-2e" d="M 684 794 
L 1344 794 
L 1344 0 
L 684 0 
L 684 794 
z
" transform="scale(0.015625)"/>
       </defs>
       <use xlink:href="#DejaVuSans-30"/>
       <use xlink:href="#DejaVuSans-2e" x="63.623047"/>
       <use xlink:href="#DejaVuSans-30" x="95.410156"/>
      </g>
     </g>
    </g>
    <g id="xtick_2">
     <g id="line2d_2">
      <g>
       <use xlink:href="#m86129d1a87" x="138.763636" y="307.584" style="stroke: #000000; stroke-width: 0.8"/>
      </g>
     </g>
     <g id="text_2">
      <!-- 0.2 -->
      <g transform="translate(130.812074 322.182437) scale(0.1 -0.1)">
       <defs>
        <path id="DejaVuSans-32" d="M 1228 531 
L 3431 531 
L 3431 0 
L 469 0 
L 469 531 
Q 828 903 1448 1529 
Q 2069 2156 2228 2338 
Q 2531 2678 2651 2914 
Q 2772 3150 2772 3378 
Q 2772 3750 2511 3984 
Q 2250 4219 1831 4219 
Q 1534 4219 1204 4116 
Q 875 4013 500 3803 
L 500 4441 
Q 881 4594 1212 4672 
Q 1544 4750 1819 4750 
Q 2544 4750 2975 4387 
Q 3406 4025 3406 3419 
Q 3406 3131 3298 2873 
Q 3191 2616 2906 2266 
Q 2828 2175 2409 1742 
Q 1991 1309 1228 531 
z
" transform="scale(0.015625)"/>
       </defs>
       <use xlink:href="#DejaVuSans-30"/>
       <use xlink:href="#DejaVuSans-2e" x="63.623047"/>
       <use xlink:href="#DejaVuSans-32" x="95.410156"/>
      </g>
     </g>
    </g>
    <g id="xtick_3">
     <g id="line2d_3">
      <g>
       <use xlink:href="#m86129d1a87" x="203.694545" y="307.584" style="stroke: #000000; stroke-width: 0.8"/>
      </g>
     </g>
     <g id="text_3">
      <!-- 0.4 -->
      <g transform="translate(195.742983 322.182437) scale(0.1 -0.1)">
       <defs>
        <path id="DejaVuSans-34" d="M 2419 4116 
L 825 1625 
L 2419 1625 
L 2419 4116 
z
M 2253 4666 
L 3047 4666 
L 3047 1625 
L 3713 1625 
L 3713 1100 
L 3047 1100 
L 3047 0 
L 2419 0 
L 2419 1100 
L 313 1100 
L 313 1709 
L 2253 4666 
z
" transform="scale(0.015625)"/>
       </defs>
       <use xlink:href="#DejaVuSans-30"/>
       <use xlink:href="#DejaVuSans-2e" x="63.623047"/>
       <use xlink:href="#DejaVuSans-34" x="95.410156"/>
      </g>
     </g>
    </g>
    <g id="xtick_4">
     <g id="line2d_4">
      <g>
       <use xlink:href="#m86129d1a87" x="268.625455" y="307.584" style="stroke: #000000; stroke-width: 0.8"/>
      </g>
     </g>
     <g id="text_4">
      <!-- 0.6 -->
      <g transform="translate(260.673892 322.182437) scale(0.1 -0.1)">
       <defs>
        <path id="DejaVuSans-36" d="M 2113 2584 
Q 1688 2584 1439 2293 
Q 1191 2003 1191 1497 
Q 1191 994 1439 701 
Q 1688 409 2113 409 
Q 2538 409 2786 701 
Q 3034 994 3034 1497 
Q 3034 2003 2786 2293 
Q 2538 2584 2113 2584 
z
M 3366 4563 
L 3366 3988 
Q 3128 4100 2886 4159 
Q 2644 4219 2406 4219 
Q 1781 4219 1451 3797 
Q 1122 3375 1075 2522 
Q 1259 2794 1537 2939 
Q 1816 3084 2150 3084 
Q 2853 3084 3261 2657 
Q 3669 2231 3669 1497 
Q 3669 778 3244 343 
Q 2819 -91 2113 -91 
Q 1303 -91 875 529 
Q 447 1150 447 2328 
Q 447 3434 972 4092 
Q 1497 4750 2381 4750 
Q 2619 4750 2861 4703 
Q 3103 4656 3366 4563 
z
" transform="scale(0.015625)"/>
       </defs>
       <use xlink:href="#DejaVuSans-30"/>
       <use xlink:href="#DejaVuSans-2e" x="63.623047"/>
       <use xlink:href="#DejaVuSans-36" x="95.410156"/>
      </g>
     </g>
    </g>
    <g id="xtick_5">
     <g id="line2d_5">
      <g>
       <use xlink:href="#m86129d1a87" x="333.556364" y="307.584" style="stroke: #000000; stroke-width: 0.8"/>
      </g>
     </g>
     <g id="text_5">
      <!-- 0.8 -->
      <g transform="translate(325.604801 322.182437) scale(0.1 -0.1)">
       <defs>
        <path id="DejaVuSans-38" d="M 2034 2216 
Q 1584 2216 1326 1975 
Q 1069 1734 1069 1313 
Q 1069 891 1326 650 
Q 1584 409 2034 409 
Q 2484 409 2743 651 
Q 3003 894 3003 1313 
Q 3003 1734 2745 1975 
Q 2488 2216 2034 2216 
z
M 1403 2484 
Q 997 2584 770 2862 
Q 544 3141 544 3541 
Q 544 4100 942 4425 
Q 1341 4750 2034 4750 
Q 2731 4750 3128 4425 
Q 3525 4100 3525 3541 
Q 3525 3141 3298 2862 
Q 3072 2584 2669 2484 
Q 3125 2378 3379 2068 
Q 3634 1759 3634 1313 
Q 3634 634 3220 271 
Q 2806 -91 2034 -91 
Q 1263 -91 848 271 
Q 434 634 434 1313 
Q 434 1759 690 2068 
Q 947 2378 1403 2484 
z
M 1172 3481 
Q 1172 3119 1398 2916 
Q 1625 2713 2034 2713 
Q 2441 2713 2670 2916 
Q 2900 3119 2900 3481 
Q 2900 3844 2670 4047 
Q 2441 4250 2034 4250 
Q 1625 4250 1398 4047 
Q 1172 3844 1172 3481 
z
" transform="scale(0.015625)"/>
       </defs>
       <use xlink:href="#DejaVuSans-30"/>
       <use xlink:href="#DejaVuSans-2e" x="63.623047"/>
       <use xlink:href="#DejaVuSans-38" x="95.410156"/>
      </g>
     </g>
    </g>
    <g id="xtick_6">
     <g id="line2d_6">
      <g>
       <use xlink:href="#m86129d1a87" x="398.487273" y="307.584" style="stroke: #000000; stroke-width: 0.8"/>
      </g>
     </g>
     <g id="text_6">
      <!-- 1.0 -->
      <g transform="translate(390.53571 322.182437) scale(0.1 -0.1)">
       <defs>
        <path id="DejaVuSans-31" d="M 794 531 
L 1825 531 
L 1825 4091 
L 703 3866 
L 703 4441 
L 1819 4666 
L 2450 4666 
L 2450 531 
L 3481 531 
L 3481 0 
L 794 0 
L 794 531 
z
" transform="scale(0.015625)"/>
       </defs>
       <use xlink:href="#DejaVuSans-31"/>
       <use xlink:href="#DejaVuSans-2e" x="63.623047"/>
       <use xlink:href="#DejaVuSans-30" x="95.410156"/>
      </g>
     </g>
    </g>
    <g id="text_7">
     <!-- False Positive Rate -->
     <g transform="translate(189.693594 335.860562) scale(0.1 -0.1)">
      <defs>
       <path id="DejaVuSans-46" d="M 628 4666 
L 3309 4666 
L 3309 4134 
L 1259 4134 
L 1259 2759 
L 3109 2759 
L 3109 2228 
L 1259 2228 
L 1259 0 
L 628 0 
L 628 4666 
z
" transform="scale(0.015625)"/>
       <path id="DejaVuSans-61" d="M 2194 1759 
Q 1497 1759 1228 1600 
Q 959 1441 959 1056 
Q 959 750 1161 570 
Q 1363 391 1709 391 
Q 2188 391 2477 730 
Q 2766 1069 2766 1631 
L 2766 1759 
L 2194 1759 
z
M 3341 1997 
L 3341 0 
L 2766 0 
L 2766 531 
Q 2569 213 2275 61 
Q 1981 -91 1556 -91 
Q 1019 -91 701 211 
Q 384 513 384 1019 
Q 384 1609 779 1909 
Q 1175 2209 1959 2209 
L 2766 2209 
L 2766 2266 
Q 2766 2663 2505 2880 
Q 2244 3097 1772 3097 
Q 1472 3097 1187 3025 
Q 903 2953 641 2809 
L 641 3341 
Q 956 3463 1253 3523 
Q 1550 3584 1831 3584 
Q 2591 3584 2966 3190 
Q 3341 2797 3341 1997 
z
" transform="scale(0.015625)"/>
       <path id="DejaVuSans-6c" d="M 603 4863 
L 1178 4863 
L 1178 0 
L 603 0 
L 603 4863 
z
" transform="scale(0.015625)"/>
       <path id="DejaVuSans-73" d="M 2834 3397 
L 2834 2853 
Q 2591 2978 2328 3040 
Q 2066 3103 1784 3103 
Q 1356 3103 1142 2972 
Q 928 2841 928 2578 
Q 928 2378 1081 2264 
Q 1234 2150 1697 2047 
L 1894 2003 
Q 2506 1872 2764 1633 
Q 3022 1394 3022 966 
Q 3022 478 2636 193 
Q 2250 -91 1575 -91 
Q 1294 -91 989 -36 
Q 684 19 347 128 
L 347 722 
Q 666 556 975 473 
Q 1284 391 1588 391 
Q 1994 391 2212 530 
Q 2431 669 2431 922 
Q 2431 1156 2273 1281 
Q 2116 1406 1581 1522 
L 1381 1569 
Q 847 1681 609 1914 
Q 372 2147 372 2553 
Q 372 3047 722 3315 
Q 1072 3584 1716 3584 
Q 2034 3584 2315 3537 
Q 2597 3491 2834 3397 
z
" transform="scale(0.015625)"/>
       <path id="DejaVuSans-65" d="M 3597 1894 
L 3597 1613 
L 953 1613 
Q 991 1019 1311 708 
Q 1631 397 2203 397 
Q 2534 397 2845 478 
Q 3156 559 3463 722 
L 3463 178 
Q 3153 47 2828 -22 
Q 2503 -91 2169 -91 
Q 1331 -91 842 396 
Q 353 884 353 1716 
Q 353 2575 817 3079 
Q 1281 3584 2069 3584 
Q 2775 3584 3186 3129 
Q 3597 2675 3597 1894 
z
M 3022 2063 
Q 3016 2534 2758 2815 
Q 2500 3097 2075 3097 
Q 1594 3097 1305 2825 
Q 1016 2553 972 2059 
L 3022 2063 
z
" transform="scale(0.015625)"/>
       <path id="DejaVuSans-20" transform="scale(0.015625)"/>
       <path id="DejaVuSans-50" d="M 1259 4147 
L 1259 2394 
L 2053 2394 
Q 2494 2394 2734 2622 
Q 2975 2850 2975 3272 
Q 2975 3691 2734 3919 
Q 2494 4147 2053 4147 
L 1259 4147 
z
M 628 4666 
L 2053 4666 
Q 2838 4666 3239 4311 
Q 3641 3956 3641 3272 
Q 3641 2581 3239 2228 
Q 2838 1875 2053 1875 
L 1259 1875 
L 1259 0 
L 628 0 
L 628 4666 
z
" transform="scale(0.015625)"/>
       <path id="DejaVuSans-6f" d="M 1959 3097 
Q 1497 3097 1228 2736 
Q 959 2375 959 1747 
Q 959 1119 1226 758 
Q 1494 397 1959 397 
Q 2419 397 2687 759 
Q 2956 1122 2956 1747 
Q 2956 2369 2687 2733 
Q 2419 3097 1959 3097 
z
M 1959 3584 
Q 2709 3584 3137 3096 
Q 3566 2609 3566 1747 
Q 3566 888 3137 398 
Q 2709 -91 1959 -91 
Q 1206 -91 779 398 
Q 353 888 353 1747 
Q 353 2609 779 3096 
Q 1206 3584 1959 3584 
z
" transform="scale(0.015625)"/>
       <path id="DejaVuSans-69" d="M 603 3500 
L 1178 3500 
L 1178 0 
L 603 0 
L 603 3500 
z
M 603 4863 
L 1178 4863 
L 1178 4134 
L 603 4134 
L 603 4863 
z
" transform="scale(0.015625)"/>
       <path id="DejaVuSans-74" d="M 1172 4494 
L 1172 3500 
L 2356 3500 
L 2356 3053 
L 1172 3053 
L 1172 1153 
Q 1172 725 1289 603 
Q 1406 481 1766 481 
L 2356 481 
L 2356 0 
L 1766 0 
Q 1100 0 847 248 
Q 594 497 594 1153 
L 594 3053 
L 172 3053 
L 172 3500 
L 594 3500 
L 594 4494 
L 1172 4494 
z
" transform="scale(0.015625)"/>
       <path id="DejaVuSans-76" d="M 191 3500 
L 800 3500 
L 1894 563 
L 2988 3500 
L 3597 3500 
L 2284 0 
L 1503 0 
L 191 3500 
z
" transform="scale(0.015625)"/>
       <path id="DejaVuSans-52" d="M 2841 2188 
Q 3044 2119 3236 1894 
Q 3428 1669 3622 1275 
L 4263 0 
L 3584 0 
L 2988 1197 
Q 2756 1666 2539 1819 
Q 2322 1972 1947 1972 
L 1259 1972 
L 1259 0 
L 628 0 
L 628 4666 
L 2053 4666 
Q 2853 4666 3247 4331 
Q 3641 3997 3641 3322 
Q 3641 2881 3436 2590 
Q 3231 2300 2841 2188 
z
M 1259 4147 
L 1259 2491 
L 2053 2491 
Q 2509 2491 2742 2702 
Q 2975 2913 2975 3322 
Q 2975 3731 2742 3939 
Q 2509 4147 2053 4147 
L 1259 4147 
z
" transform="scale(0.015625)"/>
      </defs>
      <use xlink:href="#DejaVuSans-46"/>
      <use xlink:href="#DejaVuSans-61" x="48.394531"/>
      <use xlink:href="#DejaVuSans-6c" x="109.673828"/>
      <use xlink:href="#DejaVuSans-73" x="137.457031"/>
      <use xlink:href="#DejaVuSans-65" x="189.556641"/>
      <use xlink:href="#DejaVuSans-20" x="251.080078"/>
      <use xlink:href="#DejaVuSans-50" x="282.867188"/>
      <use xlink:href="#DejaVuSans-6f" x="339.544922"/>
      <use xlink:href="#DejaVuSans-73" x="400.726562"/>
      <use xlink:href="#DejaVuSans-69" x="452.826172"/>
      <use xlink:href="#DejaVuSans-74" x="480.609375"/>
      <use xlink:href="#DejaVuSans-69" x="519.818359"/>
      <use xlink:href="#DejaVuSans-76" x="547.601562"/>
      <use xlink:href="#DejaVuSans-65" x="606.78125"/>
      <use xlink:href="#DejaVuSans-20" x="668.304688"/>
      <use xlink:href="#DejaVuSans-52" x="700.091797"/>
      <use xlink:href="#DejaVuSans-61" x="767.324219"/>
      <use xlink:href="#DejaVuSans-74" x="828.603516"/>
      <use xlink:href="#DejaVuSans-65" x="867.8125"/>
     </g>
    </g>
   </g>
   <g id="matplotlib.axis_2">
    <g id="ytick_1">
     <g id="line2d_7">
      <defs>
       <path id="mf765211dce" d="M 0 0 
L -3.5 0 
" style="stroke: #000000; stroke-width: 0.8"/>
      </defs>
      <g>
       <use xlink:href="#mf765211dce" x="57.6" y="295.488" style="stroke: #000000; stroke-width: 0.8"/>
      </g>
     </g>
     <g id="text_8">
      <!-- 0.0 -->
      <g transform="translate(34.696875 299.287219) scale(0.1 -0.1)">
       <use xlink:href="#DejaVuSans-30"/>
       <use xlink:href="#DejaVuSans-2e" x="63.623047"/>
       <use xlink:href="#DejaVuSans-30" x="95.410156"/>
      </g>
     </g>
    </g>
    <g id="ytick_2">
     <g id="line2d_8">
      <g>
       <use xlink:href="#mf765211dce" x="57.6" y="247.104" style="stroke: #000000; stroke-width: 0.8"/>
      </g>
     </g>
     <g id="text_9">
      <!-- 0.2 -->
      <g transform="translate(34.696875 250.903219) scale(0.1 -0.1)">
       <use xlink:href="#DejaVuSans-30"/>
       <use xlink:href="#DejaVuSans-2e" x="63.623047"/>
       <use xlink:href="#DejaVuSans-32" x="95.410156"/>
      </g>
     </g>
    </g>
    <g id="ytick_3">
     <g id="line2d_9">
      <g>
       <use xlink:href="#mf765211dce" x="57.6" y="198.72" style="stroke: #000000; stroke-width: 0.8"/>
      </g>
     </g>
     <g id="text_10">
      <!-- 0.4 -->
      <g transform="translate(34.696875 202.519219) scale(0.1 -0.1)">
       <use xlink:href="#DejaVuSans-30"/>
       <use xlink:href="#DejaVuSans-2e" x="63.623047"/>
       <use xlink:href="#DejaVuSans-34" x="95.410156"/>
      </g>
     </g>
    </g>
    <g id="ytick_4">
     <g id="line2d_10">
      <g>
       <use xlink:href="#mf765211dce" x="57.6" y="150.336" style="stroke: #000000; stroke-width: 0.8"/>
      </g>
     </g>
     <g id="text_11">
      <!-- 0.6 -->
      <g transform="translate(34.696875 154.135219) scale(0.1 -0.1)">
       <use xlink:href="#DejaVuSans-30"/>
       <use xlink:href="#DejaVuSans-2e" x="63.623047"/>
       <use xlink:href="#DejaVuSans-36" x="95.410156"/>
      </g>
     </g>
    </g>
    <g id="ytick_5">
     <g id="line2d_11">
      <g>
       <use xlink:href="#mf765211dce" x="57.6" y="101.952" style="stroke: #000000; stroke-width: 0.8"/>
      </g>
     </g>
     <g id="text_12">
      <!-- 0.8 -->
      <g transform="translate(34.696875 105.751219) scale(0.1 -0.1)">
       <use xlink:href="#DejaVuSans-30"/>
       <use xlink:href="#DejaVuSans-2e" x="63.623047"/>
       <use xlink:href="#DejaVuSans-38" x="95.410156"/>
      </g>
     </g>
    </g>
    <g id="ytick_6">
     <g id="line2d_12">
      <g>
       <use xlink:href="#mf765211dce" x="57.6" y="53.568" style="stroke: #000000; stroke-width: 0.8"/>
      </g>
     </g>
     <g id="text_13">
      <!-- 1.0 -->
      <g transform="translate(34.696875 57.367219) scale(0.1 -0.1)">
       <use xlink:href="#DejaVuSans-31"/>
       <use xlink:href="#DejaVuSans-2e" x="63.623047"/>
       <use xlink:href="#DejaVuSans-30" x="95.410156"/>
      </g>
     </g>
    </g>
    <g id="text_14">
     <!-- True Positive Rate -->
     <g transform="translate(28.617187 219.057687) rotate(-90) scale(0.1 -0.1)">
      <defs>
       <path id="DejaVuSans-54" d="M -19 4666 
L 3928 4666 
L 3928 4134 
L 2272 4134 
L 2272 0 
L 1638 0 
L 1638 4134 
L -19 4134 
L -19 4666 
z
" transform="scale(0.015625)"/>
       <path id="DejaVuSans-72" d="M 2631 2963 
Q 2534 3019 2420 3045 
Q 2306 3072 2169 3072 
Q 1681 3072 1420 2755 
Q 1159 2438 1159 1844 
L 1159 0 
L 581 0 
L 581 3500 
L 1159 3500 
L 1159 2956 
Q 1341 3275 1631 3429 
Q 1922 3584 2338 3584 
Q 2397 3584 2469 3576 
Q 2541 3569 2628 3553 
L 2631 2963 
z
" transform="scale(0.015625)"/>
       <path id="DejaVuSans-75" d="M 544 1381 
L 544 3500 
L 1119 3500 
L 1119 1403 
Q 1119 906 1312 657 
Q 1506 409 1894 409 
Q 2359 409 2629 706 
Q 2900 1003 2900 1516 
L 2900 3500 
L 3475 3500 
L 3475 0 
L 2900 0 
L 2900 538 
Q 2691 219 2414 64 
Q 2138 -91 1772 -91 
Q 1169 -91 856 284 
Q 544 659 544 1381 
z
M 1991 3584 
L 1991 3584 
z
" transform="scale(0.015625)"/>
      </defs>
      <use xlink:href="#DejaVuSans-54"/>
      <use xlink:href="#DejaVuSans-72" x="46.333984"/>
      <use xlink:href="#DejaVuSans-75" x="87.447266"/>
      <use xlink:href="#DejaVuSans-65" x="150.826172"/>
      <use xlink:href="#DejaVuSans-20" x="212.349609"/>
      <use xlink:href="#DejaVuSans-50" x="244.136719"/>
      <use xlink:href="#DejaVuSans-6f" x="300.814453"/>
      <use xlink:href="#DejaVuSans-73" x="361.996094"/>
      <use xlink:href="#DejaVuSans-69" x="414.095703"/>
      <use xlink:href="#DejaVuSans-74" x="441.878906"/>
      <use xlink:href="#DejaVuSans-69" x="481.087891"/>
      <use xlink:href="#DejaVuSans-76" x="508.871094"/>
      <use xlink:href="#DejaVuSans-65" x="568.050781"/>
      <use xlink:href="#DejaVuSans-20" x="629.574219"/>
      <use xlink:href="#DejaVuSans-52" x="661.361328"/>
      <use xlink:href="#DejaVuSans-61" x="728.59375"/>
      <use xlink:href="#DejaVuSans-74" x="789.873047"/>
      <use xlink:href="#DejaVuSans-65" x="829.082031"/>
     </g>
    </g>
   </g>
   <g id="line2d_13">
    <path d="M 73.832727 295.488 
L 73.905098 290.315279 
L 73.977468 290.315279 
L 74.049839 288.40954 
L 74.12221 288.40954 
L 74.19458 283.781315 
L 74.266951 283.781315 
L 74.339322 279.207541 
L 74.411692 279.044192 
L 74.484063 278.390795 
L 74.556433 278.390795 
L 74.628804 274.960465 
L 74.701175 274.960465 
L 74.773545 274.143719 
L 74.845916 274.143719 
L 74.918286 273.599222 
L 74.990657 273.599222 
L 74.990657 273.490323 
L 75.063028 271.475684 
L 75.135398 271.312335 
L 75.207769 266.139614 
L 75.280139 265.921815 
L 75.35251 261.51139 
L 75.424881 261.239141 
L 75.497251 260.259047 
L 75.569622 260.259047 
L 75.641992 255.521923 
L 75.714363 255.358574 
L 75.786734 254.977426 
L 75.859104 249.314658 
L 75.931475 248.93351 
L 76.003845 247.681167 
L 76.076216 247.517818 
L 76.148587 245.557629 
L 76.220957 245.557629 
L 76.220957 245.503179 
L 76.293328 244.196386 
L 76.438069 244.141937 
L 76.51044 242.998493 
L 76.58281 242.998493 
L 76.655181 240.330458 
L 76.727552 240.330458 
L 76.799922 240.112659 
L 76.872293 240.112659 
L 76.944663 239.350363 
L 77.017034 239.350363 
L 77.089405 237.226825 
L 77.161775 237.226825 
L 77.161775 237.117926 
L 77.234146 237.063476 
L 77.306516 234.177642 
L 77.378887 234.177642 
L 77.378887 234.068743 
L 77.451258 232.108554 
L 77.523628 232.108554 
L 77.523628 231.999654 
L 77.595999 230.420613 
L 77.668369 230.420613 
L 77.813111 230.148365 
L 77.885481 228.623773 
L 77.957852 228.569323 
L 78.030223 226.826933 
L 78.174964 226.718034 
L 78.247334 224.322247 
L 78.319705 224.267797 
L 78.392076 223.559951 
L 78.464446 223.505502 
L 78.536817 221.98091 
L 78.609187 221.92646 
L 78.681558 220.783017 
L 78.753929 220.783017 
L 78.753929 220.728567 
L 78.826299 220.347419 
L 78.97104 219.639573 
L 79.043411 218.877278 
L 79.115782 218.223881 
L 79.188152 213.759006 
L 79.260523 213.759006 
L 79.260523 213.650107 
L 79.332893 213.214509 
L 79.405264 213.214509 
L 79.405264 213.160059 
L 79.477635 212.397764 
L 79.550005 212.397764 
L 79.550005 212.343314 
L 79.622376 211.689918 
L 79.694746 211.417669 
L 79.767117 208.695184 
L 79.839488 208.150687 
L 79.911858 206.408297 
L 80.12897 206.136049 
L 80.12897 205.8638 
L 80.418453 205.646001 
L 80.490823 205.373753 
L 80.635564 205.155954 
L 80.707935 204.393658 
L 80.852676 204.284759 
L 80.925047 203.413564 
L 80.997417 203.086866 
L 81.069788 201.997872 
L 81.142159 201.997872 
L 81.214529 200.854428 
L 81.2869 200.691079 
L 81.35927 200.418831 
L 81.431641 199.384286 
L 81.504012 199.384286 
L 81.504012 199.329837 
L 81.576382 198.240843 
L 81.648753 198.240843 
L 81.721123 196.226204 
L 82.010606 195.899506 
L 82.227718 195.13721 
L 82.300088 195.13721 
L 82.372459 194.756062 
L 82.589571 194.483814 
L 82.589571 194.102666 
L 82.661941 194.102666 
L 82.734312 193.830417 
L 82.806683 193.122571 
L 82.879053 193.068122 
L 82.951424 191.870228 
L 83.096165 191.59798 
L 83.168536 188.875495 
L 83.385647 188.712146 
L 83.458018 188.222099 
L 83.67513 187.459803 
L 83.747501 186.588608 
L 83.819871 186.479708 
L 83.892242 185.445164 
L 83.964612 185.445164 
L 83.964612 185.336265 
L 84.181724 184.955117 
L 84.254095 184.955117 
L 84.254095 184.846217 
L 84.326465 184.682868 
L 84.326465 184.519519 
L 84.471207 184.519519 
L 84.471207 184.41062 
L 84.688318 184.30172 
L 84.760689 183.212727 
L 84.83306 182.66823 
L 84.90543 182.014833 
L 85.122542 181.905934 
L 85.194913 181.688135 
L 85.267283 181.688135 
L 85.267283 181.361437 
L 85.484395 181.306987 
L 85.629136 181.143638 
L 85.701507 180.81694 
L 85.773878 180.217993 
L 85.918619 179.891295 
L 85.990989 179.07455 
L 86.06336 179.0201 
L 86.135731 177.822207 
L 86.208101 177.822207 
L 86.208101 177.713307 
L 86.280472 176.460964 
L 86.352842 176.297615 
L 86.425213 175.644219 
L 86.497584 175.263071 
L 86.497584 175.099722 
L 86.714695 174.827473 
L 86.787066 174.391876 
L 87.004178 174.337426 
L 87.076548 173.956278 
L 87.22129 173.62958 
L 87.22129 173.030633 
L 87.366031 173.030633 
L 87.366031 172.976184 
L 87.366031 172.649485 
L 87.510772 172.649485 
L 87.583143 172.104989 
L 87.727884 171.77829 
L 87.800255 171.506042 
L 87.872625 171.451592 
L 87.944996 170.09035 
L 88.089737 170.09035 
L 88.162108 169.491403 
L 88.306849 169.382504 
L 88.379219 168.620208 
L 88.45159 168.620208 
L 88.45159 168.511309 
L 88.523961 168.347959 
L 88.596331 168.347959 
L 88.668702 167.585664 
L 88.885814 167.531214 
L 88.885814 167.476764 
L 89.030555 167.367865 
L 89.320037 167.313415 
L 89.392408 167.041167 
L 89.537149 166.932267 
L 89.537149 166.660019 
L 89.754261 166.38777 
L 89.826632 166.006623 
L 89.971373 165.952173 
L 90.116114 165.571025 
L 90.188485 164.917629 
L 90.260855 164.863179 
L 90.333226 163.937534 
L 90.477967 163.937534 
L 90.477967 163.883084 
L 90.550338 163.393037 
L 90.912191 163.066339 
L 90.912191 162.304043 
L 90.984561 162.304043 
L 91.056932 162.140694 
L 91.129302 161.705097 
L 91.201673 161.705097 
L 91.274044 160.888351 
L 91.563526 160.561653 
L 91.635897 159.962706 
L 91.708267 159.962706 
L 91.708267 159.908257 
L 91.708267 159.418209 
L 91.780638 159.418209 
L 92.07012 159.145961 
L 92.142491 158.819263 
L 92.287232 158.601464 
L 92.287232 158.220316 
L 92.431973 158.165866 
L 92.504344 157.730269 
L 92.649085 157.730269 
L 92.649085 157.675819 
L 92.649085 157.51247 
L 92.793826 157.51247 
L 92.793826 157.403571 
L 93.010938 157.294671 
L 93.155679 157.294671 
L 93.155679 157.185772 
L 93.22805 156.859074 
L 93.300421 156.859074 
L 93.300421 156.641275 
L 93.517533 156.641275 
L 93.662274 156.042328 
L 93.734644 155.334482 
L 93.807015 155.280032 
L 93.879386 154.681086 
L 94.024127 154.681086 
L 94.096497 153.86434 
L 94.313609 153.210944 
L 94.38598 152.720897 
L 94.45835 152.720897 
L 94.45835 152.611997 
L 94.603092 152.448648 
L 94.675462 152.12195 
L 94.747833 151.958601 
L 94.820203 151.414104 
L 94.964945 151.414104 
L 95.037315 150.978506 
L 95.254427 150.869607 
L 95.326798 150.37956 
L 95.61628 150.052862 
L 96.339986 149.127217 
L 96.412357 148.854968 
L 96.484727 148.854968 
L 96.484727 148.746069 
L 96.629469 148.52827 
L 96.84658 148.52827 
L 96.84658 148.419371 
L 96.84658 148.092673 
L 96.991322 148.092673 
L 96.991322 147.983773 
L 97.063692 147.874874 
L 97.136063 147.874874 
L 97.642657 146.894779 
L 97.787398 146.84033 
L 97.787398 146.78588 
L 97.93214 146.67698 
L 98.00451 146.078034 
L 98.149251 146.023584 
L 98.221622 145.424637 
L 98.511104 145.261288 
L 98.655846 145.261288 
L 98.655846 145.206839 
L 98.728216 144.93459 
L 98.872957 144.607892 
L 98.945328 144.117845 
L 99.234811 143.682247 
L 99.234811 143.409999 
L 99.596664 143.24665 
L 99.596664 142.702153 
L 99.813775 142.593253 
L 99.813775 142.538804 
L 99.958517 142.321005 
L 100.030887 141.44981 
L 100.103258 141.44981 
L 100.103258 141.39536 
L 100.175628 140.850863 
L 100.682223 139.925218 
L 100.754593 139.65297 
L 100.826964 139.65297 
L 100.899334 139.380721 
L 100.971705 139.380721 
L 100.971705 139.326271 
L 101.044076 138.346177 
L 101.261188 138.291727 
L 101.405929 138.291727 
L 101.405929 138.182828 
L 101.478299 137.692781 
L 101.623041 137.583881 
L 101.695411 137.039384 
L 101.840152 136.930485 
L 102.274376 136.658236 
L 102.346747 136.603787 
L 102.346747 136.331538 
L 102.563858 136.331538 
L 102.636229 135.678142 
L 102.853341 135.460343 
L 102.925712 135.024745 
L 103.142823 134.915846 
L 103.142823 134.806947 
L 103.215194 134.806947 
L 103.504676 134.480248 
L 103.577047 133.717953 
L 103.721788 133.609053 
L 103.794159 133.500154 
L 104.011271 133.445704 
L 104.011271 133.227905 
L 104.083641 133.227905 
L 104.300753 132.955657 
L 104.517865 132.792308 
L 104.590235 132.46561 
L 104.662606 132.46561 
L 104.734977 132.247811 
L 104.807347 132.193361 
L 104.807347 131.703314 
L 105.09683 131.594415 
L 105.09683 131.431065 
L 105.313942 131.376616 
L 105.386312 131.213267 
L 105.458683 131.104367 
L 105.458683 130.723219 
L 105.675795 130.61432 
L 105.675795 130.55987 
L 105.820536 130.55987 
L 105.820536 130.450971 
L 105.892906 130.287622 
L 106.110018 130.178722 
L 106.182389 129.743125 
L 106.254759 129.579776 
L 106.254759 129.525326 
L 106.399501 129.470876 
L 106.471871 129.253078 
L 106.978466 129.198628 
L 106.978466 129.089729 
L 107.340319 129.089729 
L 107.412689 128.327433 
L 107.48506 128.327433 
L 107.48506 128.218533 
L 107.846913 127.837386 
L 107.919283 127.674036 
L 107.991654 127.565137 
L 108.208766 127.02064 
L 108.425878 127.02064 
L 108.498248 126.639492 
L 108.570619 126.639492 
L 108.64299 126.040546 
L 108.71536 126.040546 
L 108.787731 125.822747 
L 108.860101 125.713847 
L 109.439066 125.604948 
L 110.669367 124.679303 
L 110.741737 124.243706 
L 110.886478 124.189256 
L 110.886478 123.699209 
L 110.958849 123.699209 
L 111.10359 123.318061 
L 111.10359 123.263611 
L 111.320702 123.154712 
L 111.320702 122.936913 
L 111.393073 122.936913 
L 111.610184 122.501315 
L 111.610184 122.120167 
L 112.044408 121.902369 
L 112.116779 121.73902 
L 112.33389 121.57567 
L 112.551002 121.140073 
L 112.840485 121.140073 
L 112.840485 121.031174 
L 112.912855 120.813375 
L 113.129967 120.813375 
L 113.129967 120.758925 
L 113.41945 120.541126 
L 113.49182 120.323327 
L 113.564191 120.323327 
L 113.564191 120.214428 
L 113.636561 120.105529 
L 113.998414 119.996629 
L 114.215526 119.724381 
L 114.215526 119.615481 
L 114.287897 119.615481 
L 114.505009 119.343233 
L 114.505009 119.234334 
L 114.577379 119.234334 
L 114.722121 119.234334 
L 114.722121 119.125434 
L 114.722121 119.016535 
L 114.866862 119.016535 
L 114.939232 118.744286 
L 115.011603 118.635387 
L 115.083974 118.14534 
L 115.301085 118.03644 
L 115.373456 117.546393 
L 115.662938 117.491943 
L 115.735309 117.219695 
L 116.314274 117.110795 
L 116.386645 116.620748 
L 116.748498 116.566298 
L 116.748498 116.511849 
L 116.893239 116.29405 
L 116.965609 116.130701 
L 117.182721 116.076251 
L 117.255092 115.804003 
L 117.472204 115.749553 
L 117.472204 115.531754 
L 117.544574 115.531754 
L 117.761686 115.150606 
L 117.834057 114.932808 
L 117.906427 114.932808 
L 117.906427 114.823908 
L 117.906427 114.769458 
L 118.123539 114.388311 
L 118.123539 114.224962 
L 118.413022 114.116062 
L 118.702504 113.789364 
L 118.774875 113.626015 
L 119.353839 113.081518 
L 119.42621 112.64592 
L 119.715692 112.64592 
L 119.932804 112.319222 
L 120.005175 112.319222 
L 120.005175 112.264772 
L 120.005175 112.101423 
L 120.367028 112.101423 
L 120.367028 111.992524 
L 120.367028 111.720275 
L 120.511769 111.611376 
L 120.511769 111.230228 
L 120.728881 111.230228 
L 120.728881 111.121329 
L 120.728881 110.95798 
L 120.801252 110.95798 
L 121.380216 110.84908 
L 121.452587 110.740181 
L 121.524958 110.740181 
L 121.524958 110.631282 
L 121.959181 110.304583 
L 121.959181 109.705637 
L 122.321034 109.433388 
L 122.321034 109.270039 
L 122.465776 109.270039 
L 122.465776 109.215589 
L 122.465776 108.943341 
L 122.755258 108.943341 
L 122.755258 108.888891 
L 123.117111 108.344394 
L 123.189482 108.344394 
L 123.189482 108.289945 
L 123.334223 107.963246 
L 123.696076 107.854347 
L 123.768446 107.582099 
L 123.840817 107.146501 
L 124.1303 107.146501 
L 124.1303 107.092051 
L 124.20267 106.874253 
L 124.275041 106.874253 
L 124.275041 106.710903 
L 124.347411 106.710903 
L 124.492153 106.710903 
L 124.492153 106.602004 
L 124.564523 106.384205 
L 124.781635 106.275306 
L 124.781635 106.057507 
L 124.926376 106.057507 
L 124.926376 105.948608 
L 124.998747 105.62191 
L 125.288229 105.51301 
L 125.3606 105.404111 
L 125.577712 105.349661 
L 125.577712 105.295211 
L 125.794823 105.131862 
L 125.867194 105.022963 
L 125.939565 104.750714 
L 126.229047 104.478466 
L 126.446159 104.206217 
L 126.5909 103.988419 
L 126.5909 103.71617 
L 126.880383 103.66172 
L 126.880383 103.607271 
L 127.242236 103.280573 
L 127.242236 103.171673 
L 127.314606 103.171673 
L 127.604089 102.953874 
L 127.676459 102.736076 
L 128.183054 102.627176 
L 128.762018 102.191579 
L 128.834389 101.538182 
L 128.97913 101.538182 
L 128.97913 101.429283 
L 129.268613 101.102585 
L 129.702836 100.993685 
L 129.702836 100.939236 
L 130.13706 100.830336 
L 130.13706 100.285839 
L 130.209431 100.285839 
L 130.354172 100.068041 
L 130.426542 99.795792 
L 130.716025 99.686893 
L 131.005507 99.577993 
L 131.077878 99.251295 
L 131.36736 99.142396 
L 131.656843 98.924597 
L 131.729213 98.488999 
L 131.946325 98.3801 
L 132.018696 98.216751 
L 132.235808 98.162301 
L 132.308178 97.726704 
L 132.52529 97.617804 
L 132.52529 97.563354 
L 132.887143 97.508905 
L 132.887143 97.454455 
L 133.031884 97.236656 
L 133.75559 97.127757 
L 134.045073 96.801059 
L 134.189814 96.692159 
L 134.262185 96.63771 
L 134.262185 96.474361 
L 134.334555 96.474361 
L 134.841149 95.984313 
L 134.91352 95.657615 
L 135.203002 95.548716 
L 136.650415 94.895319 
L 136.650415 94.677521 
L 136.867526 94.514172 
L 136.867526 94.350822 
L 136.939897 94.350822 
L 137.663603 94.241923 
L 137.735974 93.860775 
L 138.097827 93.806325 
L 138.097827 93.697426 
L 138.170197 93.697426 
L 138.821533 93.152929 
L 138.893903 92.826231 
L 139.400498 92.553982 
L 139.400498 92.445083 
L 139.762351 92.336184 
L 139.762351 92.281734 
L 139.979463 92.227284 
L 140.051833 91.955036 
L 140.124204 91.955036 
L 140.124204 91.737237 
L 140.703169 91.628338 
L 140.703169 91.573888 
L 140.92028 91.573888 
L 140.92028 91.519438 
L 141.426875 90.920492 
L 141.499245 90.920492 
L 141.499245 90.866042 
L 141.571616 90.430444 
L 141.933469 90.267095 
L 142.07821 90.212646 
L 142.150581 90.049296 
L 142.657175 89.940397 
L 142.801916 89.885947 
L 142.946657 89.885947 
L 142.946657 89.777048 
L 142.946657 89.613699 
L 143.23614 89.3959 
L 143.525622 89.232551 
L 143.815105 89.123652 
L 143.815105 89.014752 
L 144.032217 88.905853 
L 144.104587 88.579155 
L 144.538811 88.034658 
L 144.973034 87.925758 
L 144.973034 87.762409 
L 145.334888 87.707959 
L 145.334888 87.490161 
L 145.696741 87.381261 
L 145.769111 87.272362 
L 146.130964 87.272362 
L 146.130964 87.163463 
L 146.348076 87.000113 
L 146.565188 86.945664 
L 146.565188 86.836764 
L 147.288894 86.727865 
L 147.288894 86.673415 
L 148.084971 86.564516 
L 148.157341 86.455616 
L 148.302082 86.455616 
L 148.302082 86.401167 
L 148.302082 86.237818 
L 149.315271 86.128918 
L 149.315271 86.020019 
L 149.604753 85.91112 
L 149.604753 85.638871 
L 149.966606 85.584421 
L 149.966606 85.475522 
L 150.038977 85.475522 
L 150.328459 85.366623 
L 150.762683 85.257723 
L 150.835054 84.985475 
L 151.486389 84.549877 
L 151.486389 84.332078 
L 151.848242 84.277629 
L 151.848242 84.223179 
L 153.078543 83.351984 
L 153.368025 83.297534 
L 153.368025 83.134185 
L 153.585137 83.079735 
L 153.585137 83.025286 
L 154.525955 82.20854 
L 154.598325 82.099641 
L 154.815437 82.099641 
L 154.815437 81.990741 
L 154.815437 81.936292 
L 155.032549 81.718493 
L 155.032549 81.609594 
L 155.10492 81.609594 
L 155.611514 81.555144 
L 155.900996 81.391795 
L 156.262849 81.282895 
L 156.33522 81.119546 
L 156.552332 81.010647 
L 156.769444 80.956197 
L 157.131297 80.847298 
L 157.203667 80.629499 
L 157.637891 80.575049 
L 157.637891 80.5206 
L 158.361597 79.867203 
L 158.361597 79.812754 
L 159.085303 79.703854 
L 159.519527 79.322706 
L 159.519527 79.159357 
L 159.88138 79.050458 
L 159.95375 78.887109 
L 160.387974 78.778209 
L 160.387974 78.61486 
L 160.677456 78.505961 
L 160.677456 78.451511 
L 161.401162 78.342612 
L 161.473533 78.124813 
L 161.545904 78.124813 
L 161.545904 78.015914 
L 161.690645 77.961464 
L 161.980127 77.907014 
L 161.980127 77.852564 
L 162.197239 77.580316 
L 163.210428 77.471417 
L 163.282798 77.308068 
L 163.572281 77.253618 
L 163.644651 77.035819 
L 164.440728 76.92692 
L 164.513099 76.763571 
L 164.947322 76.654671 
L 165.019693 76.545772 
L 165.092063 76.545772 
L 165.164434 76.382423 
L 165.88814 76.273523 
L 165.88814 76.219074 
L 166.394734 76.110174 
L 166.394734 75.892375 
L 166.828958 75.783476 
L 167.11844 75.674577 
L 168.059258 75.347878 
L 168.131629 75.07563 
L 168.421111 75.02118 
L 169.4343 74.912281 
L 169.4343 74.803381 
L 169.50667 74.803381 
L 170.302747 74.694482 
L 170.302747 74.640032 
L 170.375118 74.640032 
L 170.881712 74.531133 
L 171.533047 74.422234 
L 171.677789 74.258885 
L 171.677789 74.095535 
L 171.8949 73.986636 
L 171.8949 73.932186 
L 172.256754 73.823287 
L 172.256754 73.605488 
L 173.05283 73.496589 
L 173.414683 73.33324 
L 173.631795 73.27879 
L 173.704166 73.169891 
L 174.21076 73.060991 
L 174.500242 72.897642 
L 175.223948 72.788743 
L 175.223948 72.734293 
L 175.513431 72.516494 
L 175.802913 72.407595 
L 175.875284 72.244246 
L 176.164766 72.135346 
L 176.164766 72.080897 
L 176.816102 72.026447 
L 176.888472 71.917548 
L 177.75692 71.808648 
L 177.82929 71.699749 
L 178.191143 71.590849 
L 178.191143 71.5364 
L 178.697738 71.4275 
L 178.697738 71.318601 
L 179.131961 71.209702 
L 179.493814 71.046352 
L 181.158338 70.937453 
L 181.520191 70.883003 
L 181.520191 70.665205 
L 181.954415 70.610755 
L 181.954415 70.556305 
L 181.954415 70.447406 
L 182.822862 70.338506 
L 182.822862 70.229607 
L 183.112345 70.120708 
L 183.401827 70.011808 
L 184.270274 69.902909 
L 184.342645 69.794009 
L 184.632127 69.73956 
L 184.704498 69.521761 
L 184.99398 69.467311 
L 185.283463 69.358412 
L 185.283463 69.195063 
L 185.790057 69.086163 
L 185.790057 69.031714 
L 185.862428 69.031714 
L 186.730875 68.922814 
L 186.730875 68.813915 
L 187.382211 68.705016 
L 187.382211 68.541666 
L 188.901993 68.487217 
L 188.901993 68.378317 
L 189.336217 68.269418 
L 189.336217 68.214968 
L 189.69807 68.160519 
L 189.69807 68.051619 
L 189.842811 67.88827 
L 190.059923 67.83382 
L 190.494147 67.779371 
L 190.494147 67.670471 
L 191.145482 67.670471 
L 191.145482 67.507122 
L 191.217853 67.507122 
L 191.796818 67.398223 
L 191.796818 67.343773 
L 191.869188 67.343773 
L 192.231041 67.289323 
L 192.231041 67.234874 
L 192.520524 67.125974 
L 193.171859 67.017075 
L 193.461342 66.908176 
L 194.040306 66.799276 
L 194.112677 66.635927 
L 194.257418 66.418128 
L 195.198236 66.363679 
L 195.198236 66.309229 
L 195.70483 65.928081 
L 196.428536 65.819182 
L 196.718019 65.710282 
L 197.369354 65.601383 
L 197.731207 65.438034 
L 198.889137 65.329134 
L 198.889137 65.220235 
L 199.757584 65.111336 
L 199.757584 65.002436 
L 200.047067 64.893537 
L 200.047067 64.839087 
L 200.698402 64.730188 
L 200.698402 64.675738 
L 200.770773 64.675738 
L 201.060255 64.675738 
L 201.060255 64.566839 
L 201.494479 64.40349 
L 202.652409 64.29459 
L 203.231374 64.131241 
L 204.534045 64.022342 
L 204.895898 63.858993 
L 206.632792 63.750093 
L 206.632792 63.695643 
L 207.284128 63.586744 
L 207.284128 63.532294 
L 209.093393 63.423395 
L 209.093393 63.314496 
L 209.165763 63.314496 
L 209.238134 63.260046 
L 210.323693 63.151147 
L 210.396064 63.042247 
L 212.205329 62.933348 
L 212.856664 62.715549 
L 212.856664 62.49775 
L 214.304077 62.334401 
L 215.751489 62.225502 
L 215.751489 62.116602 
L 215.823859 62.116602 
L 216.040971 62.062153 
L 216.040971 62.007703 
L 216.258083 61.898804 
L 217.12653 61.789904 
L 217.560754 61.681005 
L 218.718684 61.572105 
L 218.718684 61.517656 
L 218.791054 61.517656 
L 219.297648 61.354307 
L 219.370019 61.245407 
L 220.310837 61.136508 
L 220.310837 61.082058 
L 220.383208 61.082058 
L 221.541137 60.864259 
L 222.554326 60.75536 
L 222.554326 60.70091 
L 223.422773 60.592011 
L 223.495144 60.537561 
L 224.508332 60.428662 
L 224.653073 60.374212 
L 225.955744 60.265313 
L 226.028115 60.156413 
L 227.113674 60.047514 
L 227.113674 59.938614 
L 227.76501 59.829715 
L 227.76501 59.775265 
L 229.140051 59.666366 
L 229.140051 59.611916 
L 230.515093 59.503017 
L 230.515093 59.448567 
L 230.587463 59.448567 
L 231.311169 59.339668 
L 232.903323 59.230768 
L 232.903323 59.176319 
L 234.205994 59.067419 
L 234.423105 59.01297 
L 236.883706 58.90407 
L 236.883706 58.849621 
L 237.3903 58.849621 
L 237.3903 58.740721 
L 237.535042 58.686271 
L 238.620601 58.577372 
L 238.620601 58.522922 
L 242.022019 58.414023 
L 242.022019 58.305124 
L 242.09439 58.305124 
L 242.962837 58.250674 
L 242.962837 58.196224 
L 243.179949 58.141774 
L 247.160332 58.032875 
L 247.232703 57.978425 
L 250.41701 57.923976 
L 250.41701 57.815076 
L 253.094722 57.706177 
L 253.094722 57.651727 
L 253.167093 57.651727 
L 254.325022 57.542828 
L 254.325022 57.488378 
L 257.002735 57.379479 
L 257.002735 57.325029 
L 259.173853 57.21613 
L 259.173853 57.16168 
L 260.766007 57.052781 
L 260.766007 56.998331 
L 262.720013 56.889431 
L 262.792384 56.834982 
L 265.687208 56.726082 
L 265.687208 56.617183 
L 269.233368 56.508284 
L 269.305738 56.399384 
L 271.83871 56.290485 
L 271.83871 56.236035 
L 274.733534 56.127136 
L 275.240128 56.018236 
L 276.542799 55.963787 
L 276.542799 55.854887 
L 279.07577 55.745988 
L 279.07577 55.691538 
L 282.187706 55.582639 
L 282.187706 55.528189 
L 292.970927 55.41929 
L 293.549892 55.36484 
L 296.444716 55.255941 
L 296.444716 55.201491 
L 299.990876 55.147041 
L 299.990876 55.038142 
L 305.20156 54.983692 
L 305.20156 54.929242 
L 305.418671 54.874793 
L 311.859655 54.765893 
L 312.004397 54.711444 
L 317.504563 54.711444 
L 317.649304 54.439195 
L 322.642876 54.330296 
L 322.642876 54.275846 
L 322.715247 54.275846 
L 336.610403 54.166947 
L 337.261739 54.112497 
L 342.472422 54.003598 
L 342.472422 53.949148 
L 352.749049 53.949148 
L 352.821419 53.785799 
L 361.361151 53.676899 
L 361.361151 53.62245 
L 361.433522 53.62245 
L 398.487273 53.568 
L 398.487273 53.568 
" clip-path="url(#pcf5e5e747e)" style="fill: none; stroke: #1f77b4; stroke-width: 1.5; stroke-linecap: square"/>
   </g>
   <g id="patch_3">
    <path d="M 57.6 307.584 
L 57.6 41.472 
" style="fill: none; stroke: #000000; stroke-width: 0.8; stroke-linejoin: miter; stroke-linecap: square"/>
   </g>
   <g id="patch_4">
    <path d="M 414.72 307.584 
L 414.72 41.472 
" style="fill: none; stroke: #000000; stroke-width: 0.8; stroke-linejoin: miter; stroke-linecap: square"/>
   </g>
   <g id="patch_5">
    <path d="M 57.6 307.584 
L 414.72 307.584 
" style="fill: none; stroke: #000000; stroke-width: 0.8; stroke-linejoin: miter; stroke-linecap: square"/>
   </g>
   <g id="patch_6">
    <path d="M 57.6 41.472 
L 414.72 41.472 
" style="fill: none; stroke: #000000; stroke-width: 0.8; stroke-linejoin: miter; stroke-linecap: square"/>
   </g>
   <g id="legend_1">
    <g id="patch_7">
     <path d="M 317.57625 302.584 
L 407.72 302.584 
Q 409.72 302.584 409.72 300.584 
L 409.72 286.905875 
Q 409.72 284.905875 407.72 284.905875 
L 317.57625 284.905875 
Q 315.57625 284.905875 315.57625 286.905875 
L 315.57625 300.584 
Q 315.57625 302.584 317.57625 302.584 
z
" style="fill: #ffffff; opacity: 0.8; stroke: #cccccc; stroke-linejoin: miter"/>
    </g>
    <g id="line2d_14">
     <path d="M 319.57625 293.004312 
L 329.57625 293.004312 
L 339.57625 293.004312 
" style="fill: none; stroke: #1f77b4; stroke-width: 1.5; stroke-linecap: square"/>
    </g>
    <g id="text_15">
     <!-- AUC = 0.90 -->
     <g transform="translate(347.57625 296.504312) scale(0.1 -0.1)">
      <defs>
       <path id="DejaVuSans-41" d="M 2188 4044 
L 1331 1722 
L 3047 1722 
L 2188 4044 
z
M 1831 4666 
L 2547 4666 
L 4325 0 
L 3669 0 
L 3244 1197 
L 1141 1197 
L 716 0 
L 50 0 
L 1831 4666 
z
" transform="scale(0.015625)"/>
       <path id="DejaVuSans-55" d="M 556 4666 
L 1191 4666 
L 1191 1831 
Q 1191 1081 1462 751 
Q 1734 422 2344 422 
Q 2950 422 3222 751 
Q 3494 1081 3494 1831 
L 3494 4666 
L 4128 4666 
L 4128 1753 
Q 4128 841 3676 375 
Q 3225 -91 2344 -91 
Q 1459 -91 1007 375 
Q 556 841 556 1753 
L 556 4666 
z
" transform="scale(0.015625)"/>
       <path id="DejaVuSans-43" d="M 4122 4306 
L 4122 3641 
Q 3803 3938 3442 4084 
Q 3081 4231 2675 4231 
Q 1875 4231 1450 3742 
Q 1025 3253 1025 2328 
Q 1025 1406 1450 917 
Q 1875 428 2675 428 
Q 3081 428 3442 575 
Q 3803 722 4122 1019 
L 4122 359 
Q 3791 134 3420 21 
Q 3050 -91 2638 -91 
Q 1578 -91 968 557 
Q 359 1206 359 2328 
Q 359 3453 968 4101 
Q 1578 4750 2638 4750 
Q 3056 4750 3426 4639 
Q 3797 4528 4122 4306 
z
" transform="scale(0.015625)"/>
       <path id="DejaVuSans-3d" d="M 678 2906 
L 4684 2906 
L 4684 2381 
L 678 2381 
L 678 2906 
z
M 678 1631 
L 4684 1631 
L 4684 1100 
L 678 1100 
L 678 1631 
z
" transform="scale(0.015625)"/>
       <path id="DejaVuSans-39" d="M 703 97 
L 703 672 
Q 941 559 1184 500 
Q 1428 441 1663 441 
Q 2288 441 2617 861 
Q 2947 1281 2994 2138 
Q 2813 1869 2534 1725 
Q 2256 1581 1919 1581 
Q 1219 1581 811 2004 
Q 403 2428 403 3163 
Q 403 3881 828 4315 
Q 1253 4750 1959 4750 
Q 2769 4750 3195 4129 
Q 3622 3509 3622 2328 
Q 3622 1225 3098 567 
Q 2575 -91 1691 -91 
Q 1453 -91 1209 -44 
Q 966 3 703 97 
z
M 1959 2075 
Q 2384 2075 2632 2365 
Q 2881 2656 2881 3163 
Q 2881 3666 2632 3958 
Q 2384 4250 1959 4250 
Q 1534 4250 1286 3958 
Q 1038 3666 1038 3163 
Q 1038 2656 1286 2365 
Q 1534 2075 1959 2075 
z
" transform="scale(0.015625)"/>
      </defs>
      <use xlink:href="#DejaVuSans-41"/>
      <use xlink:href="#DejaVuSans-55" x="68.408203"/>
      <use xlink:href="#DejaVuSans-43" x="141.601562"/>
      <use xlink:href="#DejaVuSans-20" x="211.425781"/>
      <use xlink:href="#DejaVuSans-3d" x="243.212891"/>
      <use xlink:href="#DejaVuSans-20" x="327.001953"/>
      <use xlink:href="#DejaVuSans-30" x="358.789062"/>
      <use xlink:href="#DejaVuSans-2e" x="422.412109"/>
      <use xlink:href="#DejaVuSans-39" x="454.199219"/>
      <use xlink:href="#DejaVuSans-30" x="517.822266"/>
     </g>
    </g>
   </g>
  </g>
 </g>
 <defs>
  <clipPath id="pcf5e5e747e">
   <rect x="57.6" y="41.472" width="357.12" height="266.112"/>
  </clipPath>
 </defs>
</svg>
