<?xml version="1.0" encoding="utf-8" standalone="no"?>
<!DOCTYPE svg PUBLIC "-//W3C//DTD SVG 1.1//EN"
        "http://www.w3.org/Graphics/SVG/1.1/DTD/svg11.dtd">
<svg xmlns:xlink="http://www.w3.org/1999/xlink" width="460.8pt" height="345.6pt" viewBox="0 0 460.8 345.6"
     xmlns="http://www.w3.org/2000/svg" version="1.1">
    <metadata>
        <rdf:RDF xmlns:dc="http://purl.org/dc/elements/1.1/" xmlns:cc="http://creativecommons.org/ns#"
                 xmlns:rdf="http://www.w3.org/1999/02/22-rdf-syntax-ns#">
            <cc:Work>
                <dc:type rdf:resource="http://purl.org/dc/dcmitype/StillImage"/>
                <dc:date>2022-11-30T18:54:47.688016</dc:date>
                <dc:format>image/svg+xml</dc:format>
                <dc:creator>
                    <cc:Agent>
                        <dc:title>Matplotlib v3.6.2, https://matplotlib.org/</dc:title>
                    </cc:Agent>
                </dc:creator>
            </cc:Work>
        </rdf:RDF>
    </metadata>
    <defs>
        <style type="text/css">*{stroke-linejoin: round; stroke-linecap: butt}</style>
    </defs>
    <g id="figure_1">
        <g id="patch_1">
            <path d="M 0 345.6
L 460.8 345.6 
L 460.8 0 
L 0 0 
z
" style="fill: #ffffff"/>
        </g>
        <g id="axes_1">
            <g id="patch_2">
                <path d="M 57.6 307.584
L 414.72 307.584 
L 414.72 41.472 
L 57.6 41.472 
z
" style="fill: #eaeaf2"/>
            </g>
            <g id="matplotlib.axis_1">
                <g id="xtick_1">
                    <g id="line2d_1">
                        <path d="M 73.832727 307.584
L 73.832727 41.472 
" clip-path="url(#p8fd9117fab)" style="fill: none; stroke: #ffffff; stroke-width: 0.8; stroke-linecap: round"/>
                    </g>
                    <g id="line2d_2"/>
                    <g id="text_1">
                        <!-- 0.0 -->
                        <g style="fill: #262626" transform="translate(66.882727 318.241812) scale(0.1 -0.1)">
                            <defs>
                                <path id="ArialMT-30" d="M 266 2259
Q 266 3072 433 3567 
Q 600 4063 929 4331 
Q 1259 4600 1759 4600 
Q 2128 4600 2406 4451 
Q 2684 4303 2865 4023 
Q 3047 3744 3150 3342 
Q 3253 2941 3253 2259 
Q 3253 1453 3087 958 
Q 2922 463 2592 192 
Q 2263 -78 1759 -78 
Q 1097 -78 719 397 
Q 266 969 266 2259 
z
M 844 2259 
Q 844 1131 1108 757 
Q 1372 384 1759 384 
Q 2147 384 2411 759 
Q 2675 1134 2675 2259 
Q 2675 3391 2411 3762 
Q 2147 4134 1753 4134 
Q 1366 4134 1134 3806 
Q 844 3388 844 2259 
z
" transform="scale(0.015625)"/>
                                <path id="ArialMT-2e" d="M 581 0
L 581 641 
L 1222 641 
L 1222 0 
L 581 0 
z
" transform="scale(0.015625)"/>
                            </defs>
                            <use xlink:href="#ArialMT-30"/>
                            <use xlink:href="#ArialMT-2e" x="55.615234"/>
                            <use xlink:href="#ArialMT-30" x="83.398438"/>
                        </g>
                    </g>
                </g>
                <g id="xtick_2">
                    <g id="line2d_3">
                        <path d="M 138.763636 307.584
L 138.763636 41.472 
" clip-path="url(#p8fd9117fab)" style="fill: none; stroke: #ffffff; stroke-width: 0.8; stroke-linecap: round"/>
                    </g>
                    <g id="line2d_4"/>
                    <g id="text_2">
                        <!-- 0.2 -->
                        <g style="fill: #262626" transform="translate(131.813636 318.241812) scale(0.1 -0.1)">
                            <defs>
                                <path id="ArialMT-32" d="M 3222 541
L 3222 0 
L 194 0 
Q 188 203 259 391 
Q 375 700 629 1000 
Q 884 1300 1366 1694 
Q 2113 2306 2375 2664 
Q 2638 3022 2638 3341 
Q 2638 3675 2398 3904 
Q 2159 4134 1775 4134 
Q 1369 4134 1125 3890 
Q 881 3647 878 3216 
L 300 3275 
Q 359 3922 746 4261 
Q 1134 4600 1788 4600 
Q 2447 4600 2831 4234 
Q 3216 3869 3216 3328 
Q 3216 3053 3103 2787 
Q 2991 2522 2730 2228 
Q 2469 1934 1863 1422 
Q 1356 997 1212 845 
Q 1069 694 975 541 
L 3222 541 
z
" transform="scale(0.015625)"/>
                            </defs>
                            <use xlink:href="#ArialMT-30"/>
                            <use xlink:href="#ArialMT-2e" x="55.615234"/>
                            <use xlink:href="#ArialMT-32" x="83.398438"/>
                        </g>
                    </g>
                </g>
                <g id="xtick_3">
                    <g id="line2d_5">
                        <path d="M 203.694545 307.584
L 203.694545 41.472 
" clip-path="url(#p8fd9117fab)" style="fill: none; stroke: #ffffff; stroke-width: 0.8; stroke-linecap: round"/>
                    </g>
                    <g id="line2d_6"/>
                    <g id="text_3">
                        <!-- 0.4 -->
                        <g style="fill: #262626" transform="translate(196.744545 318.241812) scale(0.1 -0.1)">
                            <defs>
                                <path id="ArialMT-34" d="M 2069 0
L 2069 1097 
L 81 1097 
L 81 1613 
L 2172 4581 
L 2631 4581 
L 2631 1613 
L 3250 1613 
L 3250 1097 
L 2631 1097 
L 2631 0 
L 2069 0 
z
M 2069 1613 
L 2069 3678 
L 634 1613 
L 2069 1613 
z
" transform="scale(0.015625)"/>
                            </defs>
                            <use xlink:href="#ArialMT-30"/>
                            <use xlink:href="#ArialMT-2e" x="55.615234"/>
                            <use xlink:href="#ArialMT-34" x="83.398438"/>
                        </g>
                    </g>
                </g>
                <g id="xtick_4">
                    <g id="line2d_7">
                        <path d="M 268.625455 307.584
L 268.625455 41.472 
" clip-path="url(#p8fd9117fab)" style="fill: none; stroke: #ffffff; stroke-width: 0.8; stroke-linecap: round"/>
                    </g>
                    <g id="line2d_8"/>
                    <g id="text_4">
                        <!-- 0.6 -->
                        <g style="fill: #262626" transform="translate(261.675455 318.241812) scale(0.1 -0.1)">
                            <defs>
                                <path id="ArialMT-36" d="M 3184 3459
L 2625 3416 
Q 2550 3747 2413 3897 
Q 2184 4138 1850 4138 
Q 1581 4138 1378 3988 
Q 1113 3794 959 3422 
Q 806 3050 800 2363 
Q 1003 2672 1297 2822 
Q 1591 2972 1913 2972 
Q 2475 2972 2870 2558 
Q 3266 2144 3266 1488 
Q 3266 1056 3080 686 
Q 2894 316 2569 119 
Q 2244 -78 1831 -78 
Q 1128 -78 684 439 
Q 241 956 241 2144 
Q 241 3472 731 4075 
Q 1159 4600 1884 4600 
Q 2425 4600 2770 4297 
Q 3116 3994 3184 3459 
z
M 888 1484 
Q 888 1194 1011 928 
Q 1134 663 1356 523 
Q 1578 384 1822 384 
Q 2178 384 2434 671 
Q 2691 959 2691 1453 
Q 2691 1928 2437 2201 
Q 2184 2475 1800 2475 
Q 1419 2475 1153 2201 
Q 888 1928 888 1484 
z
" transform="scale(0.015625)"/>
                            </defs>
                            <use xlink:href="#ArialMT-30"/>
                            <use xlink:href="#ArialMT-2e" x="55.615234"/>
                            <use xlink:href="#ArialMT-36" x="83.398438"/>
                        </g>
                    </g>
                </g>
                <g id="xtick_5">
                    <g id="line2d_9">
                        <path d="M 333.556364 307.584
L 333.556364 41.472 
" clip-path="url(#p8fd9117fab)" style="fill: none; stroke: #ffffff; stroke-width: 0.8; stroke-linecap: round"/>
                    </g>
                    <g id="line2d_10"/>
                    <g id="text_5">
                        <!-- 0.8 -->
                        <g style="fill: #262626" transform="translate(326.606364 318.241812) scale(0.1 -0.1)">
                            <defs>
                                <path id="ArialMT-38" d="M 1131 2484
Q 781 2613 612 2850 
Q 444 3088 444 3419 
Q 444 3919 803 4259 
Q 1163 4600 1759 4600 
Q 2359 4600 2725 4251 
Q 3091 3903 3091 3403 
Q 3091 3084 2923 2848 
Q 2756 2613 2416 2484 
Q 2838 2347 3058 2040 
Q 3278 1734 3278 1309 
Q 3278 722 2862 322 
Q 2447 -78 1769 -78 
Q 1091 -78 675 323 
Q 259 725 259 1325 
Q 259 1772 486 2073 
Q 713 2375 1131 2484 
z
M 1019 3438 
Q 1019 3113 1228 2906 
Q 1438 2700 1772 2700 
Q 2097 2700 2305 2904 
Q 2513 3109 2513 3406 
Q 2513 3716 2298 3927 
Q 2084 4138 1766 4138 
Q 1444 4138 1231 3931 
Q 1019 3725 1019 3438 
z
M 838 1322 
Q 838 1081 952 856 
Q 1066 631 1291 507 
Q 1516 384 1775 384 
Q 2178 384 2440 643 
Q 2703 903 2703 1303 
Q 2703 1709 2433 1975 
Q 2163 2241 1756 2241 
Q 1359 2241 1098 1978 
Q 838 1716 838 1322 
z
" transform="scale(0.015625)"/>
                            </defs>
                            <use xlink:href="#ArialMT-30"/>
                            <use xlink:href="#ArialMT-2e" x="55.615234"/>
                            <use xlink:href="#ArialMT-38" x="83.398438"/>
                        </g>
                    </g>
                </g>
                <g id="xtick_6">
                    <g id="line2d_11">
                        <path d="M 398.487273 307.584
L 398.487273 41.472 
" clip-path="url(#p8fd9117fab)" style="fill: none; stroke: #ffffff; stroke-width: 0.8; stroke-linecap: round"/>
                    </g>
                    <g id="line2d_12"/>
                    <g id="text_6">
                        <!-- 1.0 -->
                        <g style="fill: #262626" transform="translate(391.537273 318.241812) scale(0.1 -0.1)">
                            <defs>
                                <path id="ArialMT-31" d="M 2384 0
L 1822 0 
L 1822 3584 
Q 1619 3391 1289 3197 
Q 959 3003 697 2906 
L 697 3450 
Q 1169 3672 1522 3987 
Q 1875 4303 2022 4600 
L 2384 4600 
L 2384 0 
z
" transform="scale(0.015625)"/>
                            </defs>
                            <use xlink:href="#ArialMT-31"/>
                            <use xlink:href="#ArialMT-2e" x="55.615234"/>
                            <use xlink:href="#ArialMT-30" x="83.398438"/>
                        </g>
                    </g>
                </g>
                <g id="text_7">
                    <!-- False Positive Rate -->
                    <g style="fill: #262626" transform="translate(193.088125 331.387125) scale(0.1 -0.1)">
                        <defs>
                            <path id="ArialMT-46" d="M 525 0
L 525 4581 
L 3616 4581 
L 3616 4041 
L 1131 4041 
L 1131 2622 
L 3281 2622 
L 3281 2081 
L 1131 2081 
L 1131 0 
L 525 0 
z
" transform="scale(0.015625)"/>
                            <path id="ArialMT-61" d="M 2588 409
Q 2275 144 1986 34 
Q 1697 -75 1366 -75 
Q 819 -75 525 192 
Q 231 459 231 875 
Q 231 1119 342 1320 
Q 453 1522 633 1644 
Q 813 1766 1038 1828 
Q 1203 1872 1538 1913 
Q 2219 1994 2541 2106 
Q 2544 2222 2544 2253 
Q 2544 2597 2384 2738 
Q 2169 2928 1744 2928 
Q 1347 2928 1158 2789 
Q 969 2650 878 2297 
L 328 2372 
Q 403 2725 575 2942 
Q 747 3159 1072 3276 
Q 1397 3394 1825 3394 
Q 2250 3394 2515 3294 
Q 2781 3194 2906 3042 
Q 3031 2891 3081 2659 
Q 3109 2516 3109 2141 
L 3109 1391 
Q 3109 606 3145 398 
Q 3181 191 3288 0 
L 2700 0 
Q 2613 175 2588 409 
z
M 2541 1666 
Q 2234 1541 1622 1453 
Q 1275 1403 1131 1340 
Q 988 1278 909 1158 
Q 831 1038 831 891 
Q 831 666 1001 516 
Q 1172 366 1500 366 
Q 1825 366 2078 508 
Q 2331 650 2450 897 
Q 2541 1088 2541 1459 
L 2541 1666 
z
" transform="scale(0.015625)"/>
                            <path id="ArialMT-6c" d="M 409 0
L 409 4581 
L 972 4581 
L 972 0 
L 409 0 
z
" transform="scale(0.015625)"/>
                            <path id="ArialMT-73" d="M 197 991
L 753 1078 
Q 800 744 1014 566 
Q 1228 388 1613 388 
Q 2000 388 2187 545 
Q 2375 703 2375 916 
Q 2375 1106 2209 1216 
Q 2094 1291 1634 1406 
Q 1016 1563 777 1677 
Q 538 1791 414 1992 
Q 291 2194 291 2438 
Q 291 2659 392 2848 
Q 494 3038 669 3163 
Q 800 3259 1026 3326 
Q 1253 3394 1513 3394 
Q 1903 3394 2198 3281 
Q 2494 3169 2634 2976 
Q 2775 2784 2828 2463 
L 2278 2388 
Q 2241 2644 2061 2787 
Q 1881 2931 1553 2931 
Q 1166 2931 1000 2803 
Q 834 2675 834 2503 
Q 834 2394 903 2306 
Q 972 2216 1119 2156 
Q 1203 2125 1616 2013 
Q 2213 1853 2448 1751 
Q 2684 1650 2818 1456 
Q 2953 1263 2953 975 
Q 2953 694 2789 445 
Q 2625 197 2315 61 
Q 2006 -75 1616 -75 
Q 969 -75 630 194 
Q 291 463 197 991 
z
" transform="scale(0.015625)"/>
                            <path id="ArialMT-65" d="M 2694 1069
L 3275 997 
Q 3138 488 2766 206 
Q 2394 -75 1816 -75 
Q 1088 -75 661 373 
Q 234 822 234 1631 
Q 234 2469 665 2931 
Q 1097 3394 1784 3394 
Q 2450 3394 2872 2941 
Q 3294 2488 3294 1666 
Q 3294 1616 3291 1516 
L 816 1516 
Q 847 969 1125 678 
Q 1403 388 1819 388 
Q 2128 388 2347 550 
Q 2566 713 2694 1069 
z
M 847 1978 
L 2700 1978 
Q 2663 2397 2488 2606 
Q 2219 2931 1791 2931 
Q 1403 2931 1139 2672 
Q 875 2413 847 1978 
z
" transform="scale(0.015625)"/>
                            <path id="ArialMT-20" transform="scale(0.015625)"/>
                            <path id="ArialMT-50" d="M 494 0
L 494 4581 
L 2222 4581 
Q 2678 4581 2919 4538 
Q 3256 4481 3484 4323 
Q 3713 4166 3852 3881 
Q 3991 3597 3991 3256 
Q 3991 2672 3619 2267 
Q 3247 1863 2275 1863 
L 1100 1863 
L 1100 0 
L 494 0 
z
M 1100 2403 
L 2284 2403 
Q 2872 2403 3119 2622 
Q 3366 2841 3366 3238 
Q 3366 3525 3220 3729 
Q 3075 3934 2838 4000 
Q 2684 4041 2272 4041 
L 1100 4041 
L 1100 2403 
z
" transform="scale(0.015625)"/>
                            <path id="ArialMT-6f" d="M 213 1659
Q 213 2581 725 3025 
Q 1153 3394 1769 3394 
Q 2453 3394 2887 2945 
Q 3322 2497 3322 1706 
Q 3322 1066 3130 698 
Q 2938 331 2570 128 
Q 2203 -75 1769 -75 
Q 1072 -75 642 372 
Q 213 819 213 1659 
z
M 791 1659 
Q 791 1022 1069 705 
Q 1347 388 1769 388 
Q 2188 388 2466 706 
Q 2744 1025 2744 1678 
Q 2744 2294 2464 2611 
Q 2184 2928 1769 2928 
Q 1347 2928 1069 2612 
Q 791 2297 791 1659 
z
" transform="scale(0.015625)"/>
                            <path id="ArialMT-69" d="M 425 3934
L 425 4581 
L 988 4581 
L 988 3934 
L 425 3934 
z
M 425 0 
L 425 3319 
L 988 3319 
L 988 0 
L 425 0 
z
" transform="scale(0.015625)"/>
                            <path id="ArialMT-74" d="M 1650 503
L 1731 6 
Q 1494 -44 1306 -44 
Q 1000 -44 831 53 
Q 663 150 594 308 
Q 525 466 525 972 
L 525 2881 
L 113 2881 
L 113 3319 
L 525 3319 
L 525 4141 
L 1084 4478 
L 1084 3319 
L 1650 3319 
L 1650 2881 
L 1084 2881 
L 1084 941 
Q 1084 700 1114 631 
Q 1144 563 1211 522 
Q 1278 481 1403 481 
Q 1497 481 1650 503 
z
" transform="scale(0.015625)"/>
                            <path id="ArialMT-76" d="M 1344 0
L 81 3319 
L 675 3319 
L 1388 1331 
Q 1503 1009 1600 663 
Q 1675 925 1809 1294 
L 2547 3319 
L 3125 3319 
L 1869 0 
L 1344 0 
z
" transform="scale(0.015625)"/>
                            <path id="ArialMT-52" d="M 503 0
L 503 4581 
L 2534 4581 
Q 3147 4581 3465 4457 
Q 3784 4334 3975 4021 
Q 4166 3709 4166 3331 
Q 4166 2844 3850 2509 
Q 3534 2175 2875 2084 
Q 3116 1969 3241 1856 
Q 3506 1613 3744 1247 
L 4541 0 
L 3778 0 
L 3172 953 
Q 2906 1366 2734 1584 
Q 2563 1803 2427 1890 
Q 2291 1978 2150 2013 
Q 2047 2034 1813 2034 
L 1109 2034 
L 1109 0 
L 503 0 
z
M 1109 2559 
L 2413 2559 
Q 2828 2559 3062 2645 
Q 3297 2731 3419 2920 
Q 3541 3109 3541 3331 
Q 3541 3656 3305 3865 
Q 3069 4075 2559 4075 
L 1109 4075 
L 1109 2559 
z
" transform="scale(0.015625)"/>
                        </defs>
                        <use xlink:href="#ArialMT-46"/>
                        <use xlink:href="#ArialMT-61" x="61.083984"/>
                        <use xlink:href="#ArialMT-6c" x="116.699219"/>
                        <use xlink:href="#ArialMT-73" x="138.916016"/>
                        <use xlink:href="#ArialMT-65" x="188.916016"/>
                        <use xlink:href="#ArialMT-20" x="244.53125"/>
                        <use xlink:href="#ArialMT-50" x="272.314453"/>
                        <use xlink:href="#ArialMT-6f" x="339.013672"/>
                        <use xlink:href="#ArialMT-73" x="394.628906"/>
                        <use xlink:href="#ArialMT-69" x="444.628906"/>
                        <use xlink:href="#ArialMT-74" x="466.845703"/>
                        <use xlink:href="#ArialMT-69" x="494.628906"/>
                        <use xlink:href="#ArialMT-76" x="516.845703"/>
                        <use xlink:href="#ArialMT-65" x="566.845703"/>
                        <use xlink:href="#ArialMT-20" x="622.460938"/>
                        <use xlink:href="#ArialMT-52" x="650.244141"/>
                        <use xlink:href="#ArialMT-61" x="722.460938"/>
                        <use xlink:href="#ArialMT-74" x="778.076172"/>
                        <use xlink:href="#ArialMT-65" x="805.859375"/>
                    </g>
                </g>
            </g>
            <g id="matplotlib.axis_2">
                <g id="ytick_1">
                    <g id="line2d_13">
                        <path d="M 57.6 295.488
L 414.72 295.488 
" clip-path="url(#p8fd9117fab)" style="fill: none; stroke: #ffffff; stroke-width: 0.8; stroke-linecap: round"/>
                    </g>
                    <g id="line2d_14"/>
                    <g id="text_8">
                        <!-- 0.0 -->
                        <g style="fill: #262626" transform="translate(40.2 299.066906) scale(0.1 -0.1)">
                            <use xlink:href="#ArialMT-30"/>
                            <use xlink:href="#ArialMT-2e" x="55.615234"/>
                            <use xlink:href="#ArialMT-30" x="83.398438"/>
                        </g>
                    </g>
                </g>
                <g id="ytick_2">
                    <g id="line2d_15">
                        <path d="M 57.6 247.104
L 414.72 247.104 
" clip-path="url(#p8fd9117fab)" style="fill: none; stroke: #ffffff; stroke-width: 0.8; stroke-linecap: round"/>
                    </g>
                    <g id="line2d_16"/>
                    <g id="text_9">
                        <!-- 0.2 -->
                        <g style="fill: #262626" transform="translate(40.2 250.682906) scale(0.1 -0.1)">
                            <use xlink:href="#ArialMT-30"/>
                            <use xlink:href="#ArialMT-2e" x="55.615234"/>
                            <use xlink:href="#ArialMT-32" x="83.398438"/>
                        </g>
                    </g>
                </g>
                <g id="ytick_3">
                    <g id="line2d_17">
                        <path d="M 57.6 198.72
L 414.72 198.72 
" clip-path="url(#p8fd9117fab)" style="fill: none; stroke: #ffffff; stroke-width: 0.8; stroke-linecap: round"/>
                    </g>
                    <g id="line2d_18"/>
                    <g id="text_10">
                        <!-- 0.4 -->
                        <g style="fill: #262626" transform="translate(40.2 202.298906) scale(0.1 -0.1)">
                            <use xlink:href="#ArialMT-30"/>
                            <use xlink:href="#ArialMT-2e" x="55.615234"/>
                            <use xlink:href="#ArialMT-34" x="83.398438"/>
                        </g>
                    </g>
                </g>
                <g id="ytick_4">
                    <g id="line2d_19">
                        <path d="M 57.6 150.336
L 414.72 150.336 
" clip-path="url(#p8fd9117fab)" style="fill: none; stroke: #ffffff; stroke-width: 0.8; stroke-linecap: round"/>
                    </g>
                    <g id="line2d_20"/>
                    <g id="text_11">
                        <!-- 0.6 -->
                        <g style="fill: #262626" transform="translate(40.2 153.914906) scale(0.1 -0.1)">
                            <use xlink:href="#ArialMT-30"/>
                            <use xlink:href="#ArialMT-2e" x="55.615234"/>
                            <use xlink:href="#ArialMT-36" x="83.398438"/>
                        </g>
                    </g>
                </g>
                <g id="ytick_5">
                    <g id="line2d_21">
                        <path d="M 57.6 101.952
L 414.72 101.952 
" clip-path="url(#p8fd9117fab)" style="fill: none; stroke: #ffffff; stroke-width: 0.8; stroke-linecap: round"/>
                    </g>
                    <g id="line2d_22"/>
                    <g id="text_12">
                        <!-- 0.8 -->
                        <g style="fill: #262626" transform="translate(40.2 105.530906) scale(0.1 -0.1)">
                            <use xlink:href="#ArialMT-30"/>
                            <use xlink:href="#ArialMT-2e" x="55.615234"/>
                            <use xlink:href="#ArialMT-38" x="83.398438"/>
                        </g>
                    </g>
                </g>
                <g id="ytick_6">
                    <g id="line2d_23">
                        <path d="M 57.6 53.568
L 414.72 53.568 
" clip-path="url(#p8fd9117fab)" style="fill: none; stroke: #ffffff; stroke-width: 0.8; stroke-linecap: round"/>
                    </g>
                    <g id="line2d_24"/>
                    <g id="text_13">
                        <!-- 1.0 -->
                        <g style="fill: #262626" transform="translate(40.2 57.146906) scale(0.1 -0.1)">
                            <use xlink:href="#ArialMT-31"/>
                            <use xlink:href="#ArialMT-2e" x="55.615234"/>
                            <use xlink:href="#ArialMT-30" x="83.398438"/>
                        </g>
                    </g>
                </g>
                <g id="text_14">
                    <!-- True Positive Rate -->
                    <g style="fill: #262626" transform="translate(34.2125 215.466281) rotate(-90) scale(0.1 -0.1)">
                        <defs>
                            <path id="ArialMT-54" d="M 1659 0
L 1659 4041 
L 150 4041 
L 150 4581 
L 3781 4581 
L 3781 4041 
L 2266 4041 
L 2266 0 
L 1659 0 
z
" transform="scale(0.015625)"/>
                            <path id="ArialMT-72" d="M 416 0
L 416 3319 
L 922 3319 
L 922 2816 
Q 1116 3169 1280 3281 
Q 1444 3394 1641 3394 
Q 1925 3394 2219 3213 
L 2025 2691 
Q 1819 2813 1613 2813 
Q 1428 2813 1281 2702 
Q 1134 2591 1072 2394 
Q 978 2094 978 1738 
L 978 0 
L 416 0 
z
" transform="scale(0.015625)"/>
                            <path id="ArialMT-75" d="M 2597 0
L 2597 488 
Q 2209 -75 1544 -75 
Q 1250 -75 995 37 
Q 741 150 617 320 
Q 494 491 444 738 
Q 409 903 409 1263 
L 409 3319 
L 972 3319 
L 972 1478 
Q 972 1038 1006 884 
Q 1059 663 1231 536 
Q 1403 409 1656 409 
Q 1909 409 2131 539 
Q 2353 669 2445 892 
Q 2538 1116 2538 1541 
L 2538 3319 
L 3100 3319 
L 3100 0 
L 2597 0 
z
" transform="scale(0.015625)"/>
                        </defs>
                        <use xlink:href="#ArialMT-54"/>
                        <use xlink:href="#ArialMT-72" x="57.333984"/>
                        <use xlink:href="#ArialMT-75" x="90.634766"/>
                        <use xlink:href="#ArialMT-65" x="146.25"/>
                        <use xlink:href="#ArialMT-20" x="201.865234"/>
                        <use xlink:href="#ArialMT-50" x="229.648438"/>
                        <use xlink:href="#ArialMT-6f" x="296.347656"/>
                        <use xlink:href="#ArialMT-73" x="351.962891"/>
                        <use xlink:href="#ArialMT-69" x="401.962891"/>
                        <use xlink:href="#ArialMT-74" x="424.179688"/>
                        <use xlink:href="#ArialMT-69" x="451.962891"/>
                        <use xlink:href="#ArialMT-76" x="474.179688"/>
                        <use xlink:href="#ArialMT-65" x="524.179688"/>
                        <use xlink:href="#ArialMT-20" x="579.794922"/>
                        <use xlink:href="#ArialMT-52" x="607.578125"/>
                        <use xlink:href="#ArialMT-61" x="679.794922"/>
                        <use xlink:href="#ArialMT-74" x="735.410156"/>
                        <use xlink:href="#ArialMT-65" x="763.193359"/>
                    </g>
                </g>
            </g>
            <g id="line2d_25">
                <path d="M 73.832727 295.488
L 73.905963 281.713196 
L 74.345378 271.973979 
L 74.418614 270.790206 
L 74.49185 270.790206 
L 74.565086 270.19832 
L 74.931265 269.929281 
L 75.077737 263.902804 
L 75.810095 249.267075 
L 75.883331 249.267075 
L 75.883331 247.975687 
L 76.029803 247.975687 
L 76.103039 247.114762 
L 76.469218 241.088285 
L 76.469218 238.613125 
L 76.688926 228.981523 
L 77.055105 222.309352 
L 77.055105 220.856541 
L 77.201577 220.856541 
L 77.201577 220.64131 
L 78.519822 214.991488 
L 78.593058 213.753907 
L 78.666294 213.753907 
L 78.73953 213.269637 
L 78.886001 213.215829 
L 78.886001 213.162021 
L 80.277483 206.866505 
L 80.350718 204.875616 
L 80.423954 204.875616 
L 80.423954 204.445153 
L 80.570426 204.28373 
L 80.570426 204.01469 
L 81.668964 197.880598 
L 81.668964 197.127288 
L 81.7422 197.127288 
L 81.815435 197.019673 
L 81.888671 196.373979 
L 81.961907 196.373979 
L 81.961907 195.889708 
L 82.108379 195.889708 
L 82.181615 194.813552 
L 83.060445 190.616541 
L 83.133681 187.65711 
L 84.525162 180.554477 
L 84.598398 180.124014 
L 84.671634 180.124014 
L 84.74487 179.370705 
L 84.891341 179.316897 
L 84.964577 178.886434 
L 85.037813 178.886434 
L 85.037813 178.832626 
L 86.282823 174.205153 
L 86.649002 173.882306 
L 86.722238 173.182804 
L 86.795474 173.182804 
L 86.868709 172.05284 
L 87.161653 171.945224 
L 87.234889 171.568569 
L 88.553134 166.994904 
L 88.62637 165.326861 
L 88.699606 165.326861 
L 88.772842 164.573552 
L 88.846078 164.573552 
L 88.846078 164.35832 
L 90.310795 158.977537 
L 90.603738 158.92373 
L 90.676974 157.901381 
L 90.823446 157.793765 
L 90.823446 157.632342 
L 91.043153 157.524726 
L 91.116389 157.040456 
L 92.361399 152.843445 
L 92.361399 152.090135 
L 92.50787 152.090135 
L 92.581106 151.71348 
L 92.727578 151.659673 
L 92.800814 150.906363 
L 92.87405 150.906363 
L 92.947285 149.937822 
L 93.020521 149.937822 
L 93.020521 149.884014 
L 94.338767 146.117466 
L 94.412003 144.557039 
L 94.485238 144.557039 
L 94.558474 143.642306 
L 94.704946 143.53469 
L 94.778182 143.104228 
L 96.023191 140.037181 
L 96.096427 139.230064 
L 96.169663 139.230064 
L 96.242899 138.58437 
L 96.389371 138.530562 
L 96.389371 137.454406 
L 98.220267 134.064512 
L 98.293503 133.472626 
L 98.439975 133.365011 
L 98.51321 132.665509 
L 98.806154 132.557893 
L 98.87939 132.39647 
L 98.952626 132.39647 
L 98.952626 132.181238 
L 99.099097 132.181238 
L 99.172333 131.64316 
L 99.392041 131.64316 
L 99.465277 131.374121 
L 99.611748 131.266505 
L 99.611748 131.212698 
L 101.296173 128.737537 
L 101.369409 127.822804 
L 101.589116 127.715189 
L 101.662352 127.392342 
L 101.735588 127.392342 
L 101.808824 126.908071 
L 101.88206 126.908071 
L 101.955296 126.047146 
L 102.248239 125.93953 
L 102.248239 125.724299 
L 103.932664 122.603445 
L 104.0059 121.957751 
L 104.079135 121.957751 
L 104.152371 120.827786 
L 104.298843 120.773979 
L 104.298843 120.558747 
L 104.811494 120.50494 
L 104.88473 120.020669 
L 106.495919 116.469352 
L 106.495919 116.254121 
L 106.64239 116.254121 
L 106.715626 115.662235 
L 106.935334 115.608427 
L 107.00857 115.339388 
L 107.081805 115.339388 
L 107.155041 115.070349 
L 107.301513 114.962733 
L 107.374749 114.747502 
L 107.447985 114.747502 
L 107.447985 114.639886 
L 108.985938 111.841879 
L 109.205645 111.788071 
L 109.205645 111.626648 
L 109.278881 111.626648 
L 109.718296 111.411416 
L 109.718296 111.142377 
L 110.01124 111.034762 
L 110.084476 110.765722 
L 110.157711 110.765722 
L 110.230947 110.33526 
L 110.304183 110.33526 
L 110.377419 109.312911 
L 110.450655 109.312911 
L 110.450655 109.151488 
L 112.794202 106.891559 
L 113.087146 106.891559 
L 113.087146 106.783943 
L 113.453325 106.568712 
L 113.526561 106.407288 
L 113.599797 106.407288 
L 113.599797 105.923018 
L 113.819504 105.923018 
L 113.819504 105.38494 
L 114.039212 105.277324 
L 114.112448 105.062093 
L 114.405391 104.954477 
L 116.309523 102.479317 
L 116.309523 102.15647 
L 116.529231 102.048854 
L 116.602467 101.779815 
L 116.968646 101.672199 
L 116.968646 101.618391 
L 117.408061 101.564584 
L 117.481297 101.40316 
L 117.627769 101.349352 
L 117.701004 100.703658 
L 117.847476 100.649851 
L 117.847476 100.488427 
L 120.191024 97.636612 
L 120.264259 97.421381 
L 120.337495 97.421381 
L 120.337495 97.313765 
L 120.410731 96.990918 
L 120.630439 96.93711 
L 120.703675 96.668071 
L 120.996618 96.560456 
L 121.069854 96.399032 
L 121.362797 96.291416 
L 121.362797 96.237609 
L 121.509269 96.237609 
L 121.509269 96.183801 
L 123.706345 94.192911 
L 123.77958 93.439601 
L 124.218996 93.331986 
L 124.292231 93.22437 
L 124.365467 93.22437 
L 124.438703 92.901523 
L 124.731647 92.847715 
L 124.804882 92.47106 
L 124.878118 92.47106 
L 124.878118 92.255829 
L 127.368137 90.103516 
L 127.368137 89.888285 
L 127.734317 89.780669 
L 127.807552 89.51163 
L 128.100496 89.404014 
L 128.173732 89.134975 
L 128.539911 89.027359 
L 128.539911 88.973552 
L 128.90609 88.919744 
L 131.469345 86.928854 
L 131.90876 86.821238 
L 131.981996 86.552199 
L 132.494647 86.444584 
L 132.567883 86.336968 
L 132.787591 86.229352 
L 132.787591 86.014121 
L 133.080534 85.960313 
L 135.570553 84.776541 
L 135.570553 84.56131 
L 136.229676 84.453694 
L 136.302912 84.29227 
L 136.595855 84.238463 
L 136.595855 84.130847 
L 136.815563 84.130847 
L 136.815563 83.969423 
L 137.03527 83.969423 
L 137.03527 83.808 
L 137.254978 83.700384 
L 137.328214 83.592769 
L 137.474685 83.592769 
L 140.111176 82.032342 
L 140.40412 81.924726 
L 140.40412 81.870918 
L 140.916771 81.81711 
L 140.990006 81.440456 
L 141.136478 81.440456 
L 141.209714 80.956185 
L 141.575893 80.902377 
L 141.575893 80.794762 
L 141.795601 80.794762 
L 141.868837 80.57953 
L 142.088544 80.471915 
L 142.088544 80.418107 
L 142.16178 80.418107 
L 144.432092 79.449566 
L 144.871507 79.34195 
L 144.944743 79.234335 
L 145.16445 79.126719 
L 145.16445 78.85768 
L 145.457394 78.750064 
L 145.530629 78.534833 
L 145.677101 78.534833 
L 145.750337 78.319601 
L 145.896809 78.265794 
L 145.896809 78.158178 
L 146.189752 78.050562 
L 146.189752 77.942947 
L 148.753007 76.759174 
L 148.826243 76.38252 
L 149.192422 76.274904 
L 149.265658 76.11348 
L 149.338894 76.11348 
L 149.41213 75.62921 
L 149.705073 75.521594 
L 149.778309 75.306363 
L 150.437432 75.198747 
L 150.437432 75.14494 
L 150.583903 75.14494 
L 150.583903 74.768285 
L 154.685111 73.799744 
L 154.685111 73.745936 
L 154.831583 73.745936 
L 154.831583 73.476897 
L 154.978055 73.476897 
L 155.051291 73.15405 
L 155.344234 73.046434 
L 155.344234 72.885011 
L 155.563942 72.831203 
L 155.563942 72.669779 
L 155.637177 72.669779 
L 159.152498 71.701238 
L 159.152498 71.647431 
L 159.811621 71.539815 
L 159.884857 71.216968 
L 160.031329 71.16316 
L 160.031329 71.109352 
L 160.104565 71.055544 
L 160.104565 70.732698 
L 163.839593 69.710349 
L 163.912829 69.333694 
L 164.205772 69.226078 
L 164.205772 69.118463 
L 164.718423 69.010847 
L 164.791659 68.903231 
L 164.864895 68.903231 
L 164.938131 68.580384 
L 167.574622 67.827075 
L 167.574622 67.773267 
L 168.453452 67.665651 
L 168.453452 67.611843 
L 168.526688 67.611843 
L 168.599924 67.504228 
L 169.625226 67.45042 
L 169.625226 67.342804 
L 169.918169 67.342804 
L 169.918169 67.127573 
L 170.504056 67.019957 
L 170.504056 66.966149 
L 170.577292 66.966149 
L 174.6785 65.997609 
L 174.751736 65.782377 
L 174.971443 65.782377 
L 175.044679 65.513338 
L 175.191151 65.513338 
L 175.191151 65.351915 
L 177.534698 65.298107 
L 177.534698 65.190491 
L 177.974113 65.082875 
L 177.974113 64.97526 
L 178.413528 64.921452 
L 178.413528 64.760028 
L 179.219123 64.706221 
L 179.219123 64.598605 
L 182.4415 64.006719 
L 182.514736 63.899103 
L 182.80768 63.791488 
L 182.80768 63.73768 
L 183.173859 63.630064 
L 183.173859 63.522448 
L 183.68651 63.414833 
L 183.68651 63.307217 
L 184.199161 63.199601 
L 184.199161 63.145794 
L 184.638576 63.038178 
L 188.886256 62.661523 
L 188.886256 62.607715 
L 189.032727 62.607715 
L 189.032727 62.446292 
L 189.545378 62.338676 
L 189.545378 62.284868 
L 190.277737 62.23106 
L 190.277737 62.123445 
L 190.497444 62.069637 
L 190.497444 61.962021 
L 190.863624 61.962021 
L 194.598652 61.639174 
L 194.598652 61.531559 
L 194.81836 61.423943 
L 194.891596 61.316327 
L 195.990134 61.208712 
L 195.990134 61.154904 
L 196.649256 61.101096 
L 196.649256 60.99348 
L 197.088671 60.99348 
L 197.088671 60.939673 
L 200.237813 60.455402 
L 200.237813 60.401594 
L 200.457521 60.347786 
L 200.530757 60.186363 
L 200.8237 60.078747 
L 200.8237 60.02494 
L 201.263115 59.917324 
L 201.263115 59.809708 
L 201.775766 59.809708 
L 201.849002 59.433053 
L 201.995474 59.325438 
L 201.995474 59.27163 
L 202.215181 59.27163 
L 202.215181 59.217822 
L 206.609332 59.056399 
L 206.682568 58.841167 
L 206.902276 58.787359 
L 206.975512 58.625936 
L 207.927578 58.51832 
L 207.927578 58.464512 
L 208.879644 58.356897 
L 208.879644 58.303089 
L 212.321729 58.195473 
L 212.321729 58.141665 
L 213.054088 58.03405 
L 213.054088 57.980242 
L 213.566739 57.926434 
L 213.566739 57.818819 
L 214.95822 57.711203 
L 218.180598 57.442164 
L 218.180598 57.388356 
L 218.327069 57.388356 
L 218.327069 57.226932 
L 219.425607 57.173125 
L 223.892994 56.850278 
L 223.892994 56.581238 
L 224.918296 56.473623 
L 224.918296 56.366007 
L 229.019504 56.258391 
L 229.019504 56.204584 
L 230.484221 56.096968 
L 230.484221 56.04316 
L 230.923636 56.04316 
L 234.658665 55.666505 
L 234.658665 55.612698 
L 235.830439 55.505082 
L 235.830439 55.451274 
L 241.98225 55.343658 
L 241.98225 55.289851 
L 243.22726 55.182235 
L 243.22726 55.128427 
L 247.694647 55.020811 
L 247.694647 54.967004 
L 248.646713 54.859388 
L 248.646713 54.80558 
L 248.719949 54.80558 
L 250.038195 54.697964 
L 250.038195 54.644157 
L 256.48295 54.536541 
L 256.48295 54.482733 
L 258.167374 54.428925 
L 264.685366 54.213694 
L 278.38047 54.106078 
L 278.38047 54.05227 
L 285.044933 53.944655 
L 285.044933 53.890847 
L 296.396491 53.783231 
L 296.396491 53.729423 
L 363.919949 53.621808 
L 363.919949 53.568 
L 363.993185 53.568 
L 398.487273 53.568 
L 398.487273 53.568 
" clip-path="url(#p8fd9117fab)" style="fill: none; stroke: #1f77b4; stroke-width: 1.5; stroke-linecap: round"/>
            </g>
            <g id="patch_3">
                <path d="M 57.6 307.584
L 57.6 41.472 
" style="fill: none"/>
            </g>
            <g id="patch_4">
                <path d="M 414.72 307.584
L 414.72 41.472 
" style="fill: none"/>
            </g>
            <g id="patch_5">
                <path d="M 57.6 307.584
L 414.72 307.584 
" style="fill: none"/>
            </g>
            <g id="patch_6">
                <path d="M 57.6 41.472
L 414.72 41.472 
" style="fill: none"/>
            </g>
            <g id="legend_1">
                <g id="line2d_26">
                    <path d="M 325.748125 293.0965
L 335.748125 293.0965 
L 345.748125 293.0965 
" style="fill: none; stroke: #1f77b4; stroke-width: 1.5; stroke-linecap: round"/>
                </g>
                <g id="text_15">
                    <!-- AUC = 0.92 -->
                    <g style="fill: #262626" transform="translate(353.748125 296.5965) scale(0.1 -0.1)">
                        <defs>
                            <path id="ArialMT-41" d="M -9 0
L 1750 4581 
L 2403 4581 
L 4278 0 
L 3588 0 
L 3053 1388 
L 1138 1388 
L 634 0 
L -9 0 
z
M 1313 1881 
L 2866 1881 
L 2388 3150 
Q 2169 3728 2063 4100 
Q 1975 3659 1816 3225 
L 1313 1881 
z
" transform="scale(0.015625)"/>
                            <path id="ArialMT-55" d="M 3500 4581
L 4106 4581 
L 4106 1934 
Q 4106 1244 3950 837 
Q 3794 431 3386 176 
Q 2978 -78 2316 -78 
Q 1672 -78 1262 144 
Q 853 366 678 786 
Q 503 1206 503 1934 
L 503 4581 
L 1109 4581 
L 1109 1938 
Q 1109 1341 1220 1058 
Q 1331 775 1601 622 
Q 1872 469 2263 469 
Q 2931 469 3215 772 
Q 3500 1075 3500 1938 
L 3500 4581 
z
" transform="scale(0.015625)"/>
                            <path id="ArialMT-43" d="M 3763 1606
L 4369 1453 
Q 4178 706 3683 314 
Q 3188 -78 2472 -78 
Q 1731 -78 1267 223 
Q 803 525 561 1097 
Q 319 1669 319 2325 
Q 319 3041 592 3573 
Q 866 4106 1370 4382 
Q 1875 4659 2481 4659 
Q 3169 4659 3637 4309 
Q 4106 3959 4291 3325 
L 3694 3184 
Q 3534 3684 3231 3912 
Q 2928 4141 2469 4141 
Q 1941 4141 1586 3887 
Q 1231 3634 1087 3207 
Q 944 2781 944 2328 
Q 944 1744 1114 1308 
Q 1284 872 1643 656 
Q 2003 441 2422 441 
Q 2931 441 3284 734 
Q 3638 1028 3763 1606 
z
" transform="scale(0.015625)"/>
                            <path id="ArialMT-3d" d="M 3381 2694
L 356 2694 
L 356 3219 
L 3381 3219 
L 3381 2694 
z
M 3381 1303 
L 356 1303 
L 356 1828 
L 3381 1828 
L 3381 1303 
z
" transform="scale(0.015625)"/>
                            <path id="ArialMT-39" d="M 350 1059
L 891 1109 
Q 959 728 1153 556 
Q 1347 384 1650 384 
Q 1909 384 2104 503 
Q 2300 622 2425 820 
Q 2550 1019 2634 1356 
Q 2719 1694 2719 2044 
Q 2719 2081 2716 2156 
Q 2547 1888 2255 1720 
Q 1963 1553 1622 1553 
Q 1053 1553 659 1965 
Q 266 2378 266 3053 
Q 266 3750 677 4175 
Q 1088 4600 1706 4600 
Q 2153 4600 2523 4359 
Q 2894 4119 3086 3673 
Q 3278 3228 3278 2384 
Q 3278 1506 3087 986 
Q 2897 466 2520 194 
Q 2144 -78 1638 -78 
Q 1100 -78 759 220 
Q 419 519 350 1059 
z
M 2653 3081 
Q 2653 3566 2395 3850 
Q 2138 4134 1775 4134 
Q 1400 4134 1122 3828 
Q 844 3522 844 3034 
Q 844 2597 1108 2323 
Q 1372 2050 1759 2050 
Q 2150 2050 2401 2323 
Q 2653 2597 2653 3081 
z
" transform="scale(0.015625)"/>
                        </defs>
                        <use xlink:href="#ArialMT-41"/>
                        <use xlink:href="#ArialMT-55" x="66.699219"/>
                        <use xlink:href="#ArialMT-43" x="138.916016"/>
                        <use xlink:href="#ArialMT-20" x="211.132812"/>
                        <use xlink:href="#ArialMT-3d" x="238.916016"/>
                        <use xlink:href="#ArialMT-20" x="297.314453"/>
                        <use xlink:href="#ArialMT-30" x="325.097656"/>
                        <use xlink:href="#ArialMT-2e" x="380.712891"/>
                        <use xlink:href="#ArialMT-39" x="408.496094"/>
                        <use xlink:href="#ArialMT-32" x="464.111328"/>
                    </g>
                </g>
            </g>
        </g>
    </g>
    <defs>
        <clipPath id="p8fd9117fab">
            <rect x="57.6" y="41.472" width="357.12" height="266.112"/>
        </clipPath>
    </defs>
</svg>
