<?xml version="1.0" encoding="utf-8" standalone="no"?>
<!DOCTYPE svg PUBLIC "-//W3C//DTD SVG 1.1//EN"
        "http://www.w3.org/Graphics/SVG/1.1/DTD/svg11.dtd">
<svg xmlns:xlink="http://www.w3.org/1999/xlink" width="460.8pt" height="345.6pt" viewBox="0 0 460.8 345.6"
     xmlns="http://www.w3.org/2000/svg" version="1.1">
    <metadata>
        <rdf:RDF xmlns:dc="http://purl.org/dc/elements/1.1/" xmlns:cc="http://creativecommons.org/ns#"
                 xmlns:rdf="http://www.w3.org/1999/02/22-rdf-syntax-ns#">
            <cc:Work>
                <dc:type rdf:resource="http://purl.org/dc/dcmitype/StillImage"/>
                <dc:date>2022-11-22T11:14:39.881727</dc:date>
                <dc:format>image/svg+xml</dc:format>
                <dc:creator>
                    <cc:Agent>
                        <dc:title>Matplotlib v3.6.2, https://matplotlib.org/</dc:title>
                    </cc:Agent>
                </dc:creator>
            </cc:Work>
        </rdf:RDF>
    </metadata>
    <defs>
        <style type="text/css">*{stroke-linejoin: round; stroke-linecap: butt}</style>
    </defs>
    <g id="figure_1">
        <g id="patch_1">
            <path d="M 0 345.6
L 460.8 345.6 
L 460.8 0 
L 0 0 
z
" style="fill: #ffffff"/>
        </g>
        <g id="axes_1">
            <g id="patch_2">
                <path d="M 57.6 307.584
L 414.72 307.584 
L 414.72 41.472 
L 57.6 41.472 
z
" style="fill: #ffffff"/>
            </g>
            <g id="matplotlib.axis_1">
                <g id="xtick_1">
                    <g id="line2d_1">
                        <defs>
                            <path id="mf31cd6a17e" d="M 0 0
L 0 3.5 
" style="stroke: #000000; stroke-width: 0.8"/>
                        </defs>
                        <g>
                            <use xlink:href="#mf31cd6a17e" x="73.832727" y="307.584"
                                 style="stroke: #000000; stroke-width: 0.8"/>
                        </g>
                    </g>
                    <g id="text_1">
                        <!-- 0.0 -->
                        <g transform="translate(65.881165 322.182437) scale(0.1 -0.1)">
                            <defs>
                                <path id="DejaVuSans-30" d="M 2034 4250
Q 1547 4250 1301 3770 
Q 1056 3291 1056 2328 
Q 1056 1369 1301 889 
Q 1547 409 2034 409 
Q 2525 409 2770 889 
Q 3016 1369 3016 2328 
Q 3016 3291 2770 3770 
Q 2525 4250 2034 4250 
z
M 2034 4750 
Q 2819 4750 3233 4129 
Q 3647 3509 3647 2328 
Q 3647 1150 3233 529 
Q 2819 -91 2034 -91 
Q 1250 -91 836 529 
Q 422 1150 422 2328 
Q 422 3509 836 4129 
Q 1250 4750 2034 4750 
z
" transform="scale(0.015625)"/>
                                <path id="DejaVuSans-2e" d="M 684 794
L 1344 794 
L 1344 0 
L 684 0 
L 684 794 
z
" transform="scale(0.015625)"/>
                            </defs>
                            <use xlink:href="#DejaVuSans-30"/>
                            <use xlink:href="#DejaVuSans-2e" x="63.623047"/>
                            <use xlink:href="#DejaVuSans-30" x="95.410156"/>
                        </g>
                    </g>
                </g>
                <g id="xtick_2">
                    <g id="line2d_2">
                        <g>
                            <use xlink:href="#mf31cd6a17e" x="138.763636" y="307.584"
                                 style="stroke: #000000; stroke-width: 0.8"/>
                        </g>
                    </g>
                    <g id="text_2">
                        <!-- 0.2 -->
                        <g transform="translate(130.812074 322.182437) scale(0.1 -0.1)">
                            <defs>
                                <path id="DejaVuSans-32" d="M 1228 531
L 3431 531 
L 3431 0 
L 469 0 
L 469 531 
Q 828 903 1448 1529 
Q 2069 2156 2228 2338 
Q 2531 2678 2651 2914 
Q 2772 3150 2772 3378 
Q 2772 3750 2511 3984 
Q 2250 4219 1831 4219 
Q 1534 4219 1204 4116 
Q 875 4013 500 3803 
L 500 4441 
Q 881 4594 1212 4672 
Q 1544 4750 1819 4750 
Q 2544 4750 2975 4387 
Q 3406 4025 3406 3419 
Q 3406 3131 3298 2873 
Q 3191 2616 2906 2266 
Q 2828 2175 2409 1742 
Q 1991 1309 1228 531 
z
" transform="scale(0.015625)"/>
                            </defs>
                            <use xlink:href="#DejaVuSans-30"/>
                            <use xlink:href="#DejaVuSans-2e" x="63.623047"/>
                            <use xlink:href="#DejaVuSans-32" x="95.410156"/>
                        </g>
                    </g>
                </g>
                <g id="xtick_3">
                    <g id="line2d_3">
                        <g>
                            <use xlink:href="#mf31cd6a17e" x="203.694545" y="307.584"
                                 style="stroke: #000000; stroke-width: 0.8"/>
                        </g>
                    </g>
                    <g id="text_3">
                        <!-- 0.4 -->
                        <g transform="translate(195.742983 322.182437) scale(0.1 -0.1)">
                            <defs>
                                <path id="DejaVuSans-34" d="M 2419 4116
L 825 1625 
L 2419 1625 
L 2419 4116 
z
M 2253 4666 
L 3047 4666 
L 3047 1625 
L 3713 1625 
L 3713 1100 
L 3047 1100 
L 3047 0 
L 2419 0 
L 2419 1100 
L 313 1100 
L 313 1709 
L 2253 4666 
z
" transform="scale(0.015625)"/>
                            </defs>
                            <use xlink:href="#DejaVuSans-30"/>
                            <use xlink:href="#DejaVuSans-2e" x="63.623047"/>
                            <use xlink:href="#DejaVuSans-34" x="95.410156"/>
                        </g>
                    </g>
                </g>
                <g id="xtick_4">
                    <g id="line2d_4">
                        <g>
                            <use xlink:href="#mf31cd6a17e" x="268.625455" y="307.584"
                                 style="stroke: #000000; stroke-width: 0.8"/>
                        </g>
                    </g>
                    <g id="text_4">
                        <!-- 0.6 -->
                        <g transform="translate(260.673892 322.182437) scale(0.1 -0.1)">
                            <defs>
                                <path id="DejaVuSans-36" d="M 2113 2584
Q 1688 2584 1439 2293 
Q 1191 2003 1191 1497 
Q 1191 994 1439 701 
Q 1688 409 2113 409 
Q 2538 409 2786 701 
Q 3034 994 3034 1497 
Q 3034 2003 2786 2293 
Q 2538 2584 2113 2584 
z
M 3366 4563 
L 3366 3988 
Q 3128 4100 2886 4159 
Q 2644 4219 2406 4219 
Q 1781 4219 1451 3797 
Q 1122 3375 1075 2522 
Q 1259 2794 1537 2939 
Q 1816 3084 2150 3084 
Q 2853 3084 3261 2657 
Q 3669 2231 3669 1497 
Q 3669 778 3244 343 
Q 2819 -91 2113 -91 
Q 1303 -91 875 529 
Q 447 1150 447 2328 
Q 447 3434 972 4092 
Q 1497 4750 2381 4750 
Q 2619 4750 2861 4703 
Q 3103 4656 3366 4563 
z
" transform="scale(0.015625)"/>
                            </defs>
                            <use xlink:href="#DejaVuSans-30"/>
                            <use xlink:href="#DejaVuSans-2e" x="63.623047"/>
                            <use xlink:href="#DejaVuSans-36" x="95.410156"/>
                        </g>
                    </g>
                </g>
                <g id="xtick_5">
                    <g id="line2d_5">
                        <g>
                            <use xlink:href="#mf31cd6a17e" x="333.556364" y="307.584"
                                 style="stroke: #000000; stroke-width: 0.8"/>
                        </g>
                    </g>
                    <g id="text_5">
                        <!-- 0.8 -->
                        <g transform="translate(325.604801 322.182437) scale(0.1 -0.1)">
                            <defs>
                                <path id="DejaVuSans-38" d="M 2034 2216
Q 1584 2216 1326 1975 
Q 1069 1734 1069 1313 
Q 1069 891 1326 650 
Q 1584 409 2034 409 
Q 2484 409 2743 651 
Q 3003 894 3003 1313 
Q 3003 1734 2745 1975 
Q 2488 2216 2034 2216 
z
M 1403 2484 
Q 997 2584 770 2862 
Q 544 3141 544 3541 
Q 544 4100 942 4425 
Q 1341 4750 2034 4750 
Q 2731 4750 3128 4425 
Q 3525 4100 3525 3541 
Q 3525 3141 3298 2862 
Q 3072 2584 2669 2484 
Q 3125 2378 3379 2068 
Q 3634 1759 3634 1313 
Q 3634 634 3220 271 
Q 2806 -91 2034 -91 
Q 1263 -91 848 271 
Q 434 634 434 1313 
Q 434 1759 690 2068 
Q 947 2378 1403 2484 
z
M 1172 3481 
Q 1172 3119 1398 2916 
Q 1625 2713 2034 2713 
Q 2441 2713 2670 2916 
Q 2900 3119 2900 3481 
Q 2900 3844 2670 4047 
Q 2441 4250 2034 4250 
Q 1625 4250 1398 4047 
Q 1172 3844 1172 3481 
z
" transform="scale(0.015625)"/>
                            </defs>
                            <use xlink:href="#DejaVuSans-30"/>
                            <use xlink:href="#DejaVuSans-2e" x="63.623047"/>
                            <use xlink:href="#DejaVuSans-38" x="95.410156"/>
                        </g>
                    </g>
                </g>
                <g id="xtick_6">
                    <g id="line2d_6">
                        <g>
                            <use xlink:href="#mf31cd6a17e" x="398.487273" y="307.584"
                                 style="stroke: #000000; stroke-width: 0.8"/>
                        </g>
                    </g>
                    <g id="text_6">
                        <!-- 1.0 -->
                        <g transform="translate(390.53571 322.182437) scale(0.1 -0.1)">
                            <defs>
                                <path id="DejaVuSans-31" d="M 794 531
L 1825 531 
L 1825 4091 
L 703 3866 
L 703 4441 
L 1819 4666 
L 2450 4666 
L 2450 531 
L 3481 531 
L 3481 0 
L 794 0 
L 794 531 
z
" transform="scale(0.015625)"/>
                            </defs>
                            <use xlink:href="#DejaVuSans-31"/>
                            <use xlink:href="#DejaVuSans-2e" x="63.623047"/>
                            <use xlink:href="#DejaVuSans-30" x="95.410156"/>
                        </g>
                    </g>
                </g>
                <g id="text_7">
                    <!-- False Positive Rate -->
                    <g transform="translate(189.693594 335.860562) scale(0.1 -0.1)">
                        <defs>
                            <path id="DejaVuSans-46" d="M 628 4666
L 3309 4666 
L 3309 4134 
L 1259 4134 
L 1259 2759 
L 3109 2759 
L 3109 2228 
L 1259 2228 
L 1259 0 
L 628 0 
L 628 4666 
z
" transform="scale(0.015625)"/>
                            <path id="DejaVuSans-61" d="M 2194 1759
Q 1497 1759 1228 1600 
Q 959 1441 959 1056 
Q 959 750 1161 570 
Q 1363 391 1709 391 
Q 2188 391 2477 730 
Q 2766 1069 2766 1631 
L 2766 1759 
L 2194 1759 
z
M 3341 1997 
L 3341 0 
L 2766 0 
L 2766 531 
Q 2569 213 2275 61 
Q 1981 -91 1556 -91 
Q 1019 -91 701 211 
Q 384 513 384 1019 
Q 384 1609 779 1909 
Q 1175 2209 1959 2209 
L 2766 2209 
L 2766 2266 
Q 2766 2663 2505 2880 
Q 2244 3097 1772 3097 
Q 1472 3097 1187 3025 
Q 903 2953 641 2809 
L 641 3341 
Q 956 3463 1253 3523 
Q 1550 3584 1831 3584 
Q 2591 3584 2966 3190 
Q 3341 2797 3341 1997 
z
" transform="scale(0.015625)"/>
                            <path id="DejaVuSans-6c" d="M 603 4863
L 1178 4863 
L 1178 0 
L 603 0 
L 603 4863 
z
" transform="scale(0.015625)"/>
                            <path id="DejaVuSans-73" d="M 2834 3397
L 2834 2853 
Q 2591 2978 2328 3040 
Q 2066 3103 1784 3103 
Q 1356 3103 1142 2972 
Q 928 2841 928 2578 
Q 928 2378 1081 2264 
Q 1234 2150 1697 2047 
L 1894 2003 
Q 2506 1872 2764 1633 
Q 3022 1394 3022 966 
Q 3022 478 2636 193 
Q 2250 -91 1575 -91 
Q 1294 -91 989 -36 
Q 684 19 347 128 
L 347 722 
Q 666 556 975 473 
Q 1284 391 1588 391 
Q 1994 391 2212 530 
Q 2431 669 2431 922 
Q 2431 1156 2273 1281 
Q 2116 1406 1581 1522 
L 1381 1569 
Q 847 1681 609 1914 
Q 372 2147 372 2553 
Q 372 3047 722 3315 
Q 1072 3584 1716 3584 
Q 2034 3584 2315 3537 
Q 2597 3491 2834 3397 
z
" transform="scale(0.015625)"/>
                            <path id="DejaVuSans-65" d="M 3597 1894
L 3597 1613 
L 953 1613 
Q 991 1019 1311 708 
Q 1631 397 2203 397 
Q 2534 397 2845 478 
Q 3156 559 3463 722 
L 3463 178 
Q 3153 47 2828 -22 
Q 2503 -91 2169 -91 
Q 1331 -91 842 396 
Q 353 884 353 1716 
Q 353 2575 817 3079 
Q 1281 3584 2069 3584 
Q 2775 3584 3186 3129 
Q 3597 2675 3597 1894 
z
M 3022 2063 
Q 3016 2534 2758 2815 
Q 2500 3097 2075 3097 
Q 1594 3097 1305 2825 
Q 1016 2553 972 2059 
L 3022 2063 
z
" transform="scale(0.015625)"/>
                            <path id="DejaVuSans-20" transform="scale(0.015625)"/>
                            <path id="DejaVuSans-50" d="M 1259 4147
L 1259 2394 
L 2053 2394 
Q 2494 2394 2734 2622 
Q 2975 2850 2975 3272 
Q 2975 3691 2734 3919 
Q 2494 4147 2053 4147 
L 1259 4147 
z
M 628 4666 
L 2053 4666 
Q 2838 4666 3239 4311 
Q 3641 3956 3641 3272 
Q 3641 2581 3239 2228 
Q 2838 1875 2053 1875 
L 1259 1875 
L 1259 0 
L 628 0 
L 628 4666 
z
" transform="scale(0.015625)"/>
                            <path id="DejaVuSans-6f" d="M 1959 3097
Q 1497 3097 1228 2736 
Q 959 2375 959 1747 
Q 959 1119 1226 758 
Q 1494 397 1959 397 
Q 2419 397 2687 759 
Q 2956 1122 2956 1747 
Q 2956 2369 2687 2733 
Q 2419 3097 1959 3097 
z
M 1959 3584 
Q 2709 3584 3137 3096 
Q 3566 2609 3566 1747 
Q 3566 888 3137 398 
Q 2709 -91 1959 -91 
Q 1206 -91 779 398 
Q 353 888 353 1747 
Q 353 2609 779 3096 
Q 1206 3584 1959 3584 
z
" transform="scale(0.015625)"/>
                            <path id="DejaVuSans-69" d="M 603 3500
L 1178 3500 
L 1178 0 
L 603 0 
L 603 3500 
z
M 603 4863 
L 1178 4863 
L 1178 4134 
L 603 4134 
L 603 4863 
z
" transform="scale(0.015625)"/>
                            <path id="DejaVuSans-74" d="M 1172 4494
L 1172 3500 
L 2356 3500 
L 2356 3053 
L 1172 3053 
L 1172 1153 
Q 1172 725 1289 603 
Q 1406 481 1766 481 
L 2356 481 
L 2356 0 
L 1766 0 
Q 1100 0 847 248 
Q 594 497 594 1153 
L 594 3053 
L 172 3053 
L 172 3500 
L 594 3500 
L 594 4494 
L 1172 4494 
z
" transform="scale(0.015625)"/>
                            <path id="DejaVuSans-76" d="M 191 3500
L 800 3500 
L 1894 563 
L 2988 3500 
L 3597 3500 
L 2284 0 
L 1503 0 
L 191 3500 
z
" transform="scale(0.015625)"/>
                            <path id="DejaVuSans-52" d="M 2841 2188
Q 3044 2119 3236 1894 
Q 3428 1669 3622 1275 
L 4263 0 
L 3584 0 
L 2988 1197 
Q 2756 1666 2539 1819 
Q 2322 1972 1947 1972 
L 1259 1972 
L 1259 0 
L 628 0 
L 628 4666 
L 2053 4666 
Q 2853 4666 3247 4331 
Q 3641 3997 3641 3322 
Q 3641 2881 3436 2590 
Q 3231 2300 2841 2188 
z
M 1259 4147 
L 1259 2491 
L 2053 2491 
Q 2509 2491 2742 2702 
Q 2975 2913 2975 3322 
Q 2975 3731 2742 3939 
Q 2509 4147 2053 4147 
L 1259 4147 
z
" transform="scale(0.015625)"/>
                        </defs>
                        <use xlink:href="#DejaVuSans-46"/>
                        <use xlink:href="#DejaVuSans-61" x="48.394531"/>
                        <use xlink:href="#DejaVuSans-6c" x="109.673828"/>
                        <use xlink:href="#DejaVuSans-73" x="137.457031"/>
                        <use xlink:href="#DejaVuSans-65" x="189.556641"/>
                        <use xlink:href="#DejaVuSans-20" x="251.080078"/>
                        <use xlink:href="#DejaVuSans-50" x="282.867188"/>
                        <use xlink:href="#DejaVuSans-6f" x="339.544922"/>
                        <use xlink:href="#DejaVuSans-73" x="400.726562"/>
                        <use xlink:href="#DejaVuSans-69" x="452.826172"/>
                        <use xlink:href="#DejaVuSans-74" x="480.609375"/>
                        <use xlink:href="#DejaVuSans-69" x="519.818359"/>
                        <use xlink:href="#DejaVuSans-76" x="547.601562"/>
                        <use xlink:href="#DejaVuSans-65" x="606.78125"/>
                        <use xlink:href="#DejaVuSans-20" x="668.304688"/>
                        <use xlink:href="#DejaVuSans-52" x="700.091797"/>
                        <use xlink:href="#DejaVuSans-61" x="767.324219"/>
                        <use xlink:href="#DejaVuSans-74" x="828.603516"/>
                        <use xlink:href="#DejaVuSans-65" x="867.8125"/>
                    </g>
                </g>
            </g>
            <g id="matplotlib.axis_2">
                <g id="ytick_1">
                    <g id="line2d_7">
                        <defs>
                            <path id="mf7220919a8" d="M 0 0
L -3.5 0 
" style="stroke: #000000; stroke-width: 0.8"/>
                        </defs>
                        <g>
                            <use xlink:href="#mf7220919a8" x="57.6" y="295.488"
                                 style="stroke: #000000; stroke-width: 0.8"/>
                        </g>
                    </g>
                    <g id="text_8">
                        <!-- 0.0 -->
                        <g transform="translate(34.696875 299.287219) scale(0.1 -0.1)">
                            <use xlink:href="#DejaVuSans-30"/>
                            <use xlink:href="#DejaVuSans-2e" x="63.623047"/>
                            <use xlink:href="#DejaVuSans-30" x="95.410156"/>
                        </g>
                    </g>
                </g>
                <g id="ytick_2">
                    <g id="line2d_8">
                        <g>
                            <use xlink:href="#mf7220919a8" x="57.6" y="247.104"
                                 style="stroke: #000000; stroke-width: 0.8"/>
                        </g>
                    </g>
                    <g id="text_9">
                        <!-- 0.2 -->
                        <g transform="translate(34.696875 250.903219) scale(0.1 -0.1)">
                            <use xlink:href="#DejaVuSans-30"/>
                            <use xlink:href="#DejaVuSans-2e" x="63.623047"/>
                            <use xlink:href="#DejaVuSans-32" x="95.410156"/>
                        </g>
                    </g>
                </g>
                <g id="ytick_3">
                    <g id="line2d_9">
                        <g>
                            <use xlink:href="#mf7220919a8" x="57.6" y="198.72"
                                 style="stroke: #000000; stroke-width: 0.8"/>
                        </g>
                    </g>
                    <g id="text_10">
                        <!-- 0.4 -->
                        <g transform="translate(34.696875 202.519219) scale(0.1 -0.1)">
                            <use xlink:href="#DejaVuSans-30"/>
                            <use xlink:href="#DejaVuSans-2e" x="63.623047"/>
                            <use xlink:href="#DejaVuSans-34" x="95.410156"/>
                        </g>
                    </g>
                </g>
                <g id="ytick_4">
                    <g id="line2d_10">
                        <g>
                            <use xlink:href="#mf7220919a8" x="57.6" y="150.336"
                                 style="stroke: #000000; stroke-width: 0.8"/>
                        </g>
                    </g>
                    <g id="text_11">
                        <!-- 0.6 -->
                        <g transform="translate(34.696875 154.135219) scale(0.1 -0.1)">
                            <use xlink:href="#DejaVuSans-30"/>
                            <use xlink:href="#DejaVuSans-2e" x="63.623047"/>
                            <use xlink:href="#DejaVuSans-36" x="95.410156"/>
                        </g>
                    </g>
                </g>
                <g id="ytick_5">
                    <g id="line2d_11">
                        <g>
                            <use xlink:href="#mf7220919a8" x="57.6" y="101.952"
                                 style="stroke: #000000; stroke-width: 0.8"/>
                        </g>
                    </g>
                    <g id="text_12">
                        <!-- 0.8 -->
                        <g transform="translate(34.696875 105.751219) scale(0.1 -0.1)">
                            <use xlink:href="#DejaVuSans-30"/>
                            <use xlink:href="#DejaVuSans-2e" x="63.623047"/>
                            <use xlink:href="#DejaVuSans-38" x="95.410156"/>
                        </g>
                    </g>
                </g>
                <g id="ytick_6">
                    <g id="line2d_12">
                        <g>
                            <use xlink:href="#mf7220919a8" x="57.6" y="53.568"
                                 style="stroke: #000000; stroke-width: 0.8"/>
                        </g>
                    </g>
                    <g id="text_13">
                        <!-- 1.0 -->
                        <g transform="translate(34.696875 57.367219) scale(0.1 -0.1)">
                            <use xlink:href="#DejaVuSans-31"/>
                            <use xlink:href="#DejaVuSans-2e" x="63.623047"/>
                            <use xlink:href="#DejaVuSans-30" x="95.410156"/>
                        </g>
                    </g>
                </g>
                <g id="text_14">
                    <!-- True Positive Rate -->
                    <g transform="translate(28.617187 219.057687) rotate(-90) scale(0.1 -0.1)">
                        <defs>
                            <path id="DejaVuSans-54" d="M -19 4666
L 3928 4666 
L 3928 4134 
L 2272 4134 
L 2272 0 
L 1638 0 
L 1638 4134 
L -19 4134 
L -19 4666 
z
" transform="scale(0.015625)"/>
                            <path id="DejaVuSans-72" d="M 2631 2963
Q 2534 3019 2420 3045 
Q 2306 3072 2169 3072 
Q 1681 3072 1420 2755 
Q 1159 2438 1159 1844 
L 1159 0 
L 581 0 
L 581 3500 
L 1159 3500 
L 1159 2956 
Q 1341 3275 1631 3429 
Q 1922 3584 2338 3584 
Q 2397 3584 2469 3576 
Q 2541 3569 2628 3553 
L 2631 2963 
z
" transform="scale(0.015625)"/>
                            <path id="DejaVuSans-75" d="M 544 1381
L 544 3500 
L 1119 3500 
L 1119 1403 
Q 1119 906 1312 657 
Q 1506 409 1894 409 
Q 2359 409 2629 706 
Q 2900 1003 2900 1516 
L 2900 3500 
L 3475 3500 
L 3475 0 
L 2900 0 
L 2900 538 
Q 2691 219 2414 64 
Q 2138 -91 1772 -91 
Q 1169 -91 856 284 
Q 544 659 544 1381 
z
M 1991 3584 
L 1991 3584 
z
" transform="scale(0.015625)"/>
                        </defs>
                        <use xlink:href="#DejaVuSans-54"/>
                        <use xlink:href="#DejaVuSans-72" x="46.333984"/>
                        <use xlink:href="#DejaVuSans-75" x="87.447266"/>
                        <use xlink:href="#DejaVuSans-65" x="150.826172"/>
                        <use xlink:href="#DejaVuSans-20" x="212.349609"/>
                        <use xlink:href="#DejaVuSans-50" x="244.136719"/>
                        <use xlink:href="#DejaVuSans-6f" x="300.814453"/>
                        <use xlink:href="#DejaVuSans-73" x="361.996094"/>
                        <use xlink:href="#DejaVuSans-69" x="414.095703"/>
                        <use xlink:href="#DejaVuSans-74" x="441.878906"/>
                        <use xlink:href="#DejaVuSans-69" x="481.087891"/>
                        <use xlink:href="#DejaVuSans-76" x="508.871094"/>
                        <use xlink:href="#DejaVuSans-65" x="568.050781"/>
                        <use xlink:href="#DejaVuSans-20" x="629.574219"/>
                        <use xlink:href="#DejaVuSans-52" x="661.361328"/>
                        <use xlink:href="#DejaVuSans-61" x="728.59375"/>
                        <use xlink:href="#DejaVuSans-74" x="789.873047"/>
                        <use xlink:href="#DejaVuSans-65" x="829.082031"/>
                    </g>
                </g>
            </g>
            <g id="line2d_13">
                <path d="M 73.832727 295.488
L 73.905749 293.275482 
L 73.978771 293.275482 
L 73.978771 292.789807 
L 74.270858 292.735843 
L 74.343879 291.548638 
L 74.416901 291.548638 
L 74.489923 289.821794 
L 74.562944 289.821794 
L 74.635966 288.094951 
L 74.708988 288.094951 
L 74.708988 287.987023 
L 74.78201 285.234866 
L 74.855031 285.234866 
L 74.855031 285.126938 
L 74.928053 281.457395 
L 75.001075 281.457395 
L 75.074096 279.622624 
L 75.147118 279.622624 
L 75.147118 279.56866 
L 75.22014 276.546684 
L 75.293162 276.546684 
L 75.293162 276.49272 
L 75.366183 273.41678 
L 75.439205 273.41678 
L 75.439205 273.362816 
L 75.512227 272.391466 
L 75.585248 271.635972 
L 75.877335 270.017056 
L 76.023379 269.909129 
L 76.0964 266.887152 
L 76.169422 264.728598 
L 76.242444 262.138332 
L 76.607552 257.389512 
L 76.680574 257.389512 
L 76.680574 257.281585 
L 76.753596 249.348897 
L 77.191726 242.063775 
L 77.264748 242.063775 
L 77.264748 242.009811 
L 77.33777 239.041799 
L 77.702878 233.429557 
L 77.994965 226.360291 
L 78.067987 224.093809 
L 78.433095 221.773362 
L 78.506117 217.780037 
L 78.944247 215.405627 
L 79.090291 213.301036 
L 79.309356 211.358337 
L 79.382378 209.199782 
L 79.747486 207.472939 
L 80.623747 203.58754 
L 80.696768 203.58754 
L 80.696768 203.533577 
L 81.134899 198.029263 
L 81.280942 198.029263 
L 81.280942 197.705479 
L 81.500007 196.194491 
L 81.646051 196.194491 
L 81.646051 195.870708 
L 82.157203 194.467648 
L 82.303246 192.902696 
L 82.376268 192.902696 
L 82.44929 192.68684 
L 82.814398 190.852069 
L 83.033463 188.90937 
L 83.252529 188.045948 
L 83.398572 186.642887 
L 83.398572 185.293791 
L 83.471594 185.293791 
L 83.763681 183.89073 
L 84.493898 180.383079 
L 84.932028 179.357766 
L 84.932028 178.926055 
L 85.078071 176.929392 
L 85.151093 175.526331 
L 85.88131 173.043994 
L 86.100375 172.99003 
L 86.100375 172.936066 
L 86.173397 171.263186 
L 86.538506 170.237873 
L 86.757571 168.672921 
L 87.122679 167.917427 
L 87.341745 166.946077 
L 88.43707 164.787523 
L 88.43707 164.679595 
L 88.656135 163.600318 
L 89.824483 161.873474 
L 89.897505 161.873474 
L 90.11657 161.11798 
L 90.262613 161.11798 
L 90.262613 161.064016 
L 90.408657 159.768883 
L 90.773765 158.473751 
L 91.430961 157.502401 
L 91.503982 157.232582 
L 91.869091 156.153304 
L 92.015134 155.127991 
L 92.161178 155.127991 
L 92.67233 154.048714 
L 92.818373 153.239256 
L 93.256503 151.458448 
L 93.256503 151.188629 
L 93.694634 150.487099 
L 94.132764 149.893496 
L 94.351829 149.785569 
L 94.497873 149.084038 
L 94.936003 147.249267 
L 94.936003 146.979448 
L 95.447155 146.493773 
L 95.593198 145.738279 
L 95.739242 145.738279 
L 95.739242 145.684315 
L 96.10435 144.49711 
L 96.323416 143.471797 
L 96.396437 143.471797 
L 96.396437 142.176664 
L 96.469459 142.176664 
L 96.688524 141.15135 
L 96.907589 141.043423 
L 97.272698 140.072073 
L 97.34572 140.018109 
L 97.637806 139.586398 
L 97.637806 139.370543 
L 97.710828 139.370543 
L 97.856872 138.507121 
L 98.368024 137.697663 
L 98.514067 136.942169 
L 99.974501 133.974157 
L 100.047523 133.866229 
L 100.266588 133.32659 
L 100.266588 132.948843 
L 100.77774 132.409205 
L 101.288892 131.383891 
L 102.311196 130.412542 
L 102.749326 129.2793 
L 102.822348 129.2793 
L 102.822348 129.225337 
L 103.187457 128.57777 
L 103.479544 128.523806 
L 103.917674 128.200023 
L 104.136739 127.390565 
L 104.720913 125.555794 
L 104.793934 124.854264 
L 104.939978 124.854264 
L 105.086021 124.476517 
L 105.086021 124.152733 
L 106.473434 122.317962 
L 106.765521 121.72436 
L 106.911564 121.72436 
L 107.276673 121.022829 
L 107.787825 120.591118 
L 107.787825 120.321299 
L 108.518042 118.702383 
L 108.518042 118.486528 
L 108.591064 118.486528 
L 109.321281 117.137431 
L 109.686389 116.867612 
L 109.978476 116.867612 
L 110.56265 115.842298 
L 110.635672 115.626443 
L 110.708693 115.626443 
L 111.292867 115.086804 
L 111.365889 114.870949 
L 111.511932 114.870949 
L 112.023084 114.223383 
L 112.68028 113.737708 
L 112.826323 113.737708 
L 113.702584 112.820322 
L 113.921649 112.820322 
L 114.505823 112.280683 
L 114.724888 112.172756 
L 115.67417 111.363298 
L 115.747192 110.607804 
L 116.185322 109.798346 
L 116.988561 109.312671 
L 116.988561 109.150779 
L 117.426691 108.449249 
L 117.718778 108.341321 
L 117.718778 108.17943 
L 117.7918 108.17943 
L 118.22993 107.909611 
L 118.448995 106.992225 
L 118.741082 105.643128 
L 118.814104 105.643128 
L 119.179212 105.319345 
L 119.471299 105.319345 
L 119.471299 105.211417 
L 120.201516 104.563851 
L 120.201516 104.186104 
L 120.78569 103.646465 
L 120.78569 103.484574 
L 121.369864 102.675116 
L 121.807994 101.865658 
L 122.757276 101.595839 
L 122.757276 101.433947 
L 122.830298 101.433947 
L 123.487494 100.786381 
L 123.77958 100.08485 
L 123.925624 100.08485 
L 123.925624 99.976923 
L 124.874906 99.275392 
L 124.947928 98.573862 
L 125.605123 97.548549 
L 126.33534 96.954946 
L 126.33534 96.739091 
L 127.430666 95.713777 
L 127.430666 95.60585 
L 129.183187 95.012247 
L 130.278513 94.364681 
L 130.497578 93.717114 
L 131.811969 92.799729 
L 133.418447 91.990271 
L 133.418447 91.774415 
L 134.732838 91.180813 
L 134.732838 91.018921 
L 135.609098 90.479283 
L 135.974207 90.101536 
L 135.974207 89.939644 
L 136.412337 89.939644 
L 137.361619 89.669825 
L 139.041119 88.374692 
L 139.041119 88.266764 
L 139.260184 88.266764 
L 139.260184 88.104873 
L 139.917379 87.565234 
L 140.79364 87.349379 
L 140.939683 87.025595 
L 141.085727 87.025595 
L 141.085727 86.917668 
L 145.613073 84.543258 
L 145.978182 84.489294 
L 146.781421 83.841727 
L 147.146529 83.787764 
L 147.657681 83.302089 
L 147.730703 83.140197 
L 149.191137 82.492631 
L 149.410202 82.492631 
L 149.410202 82.438667 
L 150.359485 82.168848 
L 150.359485 82.006956 
L 150.870637 81.629209 
L 150.870637 81.467317 
L 150.943658 81.467317 
L 151.965962 81.143534 
L 152.842223 80.711823 
L 152.842223 80.603896 
L 153.645462 79.848402 
L 154.302657 79.362727 
L 154.521722 79.362727 
L 154.521722 79.200835 
L 155.544026 78.121558 
L 155.982157 78.121558 
L 156.785396 77.851739 
L 156.785396 77.689847 
L 157.880721 77.204172 
L 158.391873 76.556606 
L 158.537917 76.556606 
L 160.655547 75.63922 
L 161.385764 75.153545 
L 162.262024 74.93769 
L 162.335046 74.667871 
L 162.408068 74.667871 
L 163.284328 74.344087 
L 163.649437 74.290124 
L 163.649437 74.128232 
L 164.525697 73.696521 
L 164.817784 73.696521 
L 165.694045 73.318774 
L 166.278219 72.887063 
L 166.643327 72.887063 
L 167.957718 71.807786 
L 168.03074 71.807786 
L 168.03074 71.645894 
L 170.440456 70.944364 
L 171.02463 70.566617 
L 171.827869 70.242834 
L 172.192978 69.919051 
L 173.069238 69.595267 
L 173.14226 69.379412 
L 174.675716 68.947701 
L 174.821759 68.947701 
L 175.771042 68.623918 
L 177.012411 68.623918 
L 178.983997 68.300135 
L 180.225366 68.084279 
L 180.225366 67.976352 
L 183.146235 67.652568 
L 183.146235 67.598605 
L 183.730409 67.490677 
L 183.730409 67.436713 
L 183.80343 67.436713 
L 184.752713 67.220857 
L 185.628973 66.897074 
L 186.505234 66.84311 
L 186.578255 66.627255 
L 187.381494 66.519327 
L 187.381494 66.303472 
L 187.454516 66.303472 
L 188.987972 65.763833 
L 188.987972 65.655905 
L 190.010276 65.547978 
L 190.083298 65.386086 
L 190.959558 65.278158 
L 191.981862 64.846447 
L 193.661362 64.4687 
L 195.26784 64.306809 
L 195.340861 64.198881 
L 199.941229 63.281495 
L 202.423968 62.849785 
L 202.423968 62.795821 
L 204.030445 62.687893 
L 204.030445 62.633929 
L 204.103467 62.633929 
L 205.417858 62.526001 
L 205.417858 62.36411 
L 206.951314 62.256182 
L 206.951314 62.202218 
L 207.097357 62.202218 
L 210.821465 61.338796 
L 213.961399 61.230869 
L 214.03442 61.068977 
L 214.253485 61.068977 
L 214.253485 61.015013 
L 215.202768 60.853122 
L 215.640898 60.853122 
L 217.393419 60.529338 
L 218.415723 60.313483 
L 218.415723 60.205555 
L 218.488745 60.205555 
L 224.111417 59.827808 
L 224.184439 59.665917 
L 225.352786 59.557989 
L 227.543438 59.28817 
L 228.565742 59.126278 
L 228.565742 59.01835 
L 228.711785 59.01835 
L 228.711785 58.964386 
L 231.997762 58.478712 
L 231.997762 58.424748 
L 233.16611 58.370784 
L 233.16611 58.262856 
L 233.239131 58.262856 
L 234.480501 58.100965 
L 237.839499 57.831145 
L 247.332322 57.34547 
L 247.332322 57.237543 
L 247.405344 57.237543 
L 250.6183 57.129615 
L 252.808951 56.967723 
L 254.05032 56.859796 
L 255.72982 56.751868 
L 258.577667 56.697904 
L 262.447817 56.536012 
L 268.581642 56.428085 
L 268.581642 56.374121 
L 271.648554 56.212229 
L 275.080574 56.104302 
L 275.080574 56.050338 
L 276.906117 55.996374 
L 276.906117 55.888446 
L 279.973029 55.780518 
L 279.973029 55.672591 
L 286.252897 55.564663 
L 286.252897 55.510699 
L 288.443548 55.402771 
L 288.443548 55.348807 
L 304.946456 54.809169 
L 308.159411 54.701241 
L 308.232433 54.593313 
L 315.096474 54.485386 
L 315.096474 54.431422 
L 331.672403 54.323494 
L 331.672403 54.26953 
L 338.974575 54.161602 
L 338.974575 54.107639 
L 352.848701 53.999711 
L 352.994744 53.945747 
L 374.682194 53.837819 
L 374.682194 53.783855 
L 374.755215 53.783855 
L 388.264233 53.675928 
L 388.264233 53.621964 
L 398.487273 53.568 
L 398.487273 53.568 
" clip-path="url(#p3fd8712633)" style="fill: none; stroke: #1f77b4; stroke-width: 1.5; stroke-linecap: square"/>
            </g>
            <g id="patch_3">
                <path d="M 57.6 307.584
L 57.6 41.472 
" style="fill: none; stroke: #000000; stroke-width: 0.8; stroke-linejoin: miter; stroke-linecap: square"/>
            </g>
            <g id="patch_4">
                <path d="M 414.72 307.584
L 414.72 41.472 
" style="fill: none; stroke: #000000; stroke-width: 0.8; stroke-linejoin: miter; stroke-linecap: square"/>
            </g>
            <g id="patch_5">
                <path d="M 57.6 307.584
L 414.72 307.584 
" style="fill: none; stroke: #000000; stroke-width: 0.8; stroke-linejoin: miter; stroke-linecap: square"/>
            </g>
            <g id="patch_6">
                <path d="M 57.6 41.472
L 414.72 41.472 
" style="fill: none; stroke: #000000; stroke-width: 0.8; stroke-linejoin: miter; stroke-linecap: square"/>
            </g>
            <g id="legend_1">
                <g id="patch_7">
                    <path d="M 317.57625 302.584
L 407.72 302.584 
Q 409.72 302.584 409.72 300.584 
L 409.72 286.905875 
Q 409.72 284.905875 407.72 284.905875 
L 317.57625 284.905875 
Q 315.57625 284.905875 315.57625 286.905875 
L 315.57625 300.584 
Q 315.57625 302.584 317.57625 302.584 
z
" style="fill: #ffffff; opacity: 0.8; stroke: #cccccc; stroke-linejoin: miter"/>
                </g>
                <g id="line2d_14">
                    <path d="M 319.57625 293.004312
L 329.57625 293.004312 
L 339.57625 293.004312 
" style="fill: none; stroke: #1f77b4; stroke-width: 1.5; stroke-linecap: square"/>
                </g>
                <g id="text_15">
                    <!-- AUC = 0.91 -->
                    <g transform="translate(347.57625 296.504312) scale(0.1 -0.1)">
                        <defs>
                            <path id="DejaVuSans-41" d="M 2188 4044
L 1331 1722 
L 3047 1722 
L 2188 4044 
z
M 1831 4666 
L 2547 4666 
L 4325 0 
L 3669 0 
L 3244 1197 
L 1141 1197 
L 716 0 
L 50 0 
L 1831 4666 
z
" transform="scale(0.015625)"/>
                            <path id="DejaVuSans-55" d="M 556 4666
L 1191 4666 
L 1191 1831 
Q 1191 1081 1462 751 
Q 1734 422 2344 422 
Q 2950 422 3222 751 
Q 3494 1081 3494 1831 
L 3494 4666 
L 4128 4666 
L 4128 1753 
Q 4128 841 3676 375 
Q 3225 -91 2344 -91 
Q 1459 -91 1007 375 
Q 556 841 556 1753 
L 556 4666 
z
" transform="scale(0.015625)"/>
                            <path id="DejaVuSans-43" d="M 4122 4306
L 4122 3641 
Q 3803 3938 3442 4084 
Q 3081 4231 2675 4231 
Q 1875 4231 1450 3742 
Q 1025 3253 1025 2328 
Q 1025 1406 1450 917 
Q 1875 428 2675 428 
Q 3081 428 3442 575 
Q 3803 722 4122 1019 
L 4122 359 
Q 3791 134 3420 21 
Q 3050 -91 2638 -91 
Q 1578 -91 968 557 
Q 359 1206 359 2328 
Q 359 3453 968 4101 
Q 1578 4750 2638 4750 
Q 3056 4750 3426 4639 
Q 3797 4528 4122 4306 
z
" transform="scale(0.015625)"/>
                            <path id="DejaVuSans-3d" d="M 678 2906
L 4684 2906 
L 4684 2381 
L 678 2381 
L 678 2906 
z
M 678 1631 
L 4684 1631 
L 4684 1100 
L 678 1100 
L 678 1631 
z
" transform="scale(0.015625)"/>
                            <path id="DejaVuSans-39" d="M 703 97
L 703 672 
Q 941 559 1184 500 
Q 1428 441 1663 441 
Q 2288 441 2617 861 
Q 2947 1281 2994 2138 
Q 2813 1869 2534 1725 
Q 2256 1581 1919 1581 
Q 1219 1581 811 2004 
Q 403 2428 403 3163 
Q 403 3881 828 4315 
Q 1253 4750 1959 4750 
Q 2769 4750 3195 4129 
Q 3622 3509 3622 2328 
Q 3622 1225 3098 567 
Q 2575 -91 1691 -91 
Q 1453 -91 1209 -44 
Q 966 3 703 97 
z
M 1959 2075 
Q 2384 2075 2632 2365 
Q 2881 2656 2881 3163 
Q 2881 3666 2632 3958 
Q 2384 4250 1959 4250 
Q 1534 4250 1286 3958 
Q 1038 3666 1038 3163 
Q 1038 2656 1286 2365 
Q 1534 2075 1959 2075 
z
" transform="scale(0.015625)"/>
                        </defs>
                        <use xlink:href="#DejaVuSans-41"/>
                        <use xlink:href="#DejaVuSans-55" x="68.408203"/>
                        <use xlink:href="#DejaVuSans-43" x="141.601562"/>
                        <use xlink:href="#DejaVuSans-20" x="211.425781"/>
                        <use xlink:href="#DejaVuSans-3d" x="243.212891"/>
                        <use xlink:href="#DejaVuSans-20" x="327.001953"/>
                        <use xlink:href="#DejaVuSans-30" x="358.789062"/>
                        <use xlink:href="#DejaVuSans-2e" x="422.412109"/>
                        <use xlink:href="#DejaVuSans-39" x="454.199219"/>
                        <use xlink:href="#DejaVuSans-31" x="517.822266"/>
                    </g>
                </g>
            </g>
        </g>
    </g>
    <defs>
        <clipPath id="p3fd8712633">
            <rect x="57.6" y="41.472" width="357.12" height="266.112"/>
        </clipPath>
    </defs>
</svg>
