<?xml version="1.0" encoding="utf-8" standalone="no"?>
<!DOCTYPE svg PUBLIC "-//W3C//DTD SVG 1.1//EN"
  "http://www.w3.org/Graphics/SVG/1.1/DTD/svg11.dtd">
<svg xmlns:xlink="http://www.w3.org/1999/xlink" width="460.8pt" height="345.6pt" viewBox="0 0 460.8 345.6" xmlns="http://www.w3.org/2000/svg" version="1.1">
 <metadata>
  <rdf:RDF xmlns:dc="http://purl.org/dc/elements/1.1/" xmlns:cc="http://creativecommons.org/ns#" xmlns:rdf="http://www.w3.org/1999/02/22-rdf-syntax-ns#">
   <cc:Work>
    <dc:type rdf:resource="http://purl.org/dc/dcmitype/StillImage"/>
    <dc:date>2022-11-13T02:23:52.123783</dc:date>
    <dc:format>image/svg+xml</dc:format>
    <dc:creator>
     <cc:Agent>
      <dc:title>Matplotlib v3.6.2, https://matplotlib.org/</dc:title>
     </cc:Agent>
    </dc:creator>
   </cc:Work>
  </rdf:RDF>
 </metadata>
 <defs>
  <style type="text/css">*{stroke-linejoin: round; stroke-linecap: butt}</style>
 </defs>
 <g id="figure_1">
  <g id="patch_1">
   <path d="M 0 345.6 
L 460.8 345.6 
L 460.8 0 
L 0 0 
z
" style="fill: #ffffff"/>
  </g>
  <g id="axes_1">
   <g id="patch_2">
    <path d="M 57.6 307.584 
L 414.72 307.584 
L 414.72 41.472 
L 57.6 41.472 
z
" style="fill: #ffffff"/>
   </g>
   <g id="matplotlib.axis_1">
    <g id="xtick_1">
     <g id="line2d_1">
      <defs>
       <path id="md22b3e03d1" d="M 0 0 
L 0 3.5 
" style="stroke: #000000; stroke-width: 0.8"/>
      </defs>
      <g>
       <use xlink:href="#md22b3e03d1" x="73.832727" y="307.584" style="stroke: #000000; stroke-width: 0.8"/>
      </g>
     </g>
     <g id="text_1">
      <!-- 0.0 -->
      <g transform="translate(65.881165 322.182437) scale(0.1 -0.1)">
       <defs>
        <path id="DejaVuSans-30" d="M 2034 4250 
Q 1547 4250 1301 3770 
Q 1056 3291 1056 2328 
Q 1056 1369 1301 889 
Q 1547 409 2034 409 
Q 2525 409 2770 889 
Q 3016 1369 3016 2328 
Q 3016 3291 2770 3770 
Q 2525 4250 2034 4250 
z
M 2034 4750 
Q 2819 4750 3233 4129 
Q 3647 3509 3647 2328 
Q 3647 1150 3233 529 
Q 2819 -91 2034 -91 
Q 1250 -91 836 529 
Q 422 1150 422 2328 
Q 422 3509 836 4129 
Q 1250 4750 2034 4750 
z
" transform="scale(0.015625)"/>
        <path id="DejaVuSans-2e" d="M 684 794 
L 1344 794 
L 1344 0 
L 684 0 
L 684 794 
z
" transform="scale(0.015625)"/>
       </defs>
       <use xlink:href="#DejaVuSans-30"/>
       <use xlink:href="#DejaVuSans-2e" x="63.623047"/>
       <use xlink:href="#DejaVuSans-30" x="95.410156"/>
      </g>
     </g>
    </g>
    <g id="xtick_2">
     <g id="line2d_2">
      <g>
       <use xlink:href="#md22b3e03d1" x="138.763636" y="307.584" style="stroke: #000000; stroke-width: 0.8"/>
      </g>
     </g>
     <g id="text_2">
      <!-- 0.2 -->
      <g transform="translate(130.812074 322.182437) scale(0.1 -0.1)">
       <defs>
        <path id="DejaVuSans-32" d="M 1228 531 
L 3431 531 
L 3431 0 
L 469 0 
L 469 531 
Q 828 903 1448 1529 
Q 2069 2156 2228 2338 
Q 2531 2678 2651 2914 
Q 2772 3150 2772 3378 
Q 2772 3750 2511 3984 
Q 2250 4219 1831 4219 
Q 1534 4219 1204 4116 
Q 875 4013 500 3803 
L 500 4441 
Q 881 4594 1212 4672 
Q 1544 4750 1819 4750 
Q 2544 4750 2975 4387 
Q 3406 4025 3406 3419 
Q 3406 3131 3298 2873 
Q 3191 2616 2906 2266 
Q 2828 2175 2409 1742 
Q 1991 1309 1228 531 
z
" transform="scale(0.015625)"/>
       </defs>
       <use xlink:href="#DejaVuSans-30"/>
       <use xlink:href="#DejaVuSans-2e" x="63.623047"/>
       <use xlink:href="#DejaVuSans-32" x="95.410156"/>
      </g>
     </g>
    </g>
    <g id="xtick_3">
     <g id="line2d_3">
      <g>
       <use xlink:href="#md22b3e03d1" x="203.694545" y="307.584" style="stroke: #000000; stroke-width: 0.8"/>
      </g>
     </g>
     <g id="text_3">
      <!-- 0.4 -->
      <g transform="translate(195.742983 322.182437) scale(0.1 -0.1)">
       <defs>
        <path id="DejaVuSans-34" d="M 2419 4116 
L 825 1625 
L 2419 1625 
L 2419 4116 
z
M 2253 4666 
L 3047 4666 
L 3047 1625 
L 3713 1625 
L 3713 1100 
L 3047 1100 
L 3047 0 
L 2419 0 
L 2419 1100 
L 313 1100 
L 313 1709 
L 2253 4666 
z
" transform="scale(0.015625)"/>
       </defs>
       <use xlink:href="#DejaVuSans-30"/>
       <use xlink:href="#DejaVuSans-2e" x="63.623047"/>
       <use xlink:href="#DejaVuSans-34" x="95.410156"/>
      </g>
     </g>
    </g>
    <g id="xtick_4">
     <g id="line2d_4">
      <g>
       <use xlink:href="#md22b3e03d1" x="268.625455" y="307.584" style="stroke: #000000; stroke-width: 0.8"/>
      </g>
     </g>
     <g id="text_4">
      <!-- 0.6 -->
      <g transform="translate(260.673892 322.182437) scale(0.1 -0.1)">
       <defs>
        <path id="DejaVuSans-36" d="M 2113 2584 
Q 1688 2584 1439 2293 
Q 1191 2003 1191 1497 
Q 1191 994 1439 701 
Q 1688 409 2113 409 
Q 2538 409 2786 701 
Q 3034 994 3034 1497 
Q 3034 2003 2786 2293 
Q 2538 2584 2113 2584 
z
M 3366 4563 
L 3366 3988 
Q 3128 4100 2886 4159 
Q 2644 4219 2406 4219 
Q 1781 4219 1451 3797 
Q 1122 3375 1075 2522 
Q 1259 2794 1537 2939 
Q 1816 3084 2150 3084 
Q 2853 3084 3261 2657 
Q 3669 2231 3669 1497 
Q 3669 778 3244 343 
Q 2819 -91 2113 -91 
Q 1303 -91 875 529 
Q 447 1150 447 2328 
Q 447 3434 972 4092 
Q 1497 4750 2381 4750 
Q 2619 4750 2861 4703 
Q 3103 4656 3366 4563 
z
" transform="scale(0.015625)"/>
       </defs>
       <use xlink:href="#DejaVuSans-30"/>
       <use xlink:href="#DejaVuSans-2e" x="63.623047"/>
       <use xlink:href="#DejaVuSans-36" x="95.410156"/>
      </g>
     </g>
    </g>
    <g id="xtick_5">
     <g id="line2d_5">
      <g>
       <use xlink:href="#md22b3e03d1" x="333.556364" y="307.584" style="stroke: #000000; stroke-width: 0.8"/>
      </g>
     </g>
     <g id="text_5">
      <!-- 0.8 -->
      <g transform="translate(325.604801 322.182437) scale(0.1 -0.1)">
       <defs>
        <path id="DejaVuSans-38" d="M 2034 2216 
Q 1584 2216 1326 1975 
Q 1069 1734 1069 1313 
Q 1069 891 1326 650 
Q 1584 409 2034 409 
Q 2484 409 2743 651 
Q 3003 894 3003 1313 
Q 3003 1734 2745 1975 
Q 2488 2216 2034 2216 
z
M 1403 2484 
Q 997 2584 770 2862 
Q 544 3141 544 3541 
Q 544 4100 942 4425 
Q 1341 4750 2034 4750 
Q 2731 4750 3128 4425 
Q 3525 4100 3525 3541 
Q 3525 3141 3298 2862 
Q 3072 2584 2669 2484 
Q 3125 2378 3379 2068 
Q 3634 1759 3634 1313 
Q 3634 634 3220 271 
Q 2806 -91 2034 -91 
Q 1263 -91 848 271 
Q 434 634 434 1313 
Q 434 1759 690 2068 
Q 947 2378 1403 2484 
z
M 1172 3481 
Q 1172 3119 1398 2916 
Q 1625 2713 2034 2713 
Q 2441 2713 2670 2916 
Q 2900 3119 2900 3481 
Q 2900 3844 2670 4047 
Q 2441 4250 2034 4250 
Q 1625 4250 1398 4047 
Q 1172 3844 1172 3481 
z
" transform="scale(0.015625)"/>
       </defs>
       <use xlink:href="#DejaVuSans-30"/>
       <use xlink:href="#DejaVuSans-2e" x="63.623047"/>
       <use xlink:href="#DejaVuSans-38" x="95.410156"/>
      </g>
     </g>
    </g>
    <g id="xtick_6">
     <g id="line2d_6">
      <g>
       <use xlink:href="#md22b3e03d1" x="398.487273" y="307.584" style="stroke: #000000; stroke-width: 0.8"/>
      </g>
     </g>
     <g id="text_6">
      <!-- 1.0 -->
      <g transform="translate(390.53571 322.182437) scale(0.1 -0.1)">
       <defs>
        <path id="DejaVuSans-31" d="M 794 531 
L 1825 531 
L 1825 4091 
L 703 3866 
L 703 4441 
L 1819 4666 
L 2450 4666 
L 2450 531 
L 3481 531 
L 3481 0 
L 794 0 
L 794 531 
z
" transform="scale(0.015625)"/>
       </defs>
       <use xlink:href="#DejaVuSans-31"/>
       <use xlink:href="#DejaVuSans-2e" x="63.623047"/>
       <use xlink:href="#DejaVuSans-30" x="95.410156"/>
      </g>
     </g>
    </g>
    <g id="text_7">
     <!-- Recall (Positive label: 1) -->
     <g transform="translate(176.343594 335.860562) scale(0.1 -0.1)">
      <defs>
       <path id="DejaVuSans-52" d="M 2841 2188 
Q 3044 2119 3236 1894 
Q 3428 1669 3622 1275 
L 4263 0 
L 3584 0 
L 2988 1197 
Q 2756 1666 2539 1819 
Q 2322 1972 1947 1972 
L 1259 1972 
L 1259 0 
L 628 0 
L 628 4666 
L 2053 4666 
Q 2853 4666 3247 4331 
Q 3641 3997 3641 3322 
Q 3641 2881 3436 2590 
Q 3231 2300 2841 2188 
z
M 1259 4147 
L 1259 2491 
L 2053 2491 
Q 2509 2491 2742 2702 
Q 2975 2913 2975 3322 
Q 2975 3731 2742 3939 
Q 2509 4147 2053 4147 
L 1259 4147 
z
" transform="scale(0.015625)"/>
       <path id="DejaVuSans-65" d="M 3597 1894 
L 3597 1613 
L 953 1613 
Q 991 1019 1311 708 
Q 1631 397 2203 397 
Q 2534 397 2845 478 
Q 3156 559 3463 722 
L 3463 178 
Q 3153 47 2828 -22 
Q 2503 -91 2169 -91 
Q 1331 -91 842 396 
Q 353 884 353 1716 
Q 353 2575 817 3079 
Q 1281 3584 2069 3584 
Q 2775 3584 3186 3129 
Q 3597 2675 3597 1894 
z
M 3022 2063 
Q 3016 2534 2758 2815 
Q 2500 3097 2075 3097 
Q 1594 3097 1305 2825 
Q 1016 2553 972 2059 
L 3022 2063 
z
" transform="scale(0.015625)"/>
       <path id="DejaVuSans-63" d="M 3122 3366 
L 3122 2828 
Q 2878 2963 2633 3030 
Q 2388 3097 2138 3097 
Q 1578 3097 1268 2742 
Q 959 2388 959 1747 
Q 959 1106 1268 751 
Q 1578 397 2138 397 
Q 2388 397 2633 464 
Q 2878 531 3122 666 
L 3122 134 
Q 2881 22 2623 -34 
Q 2366 -91 2075 -91 
Q 1284 -91 818 406 
Q 353 903 353 1747 
Q 353 2603 823 3093 
Q 1294 3584 2113 3584 
Q 2378 3584 2631 3529 
Q 2884 3475 3122 3366 
z
" transform="scale(0.015625)"/>
       <path id="DejaVuSans-61" d="M 2194 1759 
Q 1497 1759 1228 1600 
Q 959 1441 959 1056 
Q 959 750 1161 570 
Q 1363 391 1709 391 
Q 2188 391 2477 730 
Q 2766 1069 2766 1631 
L 2766 1759 
L 2194 1759 
z
M 3341 1997 
L 3341 0 
L 2766 0 
L 2766 531 
Q 2569 213 2275 61 
Q 1981 -91 1556 -91 
Q 1019 -91 701 211 
Q 384 513 384 1019 
Q 384 1609 779 1909 
Q 1175 2209 1959 2209 
L 2766 2209 
L 2766 2266 
Q 2766 2663 2505 2880 
Q 2244 3097 1772 3097 
Q 1472 3097 1187 3025 
Q 903 2953 641 2809 
L 641 3341 
Q 956 3463 1253 3523 
Q 1550 3584 1831 3584 
Q 2591 3584 2966 3190 
Q 3341 2797 3341 1997 
z
" transform="scale(0.015625)"/>
       <path id="DejaVuSans-6c" d="M 603 4863 
L 1178 4863 
L 1178 0 
L 603 0 
L 603 4863 
z
" transform="scale(0.015625)"/>
       <path id="DejaVuSans-20" transform="scale(0.015625)"/>
       <path id="DejaVuSans-28" d="M 1984 4856 
Q 1566 4138 1362 3434 
Q 1159 2731 1159 2009 
Q 1159 1288 1364 580 
Q 1569 -128 1984 -844 
L 1484 -844 
Q 1016 -109 783 600 
Q 550 1309 550 2009 
Q 550 2706 781 3412 
Q 1013 4119 1484 4856 
L 1984 4856 
z
" transform="scale(0.015625)"/>
       <path id="DejaVuSans-50" d="M 1259 4147 
L 1259 2394 
L 2053 2394 
Q 2494 2394 2734 2622 
Q 2975 2850 2975 3272 
Q 2975 3691 2734 3919 
Q 2494 4147 2053 4147 
L 1259 4147 
z
M 628 4666 
L 2053 4666 
Q 2838 4666 3239 4311 
Q 3641 3956 3641 3272 
Q 3641 2581 3239 2228 
Q 2838 1875 2053 1875 
L 1259 1875 
L 1259 0 
L 628 0 
L 628 4666 
z
" transform="scale(0.015625)"/>
       <path id="DejaVuSans-6f" d="M 1959 3097 
Q 1497 3097 1228 2736 
Q 959 2375 959 1747 
Q 959 1119 1226 758 
Q 1494 397 1959 397 
Q 2419 397 2687 759 
Q 2956 1122 2956 1747 
Q 2956 2369 2687 2733 
Q 2419 3097 1959 3097 
z
M 1959 3584 
Q 2709 3584 3137 3096 
Q 3566 2609 3566 1747 
Q 3566 888 3137 398 
Q 2709 -91 1959 -91 
Q 1206 -91 779 398 
Q 353 888 353 1747 
Q 353 2609 779 3096 
Q 1206 3584 1959 3584 
z
" transform="scale(0.015625)"/>
       <path id="DejaVuSans-73" d="M 2834 3397 
L 2834 2853 
Q 2591 2978 2328 3040 
Q 2066 3103 1784 3103 
Q 1356 3103 1142 2972 
Q 928 2841 928 2578 
Q 928 2378 1081 2264 
Q 1234 2150 1697 2047 
L 1894 2003 
Q 2506 1872 2764 1633 
Q 3022 1394 3022 966 
Q 3022 478 2636 193 
Q 2250 -91 1575 -91 
Q 1294 -91 989 -36 
Q 684 19 347 128 
L 347 722 
Q 666 556 975 473 
Q 1284 391 1588 391 
Q 1994 391 2212 530 
Q 2431 669 2431 922 
Q 2431 1156 2273 1281 
Q 2116 1406 1581 1522 
L 1381 1569 
Q 847 1681 609 1914 
Q 372 2147 372 2553 
Q 372 3047 722 3315 
Q 1072 3584 1716 3584 
Q 2034 3584 2315 3537 
Q 2597 3491 2834 3397 
z
" transform="scale(0.015625)"/>
       <path id="DejaVuSans-69" d="M 603 3500 
L 1178 3500 
L 1178 0 
L 603 0 
L 603 3500 
z
M 603 4863 
L 1178 4863 
L 1178 4134 
L 603 4134 
L 603 4863 
z
" transform="scale(0.015625)"/>
       <path id="DejaVuSans-74" d="M 1172 4494 
L 1172 3500 
L 2356 3500 
L 2356 3053 
L 1172 3053 
L 1172 1153 
Q 1172 725 1289 603 
Q 1406 481 1766 481 
L 2356 481 
L 2356 0 
L 1766 0 
Q 1100 0 847 248 
Q 594 497 594 1153 
L 594 3053 
L 172 3053 
L 172 3500 
L 594 3500 
L 594 4494 
L 1172 4494 
z
" transform="scale(0.015625)"/>
       <path id="DejaVuSans-76" d="M 191 3500 
L 800 3500 
L 1894 563 
L 2988 3500 
L 3597 3500 
L 2284 0 
L 1503 0 
L 191 3500 
z
" transform="scale(0.015625)"/>
       <path id="DejaVuSans-62" d="M 3116 1747 
Q 3116 2381 2855 2742 
Q 2594 3103 2138 3103 
Q 1681 3103 1420 2742 
Q 1159 2381 1159 1747 
Q 1159 1113 1420 752 
Q 1681 391 2138 391 
Q 2594 391 2855 752 
Q 3116 1113 3116 1747 
z
M 1159 2969 
Q 1341 3281 1617 3432 
Q 1894 3584 2278 3584 
Q 2916 3584 3314 3078 
Q 3713 2572 3713 1747 
Q 3713 922 3314 415 
Q 2916 -91 2278 -91 
Q 1894 -91 1617 61 
Q 1341 213 1159 525 
L 1159 0 
L 581 0 
L 581 4863 
L 1159 4863 
L 1159 2969 
z
" transform="scale(0.015625)"/>
       <path id="DejaVuSans-3a" d="M 750 794 
L 1409 794 
L 1409 0 
L 750 0 
L 750 794 
z
M 750 3309 
L 1409 3309 
L 1409 2516 
L 750 2516 
L 750 3309 
z
" transform="scale(0.015625)"/>
       <path id="DejaVuSans-29" d="M 513 4856 
L 1013 4856 
Q 1481 4119 1714 3412 
Q 1947 2706 1947 2009 
Q 1947 1309 1714 600 
Q 1481 -109 1013 -844 
L 513 -844 
Q 928 -128 1133 580 
Q 1338 1288 1338 2009 
Q 1338 2731 1133 3434 
Q 928 4138 513 4856 
z
" transform="scale(0.015625)"/>
      </defs>
      <use xlink:href="#DejaVuSans-52"/>
      <use xlink:href="#DejaVuSans-65" x="64.982422"/>
      <use xlink:href="#DejaVuSans-63" x="126.505859"/>
      <use xlink:href="#DejaVuSans-61" x="181.486328"/>
      <use xlink:href="#DejaVuSans-6c" x="242.765625"/>
      <use xlink:href="#DejaVuSans-6c" x="270.548828"/>
      <use xlink:href="#DejaVuSans-20" x="298.332031"/>
      <use xlink:href="#DejaVuSans-28" x="330.119141"/>
      <use xlink:href="#DejaVuSans-50" x="369.132812"/>
      <use xlink:href="#DejaVuSans-6f" x="425.810547"/>
      <use xlink:href="#DejaVuSans-73" x="486.992188"/>
      <use xlink:href="#DejaVuSans-69" x="539.091797"/>
      <use xlink:href="#DejaVuSans-74" x="566.875"/>
      <use xlink:href="#DejaVuSans-69" x="606.083984"/>
      <use xlink:href="#DejaVuSans-76" x="633.867188"/>
      <use xlink:href="#DejaVuSans-65" x="693.046875"/>
      <use xlink:href="#DejaVuSans-20" x="754.570312"/>
      <use xlink:href="#DejaVuSans-6c" x="786.357422"/>
      <use xlink:href="#DejaVuSans-61" x="814.140625"/>
      <use xlink:href="#DejaVuSans-62" x="875.419922"/>
      <use xlink:href="#DejaVuSans-65" x="938.896484"/>
      <use xlink:href="#DejaVuSans-6c" x="1000.419922"/>
      <use xlink:href="#DejaVuSans-3a" x="1028.203125"/>
      <use xlink:href="#DejaVuSans-20" x="1061.894531"/>
      <use xlink:href="#DejaVuSans-31" x="1093.681641"/>
      <use xlink:href="#DejaVuSans-29" x="1157.304688"/>
     </g>
    </g>
   </g>
   <g id="matplotlib.axis_2">
    <g id="ytick_1">
     <g id="line2d_7">
      <defs>
       <path id="mb51b03992a" d="M 0 0 
L -3.5 0 
" style="stroke: #000000; stroke-width: 0.8"/>
      </defs>
      <g>
       <use xlink:href="#mb51b03992a" x="57.6" y="295.136293" style="stroke: #000000; stroke-width: 0.8"/>
      </g>
     </g>
     <g id="text_8">
      <!-- 0.5 -->
      <g transform="translate(34.696875 298.935512) scale(0.1 -0.1)">
       <defs>
        <path id="DejaVuSans-35" d="M 691 4666 
L 3169 4666 
L 3169 4134 
L 1269 4134 
L 1269 2991 
Q 1406 3038 1543 3061 
Q 1681 3084 1819 3084 
Q 2600 3084 3056 2656 
Q 3513 2228 3513 1497 
Q 3513 744 3044 326 
Q 2575 -91 1722 -91 
Q 1428 -91 1123 -41 
Q 819 9 494 109 
L 494 744 
Q 775 591 1075 516 
Q 1375 441 1709 441 
Q 2250 441 2565 725 
Q 2881 1009 2881 1497 
Q 2881 1984 2565 2268 
Q 2250 2553 1709 2553 
Q 1456 2553 1204 2497 
Q 953 2441 691 2322 
L 691 4666 
z
" transform="scale(0.015625)"/>
       </defs>
       <use xlink:href="#DejaVuSans-30"/>
       <use xlink:href="#DejaVuSans-2e" x="63.623047"/>
       <use xlink:href="#DejaVuSans-35" x="95.410156"/>
      </g>
     </g>
    </g>
    <g id="ytick_2">
     <g id="line2d_8">
      <g>
       <use xlink:href="#mb51b03992a" x="57.6" y="246.822635" style="stroke: #000000; stroke-width: 0.8"/>
      </g>
     </g>
     <g id="text_9">
      <!-- 0.6 -->
      <g transform="translate(34.696875 250.621854) scale(0.1 -0.1)">
       <use xlink:href="#DejaVuSans-30"/>
       <use xlink:href="#DejaVuSans-2e" x="63.623047"/>
       <use xlink:href="#DejaVuSans-36" x="95.410156"/>
      </g>
     </g>
    </g>
    <g id="ytick_3">
     <g id="line2d_9">
      <g>
       <use xlink:href="#mb51b03992a" x="57.6" y="198.508976" style="stroke: #000000; stroke-width: 0.8"/>
      </g>
     </g>
     <g id="text_10">
      <!-- 0.7 -->
      <g transform="translate(34.696875 202.308195) scale(0.1 -0.1)">
       <defs>
        <path id="DejaVuSans-37" d="M 525 4666 
L 3525 4666 
L 3525 4397 
L 1831 0 
L 1172 0 
L 2766 4134 
L 525 4134 
L 525 4666 
z
" transform="scale(0.015625)"/>
       </defs>
       <use xlink:href="#DejaVuSans-30"/>
       <use xlink:href="#DejaVuSans-2e" x="63.623047"/>
       <use xlink:href="#DejaVuSans-37" x="95.410156"/>
      </g>
     </g>
    </g>
    <g id="ytick_4">
     <g id="line2d_10">
      <g>
       <use xlink:href="#mb51b03992a" x="57.6" y="150.195317" style="stroke: #000000; stroke-width: 0.8"/>
      </g>
     </g>
     <g id="text_11">
      <!-- 0.8 -->
      <g transform="translate(34.696875 153.994536) scale(0.1 -0.1)">
       <use xlink:href="#DejaVuSans-30"/>
       <use xlink:href="#DejaVuSans-2e" x="63.623047"/>
       <use xlink:href="#DejaVuSans-38" x="95.410156"/>
      </g>
     </g>
    </g>
    <g id="ytick_5">
     <g id="line2d_11">
      <g>
       <use xlink:href="#mb51b03992a" x="57.6" y="101.881659" style="stroke: #000000; stroke-width: 0.8"/>
      </g>
     </g>
     <g id="text_12">
      <!-- 0.9 -->
      <g transform="translate(34.696875 105.680877) scale(0.1 -0.1)">
       <defs>
        <path id="DejaVuSans-39" d="M 703 97 
L 703 672 
Q 941 559 1184 500 
Q 1428 441 1663 441 
Q 2288 441 2617 861 
Q 2947 1281 2994 2138 
Q 2813 1869 2534 1725 
Q 2256 1581 1919 1581 
Q 1219 1581 811 2004 
Q 403 2428 403 3163 
Q 403 3881 828 4315 
Q 1253 4750 1959 4750 
Q 2769 4750 3195 4129 
Q 3622 3509 3622 2328 
Q 3622 1225 3098 567 
Q 2575 -91 1691 -91 
Q 1453 -91 1209 -44 
Q 966 3 703 97 
z
M 1959 2075 
Q 2384 2075 2632 2365 
Q 2881 2656 2881 3163 
Q 2881 3666 2632 3958 
Q 2384 4250 1959 4250 
Q 1534 4250 1286 3958 
Q 1038 3666 1038 3163 
Q 1038 2656 1286 2365 
Q 1534 2075 1959 2075 
z
" transform="scale(0.015625)"/>
       </defs>
       <use xlink:href="#DejaVuSans-30"/>
       <use xlink:href="#DejaVuSans-2e" x="63.623047"/>
       <use xlink:href="#DejaVuSans-39" x="95.410156"/>
      </g>
     </g>
    </g>
    <g id="ytick_6">
     <g id="line2d_12">
      <g>
       <use xlink:href="#mb51b03992a" x="57.6" y="53.568" style="stroke: #000000; stroke-width: 0.8"/>
      </g>
     </g>
     <g id="text_13">
      <!-- 1.0 -->
      <g transform="translate(34.696875 57.367219) scale(0.1 -0.1)">
       <use xlink:href="#DejaVuSans-31"/>
       <use xlink:href="#DejaVuSans-2e" x="63.623047"/>
       <use xlink:href="#DejaVuSans-30" x="95.410156"/>
      </g>
     </g>
    </g>
    <g id="text_14">
     <!-- Precision (Positive label: 1) -->
     <g transform="translate(28.617187 241.73425) rotate(-90) scale(0.1 -0.1)">
      <defs>
       <path id="DejaVuSans-72" d="M 2631 2963 
Q 2534 3019 2420 3045 
Q 2306 3072 2169 3072 
Q 1681 3072 1420 2755 
Q 1159 2438 1159 1844 
L 1159 0 
L 581 0 
L 581 3500 
L 1159 3500 
L 1159 2956 
Q 1341 3275 1631 3429 
Q 1922 3584 2338 3584 
Q 2397 3584 2469 3576 
Q 2541 3569 2628 3553 
L 2631 2963 
z
" transform="scale(0.015625)"/>
       <path id="DejaVuSans-6e" d="M 3513 2113 
L 3513 0 
L 2938 0 
L 2938 2094 
Q 2938 2591 2744 2837 
Q 2550 3084 2163 3084 
Q 1697 3084 1428 2787 
Q 1159 2491 1159 1978 
L 1159 0 
L 581 0 
L 581 3500 
L 1159 3500 
L 1159 2956 
Q 1366 3272 1645 3428 
Q 1925 3584 2291 3584 
Q 2894 3584 3203 3211 
Q 3513 2838 3513 2113 
z
" transform="scale(0.015625)"/>
      </defs>
      <use xlink:href="#DejaVuSans-50"/>
      <use xlink:href="#DejaVuSans-72" x="58.552734"/>
      <use xlink:href="#DejaVuSans-65" x="97.416016"/>
      <use xlink:href="#DejaVuSans-63" x="158.939453"/>
      <use xlink:href="#DejaVuSans-69" x="213.919922"/>
      <use xlink:href="#DejaVuSans-73" x="241.703125"/>
      <use xlink:href="#DejaVuSans-69" x="293.802734"/>
      <use xlink:href="#DejaVuSans-6f" x="321.585938"/>
      <use xlink:href="#DejaVuSans-6e" x="382.767578"/>
      <use xlink:href="#DejaVuSans-20" x="446.146484"/>
      <use xlink:href="#DejaVuSans-28" x="477.933594"/>
      <use xlink:href="#DejaVuSans-50" x="516.947266"/>
      <use xlink:href="#DejaVuSans-6f" x="573.625"/>
      <use xlink:href="#DejaVuSans-73" x="634.806641"/>
      <use xlink:href="#DejaVuSans-69" x="686.90625"/>
      <use xlink:href="#DejaVuSans-74" x="714.689453"/>
      <use xlink:href="#DejaVuSans-69" x="753.898438"/>
      <use xlink:href="#DejaVuSans-76" x="781.681641"/>
      <use xlink:href="#DejaVuSans-65" x="840.861328"/>
      <use xlink:href="#DejaVuSans-20" x="902.384766"/>
      <use xlink:href="#DejaVuSans-6c" x="934.171875"/>
      <use xlink:href="#DejaVuSans-61" x="961.955078"/>
      <use xlink:href="#DejaVuSans-62" x="1023.234375"/>
      <use xlink:href="#DejaVuSans-65" x="1086.710938"/>
      <use xlink:href="#DejaVuSans-6c" x="1148.234375"/>
      <use xlink:href="#DejaVuSans-3a" x="1176.017578"/>
      <use xlink:href="#DejaVuSans-20" x="1209.708984"/>
      <use xlink:href="#DejaVuSans-31" x="1241.496094"/>
      <use xlink:href="#DejaVuSans-29" x="1305.119141"/>
     </g>
    </g>
   </g>
   <g id="line2d_13">
    <path d="M 398.487273 295.488 
L 398.487273 295.000748 
L 398.341622 295.000748 
L 398.268797 293.635869 
L 398.195972 293.635869 
L 398.123147 292.725542 
L 398.050322 292.725542 
L 397.977497 290.517873 
L 397.831846 290.545002 
L 397.759021 287.517256 
L 397.686196 287.517256 
L 397.686196 287.515489 
L 397.686196 285.944969 
L 397.540546 285.944969 
L 397.467721 282.554611 
L 397.394895 282.554611 
L 397.394895 282.461326 
L 397.394895 282.340817 
L 397.249245 282.340817 
L 397.17642 278.193326 
L 396.812294 278.208157 
L 396.739469 273.110687 
L 396.666644 273.110687 
L 396.666644 270.15269 
L 396.302518 270.15269 
L 396.229693 261.611896 
L 395.938392 261.611896 
L 395.865567 258.813069 
L 395.719917 258.813069 
L 395.719917 258.757989 
L 395.719917 258.649416 
L 395.210141 258.649416 
L 395.210141 255.53859 
L 394.846015 255.517691 
L 394.77319 251.749697 
L 394.700365 251.749697 
L 394.700365 248.145579 
L 394.263414 248.145579 
L 394.190589 245.045764 
L 393.753638 245.045764 
L 393.753638 241.144216 
L 392.952561 241.144216 
L 392.952561 238.562843 
L 392.879736 238.588899 
L 392.224309 238.599033 
L 392.151484 234.890949 
L 392.005834 234.916868 
L 392.005834 234.813319 
L 391.933009 234.666429 
L 391.059107 234.666429 
L 390.986282 231.281472 
L 390.185205 231.281472 
L 390.11238 227.682172 
L 390.039555 227.682172 
L 390.039555 227.571215 
L 390.039555 227.434491 
L 389.966729 227.460127 
L 389.311303 227.460127 
L 389.238478 223.555147 
L 388.00045 223.555147 
L 388.00045 219.94908 
L 387.345024 219.94908 
L 387.345024 215.731901 
L 386.471122 215.731901 
L 386.398297 212.397075 
L 384.868969 212.397075 
L 384.868969 208.752209 
L 384.796143 208.776877 
L 383.995067 208.776877 
L 383.922242 203.771169 
L 382.465738 203.771169 
L 382.465738 200.271321 
L 382.174438 200.177704 
L 382.174438 200.091075 
L 382.101613 200.115191 
L 380.64511 200.115191 
L 380.64511 197.122598 
L 380.572284 197.146552 
L 378.751655 197.194483 
L 378.67883 194.09748 
L 375.765824 194.19277 
L 375.765824 190.329991 
L 375.692999 190.353644 
L 375.401698 190.30477 
L 375.401698 190.268465 
L 375.401698 190.208465 
L 373.362594 190.208465 
L 373.289769 186.632755 
L 371.105014 186.632755 
L 371.032189 183.166769 
L 368.920259 183.166769 
L 368.920259 180.246202 
L 368.847434 180.269272 
L 368.556134 180.208615 
L 368.556134 180.231703 
L 368.556134 180.101675 
L 366.007253 180.101675 
L 365.934428 176.841848 
L 365.788778 176.841848 
L 365.788778 176.753913 
L 365.788778 176.553122 
L 362.948597 176.553122 
L 362.948597 173.6434 
L 362.730121 173.688875 
L 362.730121 173.574075 
L 362.730121 173.505261 
L 358.433437 173.505261 
L 358.433437 170.2971 
L 358.360612 170.319757 
L 355.593256 170.316624 
L 355.593256 167.724039 
L 355.520431 167.746577 
L 351.369397 167.786493 
L 351.369397 165.188539 
L 351.296572 165.211066 
L 347.218363 165.181137 
L 347.218363 162.360986 
L 347.145538 162.383445 
L 346.781412 162.473375 
L 346.781412 162.495881 
L 346.708587 162.208767 
L 342.411903 162.176225 
L 342.411903 159.042923 
L 342.047777 158.972162 
L 342.047777 158.834116 
L 341.974952 158.856475 
L 338.69782 158.923609 
L 338.69782 155.953175 
L 338.624994 155.975365 
L 338.260869 155.899013 
L 338.260869 155.921225 
L 338.260869 155.755847 
L 338.188044 155.778042 
L 334.109835 155.778042 
L 334.03701 153.837589 
L 334.03701 153.859826 
L 333.672884 153.863894 
L 333.672884 153.801135 
L 333.672884 153.630955 
L 333.600059 153.653196 
L 328.647948 153.571789 
L 328.575123 150.769035 
L 328.210997 150.81345 
L 328.210997 150.880147 
L 328.210997 150.791919 
L 328.138172 150.814157 
L 322.45781 150.814157 
L 322.45781 148.238193 
L 322.384985 148.260495 
L 316.850273 148.327463 
L 316.850273 145.766956 
L 316.777448 145.789318 
L 311.752512 145.739203 
L 311.679687 143.893013 
L 311.388386 143.862652 
L 311.388386 143.787223 
L 311.388386 143.591205 
L 306.946052 143.591205 
L 306.946052 139.6519 
L 306.873226 139.674007 
L 300.464613 139.749121 
L 300.464613 136.725588 
L 300.391788 136.747716 
L 294.565775 136.667493 
L 294.565775 134.51096 
L 294.49295 134.533197 
L 294.3473 134.555447 
L 294.3473 134.467143 
L 294.274474 134.26803 
L 288.885413 134.22386 
L 288.885413 131.966334 
L 288.812588 131.988581 
L 288.521287 131.940441 
L 288.521287 131.962712 
L 288.521287 131.732549 
L 281.894198 131.732549 
L 281.821373 128.347649 
L 281.384422 128.458467 
L 281.384422 128.48067 
L 273.956256 128.48067 
L 273.883431 126.068385 
L 273.519305 126.158224 
L 273.44648 126.203228 
L 273.44648 126.07594 
L 266.746566 126.07594 
L 266.67374 124.411425 
L 266.52809 124.434263 
L 266.52809 124.324132 
L 266.455265 124.080669 
L 259.027099 124.080669 
L 259.027099 122.610775 
L 258.954274 122.634053 
L 258.590148 122.727322 
L 258.517323 122.774052 
L 258.080372 122.844264 
L 258.007547 122.938103 
L 251.963059 122.938103 
L 251.963059 120.301454 
L 251.890234 120.324976 
L 244.534893 120.390216 
L 244.534893 118.045748 
L 244.462068 118.069593 
L 244.097942 118.165151 
L 244.025117 118.213036 
L 235.868699 118.284997 
L 235.795874 114.671685 
L 235.723049 114.671685 
L 235.723049 114.695694 
L 235.723049 114.363795 
L 235.650224 114.387712 
L 235.286098 114.483567 
L 235.286098 114.507577 
L 227.857932 114.507577 
L 227.785107 112.882985 
L 227.785107 112.907597 
L 227.420981 113.00625 
L 227.420981 113.030965 
L 227.420981 112.854728 
L 227.348156 112.8794 
L 226.98403 112.978293 
L 226.98403 113.003068 
L 218.754788 113.003068 
L 218.681963 110.747729 
L 218.536312 110.773086 
L 218.463487 110.256026 
L 210.962496 110.30646 
L 210.962496 108.790103 
L 210.889671 108.81609 
L 210.525545 108.920282 
L 210.45272 108.972526 
L 210.088594 109.07731 
L 210.015769 109.129851 
L 210.015769 108.927401 
L 202.878904 108.953625 
L 202.806079 106.52113 
L 195.742038 106.57443 
L 195.669213 102.841189 
L 195.450738 102.894143 
L 195.450738 102.920662 
L 195.450738 102.687319 
L 195.377913 102.713756 
L 187.075845 102.740221 
L 187.00302 99.942367 
L 186.930195 99.942367 
L 186.930195 99.96936 
L 186.930195 99.715001 
L 186.420418 99.822758 
L 186.347593 99.931019 
L 186.056293 99.985341 
L 185.983468 99.296977 
L 177.754225 99.296977 
L 177.754225 97.852958 
L 177.6814 97.881165 
L 177.462924 97.909408 
L 177.462924 97.685836 
L 177.390099 97.714027 
L 177.317274 97.714027 
L 177.317274 97.180202 
L 177.244449 97.20814 
L 177.171624 97.20814 
L 177.171624 97.236115 
L 177.171624 96.954223 
L 170.253234 96.954223 
L 170.253234 94.941575 
L 170.180409 94.970168 
L 169.961933 94.970168 
L 169.961933 94.750121 
L 169.743458 94.807278 
L 169.743458 94.835917 
L 169.743458 94.221357 
L 169.670633 94.249647 
L 169.597807 94.249647 
L 169.597807 94.277977 
L 169.597807 93.969666 
L 160.858789 93.969666 
L 160.858789 92.59057 
L 160.785964 92.620611 
L 160.640313 92.650698 
L 160.640313 91.651409 
L 160.567488 91.680863 
L 153.721923 91.680863 
L 153.721923 90.575937 
L 153.503448 90.638345 
L 153.503448 90.292909 
L 153.430623 90.323953 
L 153.139322 90.35505 
L 153.139322 90.448655 
L 153.139322 90.06983 
L 153.066497 90.100843 
L 144.982905 90.163027 
L 144.982905 87.585229 
L 144.91008 87.617626 
L 144.837254 87.617626 
L 144.837254 87.650085 
L 144.837254 86.792293 
L 144.764429 86.824056 
L 144.691604 86.824056 
L 144.618779 85.591463 
L 144.327478 85.653105 
L 144.327478 85.279668 
L 138.647116 85.279668 
L 138.647116 84.557834 
L 138.574291 84.590455 
L 138.28299 84.688731 
L 138.28299 83.283718 
L 131.146125 83.283718 
L 131.146125 82.429206 
L 131.0733 82.463729 
L 130.709174 82.567795 
L 130.636349 82.672614 
L 130.490699 82.707722 
L 130.490699 82.742915 
L 130.490699 82.193989 
L 130.417873 82.228645 
L 130.272223 82.263385 
L 130.272223 81.746076 
L 124.810336 81.746076 
L 124.737511 82.789971 
L 124.519036 82.789971 
L 124.519036 82.29504 
L 124.446211 82.333913 
L 118.474548 82.411975 
L 118.401723 83.902763 
L 118.183247 83.995957 
L 118.183247 84.042769 
L 113.376787 84.042769 
L 113.376787 83.607581 
L 113.303962 83.659552 
L 113.012661 83.659552 
L 112.939836 83.922131 
L 112.721361 83.975198 
L 112.721361 84.08189 
L 108.424676 84.08189 
L 108.351851 86.789573 
L 108.133376 86.85497 
L 108.133376 86.096008 
L 107.9149 86.096008 
L 107.842075 86.355712 
L 107.76925 86.355712 
L 107.76925 86.421288 
L 107.76925 84.612921 
L 104.055167 84.612921 
L 104.055167 84.10485 
L 103.982342 84.173938 
L 103.836692 84.243339 
L 103.763866 84.38309 
L 103.618216 84.453444 
L 103.545391 84.59512 
L 100.195434 84.666447 
L 100.122609 87.18833 
L 99.904133 87.275204 
L 99.831308 87.538541 
L 99.612832 87.627237 
L 99.612832 87.806026 
L 99.467182 87.806026 
L 99.394357 88.077756 
L 99.248707 88.169294 
L 99.175882 88.353834 
L 96.554176 88.353834 
L 96.481351 92.161751 
L 96.408526 92.161751 
L 96.3357 92.391476 
L 96.262875 92.391476 
L 96.262875 91.177435 
L 96.19005 91.290376 
L 96.117225 91.290376 
L 96.0444 91.518306 
L 95.971575 91.518306 
L 95.971575 91.633307 
L 95.971575 90.280507 
L 95.89875 90.392435 
L 95.753099 90.392435 
L 95.753099 90.618352 
L 93.058568 90.618352 
L 93.058568 92.286263 
L 92.912918 92.286263 
L 92.912918 90.994074 
L 92.840093 91.126321 
L 92.694443 91.126321 
L 92.621618 91.528732 
L 92.548792 91.528732 
L 92.475967 91.801831 
L 92.403142 91.801831 
L 92.403142 91.939859 
L 89.927087 91.939859 
L 89.927087 97.308761 
L 89.781436 97.308761 
L 89.708611 97.85552 
L 89.635786 97.85552 
L 89.635786 98.040824 
L 89.562961 96.377571 
L 89.417311 96.377571 
L 89.344486 96.926412 
L 89.27166 96.926412 
L 89.27166 97.112499 
L 89.27166 95.217706 
L 87.960808 95.217706 
L 87.887982 98.932938 
L 87.742332 98.932938 
L 87.742332 95.17785 
L 87.669507 95.377897 
L 87.596682 95.377897 
L 87.523857 95.783818 
L 87.451031 95.783818 
L 87.451031 95.989749 
L 86.57713 95.989749 
L 86.57713 91.710362 
L 86.504304 91.912174 
L 86.431479 91.912174 
L 86.358654 92.322272 
L 86.285829 92.322272 
L 86.213004 92.741237 
L 86.140179 92.741237 
L 86.067353 93.16936 
L 85.994528 93.16936 
L 85.921703 93.606944 
L 85.848878 93.606944 
L 85.848878 93.829382 
L 84.538025 93.829382 
L 84.538025 98.302869 
L 84.392375 98.302869 
L 84.392375 98.862055 
L 84.392375 96.108328 
L 84.31955 96.377571 
L 83.299998 96.377571 
L 83.299998 97.489508 
L 83.154347 97.489508 
L 83.154347 91.801831 
L 83.081522 92.078887 
L 83.008697 92.078887 
L 83.008697 92.359989 
L 83.008697 89.092749 
L 82.935872 89.355895 
L 82.863047 89.355895 
L 82.863047 89.622969 
L 82.863047 86.261453 
L 82.790221 86.509131 
L 82.717396 86.509131 
L 82.717396 86.76059 
L 81.770669 86.76059 
L 81.697844 90.732353 
L 81.625019 90.732353 
L 81.552194 91.378689 
L 81.333718 91.378689 
L 81.333718 92.391476 
L 81.188068 92.391476 
L 81.188068 93.097357 
L 80.386991 93.097357 
L 80.386991 97.489508 
L 80.241341 97.489508 
L 80.168516 98.862055 
L 80.095691 98.862055 
L 80.095691 99.338835 
L 80.095691 94.686007 
L 79.877215 94.686007 
L 79.877215 96.041546 
L 79.65874 96.041546 
L 79.585915 97.994353 
L 79.585915 92.893071 
L 79.513089 92.893071 
L 79.513089 93.355719 
L 79.367439 93.355719 
L 79.367439 88.919458 
L 79.148964 88.919458 
L 79.148964 90.261918 
L 78.566362 90.261918 
L 78.566362 94.396444 
L 78.420712 94.396444 
L 78.347887 96.197699 
L 78.275062 96.197699 
L 78.202237 97.489508 
L 77.692461 97.489508 
L 77.619635 103.547647 
L 77.109859 103.547647 
L 77.037034 111.54439 
L 76.964209 111.54439 
L 76.891384 113.960073 
L 76.891384 104.965509 
L 76.745734 104.965509 
L 76.745734 97.489508 
L 76.672908 98.510938 
L 76.090307 98.510938 
L 76.090307 108.78361 
L 75.434881 108.78361 
L 75.362056 130.869854 
L 75.28923 130.869854 
L 75.28923 134.090764 
L 75.14358 134.090764 
L 75.14358 141.411016 
L 74.99793 141.411016 
L 74.99793 150.195317 
L 73.832727 150.195317 
L 73.832727 53.568 
L 73.832727 53.568 
" clip-path="url(#pb6e63fd698)" style="fill: none; stroke: #1f77b4; stroke-width: 1.5; stroke-linecap: square"/>
   </g>
   <g id="patch_3">
    <path d="M 57.6 307.584 
L 57.6 41.472 
" style="fill: none; stroke: #000000; stroke-width: 0.8; stroke-linejoin: miter; stroke-linecap: square"/>
   </g>
   <g id="patch_4">
    <path d="M 414.72 307.584 
L 414.72 41.472 
" style="fill: none; stroke: #000000; stroke-width: 0.8; stroke-linejoin: miter; stroke-linecap: square"/>
   </g>
   <g id="patch_5">
    <path d="M 57.6 307.584 
L 414.72 307.584 
" style="fill: none; stroke: #000000; stroke-width: 0.8; stroke-linejoin: miter; stroke-linecap: square"/>
   </g>
   <g id="patch_6">
    <path d="M 57.6 41.472 
L 414.72 41.472 
" style="fill: none; stroke: #000000; stroke-width: 0.8; stroke-linejoin: miter; stroke-linecap: square"/>
   </g>
   <g id="legend_1">
    <g id="patch_7">
     <path d="M 64.6 302.584 
L 196.584375 302.584 
Q 198.584375 302.584 198.584375 300.584 
L 198.584375 286.905875 
Q 198.584375 284.905875 196.584375 284.905875 
L 64.6 284.905875 
Q 62.6 284.905875 62.6 286.905875 
L 62.6 300.584 
Q 62.6 302.584 64.6 302.584 
z
" style="fill: #ffffff; opacity: 0.8; stroke: #cccccc; stroke-linejoin: miter"/>
    </g>
    <g id="line2d_14">
     <path d="M 66.6 293.004312 
L 76.6 293.004312 
L 76.6 293.004312 
L 86.6 293.004312 
L 86.6 293.004312 
" style="fill: none; stroke: #1f77b4; stroke-width: 1.5; stroke-linecap: square"/>
    </g>
    <g id="text_15">
     <!-- Pipeline (AP = 0.85) -->
     <g transform="translate(94.6 296.504312) scale(0.1 -0.1)">
      <defs>
       <path id="DejaVuSans-70" d="M 1159 525 
L 1159 -1331 
L 581 -1331 
L 581 3500 
L 1159 3500 
L 1159 2969 
Q 1341 3281 1617 3432 
Q 1894 3584 2278 3584 
Q 2916 3584 3314 3078 
Q 3713 2572 3713 1747 
Q 3713 922 3314 415 
Q 2916 -91 2278 -91 
Q 1894 -91 1617 61 
Q 1341 213 1159 525 
z
M 3116 1747 
Q 3116 2381 2855 2742 
Q 2594 3103 2138 3103 
Q 1681 3103 1420 2742 
Q 1159 2381 1159 1747 
Q 1159 1113 1420 752 
Q 1681 391 2138 391 
Q 2594 391 2855 752 
Q 3116 1113 3116 1747 
z
" transform="scale(0.015625)"/>
       <path id="DejaVuSans-41" d="M 2188 4044 
L 1331 1722 
L 3047 1722 
L 2188 4044 
z
M 1831 4666 
L 2547 4666 
L 4325 0 
L 3669 0 
L 3244 1197 
L 1141 1197 
L 716 0 
L 50 0 
L 1831 4666 
z
" transform="scale(0.015625)"/>
       <path id="DejaVuSans-3d" d="M 678 2906 
L 4684 2906 
L 4684 2381 
L 678 2381 
L 678 2906 
z
M 678 1631 
L 4684 1631 
L 4684 1100 
L 678 1100 
L 678 1631 
z
" transform="scale(0.015625)"/>
      </defs>
      <use xlink:href="#DejaVuSans-50"/>
      <use xlink:href="#DejaVuSans-69" x="58.052734"/>
      <use xlink:href="#DejaVuSans-70" x="85.835938"/>
      <use xlink:href="#DejaVuSans-65" x="149.3125"/>
      <use xlink:href="#DejaVuSans-6c" x="210.835938"/>
      <use xlink:href="#DejaVuSans-69" x="238.619141"/>
      <use xlink:href="#DejaVuSans-6e" x="266.402344"/>
      <use xlink:href="#DejaVuSans-65" x="329.78125"/>
      <use xlink:href="#DejaVuSans-20" x="391.304688"/>
      <use xlink:href="#DejaVuSans-28" x="423.091797"/>
      <use xlink:href="#DejaVuSans-41" x="462.105469"/>
      <use xlink:href="#DejaVuSans-50" x="530.513672"/>
      <use xlink:href="#DejaVuSans-20" x="590.816406"/>
      <use xlink:href="#DejaVuSans-3d" x="622.603516"/>
      <use xlink:href="#DejaVuSans-20" x="706.392578"/>
      <use xlink:href="#DejaVuSans-30" x="738.179688"/>
      <use xlink:href="#DejaVuSans-2e" x="801.802734"/>
      <use xlink:href="#DejaVuSans-38" x="833.589844"/>
      <use xlink:href="#DejaVuSans-35" x="897.212891"/>
      <use xlink:href="#DejaVuSans-29" x="960.835938"/>
     </g>
    </g>
   </g>
  </g>
 </g>
 <defs>
  <clipPath id="pb6e63fd698">
   <rect x="57.6" y="41.472" width="357.12" height="266.112"/>
  </clipPath>
 </defs>
</svg>
